<svg width="58" height="45" viewBox="0 0 58 45" fill="none" xmlns="http://www.w3.org/2000/svg">
<path d="M40.92 2.34002C41.3011 2.34002 41.61 2.0311 41.61 1.65002C41.61 1.26895 41.3011 0.960022 40.92 0.960022C40.5389 0.960022 40.23 1.26895 40.23 1.65002C40.23 2.0311 40.5389 2.34002 40.92 2.34002Z" fill="white"/>
<path d="M36.2001 43.68C36.6401 43.3 36.9601 42.8 37.2101 42.23C37.3401 41.92 37.2101 41.54 36.9001 41.41C36.5901 41.28 36.2101 41.41 36.0801 41.72C35.5801 42.92 34.4401 43.67 33.1901 43.67C33.0001 43.67 32.8101 43.61 32.6201 43.54C32.3701 43.41 32.1801 43.16 32.0501 42.85C31.9901 42.54 31.9901 42.22 32.1801 41.97L35.0101 37.06L37.9701 38.76L37.8401 38.95C37.4001 39.71 37.6501 40.65 38.4101 41.09L41.8101 43.04C41.9401 43.1 41.9401 43.17 41.9401 43.29C41.9401 43.48 41.8101 43.6 41.6301 43.6H36.2001V43.68Z" fill="white"/>
<path d="M14.37 38.15C14.24 38.02 14.12 37.84 14.06 37.65C13.87 37.02 14.12 36.39 14.75 36.14L20.1 34.19L21.3 37.4L20.99 37.53C20.61 37.66 20.3 37.97 20.11 38.35C19.92 38.73 19.92 39.17 20.05 39.55L21.37 43.26C21.43 43.39 21.37 43.45 21.31 43.57C21.18 43.7 21 43.7 20.87 43.63L14.37 38.15Z" fill="white"/>
<path d="M27.08 31.66C27.46 31.53 27.71 31.28 27.9 30.97L30.54 26.38C30.54 26.38 30.54 26.38 30.54 26.32C30.54 26.26 30.54 26.26 30.6 26.19C30.6 26.13 30.6 26.13 30.6 26.06C30.6 26 30.6 26 30.6 25.93C30.6 25.87 30.6 25.87 30.6 25.8C30.6 25.74 30.6 25.74 30.54 25.67C30.54 25.61 30.48 25.61 30.48 25.54C30.48 25.54 30.48 25.54 30.48 25.48C29.47 24.47 29.28 22.9 29.98 21.7L35.33 12.45C35.71 11.82 36.27 11.32 36.97 11.07C38.61 10.5 40.37 11.32 40.93 12.96L43.07 18.81C43.2 19.19 43.51 19.5 43.89 19.69C44.08 19.82 44.33 19.82 44.52 19.82C44.71 19.82 44.9 19.76 45.09 19.69L48.68 18.37L49.56 20.7L45.16 22.34C43.52 22.91 41.76 22.09 41.2 20.45L39.38 15.42C39.25 15.11 38.88 14.92 38.56 15.04C38.25 15.17 38.06 15.54 38.18 15.86L39.12 18.44L30.67 32.99C30.17 33.81 29.41 34.44 28.53 34.75L22.43 37.02L21.23 33.81L27.08 31.66Z" fill="white"/>
<path d="M40.7399 27.76C41.4299 28.2 41.9999 28.83 42.1899 29.65C42.3799 30.47 42.3199 31.29 41.8799 32.04L38.6099 37.7L35.6499 35.94L37.9799 31.91C38.4199 31.15 38.1699 30.21 37.4099 29.77L34.8899 28.32L36.5899 25.36L40.7399 27.76Z" fill="white"/>
<path d="M43.8801 7.69L46.7701 8.76V8.82C46.3901 9.76 45.5101 10.39 44.5001 10.46C43.2401 10.52 42.1101 9.64 41.8601 8.45L43.8801 7.69Z" fill="white"/>
<path d="M42.94 3.28998C44.45 3.28998 45.77 4.10998 46.46 5.36998L40.86 7.37998C40.8 7.37998 40.8 7.43998 40.73 7.43998C40.66 7.43998 40.67 7.49998 40.67 7.49998C40.67 7.49998 40.61 7.55998 40.61 7.62998C40.61 7.69998 40.55 7.68998 40.55 7.75998C40.55 7.81998 40.55 7.81998 40.55 7.88998C40.55 7.95998 40.55 7.94998 40.55 8.01998C40.55 8.01998 40.55 8.01998 40.55 8.07998C40.61 9.08998 41.05 10.03 41.81 10.72C42.12 11.03 42.5 11.22 42.94 11.41C40.74 11.35 38.98 9.58998 38.98 7.37998C38.91 5.10998 40.74 3.28998 42.94 3.28998Z" fill="white"/>
<path d="M30.9799 13.48C30.4099 13.48 29.9099 13.79 29.5999 14.24L27.5199 17.89L25.3799 16.63L27.7699 12.54C28.3399 11.6 29.3399 10.97 30.4799 10.97H34.9499C34.6399 11.22 34.3799 11.54 34.1899 11.91L33.3099 13.48H30.9799Z" fill="white"/>
<path d="M40.92 2.34002C41.3011 2.34002 41.61 2.0311 41.61 1.65002C41.61 1.26895 41.3011 0.960022 40.92 0.960022C40.5389 0.960022 40.23 1.26895 40.23 1.65002C40.23 2.0311 40.5389 2.34002 40.92 2.34002Z" fill="white"/>
<path d="M37.2001 44.16C37.6401 43.78 37.9601 43.28 38.2101 42.71C38.3401 42.4 38.2101 42.02 37.9001 41.89C37.5901 41.76 37.2101 41.89 37.0801 42.2C36.5801 43.4 35.4401 44.15 34.1901 44.15C34.0001 44.15 33.8101 44.09 33.6201 44.02C33.3701 43.89 33.1801 43.64 33.0501 43.33C32.9901 43.02 32.9901 42.7 33.1801 42.45L36.0101 37.54L38.9701 39.24L38.8401 39.43C38.4001 40.19 38.6501 41.13 39.4101 41.57L42.8101 43.52C42.9401 43.58 42.9401 43.65 42.9401 43.77C42.9401 43.96 42.8101 44.08 42.6301 44.08H37.2001V44.16Z" fill="#A3EFE0"/>
<path d="M15.37 38.62C15.24 38.49 15.12 38.31 15.06 38.12C14.87 37.49 15.12 36.86 15.75 36.61L21.1 34.66L22.3 37.87L21.98 37.99C21.6 38.12 21.29 38.43 21.1 38.81C20.91 39.19 20.91 39.63 21.04 40.01L22.36 43.72C22.42 43.85 22.36 43.91 22.3 44.03C22.17 44.16 21.99 44.16 21.86 44.09L15.37 38.62Z" fill="#A3EFE0"/>
<path d="M28.08 32.14C28.46 32.01 28.71 31.76 28.9 31.45L31.54 26.86C31.54 26.86 31.54 26.86 31.54 26.8C31.54 26.74 31.54 26.74 31.6 26.67C31.6 26.61 31.6 26.61 31.6 26.54C31.6 26.48 31.6 26.48 31.6 26.41C31.6 26.35 31.6 26.35 31.6 26.28C31.6 26.22 31.6 26.22 31.54 26.15C31.54 26.09 31.48 26.09 31.48 26.02C31.48 26.02 31.48 26.02 31.48 25.96C30.47 24.95 30.28 23.38 30.98 22.18L36.33 12.93C36.71 12.3 37.27 11.8 37.97 11.55C39.61 10.98 41.37 11.8 41.93 13.44L44.07 19.29C44.2 19.67 44.51 19.98 44.89 20.17C45.08 20.3 45.33 20.3 45.52 20.3C45.71 20.3 45.9 20.24 46.09 20.17L49.68 18.85L50.56 21.18L46.16 22.82C44.52 23.39 42.76 22.57 42.2 20.93L40.38 15.9C40.25 15.59 39.88 15.4 39.56 15.52C39.25 15.65 39.06 16.02 39.18 16.34L40.12 18.92L31.69 33.45C31.19 34.27 30.43 34.9 29.55 35.21L23.45 37.48L22.25 34.27L28.08 32.14Z" fill="#CCB8F4"/>
<path d="M41.7299 28.24C42.4199 28.68 42.9899 29.31 43.1799 30.13C43.3699 30.95 43.3099 31.77 42.8699 32.52L39.5999 38.18L36.6399 36.42L38.9699 32.39C39.4099 31.63 39.1599 30.69 38.3999 30.25L35.8799 28.8L37.5799 25.84L41.7299 28.24Z" fill="#CCB8F4"/>
<path d="M43.8801 7.69L46.7701 8.76V8.82C46.3901 9.76 45.5101 10.39 44.5001 10.46C43.2401 10.52 42.1101 9.64 41.8601 8.45L43.8801 7.69Z" fill="white"/>
<path d="M43.94 3.76001C45.45 3.76001 46.77 4.58001 47.46 5.84001L41.86 7.85001C41.8 7.85001 41.8 7.91001 41.73 7.91001C41.66 7.91001 41.67 7.97001 41.67 7.97001C41.67 7.97001 41.61 8.03001 41.61 8.10001C41.61 8.17001 41.55 8.16001 41.55 8.23001C41.55 8.29001 41.55 8.29001 41.55 8.36001C41.55 8.42001 41.55 8.42001 41.55 8.49001C41.55 8.49001 41.55 8.49001 41.55 8.55001C41.61 9.56001 42.05 10.5 42.81 11.19C43.12 11.5 43.5 11.69 43.94 11.88C41.74 11.82 39.98 10.06 39.98 7.85001C39.91 5.59001 41.73 3.76001 43.94 3.76001Z" fill="#A3EFE0"/>
<path d="M31.9799 13.96C31.4099 13.96 30.9099 14.27 30.5999 14.72L28.5199 18.37L26.3799 17.11L28.7699 13.02C29.3399 12.08 30.3399 11.45 31.4799 11.45H35.9499C35.6399 11.7 35.3799 12.02 35.1899 12.39L34.3099 13.96H31.9799Z" fill="#CCB8F4"/>
<path d="M57.38 41.51C57.31 41.48 57.23 41.47 57.16 41.47C56.94 41.47 56.76 41.59 56.69 41.77C56.17 42.99 55 43.78 53.7 43.78H50.87H50.77V43.68V42.86V42.76H50.87H51.81C51.94 42.76 52.02 42.68 52.02 42.55C52.02 42.42 51.94 42.34 51.81 42.34H50.87H50.77V42.24V21.72V21.65L50.84 21.63L51.41 21.44C52.64 21.03 53.29 19.65 52.86 18.36C52.49 17.4 51.6 16.78 50.59 16.78C50.32 16.78 50.04 16.83 49.77 16.91L48.77 17.29L44.62 18.8C44.58 18.82 44.53 18.83 44.48 18.83C44.43 18.83 44.39 18.82 44.37 18.81C44.36 18.81 44.34 18.8 44.34 18.8C44.18 18.8 44.09 18.62 44.06 18.56L41.92 12.7L41.91 12.68V12.66V12.6V12.48L42.03 12.5C42.33 12.56 42.65 12.56 42.95 12.56C45.09 12.56 47.05 11.23 47.82 9.24C47.83 9.19 47.86 9.14 47.9 9.12C48.1 8.5 48.19 7.98 48.19 7.44C48.19 6.89 48.09 6.35 47.88 5.71C47.12 3.68 45.16 2.32 43 2.32H42.87H42.77V2.22C42.77 2.14 42.79 2.07 42.8 2.01C42.81 1.95 42.83 1.9 42.83 1.85C42.83 0.83 42 0 40.98 0C39.96 0 39.13 0.83 39.13 1.85C39.13 2.37 39.35 2.85 39.79 3.29L39.87 3.37L39.78 3.44C38.54 4.42 37.8 5.94 37.8 7.51C37.8 8.39 37.99 9.18 38.35 9.85L38.45 9.99H38.28H38.03H30.48C28.93 9.99 27.52 10.81 26.79 12.14L24.08 16.8L23.58 17.74C23.4 18.04 23.34 18.34 23.28 18.66L23.26 18.74H23.18H2.04H1.94V18.64V17.7C1.94 17.57 1.86 17.49 1.73 17.49C1.6 17.49 1.52 17.57 1.52 17.7V18.64V18.74H1.42H0.53C0.4 18.74 0.32 18.82 0.32 18.95C0.32 19.08 0.4 19.16 0.53 19.16H1.47H1.57V19.26V20.2C1.57 20.33 1.65 20.41 1.78 20.41C1.91 20.41 2 20.35 2 20.21V19.27V19.17H2.1H23.18H23.28V19.27C23.28 19.36 23.28 19.48 23.31 19.51L23.33 19.53L23.34 19.55C23.48 20.02 23.79 20.65 24.48 21C24.8 21.21 25.18 21.3 25.69 21.3C26.56 21.3 27.33 20.86 27.81 20.09L28.38 19.15L30.77 15C30.86 14.82 30.98 14.82 31.11 14.82H32.62H32.79L32.7 14.97L28.99 21.45C28.09 22.95 28.24 24.88 29.36 26.24L29.4 26.29L29.37 26.35L26.92 30.57L26.91 30.58L26.9 30.59C26.89 30.6 26.88 30.62 26.87 30.63C26.83 30.69 26.78 30.74 26.66 30.75L14.34 35.21C13.76 35.41 13.3 35.83 13.04 36.39C12.78 36.95 12.75 37.58 12.96 38.16C13.08 38.53 13.33 38.89 13.62 39.12L19.1 43.71L19.31 43.89H19.04H0.53C0.21 43.91 0 44.12 0 44.44C0 44.76 0.21 44.97 0.53 44.97H53.76C55.51 44.97 57.09 43.91 57.69 42.33C57.78 42.02 57.75 41.63 57.38 41.51ZM46.88 8.69V8.76V8.82V8.84L46.87 8.86C46.48 9.84 45.58 10.49 44.52 10.56C44.47 10.56 44.43 10.56 44.39 10.56C43.13 10.56 42.03 9.68 41.78 8.46L41.76 8.38L41.84 8.35L43.85 7.59L43.88 7.58L43.91 7.59L46.8 8.66L46.88 8.69ZM40.92 0.86C41.35 0.86 41.71 1.22 41.71 1.65C41.71 2.08 41.35 2.44 40.92 2.44C40.49 2.44 40.13 2.08 40.13 1.65C40.13 1.19 40.46 0.86 40.92 0.86ZM40.03 4.42C40.8 3.62 41.84 3.19 42.94 3.19C44.45 3.19 45.83 4.01 46.55 5.32L46.61 5.42L46.5 5.46L40.9 7.47L40.88 7.48H40.86C40.85 7.5 40.82 7.53 40.77 7.54V7.55L40.74 7.58C40.72 7.6 40.71 7.62 40.71 7.64C40.71 7.71 40.67 7.75 40.65 7.77V7.89V8.02V8.08C40.71 9.07 41.15 9.98 41.88 10.65C42.17 10.94 42.52 11.12 42.98 11.32L43.46 11.53L42.94 11.51C40.66 11.44 38.88 9.63 38.88 7.38C38.84 6.27 39.25 5.22 40.03 4.42ZM30.98 13.58C30.48 13.58 30 13.85 29.68 14.29L27.61 17.93L27.56 18.02L27.47 17.97L25.33 16.71L25.24 16.66L25.29 16.57L27.68 12.48C28.29 11.46 29.33 10.86 30.47 10.86H34.94H35.23L35.01 11.04C34.71 11.28 34.46 11.59 34.28 11.95L33.4 13.53L33.37 13.58H33.31H30.98ZM21.2 33.71L27.05 31.57C27.37 31.46 27.61 31.26 27.82 30.92L30.45 26.35V26.31C30.45 26.23 30.46 26.2 30.51 26.14V26.05V25.92V25.79C30.51 25.78 30.51 25.77 30.51 25.76C30.51 25.76 30.49 25.75 30.48 25.73L30.45 25.7V25.69C30.43 25.68 30.39 25.64 30.39 25.56V25.54C29.38 24.5 29.18 22.92 29.9 21.67L35.25 12.42C35.65 11.75 36.25 11.24 36.94 10.99C37.29 10.87 37.66 10.81 38.03 10.81C39.41 10.81 40.59 11.65 41.03 12.94L43.17 18.79C43.28 19.13 43.56 19.43 43.94 19.62C44.11 19.74 44.34 19.74 44.52 19.74C44.69 19.74 44.87 19.68 45.05 19.62L48.63 18.3L48.72 18.27L48.76 18.36L49.64 20.69L49.68 20.78L49.59 20.82L45.19 22.46C44.83 22.58 44.47 22.65 44.1 22.65C42.72 22.65 41.54 21.81 41.1 20.52L39.28 15.49C39.2 15.29 38.98 15.14 38.76 15.14C38.7 15.14 38.64 15.15 38.59 15.17C38.46 15.22 38.35 15.33 38.29 15.46C38.23 15.59 38.22 15.74 38.27 15.86L39.21 18.44L39.23 18.48L39.21 18.52L30.78 33.05C30.26 33.9 29.48 34.54 28.59 34.86L22.49 37.12L22.4 37.15L22.37 37.06L21.17 33.85L21.13 33.76L21.2 33.71ZM38.04 30.75C37.94 30.38 37.7 30.06 37.35 29.86L34.83 28.41L34.74 28.36L34.79 28.27L36.49 25.31L36.54 25.22L36.63 25.27L40.78 27.66C41.58 28.17 42.1 28.84 42.27 29.61C42.48 30.52 42.37 31.34 41.94 32.07L38.67 37.73L38.62 37.82L38.53 37.77L35.57 36.01L35.49 35.96L35.54 35.87L37.87 31.84C38.08 31.52 38.13 31.13 38.04 30.75ZM21.41 43.54C21.4 43.56 21.39 43.58 21.38 43.6L21.37 43.61L21.36 43.62C21.27 43.71 21.16 43.75 21.03 43.75C20.95 43.75 20.87 43.73 20.81 43.7L14.31 38.21C14.16 38.06 14.03 37.85 13.97 37.66C13.76 36.96 14.07 36.29 14.72 36.03L20.07 34.08L20.16 34.05L20.19 34.14L21.39 37.35L21.42 37.44L21.33 37.48L21.02 37.61C20.68 37.72 20.38 38 20.19 38.38C20.03 38.71 20 39.12 20.13 39.5L21.45 43.21C21.52 43.35 21.47 43.45 21.41 43.54ZM31.05 43.72H22.62H22.49L22.52 43.6C22.59 43.34 22.57 43.11 22.46 42.84L21.14 39.12C21.08 39.01 21.11 38.92 21.13 38.86C21.13 38.85 21.14 38.83 21.14 38.83C21.14 38.67 21.32 38.58 21.38 38.55L22.27 38.23L29 35.79C30.15 35.37 31.09 34.58 31.72 33.51L34.17 29.29L34.22 29.2L34.31 29.25L36.83 30.7C37 30.79 37.08 31.03 37 31.26L31.2 41.35C30.91 41.87 30.83 42.46 30.96 43.11C31.02 43.28 31.08 43.47 31.14 43.59L31.21 43.73H31.05V43.72ZM41.62 43.72H36.32C36.31 43.73 36.29 43.75 36.28 43.76L36.11 43.9V43.68V43.62V43.52H36.21H36.24C36.58 43.2 36.87 42.76 37.12 42.2C37.17 42.07 37.17 41.92 37.13 41.8C37.08 41.67 36.99 41.57 36.86 41.52C36.79 41.49 36.72 41.48 36.65 41.48C36.43 41.48 36.25 41.6 36.18 41.78C35.66 43 34.49 43.79 33.19 43.79C32.98 43.79 32.79 43.72 32.59 43.66C32.32 43.53 32.11 43.27 31.96 42.91C31.87 42.48 31.92 42.17 32.1 41.93L34.92 37.03L34.97 36.94L35.06 36.99L38.02 38.69L38.11 38.74L38.05 38.83L37.92 39.02C37.51 39.72 37.74 40.6 38.45 41.02L41.85 42.97C42.03 43.06 42.03 43.18 42.03 43.31C42.03 43.55 41.86 43.72 41.62 43.72ZM50.4 21.91V42.17V42.27H50.3H49.36C49.23 42.27 49.15 42.35 49.15 42.48C49.15 42.61 49.23 42.69 49.36 42.69H50.3H50.4V42.79V43.61V43.71H50.3H43.19H43.09V43.61V43.3C43.09 42.8 42.82 42.32 42.38 42L38.99 40.05C38.82 39.96 38.74 39.72 38.82 39.49L42.86 32.49C43.44 31.47 43.59 30.31 43.29 29.23C42.98 28.1 42.28 27.18 41.32 26.65L37.17 24.26L37.08 24.21L37.13 24.12L39.46 20.09L39.57 19.9L39.64 20.1L39.95 20.98C40.54 22.65 42.19 23.81 43.95 23.81C44.5 23.81 44.98 23.73 45.42 23.56L50.27 21.8L50.4 21.75V21.91Z" fill="#464860"/>
</svg>
