<svg width="46" height="46" viewBox="0 0 46 46" fill="none" xmlns="http://www.w3.org/2000/svg">
<path d="M27.7324 21.398H18.1646V35.0658H27.7324V21.398Z" fill="white"/>
<path fill-rule="evenodd" clip-rule="evenodd" d="M29.0986 21.398V35.0658H38.6665V23.4411C38.6665 22.3125 37.7466 21.398 36.6096 21.398H29.0986Z" fill="white"/>
<path fill-rule="evenodd" clip-rule="evenodd" d="M16.7971 21.398H9.28687C8.14986 21.398 7.22998 22.3133 7.22998 23.4411V35.0658H16.7978V21.398H16.7971Z" fill="white"/>
<path fill-rule="evenodd" clip-rule="evenodd" d="M38.6656 36.4323H7.22998V42.5899C7.22998 43.7184 8.14986 44.6329 9.28687 44.6329H36.6087C37.7457 44.6329 38.6656 43.7177 38.6656 42.5899V36.4323Z" fill="white"/>
<path fill-rule="evenodd" clip-rule="evenodd" d="M20.2496 8.43981C21.3321 8.10914 21.942 6.96293 21.6106 5.87963C21.2791 4.7971 20.1337 4.18717 19.0504 4.5186C17.9679 4.85004 17.3579 5.99548 17.6894 7.07878C18.0208 8.16131 19.167 8.77047 20.2496 8.43981Z" fill="white"/>
<path fill-rule="evenodd" clip-rule="evenodd" d="M25.4783 6.84093C26.5608 6.5095 27.1708 5.36405 26.8393 4.28076C26.5079 3.19822 25.3625 2.58829 24.2792 2.91973C23.1966 3.25039 22.5867 4.3966 22.9181 5.4799C23.2496 6.56243 24.395 7.17237 25.4783 6.84093Z" fill="white"/>
<path fill-rule="evenodd" clip-rule="evenodd" d="M39.7881 37.3406H8.35254V43.4983C8.35254 44.6268 9.27242 45.5413 10.4094 45.5413H37.7313C38.8683 45.5413 39.7881 44.626 39.7881 43.4983V37.3406Z" fill="#CCB8F4"/>
<path d="M27.7324 21.398H18.1646V35.0658H27.7324V21.398Z" fill="white"/>
<path fill-rule="evenodd" clip-rule="evenodd" d="M30.2212 22.2619V35.9297H39.7883V24.305C39.7883 23.1764 38.8684 22.2619 37.7314 22.2619H30.2212Z" fill="#A3EFE0"/>
<path fill-rule="evenodd" clip-rule="evenodd" d="M17.9196 22.2619H10.4094C9.27242 22.2619 8.35254 23.1772 8.35254 24.305V35.9297H17.9204V22.2619H17.9196Z" fill="#A3EFE0"/>
<path fill-rule="evenodd" clip-rule="evenodd" d="M20.9334 9.0858C22.0159 8.75514 22.6259 7.60893 22.2944 6.52563C21.963 5.4431 20.8175 4.83317 19.7342 5.1646C18.6517 5.49603 18.0418 6.64148 18.3732 7.72478C18.7047 8.80731 19.8509 9.41724 20.9334 9.0858Z" fill="#CCB8F4"/>
<path fill-rule="evenodd" clip-rule="evenodd" d="M26.1619 7.48778C27.2444 7.15635 27.8544 6.0109 27.5229 4.92761C27.1915 3.84507 26.0461 3.23514 24.9628 3.56658C23.8802 3.89725 23.2703 5.04345 23.6017 6.12675C23.9324 7.20928 25.0786 7.81845 26.1619 7.48778Z" fill="#CCB8F4"/>
<path d="M22.2644 20.0809H22.3144V20.0309V9.34287V9.27486L22.2495 9.29514L1.26865 15.8517L1.26864 15.8517C0.934471 15.9562 0.579635 15.77 0.475077 15.4357C0.370562 15.1015 0.556799 14.7467 0.891099 14.6421L17.7681 9.36834L17.8681 9.33712L17.781 9.27903C17.1565 8.86246 16.6674 8.23658 16.4308 7.46316C15.8873 5.6851 16.8882 3.8027 18.6662 3.25915L18.6516 3.21134L18.6663 3.25915C19.7193 2.93711 20.8094 3.15703 21.6358 3.75963L21.6896 3.79885L21.7122 3.73627C22.0608 2.77452 22.841 1.9831 23.8948 1.66106L23.8802 1.61324L23.8948 1.66106C25.6728 1.11751 27.5552 2.11843 28.0988 3.89649C28.3264 4.64119 28.2833 5.40314 28.0262 6.07825L27.9896 6.17448L28.0879 6.14376L44.6274 0.975081L44.6274 0.975077C44.9615 0.870562 45.3164 1.0568 45.4209 1.3911C45.5254 1.72526 45.3392 2.0801 45.0049 2.18466L23.6159 8.86858L23.5808 8.87954V8.9163V20.0316V20.0816H23.6308H36.6082C38.4711 20.0816 39.9822 21.5847 39.9822 23.4419V42.5906C39.9822 44.4471 38.4719 45.9509 36.6082 45.9509H9.28708C7.42408 45.9509 5.91303 44.4478 5.91303 42.5906V23.4411C5.91303 21.5846 7.42333 20.0809 9.28708 20.0809H22.2644ZM27.7315 35.1158H27.7815V35.0658V21.398V21.348H27.7315H18.1645H18.1145V21.398V35.0658V35.1158H18.1645H27.7315ZM29.0987 21.348H29.0487V21.398V35.0658V35.1158H29.0987H38.6666H38.7166V35.0658V23.4411C38.7166 22.2846 37.774 21.348 36.6097 21.348H29.0987ZM7.1802 35.0658V35.1158H7.2302H16.7981H16.8481V35.0658V21.398V21.348H16.7981H16.7973H9.28708C8.12276 21.348 7.1802 22.2854 7.1802 23.4411V35.0658ZM38.7158 36.4322V36.3822H38.6658H7.2302H7.1802V36.4322V42.5899C7.1802 43.7463 8.12277 44.6829 9.28708 44.6829H36.6089C37.7732 44.6829 38.7158 43.7456 38.7158 42.5899V36.4322ZM19.036 4.47085L19.0506 4.51866L19.0359 4.47085C17.927 4.81036 17.3022 5.98372 17.6417 7.09346C17.9813 8.2024 19.1554 8.82641 20.2643 8.48768C21.3733 8.14895 21.9981 6.97478 21.6586 5.86506C21.3191 4.75616 20.1457 4.13132 19.036 4.47085ZM25.4929 6.88881L25.4783 6.841L25.4929 6.88881C26.6018 6.54931 27.2266 5.37594 26.8871 4.2662C26.5476 3.1573 25.3742 2.53247 24.2645 2.87198C23.1556 3.21071 22.5308 4.38489 22.8703 5.4946C23.2098 6.6035 24.3831 7.22834 25.4929 6.88881Z" fill="#464860" stroke="white" stroke-width="0.1"/>
</svg>
