<svg width="51" height="45" viewBox="0 0 51 45" fill="none" xmlns="http://www.w3.org/2000/svg">
<path d="M13.7107 6.93001C13.7707 4.91001 15.4607 3.26001 17.4907 3.26001C19.5107 3.26001 21.1607 4.91001 21.1607 6.93001C21.1607 7.38001 21.0807 7.78001 20.9307 8.14001L20.7507 8.55001L20.7407 8.10001C20.6907 6.37001 19.2007 4.96001 17.4407 4.96001C15.6707 4.96001 14.1907 6.37001 14.1407 8.10001L14.1207 8.74001L13.9407 8.12001C13.8307 7.74001 13.7107 7.33001 13.7107 6.93001Z" fill="white"/>
<path d="M19.8808 8.17002V8.27002C19.8808 9.61002 18.8308 10.66 17.4908 10.66C16.1508 10.66 15.1008 9.61002 15.1008 8.27002V8.17002H15.2008H16.5608C16.6108 7.71002 17.0308 7.33002 17.4908 7.33002C17.9608 7.33002 18.3708 7.71002 18.4208 8.17002H19.7808H19.8808Z" fill="white"/>
<path d="M28.4509 33.13L1.79087 40.27C1.74087 40.29 1.68087 40.3 1.63087 40.3C1.53087 40.3 1.44087 40.27 1.35087 40.24L1.29087 40.22C1.13087 40.14 1.01087 40 0.950873 39.82C0.890873 39.64 0.940874 39.51 0.980874 39.37L1.00087 39.3C1.08087 39.14 1.22087 39.02 1.40087 38.96L27.0609 32.15L27.1209 32.14L27.1609 32.18C27.1809 32.2 27.1909 32.21 27.2209 32.22C27.2509 32.23 27.2809 32.25 27.3209 32.28L28.4809 32.94L28.6909 33.06L28.4509 33.13Z" fill="white"/>
<path d="M31.2308 37.24C31.5208 36.37 32.2208 35.73 33.1408 35.5L35.9808 34.72C36.0908 34.7 36.1808 34.63 36.2408 34.52C36.3008 34.41 36.3208 34.28 36.3008 34.17C36.2608 33.97 36.0308 33.85 35.8408 33.85C35.8108 33.85 35.7808 33.85 35.7508 33.86L33.0808 34.53L33.0408 34.54L33.0008 34.51L27.7008 31.44C27.1308 31.1 26.6708 30.64 26.3308 30.07L22.3708 23.21C22.2508 23.01 22.0608 22.98 21.9508 22.98C21.8708 22.98 21.7908 23 21.7108 23.03C21.4808 23.17 21.4508 23.46 21.5408 23.68L23.4908 27.07L23.5808 27.22H23.4008C22.8808 27.22 22.4208 27.1 22.0108 26.87L20.5608 26.03L20.5408 26.02L20.5308 26L19.0208 23.43C18.9008 23.23 18.7108 23.2 18.6008 23.2C18.5208 23.2 18.4408 23.22 18.3608 23.25C18.1308 23.39 18.1008 23.68 18.1908 23.9L20.6408 28.13L20.7008 28.24L20.5808 28.27L17.7508 29.05C17.6308 29.07 17.5208 29.16 17.4508 29.28C17.3908 29.38 17.3808 29.49 17.4208 29.59C17.4708 29.79 17.6608 29.92 17.8808 29.92H18.0308L21.1208 29.09L21.1908 29.07L21.2308 29.14L22.9608 32.15L23.0208 32.26L22.8908 32.29L16.7008 33.96L16.5008 34.01L16.5808 33.82C16.9308 33.01 17.6208 32.38 18.4808 32.09L20.5508 31.53C20.6708 31.51 20.7808 31.42 20.8408 31.3C20.9008 31.2 20.9108 31.09 20.8708 30.99C20.7708 30.75 20.7008 30.63 20.5708 30.63C20.5308 30.63 20.4908 30.64 20.4408 30.65L18.7608 31.1L18.6908 31.12L18.6508 31.05L13.6908 22.46C13.3408 21.87 13.3408 21.17 13.6908 20.52C13.9208 20.06 14.3308 19.75 14.8708 19.63C15.0208 19.59 15.1908 19.57 15.3508 19.57C15.6808 19.57 16.0208 19.65 16.3308 19.8L19.7408 21.75C19.8108 21.79 19.8908 21.82 19.9708 21.82C20.1408 21.82 20.2908 21.73 20.3908 21.57C20.5208 21.35 20.4408 21.07 20.2008 20.93L16.8008 19.04L16.5008 18.9L16.4708 18.89L16.4508 18.86L13.8308 14.29C13.6908 14.01 13.4108 13.79 13.0508 13.67C12.9408 13.63 12.8308 13.62 12.7108 13.62C12.5008 13.62 12.2708 13.67 12.0708 13.78L4.10078 18.45L4.01078 18.5L3.96078 18.41L2.84078 16.51L2.80078 16.43L2.89078 16.38L11.9808 11.14C12.3808 10.94 12.8608 10.74 13.4208 10.74H14.8108H14.8408L14.8608 10.76C15.7108 11.3 16.5908 11.58 17.4808 11.58C18.3708 11.58 19.2608 11.3 20.1008 10.76L20.1208 10.74H20.1508H21.5408C22.3308 10.74 23.0708 11.06 23.5708 11.61L30.4308 18.47L30.5008 18.54L30.4308 18.61L28.8708 20.17L28.8008 20.24L28.7308 20.17L22.4808 13.92C22.3208 13.76 22.1208 13.67 21.9408 13.67C21.7608 13.67 21.5608 13.76 21.4008 13.92C21.1508 14.17 21.1108 14.56 21.3008 14.85L29.1108 28.35C29.2208 28.56 29.3708 28.71 29.5708 28.81L34.1508 31.49L34.3608 31.61L34.1208 31.67L30.0608 32.73C29.9408 32.75 29.8308 32.84 29.7708 32.96C29.7108 33.06 29.7008 33.17 29.7408 33.27C29.7908 33.47 29.9808 33.6 30.2008 33.6H30.3508L35.4608 32.2L35.5008 32.19L35.5408 32.21L39.9508 34.78L39.9608 34.79L39.9708 34.8L40.0308 34.86L40.1508 34.98L40.0008 35.02L31.3508 37.36L31.1708 37.41L31.2308 37.24Z" fill="white"/>
<path d="M49.0409 34.91L16.9609 43.5C16.9109 43.52 16.8509 43.53 16.8009 43.53C16.7009 43.53 16.6109 43.5 16.5209 43.47L16.4609 43.45C16.3009 43.37 16.1809 43.23 16.1209 43.05C16.0809 42.88 16.1109 42.7 16.2009 42.55C16.2909 42.39 16.4309 42.28 16.5909 42.25L48.6509 33.66H48.6609H48.6709H48.8409C48.9509 33.66 49.0309 33.66 49.1609 33.73C49.3109 33.81 49.4309 33.95 49.4909 34.12C49.5609 34.27 49.4809 34.48 49.4309 34.59C49.3509 34.73 49.2109 34.85 49.0409 34.91Z" fill="white"/>
<path d="M13.2407 7.61C13.3007 5.59 14.9907 3.94 17.0207 3.94C19.0407 3.94 20.6907 5.59 20.6907 7.61C20.6907 8.06 20.6107 8.46 20.4607 8.82L20.2807 9.23L20.2707 8.78C20.2207 7.05 18.7307 5.64 16.9707 5.64C15.2007 5.64 13.7207 7.05 13.6707 8.78L13.6507 9.42L13.4707 8.8C13.3507 8.42 13.2407 8.01 13.2407 7.61Z" fill="#A3EFE0"/>
<path d="M19.8808 8.17002V8.27002C19.8808 9.61002 18.8308 10.66 17.4908 10.66C16.1508 10.66 15.1008 9.61002 15.1008 8.27002V8.17002H15.2008H16.5608C16.6108 7.71002 17.0308 7.33002 17.4908 7.33002C17.9608 7.33002 18.3708 7.71002 18.4208 8.17002H19.7808H19.8808Z" fill="white"/>
<path d="M27.9809 33.81L1.3209 40.95C1.2709 40.97 1.2109 40.98 1.1609 40.98C1.0609 40.98 0.970903 40.95 0.880903 40.92L0.820903 40.9C0.660903 40.82 0.540903 40.68 0.480903 40.5C0.420903 40.32 0.470903 40.19 0.510903 40.05L0.530903 39.99C0.610903 39.83 0.750903 39.71 0.930903 39.65L26.5909 32.84L26.6509 32.83L26.6909 32.87C26.7109 32.89 26.7209 32.9 26.7509 32.91C26.7809 32.92 26.8109 32.94 26.8509 32.97L28.0009 33.62L28.2109 33.74L27.9809 33.81Z" fill="#CCB8F4"/>
<path d="M48.5709 35.59L16.4909 44.18C16.4409 44.2 16.3809 44.21 16.3309 44.21C16.2309 44.21 16.1409 44.18 16.0509 44.15L15.9909 44.13C15.8309 44.05 15.7109 43.91 15.6509 43.73C15.6109 43.56 15.6409 43.38 15.7309 43.23C15.8209 43.07 15.9609 42.96 16.1209 42.93L48.1809 34.34H48.1909H48.2009H48.3709C48.4809 34.34 48.5609 34.34 48.6909 34.41C48.8409 34.49 48.9609 34.63 49.0209 34.8C49.0909 34.95 49.0109 35.16 48.9609 35.27C48.8809 35.41 48.7409 35.53 48.5709 35.59Z" fill="#CCB8F4"/>
<path d="M16.5808 33.92L16.6208 33.83C16.7908 33.42 17.0508 33.06 17.3808 32.77C17.7108 32.48 18.0908 32.25 18.5208 32.1L19.5508 31.82L20.5808 31.54C20.6408 31.53 20.7008 31.5 20.7508 31.46C20.8008 31.42 20.8408 31.37 20.8808 31.31C20.9108 31.26 20.9208 31.2 20.9308 31.15C20.9308 31.1 20.9308 31.05 20.9108 31C20.8608 30.88 20.8208 30.79 20.7708 30.73C20.7208 30.67 20.6708 30.64 20.6008 30.64C20.5808 30.64 20.5608 30.64 20.5408 30.65C20.5208 30.65 20.5008 30.66 20.4708 30.67L19.6308 30.89L18.7908 31.11L18.7508 31.12L18.7108 31.13L18.6908 31.1L18.6708 31.07L18.0008 29.91H18.0408L19.5908 29.49L21.1408 29.07L21.1808 29.06L21.2208 29.05L21.2408 29.08L21.2608 29.11L22.1208 30.62L22.9808 32.13L23.0108 32.19L23.0408 32.25L22.9808 32.27L22.9208 32.29L19.8208 33.13L16.7208 33.97L16.6208 34L16.5208 34.03L16.5808 33.92Z" fill="white"/>
<path d="M31.2008 37.33L31.2308 37.24C31.3808 36.8 31.6208 36.43 31.9508 36.13C32.2808 35.83 32.6808 35.62 33.1408 35.5L34.5608 35.11L35.9808 34.72C36.0308 34.71 36.0808 34.69 36.1308 34.65C36.1708 34.62 36.2108 34.57 36.2408 34.52C36.2708 34.47 36.2908 34.41 36.3008 34.35C36.3108 34.29 36.3108 34.23 36.3008 34.17C36.2808 34.07 36.2108 33.99 36.1308 33.93C36.0408 33.87 35.9408 33.84 35.8408 33.84C35.8208 33.84 35.8108 33.84 35.7908 33.84C35.7708 33.84 35.7608 33.84 35.7508 33.85L34.4108 34.18L33.0708 34.51H33.0508H33.0308L33.0108 34.5L33.0008 34.51L31.0908 33.41L32.9208 32.91L35.4808 32.21L35.5008 32.2L35.5208 32.19L35.5408 32.2L35.5608 32.21L37.7608 33.49L39.9608 34.77H39.9708H39.9808L40.0108 34.8L40.0408 34.83L40.1008 34.89L40.1608 34.95L40.0808 35L40.0008 35.02L35.6808 36.19L31.3608 37.36L31.2708 37.38L31.1808 37.4L31.2008 37.33Z" fill="white"/>
<path d="M16.1108 34.6L16.1508 34.51C16.3208 34.1 16.5808 33.74 16.9108 33.45C17.2408 33.16 17.6208 32.93 18.0508 32.78L19.0808 32.5L20.1108 32.22C20.1708 32.21 20.2308 32.18 20.2808 32.14C20.3308 32.1 20.3708 32.05 20.4108 31.99C20.4408 31.94 20.4508 31.88 20.4608 31.83C20.4608 31.78 20.4608 31.73 20.4408 31.68C20.3908 31.56 20.3508 31.47 20.3008 31.41C20.2508 31.35 20.2008 31.32 20.1308 31.32C20.1108 31.32 20.0908 31.32 20.0708 31.33C20.0508 31.33 20.0308 31.34 20.0008 31.35L19.1608 31.57L18.3208 31.79L18.2808 31.8L18.2408 31.81L18.2208 31.78L18.2008 31.75L17.5308 30.59H17.5708L19.1208 30.17L20.6708 29.75L20.7108 29.74L20.7508 29.73L20.7708 29.76L20.7908 29.79L21.6508 31.3L22.5108 32.81L22.5408 32.87L22.5708 32.93L22.5108 32.95L22.4508 32.97L19.3508 33.81L16.2508 34.65L16.1508 34.68L16.0508 34.71L16.1108 34.6Z" fill="#A3EFE0"/>
<path d="M30.7308 38.01L30.7608 37.92C30.9108 37.48 31.1508 37.11 31.4808 36.81C31.8108 36.51 32.2108 36.3 32.6708 36.18L34.0908 35.79L35.5108 35.4C35.5608 35.39 35.6108 35.37 35.6608 35.33C35.7008 35.3 35.7408 35.25 35.7708 35.2C35.8008 35.15 35.8208 35.09 35.8308 35.03C35.8408 34.97 35.8408 34.91 35.8308 34.85C35.8108 34.75 35.7408 34.67 35.6608 34.61C35.5708 34.55 35.4708 34.52 35.3708 34.52C35.3508 34.52 35.3408 34.52 35.3208 34.52C35.3008 34.52 35.2908 34.52 35.2808 34.53L33.9408 34.86L32.6008 35.19H32.5808H32.5608L32.5408 35.18L32.5208 35.17L30.6108 34.07L32.4408 33.57L35.0008 32.87L35.0208 32.86L35.0408 32.85L35.0608 32.86L35.0808 32.87L37.2808 34.15L39.4808 35.43H39.4908H39.5008L39.5308 35.46L39.5608 35.49L39.6208 35.55L39.6808 35.61L39.6008 35.63L39.5208 35.65L35.2008 36.82L30.8808 37.99L30.7908 38.01L30.7008 38.1L30.7308 38.01Z" fill="#A3EFE0"/>
<path d="M29.6008 33.42C29.5808 33.42 29.5508 33.44 29.5308 33.45L27.2308 32.12C26.9408 31.95 26.6908 31.75 26.4608 31.52C26.2308 31.29 26.0308 31.03 25.8608 30.75L23.8808 27.32L21.9008 23.89C21.8408 23.79 21.7608 23.73 21.6908 23.7C21.6108 23.67 21.5408 23.66 21.4808 23.66C21.4408 23.66 21.4008 23.66 21.3608 23.67C21.3208 23.68 21.2808 23.69 21.2408 23.7C21.1208 23.77 21.0608 23.88 21.0408 24C21.0208 24.12 21.0308 24.24 21.0808 24.35L22.0508 26.04L23.0208 27.73L23.0608 27.8L23.1008 27.87H23.0108H22.9208C22.6608 27.87 22.4208 27.84 22.1808 27.78C21.9508 27.72 21.7308 27.63 21.5308 27.52L20.8008 27.1L20.0708 26.68L20.0608 26.67L20.0508 26.66L20.0408 26.65L20.0308 26.64L19.3008 25.4L18.5508 24.12C18.4908 24.02 18.4108 23.96 18.3408 23.93C18.2708 23.9 18.1908 23.89 18.1308 23.89C18.0908 23.89 18.0508 23.89 18.0108 23.9C17.9708 23.91 17.9308 23.92 17.8908 23.93C17.7708 24 17.7108 24.11 17.6908 24.23C17.6708 24.35 17.6808 24.47 17.7308 24.58L18.9508 26.69L20.1708 28.8L20.2008 28.86L20.2308 28.92L20.1708 28.94L20.1108 28.96L18.7008 29.35L17.2908 29.74C17.2608 29.75 17.2308 29.77 17.2108 29.78H17.0808L15.7408 27.47L13.2608 23.18C13.0808 22.89 13.0008 22.56 13.0008 22.23C13.0008 21.9 13.0908 21.56 13.2608 21.24C13.3708 21.01 13.5308 20.82 13.7308 20.67C13.9308 20.52 14.1708 20.41 14.4408 20.35C14.5208 20.33 14.6008 20.32 14.6808 20.31C14.7608 20.3 14.8408 20.3 14.9308 20.3C15.1008 20.3 15.2708 20.32 15.4308 20.36C15.5908 20.4 15.7608 20.46 15.9108 20.53L17.6108 21.51L19.3108 22.49C19.3508 22.51 19.3808 22.53 19.4208 22.54C19.4608 22.55 19.5008 22.56 19.5408 22.56C19.6208 22.56 19.7008 22.54 19.7808 22.49C19.8508 22.45 19.9108 22.38 19.9608 22.3C20.0308 22.19 20.0408 22.06 20.0108 21.95C19.9808 21.84 19.9008 21.73 19.7808 21.66L18.0808 20.71L16.3808 19.76L16.2108 19.68L16.0408 19.6L16.0308 19.59L16.0008 19.56L15.9908 19.55L15.9808 19.54L14.6708 17.25L13.3608 14.96C13.2908 14.82 13.1808 14.69 13.0508 14.59C12.9208 14.48 12.7608 14.4 12.5808 14.34C12.5308 14.32 12.4708 14.31 12.4208 14.3C12.3608 14.29 12.3008 14.29 12.2408 14.29C12.1308 14.29 12.0208 14.3 11.9208 14.33C11.8108 14.36 11.7008 14.4 11.6008 14.45L7.6208 16.79L3.6308 19.13L3.5908 19.16L3.5508 19.19L3.5208 19.15L3.4908 19.11L2.9308 18.16L2.3808 17.2L2.3508 17.16L2.3208 17.12L2.3608 17.09L2.4008 17.06L6.9508 14.44L11.5008 11.82C11.7008 11.72 11.9208 11.62 12.1608 11.54C12.4008 11.46 12.6608 11.41 12.9408 11.41H13.6408H14.3408H14.3508H14.3608L14.3708 11.42L14.3808 11.43C14.8008 11.7 15.2408 11.91 15.6708 12.04C16.1108 12.18 16.5508 12.25 17.0008 12.25C17.4508 12.25 17.8908 12.18 18.3308 12.04C18.7708 11.9 19.2008 11.7 19.6208 11.43L19.6308 11.42L19.6408 11.41H19.6508H19.6608H20.3608H21.0608C21.4608 11.41 21.8408 11.49 22.1808 11.64C22.5308 11.79 22.8308 12.01 23.0808 12.28L26.5108 15.71L29.9408 19.14L29.9808 19.18L30.0208 19.22L29.9808 19.26L29.9408 19.3L29.1608 20.08L28.3808 20.86L28.3408 20.9L28.3008 20.94L28.2608 20.9L28.2208 20.86L25.1008 17.74L21.9808 14.62C21.9008 14.54 21.8108 14.48 21.7208 14.44C21.6308 14.4 21.5308 14.37 21.4408 14.37C21.3508 14.37 21.2508 14.39 21.1608 14.44C21.0708 14.48 20.9808 14.54 20.9008 14.62C20.7708 14.75 20.7008 14.91 20.6808 15.07C20.6608 15.23 20.7008 15.41 20.8008 15.55L24.7108 22.3L28.6208 29.05C28.6708 29.16 28.7408 29.25 28.8108 29.32C28.8908 29.4 28.9708 29.46 29.0808 29.51L31.3708 30.85L33.6608 32.19L33.7708 32.25L33.8808 32.31L33.7608 32.34L33.6408 32.37L31.6108 32.9L29.6008 33.42Z" fill="#CCB8F4"/>
<path d="M50.3608 33.84C50.3108 33.64 50.2208 33.46 50.1008 33.3C49.9808 33.14 49.8208 33.01 49.6308 32.9C49.5108 32.83 49.3808 32.78 49.2508 32.74C49.1208 32.7 48.9808 32.69 48.8408 32.69C48.7708 32.69 48.7008 32.69 48.6308 32.7C48.5608 32.71 48.4908 32.72 48.4208 32.74L44.8008 33.72L41.1808 34.7L41.1508 34.71L41.1208 34.72L41.1008 34.69L41.0808 34.66C40.9608 34.51 40.8508 34.38 40.7308 34.28C40.6208 34.17 40.5008 34.09 40.3808 34.02L38.0908 32.68L35.8008 31.34L32.9408 29.67L30.0708 28C30.0408 27.99 30.0108 27.98 29.9908 27.96C29.9708 27.94 29.9608 27.92 29.9508 27.91C29.9508 27.9 29.9408 27.89 29.9408 27.89C29.9308 27.88 29.9308 27.88 29.9208 27.87V27.86V27.85L26.4908 21.94L23.0608 16.03L22.8708 15.7L22.6808 15.37L22.9508 15.64L23.2208 15.91L25.8708 18.56L28.5208 21.21L28.8508 21.54L29.1808 21.87C29.4008 22.09 29.6308 22.25 29.8708 22.35C30.1208 22.46 30.3808 22.51 30.6708 22.51C30.9708 22.51 31.2508 22.45 31.5008 22.35C31.7508 22.24 31.9708 22.08 32.1508 21.88C32.1608 21.87 32.1808 21.85 32.1908 21.83C32.2008 21.81 32.2108 21.79 32.2308 21.78C32.2508 21.76 32.2608 21.73 32.2808 21.71C32.3008 21.69 32.3108 21.67 32.3308 21.65L32.3608 21.62L32.3908 21.59L32.4208 21.61L32.4508 21.63L40.5708 26.32L48.6908 31.01L48.7308 31.03L48.7708 31.05L48.7508 31.09L48.7308 31.13L48.5308 31.49L48.3308 31.85C48.3208 31.87 48.3108 31.9 48.3108 31.95C48.3108 32 48.3308 32.05 48.3908 32.1C48.4108 32.1 48.4308 32.11 48.4508 32.12C48.4708 32.13 48.4808 32.14 48.5008 32.15C48.5208 32.15 48.5408 32.14 48.5608 32.13C48.5808 32.12 48.5908 32.1 48.6108 32.08L48.8008 31.72L48.9908 31.36L49.0008 31.32L49.0208 31.28L49.0608 31.3L49.1008 31.32L49.4508 31.51L49.8008 31.7C49.8208 31.7 49.8408 31.71 49.8608 31.72C49.8808 31.73 49.9008 31.74 49.9108 31.75C49.9308 31.75 49.9508 31.74 49.9608 31.73C49.9708 31.72 49.9908 31.7 50.0108 31.68C50.0208 31.66 50.0308 31.62 50.0208 31.57C50.0108 31.52 49.9908 31.47 49.9208 31.43L49.5608 31.24L49.2008 31.05L49.1608 31.03L49.1208 31.01L49.1408 30.97L49.1608 30.93L49.3608 30.57L49.5608 30.21C49.5708 30.19 49.5908 30.15 49.5808 30.1C49.5808 30.05 49.5508 30 49.4808 29.95C49.4708 29.95 49.4608 29.94 49.4508 29.94C49.4408 29.94 49.4208 29.93 49.4008 29.93C49.3708 29.93 49.3408 29.94 49.3108 29.96C49.2808 29.98 49.2608 30 49.2308 30.04L49.0908 30.34L48.9508 30.64L48.9308 30.69L48.9108 30.74L48.8608 30.71L48.8108 30.68L40.7208 25.99L32.6308 21.3L32.5908 21.28L32.5508 21.26L32.5708 21.22L32.5908 21.18C32.6408 21.05 32.6808 20.91 32.7108 20.78C32.7408 20.65 32.7508 20.51 32.7508 20.38C32.7508 20.08 32.6908 19.8 32.5908 19.55C32.4808 19.3 32.3208 19.08 32.1208 18.9L31.7808 18.56L31.4408 18.22L27.8108 14.59L24.1808 10.96C23.8308 10.61 23.4208 10.34 22.9708 10.16C22.5208 9.97 22.0208 9.88 21.5208 9.88H21.3808H21.2408H21.1408H21.0408L21.1008 9.8L21.1608 9.72C21.4508 9.32 21.6608 8.88 21.8108 8.42C21.9608 7.96 22.0308 7.48 22.0308 6.99C22.0308 5.99 21.7108 5.05 21.1608 4.29C20.6108 3.52 19.8108 2.93 18.8708 2.63L18.8508 2.6L18.7908 2.58L18.8208 2.53L18.8508 2.48C18.9208 2.36 18.9808 2.23 19.0108 2.1C19.0408 1.96 19.0608 1.81 19.0608 1.64C19.0608 1.19 18.8808 0.78 18.5808 0.49C18.2908 0.18 17.8908 0 17.4408 0C17.0008 0 16.6008 0.18 16.3208 0.47C16.0408 0.76 15.8608 1.17 15.8608 1.63C15.8608 1.79 15.8908 1.93 15.9308 2.07C15.9708 2.21 16.0208 2.34 16.0808 2.48L16.1008 2.53L16.1208 2.58L16.0708 2.6L16.0208 2.62C15.0908 2.93 14.3008 3.54 13.7408 4.31C13.1808 5.08 12.8608 6.02 12.8608 6.99C12.8608 7.48 12.9408 7.97 13.0808 8.42C13.2308 8.88 13.4508 9.32 13.7308 9.72L13.7908 9.8L13.8508 9.88H13.7508H13.6508H13.5008H13.3608C13.0308 9.88 12.7008 9.92 12.3808 10C12.0608 10.08 11.7508 10.2 11.4508 10.37L6.68081 13.13L1.91081 15.89L1.49081 16.11L1.07081 16.33C0.83081 16.46 0.62081 16.65 0.45081 16.87C0.28081 17.09 0.14081 17.34 0.0608104 17.61C0.000810366 17.86 -0.0191896 18.13 0.0208104 18.4C0.0608104 18.67 0.15081 18.95 0.29081 19.2C0.42081 19.44 0.61081 19.65 0.83081 19.82C1.05081 19.99 1.30081 20.13 1.57081 20.21C1.65081 20.24 1.74081 20.25 1.83081 20.26C1.92081 20.27 2.02081 20.27 2.10081 20.27C2.32081 20.27 2.53081 20.23 2.71081 20.18C2.89081 20.13 3.05081 20.06 3.17081 20L3.58081 19.75L4.00081 19.5L4.03081 19.48L4.06081 19.46L4.09081 19.47L4.10081 19.5L9.26081 22.48L14.4208 25.46L14.4308 25.47L14.4408 25.48L14.4508 25.49L14.4608 25.5L16.1308 28.43L17.8008 31.36L17.8308 31.41L17.8608 31.46L17.8108 31.48L17.7608 31.5C17.2108 31.77 16.7508 32.16 16.4008 32.62C16.0508 33.08 15.8108 33.63 15.7008 34.21L15.6908 34.24L15.6808 34.27L15.6508 34.28L15.6208 34.29L8.42081 36.21L1.22081 38.13C1.02081 38.18 0.84081 38.27 0.68081 38.39C0.52081 38.51 0.39081 38.67 0.28081 38.86C0.18081 39.04 0.11081 39.24 0.0808104 39.44C0.0508104 39.64 0.0708104 39.85 0.12081 40.07C0.17081 40.27 0.26081 40.45 0.38081 40.61C0.50081 40.77 0.66081 40.9 0.85081 41.01C0.97081 41.08 1.09081 41.13 1.22081 41.17C1.35081 41.2 1.49081 41.22 1.64081 41.22C1.72081 41.22 1.79081 41.22 1.85081 41.21C1.91081 41.2 1.98081 41.19 2.05081 41.17L15.9108 37.46L29.5008 33.82H29.9508L30.8508 34.34L31.8508 34.93L31.9208 34.97L31.9908 35.01L31.9208 35.05L31.8508 35.09C31.4308 35.35 31.0608 35.71 30.7708 36.14C30.4808 36.57 30.2708 37.06 30.1608 37.59L30.1508 37.62L30.1408 37.65L30.1108 37.66L30.0808 37.67L23.2208 39.51L16.3608 41.35C15.9508 41.45 15.6208 41.72 15.4208 42.07C15.2208 42.42 15.1508 42.86 15.2608 43.29C15.3108 43.49 15.4008 43.67 15.5208 43.83C15.6408 43.99 15.8008 44.12 15.9908 44.23C16.1108 44.3 16.2308 44.35 16.3608 44.39C16.4908 44.43 16.6308 44.44 16.7808 44.44C16.8608 44.44 16.9308 44.44 16.9908 44.43C17.0508 44.42 17.1208 44.41 17.1908 44.39L33.2308 40.09L49.2708 35.79C49.4708 35.74 49.6508 35.65 49.8108 35.53C49.9708 35.41 50.1008 35.25 50.2108 35.06C50.2908 34.84 50.3408 34.62 50.3608 34.41C50.4308 34.24 50.4108 34.04 50.3608 33.84ZM16.9908 1.13C17.1208 1 17.3008 0.92 17.4908 0.92C17.6808 0.92 17.8608 1 17.9908 1.13C18.1208 1.26 18.2008 1.44 18.2008 1.63C18.2008 1.82 18.1208 2 17.9908 2.13C17.8608 2.26 17.6808 2.34 17.4908 2.34C17.3008 2.34 17.1208 2.26 16.9908 2.13C16.8608 2 16.7808 1.82 16.7808 1.63C16.7808 1.44 16.8608 1.26 16.9908 1.13ZM13.7808 7.53C13.7408 7.33 13.7108 7.13 13.7108 6.93C13.7408 5.92 14.1808 5 14.8608 4.34C15.5408 3.68 16.4808 3.26 17.4908 3.26C18.5008 3.26 19.4208 3.67 20.0808 4.34C20.7408 5 21.1608 5.92 21.1608 6.93C21.1608 7.16 21.1408 7.37 21.1008 7.57C21.0608 7.77 21.0008 7.96 20.9308 8.14L20.8408 8.35L20.7508 8.56L20.7408 8.33V8.1C20.7108 7.23 20.3308 6.45 19.7308 5.88C19.1308 5.31 18.3208 4.96 17.4408 4.96C16.5608 4.96 15.7408 5.31 15.1508 5.88C14.5508 6.45 14.1708 7.23 14.1408 8.1L14.1308 8.42L14.1208 8.74L14.0308 8.43L13.9408 8.12C13.8808 7.93 13.8308 7.73 13.7808 7.53ZM19.8808 8.17V8.22V8.27C19.8808 8.94 19.6208 9.54 19.1908 9.97C18.7608 10.4 18.1608 10.66 17.4908 10.66C16.8208 10.66 16.2208 10.4 15.7908 9.97C15.3608 9.54 15.1008 8.94 15.1008 8.27V8.22V8.17H15.1508H15.2008H15.8808H16.5608C16.5908 7.94 16.7008 7.73 16.8708 7.58C17.0408 7.43 17.2608 7.33 17.4908 7.33C17.7208 7.33 17.9408 7.43 18.1108 7.58C18.2808 7.73 18.3908 7.94 18.4208 8.17H19.1008H19.7808H19.8308H19.8808ZM13.8608 24.79L13.7008 24.7L9.15081 22.05L4.61081 19.4L4.54081 19.36L4.47081 19.32L4.54081 19.28L4.61081 19.24L8.57081 16.95L12.5308 14.66C12.5708 14.64 12.6008 14.63 12.6308 14.62C12.6608 14.61 12.6908 14.61 12.7108 14.61C12.7308 14.61 12.7608 14.61 12.7808 14.62C12.8008 14.63 12.8208 14.64 12.8408 14.66C12.8808 14.67 12.9108 14.69 12.9508 14.71C12.9808 14.73 13.0108 14.76 13.0408 14.79V14.8V14.81L14.1308 16.71L15.2208 18.61L15.2608 18.68L15.3008 18.75H15.2108H15.1208C15.0808 18.75 15.0408 18.75 15.0108 18.76C14.9708 18.76 14.9308 18.77 14.8908 18.78C14.8508 18.79 14.8108 18.79 14.7708 18.8C14.7308 18.81 14.6908 18.81 14.6408 18.81C14.2608 18.92 13.9208 19.09 13.6308 19.3C13.3408 19.51 13.1108 19.78 12.9208 20.1C12.6808 20.53 12.5508 21.02 12.5508 21.51C12.5508 22 12.6708 22.5 12.9208 22.96L13.3708 23.77L13.8208 24.58L13.9108 24.74L14.0008 24.9L13.8608 24.79ZM16.5808 33.92L16.6208 33.83C16.7908 33.42 17.0508 33.06 17.3808 32.77C17.7108 32.48 18.0908 32.25 18.5208 32.1L19.5508 31.82L20.5808 31.54C20.6408 31.53 20.7008 31.5 20.7508 31.46C20.8008 31.42 20.8408 31.37 20.8808 31.31C20.9108 31.26 20.9208 31.2 20.9308 31.15C20.9308 31.1 20.9308 31.05 20.9108 31C20.8608 30.88 20.8208 30.79 20.7708 30.73C20.7208 30.67 20.6708 30.64 20.6008 30.64C20.5808 30.64 20.5608 30.64 20.5408 30.65C20.5208 30.65 20.5008 30.66 20.4708 30.67L19.6308 30.89L18.7908 31.11L18.7508 31.12L18.7108 31.13L18.6908 31.1L18.6708 31.07L18.0008 29.91H18.0408L19.5908 29.49L21.1408 29.07L21.1808 29.06L21.2208 29.05L21.2408 29.08L21.2608 29.11L22.1208 30.62L22.9808 32.13L23.0108 32.19L23.0408 32.25L22.9808 32.27L22.9208 32.29L19.8208 33.13L16.7208 33.97L16.6208 34L16.5208 34.03L16.5808 33.92ZM21.5308 27.66L21.6808 27.74L21.8308 27.82C22.1308 27.97 22.4108 28.08 22.6908 28.15C22.9708 28.22 23.2408 28.26 23.5208 28.26C23.6308 28.26 23.7208 28.26 23.8208 28.25C23.9108 28.24 24.0108 28.23 24.1108 28.2L24.1508 28.19L24.1908 28.18L24.2108 28.21L24.2308 28.24L24.9308 29.44L25.6308 30.64C25.7208 30.78 25.8008 30.91 25.8908 31.02C25.9808 31.13 26.0708 31.24 26.1808 31.34L26.2408 31.4L26.3008 31.46L26.2208 31.48L26.1408 31.5L25.1608 31.75L24.1808 32L24.1408 32.01L24.1008 32.02L24.0608 32L24.0408 31.97L22.8708 29.96L21.7008 27.95L21.6208 27.81L21.5308 27.66ZM28.5708 33.1L28.4508 33.13L15.1208 36.7L1.79081 40.27C1.76081 40.28 1.74081 40.29 1.71081 40.29C1.68081 40.29 1.66081 40.3 1.63081 40.3C1.58081 40.3 1.53081 40.29 1.49081 40.28C1.44081 40.27 1.40081 40.25 1.35081 40.24L1.32081 40.23L1.29081 40.22C1.21081 40.18 1.14081 40.12 1.08081 40.06C1.02081 39.99 0.98081 39.91 0.95081 39.83C0.92081 39.74 0.92081 39.66 0.93081 39.59C0.94081 39.52 0.96081 39.45 0.99081 39.38L1.00081 39.35V39.3C1.04081 39.22 1.10081 39.15 1.16081 39.09C1.22081 39.03 1.31081 38.99 1.39081 38.96L14.2208 35.56L27.0508 32.16L27.0808 32.15L27.1108 32.14L27.1308 32.16L27.1508 32.18C27.1608 32.19 27.1708 32.19 27.1808 32.2C27.1908 32.21 27.2008 32.21 27.2108 32.22C27.2208 32.23 27.2408 32.24 27.2608 32.25C27.2808 32.26 27.2908 32.27 27.3108 32.29L27.8908 32.62L28.4708 32.95L28.5808 33L28.6908 33.06L28.5708 33.1ZM30.0708 32.74C30.0508 32.74 30.0208 32.76 30.0008 32.77L27.7008 31.44C27.4108 31.27 27.1608 31.07 26.9308 30.84C26.7008 30.61 26.5008 30.35 26.3308 30.07L24.3508 26.64L22.3708 23.21C22.3108 23.11 22.2308 23.05 22.1608 23.02C22.0808 22.99 22.0108 22.98 21.9508 22.98C21.9108 22.98 21.8708 22.98 21.8308 22.99C21.7908 23 21.7508 23.01 21.7108 23.02C21.5908 23.09 21.5308 23.2 21.5108 23.32C21.4908 23.44 21.5008 23.56 21.5508 23.67L22.5208 25.36L23.4908 27.05L23.5308 27.12L23.5708 27.19H23.4808H23.4008C23.1408 27.19 22.9008 27.16 22.6608 27.1C22.4308 27.04 22.2108 26.95 22.0108 26.84L21.2808 26.42L20.5508 26L20.5408 25.99L20.5308 25.98L20.5208 25.97L20.5308 26L19.7808 24.72L19.0308 23.44C18.9708 23.34 18.8908 23.28 18.8208 23.25C18.7508 23.22 18.6708 23.21 18.6108 23.21C18.5708 23.21 18.5308 23.21 18.4908 23.22C18.4508 23.23 18.4108 23.24 18.3708 23.25C18.2508 23.32 18.1908 23.43 18.1708 23.55C18.1508 23.67 18.1608 23.79 18.2108 23.9L19.4308 26.01L20.6508 28.12L20.6808 28.18L20.7108 28.24L20.6508 28.26L20.5908 28.28L19.1808 28.67L17.7708 29.06C17.7408 29.07 17.7108 29.09 17.6908 29.1H17.5608L16.2208 26.79L13.7408 22.5C13.5608 22.21 13.4808 21.88 13.4808 21.55C13.4808 21.22 13.5708 20.88 13.7408 20.56C13.8508 20.33 14.0108 20.14 14.2108 19.99C14.4108 19.84 14.6508 19.73 14.9208 19.67C15.0008 19.65 15.0808 19.64 15.1608 19.63C15.2408 19.62 15.3208 19.62 15.4108 19.62C15.5808 19.62 15.7508 19.64 15.9108 19.68C16.0708 19.72 16.2408 19.78 16.3908 19.85L18.0908 20.83L19.7908 21.81C19.8308 21.83 19.8608 21.85 19.9008 21.86C19.9408 21.87 19.9808 21.88 20.0208 21.88C20.1008 21.88 20.1808 21.86 20.2608 21.81C20.3308 21.77 20.3908 21.7 20.4408 21.62C20.5108 21.51 20.5208 21.38 20.4908 21.27C20.4608 21.16 20.3808 21.05 20.2608 20.98L18.5608 20.03L16.8608 19.08L16.6908 19L16.5008 18.9L16.4908 18.89L16.4808 18.88L16.4708 18.87L16.4608 18.86L15.1508 16.57L13.8408 14.28C13.7708 14.14 13.6608 14.01 13.5308 13.91C13.4008 13.8 13.2408 13.72 13.0608 13.66C13.0108 13.64 12.9508 13.63 12.9008 13.62C12.8408 13.61 12.7808 13.61 12.7208 13.61C12.6108 13.61 12.5008 13.62 12.4008 13.65C12.2908 13.68 12.1808 13.72 12.0808 13.77L8.10081 16.11L4.10081 18.45L4.06081 18.48L4.01081 18.5L3.98081 18.46L3.95081 18.42L3.39081 17.47L2.83081 16.52L2.80081 16.48V16.43L2.84081 16.4L2.88081 16.37L7.43081 13.75L11.9808 11.13C12.1808 11.03 12.4008 10.93 12.6408 10.85C12.8808 10.77 13.1408 10.72 13.4208 10.72H14.1208H14.8208H14.8308H14.8408L14.8508 10.73L14.8608 10.74C15.2808 11.01 15.7208 11.22 16.1508 11.35C16.5908 11.49 17.0308 11.56 17.4808 11.56C17.9308 11.56 18.3708 11.49 18.8108 11.35C19.2508 11.21 19.6808 11.01 20.1008 10.74L20.1108 10.73L20.1208 10.72H20.1308H20.1408H20.8408H21.5408C21.9408 10.72 22.3208 10.8 22.6608 10.95C23.0108 11.1 23.3108 11.32 23.5608 11.59L26.9908 15.02L30.4208 18.45L30.4608 18.49L30.5008 18.53L30.4608 18.57L30.4208 18.61L29.6408 19.39L28.8608 20.17L28.8208 20.21L28.7808 20.25L28.7408 20.21L28.7008 20.17L25.5808 17.05L22.4608 13.93C22.3808 13.85 22.2908 13.79 22.2008 13.75C22.1108 13.71 22.0108 13.68 21.9208 13.68C21.8308 13.68 21.7308 13.7 21.6408 13.75C21.5508 13.79 21.4608 13.85 21.3808 13.93C21.2508 14.06 21.1808 14.22 21.1608 14.38C21.1408 14.54 21.1808 14.72 21.2808 14.86L25.1908 21.61L29.1008 28.36C29.1508 28.47 29.2208 28.56 29.2908 28.63C29.3708 28.71 29.4508 28.77 29.5608 28.82L31.8508 30.16L34.1408 31.5L34.2508 31.56L34.3608 31.62L34.2408 31.65L34.1208 31.68L32.0908 32.21L30.0708 32.74ZM31.2008 37.33L31.2308 37.24C31.3808 36.8 31.6208 36.43 31.9508 36.13C32.2808 35.83 32.6808 35.62 33.1408 35.5L34.5608 35.11L35.9808 34.72C36.0308 34.71 36.0808 34.69 36.1308 34.65C36.1708 34.62 36.2108 34.57 36.2408 34.52C36.2708 34.47 36.2908 34.41 36.3008 34.35C36.3108 34.29 36.3108 34.23 36.3008 34.17C36.2808 34.07 36.2108 33.99 36.1308 33.93C36.0408 33.87 35.9408 33.84 35.8408 33.84C35.8208 33.84 35.8108 33.84 35.7908 33.84C35.7708 33.84 35.7608 33.84 35.7508 33.85L34.4108 34.18L33.0708 34.51H33.0508H33.0308L33.0108 34.5L33.0008 34.51L31.0908 33.41L32.9208 32.91L35.4808 32.21L35.5008 32.2L35.5208 32.19L35.5408 32.2L35.5608 32.21L37.7608 33.49L39.9608 34.77H39.9708H39.9808L40.0108 34.8L40.0408 34.83L40.1008 34.89L40.1608 34.95L40.0808 35L40.0008 35.02L35.6808 36.19L31.3608 37.36L31.2708 37.38L31.1808 37.4L31.2008 37.33ZM49.5108 34.36C49.4908 34.44 49.4608 34.52 49.4308 34.58C49.3908 34.66 49.3408 34.72 49.2708 34.78C49.2008 34.84 49.1208 34.88 49.0408 34.91L33.0008 39.21L16.9608 43.51C16.9308 43.52 16.9108 43.53 16.8808 43.53C16.8508 43.53 16.8308 43.54 16.8008 43.54C16.7508 43.54 16.7008 43.53 16.6608 43.52C16.6108 43.51 16.5708 43.49 16.5208 43.48L16.4908 43.47L16.4608 43.46C16.3808 43.42 16.3108 43.36 16.2508 43.3C16.1908 43.24 16.1508 43.15 16.1208 43.07C16.1008 42.98 16.1008 42.9 16.1108 42.81C16.1208 42.72 16.1508 42.64 16.1908 42.57C16.2308 42.49 16.2908 42.42 16.3608 42.37C16.4308 42.32 16.5008 42.28 16.5808 42.27L32.6108 37.98L48.6408 33.69H48.6508H48.6608H48.6708H48.6808H48.7608H48.8408C48.9008 33.69 48.9508 33.69 49.0008 33.7C49.0508 33.71 49.1008 33.72 49.1708 33.76C49.2508 33.8 49.3108 33.85 49.3708 33.92C49.4308 33.99 49.4708 34.07 49.5008 34.15C49.5308 34.19 49.5308 34.28 49.5108 34.36Z" fill="#464860"/>
</svg>
