<svg width="38" height="17" viewBox="0 0 38 17" fill="none" xmlns="http://www.w3.org/2000/svg">
<path d="M12.8414 14.1745C12.8414 15.5868 14.0041 16.7494 15.4163 16.7494C16.8285 16.7494 17.9912 15.5868 17.9912 14.1745C17.9912 12.7623 16.8285 11.5997 15.4163 11.5997C14.0041 11.5997 12.8414 12.7623 12.8414 14.1745ZM13.9595 14.1745C13.9595 13.3877 14.6294 12.7178 15.4163 12.7178C16.243 12.7178 16.8731 13.3868 16.8731 14.1745C16.8731 14.9614 16.2032 15.6313 15.4163 15.6313C14.6294 15.6313 13.9595 14.9614 13.9595 14.1745Z" fill="white" stroke="white" stroke-width="0.1"/>
<path d="M27.9908 14.1745C27.9908 15.5868 29.1534 16.7494 30.5656 16.7494C31.9779 16.7494 33.1405 15.5868 33.1405 14.1745C33.1405 12.7623 31.9779 11.5997 30.5656 11.5997C29.1534 11.5997 27.9908 12.7623 27.9908 14.1745ZM29.1089 14.1745C29.1089 13.3877 29.7788 12.7178 30.5656 12.7178C31.3924 12.7178 32.0224 13.3868 32.0224 14.1745C32.0224 14.9614 31.3525 15.6313 30.5656 15.6313C29.7788 15.6313 29.1089 14.9614 29.1089 14.1745Z" fill="white" stroke="white" stroke-width="0.1"/>
<path d="M8.7783 7.26077H36.5113C36.8267 7.26077 37.05 6.99131 37.05 6.72209C37.05 6.45286 36.8267 6.1834 36.5113 6.1834H8.7783C8.63987 6.1834 8.50562 6.25211 8.40697 6.35076C8.30832 6.4494 8.23961 6.58365 8.23961 6.72209C8.23961 6.99131 8.46296 7.26077 8.7783 7.26077Z" fill="white" stroke="white" stroke-width="0.1"/>
<path d="M21.3593 11.9506L21.3594 11.9506L23.5985 8.0423C23.7355 7.77028 24.0928 7.68541 24.3572 7.81762C24.6303 7.95415 24.7156 8.31218 24.5832 8.57701L24.5819 8.57955L24.5819 8.57951L22.3438 12.486C22.2994 12.5952 22.232 12.6744 22.1462 12.7259C22.0601 12.7776 21.959 12.7992 21.8507 12.7992C21.7573 12.7992 21.6668 12.7539 21.5894 12.7152L21.584 12.7125M21.3593 11.9506L21.584 12.7125M21.3593 11.9506L21.358 11.9531M21.3593 11.9506L21.358 11.9531M21.584 12.7125C21.311 12.576 21.2256 12.2179 21.358 11.9531M21.584 12.7125L21.358 11.9531" fill="white" stroke="white" stroke-width="0.1"/>
<path d="M23.7621 12.1135L23.762 12.1135L23.7607 12.116C23.6283 12.3808 23.7137 12.7389 23.9867 12.8754L23.9921 12.8781C24.0695 12.9168 24.1601 12.9621 24.2534 12.9621C24.4402 12.9621 24.616 12.8242 24.7414 12.6571L24.7417 12.6573L24.7448 12.6519L26.9846 8.74241L26.9847 8.74245L26.9859 8.73991C27.1183 8.47508 27.033 8.11705 26.7599 7.98052C26.4955 7.84832 26.1382 7.93318 26.0012 8.20521L23.7621 12.1135Z" fill="white" stroke="white" stroke-width="0.1"/>
<path d="M11.4975 6.72206C11.4975 6.99129 11.7209 7.26075 12.0362 7.26075C12.1929 7.26075 12.3377 7.19377 12.4381 7.09339C12.5373 6.99418 12.5967 6.85827 12.5749 6.71807V3.66777C12.5749 3.52933 12.5062 3.39508 12.4076 3.29644C12.3089 3.19779 12.1747 3.12908 12.0362 3.12908C11.767 3.12908 11.4975 3.35243 11.4975 3.66777V6.72206Z" fill="white" stroke="white" stroke-width="0.1"/>
<path d="M16.9138 6.72206C16.9138 6.99129 17.1372 7.26075 17.4525 7.26075C17.7679 7.26075 17.9912 6.99129 17.9912 6.72206V3.66777C17.9912 3.52933 17.9225 3.39508 17.8239 3.29644C17.7252 3.19779 17.591 3.12908 17.4525 3.12908C17.1833 3.12908 16.9138 3.35243 16.9138 3.66777V6.72206Z" fill="white" stroke="white" stroke-width="0.1"/>
<path d="M21.9229 6.72206C21.9229 6.99129 22.1462 7.26075 22.4616 7.26075C22.6182 7.26075 22.7631 7.19377 22.8634 7.09339C22.9626 6.99418 23.022 6.85827 23.0002 6.71807V3.66777C23.0002 3.52933 22.9315 3.39508 22.8329 3.29644C22.7342 3.19779 22.6 3.12908 22.4616 3.12908C22.1923 3.12908 21.9229 3.35243 21.9229 3.66777V6.72206Z" fill="white" stroke="white" stroke-width="0.1"/>
<path d="M26.9726 6.72206C26.9726 6.99129 27.196 7.26075 27.5113 7.26075C27.8267 7.26075 28.05 6.99129 28.05 6.72206V3.66777C28.05 3.52933 27.9813 3.39508 27.8827 3.29644C27.784 3.19779 27.6498 3.12908 27.5113 3.12908C27.2421 3.12908 26.9726 3.35243 26.9726 3.66777V6.72206Z" fill="white" stroke="white" stroke-width="0.1"/>
<path d="M32.0631 6.72206C32.0631 6.99129 32.2865 7.26075 32.6018 7.26075C32.7403 7.26075 32.8745 7.19204 32.9732 7.09339C33.0718 6.99475 33.1405 6.8605 33.1405 6.72206V3.66777C33.1405 3.52933 33.0718 3.39508 32.9732 3.29644C32.8745 3.19779 32.7403 3.12908 32.6018 3.12908C32.3326 3.12908 32.0631 3.35243 32.0631 3.66777V6.72206Z" fill="white" stroke="white" stroke-width="0.1"/>
<path d="M11.3762 14.754L11.3763 14.7533L7.05969 14.0203L11.3762 14.754ZM11.3762 14.754H11.3847M11.3762 14.754H11.3847M11.3847 14.754H11.3849H11.3851H11.3854H11.3856H11.3858H11.3861H11.3863H11.3865H11.3868H11.387H11.3872H11.3875H11.3877H11.3879H11.3881H11.3884H11.3886H11.3888H11.389H11.3892H11.3895H11.3897H11.3899H11.3901H11.3903H11.3906H11.3908H11.391H11.3912H11.3914H11.3916H11.3918H11.392H11.3923H11.3925H11.3927H11.3929H11.3931H11.3933H11.3935H11.3937H11.3939H11.3941H11.3943H11.3945H11.3947H11.3949H11.3951H11.3953H11.3955H11.3957H11.3959H11.3961H11.3963H11.3965H11.3967H11.3969H11.397H11.3972H11.3974H11.3976H11.3978H11.398H11.3982H11.3984H11.3985H11.3987H11.3989H11.3991H11.3993H11.3995H11.3996H11.3998H11.4H11.4002H11.4004H11.4005H11.4007H11.4009H11.4011H11.4012H11.4014H11.4016H11.4018H11.4019H11.4021H11.4023H11.4025H11.4026H11.4028H11.403H11.4031H11.4033H11.4035H11.4036H11.4038H11.404H11.4041H11.4043H11.4045H11.4046H11.4048H11.405H11.4051H11.4053H11.4054H11.4056H11.4058H11.4059H11.4061H11.4062H11.4064H11.4065H11.4067H11.4069H11.407H11.4072H11.4073H11.4075H11.4076H11.4078H11.4079H11.4081H11.4082H11.4084H11.4085H11.4087H11.4088H11.409H11.4091H11.4093H11.4094H11.4096H11.4097H11.4099H11.41H11.4102H11.4103H11.4104H11.4106H11.4107H11.4109H11.411H11.4112H11.4113H11.4114H11.4116H11.4117H11.4119H11.412H11.4122H11.4123H11.4124H11.4126H11.4127H11.4128H11.413H11.4131H11.4133H11.4134H11.4135H11.4137H11.4138H11.4139H11.4141H11.4142H11.4143H11.4145H11.4146H11.4147H11.4149H11.415H11.4151H11.4153H11.4154H11.4155H11.4157H11.4158H11.4159H11.416H11.4162H11.4163H11.4164H11.4166H11.4167H11.4168H11.4169H11.4171H11.4172H11.4173H11.4175H11.4176H11.4177H11.4178H11.418H11.4181H11.4182H11.4183H11.4185H11.4186H11.4187H11.4188H11.419H11.4191H11.4192H11.4193H11.4195H11.4196H11.4197H11.4198H11.42H11.4201H11.4202H11.4203H11.4204H11.4206H11.4207H11.4208H11.4209H11.4211H11.4212H11.4213H11.4214H11.4215H11.4217H11.4218H11.4219H11.422H11.4221H11.4223H11.4224H11.4225H11.4226H11.4227H11.4229H11.423H11.4231H11.4232H11.4233H11.4235H11.4236H11.4237H11.4238H11.4239H11.4241H11.4242H11.4243H11.4244H11.4245H11.4247H11.4248H11.4249H11.425H11.4251H11.4253H11.4254H11.4255H11.4256H11.4257H11.4259H11.426H11.4261H11.4262H11.4263H11.4265H11.4266H11.4267H11.4268H11.4269H11.4271H11.4272H11.4273H11.4274H11.4275H11.4277H11.4278H11.4279H11.428H11.4281H11.4283H11.4284H11.4285H11.4286H11.4287H11.4289H11.429H11.4291H11.4292H11.4293H11.4295H11.4296H11.4297H11.4298H11.4299H11.4301H11.4302H11.4303H11.4304H11.4306H11.4307H11.4308H11.4309H11.4311H11.4312H11.4313H11.4314H11.4315H11.4317H11.4318H11.4319H11.432H11.4322H11.4323H11.4324H11.4325H11.4327H11.4328H11.4329H11.433H11.4332H11.4333H11.4334H11.4336H11.4337H11.4338H11.4339H11.4341H11.4342H11.4343H11.4345H11.4346H11.4347H11.4348H11.435H11.4351H11.4352H11.4354H11.4355H11.4356H11.4358H11.4359H11.436H11.4362H11.4363H11.4364H11.4366H11.4367H11.4368H11.437H11.4371H11.4372H11.4374H11.4375H11.4376H11.4378H11.4379H11.4381H11.4382H11.4383H11.4385H11.4386H11.4387H11.4389H11.439H11.4392H11.4393H11.4395H11.4396H11.4397H11.4399H11.44H11.4402H11.4403H11.4405H11.4406H11.4407H11.4409H11.441H11.4412H11.4413H11.4415H11.4416H11.4418H11.4419H11.4421H11.4422H11.4424H11.4425H11.4427H11.4428H11.443H11.4431H11.4433H11.4434H11.4436H11.4437H11.4439H11.4441H11.4442H11.4444H11.4445H11.4447H11.4448H11.445H11.4452H11.4453H11.4455H11.4456H11.4458H11.446H11.4461H11.4463H11.4465H11.4466H11.4468H11.447H11.4471H11.4473H11.4475H11.4476H11.4478H11.448H11.4481H11.4483H11.4485H11.4486H11.4488H11.449H11.4492H11.4493H11.4495H11.4497H11.4499H11.45H11.4502H11.4504H11.4506H11.4508H11.4509H11.4511H11.4513H11.4515H11.4517H11.4518H11.452H11.4522H11.4524H11.4526H11.4528H11.453H11.4531H11.4533H11.4535H11.4537H11.4539H11.4541H11.4543H11.4545H11.4547H11.4549H11.4551H11.4553H11.4555H11.4557H11.4559H11.4561H11.4563H11.4565H11.4567H11.4569H11.4571H11.4573H11.4575H11.4577H11.4579H11.4581H11.4583H11.4585H11.4587H11.4589H11.4591H11.4593H11.4596H11.4598H11.46H11.4602H11.4604H11.4606H11.4609H11.4611H11.4613H11.4615H11.4617H11.462H11.4622H11.4624H11.4626H11.4629H11.4631H11.4633H11.4635H11.4638H11.464H11.4642H11.4645H11.4647H11.4649H11.4652H11.4654H11.4656H11.4659H11.4661C11.7393 14.754 11.9601 14.5281 12.0041 14.2642C12.0487 13.9966 11.8718 13.6821 11.5553 13.6365L7.72877 12.992V1.55942M11.3847 14.754L7.72877 1.55942M7.72877 1.55942H35.2862L35.9319 6.72521V13.7173H33.8643C33.7259 13.7173 33.5916 13.786 33.493 13.8847C33.3943 13.9833 33.3256 14.1176 33.3256 14.256C33.3256 14.5253 33.549 14.7947 33.8643 14.7947H36.5114C36.7806 14.7947 37.05 14.5714 37.05 14.256V6.76281V6.76257V6.76234V6.7621V6.76187V6.76163V6.7614V6.76116V6.76093V6.7607V6.76047V6.76024V6.76002V6.75979V6.75956V6.75934V6.75911V6.75889V6.75866V6.75844V6.75822V6.758V6.75778V6.75756V6.75735V6.75713V6.75691V6.7567V6.75648V6.75627V6.75606V6.75584V6.75563V6.75542V6.75521V6.75501V6.7548V6.75459V6.75438V6.75418V6.75397V6.75377V6.75357V6.75337V6.75316V6.75296V6.75276V6.75256V6.75237V6.75217V6.75197V6.75177V6.75158V6.75138V6.75119V6.751V6.7508V6.75061V6.75042V6.75023V6.75004V6.74985V6.74966V6.74948V6.74929V6.7491V6.74892V6.74873V6.74855V6.74837V6.74818V6.748V6.74782V6.74764V6.74746V6.74728V6.7471V6.74692V6.74675V6.74657V6.74639V6.74622V6.74604V6.74587V6.7457V6.74552V6.74535V6.74518V6.74501V6.74484V6.74467V6.7445V6.74433V6.74416V6.744V6.74383V6.74366V6.7435V6.74333V6.74317V6.743V6.74284V6.74268V6.74252V6.74235V6.74219V6.74203V6.74187V6.74171V6.74155V6.7414V6.74124V6.74108V6.74092V6.74077V6.74061V6.74046V6.7403V6.74015V6.73999V6.73984V6.73969V6.73954V6.73938V6.73923V6.73908V6.73893V6.73878V6.73863V6.73848V6.73833V6.73819V6.73804V6.73789V6.73775V6.7376V6.73745V6.73731V6.73716V6.73702V6.73688V6.73673V6.73659V6.73645V6.7363V6.73616V6.73602V6.73588V6.73574V6.7356V6.73546V6.73532V6.73518V6.73504V6.7349V6.73476V6.73463V6.73449V6.73435V6.73421V6.73408V6.73394V6.73381V6.73367V6.73354V6.7334V6.73327V6.73313V6.733V6.73287V6.73273V6.7326V6.73247V6.73234V6.73221V6.73207V6.73194V6.73181V6.73168V6.73155V6.73142V6.73129V6.73116V6.73103V6.7309V6.73078V6.73065V6.73052V6.73039V6.73026V6.73014V6.73001V6.72988V6.72976V6.72963V6.7295V6.72938V6.72925V6.72913V6.729V6.72888V6.72875V6.72863V6.7285V6.72838V6.72825V6.72813V6.72801V6.72788V6.72776V6.72764V6.72751V6.72739V6.72727V6.72714V6.72702V6.7269V6.72678V6.72666V6.72653V6.72641V6.72629V6.72617V6.72605V6.72593V6.7258V6.72568V6.72556V6.72544V6.72532V6.7252V6.72508V6.72496V6.72484V6.72472V6.7246V6.72448V6.72436V6.72424V6.72412V6.724V6.72388V6.72376V6.72364V6.72352V6.7234V6.72328V6.72316V6.72304V6.72292V6.7228V6.72268V6.72257V6.72245V6.72233V6.72221V6.72209V6.72197V6.72185V6.72173V6.72161V6.72149V6.72137V6.72125V6.72113V6.72101V6.72089V6.72077V6.72065V6.72054V6.72042V6.7203V6.72018V6.72006V6.71994V6.71982V6.7197V6.71958V6.71946V6.71934V6.71922V6.7191V6.71898V6.71885V6.71873V6.71861V6.71849V6.71837V6.71825V6.71813V6.71801V6.71789V6.71776V6.71764V6.71752V6.7174V6.71728V6.71715V6.71703V6.71691V6.71679V6.71666V6.71654V6.71642V6.71629V6.71617V6.71605V6.71592V6.7158V6.71567V6.71555V6.71543V6.7153V6.71517V6.71505V6.71492V6.7148V6.71467V6.71455V6.71442V6.71429V6.71417V6.71404V6.71391V6.71378V6.71366V6.71353V6.7134V6.71327V6.71314V6.71301V6.71288V6.71275V6.71262V6.71249V6.71236V6.71223V6.7121V6.71197V6.71184V6.71171V6.71157V6.71144V6.71131V6.71117V6.71104V6.71091V6.71077V6.71064V6.7105V6.71037V6.71023V6.7101V6.70996V6.70982V6.70969V6.70955V6.70941V6.70927V6.70914V6.709V6.70886V6.70872V6.70858V6.70844V6.7083V6.70816V6.70801V6.70787V6.70773V6.70759V6.70744V6.7073V6.70716V6.70701V6.70687V6.70672V6.70658V6.70643V6.70628V6.70614V6.70599V6.70584V6.70569V6.70554V6.70539V6.70524V6.70509V6.70494V6.70479V6.70464V6.70449V6.70434V6.70418V6.70403V6.70387V6.70372V6.70356V6.70341V6.70325V6.7031V6.70294V6.70278V6.70262V6.70246V6.7023V6.70214V6.70198V6.70182V6.70166V6.7015V6.70133V6.70117V6.70101V6.70084V6.70068V6.70051V6.70035V6.70018V6.70001V6.69984V6.69968V6.69951V6.69934V6.69917V6.699V6.69882V6.69865V6.69848V6.69831V6.69813V6.69796V6.69778V6.69761V6.69743V6.69725V6.69707V6.69689V6.69672V6.69654V6.69635V6.69617V6.69599V6.69581V6.69563V6.69544V6.69526V6.69507V6.69489V6.6947V6.69451V6.69432V6.69413V6.69394V6.69375V6.69356V6.69337V6.69318V6.69299V6.69279V6.6926V6.6924V6.69221V6.69201V6.69181V6.69161V6.69141V6.69121V6.69101V6.69081V6.69061V6.69041V6.6902V6.69V6.68979V6.68959V6.68938V6.68917V6.68896V6.68875V6.68854V6.68833V6.68812V6.68791V6.68769V6.68748V6.68726V6.68705V6.68683V6.68661V6.68639V6.68617V6.68595V6.68573V6.68551V6.68529V6.68506V6.68484V6.68461V6.68439V6.68416V6.68393V6.6837V6.68347V6.68324V6.68301V6.68278V6.68255V6.68231V6.68208V6.68184V6.6816V6.68136H37.0505L37.0496 6.67499L36.317 0.976704C36.3159 0.838685 36.2467 0.715148 36.1475 0.627026C36.0477 0.538275 35.9139 0.482043 35.7783 0.482043H7.14936C6.88014 0.482043 6.61068 0.705394 6.61068 1.02073V13.4823C6.61068 13.7498 6.78999 13.9753 7.05954 14.0203L7.72877 1.55942Z" fill="white" stroke="white" stroke-width="0.1"/>
<path d="M18.9186 14.754H26.5747C26.89 14.754 27.1134 14.4845 27.1134 14.2153C27.1134 13.9461 26.89 13.6766 26.5747 13.6766H18.9186C18.7802 13.6766 18.6459 13.7453 18.5473 13.844C18.4486 13.9426 18.3799 14.0769 18.3799 14.2153C18.3799 14.4845 18.6033 14.754 18.9186 14.754Z" fill="white" stroke="white" stroke-width="0.1"/>
<path d="M1.48872 10.9666H5.47967C5.795 10.9666 6.01836 10.6972 6.01836 10.428C6.01836 10.1587 5.795 9.88927 5.47967 9.88927H1.48872C1.35028 9.88927 1.21604 9.95798 1.11739 10.0566C1.01874 10.1553 0.950031 10.2895 0.950031 10.428C0.950031 10.6972 1.17338 10.9666 1.48872 10.9666Z" fill="white" stroke="white" stroke-width="0.1"/>
<path d="M3.1584 12.9214H5.47966C5.795 12.9214 6.01835 12.652 6.01835 12.3827C6.01835 12.1135 5.795 11.844 5.47966 11.844H3.1584C3.01996 11.844 2.88571 11.9128 2.78707 12.0114C2.68842 12.11 2.61971 12.2443 2.61971 12.3827C2.61971 12.652 2.84306 12.9214 3.1584 12.9214Z" fill="white" stroke="white" stroke-width="0.1"/>
</svg>
