<svg width="25" height="18" viewBox="0 0 25 18" fill="none" xmlns="http://www.w3.org/2000/svg">
<path d="M24.786 14.3259L21.5016 4.04953C21.4518 3.92512 21.3772 3.82558 21.2528 3.77581C21.1284 3.72605 21.0039 3.72605 20.8795 3.75094C20.3072 3.97488 19.7598 4.2237 19.2373 4.47253C18.5406 4.796 17.8688 5.11946 17.1721 5.3434C16.6247 5.4927 16.1519 5.54246 15.704 5.54246C15.5547 5.84105 15.3806 6.16452 15.2313 6.4631C15.7538 6.51287 16.3012 6.51286 16.9233 6.38844L18.4411 16.1174C16.774 16.4408 15.3557 16.3164 13.4895 15.6944V9.10061C13.3402 9.15037 13.1909 9.17525 13.0416 9.17525C12.8675 9.17525 12.6933 9.15038 12.5191 9.07573V15.346C10.9018 14.7489 9.40883 14.3259 7.71684 14.3259C7.64219 14.3259 7.56756 14.3259 7.49291 14.3259L9.01072 4.59694C9.33419 4.57206 9.60789 4.57206 9.90647 4.59694L9.78206 4.37299C9.65765 4.12417 9.55813 3.87535 9.50836 3.62653C9.20978 3.62653 8.73702 3.65141 8.56284 3.70117C8.38867 3.72605 7.9159 3.87534 7.6422 3.94999C6.47273 4.27346 5.47745 4.57205 4.33287 4.42276C4.10893 4.39788 3.88498 4.52229 3.81033 4.74622L0.525894 15.0226C0.476129 15.147 0.501 15.2963 0.575646 15.4207C0.650293 15.5451 0.749834 15.6198 0.899127 15.6446C1.52118 15.7691 2.11835 15.8188 2.71552 15.8188C3.83522 15.8188 4.90516 15.6446 5.95021 15.4953C6.29856 15.4456 6.64691 15.3958 7.02014 15.346C9.13513 15.1719 10.852 15.7442 12.8675 16.5155C14.1613 16.9634 15.3557 17.262 16.7242 17.262C17.4707 17.262 18.242 17.1624 19.088 16.9634C19.088 16.9634 19.1129 16.9634 19.1378 16.9634C20.2824 16.615 21.4021 16.192 22.472 15.7441C23.1438 15.4704 23.8405 15.1968 24.5372 14.9479C24.7363 14.8235 24.8607 14.5498 24.786 14.3259ZM6.44785 14.3756C6.19903 14.4005 5.95021 14.4503 5.70139 14.5C4.2831 14.724 2.91459 14.9479 1.52118 14.7489L4.53192 5.3434C5.72627 5.41805 6.74644 5.11946 7.84125 4.82087C7.89102 4.82087 7.9159 4.79599 7.96566 4.79599L6.44785 14.3756ZM22.0739 14.7986C21.1781 15.147 20.2575 15.5202 19.3368 15.8188L17.819 6.08987C18.4411 5.86593 19.0631 5.56734 19.6354 5.29364C20.0087 5.11946 20.357 4.94529 20.7302 4.79599L23.7161 14.1517C23.1687 14.3756 22.6213 14.5996 22.0739 14.7986Z" fill="#4F2D87"/>
<path d="M12.6435 7.95606C12.7928 8.25464 13.2158 8.25464 13.3651 7.95606C13.3651 7.95606 15.0322 4.69648 15.4303 3.92514C15.8036 3.15379 15.8284 2.28291 15.4303 1.48668C14.7585 0.143045 13.1412 -0.379494 11.7975 0.292326C10.4539 0.964145 9.93136 2.65614 10.6032 3.92514C11.275 5.19413 12.6435 7.95606 12.6435 7.95606ZM12.9919 1.28761C13.7632 1.28761 14.4102 1.90967 14.4102 2.7059C14.4102 3.47725 13.7881 4.12419 12.9919 4.12419C12.2205 4.12419 11.5736 3.50213 11.5736 2.7059C11.5985 1.93455 12.2205 1.28761 12.9919 1.28761Z" fill="#4F2D87"/>
</svg>
