<svg width="20" height="23" viewBox="0 0 20 23" fill="none" xmlns="http://www.w3.org/2000/svg">
<path d="M19.8429 21.357C19.7935 21.3012 19.734 21.2561 19.668 21.2243C19.6019 21.1925 19.5305 21.1747 19.4578 21.1718C19.3852 21.169 19.3127 21.1811 19.2445 21.2076C19.1763 21.234 19.1138 21.2743 19.0605 21.3261C18.8589 21.5219 18.6166 21.6658 18.3526 21.7463C18.0887 21.8268 17.8104 21.8417 17.54 21.7899L10.8268 20.4487L13.1888 17.0939C13.2044 17.0722 13.218 17.0489 13.2293 17.0244C13.3971 16.7044 13.4592 16.3353 13.4058 15.9746C13.3524 15.6139 13.1865 15.2818 12.9341 15.03L10.7197 12.6299L10.8526 12.4135L14.2996 13.0976L15.4917 13.7507C15.7057 13.8899 16.2667 14.1102 17.0454 13.3642C17.2372 13.196 17.3787 12.9736 17.4533 12.7235C17.5279 12.4734 17.5324 12.2062 17.4662 11.9535C17.3883 11.7234 17.2637 11.5137 17.1008 11.339C17.0636 11.3001 17.0228 11.2651 16.979 11.2346L14.4325 9.5843L13.9269 6.87881C13.8054 6.40959 13.5889 5.97327 13.2921 5.5995C13.399 5.60719 13.5063 5.60719 13.6132 5.5995C14.0966 5.60559 14.5728 5.47532 14.9916 5.22235C15.4104 4.96937 15.7565 4.60303 15.9936 4.16173C16.2186 3.72543 16.3298 3.23475 16.3161 2.73911C16.3023 2.24346 16.1641 1.76037 15.9153 1.33849C15.6665 0.916616 15.3159 0.570855 14.8989 0.336044C14.4818 0.101233 14.0131 -0.0143358 13.5398 0.000980357C13.0666 0.0162965 12.6055 0.161957 12.2032 0.423287C11.8008 0.684617 11.4712 1.05239 11.2478 1.48955C11.0243 1.92671 10.9149 2.41782 10.9304 2.91341C10.9458 3.40899 11.0858 3.89155 11.3361 4.31247C10.8621 4.16173 10.356 4.16173 9.88197 4.31247C9.37967 4.47056 8.95272 4.82109 8.68621 5.29417L5.80385 10.1254L5.75956 10.2297L2.0911 9.49927L2.13907 9.29829C2.15652 9.22418 2.15986 9.14721 2.1489 9.07175C2.13794 8.9963 2.1129 8.92384 2.0752 8.85852C2.03751 8.7932 1.98789 8.7363 1.9292 8.69106C1.8705 8.64582 1.80387 8.61313 1.73311 8.59486C1.66235 8.57659 1.58884 8.57309 1.51679 8.58457C1.44474 8.59605 1.37556 8.62227 1.31318 8.66175C1.25081 8.70123 1.19648 8.75319 1.15328 8.81466C1.11008 8.87613 1.07887 8.94591 1.06142 9.02001L0.998678 9.28283H0.913793C0.769419 9.25413 0.62007 9.28666 0.498603 9.37328C0.377135 9.4599 0.293499 9.5935 0.266092 9.74469C0.238685 9.89589 0.269754 10.0523 0.352463 10.1795C0.435171 10.3067 0.562745 10.3943 0.707119 10.423H0.732954L0.692357 10.5815C0.657757 10.7311 0.681006 10.889 0.757043 11.0207C0.83308 11.1525 0.955745 11.2474 1.09832 11.2849C1.14244 11.2906 1.18707 11.2906 1.23119 11.2849C1.35497 11.2845 1.47512 11.2411 1.57269 11.1613C1.67026 11.0815 1.73968 10.97 1.77001 10.8443L1.82168 10.624L5.37574 11.3313C5.27363 11.7321 5.2807 12.1549 5.39614 12.5517C5.51159 12.9486 5.7308 13.3037 6.02897 13.5768L9.0442 16.634L7.02913 19.6951L0.666523 18.4351C0.519701 18.4064 0.368006 18.4399 0.244808 18.5284C0.12161 18.6168 0.0370017 18.7529 0.00959505 18.9066C-0.0178116 19.0604 0.0142289 19.2192 0.0986679 19.3483C0.183107 19.4773 0.313027 19.5659 0.459849 19.5946L17.3333 22.9455C17.5072 22.9809 17.6839 22.999 17.8611 22.9996C18.5854 22.9991 19.2827 22.712 19.8134 22.1957C19.8695 22.1437 19.9149 22.0803 19.9469 22.0094C19.979 21.9384 19.9969 21.8614 19.9997 21.783C20.0024 21.7046 19.9899 21.6264 19.963 21.5532C19.9361 21.4799 19.8952 21.4132 19.8429 21.357ZM11.8011 11.4279L11.4689 11.3622L11.6387 11.0916L11.8011 11.4279ZM12.8603 4.28155C12.4892 4.07138 12.2131 3.71547 12.0926 3.29211C12.0401 3.10145 12.0201 2.90257 12.0336 2.70463L13.4877 3.29598L13.5357 3.34236L14.5469 4.15787C14.3055 4.34286 14.019 4.45263 13.7206 4.47451C13.4222 4.49639 13.124 4.4295 12.8603 4.28155ZM13.6169 1.15478C14.0266 1.15155 14.4213 1.31635 14.7164 1.61393C15.0116 1.91152 15.1839 2.31825 15.1964 2.74715L12.4875 1.64563C12.7872 1.33206 13.1932 1.15557 13.6169 1.15478ZM9.6347 5.88551L9.65684 5.83913C9.78671 5.63164 9.98092 5.47739 10.2067 5.40239C10.719 5.30298 11.248 5.41518 11.683 5.71545C12.229 6.01236 12.6404 6.52381 12.8271 7.13776L13.4102 10.0558C13.4245 10.1353 13.4546 10.2107 13.4985 10.2773C13.5423 10.3438 13.599 10.4001 13.6648 10.4423L16.3405 12.17C16.3607 12.1956 16.3755 12.2255 16.3838 12.2575C16.3922 12.2896 16.394 12.3232 16.3891 12.356C16.3843 12.3889 16.3728 12.4203 16.3555 12.4481C16.3382 12.476 16.3155 12.4998 16.2889 12.5178C16.2028 12.6058 16.1029 12.6777 15.9936 12.7304L12.8566 11.0143L11.325 7.80641C11.2589 7.66854 11.1433 7.5638 11.0035 7.51523C10.8636 7.46667 10.7111 7.47826 10.5795 7.54745C10.4478 7.61664 10.3478 7.73777 10.3015 7.88418C10.2551 8.0306 10.2662 8.19031 10.3322 8.32818L11.0703 9.87417L10.2953 11.1303L6.91103 10.4578L9.6347 5.88551ZM10.203 16.8891C10.2783 16.7765 10.3126 16.6394 10.2997 16.5026C10.2869 16.3657 10.2277 16.2383 10.1329 16.1432L6.76709 12.7188C6.61672 12.5756 6.5084 12.3905 6.45481 12.1851C6.40122 11.9798 6.40457 11.7627 6.46447 11.5593L9.65684 12.1932L9.52767 12.398C9.46009 12.5082 9.42989 12.6391 9.44194 12.7695C9.45399 12.8999 9.50759 13.0223 9.5941 13.1169L12.1517 15.8688C12.2269 15.942 12.2781 16.0382 12.298 16.1437C12.3179 16.2492 12.3054 16.3586 12.2624 16.4562L9.61624 20.2207L8.21381 19.9424L10.203 16.8891Z" fill="white"/>
</svg>
