<svg width="30" height="48" viewBox="0 0 30 48" fill="none" xmlns="http://www.w3.org/2000/svg">
<path fill-rule="evenodd" clip-rule="evenodd" d="M6.10593 16.9006L7.13074 17.2612L8.56893 13.1409L10.9716 12.1366L12.0137 11.4843L12.1945 10.5572L13.3743 11.304L15.9493 11.3813L17.7233 9.99927L17.8956 11.4843L20.8925 12.5401L22.3824 15.6217L22.9249 16.9092L25.1037 15.9049L25.2501 17.2612L25.5257 18.1453L26.0768 18.9779L23.9583 20.5316L22.0465 21.287L19.9021 18.1024L19.8763 25.6561L19.6438 26.7977H10.1966L9.72292 24.772L10.3257 18.1882L8.74116 20.1539L7.81108 21.0123L5.60645 19.905L6.10593 16.9006Z" fill="white"/>
<path fill-rule="evenodd" clip-rule="evenodd" d="M7.11357 17.802L8.12977 18.1625L9.56795 14.0423L11.9707 13.038L13.0127 12.3856L13.1935 11.4586L14.3734 12.2054L16.9483 12.2912L18.7224 10.9006L18.9032 12.3856L21.8915 13.4414L23.3814 16.523L23.9239 17.8192L26.1027 16.8063L26.2491 18.1625L26.5247 19.0466L27.0759 19.8793L24.966 21.4329L23.0455 22.1883L20.9012 19.0037L20.8753 26.5575L20.6428 27.6991H11.1956L10.7219 25.6733L11.3334 19.0896L9.74019 21.0553L8.8101 21.9136L6.60547 20.8063L7.11357 17.802Z" fill="#CCB8F4"/>
<path fill-rule="evenodd" clip-rule="evenodd" d="M10.0844 26.9437L19.6005 27.2012L20.1086 46.0083L19.7899 46.592L16.8877 46.386L15.2773 29.433H14.5539L12.7799 46.6264L9.72266 46.4118L10.0844 26.9437Z" fill="white"/>
<path fill-rule="evenodd" clip-rule="evenodd" d="M11.3329 27.1841L20.8404 27.4416L21.3571 46.2487L21.0385 46.8324L18.1363 46.6264L16.5258 29.6648H15.8024L14.0284 46.8667L10.9712 46.6435L11.3329 27.1841Z" fill="#A3EFE0"/>
<path fill-rule="evenodd" clip-rule="evenodd" d="M3.03131 18.8321C3.06576 20.2999 3.0916 21.7591 3.10882 23.227C3.11743 24.2398 3.14327 25.2527 3.15188 26.2656C3.238 32.5575 2.96242 38.4632 2.73851 44.1457C2.71267 44.8066 2.73851 46.2229 3.1691 46.6607H5.51153C5.95073 46.2229 5.96796 44.8066 5.94212 44.1457C5.71821 38.4632 5.44263 32.5575 5.52875 26.2656C5.54598 25.2527 5.5632 24.2398 5.57181 23.227C5.63209 18.1797 5.78711 13.1238 6.02824 8.05082C6.0713 7.14094 6.09714 6.24822 6.09714 5.33834C6.09714 3.88768 5.58042 3.25248 4.3317 3.2439C3.0916 3.2439 2.5835 3.87051 2.5835 5.32976C2.5835 6.23964 2.60933 7.14094 2.65239 8.04223C2.76435 10.4028 2.85908 12.7633 2.93658 15.1153" fill="white"/>
<path fill-rule="evenodd" clip-rule="evenodd" d="M2.93671 15.1324L3.72039 15.2268C4.12515 15.2783 4.42657 15.6474 4.40073 16.0509L4.26294 17.699C4.21127 18.3428 3.64289 18.8149 2.997 18.7376L2.65252 18.6947C2.17026 18.6346 1.79995 18.1882 1.84301 17.7076L1.98941 15.905C2.02386 15.4243 2.44584 15.0723 2.93671 15.1324Z" fill="white"/>
<path fill-rule="evenodd" clip-rule="evenodd" d="M26.9119 15.2097L26.111 15.2183C25.7062 15.2269 25.4393 15.6389 25.4306 16.0423L25.4134 17.699C25.4048 18.3514 26.0335 18.8149 26.6794 18.7377L27.0238 18.6947C27.5061 18.6346 27.8334 18.1969 27.8334 17.7076L27.842 15.905C27.842 15.4157 27.4028 15.2097 26.9119 15.2097Z" fill="white"/>
<path fill-rule="evenodd" clip-rule="evenodd" d="M11.9965 6.87474L11.5659 4.11935L12.1946 2.6086L13.3227 1.50129L14.3734 1.02918L15.424 0.488403L16.2766 0.86609L16.5091 1.32103C16.5091 1.32103 17.2067 1.83606 17.422 2.06782C17.6373 2.29958 18.1798 3.08929 18.1798 3.08929C18.1798 3.08929 18.4726 3.71591 18.5071 4.10218C18.5501 4.48845 18.4037 4.77171 18.3779 5.52709C18.3521 6.27388 18.3779 6.79749 18.1884 7.18376C17.999 7.57003 17.8267 7.79321 17.6976 8.14514C17.5684 8.50566 17.0344 9.37262 16.9828 9.43271C16.9311 9.50138 16.5177 10.4113 16.3972 10.3683C16.2766 10.3254 15.3982 10.5658 15.0365 10.5486C14.6748 10.54 13.7533 10.1537 13.7533 10.1537L12.7544 9.2267L11.9965 6.87474Z" fill="white"/>
<path d="M29.6248 47.4149H0V46.4707H2.53189C2.26492 45.7754 2.2477 44.7539 2.27353 44.1187L2.35104 42.2389C2.55772 37.1315 2.76441 31.8525 2.6869 26.2558L2.64384 23.2172C2.62662 21.8609 2.60078 20.5047 2.57495 19.1485C1.85155 19.0455 1.31761 18.3845 1.3779 17.6549L1.5243 15.8523C1.55013 15.4918 1.72237 15.157 2.00656 14.9338C2.14435 14.8222 2.29937 14.745 2.46299 14.6935C2.3941 12.4617 2.29937 10.2299 2.19602 8.0582C2.12713 7.08824 2.10991 6.18694 2.10991 5.32856C2.10991 3.6118 2.84191 2.77059 4.34899 2.76201C5.85607 2.77059 6.58807 3.6118 6.58807 5.32856C6.58807 6.17836 6.56224 7.07107 6.51918 8.06679C6.39 10.8136 6.27805 13.6033 6.20054 16.4102L6.61391 16.6248L8.13821 12.9595C8.39656 12.4102 8.77549 12.0411 9.32664 11.8351L11.5916 11.1226L11.738 9.93806C11.7207 9.7578 11.7466 9.56895 11.8155 9.40586C11.893 9.23418 12.0049 9.08826 12.1513 8.97667C12.0222 8.73632 11.9188 8.49598 11.8499 8.2728V8.24705L11.0835 5.01096C10.9543 3.28562 11.781 1.88646 13.5292 0.779152C13.9254 0.530222 14.3043 0.36713 14.6746 0.204038L15.0105 0.0581133C15.4325 -0.113562 16.1128 0.143951 16.242 0.204038C16.707 0.427216 16.7501 0.761984 16.7673 0.907908C18.3777 2.00663 19.1269 3.35429 19.015 4.94229L18.1624 8.25563C18.0935 8.49598 17.9816 8.75349 17.8352 9.01101C17.9557 9.11401 18.0591 9.24277 18.1194 9.39728C18.1969 9.57754 18.2227 9.76638 18.1969 9.95522L18.3347 11.114L20.5737 11.8179C21.1507 12.0411 21.5297 12.4016 21.7794 12.9338L23.3123 16.6077L25.0088 15.6978C25.138 15.1913 25.5256 14.745 26.1112 14.7364H26.1628V14.0926H27.1101V14.7364C27.4718 14.7707 27.7819 14.8995 27.9972 15.1141C28.2038 15.3201 28.3158 15.5948 28.3158 15.8952L28.3072 17.6978C28.3072 18.4274 27.7991 19.0455 27.1187 19.1485L27.1015 19.157V44.0329H28.5225V44.9771H27.1015V45.2088H26.1542V44.9771H24.7333V44.0329H26.1542V19.7407L22.9937 21.6721C22.5459 21.8524 21.9258 21.8094 21.4694 21.6034C21.1593 21.4661 20.944 21.2601 20.8579 21.0111L20.1173 19.5519L20.1862 23.0026L20.4015 26.4447L20.1259 27.0284L20.5823 46.3934C20.5823 46.4192 20.5823 46.4449 20.5823 46.4707H26.1628V45.5779H27.1101V46.4707H29.6248V47.4149ZM16.9654 46.4707L17.3615 46.4621C17.3615 46.4363 17.3529 46.402 17.3443 46.3762L16.9654 46.4707ZM13.4173 46.4707H16.4228C16.4228 46.4621 16.4228 46.4621 16.4228 46.4535L16.3711 45.0887L16.1128 41.5006L14.9157 30.4876L13.7273 41.5092L13.469 45.0973L13.4259 46.402C13.4173 46.4277 13.4173 46.4535 13.4173 46.4707ZM6.15748 46.4707H9.24914C9.24914 46.4535 9.24914 46.4363 9.24914 46.4277L9.70557 27.2859L9.38693 26.4275L9.63667 22.9425L9.78307 19.6549L9.02523 21.0798C8.95634 21.2772 8.74104 21.4747 8.43101 21.612C7.97458 21.818 7.35453 21.8609 6.98422 21.715L6.07997 21.1914C6.07136 21.8695 6.05414 22.5476 6.04553 23.2258L6.00247 26.2644C5.92496 31.8525 6.13165 37.1315 6.33833 42.2389L6.41584 44.1187C6.44167 44.7539 6.42445 45.7754 6.15748 46.4707ZM12.4872 46.3677C12.4786 46.402 12.47 46.4277 12.47 46.4621L12.7025 46.4277L12.6853 46.3848L12.4872 46.3677ZM12.7542 46.3848V46.4192L12.9436 46.3848H12.7542ZM10.2051 46.1445C10.8251 46.2132 11.8585 46.2217 12.4786 46.1788L12.5216 45.0543L12.7886 41.432L14.1321 28.9597H15.708L17.0515 41.4148L17.3529 46.1702C17.9471 46.2046 18.9978 46.196 19.6264 46.1359L19.5145 41.4062L19.1786 27.4147H10.6443L10.2051 46.1445ZM3.42752 46.1788H5.26185C5.39964 45.8526 5.51159 45.0973 5.47714 44.153L5.39964 42.2732C5.19295 37.1572 4.98627 31.8611 5.06377 26.2473L5.10683 23.2086C5.16712 18.1012 5.32213 12.9853 5.56326 8.02387C5.61493 7.04532 5.63216 6.16119 5.63216 5.32856C5.63216 3.97232 5.17573 3.70622 4.34038 3.70622C3.50503 3.71481 3.0486 3.97232 3.0486 5.32856C3.0486 6.17836 3.07443 7.0539 3.11749 8.02387C3.22084 10.2127 3.31557 12.4617 3.38446 14.7106L3.76338 14.7536C4.41788 14.8308 4.90876 15.4317 4.85709 16.084L4.73652 17.7407C4.70208 18.1871 4.49539 18.5819 4.15092 18.8566C3.96146 19.0111 3.74616 19.1141 3.51364 19.1742C3.54809 20.5219 3.56531 21.8695 3.58253 23.2172L3.62559 26.2558C3.7031 31.8696 3.49642 37.1658 3.28973 42.2904L3.21222 44.1616C3.18639 45.0973 3.28973 45.8526 3.42752 46.1788ZM15.4325 26.4704H19.3422L19.437 26.273L19.2389 23.0541L19.0925 15.921L20.0398 15.9038L20.0742 17.3888L21.7277 20.642C21.8397 20.8051 22.4081 20.8996 22.5889 20.8395L25.6547 18.9682C25.5858 18.9253 25.5169 18.8738 25.448 18.8137C25.1208 18.5218 24.9486 18.1356 24.9486 17.7064L24.9572 16.8137L22.9248 17.9038L22.5114 17.1484L20.9182 13.3287C20.7804 13.0368 20.5823 12.8394 20.2637 12.7192L17.4649 11.8437L17.3787 11.1312C17.0687 11.3801 16.6381 11.6462 16.0956 11.8351C15.9061 11.8952 15.6822 11.9381 15.4325 11.9638V26.4704ZM10.4204 26.4704H14.4851V11.9638C14.2354 11.9381 14.0115 11.8952 13.822 11.8351C13.2709 11.6548 12.8403 11.3801 12.5303 11.1312L12.4441 11.8437L9.61945 12.7278C9.33526 12.8394 9.13718 13.0282 8.99078 13.3372L7.43204 17.0969L6.99283 17.8866L6.16609 17.4575C6.14026 18.3416 6.12303 19.2257 6.10581 20.1098L7.39759 20.8566C7.50093 20.891 8.07793 20.7965 8.18127 20.6592L9.88642 17.4403L9.95531 15.8866L10.9026 15.9295L10.584 22.9854L10.3428 26.2816L10.4204 26.4704ZM2.8333 15.5948C2.74718 15.5948 2.66107 15.6205 2.59217 15.6806C2.51466 15.7493 2.46299 15.8437 2.45438 15.9467L2.30798 17.7493C2.29076 17.9811 2.4716 18.2042 2.70412 18.23L3.0486 18.2729C3.22945 18.2987 3.4103 18.2472 3.54809 18.127C3.68588 18.0154 3.772 17.8523 3.78922 17.6635L3.9184 16.0068C3.92701 15.8523 3.80644 15.7064 3.66004 15.6892L2.87636 15.5948C2.85914 15.5948 2.84191 15.5948 2.8333 15.5948ZM26.9207 15.6806L26.1198 15.6892C26.0164 15.6892 25.9131 15.8695 25.9131 16.0497L25.8959 17.7064C25.8959 17.8952 25.9906 18.024 26.0767 18.1012C26.2231 18.23 26.4298 18.2987 26.6365 18.2729L26.9723 18.23C27.2307 18.1957 27.3685 17.9381 27.3685 17.7064L27.3771 15.9038C27.3771 15.8265 27.3513 15.8094 27.3427 15.7922C27.2824 15.7407 27.1274 15.6806 26.9207 15.6806ZM12.6767 9.77496V9.78355C12.6594 9.82647 12.6594 9.90372 12.7283 9.99814C12.8317 10.1355 13.2967 10.6591 14.1235 10.9338C14.4679 11.0454 15.1224 11.0711 15.5702 10.9853C15.1397 11.0368 14.6918 11.0282 14.2612 10.9595L14.1579 10.9338C13.6154 10.7106 13.09 10.2728 12.6767 9.77496ZM17.2582 9.84363C16.9137 10.2557 16.4917 10.6162 16.0525 10.8394C16.7242 10.5475 17.1032 10.1097 17.2151 9.97239C17.2409 9.92947 17.2582 9.88655 17.2582 9.84363ZM14.4765 10.0496C14.821 10.1011 15.1827 10.1011 15.5272 10.0496C16.2936 9.70629 17.0429 8.71916 17.2496 8.03245L17.3012 7.71485L17.3271 7.72344L18.0849 4.81353C18.1624 3.6633 17.5596 2.62467 16.242 1.73195C15.9061 1.50877 15.8544 1.23409 15.8286 1.08817C15.6564 1.0195 15.398 0.959411 15.3291 0.967995L15.0363 1.10534C14.6832 1.25126 14.356 1.39718 14.0201 1.6032C12.5647 2.52166 11.9016 3.59463 11.9963 4.89079L12.6767 7.71485H12.7025L12.7628 8.07537C12.9522 8.71057 13.7015 9.70629 14.4765 10.0496ZM4.81403 26.4189H3.87534V21.8352H4.82264V26.4189H4.81403Z" fill="#464860"/>
</svg>
