<svg width="41" height="47" viewBox="0 0 41 47" fill="none" xmlns="http://www.w3.org/2000/svg">
<path d="M32.0268 20.8574H37.423C35.2783 17.0865 31.6774 14.2485 27.3872 13.1213C29.3768 14.7326 31.0124 17.4656 32.0268 20.8574Z" fill="white"/>
<path d="M33.1451 28.3529H39.5299C39.4563 26.057 38.9079 23.8794 37.9758 21.9164H32.3171C32.8145 23.8974 33.1059 26.0696 33.1451 28.3529Z" fill="white"/>
<path d="M23.7798 12.6201V20.8574H30.9432C29.5027 16.192 26.8504 12.9561 23.7798 12.6201Z" fill="white"/>
<path d="M15.5576 20.8574H22.721V12.6201C19.6504 12.9561 16.9981 16.192 15.5576 20.8574Z" fill="white"/>
<path d="M14.4138 28.3529H22.7217V21.9164H15.2574C14.7506 23.8794 14.453 26.057 14.4138 28.3529Z" fill="white"/>
<path d="M27.3862 44.6411C31.2824 43.6174 34.6123 41.1852 36.797 37.9219H31.6992C30.6762 40.8452 29.1738 43.1951 27.3862 44.6411Z" fill="white"/>
<path d="M15.5441 36.8644H22.7209V29.4111H14.4138C14.4608 32.112 14.865 34.6476 15.5441 36.8644Z" fill="white"/>
<path d="M32.0383 36.8644H37.4456C38.6973 34.6484 39.443 32.112 39.53 29.4111H33.1452C33.0989 32.0916 32.7049 34.6202 32.0383 36.8644Z" fill="white"/>
<path d="M31.244 21.9164H23.7798V28.3529H32.0876C32.0469 26.057 31.7492 23.8794 31.244 21.9164Z" fill="white"/>
<path d="M32.0876 29.4111H23.7798V36.8644H30.9565C31.6356 34.6476 32.0398 32.112 32.0876 29.4111Z" fill="white"/>
<path d="M23.7798 37.9227V45.1433C26.6224 44.8323 29.1087 42.0382 30.604 37.9227H23.7798Z" fill="white"/>
<path d="M13.3547 29.4111H6.9707C7.05765 32.112 7.80337 34.6476 9.0551 36.8644H14.4623C13.7949 34.6202 13.4017 32.0916 13.3547 29.4111Z" fill="white"/>
<path d="M14.1835 21.9164H8.5248C7.59266 23.8794 7.04433 26.057 6.9707 28.3529H13.3555C13.3947 26.0696 13.6861 23.8974 14.1835 21.9164Z" fill="white"/>
<path d="M14.8014 37.9227H9.70361C11.8883 41.1852 15.2189 43.6182 19.1144 44.6419C17.326 43.1952 15.8237 40.8452 14.8014 37.9227Z" fill="white"/>
<path d="M22.721 45.1433V37.9227H15.8967C17.3929 42.0382 19.8783 44.8323 22.721 45.1433Z" fill="white"/>
<path d="M19.1144 13.1222C14.8242 14.2486 11.2218 17.0865 9.07861 20.8582H14.4741C15.4885 17.4657 17.1233 14.7327 19.1144 13.1222Z" fill="white"/>
<path d="M33.0065 21.4794H38.4028C36.2581 17.7085 32.6572 14.8705 28.3669 13.7433C30.3566 15.3546 31.9921 18.0876 33.0065 21.4794Z" fill="#A3EFE0"/>
<path d="M34.1251 28.9742H40.5099C40.4362 26.6783 39.8879 24.5006 38.9558 22.5377H33.2971C33.7953 24.5187 34.0859 26.6916 34.1251 28.9742Z" fill="#CCB8F4"/>
<path d="M16.5374 21.4793H23.7008V13.242C20.6302 13.578 17.9779 16.8131 16.5374 21.4793Z" fill="#A3EFE0"/>
<path d="M15.3938 28.9741H23.7016V22.5384H16.2374C15.7306 24.5006 15.433 26.679 15.3938 28.9741Z" fill="#CCB8F4"/>
<path d="M33.019 37.4856H38.4263C39.678 35.2696 40.4237 32.7332 40.5107 30.0323H34.1259C34.0797 32.7136 33.6849 35.2422 33.019 37.4856Z" fill="#A3EFE0"/>
<path d="M32.224 22.5384H24.7598V28.9749H33.0676C33.0269 26.679 32.73 24.5006 32.224 22.5384Z" fill="#A3EFE0"/>
<path d="M33.0676 30.0331H24.7598V37.4864H31.9365C32.6156 35.2696 33.0206 32.734 33.0676 30.0331Z" fill="#CCB8F4"/>
<path d="M24.7598 38.5447V45.7653C27.6024 45.4543 30.0887 42.6602 31.584 38.5447H24.7598Z" fill="#A3EFE0"/>
<path d="M14.3355 30.0331H7.95068C8.03763 32.734 8.78335 35.2696 10.0351 37.4864H15.4423C14.7757 35.2422 14.3817 32.7136 14.3355 30.0331Z" fill="#CCB8F4"/>
<path d="M15.1634 22.5384H9.50478C8.57264 24.5014 8.02432 26.679 7.95068 28.9749H14.3355C14.3746 26.6915 14.666 24.5186 15.1634 22.5384Z" fill="#A3EFE0"/>
<path d="M15.7824 38.5447H10.6846C12.8692 41.8072 16.1999 44.2402 20.0953 45.264C18.3062 43.8172 16.8038 41.4664 15.7824 38.5447Z" fill="#A3EFE0"/>
<path d="M23.7014 45.7653V38.5447H16.8772C18.3725 42.6602 20.858 45.4543 23.7014 45.7653Z" fill="#CCB8F4"/>
<path d="M23.7799 11.5438V0.182556H22.7217V11.5438C13.3979 11.825 5.89844 19.4913 5.89844 28.8816C5.89844 38.4498 13.6822 46.2336 23.2504 46.2336C32.8186 46.2336 40.6024 38.4498 40.6024 28.8816C40.6024 19.4913 33.103 11.825 23.7799 11.5438ZM19.1145 13.1221C17.1233 14.7326 15.4886 17.4656 14.4742 20.8582H9.0787C11.2226 17.0865 14.8243 14.2485 19.1145 13.1221ZM8.52489 21.9164H14.1836C13.6862 23.8974 13.3948 26.0695 13.3556 28.3529H6.9708C7.04364 26.057 7.59196 23.8794 8.52489 21.9164ZM6.9708 29.4112H13.3556C13.4018 32.0917 13.7958 34.6202 14.4624 36.8644H9.0552C7.80346 34.6476 7.05696 32.112 6.9708 29.4112ZM9.703 37.9227H14.8008C15.823 40.8444 17.3254 43.1952 19.1137 44.6419C15.2183 43.6181 11.8877 41.1852 9.703 37.9227ZM22.7209 45.1433C19.8783 44.8323 17.392 42.0382 15.8967 37.9227H22.7209V45.1433ZM22.7209 36.8644H15.5442C14.865 34.6484 14.4601 32.112 14.4131 29.4112H22.7209V36.8644ZM22.7209 28.3529H14.4139C14.4538 26.057 14.7515 23.8794 15.2575 21.9164H22.7217V28.3529H22.7209ZM22.7209 20.8574H15.5575C16.9972 16.1912 19.6503 12.9553 22.7209 12.62V20.8574ZM39.5301 28.3529H33.1453C33.1061 26.0695 32.8147 23.8974 32.3173 21.9164H37.976C38.9081 23.8794 39.4564 26.057 39.5301 28.3529ZM37.4222 20.8574H32.0267C31.0123 17.4656 29.3775 14.7318 27.3863 13.1213C31.6765 14.2485 35.2782 17.0865 37.4222 20.8574ZM23.7799 12.62C26.8513 12.9553 29.5036 16.1912 30.9434 20.8574H23.7799V12.62ZM23.7799 21.9164H31.2442C31.7502 23.8794 32.0478 26.057 32.0878 28.3529H23.7799V21.9164ZM23.7799 29.4112H32.0878C32.0408 32.112 31.6358 34.6476 30.9567 36.8644H23.7807V29.4112H23.7799ZM23.7799 45.1433V37.9227H30.6042C29.1081 42.0382 26.6226 44.8323 23.7799 45.1433ZM27.3863 44.6412C29.1746 43.1952 30.677 40.8444 31.6993 37.9219H36.7971C34.6124 41.1852 31.2825 43.6181 27.3863 44.6412ZM37.4457 36.8644H32.0384C32.705 34.6202 33.099 32.0917 33.1453 29.4112H39.5301C39.4431 32.112 38.6974 34.6476 37.4457 36.8644Z" fill="#464860"/>
<path d="M4.38526 8.9823L3.63696 9.73059L7.46152 13.5551L8.20981 12.8069L4.38526 8.9823Z" fill="#464860"/>
<path d="M5.40957 18.5121H0V19.5703H5.40957V18.5121Z" fill="#464860"/>
<path d="M14.225 5.3454H13.1667V10.755H14.225V5.3454Z" fill="#464860"/>
</svg>
