<svg width="48" height="36" viewBox="0 0 48 36" fill="none" xmlns="http://www.w3.org/2000/svg">
<path d="M20.1532 13.0827V15.5054V15.5951H20.0625H17.6136H17.5229V15.5054V13.0827V12.9929H17.6136H20.0625H20.1532V13.0827Z" fill="white"/>
<path d="M20.153 7.80653V12.1046V12.1944H20.0623H17.6044H17.5137V12.1046V10.1575C17.5137 9.62807 17.9218 8.95509 18.5567 8.44362C18.983 8.10264 19.5181 7.83345 20.0351 7.70783L20.1439 7.68091V7.80653H20.153Z" fill="white"/>
<path d="M23.5907 13.0827V15.5054V15.5951H23.5H21.0511H20.9604V15.5054V13.0827V12.9929H21.0511H23.5H23.5907V13.0827Z" fill="white"/>
<path d="M23.5905 12.1046V12.1944H23.4998H21.0419H20.9512V12.1046V7.78859V7.68091L21.06 7.70783C21.5951 7.82448 22.1484 8.10264 22.5837 8.45259C23.2005 8.95509 23.5814 9.61012 23.5814 10.1665V12.1046H23.5905Z" fill="white"/>
<path d="M30.2935 32.0338V20.3688V20.2791H30.3842H42.6557H42.7464V20.3688V32.0338V32.1235H42.6557H30.3842H30.2935V32.0338Z" fill="white"/>
<path d="M13.5864 5.2582V0.924203V0.834473H13.6771H15.6453H15.736V0.924203V4.12759V4.18143L15.6906 4.20835L13.7225 5.32999L13.5864 5.41074V5.2582Z" fill="white"/>
<path d="M2.44866 20.7726L10.6932 16.7078L10.8292 16.636V16.7885V20.8533V20.9431H10.7385H2.49401H2.104L2.44866 20.7726Z" fill="white"/>
<path d="M20.1532 31.0648V33.9811V35.0399H20.0625H17.6136H17.5229V33.9811V31.0648V30.9751H17.6136H20.0625H20.1532V31.0648Z" fill="white"/>
<path d="M20.1532 27.1705V30.0958V30.1855H20.0625H17.6136H17.5229V30.0958V27.1705V27.0808H17.6136H20.0625H20.1532V27.1705Z" fill="white"/>
<path d="M20.1532 23.285V26.2013V26.291H20.0625H17.6136H17.5229V26.2013V23.285V23.1953H17.6136H20.0625H20.1532V23.285Z" fill="white"/>
<path d="M23.5907 31.0648V33.9811V35.0399H23.5H21.0511H20.9604V33.9811V31.0648V30.9751H21.0511H23.5H23.5907V31.0648Z" fill="white"/>
<path d="M23.5907 27.1705V30.0958V30.1855H23.5H21.0511H20.9604V30.0958V27.1705V27.0808H21.0511H23.5H23.5907V27.1705Z" fill="white"/>
<path d="M23.5907 23.285V26.2013V26.291H23.5H21.0511H20.9604V26.2013V23.285V23.1953H21.0511H23.5H23.5907V23.285Z" fill="white"/>
<path d="M43.6439 32.9223H43.7346V33.012V34.9592V35.0489H43.6439H24.4884H24.3977V34.9592V22.8007C24.3977 22.5943 24.2072 22.4058 23.9986 22.4058H17.033C16.8697 22.4417 16.7246 22.6212 16.7246 22.8007V34.9502V35.0399H16.6339H1.89539H1.80469V34.9502V33.0031V32.9133H1.89539H11.2283C11.4369 32.9133 11.6273 32.7249 11.6273 32.5185V7.51951V7.46567L11.6727 7.43875L20.5158 2.36896L20.5612 2.34204L20.6065 2.36896L29.4496 7.43875L29.495 7.46567V7.51951V24.1915V32.5275C29.495 32.7339 29.6854 32.9223 29.894 32.9223H43.6439Z" fill="white"/>
<path d="M44.1156 33.8733H44.2063V33.963V35.9102V35.9999H44.1156H24.9601H24.8694V35.9102V23.7606C24.8694 23.5542 24.6789 23.3658 24.4703 23.3658H17.5047C17.3414 23.4017 17.1963 23.5812 17.1963 23.7606V35.9102V35.9999H17.1056H2.36707H2.27637V35.9102V33.963V33.8733H2.36707H11.6999C11.9086 33.8733 12.099 33.6849 12.099 33.4785V8.47947V8.42563L12.1444 8.39871L20.9875 3.32892L21.0328 3.302L21.0782 3.32892L29.9213 8.39871L29.9666 8.42563V8.47947V25.1515V33.4874C29.9666 33.6938 30.1571 33.8823 30.3657 33.8823H44.1156V33.8733Z" fill="#CCB8F4"/>
<path d="M44.9594 19.4896H30.3842H30.2935V19.3998V14.0519V13.9622H30.3842H36.6424H36.6696L36.6968 13.9711L45.0138 19.3191L45.2678 19.4896H44.9594Z" fill="white"/>
<path d="M20.1532 13.0827V15.5054V15.5951H20.0625H17.6136H17.5229V15.5054V13.0827V12.9929H17.6136H20.0625H20.1532V13.0827Z" fill="white"/>
<path d="M20.153 7.80653V12.1046V12.1944H20.0623H17.6044H17.5137V12.1046V10.1575C17.5137 9.62807 17.9218 8.95509 18.5567 8.44362C18.983 8.10264 19.5181 7.83345 20.0351 7.70783L20.1439 7.68091V7.80653H20.153Z" fill="white"/>
<path d="M23.5907 13.0827V15.5054V15.5951H23.5H21.0511H20.9604V15.5054V13.0827V12.9929H21.0511H23.5H23.5907V13.0827Z" fill="white"/>
<path d="M23.5905 12.1046V12.1944H23.4998H21.0419H20.9512V12.1046V7.78859V7.68091L21.06 7.70783C21.5951 7.82448 22.1484 8.10264 22.5837 8.45259C23.2005 8.95509 23.5814 9.61012 23.5814 10.1665V12.1046H23.5905Z" fill="white"/>
<path d="M30.2935 32.0338V20.3688V20.2791H30.3842H42.6557H42.7464V20.3688V32.0338V32.1235H42.6557H30.3842H30.2935V32.0338Z" fill="white"/>
<path d="M14.1401 6.01186V1.67787V1.58813H14.2308H16.199H16.2897V1.67787V4.88126V4.93509L16.2443 4.96201L14.2762 6.08365L14.1401 6.16441V6.01186Z" fill="#A3EFE0"/>
<path d="M3.00188 21.5265L11.2464 17.4527L11.3824 17.3899V17.5335V21.6072V21.697H11.2917H3.04723H2.65723L3.00188 21.5265Z" fill="#A3EFE0"/>
<path d="M20.1532 31.0648V33.9811V35.0399H20.0625H17.6136H17.5229V33.9811V31.0648V30.9751H17.6136H20.0625H20.1532V31.0648Z" fill="white"/>
<path d="M20.1532 27.1705V30.0958V30.1855H20.0625H17.6136H17.5229V30.0958V27.1705V27.0808H17.6136H20.0625H20.1532V27.1705Z" fill="white"/>
<path d="M20.1532 23.285V26.2013V26.291H20.0625H17.6136H17.5229V26.2013V23.285V23.1953H17.6136H20.0625H20.1532V23.285Z" fill="white"/>
<path d="M23.5907 31.0648V33.9811V35.0399H23.5H21.0511H20.9604V33.9811V31.0648V30.9751H21.0511H23.5H23.5907V31.0648Z" fill="white"/>
<path d="M23.5907 27.1705V30.0958V30.1855H23.5H21.0511H20.9604V30.0958V27.1705V27.0808H21.0511H23.5H23.5907V27.1705Z" fill="white"/>
<path d="M23.5907 23.285V26.2013V26.291H23.5H21.0511H20.9604V26.2013V23.285V23.1953H21.0511H23.5H23.5907V23.285Z" fill="white"/>
<path d="M45.5126 20.2432H30.9374H30.8467V20.1535V14.8056V14.7158H30.9374H37.1956H37.2228L37.2409 14.7248L45.5671 20.0728L45.821 20.2432H45.5126Z" fill="#A3EFE0"/>
<path d="M46.6826 20.351C46.7008 20.351 46.728 20.351 46.7461 20.342C46.728 20.351 46.7098 20.351 46.6826 20.351Z" fill="#464860"/>
<path d="M24.3977 10.1575C24.3977 9.34095 23.9442 8.51543 23.1098 7.84245C22.3298 7.20536 21.4047 6.84644 20.5612 6.84644C19.7539 6.84644 18.847 7.21433 18.0579 7.84245C17.1962 8.53337 16.7246 9.3589 16.7246 10.1575V16.3848H24.3977V10.1575ZM20.153 13.0827V15.5144V15.6042H20.0623H17.6044H17.5137V15.5144V13.0827V12.993H17.6044H20.0623H20.153V13.0827ZM20.153 7.80656V12.1047V12.1944H20.0623H17.6044H17.5137V12.1047V10.1575C17.5137 9.62809 17.9218 8.95511 18.5567 8.44364C18.983 8.10267 19.5181 7.83347 20.0351 7.70785L20.1439 7.68093V7.80656H20.153ZM23.5905 13.0827V15.5144V15.6042H23.4998H21.0419H20.9512V15.5144V13.0827V12.993H21.0419H23.4998H23.5905V13.0827ZM23.5905 12.1047V12.1944H23.4998H21.0419H20.9512V12.1047V7.78861V7.68093L21.06 7.70785C21.5951 7.8245 22.1484 8.10267 22.5837 8.45262C23.2005 8.95511 23.5814 9.61014 23.5814 10.1665V12.1047H23.5905Z" fill="#464860"/>
<path d="M46.8369 20.2972C46.8551 20.2882 46.8732 20.2792 46.8913 20.2703C46.8732 20.2882 46.8551 20.2882 46.8369 20.2972Z" fill="#464860"/>
<path d="M46.8186 19.5524L36.996 13.2354C36.9325 13.1995 36.8599 13.1725 36.7783 13.1725H30.3841H30.2934V13.0828V8.05788V7.89637L30.4294 7.97713L33.0506 9.4846L33.4497 8.80265C31.4997 7.72588 29.5406 6.5863 27.645 5.48261C25.3866 4.17254 23.0465 2.80863 20.7156 1.54343C20.643 1.49856 20.5977 1.48959 20.5705 1.48959C20.5161 1.48959 20.4526 1.51651 20.3619 1.5524L16.6704 3.6521L16.5344 3.73286V3.57134V0.439737C16.5344 0.233357 16.3439 0.0449219 16.1353 0.0449219H13.1876H13.1785C13.0153 0.0449219 12.9064 0.107733 12.8339 0.233357C12.7885 0.341034 12.7885 0.439737 12.7885 0.439737V5.81461V5.86845L12.7432 5.89537L7.66407 8.79368L8.06314 9.47563L10.6843 7.96815L10.8204 7.88739V8.03994V15.685V15.7388L10.766 15.7658L0.244926 20.9791C0.0816689 21.0509 -0.0180995 21.2573 0.0181799 21.4278C0.0544594 21.5983 0.226787 21.7329 0.408184 21.7329H1.88657H1.97727V21.8226V32.034V32.1237H1.88657H1.40587C1.19726 32.1237 1.00679 32.3121 1.00679 32.5185V35.4348C1.00679 35.6411 1.19726 35.8296 1.40587 35.8296H44.134C44.3426 35.8296 44.533 35.6411 44.533 35.4348V32.5185C44.533 32.3121 44.3426 32.1237 44.134 32.1237H43.6442H43.5535V32.034V20.369V20.2792H43.6442H46.5919C46.7733 20.2792 46.9366 20.1626 46.991 20.0011C47.0363 19.8395 46.9638 19.6421 46.8186 19.5524ZM30.2934 32.034V20.369V20.2792H30.3841H42.6646H42.7553V20.369V32.034V32.1237H42.6646H30.3841H30.2934V32.034ZM13.5867 5.25828V0.924284V0.834553H13.6774H15.6455H15.7362V0.924284V4.12767V4.18151L15.6909 4.20843L13.7227 5.33007L13.5867 5.41082V5.25828ZM2.4489 20.7727L10.6934 16.699L10.8204 16.6362V16.7797V20.8535V20.9432H10.7297H2.49425H2.10425L2.4489 20.7727ZM10.7388 26.7757H2.87519H2.78449V26.686V21.8226V21.7329H2.87519H10.7297H10.8204V21.8226V26.686V26.7757H10.7388ZM10.8294 27.5743V27.6641V32.0429V32.1327H10.7388H8.77059H8.67989V32.0429V27.6641V27.5743H8.77059H10.7388H10.8294ZM7.88175 27.5743V27.6641V32.0429V32.1327H7.79105H5.82289H5.73219V32.0429V27.6641V27.5743H5.82289H7.79105H7.88175ZM4.93404 27.5743V27.6641V32.0429V32.1327H4.84334H2.87519H2.78449V32.0429V27.6641V27.5743H2.87519H4.84334H4.93404ZM20.1533 31.0649V33.9811V35.0399H20.0626H17.6046H17.5139V33.9811V31.0649V30.9751H17.6046H20.0626H20.1533V31.0649ZM20.1533 27.1705V30.0868V30.1765H20.0626H17.6046H17.5139V30.0868V27.1705V27.0808H17.6046H20.0626H20.1533V27.1705ZM20.1533 23.2852V26.2015V26.2912H20.0626H17.6046H17.5139V26.2015V23.2852V23.1955H17.6046H20.0626H20.1533V23.2852ZM23.5907 31.0649V33.9811V35.0399H23.5H21.0421H20.9514V33.9811V31.0649V30.9751H21.0421H23.5H23.5907V31.0649ZM23.5907 27.1705V30.0868V30.1765H23.5H21.0421H20.9514V30.0868V27.1705V27.0808H21.0421H23.5H23.5907V27.1705ZM23.5907 23.2852V26.2015V26.2912H23.5H21.0421H20.9514V26.2015V23.2852V23.1955H21.0421H23.5H23.5907V23.2852ZM43.6442 32.9223H43.7349V33.012V34.9592V35.0489H43.6442H24.4887H24.398V34.9592V22.8007C24.398 22.5943 24.2075 22.4058 23.9989 22.4058H17.0332C16.87 22.4417 16.7249 22.6212 16.7249 22.8007V34.9502V35.0399H16.6342H1.89564H1.80494V34.9502V33.003V32.9133H1.89564H11.2285C11.4371 32.9133 11.6276 32.7249 11.6276 32.5185V7.5195V7.46566L11.6729 7.43874L20.5161 2.36895L20.5614 2.34203L20.6068 2.36895L29.4499 7.43874L29.4952 7.46566V7.5195V24.1915V32.5275C29.4952 32.7339 29.6857 32.9223 29.8943 32.9223H43.6442ZM44.9593 19.4896H30.3841H30.2934V19.3999V14.0519V13.9622H30.3841H36.6423H36.6695L36.6876 13.9801L45.0047 19.3281L45.2586 19.4896H44.9593Z" fill="#464860"/>
<path d="M22.5384 8.52443C22.4749 8.47059 22.4024 8.42572 22.3389 8.38086C22.4024 8.42572 22.4749 8.47059 22.5384 8.52443C22.8377 8.7667 23.0735 9.04487 23.2459 9.33201C23.0735 9.04487 22.8377 8.7667 22.5384 8.52443Z" fill="#464860"/>
<path d="M24.3345 22.4597C24.4252 22.5494 24.4796 22.6751 24.4796 22.8007C24.4887 22.6751 24.4252 22.5494 24.3345 22.4597Z" fill="#464860"/>
<path d="M20.0623 7.80664C19.8265 7.86048 19.5816 7.95021 19.3276 8.07583C19.5816 7.95021 19.8355 7.86048 20.0623 7.80664Z" fill="#464860"/>
<path d="M40.1067 22.8904H39.3086V28.5434H40.1067V22.8904Z" fill="#464860"/>
<path d="M37.159 22.8904H36.3608V28.5434H37.159V22.8904Z" fill="#464860"/>
<path d="M34.2205 22.8904H33.4224V28.5434H34.2205V22.8904Z" fill="#464860"/>
<path d="M0.108887 21.7239C0.127026 21.7418 0.145166 21.7418 0.163306 21.7598C0.154236 21.7418 0.127026 21.7328 0.108887 21.7239Z" fill="#464860"/>
<path d="M13.0151 0C12.9788 0.00897308 12.9335 0.00897308 12.9062 0.0269192C12.9335 0.00897308 12.9788 0.00897308 13.0151 0Z" fill="#464860"/>
<path d="M20.3164 1.47162C20.3618 1.45368 20.398 1.43573 20.4434 1.42676C20.398 1.43573 20.3618 1.45368 20.3164 1.47162Z" fill="#464860"/>
<path d="M20.7607 1.45374C20.6972 1.41785 20.6428 1.3999 20.5884 1.3999C20.6428 1.40888 20.6972 1.41785 20.7607 1.45374Z" fill="#464860"/>
<path d="M44.1338 32.0339C44.3243 32.0339 44.5057 32.1685 44.5873 32.339C44.5057 32.1685 44.3243 32.0339 44.1338 32.0339Z" fill="#464860"/>
<path d="M20.5523 1.3999C20.5251 1.3999 20.4979 1.40888 20.4707 1.41785C20.4979 1.40888 20.5251 1.3999 20.5523 1.3999Z" fill="#464860"/>
<path d="M0.253906 21.7957C0.272046 21.8046 0.299256 21.8046 0.326465 21.8046C0.299256 21.8046 0.281116 21.8046 0.253906 21.7957Z" fill="#464860"/>
<path d="M0.0362794 21.643C0.0272096 21.6251 0.00906986 21.6161 0 21.5981C0.00906986 21.6161 0.0272096 21.6251 0.0362794 21.643Z" fill="#464860"/>
<path d="M46.9639 20.1995C46.9731 20.1903 46.9917 20.181 47.0009 20.1626C46.9917 20.181 46.9731 20.1903 46.9639 20.1995Z" fill="#464860"/>
<path d="M12.7612 0.197393C12.7703 0.179447 12.7975 0.161501 12.8066 0.143555C12.7884 0.161501 12.7703 0.179447 12.7612 0.197393Z" fill="#464860"/>
<path d="M12.7165 0.349854C12.7165 0.359325 12.707 0.359325 12.707 0.368797C12.707 0.359325 12.707 0.349854 12.7165 0.349854Z" fill="#464860"/>
</svg>
