<svg width="41" height="40" viewBox="0 0 41 40" fill="none" xmlns="http://www.w3.org/2000/svg">
<path d="M10.731 26.7487L14.3938 23.0784C14.6444 23.3511 14.9466 23.5722 15.293 23.727C15.6615 23.8891 16.0447 23.9702 16.4353 23.9702C16.7744 23.9702 17.1134 23.9112 17.4377 23.7859C18.1378 23.5206 18.6906 22.99 18.9927 22.3119C19.4792 21.2138 19.1991 19.9314 18.3368 19.1281L26.7976 10.6526L27.8146 13.0699C27.4756 13.2173 27.1587 13.4237 26.8934 13.7038C25.8321 14.8166 25.8689 16.5854 26.9744 17.6467C27.5051 18.1553 28.2052 18.4206 28.9054 18.4206C29.2665 18.4206 29.6276 18.3395 29.9667 18.1995L31.4112 21.6265C31.0648 21.7739 30.7553 21.9803 30.4899 22.2603C29.4434 23.3658 29.4802 25.1346 30.5857 26.1959C31.1164 26.7045 31.8165 26.9624 32.5093 26.9624C32.8704 26.9624 33.2316 26.8813 33.578 26.7413L38.5527 38.5554L35.9511 37.4499C36.1059 37.1035 36.1869 36.7277 36.1869 36.3444C36.1869 34.8336 34.9635 33.6028 33.4527 33.6028C32.3251 33.6028 31.3301 34.2956 30.9174 35.3126L19.3391 30.3968C19.4718 30.0725 19.5455 29.7335 19.5455 29.3724C19.5455 27.9058 18.3515 26.7118 16.8923 26.7118C15.8163 26.7118 14.8729 27.3678 14.4602 28.3259L10.731 26.7487Z" fill="white"/>
<path d="M12.3672 26.3949L16.0301 22.7247C16.2807 22.9973 16.5828 23.2184 16.9292 23.3732C17.2977 23.5354 17.681 23.6164 18.0716 23.6164C18.4106 23.6164 18.7496 23.5575 19.0739 23.4322C19.774 23.1669 20.3268 22.6362 20.629 21.9582C21.1154 20.86 20.8353 19.5777 19.973 18.7743L28.4338 10.2988L29.4509 12.7162C29.1118 12.8636 28.7949 13.0699 28.5296 13.35C27.4683 14.4629 27.5052 16.2317 28.6107 17.293C29.1413 17.8015 29.8415 18.0668 30.5416 18.0668C30.9027 18.0668 31.2639 17.9857 31.6029 17.8457L33.0474 21.2728C32.701 21.4202 32.3915 21.6265 32.1262 21.9066C31.0649 23.0195 31.1017 24.7883 32.2072 25.8495C32.7379 26.3581 33.438 26.616 34.1308 26.616C34.4919 26.616 34.8531 26.5349 35.1995 26.3949L40.1742 38.209L37.5873 37.1035C37.7421 36.7571 37.8232 36.3813 37.8232 35.998C37.8232 34.4872 36.5998 33.2564 35.0889 33.2564C33.9613 33.2564 32.9663 33.9492 32.5536 34.9662L20.9754 30.0504C21.108 29.7262 21.1817 29.3871 21.1817 29.026C21.1817 27.5594 19.9878 26.3654 18.5285 26.3654C17.4525 26.3654 16.5091 27.0214 16.0964 27.9795L12.3672 26.3949Z" fill="#CCB8F4"/>
<path d="M28.1167 30.5076C28.1167 29.6158 28.839 28.8936 29.7234 28.8936C30.6078 28.8936 31.33 29.6158 31.33 30.5076C31.33 31.3994 30.6078 32.1216 29.7234 32.1216C28.839 32.1216 28.1167 31.3994 28.1167 30.5076Z" fill="white"/>
<path d="M22.4346 27.2205C22.4346 26.3287 23.1568 25.6064 24.0412 25.6064C24.9256 25.6064 25.6479 26.3287 25.6479 27.2205C25.6479 28.1122 24.9256 28.8345 24.0412 28.8345C23.1568 28.8345 22.4346 28.1122 22.4346 27.2205Z" fill="white"/>
<path d="M22.0659 20.5728C22.0659 19.681 22.7882 18.9587 23.6726 18.9587C24.557 18.9587 25.2792 19.681 25.2792 20.5728C25.2792 21.4645 24.557 22.1868 23.6726 22.1868C22.7882 22.1868 22.0659 21.4645 22.0659 20.5728Z" fill="white"/>
<path d="M18.0938 21.8993C17.8948 22.3415 17.541 22.6731 17.0915 22.85C16.6419 23.0195 16.1481 23.0122 15.7059 22.8132C15.4774 22.71 15.2711 22.5626 15.1016 22.3783L17.6442 19.8357C18.2191 20.3442 18.4107 21.177 18.0938 21.8993Z" fill="white"/>
<path d="M29.5983 17.2709C28.9571 17.5362 28.2054 17.4109 27.6821 16.9171C26.9672 16.2391 26.9451 15.1041 27.6305 14.3892C27.8001 14.2124 27.999 14.0797 28.2128 13.9839L29.5983 17.2709Z" fill="white"/>
<path d="M33.195 25.8275C32.5538 26.0929 31.7947 25.9676 31.2788 25.4738C30.5639 24.7957 30.5418 23.6608 31.2272 22.9459C31.3967 22.769 31.5957 22.6363 31.8095 22.5405L33.195 25.8275Z" fill="white"/>
<path d="M31.8389 35.7107C32.0968 35.0548 32.7306 34.6125 33.4529 34.6125C34.411 34.6125 35.1848 35.3938 35.1848 36.3519C35.1848 36.6025 35.1333 36.8457 35.0301 37.0668L31.8389 35.7107Z" fill="white"/>
<path d="M15.374 28.724C15.632 28.127 16.2216 27.7217 16.8922 27.7217C17.8061 27.7217 18.5505 28.4661 18.5505 29.3799C18.5505 29.601 18.5063 29.8148 18.4252 30.0138L15.374 28.724Z" fill="white"/>
<path d="M23.1714 27.9575C23.1714 27.0658 23.8936 26.3435 24.778 26.3435C25.6624 26.3435 26.3847 27.0658 26.3847 27.9575C26.3847 28.8493 25.6624 29.5716 24.778 29.5716C23.8936 29.5716 23.1714 28.8493 23.1714 27.9575Z" fill="#A3EFE0"/>
<path d="M18.8311 22.6364C18.6321 23.0786 18.2783 23.4102 17.8288 23.5871C17.3792 23.7566 16.8854 23.7492 16.4432 23.5502C16.2147 23.4471 16.0084 23.2997 15.8389 23.1154L18.3815 20.5728C18.9564 21.0813 19.148 21.9141 18.8311 22.6364Z" fill="#A3EFE0"/>
<path d="M30.3351 18.008C29.694 18.2733 28.9422 18.148 28.4189 17.6542C27.7041 16.9762 27.6819 15.8412 28.3674 15.1263C28.5369 14.9494 28.7359 14.8168 28.9496 14.7209L30.3351 18.008Z" fill="#A3EFE0"/>
<path d="M33.9318 26.5646C33.2906 26.8299 32.5315 26.7046 32.0156 26.2109C31.3007 25.5328 31.2786 24.3978 31.964 23.6829C32.1335 23.5061 32.3325 23.3734 32.5463 23.2776L33.9318 26.5646Z" fill="#A3EFE0"/>
<path d="M16.1113 29.4611C16.3693 28.8641 16.9589 28.4587 17.6295 28.4587C18.5434 28.4587 19.2878 29.2031 19.2878 30.117C19.2878 30.3381 19.2436 30.5518 19.1625 30.7508L16.1113 29.4611Z" fill="#A3EFE0"/>
<path d="M5.56487 16.7847C6.5156 16.7847 7.28208 17.5511 7.28208 18.5019C7.28208 19.4452 6.50823 20.2191 5.56487 20.2191C4.61414 20.2191 3.84766 19.4526 3.84766 18.5019C3.84766 17.5511 4.62151 16.7847 5.56487 16.7847Z" fill="white"/>
<path d="M20.4666 5.57488C20.4666 6.51824 19.6928 7.29209 18.7494 7.29209C17.7987 7.29209 17.0322 6.52561 17.0322 5.57488C17.0322 4.62415 17.8061 3.85767 18.7494 3.85767C19.6928 3.85767 20.4666 4.62415 20.4666 5.57488Z" fill="white"/>
<path d="M34.6096 2.71532L33.8284 4.19669C33.7621 4.32935 33.7547 4.48412 33.8063 4.62415L34.4475 6.17185L32.7966 5.89179C32.7671 5.88442 32.7377 5.88442 32.7155 5.88442C32.5976 5.88442 32.4797 5.92864 32.3913 6.00234L31.1163 7.08573L30.8804 5.42748C30.8583 5.28008 30.7699 5.14742 30.6446 5.07372L29.2222 4.19669L30.7256 3.45969C30.8583 3.39336 30.9541 3.27544 30.991 3.12804L31.3816 1.49927L32.546 2.70058C32.6492 2.80376 32.7892 2.86272 32.944 2.84798L34.6096 2.71532Z" fill="white"/>
<path d="M1.5332 30.4337L3.03668 29.6967C3.16934 29.6304 3.26515 29.5125 3.302 29.3651L3.69261 27.7363L4.85707 28.9376C4.96025 29.0408 5.10766 29.0998 5.25505 29.085L6.92068 28.9524L6.13946 30.4337C6.07313 30.5664 6.06576 30.7212 6.11735 30.8612L6.75854 32.4089L5.10765 32.1288C5.07817 32.1215 5.04869 32.1215 5.02658 32.1215C4.90866 32.1215 4.79074 32.1657 4.7023 32.2394L3.43466 33.3154L3.19145 31.6572C3.16934 31.5098 3.0809 31.3771 2.95561 31.3034L1.5332 30.4337Z" fill="white"/>
<path d="M10.1345 6.69498L8.21827 7.80785C8.09298 7.88155 8.00454 8.00684 7.97506 8.15424L7.60656 10.3358L5.95568 8.86176C5.84513 8.76595 5.69773 8.72173 5.55033 8.73647L3.36144 9.06812L4.25321 7.04137C4.31217 6.90871 4.31217 6.74657 4.24584 6.61391L3.26562 4.63875L5.46926 4.85985C5.61666 4.87459 5.76406 4.823 5.86724 4.71982L7.44442 3.17212L7.90873 5.3389C7.93821 5.4863 8.03402 5.61159 8.16668 5.67792L10.1345 6.69498Z" fill="white"/>
<path d="M4.82805 16.0476C5.77878 16.0476 6.54526 16.8141 6.54526 17.7648C6.54526 18.7082 5.77141 19.482 4.82805 19.482C3.87732 19.482 3.11084 18.7155 3.11084 17.7648C3.11084 16.8141 3.88469 16.0476 4.82805 16.0476Z" fill="#A3EFE0"/>
<path d="M19.7298 4.83782C19.7298 5.78118 18.956 6.55503 18.0126 6.55503C17.0619 6.55503 16.2954 5.78855 16.2954 4.83782C16.2954 3.88709 17.0693 3.12061 18.0126 3.12061C18.956 3.12061 19.7298 3.88709 19.7298 4.83782Z" fill="#A3EFE0"/>
<path d="M33.8728 1.97826L33.0916 3.45963C33.0253 3.59229 33.0179 3.74706 33.0695 3.88709L33.7107 5.43479L32.0598 5.15473C32.0303 5.14736 32.0008 5.14736 31.9787 5.14736C31.8608 5.14736 31.7429 5.19158 31.6545 5.26528L30.3794 6.34867L30.1436 4.69042C30.1215 4.54302 30.0331 4.41036 29.9078 4.33666L28.4854 3.45963L29.9888 2.72263C30.1215 2.6563 30.2173 2.53838 30.2542 2.39098L30.6448 0.762207L31.8092 1.96352C31.9124 2.0667 32.0524 2.12566 32.2072 2.11092L33.8728 1.97826Z" fill="#A3EFE0"/>
<path d="M0.796387 29.6967L2.29987 28.9597C2.43253 28.8934 2.52834 28.7754 2.56519 28.628L2.9558 26.9993L4.12026 28.2006C4.22344 28.3038 4.37084 28.3627 4.51824 28.348L6.18386 28.2153L5.40264 29.6967C5.33631 29.8293 5.32894 29.9841 5.38053 30.1241L6.02172 31.6718L4.37084 31.3918C4.34136 31.3844 4.31188 31.3844 4.28977 31.3844C4.17185 31.3844 4.05393 31.4286 3.96549 31.5023L2.69785 32.5784L2.45464 30.9201C2.43253 30.7727 2.34409 30.64 2.2188 30.5663L0.796387 29.6967Z" fill="#A3EFE0"/>
<path d="M9.39716 5.95816L7.48096 7.07103C7.35567 7.14473 7.26723 7.27003 7.23775 7.41743L6.86925 9.59895L5.21837 8.12495C5.10782 8.02914 4.96042 7.98492 4.81302 7.99966L2.62413 8.33131L3.5159 6.30455C3.57486 6.17189 3.57486 6.00975 3.50853 5.87709L2.52832 3.90193L4.73195 4.12303C4.87935 4.13777 5.02675 4.08618 5.12993 3.983L6.70711 2.4353L7.17142 4.60208C7.2009 4.74948 7.29671 4.87477 7.42937 4.9411L9.39716 5.95816Z" fill="#A3EFE0"/>
<path d="M27.1147 30.5075C27.1147 31.952 28.2866 33.1238 29.7237 33.1238C31.1609 33.1238 32.3327 31.952 32.3327 30.5075C32.3327 29.0629 31.1609 27.8911 29.7237 27.8911C28.2866 27.8985 27.1147 29.0703 27.1147 30.5075ZM28.1171 30.5075C28.1171 29.6157 28.8393 28.8934 29.7237 28.8934C30.6081 28.8934 31.3304 29.6157 31.3304 30.5075C31.3304 31.3992 30.6081 32.1215 29.7237 32.1215C28.8393 32.1215 28.1171 31.3992 28.1171 30.5075Z" fill="#464860"/>
<path d="M21.4326 27.2204C21.4326 28.6649 22.6044 29.8367 24.0416 29.8367C25.4787 29.8367 26.6506 28.6649 26.6506 27.2204C26.6506 25.7758 25.4787 24.604 24.0416 24.604C22.6044 24.604 21.4326 25.7758 21.4326 27.2204ZM22.4349 27.2204C22.4349 26.3286 23.1572 25.6063 24.0416 25.6063C24.926 25.6063 25.6483 26.3286 25.6483 27.2204C25.6483 28.1121 24.926 28.8344 24.0416 28.8344C23.1572 28.8344 22.4349 28.1121 22.4349 27.2204Z" fill="#464860"/>
<path d="M21.064 20.5726C21.064 22.0172 22.2358 23.189 23.6729 23.189C25.1101 23.189 26.2819 22.0172 26.2819 20.5726C26.2819 19.1281 25.1101 17.9563 23.6729 17.9563C22.2358 17.9563 21.064 19.1281 21.064 20.5726ZM22.0663 20.5726C22.0663 19.6809 22.7885 18.9586 23.6729 18.9586C24.5573 18.9586 25.2796 19.6809 25.2796 20.5726C25.2796 21.4644 24.5573 22.1867 23.6729 22.1867C22.7885 22.1867 22.0663 21.4644 22.0663 20.5726Z" fill="#464860"/>
<path d="M9.50021 26.5719C9.38229 26.6898 9.3307 26.8593 9.36018 27.0215C9.38966 27.1836 9.50021 27.3236 9.65498 27.3826L39.2898 39.9632C39.3561 39.9927 39.4224 40 39.4814 40C39.614 40 39.7393 39.9484 39.8351 39.8526C39.9825 39.7126 40.0194 39.4915 39.9457 39.3073L27.4462 9.56929C27.3798 9.41452 27.2472 9.30397 27.0777 9.27449C26.9155 9.24501 26.746 9.2966 26.6281 9.41452L9.50021 26.5719ZM18.0936 21.8993C17.8946 22.3415 17.5409 22.6732 17.0913 22.85C16.6417 23.0195 16.148 23.0122 15.7058 22.8132C15.4773 22.71 15.2709 22.5626 15.1014 22.3784L17.6441 19.8357C18.2189 20.3442 18.4105 21.177 18.0936 21.8993ZM29.5982 17.2709C28.957 17.5363 28.2053 17.411 27.682 16.9172C26.9671 16.2391 26.945 15.1042 27.6304 14.3893C27.7999 14.2124 27.9989 14.0797 28.2126 13.9839L29.5982 17.2709ZM33.1948 25.8275C32.5536 26.0928 31.7945 25.9675 31.2786 25.4738C30.5637 24.7957 30.5416 23.6607 31.227 22.9458C31.3965 22.769 31.5955 22.6363 31.8092 22.5405L33.1948 25.8275ZM31.8387 35.7107C32.0966 35.0548 32.7305 34.6126 33.4527 34.6126C34.4108 34.6126 35.1847 35.3938 35.1847 36.3519C35.1847 36.6025 35.1331 36.8457 35.0299 37.0668L31.8387 35.7107ZM15.3741 28.7239C15.6321 28.127 16.2217 27.7216 16.8923 27.7216C17.8062 27.7216 18.5506 28.466 18.5506 29.3799C18.5506 29.601 18.5064 29.8147 18.4253 30.0137L15.3741 28.7239ZM10.731 26.7488L14.3939 23.0785C14.6445 23.3512 14.9466 23.5723 15.293 23.7271C15.6615 23.8892 16.0448 23.9703 16.4354 23.9703C16.7744 23.9703 17.1134 23.9113 17.4377 23.786C18.1379 23.5207 18.6906 22.9901 18.9928 22.312C19.4792 21.2139 19.1991 19.9315 18.3368 19.1282L26.7976 10.6527L27.8147 13.07C27.4757 13.2174 27.1587 13.4238 26.8934 13.7039C25.8321 14.8167 25.869 16.5855 26.9745 17.6468C27.5051 18.1553 28.2053 18.4207 28.9054 18.4207C29.2666 18.4207 29.6277 18.3396 29.9667 18.1996L31.4112 21.6266C31.0648 21.774 30.7553 21.9804 30.49 22.2604C29.4434 23.3659 29.4803 25.1347 30.5858 26.196C31.1164 26.7045 31.8166 26.9625 32.5094 26.9625C32.8705 26.9625 33.2316 26.8814 33.578 26.7414L38.5528 38.5555L35.9512 37.45C36.1059 37.1036 36.187 36.7278 36.187 36.3445C36.187 34.8337 34.9636 33.6029 33.4527 33.6029C32.3251 33.6029 31.3302 34.2957 30.9174 35.3127L19.3392 30.3969C19.4718 30.0726 19.5455 29.7336 19.5455 29.3725C19.5455 27.9059 18.3516 26.7119 16.8923 26.7119C15.8163 26.7119 14.8729 27.3678 14.4602 28.3259L10.731 26.7488Z" fill="#464860"/>
<path d="M16.9737 13.2174C17.1359 13.4385 17.0843 13.7554 16.8632 13.9176C16.7747 13.9839 16.6716 14.0134 16.5684 14.0134C16.4136 14.0134 16.2662 13.9397 16.163 13.807C16.0083 13.5933 12.3085 8.43427 13.3256 0.437821C13.3624 0.165131 13.613 -0.0264891 13.8857 0.00299086C14.1584 0.0398409 14.35 0.290421 14.3205 0.563111C13.3624 8.15421 16.9369 13.1732 16.9737 13.2174Z" fill="#464860"/>
<path d="M13.9668 16.239C14.1805 16.4086 14.2174 16.7255 14.0478 16.9392C13.952 17.0645 13.8046 17.1308 13.6572 17.1308C13.5467 17.1308 13.4361 17.094 13.3477 17.0203C13.2887 16.976 7.68753 12.5983 0.715506 15.3841C0.457556 15.4799 0.162755 15.3546 0.0595754 15.1041C-0.0436047 14.8461 0.0816854 14.5587 0.339636 14.4555C7.84967 11.4559 13.7236 16.0401 13.9668 16.239Z" fill="#464860"/>
<path d="M23.7909 9.65763C23.8499 9.93032 23.6878 10.1956 23.4151 10.2546C23.3782 10.262 23.3414 10.2693 23.3045 10.2693C23.076 10.2693 22.8697 10.1146 22.8181 9.87873C22.7739 9.67237 21.6905 4.77132 25.0365 1.8012C25.2428 1.61695 25.5597 1.63906 25.744 1.84542C25.9282 2.05178 25.9061 2.36869 25.6998 2.55294C22.796 5.11771 23.7836 9.61341 23.7909 9.65763Z" fill="#464860"/>
<path d="M0.921688 25.6506C0.825878 25.7906 0.671108 25.8643 0.516338 25.8643C0.413158 25.8643 0.317348 25.8348 0.228908 25.7685C0.000437655 25.6137 -0.0585224 25.2968 0.103618 25.0757C2.88948 21.1475 8.85918 22.9237 9.10976 23.0047C9.37508 23.0858 9.52248 23.3659 9.44141 23.6312C9.36034 23.8965 9.08028 24.0439 8.81496 23.9628C8.76337 23.9407 3.29483 22.312 0.921688 25.6506Z" fill="#464860"/>
<path d="M5.56475 15.7822C4.06864 15.7822 2.84521 16.9983 2.84521 18.4944C2.84521 19.9905 4.06127 21.2065 5.56475 21.2065C7.06086 21.2065 8.28428 19.9905 8.28428 18.4944C8.28428 16.9983 7.06823 15.7822 5.56475 15.7822ZM5.56475 16.7845C6.51548 16.7845 7.28196 17.551 7.28196 18.5018C7.28196 19.4451 6.50811 20.219 5.56475 20.219C4.61402 20.219 3.84754 19.4525 3.84754 18.5018C3.84754 17.551 4.62139 16.7845 5.56475 16.7845Z" fill="#464860"/>
<path d="M21.4693 5.57471C21.4693 4.0786 20.2533 2.86255 18.7498 2.86255C17.2537 2.86255 16.0303 4.0786 16.0303 5.57471C16.0303 7.07082 17.2463 8.29424 18.7498 8.29424C20.2459 8.28687 21.4693 7.07082 21.4693 5.57471ZM20.467 5.57471C20.467 6.51807 19.6932 7.29192 18.7498 7.29192C17.7991 7.29192 17.0326 6.52544 17.0326 5.57471C17.0326 4.62398 17.8064 3.8575 18.7498 3.8575C19.6932 3.8575 20.467 4.62398 20.467 5.57471Z" fill="#464860"/>
<path d="M35.9217 2.38348C36.0101 2.22134 35.9954 2.02972 35.8996 1.87495C35.7964 1.72018 35.6269 1.63911 35.4426 1.65385L33.1063 1.8381L31.4702 0.157738C31.3449 0.0250775 31.1533 -0.0265125 30.9764 0.0250775C30.7995 0.0692975 30.6669 0.216698 30.6227 0.393578L30.0699 2.66354L27.9695 3.70271C27.8073 3.78378 27.6968 3.94592 27.6894 4.13017C27.682 4.31442 27.7705 4.48393 27.9252 4.57974L29.9225 5.80316L30.2615 8.12471C30.291 8.30159 30.4089 8.45636 30.5784 8.52269C30.6374 8.5448 30.6964 8.55217 30.7553 8.55217C30.8732 8.55217 30.9912 8.50795 31.0796 8.43425L32.8631 6.90866L35.1773 7.30664C35.3616 7.33612 35.5384 7.26979 35.649 7.12239C35.7595 6.98236 35.789 6.79074 35.7227 6.62123L34.8236 4.45445L35.9217 2.38348ZM34.6098 2.71513L33.8286 4.1965C33.7623 4.32916 33.7549 4.48393 33.8065 4.62396L34.4477 6.17166L32.7968 5.8916C32.7673 5.88423 32.7378 5.88423 32.7157 5.88423C32.5978 5.88423 32.4799 5.92845 32.3915 6.00215L31.1164 7.08554L30.8806 5.42729C30.8585 5.27989 30.7701 5.14723 30.6448 5.07353L29.2224 4.1965L30.7258 3.4595C30.8585 3.39317 30.9543 3.27525 30.9912 3.12785L31.3818 1.49908L32.5462 2.70039C32.6494 2.80357 32.7894 2.86253 32.9442 2.84779L34.6098 2.71513Z" fill="#464860"/>
<path d="M0.000426885 30.3601C-0.00694312 30.5444 0.0814969 30.7139 0.236267 30.8097L2.23354 32.0331L2.57256 34.3547C2.60204 34.5316 2.71996 34.6863 2.88947 34.7527C2.94843 34.7748 3.00739 34.7822 3.06635 34.7822C3.18427 34.7822 3.30219 34.7379 3.39063 34.6642L5.17417 33.1386L7.48835 33.5366C7.6726 33.5661 7.84948 33.4998 7.96003 33.3524C8.07058 33.2123 8.10006 33.0207 8.03373 32.8512L7.13459 30.6844L8.22535 28.6135C8.31379 28.4513 8.29905 28.2597 8.20324 28.1049C8.10006 27.9502 7.93055 27.8691 7.7463 27.8838L5.41001 28.0681L3.77387 26.3877C3.64858 26.2551 3.45696 26.2035 3.28008 26.2551C3.1032 26.2993 2.97054 26.4467 2.92632 26.6236L2.38094 28.9009L0.280487 29.9401C0.118347 30.0138 0.00779689 30.1759 0.000426885 30.3601ZM1.53339 30.4339L3.03687 29.6969C3.16953 29.6305 3.26534 29.5126 3.30219 29.3652L3.6928 27.7364L4.85726 28.9377C4.96044 29.0409 5.10784 29.0999 5.25524 29.0851L6.92086 28.9525L6.13964 30.4339C6.07331 30.5665 6.06594 30.7213 6.11753 30.8613L6.75872 32.409L5.10784 32.129C5.07836 32.1216 5.04888 32.1216 5.02677 32.1216C4.90885 32.1216 4.79093 32.1658 4.70249 32.2395L3.43485 33.3155L3.19164 31.6573C3.16953 31.5099 3.08109 31.3772 2.9558 31.3035L1.53339 30.4339Z" fill="#464860"/>
<path d="M11.667 6.65804C11.6596 6.47379 11.5565 6.31165 11.4017 6.22321L8.8443 4.88924L8.23258 2.06653C8.19573 1.88965 8.06308 1.74225 7.88619 1.69066C7.70931 1.63907 7.52506 1.68329 7.3924 1.81595L5.3288 3.83533L2.4545 3.54053C2.27762 3.53316 2.10074 3.61423 1.99756 3.76163C1.89438 3.90903 1.87964 4.10802 1.96071 4.27016L3.24309 6.85703L2.07863 9.49549C2.00493 9.665 2.02704 9.85662 2.13759 10.004C2.24814 10.1514 2.42502 10.2178 2.60927 10.1956L5.46146 9.76818L7.6135 11.6918C7.70931 11.7728 7.82723 11.817 7.94515 11.817C8.00411 11.817 8.05571 11.8097 8.1073 11.7876C8.2768 11.7286 8.40209 11.5812 8.43157 11.397L8.91063 8.55213L11.4017 7.10024C11.5786 7.0118 11.6744 6.84229 11.667 6.65804ZM10.134 6.69489L8.21784 7.80776C8.09255 7.88146 8.00411 8.00675 7.97463 8.15415L7.60613 10.3357L5.95525 8.86167C5.8447 8.76586 5.6973 8.72164 5.5499 8.73638L3.36101 9.06803L4.25278 7.04128C4.31174 6.90862 4.31174 6.74648 4.24541 6.61382L3.2652 4.63866L5.46883 4.85976C5.61623 4.8745 5.76363 4.82291 5.86681 4.71973L7.44399 3.17203L7.9083 5.33881C7.93778 5.48621 8.0336 5.6115 8.16625 5.67783L10.134 6.69489Z" fill="#464860"/>
</svg>
