<svg width="24" height="38" viewBox="0 0 24 38" fill="none" xmlns="http://www.w3.org/2000/svg">
<path d="M5.89963 0.490723C6.57964 0.490723 7.19274 0.643176 7.75395 0.92278C8.31516 1.20238 8.82448 1.61104 9.26416 2.11647C9.70385 2.62191 10.0773 3.22477 10.3634 3.88646C10.6494 4.54751 10.8467 5.27119 10.9519 6.00626C11.057 6.74133 11.07 7.49474 10.9744 8.21842C10.8788 8.9421 10.6836 9.63542 10.375 10.2661C10.0664 10.8968 9.64035 11.456 9.10918 11.9229C8.8436 12.1563 8.55821 12.3688 8.23186 12.5504C7.90552 12.7319 7.54776 12.8913 7.15451 13.0134C6.95446 13.0761 6.81996 13.25 6.82133 13.4455L6.88824 15.9354L6.95515 18.4252L7.02205 20.9151L7.09989 23.3948L7.16679 25.8847L7.2337 28.3746L7.30061 30.8543L7.37844 33.3442C7.40439 34.2633 7.25419 34.968 7.00089 35.3919C6.74759 35.8157 6.4547 35.9992 5.90168 35.9992C5.34867 35.9992 5.05577 35.8163 4.80248 35.3919C4.54918 34.968 4.41058 34.2633 4.43585 33.3442L4.50275 30.8543L4.56966 28.3746L4.63316 25.8847L4.71099 23.3948L4.7779 20.9151L4.8448 18.4252L4.92264 15.9354L4.98955 13.4455C4.99091 13.25 4.85641 13.0754 4.65637 13.0134C4.2638 12.8913 3.90536 12.7319 3.57901 12.5504C3.25266 12.3688 2.95635 12.1563 2.69077 11.9229C2.15892 11.456 1.74449 10.8968 1.4359 10.2661C1.1273 9.63542 0.921114 8.9421 0.824848 8.21842C0.729265 7.49474 0.742237 6.74133 0.847378 6.00626C0.95252 5.27119 1.14983 4.54814 1.4359 3.88646C1.72196 3.2254 2.09542 2.62191 2.5351 2.11647C2.97479 1.61104 3.48343 1.20302 4.04532 0.92278C4.60721 0.642544 5.21963 0.490723 5.89963 0.490723Z" fill="white"/>
<path d="M6.83372 1.42505C7.51372 1.42505 8.12682 1.58151 8.68803 1.86848C9.24992 2.15544 9.75856 2.57484 10.1982 3.09358C10.6379 3.61232 11.0114 4.23104 11.2975 4.91014C11.5835 5.58859 11.7808 6.33132 11.886 7.08573C11.9911 7.84014 12.0041 8.61338 11.9085 9.35611C11.8129 10.0988 11.6177 10.8104 11.3091 11.4577C11.0005 12.105 10.5744 12.6789 10.0433 13.158C9.77768 13.3976 9.4923 13.6157 9.16595 13.8021C8.8396 13.9884 8.48184 14.152 8.08859 14.2773C7.88855 14.3416 7.75405 14.5201 7.75541 14.7207L7.82232 17.2761L7.88923 19.8315L7.95614 22.3869L8.03397 24.9319L8.10088 27.4873L8.16778 30.0427L8.23469 32.5877L8.31253 35.1431C8.33847 36.0864 8.18827 36.8097 7.93497 37.2447C7.68168 37.6796 7.38878 37.8679 6.83576 37.8679C6.28275 37.8679 5.98985 37.6803 5.73656 37.2447C5.48326 36.8097 5.34467 36.0864 5.36993 35.1431L5.43684 32.5877L5.50374 30.0427L5.56724 27.4873L5.64507 24.9319L5.71198 22.3869L5.77889 19.8315L5.85672 17.2761L5.92363 14.7207C5.92499 14.5201 5.79049 14.3409 5.59045 14.2773C5.19788 14.152 4.83944 13.9884 4.51309 13.8021C4.18674 13.6157 3.89044 13.3976 3.62485 13.158C3.093 12.6789 2.67858 12.105 2.36998 11.4577C2.06138 10.8104 1.8552 10.0988 1.75893 9.35611C1.66335 8.61338 1.67632 7.84014 1.78146 7.08573C1.8866 6.33132 2.08391 5.58924 2.36998 4.91014C2.65605 4.23169 3.0295 3.61232 3.46919 3.09358C3.90887 2.57484 4.41751 2.15609 4.9794 1.86848C5.54129 1.58087 6.15371 1.42505 6.83372 1.42505Z" fill="#CCB8F4"/>
<path d="M18.5146 1.42505C18.6647 2.21604 18.8228 3.2027 18.9864 4.21358C19.1606 5.28821 19.3329 6.35709 19.4787 7.14744C19.5515 7.54262 19.617 7.87405 19.6794 8.1118C19.7103 8.23099 19.7424 8.32022 19.7899 8.42284C19.8017 8.44833 19.8103 8.47383 19.8301 8.5057C19.84 8.52163 19.8548 8.5382 19.8702 8.55733C19.8857 8.57645 19.9283 8.61724 19.9307 8.61979C19.9332 8.62234 20.0289 8.69117 20.0314 8.69245C20.0339 8.69372 20.2 8.73388 20.2025 8.73388C20.205 8.73388 20.4014 8.71412 20.4032 8.71284C20.4057 8.71221 20.5416 8.6217 20.544 8.61979C20.5453 8.61915 20.6231 8.51781 20.6243 8.51589C20.6256 8.51398 20.6478 8.47829 20.6546 8.46427C20.6675 8.43622 20.6682 8.42029 20.675 8.4018C20.6879 8.36484 20.704 8.32723 20.7151 8.28771C20.7367 8.20868 20.7565 8.10988 20.7855 7.98687C20.8436 7.74084 20.9201 7.40303 21.0066 7.00212C21.1795 6.2003 21.4013 5.14607 21.6292 4.09949C21.7718 3.4449 21.9034 2.90058 22.0411 2.31611C22.0602 2.6246 22.0961 3.01531 22.1115 3.30086C22.1659 4.29071 22.2023 5.14543 22.2221 5.93387C22.2418 6.72231 22.2523 7.44255 22.2523 8.14239C22.2523 8.83841 22.2468 9.51913 22.2424 10.2368C22.2239 10.9685 21.9917 11.465 21.5692 11.8749C21.358 12.0795 21.0937 12.2548 20.7756 12.4141C20.4576 12.5735 20.0864 12.7137 19.6707 12.829C19.4743 12.8813 19.3372 13.0655 19.3391 13.2746L19.4694 18.292L19.5898 23.2993L19.7201 28.3167L19.8505 33.324C19.8739 34.2501 19.7381 34.9601 19.5089 35.3872C19.2798 35.8142 19.0148 35.9991 18.5146 35.9991C18.0143 35.9991 17.7494 35.8149 17.5202 35.3872C17.2911 34.9601 17.1657 34.2501 17.1886 33.324L17.309 28.3167L17.4393 23.2993L17.5598 18.292L17.6901 13.2746C17.6919 13.0649 17.5548 12.8813 17.3584 12.829C16.9428 12.7143 16.5716 12.5735 16.2535 12.4141C15.9355 12.2548 15.6711 12.0801 15.4599 11.8749C15.04 11.467 14.8077 10.9724 14.7867 10.247C14.7824 9.52614 14.7769 8.84223 14.7769 8.14239C14.7769 7.44319 14.7874 6.72295 14.8071 5.93387C14.8269 5.14543 14.8633 4.29007 14.9177 3.30086C14.9282 3.11155 14.9461 2.84704 14.9578 2.64754C15.0665 3.10964 15.1635 3.48825 15.279 3.98476C15.5285 5.05365 15.7829 6.14293 15.9824 6.97025C16.0818 7.38391 16.1671 7.73192 16.2338 7.98623C16.2671 8.11307 16.29 8.21696 16.3141 8.29727C16.3264 8.33743 16.3406 8.36484 16.3542 8.40117C16.361 8.41901 16.3715 8.43686 16.3845 8.46363C16.3907 8.47702 16.4036 8.51335 16.4049 8.51526C16.4061 8.51717 16.4839 8.61788 16.4851 8.61915C16.487 8.62106 16.6235 8.71157 16.626 8.71221C16.6284 8.71285 16.8248 8.73324 16.8267 8.73324C16.8291 8.73324 16.9953 8.69309 16.9978 8.69181C17.0002 8.69054 17.096 8.6217 17.0984 8.61915C17.1009 8.6166 17.1435 8.57581 17.1589 8.55669C17.1744 8.53757 17.1892 8.52099 17.1991 8.50506C17.2195 8.47319 17.2275 8.4477 17.2392 8.4222C17.2868 8.31958 17.3183 8.23035 17.3498 8.11116C17.4122 7.87342 17.4776 7.54262 17.5505 7.1468C17.6963 6.35582 17.8686 5.28757 18.0427 4.21295C18.2064 3.2027 18.3645 2.21604 18.5146 1.42505Z" fill="white"/>
<path d="M19.4487 2.35962C19.5987 3.15061 19.7569 4.13727 19.9205 5.14815C20.0947 6.22278 20.267 7.29166 20.4127 8.08201C20.4856 8.47719 20.5511 8.80862 20.6135 9.04637C20.6443 9.16556 20.6765 9.25479 20.724 9.35741C20.7358 9.3829 20.7444 9.4084 20.7642 9.44027C20.774 9.4562 20.7889 9.47277 20.8043 9.4919C20.8197 9.51102 20.8624 9.55181 20.8648 9.55436C20.8673 9.55691 20.963 9.62574 20.9655 9.62702C20.968 9.62829 21.1341 9.66845 21.1366 9.66845C21.139 9.66845 21.3354 9.64869 21.3373 9.64742C21.3398 9.64678 21.4756 9.55627 21.4781 9.55436C21.4793 9.55372 21.5572 9.45238 21.5584 9.45047C21.5596 9.44855 21.5819 9.41286 21.5887 9.39884C21.6016 9.37079 21.6022 9.35486 21.609 9.33637C21.622 9.29941 21.6381 9.2618 21.6492 9.22228C21.6708 9.14325 21.6906 9.04445 21.7196 8.92144C21.7776 8.67541 21.8542 8.3376 21.9407 7.93669C22.1136 7.13487 22.3353 6.08064 22.5632 5.03406C22.7059 4.37947 22.8375 3.83515 22.9752 3.25068C22.9943 3.55917 23.0301 3.94988 23.0456 4.23543C23.0999 5.22528 23.1364 6.08 23.1561 6.86844C23.1759 7.65688 23.1864 8.37712 23.1864 9.07696C23.1864 9.77298 23.1808 10.4537 23.1765 11.1714C23.158 11.9031 22.9258 12.3996 22.5033 12.8095C22.2921 13.0141 22.0278 13.1893 21.7097 13.3487C21.3916 13.508 21.0205 13.6482 20.6048 13.7636C20.4084 13.8159 20.2713 14.0001 20.2732 14.2091L20.4035 19.2266L20.5239 24.2338L20.6542 29.2513L20.7845 34.2585C20.808 35.1847 20.6721 35.8947 20.443 36.3217C20.2139 36.7488 19.9489 36.9336 19.4487 36.9336C18.9484 36.9336 18.6835 36.7494 18.4543 36.3217C18.2252 35.8947 18.0998 35.1847 18.1227 34.2585L18.2431 29.2513L18.3734 24.2338L18.4939 19.2266L18.6242 14.2091C18.626 13.9994 18.4889 13.8159 18.2925 13.7636C17.8769 13.6489 17.5057 13.508 17.1876 13.3487C16.8696 13.1893 16.6052 13.0147 16.394 12.8095C15.974 12.4015 15.7418 11.9069 15.7208 11.1816C15.7165 10.4607 15.7109 9.7768 15.7109 9.07696C15.7109 8.37776 15.7214 7.65752 15.7412 6.86844C15.761 6.08 15.7974 5.22464 15.8518 4.23543C15.8623 4.04612 15.8802 3.78161 15.8919 3.58211C16.0006 4.04421 16.0976 4.42282 16.213 4.91933C16.4626 5.98822 16.717 7.0775 16.9165 7.90482C17.0159 8.31848 17.1012 8.66649 17.1679 8.9208C17.2012 9.04764 17.2241 9.15154 17.2482 9.23184C17.2605 9.272 17.2747 9.29941 17.2883 9.33574C17.2951 9.35358 17.3056 9.37143 17.3186 9.3982C17.3247 9.41159 17.3377 9.44792 17.3389 9.44983C17.3402 9.45174 17.418 9.55245 17.4192 9.55372C17.4211 9.55563 17.5576 9.64614 17.56 9.64678C17.5625 9.64742 17.7589 9.66781 17.7608 9.66781C17.7632 9.66781 17.9294 9.62766 17.9318 9.62638C17.9343 9.62511 18.03 9.55627 18.0325 9.55372C18.035 9.55117 18.0776 9.51038 18.093 9.49126C18.1085 9.47214 18.1233 9.45556 18.1332 9.43963C18.1536 9.40776 18.1616 9.38227 18.1733 9.35677C18.2209 9.25415 18.2524 9.16492 18.2839 9.04573C18.3462 8.80799 18.4117 8.47719 18.4846 8.08137C18.6303 7.29039 18.8027 6.22214 18.9768 5.14752C19.1405 4.13727 19.2986 3.15061 19.4487 2.35962Z" fill="#A3EFE0"/>
<path d="M18.4364 0.00118504C18.4333 0.00431852 18.4295 0.0080787 18.4264 0.0112122C18.4232 0.0118389 18.2973 0.0506941 18.2941 0.0519475C18.291 0.0532009 18.2265 0.083909 18.2026 0.10271C18.1538 0.140312 18.1243 0.173527 18.1005 0.204862C18.0529 0.266905 18.0322 0.316414 18.009 0.367803C17.962 0.471208 17.9244 0.583387 17.8868 0.714366C17.8116 0.976952 17.7345 1.32414 17.6524 1.734C17.4882 2.55247 17.3096 3.62161 17.1322 4.68011C16.9881 5.54244 16.8502 6.31766 16.7243 7.01455C16.5344 6.24371 16.31 5.32999 16.0819 4.38493C15.8287 3.33333 15.5787 2.30492 15.3888 1.55101C15.2941 1.17436 15.2133 0.862267 15.1544 0.654203C15.1249 0.550172 15.1099 0.480608 15.0829 0.409791C15.0761 0.392244 15.0635 0.37219 15.0522 0.348375C15.0466 0.336468 15.0422 0.325187 15.0316 0.30764C15.0209 0.290092 14.9814 0.227423 14.9808 0.226169C14.9802 0.225543 14.91 0.16538 14.9094 0.164753C14.9094 0.164753 14.888 0.159113 14.8786 0.154726C14.8717 0.150966 14.8649 0.147832 14.8586 0.144699C14.8473 0.139058 14.8504 0.130911 14.8379 0.124018C14.8153 0.111484 14.7909 0.101457 14.7665 0.0933095C14.7665 0.0933095 14.7571 0.0933095 14.7564 0.0933095C14.6831 0.0745086 14.606 0.0745086 14.5321 0.0933095C14.5289 0.0933095 14.512 0.0933095 14.5114 0.0933095C14.5114 0.0933095 14.4945 0.101457 14.4907 0.103337C14.4205 0.128405 14.3572 0.170393 14.3071 0.225543C14.2964 0.238703 14.2858 0.251864 14.2764 0.266278C14.257 0.288212 14.24 0.312027 14.2256 0.337721C14.2018 0.389111 14.188 0.44426 14.1849 0.500663C14.1843 0.51445 14.1843 0.527611 14.1849 0.541398C14.0815 1.80733 14.005 2.90467 13.9505 3.8748C13.8954 4.85621 13.8584 5.70977 13.8383 6.49439C13.8183 7.27902 13.8076 7.99283 13.8076 8.68595C13.8076 9.37908 13.8133 10.0478 13.8176 10.7553C13.8176 10.7584 13.8176 10.7622 13.8176 10.7653C13.8415 11.6853 14.1987 12.4555 14.7859 13.0077C15.0792 13.284 15.4276 13.5021 15.8156 13.6908C16.1013 13.8293 16.4253 13.9352 16.7531 14.0373L16.6309 18.6448L16.5087 23.5681L16.3764 28.4915L16.2442 33.4248C16.2185 34.4275 16.3457 35.2667 16.703 35.9122C17.0602 36.5577 17.7163 36.9725 18.4972 36.9725C19.2774 36.9725 19.9336 36.5577 20.2914 35.9122C20.6486 35.2667 20.7759 34.4282 20.7502 33.4248L20.6179 28.4915L20.4857 23.5681L20.3635 18.6448L20.2413 14.0373C20.5691 13.9352 20.8937 13.8293 21.1788 13.6908C21.5668 13.5027 21.9146 13.284 22.2085 13.0077C22.7957 12.4549 23.1529 11.6853 23.1767 10.7653C23.1767 10.7622 23.1767 10.7584 23.1767 10.7553C23.1811 10.0478 23.1868 9.37908 23.1868 8.68595C23.1868 7.99283 23.1761 7.27902 23.1561 6.49439C23.136 5.70977 23.099 4.85621 23.0439 3.8748C22.9887 2.89339 22.9154 1.78602 22.8095 0.500663C22.7919 0.290719 22.6309 0.120884 22.4222 0.0926828C22.4191 0.0920561 22.2724 0.0920561 22.2693 0.0926828C22.2661 0.0933095 22.1502 0.132165 22.1471 0.133418C22.1439 0.135298 22.0882 0.16726 22.0656 0.184181C22.043 0.201728 22.0199 0.219276 22.0042 0.234943C21.9421 0.297613 21.9196 0.349002 21.892 0.397884C21.8375 0.495649 21.7936 0.59216 21.7491 0.71374C21.6608 0.957525 21.568 1.28341 21.464 1.67196C21.2559 2.44906 21.014 3.48186 20.7809 4.51591C20.5866 5.38013 20.4092 6.1823 20.2507 6.90112C20.1297 6.22366 20.0006 5.49983 19.8634 4.67885C19.686 3.62099 19.5074 2.55184 19.3432 1.73275C19.2611 1.32352 19.1841 0.975699 19.1088 0.713113C19.0712 0.582133 19.0336 0.469954 18.9866 0.366549C18.9635 0.31516 18.9421 0.265651 18.8951 0.203608C18.8713 0.172273 18.8419 0.139685 18.793 0.101457C18.7685 0.0826556 18.7046 0.0519475 18.7015 0.0506941C18.6984 0.0494407 18.5724 0.0105855 18.5693 0.0099588C18.5254 0.00118504 18.4803 -0.00194845 18.4364 0.00118504ZM18.4972 2.08057C18.6495 2.8583 18.8099 3.82842 18.976 4.82236C19.1527 5.87898 19.3276 6.92995 19.4755 7.70705C19.5494 8.0956 19.6158 8.42149 19.6791 8.65524C19.7105 8.77244 19.7431 8.86018 19.7913 8.96107C19.8032 8.98614 19.812 9.01121 19.8321 9.04254C19.8421 9.05821 19.8571 9.0745 19.8728 9.09331C19.8885 9.11211 19.9317 9.15222 19.9342 9.15472C19.9367 9.15723 20.0339 9.22491 20.0364 9.22617C20.0389 9.22742 20.2074 9.2669 20.21 9.2669C20.2125 9.2669 20.4118 9.24747 20.4136 9.24622C20.4161 9.24559 20.554 9.1566 20.5565 9.15472C20.5578 9.1541 20.6367 9.05445 20.638 9.05257C20.6392 9.05069 20.6618 9.0156 20.6687 9.00181C20.6819 8.97423 20.6825 8.95857 20.6894 8.94039C20.7025 8.90404 20.7188 8.86707 20.7301 8.82821C20.752 8.7505 20.7721 8.65336 20.8016 8.53241C20.8605 8.29051 20.9382 7.95836 21.0259 7.56416C21.2014 6.77578 21.4264 5.73922 21.6576 4.71019C21.8024 4.06657 21.9359 3.53137 22.0756 2.95669C22.0951 3.26001 22.1314 3.64417 22.1471 3.92494C22.2022 4.8982 22.2392 5.7386 22.2593 6.51382C22.2793 7.28904 22.29 7.99721 22.29 8.68533C22.29 9.36968 22.2843 10.039 22.2799 10.7447C22.2611 11.4641 22.0255 11.9523 21.5968 12.3553C21.3825 12.5564 21.1143 12.7288 20.7915 12.8854C20.4688 13.0421 20.0921 13.18 19.6704 13.2934C19.4711 13.3448 19.332 13.5259 19.3338 13.7315L19.4661 18.6648L19.5883 23.5882L19.7205 28.5215L19.8527 33.4449C19.8766 34.3555 19.7387 35.0536 19.5062 35.4735C19.2737 35.8934 19.0048 36.0751 18.4972 36.0751C17.9896 36.0751 17.7207 35.894 17.4882 35.4735C17.2557 35.0536 17.1285 34.3555 17.1517 33.4449L17.2739 28.5215L17.4061 23.5882L17.5283 18.6648L17.6606 13.7315C17.6624 13.5253 17.5233 13.3448 17.324 13.2934C16.9022 13.1806 16.5256 13.0421 16.2029 12.8854C15.8801 12.7288 15.6119 12.5571 15.3975 12.3553C14.9714 11.9542 14.7358 11.4679 14.7144 10.7547C14.7101 10.0459 14.7044 9.37344 14.7044 8.68533C14.7044 7.99784 14.7151 7.28967 14.7351 6.51382C14.7552 5.7386 14.7922 4.89757 14.8473 3.92494C14.858 3.73881 14.8761 3.47873 14.888 3.28257C14.9983 3.73693 15.0967 4.10918 15.2139 4.59738C15.4671 5.64835 15.7253 6.71938 15.9277 7.53283C16.0286 7.93956 16.1151 8.28173 16.1828 8.53179C16.2166 8.6565 16.2398 8.75865 16.2643 8.83761C16.2768 8.8771 16.2912 8.90404 16.305 8.93976C16.3119 8.95731 16.3226 8.97486 16.3357 9.00118C16.342 9.01434 16.3551 9.05006 16.3564 9.05194C16.3576 9.05382 16.4366 9.15284 16.4379 9.1541C16.4397 9.15598 16.5782 9.24497 16.5808 9.24559C16.5833 9.24622 16.7825 9.26627 16.7844 9.26627C16.7869 9.26627 16.9555 9.22679 16.958 9.22554C16.9605 9.22429 17.0577 9.1566 17.0602 9.1541C17.0627 9.15159 17.1059 9.11148 17.1216 9.09268C17.1373 9.07388 17.1523 9.05758 17.1623 9.04192C17.183 9.01058 17.1912 8.98551 17.2031 8.96045C17.2513 8.85955 17.2833 8.77181 17.3152 8.65462C17.3785 8.42086 17.445 8.0956 17.5189 7.70642C17.6668 6.92869 17.8417 5.87835 18.0184 4.82174C18.1845 3.82842 18.3449 2.8583 18.4972 2.08057Z" fill="#464860"/>
<path d="M5.61256 0.00146484C4.83922 0.00146484 4.11852 0.199501 3.48242 0.541678C2.84632 0.883854 2.29796 1.36829 1.83044 1.94861C1.36293 2.52893 0.980643 3.20765 0.688603 3.9365C0.396562 4.66534 0.192885 5.43994 0.0869736 6.24023C-0.0189382 7.04053 -0.0308455 7.85837 0.0662926 8.65615C0.164057 9.45394 0.372747 10.2317 0.698003 10.9499C1.02389 11.6681 1.4632 12.3267 2.04352 12.8763C2.33368 13.1514 2.6558 13.4065 3.01177 13.6202C3.27185 13.7763 3.57329 13.8891 3.86784 14.0075L3.80642 16.179L3.745 18.6457L3.68359 21.1024L3.62217 23.569L3.55073 26.0357L3.48931 28.4924L3.43103 30.959L3.36961 33.4257C3.34392 34.4284 3.46048 35.2676 3.81833 35.9131C4.17554 36.5586 4.8317 36.9735 5.61256 36.9735C6.3928 36.9735 7.04895 36.5586 7.40679 35.9131C7.76401 35.2676 7.89123 34.4291 7.86554 33.4257L7.79347 30.959L7.73205 28.4924L7.67063 26.0357L7.60922 23.569L7.53777 21.1024L7.47636 18.6457L7.41494 16.179L7.36418 14.0075C7.6581 13.8897 7.95077 13.7763 8.21022 13.6202C8.56618 13.4065 8.88831 13.1508 9.17847 12.8763C9.75879 12.3261 10.2088 11.6681 10.534 10.9499C10.8599 10.2317 11.0579 9.45394 11.1557 8.65615C11.2535 7.85837 11.2516 7.04053 11.1457 6.24023C11.0398 5.43994 10.8361 4.66534 10.544 3.9365C10.252 3.20765 9.86971 2.52893 9.4022 1.94861C8.93468 1.36829 8.37755 0.884481 7.74082 0.541678C7.1041 0.198874 6.38591 0.00146484 5.61256 0.00146484ZM5.61256 0.898268C6.23675 0.898268 6.79952 1.0493 7.31467 1.3263C7.82981 1.6033 8.29733 2.00815 8.70092 2.50888C9.10452 3.00961 9.44732 3.60685 9.70991 4.26238C9.97249 4.91728 10.1536 5.63422 10.2501 6.36244C10.3466 7.09066 10.3585 7.83706 10.2708 8.554C10.1831 9.27094 10.0038 9.9578 9.72056 10.5826C9.43729 11.2074 9.04623 11.7614 8.55866 12.2239C8.31488 12.4552 8.05292 12.6658 7.75336 12.8456C7.4538 13.0255 7.12541 13.1834 6.76443 13.3044C6.58081 13.3664 6.45735 13.5387 6.4586 13.7324L6.52002 16.1991L6.58143 18.6658L6.64285 21.1324L6.71429 23.5891L6.77571 26.0558L6.83713 28.5224L6.89854 30.9791L6.96999 33.4458C6.9938 34.3564 6.85593 35.0545 6.62342 35.4744C6.39092 35.8943 6.12207 36.076 5.61444 36.076C5.10682 36.076 4.83796 35.8949 4.60546 35.4744C4.37295 35.0545 4.24573 34.3564 4.26892 33.4458L4.33034 30.9791L4.39176 28.5224L4.45004 26.0558L4.52148 23.5891L4.5829 21.1324L4.64431 18.6658L4.71576 16.1991L4.77717 13.7324C4.77843 13.5387 4.65497 13.3658 4.47135 13.3044C4.11099 13.1834 3.78198 13.0255 3.48242 12.8456C3.18286 12.6658 2.91087 12.4552 2.66709 12.2239C2.17889 11.7614 1.79848 11.2074 1.51522 10.5826C1.23195 9.9578 1.04269 9.27094 0.954322 8.554C0.866585 7.83706 0.878492 7.09066 0.975003 6.36244C1.07151 5.63422 1.25263 4.9179 1.51522 4.26238C1.7778 3.60748 2.12061 3.00961 2.5242 2.50888C2.92779 2.00815 3.39468 1.60393 3.91045 1.3263C4.42622 1.04868 4.98837 0.898268 5.61256 0.898268Z" fill="#464860"/>
</svg>
