<svg width="37" height="42" viewBox="0 0 37 42" fill="none" xmlns="http://www.w3.org/2000/svg">
<path d="M28.7099 18.5337H33.5473C31.6247 15.1534 28.3967 12.6093 24.5508 11.5989C26.3344 13.0433 27.8005 15.4932 28.7099 18.5337Z" fill="white"/>
<path d="M29.7124 25.2531H35.436C35.37 23.1949 34.8785 21.2429 34.0429 19.4832H28.9702C29.4161 21.259 29.6773 23.2062 29.7124 25.2531Z" fill="white"/>
<path d="M21.3169 11.1494V18.5337H27.7385C26.4471 14.3514 24.0695 11.4507 21.3169 11.1494Z" fill="white"/>
<path d="M13.9463 18.5337H20.3678V11.1494C17.6152 11.4507 15.2376 14.3514 13.9463 18.5337Z" fill="white"/>
<path d="M12.9209 25.2531H20.3684V19.4832H13.6772C13.2228 21.2429 12.956 23.1949 12.9209 25.2531Z" fill="white"/>
<path d="M24.5498 39.8545C28.0425 38.9367 31.0275 36.7564 32.986 33.8311H28.4161C27.499 36.4516 26.1522 38.5582 24.5498 39.8545Z" fill="white"/>
<path d="M13.9342 32.883H20.3677V26.2017H12.9209C12.963 28.6228 13.3254 30.8958 13.9342 32.883Z" fill="white"/>
<path d="M28.7202 32.883H33.5675C34.6896 30.8965 35.358 28.6228 35.436 26.2017H29.7124C29.671 28.6046 29.3178 30.8712 28.7202 32.883Z" fill="white"/>
<path d="M28.0081 19.4832H21.3169V25.2531H28.7644C28.7278 23.1949 28.461 21.2429 28.0081 19.4832Z" fill="white"/>
<path d="M28.7644 26.2017H21.3169V32.883H27.7504C28.3592 30.8958 28.7215 28.6228 28.7644 26.2017Z" fill="white"/>
<path d="M21.3169 33.8315V40.3044C23.8652 40.0256 26.0939 37.5209 27.4344 33.8315H21.3169Z" fill="white"/>
<path d="M11.9714 26.2017H6.24854C6.32648 28.6228 6.99497 30.8958 8.11707 32.883H12.9643C12.366 30.8712 12.0135 28.6046 11.9714 26.2017Z" fill="white"/>
<path d="M12.7143 19.4832H7.64169C6.80608 21.2429 6.31454 23.1949 6.24854 25.2531H11.9721C12.0072 23.2062 12.2684 21.259 12.7143 19.4832Z" fill="white"/>
<path d="M13.2686 33.8315H8.69873C10.6571 36.7562 13.6429 38.9372 17.1349 39.855C15.5318 38.558 14.185 36.4514 13.2686 33.8315Z" fill="white"/>
<path d="M20.3675 40.3044V33.8315H14.25C15.5912 37.5209 17.8192 40.0256 20.3675 40.3044Z" fill="white"/>
<path d="M17.1347 11.5996C13.2888 12.6094 10.0594 15.1534 8.13818 18.5345H12.9749C13.8842 15.4933 15.3497 13.0433 17.1347 11.5996Z" fill="white"/>
<path d="M29.5888 19.0914H34.4262C32.5036 15.711 29.2756 13.1669 25.4297 12.1565C27.2133 13.6009 28.6794 16.0509 29.5888 19.0914Z" fill="#A3EFE0"/>
<path d="M30.5913 25.81H36.3149C36.2489 23.7518 35.7574 21.7997 34.9218 20.04H29.8491C30.2957 21.8159 30.5562 23.7638 30.5913 25.81Z" fill="#CCB8F4"/>
<path d="M14.8247 19.0913H21.2463V11.707C18.4937 12.0083 16.116 14.9083 14.8247 19.0913Z" fill="#A3EFE0"/>
<path d="M13.7998 25.81H21.2473V20.0408H14.5561C14.1017 21.7998 13.8349 23.7526 13.7998 25.81Z" fill="#CCB8F4"/>
<path d="M29.5996 33.4399H34.4468C35.569 31.4534 36.2374 29.1797 36.3154 26.7585H30.5918C30.5504 29.1622 30.1965 31.4288 29.5996 33.4399Z" fill="#A3EFE0"/>
<path d="M28.887 20.0408H22.1958V25.8107H29.6433C29.6067 23.7526 29.3406 21.7998 28.887 20.0408Z" fill="#A3EFE0"/>
<path d="M29.6433 26.7593H22.1958V33.4406H28.6293C29.2381 31.4534 29.6011 29.1804 29.6433 26.7593Z" fill="#CCB8F4"/>
<path d="M22.1958 34.3892V40.862C24.7441 40.5832 26.9728 38.0785 28.3133 34.3892H22.1958Z" fill="#A3EFE0"/>
<path d="M12.851 26.7593H7.12744C7.20538 29.1804 7.87387 31.4534 8.99598 33.4406H13.8432C13.2456 31.4289 12.8924 29.1622 12.851 26.7593Z" fill="#CCB8F4"/>
<path d="M13.5932 20.0408H8.52059C7.68498 21.8005 7.19345 23.7526 7.12744 25.8107H12.851C12.8861 23.7638 13.1473 21.8159 13.5932 20.0408Z" fill="#A3EFE0"/>
<path d="M14.148 34.3892H9.57812C11.5365 37.3138 14.5223 39.4948 18.0143 40.4126C16.4105 39.1156 15.0637 37.0083 14.148 34.3892Z" fill="#A3EFE0"/>
<path d="M21.2474 40.862V34.3892H15.1299C16.4704 38.0785 18.6984 40.5832 21.2474 40.862Z" fill="#CCB8F4"/>
<path d="M21.3173 10.1846V0H20.3686V10.1846C12.0104 10.4367 5.2876 17.3091 5.2876 25.727C5.2876 34.3042 12.2653 41.2819 20.8426 41.2819C29.4199 41.2819 36.3976 34.3042 36.3976 25.727C36.3976 17.3091 29.6748 10.4367 21.3173 10.1846ZM17.135 11.5995C15.35 13.0432 13.8845 15.4932 12.9752 18.5344H8.1385C10.0604 15.1533 13.2891 12.6093 17.135 11.5995ZM7.64205 19.4831H12.7147C12.2688 21.2589 12.0076 23.2061 11.9725 25.253H6.2489C6.3142 23.1948 6.80574 21.2427 7.64205 19.4831ZM6.2489 26.2016H11.9725C12.0139 28.6045 12.3671 30.8712 12.9647 32.883H8.11744C6.99533 30.8958 6.32614 28.6228 6.2489 26.2016ZM8.69815 33.8317H13.268C14.1844 36.4508 15.5312 38.5581 17.1343 39.8551C13.6423 38.9373 10.6566 36.7563 8.69815 33.8317ZM20.3679 40.3045C17.8196 40.0257 15.5909 37.521 14.2504 33.8317H20.3679V40.3045ZM20.3679 32.883H13.9344C13.3256 30.8965 12.9626 28.6228 12.9204 26.2016H20.3679V32.883ZM20.3679 25.253H12.9211C12.957 23.1948 13.2238 21.2427 13.6774 19.4831H20.3686V25.253H20.3679ZM20.3679 18.5337H13.9463C15.237 14.3507 17.6153 11.45 20.3679 11.1494V18.5337ZM35.4363 25.253H29.7127C29.6776 23.2061 29.4164 21.2589 28.9705 19.4831H34.0431C34.8787 21.2427 35.3703 23.1948 35.4363 25.253ZM33.5467 18.5337H28.71C27.8006 15.4932 26.3351 13.0425 24.5502 11.5988C28.3961 12.6093 31.6248 15.1533 33.5467 18.5337ZM21.3173 11.1494C24.0706 11.45 26.4482 14.3507 27.7388 18.5337H21.3173V11.1494ZM21.3173 19.4831H28.0085C28.4621 21.2427 28.7289 23.1948 28.7647 25.253H21.3173V19.4831ZM21.3173 26.2016H28.7647C28.7226 28.6228 28.3596 30.8958 27.7508 32.883H21.318V26.2016H21.3173ZM21.3173 40.3045V33.8317H27.4348C26.0936 37.521 23.8655 40.0257 21.3173 40.3045ZM24.5502 39.8544C26.1533 38.5581 27.5001 36.4508 28.4164 33.831H32.9863C31.0279 36.7563 28.0429 38.9373 24.5502 39.8544ZM33.5677 32.883H28.7205C29.3181 30.8712 29.6713 28.6045 29.7127 26.2016H35.4363C35.3583 28.6228 34.6898 30.8958 33.5677 32.883Z" fill="#464860"/>
<path d="M3.93105 7.88828L3.26025 8.55908L6.68873 11.9876L7.35953 11.3168L3.93105 7.88828Z" fill="#464860"/>
<path d="M4.84935 16.4314H0V17.3801H4.84935V16.4314Z" fill="#464860"/>
<path d="M12.7519 4.62817H11.8032V9.47752H12.7519V4.62817Z" fill="#464860"/>
</svg>
