<svg width="37" height="42" viewBox="0 0 37 42" fill="none" xmlns="http://www.w3.org/2000/svg">
<path d="M28.7099 18.5337H33.5473C31.6247 15.1533 28.3968 12.6093 24.5508 11.5988C26.3344 13.0432 27.8006 15.4932 28.7099 18.5337Z" fill="white"/>
<path d="M29.7126 25.253H35.4361C35.3701 23.1948 34.8786 21.2427 34.043 19.483H28.9703C29.4162 21.2589 29.6774 23.2061 29.7126 25.253Z" fill="white"/>
<path d="M21.3171 11.1494V18.5337H27.7387C26.4474 14.3514 24.0697 11.4507 21.3171 11.1494Z" fill="white"/>
<path d="M13.9463 18.5337H20.3678V11.1494C17.6152 11.4507 15.2376 14.3514 13.9463 18.5337Z" fill="white"/>
<path d="M12.921 25.253H20.3684V19.483H13.6772C13.2229 21.2427 12.9561 23.1948 12.921 25.253Z" fill="white"/>
<path d="M24.55 39.8544C28.0427 38.9366 31.0277 36.7563 32.9861 33.831H28.4163C27.4992 36.4515 26.1524 38.5581 24.55 39.8544Z" fill="white"/>
<path d="M13.9342 32.883H20.3677V26.2016H12.921C12.9631 28.6228 13.3254 30.8958 13.9342 32.883Z" fill="white"/>
<path d="M28.7204 32.883H33.5676C34.6897 30.8965 35.3582 28.6228 35.4362 26.2016H29.7126C29.6712 28.6045 29.318 30.8712 28.7204 32.883Z" fill="white"/>
<path d="M28.0083 19.483H21.3171V25.253H28.7646C28.7281 23.1948 28.4613 21.2427 28.0083 19.483Z" fill="white"/>
<path d="M28.7646 26.2016H21.3171V32.883H27.7506C28.3594 30.8958 28.7218 28.6228 28.7646 26.2016Z" fill="white"/>
<path d="M21.3171 33.8317V40.3045C23.8654 40.0257 26.0942 37.521 27.4346 33.8317H21.3171Z" fill="white"/>
<path d="M11.9717 26.2016H6.24878C6.32672 28.6228 6.99521 30.8958 8.11732 32.883H12.9646C12.3663 30.8712 12.0138 28.6045 11.9717 26.2016Z" fill="white"/>
<path d="M12.7146 19.483H7.64193C6.80632 21.2427 6.31479 23.1948 6.24878 25.253H11.9724C12.0075 23.2061 12.2687 21.2589 12.7146 19.483Z" fill="white"/>
<path d="M13.2686 33.8317H8.69873C10.6571 36.7563 13.6429 38.9373 17.1349 39.8551C15.5318 38.5581 14.185 36.4515 13.2686 33.8317Z" fill="white"/>
<path d="M20.3679 40.3045V33.8317H14.2504C15.5916 37.521 17.8196 40.0257 20.3679 40.3045Z" fill="white"/>
<path d="M17.1349 11.5995C13.289 12.6093 10.0596 15.1533 8.13837 18.5344H12.9751C13.8844 15.4932 15.3499 13.0432 17.1349 11.5995Z" fill="white"/>
<path d="M29.5883 19.0912H34.4258C32.5032 15.7109 29.2752 13.1668 25.4293 12.1564C27.2128 13.6008 28.679 16.0507 29.5883 19.0912Z" fill="#A3EFE0"/>
<path d="M30.5912 25.8098H36.3147C36.2487 23.7517 35.7572 21.7996 34.9216 20.0399H29.8489C30.2955 21.8157 30.556 23.7636 30.5912 25.8098Z" fill="#CCB8F4"/>
<path d="M14.8248 19.0912H21.2463V11.707C18.4937 12.0082 16.1161 14.9083 14.8248 19.0912Z" fill="#A3EFE0"/>
<path d="M13.7996 25.8098H21.247V20.0406H14.5558C14.1015 21.7996 13.8347 23.7524 13.7996 25.8098Z" fill="#CCB8F4"/>
<path d="M29.5995 33.4398H34.4468C35.5689 31.4533 36.2374 29.1796 36.3153 26.7585H30.5917C30.5503 29.1621 30.1964 31.4288 29.5995 33.4398Z" fill="#A3EFE0"/>
<path d="M28.8868 20.0406H22.1956V25.8105H29.6431C29.6066 23.7524 29.3404 21.7996 28.8868 20.0406Z" fill="#A3EFE0"/>
<path d="M29.6431 26.7592H22.1956V33.4405H28.6291C29.2379 31.4533 29.6009 29.1803 29.6431 26.7592Z" fill="#CCB8F4"/>
<path d="M22.1956 34.3892V40.862C24.7439 40.5833 26.9726 38.0785 28.3131 34.3892H22.1956Z" fill="#A3EFE0"/>
<path d="M12.8509 26.7592H7.12732C7.20526 29.1803 7.87375 31.4533 8.99586 33.4405H13.8431C13.2455 31.4288 12.8923 29.1621 12.8509 26.7592Z" fill="#CCB8F4"/>
<path d="M13.5931 20.0406H8.52047C7.68486 21.8003 7.19333 23.7524 7.12732 25.8105H12.8509C12.886 23.7636 13.1472 21.8157 13.5931 20.0406Z" fill="#A3EFE0"/>
<path d="M14.1479 34.3892H9.578C11.5364 37.3138 14.5221 39.4949 18.0142 40.4126C16.4103 39.1157 15.0635 37.0084 14.1479 34.3892Z" fill="#A3EFE0"/>
<path d="M21.247 40.862V34.3892H15.1295C16.47 38.0785 18.6981 40.5833 21.247 40.862Z" fill="#CCB8F4"/>
<path d="M21.3173 10.1846V0H20.3686V10.1846C12.0104 10.4367 5.2876 17.3091 5.2876 25.727C5.2876 34.3042 12.2653 41.2819 20.8426 41.2819C29.4199 41.2819 36.3976 34.3042 36.3976 25.727C36.3976 17.3091 29.6748 10.4367 21.3173 10.1846ZM17.135 11.5995C15.35 13.0432 13.8845 15.4932 12.9752 18.5344H8.1385C10.0604 15.1533 13.2891 12.6093 17.135 11.5995ZM7.64205 19.4831H12.7147C12.2688 21.2589 12.0076 23.2061 11.9725 25.253H6.2489C6.3142 23.1948 6.80574 21.2427 7.64205 19.4831ZM6.2489 26.2016H11.9725C12.0139 28.6045 12.3671 30.8712 12.9647 32.883H8.11744C6.99533 30.8958 6.32614 28.6228 6.2489 26.2016ZM8.69815 33.8317H13.268C14.1844 36.4508 15.5312 38.5581 17.1343 39.8551C13.6423 38.9373 10.6566 36.7563 8.69815 33.8317ZM20.3679 40.3045C17.8196 40.0257 15.5909 37.521 14.2504 33.8317H20.3679V40.3045ZM20.3679 32.883H13.9344C13.3256 30.8965 12.9626 28.6228 12.9204 26.2016H20.3679V32.883ZM20.3679 25.253H12.9211C12.957 23.1948 13.2238 21.2427 13.6774 19.4831H20.3686V25.253H20.3679ZM20.3679 18.5337H13.9463C15.237 14.3507 17.6153 11.45 20.3679 11.1494V18.5337ZM35.4363 25.253H29.7127C29.6776 23.2061 29.4164 21.2589 28.9705 19.4831H34.0431C34.8787 21.2427 35.3703 23.1948 35.4363 25.253ZM33.5467 18.5337H28.71C27.8006 15.4932 26.3351 13.0425 24.5502 11.5988C28.3961 12.6093 31.6248 15.1533 33.5467 18.5337ZM21.3173 11.1494C24.0706 11.45 26.4482 14.3507 27.7388 18.5337H21.3173V11.1494ZM21.3173 19.4831H28.0085C28.4621 21.2427 28.7289 23.1948 28.7647 25.253H21.3173V19.4831ZM21.3173 26.2016H28.7647C28.7226 28.6228 28.3596 30.8958 27.7508 32.883H21.318V26.2016H21.3173ZM21.3173 40.3045V33.8317H27.4348C26.0936 37.521 23.8655 40.0257 21.3173 40.3045ZM24.5502 39.8544C26.1533 38.5581 27.5001 36.4508 28.4164 33.831H32.9863C31.0279 36.7563 28.0429 38.9373 24.5502 39.8544ZM33.5677 32.883H28.7205C29.3181 30.8712 29.6713 28.6045 29.7127 26.2016H35.4363C35.3583 28.6228 34.6898 30.8958 33.5677 32.883Z" fill="#464860"/>
<path d="M3.93105 7.88839L3.26025 8.55919L6.68873 11.9877L7.35953 11.3169L3.93105 7.88839Z" fill="#464860"/>
<path d="M4.84935 16.4313H0V17.38H4.84935V16.4313Z" fill="#464860"/>
<path d="M12.7518 4.62815H11.8031V9.4775H12.7518V4.62815Z" fill="#464860"/>
</svg>
