<svg width="27" height="44" viewBox="0 0 27 44" fill="none" xmlns="http://www.w3.org/2000/svg">
<path fill-rule="evenodd" clip-rule="evenodd" d="M5.56491 15.4032L6.49892 15.7318L7.80968 11.9766L9.99951 11.0613L10.9492 10.4667L11.114 9.62183L12.1893 10.3025L14.5361 10.3729L16.153 9.11332L16.31 10.4667L19.0414 11.429L20.3992 14.2376L20.8937 15.411L22.8794 14.4957L23.0129 15.7318L23.264 16.5376L23.7664 17.2964L21.8356 18.7125L20.0931 19.4009L18.1388 16.4985L18.1152 23.3829L17.9033 24.4234H9.29311L8.86142 22.5771L9.41084 16.5767L7.96666 18.3682L7.11898 19.1506L5.10968 18.1414L5.56491 15.4032Z" fill="white"/>
<path fill-rule="evenodd" clip-rule="evenodd" d="M6.48328 16.2247L7.40945 16.5532L8.7202 12.7981L10.91 11.8828L11.8597 11.2882L12.0246 10.4433L13.0999 11.1239L15.4467 11.2021L17.0635 9.93476L17.2283 11.2882L19.9519 12.2504L21.3097 15.059L21.8042 16.2403L23.79 15.3172L23.9234 16.5532L24.1746 17.359L24.6769 18.1179L22.7539 19.5339L21.0036 20.2223L19.0493 17.3199L19.0257 24.2044L18.8138 25.2449H10.2036L9.77195 23.3986L10.3292 17.3981L8.87718 19.1897L8.0295 19.972L6.0202 18.9628L6.48328 16.2247Z" fill="#CCB8F4"/>
<path fill-rule="evenodd" clip-rule="evenodd" d="M9.19086 24.5565L17.8638 24.7912L18.3269 41.9319L18.0365 42.4639L15.3914 42.2761L13.9237 26.8252H13.2644L11.6475 42.4952L8.86121 42.2996L9.19086 24.5565Z" fill="white"/>
<path fill-rule="evenodd" clip-rule="evenodd" d="M10.3287 24.7755L18.9939 25.0102L19.4648 42.1509L19.1744 42.6829L16.5293 42.4952L15.0616 27.0364H14.4023L12.7854 42.7142L9.99908 42.5108L10.3287 24.7755Z" fill="#A3EFE0"/>
<path fill-rule="evenodd" clip-rule="evenodd" d="M2.76275 17.1635C2.79415 18.5013 2.8177 19.8312 2.83339 21.169C2.84124 22.0921 2.86479 23.0153 2.87264 23.9384C2.95113 29.6729 2.69996 35.0553 2.49589 40.2343C2.47235 40.8366 2.49589 42.1275 2.88834 42.5265H5.02322C5.42351 42.1275 5.43921 40.8366 5.41566 40.2343C5.21159 35.0553 4.96043 29.6729 5.03892 23.9384C5.05461 23.0153 5.07031 22.0921 5.07816 21.169C5.1331 16.5689 5.27438 11.961 5.49415 7.33748C5.53339 6.50821 5.55694 5.69459 5.55694 4.86533C5.55694 3.5432 5.08601 2.96428 3.94793 2.95646C2.8177 2.95646 2.35461 3.52755 2.35461 4.85751C2.35461 5.68677 2.37816 6.50821 2.4174 7.32965C2.51944 9.48105 2.60578 11.6324 2.67642 13.776" fill="white"/>
<path fill-rule="evenodd" clip-rule="evenodd" d="M2.6766 13.7917L3.39085 13.8777C3.75974 13.9246 4.03445 14.261 4.01091 14.6287L3.88533 16.1308C3.83823 16.7175 3.32021 17.1478 2.73155 17.0774L2.41759 17.0383C1.97806 16.9835 1.64056 16.5767 1.6798 16.1386L1.81323 14.4957C1.84463 14.0576 2.22922 13.7369 2.6766 13.7917Z" fill="white"/>
<path fill-rule="evenodd" clip-rule="evenodd" d="M24.5275 13.8621L23.7976 13.8699C23.4287 13.8777 23.1854 14.2532 23.1775 14.6209L23.1618 16.1308C23.154 16.7254 23.7269 17.1478 24.3156 17.0774L24.6296 17.0383C25.0691 16.9835 25.3673 16.5845 25.3673 16.1386L25.3752 14.4957C25.3752 14.0498 24.9749 13.8621 24.5275 13.8621Z" fill="white"/>
<path fill-rule="evenodd" clip-rule="evenodd" d="M10.9335 6.26567L10.5411 3.75441L11.114 2.37752L12.1422 1.36832L13.0998 0.93804L14.0574 0.445175L14.8344 0.789398L15.0463 1.20403C15.0463 1.20403 15.6821 1.67343 15.8783 1.88465C16.0745 2.09588 16.569 2.81562 16.569 2.81562C16.569 2.81562 16.8358 3.38672 16.8672 3.73876C16.9065 4.09081 16.7731 4.34898 16.7495 5.03742C16.726 5.71805 16.7495 6.19527 16.5768 6.54731C16.4042 6.89936 16.2472 7.10276 16.1294 7.42352C16.0117 7.75209 15.5251 8.54224 15.478 8.597C15.4309 8.65959 15.0542 9.48885 14.9443 9.44974C14.8344 9.41062 14.0338 9.62967 13.7042 9.61403C13.3745 9.6062 12.5347 9.25416 12.5347 9.25416L11.6242 8.40924L10.9335 6.26567Z" fill="white"/>
<path d="M27 43.2138H0V42.3533H2.30756C2.06424 41.7196 2.04855 40.7886 2.07209 40.2097L2.14273 38.4964C2.3311 33.8416 2.51948 29.0303 2.44884 23.9295L2.40959 21.1601C2.3939 19.924 2.37035 18.688 2.3468 17.4519C1.6875 17.358 1.20087 16.7556 1.25581 16.0906L1.38924 14.4478C1.41279 14.1192 1.56977 13.8141 1.82878 13.6107C1.95436 13.509 2.09564 13.4386 2.24477 13.3916C2.18198 11.3576 2.09564 9.32352 2.00145 7.34424C1.93866 6.46021 1.92297 5.63877 1.92297 4.85644C1.92297 3.29179 2.59012 2.52511 3.96366 2.51729C5.33721 2.52511 6.00436 3.29179 6.00436 4.85644C6.00436 5.63094 5.98081 6.44456 5.94157 7.35206C5.82384 9.8555 5.7218 12.3981 5.65116 14.9563L6.02791 15.1518L7.41715 11.8113C7.65262 11.3106 7.99796 10.9742 8.50029 10.7865L10.5645 10.1371L10.698 9.05753C10.6823 8.89324 10.7058 8.72113 10.7686 8.57249C10.8392 8.41602 10.9413 8.28303 11.0747 8.18132C10.957 7.96227 10.8628 7.74322 10.8 7.53982V7.51635L10.1015 4.56698C9.98372 2.99451 10.7372 1.71932 12.3305 0.710118C12.6916 0.483243 13.0369 0.334601 13.3744 0.18596L13.6805 0.0529644C14.0651 -0.103501 14.6852 0.131197 14.8029 0.18596C15.2267 0.389364 15.266 0.694471 15.2817 0.827466C16.7494 1.82884 17.4323 3.05709 17.3302 4.5044L16.5532 7.52417C16.4904 7.74322 16.3884 7.97792 16.2549 8.21262C16.3648 8.3065 16.459 8.42385 16.514 8.56466C16.5846 8.72895 16.6081 8.90106 16.5846 9.07317L16.7102 10.1293L18.7509 10.7708C19.2767 10.9742 19.6221 11.3028 19.8497 11.7878L21.2468 15.1362L22.793 14.3069C22.9108 13.8454 23.264 13.4385 23.7977 13.4307H23.8448V12.844H24.7081V13.4307C25.0378 13.462 25.3203 13.5794 25.5166 13.775C25.7049 13.9627 25.807 14.2131 25.807 14.4869L25.7991 16.1297C25.7991 16.7947 25.336 17.358 24.716 17.4519L24.7003 17.4597V40.1315H25.9953V40.992H24.7003V41.2033H23.8369V40.992H22.5419V40.1315H23.8369V17.9917L20.9564 19.7519C20.5483 19.9162 19.9831 19.8771 19.5672 19.6893C19.2846 19.5642 19.0884 19.3764 19.0099 19.1495L18.3349 17.8196L18.3977 20.9645L18.5939 24.1016L18.3427 24.6336L18.7587 42.2829C18.7587 42.3064 18.7587 42.3298 18.7587 42.3533H23.8448V41.5397H24.7081V42.3533H27V43.2138ZM15.4622 42.3533L15.8233 42.3455C15.8233 42.322 15.8154 42.2907 15.8076 42.2672L15.4622 42.3533ZM12.2285 42.3533H14.9677C14.9677 42.3455 14.9677 42.3455 14.9677 42.3376L14.9206 41.0937L14.6852 37.8236L13.5942 27.7864L12.511 37.8315L12.2756 41.1016L12.2363 42.2907C12.2285 42.3142 12.2285 42.3376 12.2285 42.3533ZM5.61192 42.3533H8.42965C8.42965 42.3376 8.42965 42.322 8.42965 42.3142L8.84564 24.8683L8.55523 24.086L8.78285 20.9098L8.91628 17.9135L8.22558 19.2121C8.16279 19.392 7.96657 19.572 7.68401 19.6972C7.26802 19.8849 6.70291 19.924 6.36541 19.791L5.54128 19.3138C5.53343 19.9319 5.51773 20.5499 5.50988 21.1679L5.47064 23.9374C5.4 29.0303 5.58837 33.8416 5.77674 38.4964L5.84738 40.2097C5.87093 40.7886 5.85523 41.7196 5.61192 42.3533ZM11.3808 42.2594C11.373 42.2907 11.3651 42.3142 11.3651 42.3455L11.577 42.3142L11.5613 42.2751L11.3808 42.2594ZM11.6241 42.2751V42.3064L11.7968 42.2751H11.6241ZM9.30087 42.056C9.86599 42.1186 10.8078 42.1264 11.373 42.0873L11.4122 41.0625L11.6555 37.761L12.8799 26.3939H14.3163L15.5407 37.7454L15.8154 42.0795C16.357 42.1108 17.3145 42.1029 17.8875 42.0482L17.7855 37.7376L17.4794 24.9857H9.70116L9.30087 42.056ZM3.12384 42.0873H4.79564C4.92122 41.79 5.02326 41.1016 4.99186 40.241L4.92122 38.5277C4.73285 33.8651 4.54448 29.0381 4.61512 23.9217L4.65436 21.1523C4.7093 16.4974 4.85058 11.8348 5.07035 7.31294C5.11744 6.42109 5.13314 5.6153 5.13314 4.85644C5.13314 3.62037 4.71715 3.37785 3.95581 3.37785C3.19448 3.38567 2.77849 3.62037 2.77849 4.85644C2.77849 5.63094 2.80203 6.42892 2.84128 7.31294C2.93546 9.30787 3.0218 11.3576 3.08459 13.4073L3.42994 13.4464C4.02645 13.5168 4.47384 14.0644 4.42674 14.659L4.31686 16.1689C4.28546 16.5757 4.09709 16.9355 3.78314 17.1859C3.61047 17.3267 3.41424 17.4206 3.20233 17.4753C3.23372 18.7036 3.24942 19.9319 3.26512 21.1601L3.30436 23.9295C3.375 29.0459 3.18663 33.8729 2.99826 38.5434L2.92762 40.2488C2.90407 41.1016 2.99826 41.79 3.12384 42.0873ZM14.0651 24.1251H17.6285L17.7148 23.9452L17.5343 21.0115L17.4009 14.5103L18.2642 14.4947L18.2956 15.8481L19.8026 18.8131C19.9046 18.9618 20.4227 19.0478 20.5875 18.9931L23.3817 17.2876C23.3189 17.2485 23.2561 17.2015 23.1933 17.1468C22.8951 16.8808 22.7381 16.5287 22.7381 16.1376L22.7459 15.324L20.8936 16.3175L20.5169 15.6291L19.0648 12.1477C18.9392 11.8817 18.7587 11.7018 18.4683 11.5923L15.9174 10.7943L15.839 10.145C15.5564 10.3718 15.164 10.6144 14.6695 10.7865C14.4968 10.8412 14.2927 10.8803 14.0651 10.9038V24.1251ZM9.49709 24.1251H13.2017V10.9038C12.9741 10.8803 12.7701 10.8412 12.5974 10.7865C12.0951 10.6222 11.7026 10.3718 11.4201 10.145L11.3416 10.7943L8.76715 11.6001C8.50814 11.7018 8.32762 11.8739 8.19419 12.1555L6.77355 15.5821L6.37326 16.3019L5.61977 15.9107C5.59622 16.7165 5.58052 17.5223 5.56483 18.3281L6.74215 19.0087C6.83634 19.04 7.36221 18.9539 7.4564 18.8288L9.01046 15.8951L9.07326 14.479L9.93663 14.5182L9.64622 20.9489L9.42645 23.953L9.49709 24.1251ZM2.58227 14.2131C2.50378 14.2131 2.42529 14.2365 2.3625 14.2913C2.29186 14.3539 2.24477 14.4399 2.23692 14.5338L2.10349 16.1767C2.08779 16.3879 2.25262 16.5913 2.46453 16.6148L2.77849 16.6539C2.94331 16.6774 3.10814 16.6304 3.23372 16.5209C3.3593 16.4192 3.43779 16.2706 3.45349 16.0985L3.57122 14.5886C3.57907 14.4477 3.46919 14.3148 3.33576 14.2991L2.62151 14.2131C2.60581 14.2131 2.59012 14.2131 2.58227 14.2131ZM24.5355 14.2913L23.8055 14.2991C23.7113 14.2991 23.6171 14.4634 23.6171 14.6277L23.6015 16.1376C23.6015 16.3097 23.6878 16.427 23.7663 16.4974C23.8997 16.6148 24.0881 16.6774 24.2765 16.6539L24.5826 16.6148C24.818 16.5835 24.9436 16.3488 24.9436 16.1376L24.9515 14.4947C24.9515 14.4243 24.9279 14.4086 24.9201 14.393C24.8651 14.346 24.7238 14.2913 24.5355 14.2913ZM11.5535 8.90889V8.91671C11.5378 8.95583 11.5378 9.02624 11.6006 9.11229C11.6948 9.23746 12.1186 9.71468 12.8721 9.96503C13.186 10.0667 13.7826 10.0902 14.1907 10.012C13.7983 10.0589 13.3901 10.0511 12.9977 9.98849L12.9035 9.96503C12.409 9.76162 11.9302 9.36263 11.5535 8.90889ZM15.7291 8.97147C15.4151 9.34699 15.0305 9.67556 14.6302 9.87897C15.2424 9.61298 15.5878 9.21399 15.6898 9.08882C15.7134 9.04971 15.7291 9.01059 15.7291 8.97147ZM13.1939 9.15923C13.5078 9.20617 13.8375 9.20617 14.1515 9.15923C14.85 8.8463 15.5328 7.94663 15.7212 7.32077L15.7683 7.03131L15.7919 7.03913L16.4826 4.38705C16.5532 3.33873 16.0038 2.39212 14.8029 1.5785C14.4968 1.37509 14.4497 1.12475 14.4262 0.991755C14.2692 0.929169 14.0337 0.874406 13.9709 0.882229L13.7041 1.0074C13.3823 1.1404 13.084 1.27339 12.7779 1.46115C11.4515 2.29824 10.8471 3.27614 10.9334 4.45746L11.5535 7.03131H11.577L11.632 7.35988C11.8047 7.9388 12.4875 8.8463 13.1939 9.15923ZM4.3875 24.0782H3.53198V19.9006H4.39535V24.0782H4.3875Z" fill="#464860"/>
</svg>
