<svg width="34" height="30" viewBox="0 0 34 30" fill="none" xmlns="http://www.w3.org/2000/svg">
<path d="M28.0713 16.8756C27.9527 16.945 27.8697 17.0624 27.8436 17.1982C26.6655 23.4191 21.216 27.9353 14.8853 27.9353C7.61309 27.9353 1.69678 21.9987 1.69678 14.7018C1.69678 7.40724 7.61309 1.47315 14.8853 1.47315C21.2155 1.47315 26.6655 5.98887 27.8436 12.2108C27.8697 12.346 27.9522 12.4635 28.0703 12.5318L31.7985 14.7022L28.0713 16.8756Z" fill="white"/>
<path d="M30.2729 18.4149C30.1544 18.4843 30.0714 18.6017 30.0452 18.7374C28.8672 24.9584 23.4176 29.4746 17.0869 29.4746C9.81475 29.4746 3.89844 23.538 3.89844 16.241C3.89844 8.9465 9.81475 3.01241 17.0869 3.01241C23.4171 3.01241 28.8672 7.52813 30.0452 13.7501C30.0714 13.8853 30.1539 14.0027 30.2719 14.0711L34.0001 16.2415L30.2729 18.4149Z" fill="#CCB8F4"/>
<path d="M15.1253 21.4037C15.2152 21.3131 15.2651 21.1932 15.2651 21.0664C15.2651 20.9435 15.2137 20.8201 15.1283 20.7359L15.1238 20.7315C14.9583 20.563 14.6269 20.565 14.455 20.7349C14.3715 20.8187 14.3212 20.943 14.3212 21.0664C14.3212 21.1927 14.3696 21.3121 14.457 21.4037C14.5459 21.489 14.6714 21.54 14.7934 21.54C14.9154 21.5405 15.0393 21.4894 15.1253 21.4037Z" fill="#464860"/>
<path d="M32.9766 14.292L28.7317 11.8214L28.6991 11.6718C28.02 8.53432 26.267 5.69211 23.7637 3.66883C21.2561 1.64159 18.1028 0.525419 14.8858 0.525419C7.09206 0.525419 0.751953 6.88508 0.751953 14.7018C0.751953 22.5214 7.09206 28.883 14.8858 28.883C18.1038 28.883 21.257 27.7669 23.7647 25.7401C26.268 23.7168 28.0204 20.8741 28.6996 17.7367L28.7317 17.5871L32.9771 15.112C33.1223 15.0272 33.2122 14.8702 33.2122 14.7018C33.2122 14.5333 33.1218 14.3768 32.9766 14.292ZM28.0713 16.8756C27.9528 16.945 27.8698 17.0624 27.8436 17.1982C26.6656 23.4191 21.216 27.9353 14.8853 27.9353C7.61316 27.9353 1.69684 21.9987 1.69684 14.7018C1.69684 7.40724 7.61316 1.47315 14.8853 1.47315C21.2155 1.47315 26.6656 5.98887 27.8436 12.2108C27.8698 12.346 27.9523 12.4635 28.0703 12.5318L31.7985 14.7022L28.0713 16.8756Z" fill="#464860"/>
<path d="M18.3106 15.4731C19.0278 14.6329 19.423 13.5618 19.423 12.457C19.423 9.89621 17.346 7.81298 14.7928 7.81298C12.2397 7.81298 10.1627 9.89621 10.1627 12.457C10.1627 12.7181 10.3746 12.9306 10.6354 12.9306C10.8957 12.9306 11.1076 12.7181 11.1076 12.457C11.1076 10.4189 12.7608 8.76121 14.7928 8.76121C16.8254 8.76121 18.4786 10.4194 18.4786 12.457C18.4786 14.4952 16.8254 16.1533 14.7928 16.1533C14.5325 16.1533 14.3206 16.3659 14.3206 16.6269V18.3208C14.3206 18.5819 14.5325 18.7944 14.7928 18.7944H14.7933C14.9193 18.7944 15.0378 18.7453 15.1267 18.6562C15.2161 18.5665 15.265 18.4476 15.265 18.3213V17.0867L15.554 17.0386C16.6219 16.8603 17.6013 16.3049 18.3106 15.4731Z" fill="#464860"/>
</svg>
