<svg width="39" height="39" viewBox="0 0 39 39" fill="none" xmlns="http://www.w3.org/2000/svg">
<path d="M23.5738 17.6802H15.3228V29.4668H23.5738V17.6802Z" fill="white"/>
<path fill-rule="evenodd" clip-rule="evenodd" d="M24.752 17.6802V29.4668H33.003V19.4421C33.003 18.4688 32.2097 17.6802 31.2292 17.6802H24.752Z" fill="white"/>
<path fill-rule="evenodd" clip-rule="evenodd" d="M14.1437 17.6802H7.66715C6.68664 17.6802 5.89337 18.4695 5.89337 19.4421V29.4668H14.1443V17.6802H14.1437Z" fill="white"/>
<path fill-rule="evenodd" clip-rule="evenodd" d="M33.0023 30.6451H5.89337V35.9552C5.89337 36.9284 6.68664 37.7171 7.66715 37.7171H31.2285C32.209 37.7171 33.0023 36.9278 33.0023 35.9552V30.6451Z" fill="white"/>
<path fill-rule="evenodd" clip-rule="evenodd" d="M17.121 6.50554C18.0546 6.22039 18.5805 5.23194 18.2947 4.29774C18.0089 3.36421 17.0211 2.83823 16.0869 3.12404C15.1534 3.40986 14.6274 4.39765 14.9132 5.33184C15.199 6.26538 16.1875 6.7907 17.121 6.50554Z" fill="white"/>
<path fill-rule="evenodd" clip-rule="evenodd" d="M21.6301 5.12675C22.5636 4.84093 23.0896 3.85314 22.8038 2.91895C22.5179 1.98541 21.5302 1.45943 20.596 1.74525C19.6624 2.0304 19.1364 3.01885 19.4223 3.95305C19.7081 4.88658 20.6959 5.41256 21.6301 5.12675Z" fill="white"/>
<path fill-rule="evenodd" clip-rule="evenodd" d="M33.9703 31.4285H6.86145V36.7386C6.86145 37.7118 7.65472 38.5005 8.63523 38.5005H32.1966C33.1771 38.5005 33.9703 37.7112 33.9703 36.7386V31.4285Z" fill="#CCB8F4"/>
<path d="M23.5738 17.6802H15.3228V29.4668H23.5738V17.6802Z" fill="white"/>
<path fill-rule="evenodd" clip-rule="evenodd" d="M25.7201 18.4251V30.2118H33.9704V20.187C33.9704 19.2138 33.1771 18.4251 32.1966 18.4251H25.7201Z" fill="#A3EFE0"/>
<path fill-rule="evenodd" clip-rule="evenodd" d="M15.1118 18.4251H8.63523C7.65472 18.4251 6.86145 19.2144 6.86145 20.187V30.2118H15.1124V18.4251H15.1118Z" fill="#A3EFE0"/>
<path fill-rule="evenodd" clip-rule="evenodd" d="M17.7106 7.06262C18.6441 6.77746 19.1701 5.78901 18.8843 4.85482C18.5984 3.92128 17.6107 3.3953 16.6765 3.68112C15.7429 3.96693 15.2169 4.95472 15.5028 5.88892C15.7886 6.82245 16.777 7.34843 17.7106 7.06262Z" fill="#CCB8F4"/>
<path fill-rule="evenodd" clip-rule="evenodd" d="M22.2197 5.68449C23.1532 5.39867 23.6792 4.41089 23.3934 3.47669C23.1075 2.54316 22.1198 2.01718 21.1856 2.30299C20.252 2.58815 19.726 3.57659 20.0119 4.51079C20.297 5.44432 21.2855 5.96964 22.2197 5.68449Z" fill="#CCB8F4"/>
<path fill-rule="evenodd" clip-rule="evenodd" d="M18.8585 16.5012V7.28426L0.765403 12.9384C0.454446 13.0357 0.124301 12.8623 0.0270445 12.5514C-0.0702124 12.2404 0.10313 11.9103 0.414087 11.813L14.9682 7.26508C14.4217 6.90053 13.9937 6.35272 13.7866 5.67589C13.3109 4.11978 14.1869 2.47236 15.743 1.99666C16.6646 1.71482 17.6186 1.90735 18.3418 2.43465C18.6468 1.59308 19.3296 0.900372 20.2519 0.618526C21.808 0.142827 23.4554 1.0188 23.9311 2.57491C24.1302 3.2266 24.0925 3.8935 23.8676 4.48432L38.1306 0.0270445C38.4416 -0.0702124 38.7717 0.10313 38.869 0.414087C38.9662 0.725045 38.7929 1.05519 38.4819 1.15245L20.0368 6.91641V16.5018H31.228C32.8582 16.5018 34.1808 17.8171 34.1808 19.4427V35.9559C34.1808 37.5808 32.8589 38.8967 31.228 38.8967H7.66734C6.03713 38.8967 4.71456 37.5815 4.71456 35.9559V19.442C4.71456 17.8171 6.03646 16.5012 7.66734 16.5012H18.8585ZM23.5731 29.4668V17.6802H15.3228V29.4668H23.5731ZM24.7521 17.6802V29.4668H33.0031V19.442C33.0031 18.4688 32.2098 17.6802 31.2293 17.6802H24.7521ZM14.1439 17.6802H7.66734C6.68683 17.6802 5.89356 18.4695 5.89356 19.442V29.4668H14.1445V17.6802H14.1439ZM33.0024 30.6451H5.89356V35.9552C5.89356 36.9284 6.68683 37.7171 7.66734 37.7171H31.2287C32.2092 37.7171 33.0024 36.9278 33.0024 35.9552V30.6451ZM17.1211 6.50555C18.0546 6.22039 18.5806 5.23194 18.2948 4.29775C18.009 3.36421 17.0212 2.83823 16.087 3.12405C15.1535 3.40987 14.6275 4.39765 14.9133 5.33185C15.1991 6.26538 16.1876 6.7907 17.1211 6.50555ZM21.63 5.12675C22.5635 4.84093 23.0895 3.85315 22.8037 2.91895C22.5179 1.98542 21.5301 1.45943 20.5959 1.74525C19.6624 2.03041 19.1364 3.01885 19.4222 3.95305C19.708 4.88658 20.6958 5.41256 21.63 5.12675Z" fill="#464860"/>
</svg>
