<svg width="38" height="39" viewBox="0 0 38 39" fill="none" xmlns="http://www.w3.org/2000/svg">
<path d="M6.39361 10.7351L5.90258 13.1559C5.74628 14.0634 6.29593 14.9572 7.15492 15.19C7.30666 15.2316 7.4623 15.2517 7.6173 15.2511C7.94813 15.2511 8.27636 15.1581 8.559 14.9787C8.97384 14.7141 9.25974 14.2851 9.34114 13.8151L9.84651 11.3384L15.5449 12.3167C15.5833 12.3232 15.6198 12.3213 15.6576 12.3265L14.9366 15.3102C13.5423 15.5254 12.8273 15.8459 12.1428 16.1579C11.4583 16.4693 10.8116 16.7631 9.42711 16.9588C8.04126 17.1544 7.33922 17.0504 6.5942 16.9406C5.90453 16.8385 5.19077 16.7351 3.9762 16.8619L4.64307 10.4452L6.39361 10.7351Z" fill="white"/>
<path d="M3.76644 7.99712C3.89017 7.51998 4.3213 7.1527 4.81559 7.10264C4.85857 7.09809 4.90091 7.09614 4.94258 7.09614C5.14903 7.09614 5.3457 7.14815 5.53001 7.2515C5.69086 7.34186 5.8908 7.33211 6.04058 7.22355C6.19102 7.11629 6.26591 6.93103 6.2314 6.74966C6.15846 6.35898 6.20339 5.97675 6.36685 5.61532C6.69117 4.89636 7.44206 4.44847 8.21639 4.49593C9.05714 4.54793 9.75788 5.12973 9.95977 5.9423C9.99624 6.08791 10.0985 6.20752 10.2372 6.26602C10.3746 6.32453 10.5329 6.31478 10.6625 6.23872C10.9523 6.07101 11.2935 6.01055 11.6224 6.06581C11.9272 6.11781 12.2013 6.26537 12.4156 6.49224C12.5055 6.5865 12.6286 6.64045 12.7588 6.6411C12.7601 6.6411 12.7614 6.6411 12.7621 6.6411C12.891 6.6411 13.0141 6.5891 13.104 6.49679C13.5103 6.07881 14.0717 5.88119 14.6474 5.95985C15.1287 6.0242 15.5559 6.27122 15.8503 6.65606C16.1446 7.04154 16.2723 7.51803 16.2078 7.99842C16.2 8.05367 16.1896 8.10763 16.1778 8.16093C16.1264 8.38585 16.2443 8.61532 16.4572 8.70502C17.0492 8.95334 17.4028 9.5709 17.3188 10.2053C17.2648 10.6136 17.0746 10.9549 16.7855 11.1668C16.4976 11.378 16.1205 11.4502 15.7037 11.3793L10.006 10.401C9.48761 10.3152 8.99006 10.6604 8.9028 11.1661L8.40264 13.6402C8.36422 13.8639 8.23658 14.0543 8.04511 14.1765C7.85495 14.2981 7.62701 14.3332 7.40429 14.2721C7.01484 14.1661 6.76672 13.7468 6.83836 13.3308L7.32939 10.9107C7.41926 10.3919 7.06955 9.89722 6.5492 9.80752L4.73223 9.49549C4.39424 9.43763 4.10639 9.24782 3.92013 8.95985C3.73453 8.67187 3.67982 8.33059 3.76644 7.99712Z" fill="white"/>
<path d="M0.996046 32.8545L2.29853 28.9067C2.701 27.6866 2.97583 26.4157 3.11389 25.1306L3.87259 17.8305C5.08846 17.6823 5.75599 17.7765 6.45217 17.8792C6.9152 17.9481 7.38866 18.0177 8.0158 18.0177C8.44302 18.0177 8.94122 17.9858 9.55665 17.8987C11.0786 17.6842 11.8191 17.3475 12.5348 17.0218C13.119 16.7566 13.679 16.5037 14.6911 16.3139L12.1512 26.8246C11.8484 28.0961 11.683 29.4014 11.6569 30.7041L11.5814 34.6695C11.5768 34.9106 11.4759 35.1349 11.3131 35.2695C11.2427 35.328 11.1281 35.3936 10.9978 35.3696L1.3132 33.7074C1.181 33.6846 1.09764 33.5865 1.0501 33.5085C0.94069 33.3278 0.920502 33.0833 0.996046 32.8545Z" fill="white"/>
<path d="M1.64599 33.6346L2.94848 29.6862C3.35095 28.466 3.62577 27.1952 3.76384 25.91L4.52254 18.6099C5.73841 18.4617 6.40593 18.5559 7.10211 18.6587C7.56515 18.7276 8.0386 18.7971 8.66575 18.7971C9.09296 18.7971 9.59117 18.7653 10.2066 18.6782C11.7285 18.4636 12.469 18.1269 13.1847 17.8012C13.7689 17.536 14.329 17.2831 15.341 17.0933L12.8011 27.604C12.4983 28.8755 12.3329 30.1809 12.3069 31.4836L12.2313 35.4489C12.2267 35.6901 12.1258 35.9143 11.963 36.0489C11.8927 36.1074 11.778 36.1731 11.6478 36.149L1.9638 34.4875C1.8316 34.4647 1.74824 34.3666 1.7007 34.2885C1.59064 34.1078 1.5711 33.8634 1.64599 33.6346Z" fill="#CCB8F4"/>
<path d="M9.96046 21.1867C10.0249 20.8142 10.3493 20.5509 10.7159 20.5509C10.7595 20.5509 10.8025 20.5549 10.8462 20.562C11.2629 20.6335 11.5436 21.03 11.472 21.4454C11.4004 21.8621 11.0018 22.141 10.587 22.0701C10.1695 21.9993 9.88948 21.6027 9.96046 21.1867Z" fill="white"/>
<path d="M8.42413 29.7512C9.07863 29.8636 9.51887 30.4857 9.40686 31.1384C9.29419 31.791 8.66705 32.2285 8.0171 32.1193C7.3626 32.0069 6.92236 31.3847 7.03438 30.7321C7.13532 30.1477 7.64459 29.7336 8.21964 29.7336C8.28737 29.7336 8.35575 29.7388 8.42413 29.7512Z" fill="white"/>
<path d="M5.85372 20.5367C5.96769 20.456 6.10054 20.4144 6.23665 20.4144C6.27508 20.4144 6.31285 20.4177 6.35127 20.4242C6.52646 20.4541 6.68015 20.551 6.7824 20.6959C6.88529 20.8415 6.92502 21.0177 6.89506 21.1926C6.8651 21.3674 6.76807 21.5208 6.62284 21.6229C6.47696 21.7256 6.29982 21.7653 6.12529 21.7354C5.95011 21.7055 5.79641 21.6086 5.69417 21.4636C5.59127 21.318 5.55154 21.1419 5.5815 20.967C5.61146 20.7921 5.70849 20.6387 5.85372 20.5367Z" fill="white"/>
<path d="M5.57618 25.5739C5.62047 25.3165 5.76309 25.0922 5.97605 24.9421C6.18966 24.7912 6.4482 24.7321 6.70674 24.7769C6.96398 24.8212 7.18866 24.9629 7.33975 25.1761C7.49019 25.3886 7.5488 25.6474 7.50517 25.9048C7.46088 26.1616 7.31891 26.3858 7.1053 26.5366C6.89235 26.6868 6.63315 26.746 6.37461 26.7018C6.11737 26.6576 5.89269 26.5158 5.7416 26.3026C5.59051 26.0894 5.53125 25.8307 5.57618 25.5739Z" fill="white"/>
<path d="M9.43946 21.5117C9.50394 21.1393 9.82826 20.876 10.1949 20.876C10.2385 20.876 10.2815 20.8799 10.3252 20.887C10.742 20.9585 11.0226 21.3551 10.951 21.7705C10.8794 22.1871 10.4808 22.466 10.066 22.3952C9.64851 22.3243 9.36848 21.9278 9.43946 21.5117Z" fill="#A3EFE0"/>
<path d="M7.90314 30.0762C8.55764 30.1886 8.99788 30.8108 8.88586 31.4634C8.7732 32.1161 8.14605 32.5535 7.49611 32.4443C6.84161 32.3319 6.40137 31.7098 6.51338 31.0571C6.61432 30.4727 7.1236 30.0586 7.69865 30.0586C7.76638 30.0586 7.83476 30.0638 7.90314 30.0762Z" fill="#A3EFE0"/>
<path d="M5.33273 20.8617C5.44669 20.7811 5.57955 20.7395 5.71566 20.7395C5.75408 20.7395 5.79185 20.7427 5.83028 20.7492C6.00546 20.7791 6.15915 20.876 6.2614 21.0209C6.3643 21.1666 6.40402 21.3427 6.37407 21.5176C6.34411 21.6925 6.24707 21.8459 6.10185 21.9479C5.95597 22.0506 5.77883 22.0903 5.60429 22.0604C5.42911 22.0305 5.27542 21.9336 5.17317 21.7887C5.07027 21.643 5.03055 21.4669 5.06051 21.292C5.09046 21.1172 5.1875 20.9637 5.33273 20.8617Z" fill="#A3EFE0"/>
<path d="M5.05531 25.8989C5.09959 25.6415 5.24222 25.4173 5.45517 25.2671C5.66878 25.1163 5.92733 25.0571 6.18587 25.102C6.44311 25.1462 6.66779 25.2879 6.81888 25.5011C6.96932 25.7137 7.02793 25.9724 6.98429 26.2298C6.94001 26.4866 6.79804 26.7109 6.58443 26.8617C6.37147 27.0118 6.11228 27.071 5.85373 27.0268C5.59649 26.9826 5.37181 26.8409 5.22073 26.6276C5.06964 26.4144 5.01037 26.1557 5.05531 25.8989Z" fill="#A3EFE0"/>
<path d="M31.6045 13.897L31.3909 12.634L33.1382 12.3343L33.6097 16.8723C32.3411 16.7306 31.6052 16.8353 30.8986 16.9399C30.1542 17.0498 29.4515 17.1538 28.0663 16.9581C26.6805 16.7625 26.0338 16.4686 25.35 16.1573C24.6355 15.8322 23.8964 15.4968 22.3809 15.2816L22.123 14.2156C22.1615 14.2104 22.1973 14.213 22.2364 14.2058L27.9387 13.2307L28.1653 14.5432C28.2486 15.0275 28.5339 15.4565 28.9494 15.7204C29.2327 15.9005 29.5596 15.9941 29.8911 15.9935C30.0454 15.9935 30.2011 15.9733 30.3535 15.9324C31.2118 15.6977 31.7615 14.8045 31.6045 13.897Z" fill="white"/>
<path d="M35.4801 30.7958L36.7826 34.7443C36.8582 34.9724 36.838 35.2168 36.7292 35.3982C36.6823 35.4762 36.599 35.5744 36.4655 35.5971L26.7808 37.26C26.6519 37.2827 26.5366 37.2184 26.4656 37.1599C26.3022 37.0246 26.2019 36.8004 26.1973 36.5592L26.1211 32.5939C26.0951 31.2905 25.9297 29.9859 25.6268 28.7131L22.6233 16.2834C23.7473 16.4765 24.338 16.7423 24.9554 17.0225C25.6711 17.3482 26.4116 17.6849 27.9342 17.8994C28.5496 17.9865 29.0485 18.0184 29.4744 18.0184C30.1022 18.0184 30.5756 17.9488 31.0387 17.8799C31.7524 17.7746 32.4343 17.6778 33.7114 17.8422L34.6661 27.0216C34.8029 28.3035 35.077 29.5737 35.4801 30.7958Z" fill="white"/>
<path d="M21.3208 10.5928C21.5337 10.5031 21.6523 10.2736 21.6002 10.0487C21.5884 9.99541 21.5774 9.94146 21.5702 9.8862C21.5057 9.40516 21.6334 8.92867 21.9277 8.54384C22.2227 8.15901 22.65 7.91199 23.1312 7.84763C23.7017 7.77223 24.267 7.96659 24.6747 8.38523C24.7658 8.47818 24.8694 8.53149 25.0198 8.52954C25.1494 8.52889 25.2732 8.47493 25.363 8.38068C25.5766 8.15446 25.8502 8.00755 26.1556 7.95424C26.4871 7.89834 26.8257 7.96009 27.1155 8.12716C27.2445 8.20256 27.4034 8.21296 27.5408 8.15446C27.6795 8.0966 27.7818 7.97634 27.8182 7.83073C28.0201 7.01816 28.7209 6.43637 29.5623 6.38436C30.3483 6.33496 31.0875 6.7861 31.4111 7.50375C31.5746 7.86583 31.6195 8.24677 31.5466 8.6381C31.5121 8.81946 31.5863 9.00473 31.7374 9.11199C31.8872 9.22055 32.0871 9.2303 32.248 9.13994C32.4707 9.01513 32.7123 8.96573 32.9624 8.99108C33.4567 9.04048 33.8878 9.40841 34.0116 9.88555C34.0982 10.219 34.0428 10.561 33.8579 10.8476C33.6716 11.135 33.3831 11.3254 33.0458 11.3839L31.2288 11.6953C30.7091 11.785 30.3594 12.2797 30.448 12.7984L30.6648 14.0569C30.7391 14.4866 30.4916 14.9059 30.1015 15.0119C29.8801 15.0723 29.6528 15.0379 29.46 14.9163C29.2685 14.7941 29.1416 14.6036 29.1025 14.38L28.8758 13.0676C28.7957 12.6028 28.39 12.2745 27.9335 12.2745C27.8794 12.2745 27.8247 12.279 27.77 12.2881L22.073 13.2665C21.6542 13.3373 21.2784 13.2652 20.9906 13.0539C20.7021 12.842 20.5119 12.5001 20.4579 12.0918C20.3745 11.458 20.7294 10.8411 21.3208 10.5928Z" fill="white"/>
<path d="M36.6524 32.0309L37.9549 35.9793C38.0304 36.2075 38.0102 36.4519 37.9015 36.6333C37.8546 36.7113 37.7712 36.8095 37.6377 36.8322L27.9531 38.4951C27.8241 38.5178 27.7089 38.4535 27.6379 38.3949C27.4744 38.2597 27.3741 38.0355 27.3696 37.7943L27.2934 33.829C27.2673 32.5256 27.1019 31.221 26.7991 29.9482L23.7955 17.5185C24.9196 17.7115 25.5103 17.9774 26.1276 18.2576C26.8434 18.5833 27.5838 18.92 29.1064 19.1345C29.7219 19.2216 30.2207 19.2535 30.6466 19.2535C31.2744 19.2535 31.7479 19.1839 32.2109 19.115C32.9247 19.0097 33.6065 18.9128 34.8836 19.0773L35.8383 28.2567C35.9751 29.5386 36.2493 30.8088 36.6524 32.0309Z" fill="#A3EFE0"/>
<path d="M27.5037 21.1653C27.3859 21.3323 27.21 21.4429 27.0075 21.478C26.5894 21.5482 26.1941 21.2699 26.1224 20.8533C26.0879 20.6517 26.1335 20.4489 26.2514 20.2819C26.3693 20.1148 26.5451 20.0043 26.7476 19.9692C26.7913 19.9614 26.8349 19.9581 26.8772 19.9581C27.2439 19.9581 27.5682 20.2214 27.6327 20.5939C27.6678 20.7954 27.6216 20.9976 27.5037 21.1653Z" fill="white"/>
<path d="M29.7628 33.2426C29.1122 33.3544 28.4851 32.9156 28.3731 32.2617C28.2604 31.609 28.7006 30.9863 29.3558 30.8745C29.4242 30.8628 29.4926 30.8569 29.5603 30.8569C30.1353 30.8569 30.6446 31.271 30.7455 31.8554C30.8569 32.5074 30.4167 33.1295 29.7628 33.2426Z" fill="white"/>
<path d="M30.7651 21.4441C30.868 21.2992 31.021 21.2023 31.1969 21.1724C31.2353 21.1659 31.2731 21.1627 31.3108 21.1627C31.447 21.1627 31.5798 21.2043 31.6938 21.2849C31.8397 21.3869 31.936 21.5397 31.966 21.7146C31.966 21.7146 31.966 21.7146 31.966 21.7152C31.996 21.8901 31.9562 22.0663 31.8533 22.2119C31.7511 22.3568 31.5974 22.4537 31.4222 22.4836C31.0614 22.5453 30.715 22.3022 30.6524 21.9401C30.6218 21.7653 30.6622 21.5891 30.7651 21.4441Z" fill="white"/>
<path d="M31.8891 27.5144C31.7387 27.7269 31.5134 27.8693 31.2561 27.9135C30.9976 27.957 30.7384 27.8985 30.5261 27.7484C30.3125 27.5982 30.1705 27.3733 30.1262 27.1165C30.0819 26.8598 30.1405 26.6004 30.2916 26.3878C30.4421 26.1746 30.6674 26.0329 30.9246 25.9887C30.9806 25.9789 31.0367 25.9744 31.0927 25.9744C31.2926 25.9744 31.488 26.0355 31.6547 26.1538C31.8683 26.304 32.0103 26.5289 32.0546 26.7856V26.7863C32.0988 27.0418 32.0402 27.3005 31.8891 27.5144Z" fill="white"/>
<path d="M28.0247 21.4903C27.9068 21.6574 27.731 21.7679 27.5285 21.803C27.1104 21.8732 26.7151 21.595 26.6434 21.1783C26.6089 20.9768 26.6545 20.7739 26.7724 20.6069C26.8903 20.4398 27.0661 20.3293 27.2686 20.2942C27.3123 20.2864 27.3559 20.2832 27.3982 20.2832C27.7649 20.2832 28.0892 20.5464 28.1537 20.9189C28.1888 21.1204 28.1426 21.3226 28.0247 21.4903Z" fill="#CCB8F4"/>
<path d="M30.2838 33.5676C29.6332 33.6795 29.0061 33.2407 28.8941 32.5867C28.7814 31.9341 29.2216 31.3113 29.8768 31.1995C29.9452 31.1878 30.0135 31.1819 30.0813 31.1819C30.6563 31.1819 31.1656 31.596 31.2665 32.1804C31.3779 32.8324 30.9377 33.4545 30.2838 33.5676Z" fill="#CCB8F4"/>
<path d="M31.2861 21.7692C31.389 21.6242 31.542 21.5274 31.7179 21.4975C31.7563 21.491 31.7941 21.4877 31.8318 21.4877C31.968 21.4877 32.1008 21.5293 32.2148 21.6099C32.3607 21.712 32.457 21.8647 32.487 22.0396C32.487 22.0396 32.487 22.0396 32.487 22.0402C32.517 22.2151 32.4772 22.3913 32.3743 22.5369C32.2721 22.6819 32.1184 22.7787 31.9432 22.8086C31.5824 22.8704 31.236 22.6272 31.1734 22.2652C31.1428 22.0903 31.1832 21.9141 31.2861 21.7692Z" fill="#CCB8F4"/>
<path d="M32.4101 27.8394C32.2597 28.0519 32.0344 28.1943 31.7771 28.2385C31.5186 28.2821 31.2594 28.2236 31.0471 28.0734C30.8335 27.9232 30.6915 27.6983 30.6472 27.4415C30.6029 27.1848 30.6615 26.9254 30.8126 26.7128C30.9631 26.4996 31.1884 26.3579 31.4456 26.3137C31.5016 26.3039 31.5576 26.2994 31.6137 26.2994C31.8136 26.2994 32.009 26.3605 32.1757 26.4788C32.3893 26.629 32.5313 26.8539 32.5755 27.1107V27.1113C32.6198 27.3668 32.5612 27.6255 32.4101 27.8394Z" fill="#CCB8F4"/>
<path d="M1.1511 34.6448L10.8364 36.307C10.9093 36.3193 10.9829 36.3258 11.0552 36.3258C11.3633 36.3258 11.6635 36.2153 11.9207 36.0027C12.2958 35.694 12.5257 35.2019 12.5355 34.6877L12.611 30.7224C12.6351 29.4866 12.7927 28.2496 13.0786 27.0457L16.6507 12.2608C16.9014 12.1906 17.1385 12.0866 17.3501 11.9319C17.8496 11.5653 18.174 10.9958 18.2632 10.3289C18.3876 9.39735 17.9454 8.48922 17.1658 8.00168C17.2284 7.31068 17.0323 6.63072 16.6071 6.07623C16.1577 5.48988 15.5058 5.11285 14.7725 5.01534C14.0568 4.91848 13.3346 5.11155 12.7608 5.53473C12.4717 5.32736 12.1395 5.18825 11.7833 5.1278C11.4199 5.06474 11.0494 5.08814 10.7003 5.1928C10.2633 4.25347 9.3444 3.61382 8.27441 3.54687C7.09826 3.47211 5.98268 4.14882 5.49685 5.22465C5.36074 5.52563 5.27934 5.84416 5.25329 6.16788C5.0781 6.14188 4.89901 6.13798 4.71796 6.15618C3.8212 6.24589 3.06771 6.89074 2.84173 7.75921C2.68999 8.34491 2.79093 8.97091 3.11786 9.47601C3.27546 9.71978 3.4819 9.92389 3.717 10.0851L2.16704 25.0311C2.03679 26.2487 1.77629 27.4526 1.39401 28.6097L0.0915261 32.5575C-0.0693311 33.045 -0.0159291 33.5839 0.234149 33.9993C0.4445 34.351 0.770774 34.5798 1.1511 34.6448ZM6.39361 10.7352L5.90258 13.156C5.74628 14.0634 6.29593 14.9573 7.15492 15.19C7.30666 15.2316 7.46231 15.2517 7.6173 15.2511C7.94813 15.2511 8.27636 15.1581 8.559 14.9787C8.97384 14.7141 9.25974 14.2851 9.34114 13.8151L9.84651 11.3384L15.5449 12.3167C15.5833 12.3232 15.6198 12.3213 15.6576 12.3265L14.9366 15.3102C13.5423 15.5254 12.8273 15.8459 12.1428 16.1579C11.4583 16.4693 10.8117 16.7631 9.42711 16.9588C8.04126 17.1544 7.33922 17.0504 6.5942 16.9406C5.90453 16.8385 5.19077 16.7352 3.9762 16.8619L4.64307 10.4452L6.39361 10.7352ZM3.7665 7.99713C3.89023 7.51999 4.32136 7.15271 4.81565 7.10266C4.85863 7.09811 4.90096 7.09616 4.94264 7.09616C5.14909 7.09616 5.34576 7.14816 5.53006 7.25152C5.69092 7.34188 5.89085 7.33213 6.04064 7.22357C6.19108 7.11631 6.26597 6.93105 6.23145 6.74968C6.15851 6.359 6.20345 5.97677 6.36691 5.61534C6.69123 4.89638 7.44212 4.44849 8.21644 4.49594C9.0572 4.54795 9.75794 5.12975 9.95983 5.94231C9.99629 6.08793 10.0985 6.20754 10.2373 6.26604C10.3747 6.32455 10.5329 6.3148 10.6625 6.23874C10.9523 6.07102 11.2936 6.01057 11.6225 6.06582C11.9272 6.11783 12.2014 6.26539 12.4157 6.49226C12.5055 6.58652 12.6286 6.64047 12.7589 6.64112C12.7602 6.64112 12.7615 6.64112 12.7621 6.64112C12.8911 6.64112 13.0142 6.58912 13.104 6.49681C13.5104 6.07882 14.0718 5.88121 14.6475 5.95987C15.1287 6.02422 15.556 6.27124 15.8503 6.65607C16.1447 7.04155 16.2723 7.51804 16.2079 7.99843C16.2 8.05369 16.1896 8.10764 16.1779 8.16095C16.1265 8.38587 16.2443 8.61533 16.4573 8.70504C17.0493 8.95336 17.4029 9.57091 17.3189 10.2054C17.2648 10.6136 17.0747 10.9549 16.7855 11.1668C16.4977 11.3781 16.1206 11.4502 15.7038 11.3794L10.0061 10.401C9.48767 10.3152 8.99012 10.6604 8.90286 11.1661L8.4027 13.6402C8.36428 13.8639 8.23663 14.0543 8.04517 14.1765C7.85501 14.2981 7.62707 14.3332 7.40434 14.2721C7.0149 14.1661 6.76678 13.7469 6.83841 13.3308L7.32945 10.9107C7.41932 10.3919 7.0696 9.89724 6.54926 9.80753L4.73229 9.49551C4.39429 9.43765 4.10644 9.24784 3.92019 8.95986C3.73458 8.67189 3.67988 8.33061 3.7665 7.99713ZM0.996104 32.8545L2.29859 28.9068C2.70106 27.6866 2.97589 26.4158 3.11395 25.1306L3.87265 17.8305C5.08852 17.6823 5.75605 17.7765 6.45223 17.8792C6.91526 17.9482 7.38871 18.0177 8.01586 18.0177C8.44308 18.0177 8.94128 17.9859 9.55671 17.8988C11.0787 17.6842 11.8191 17.3475 12.5348 17.0218C13.119 16.7566 13.6791 16.5037 14.6911 16.3139L12.1513 26.8246C11.8484 28.0961 11.683 29.4014 11.657 30.7042L11.5814 34.6695C11.5769 34.9107 11.4759 35.1349 11.3131 35.2695C11.2428 35.328 11.1282 35.3936 10.9979 35.3696L1.31326 33.7074C1.18106 33.6847 1.0977 33.5865 1.05016 33.5085C0.940748 33.3278 0.92056 33.0834 0.996104 32.8545Z" fill="#464860"/>
<path d="M10.4248 23.0082C10.5231 23.0251 10.6208 23.0335 10.7172 23.0335C11.5384 23.0335 12.2671 22.4426 12.411 21.608C12.5719 20.6745 11.9428 19.7852 11.0083 19.6253C10.0731 19.468 9.18218 20.092 9.02197 21.0255C8.86046 21.9583 9.49022 22.8476 10.4248 23.0082ZM9.96041 21.1867C10.0249 20.8143 10.3492 20.551 10.7159 20.551C10.7595 20.551 10.8025 20.5549 10.8461 20.562C11.2629 20.6335 11.5436 21.0301 11.472 21.4455C11.4003 21.8621 11.0018 22.141 10.5869 22.0702C10.1695 21.9993 9.88943 21.6028 9.96041 21.1867Z" fill="#464860"/>
<path d="M6.09532 30.5696C5.89408 31.7397 6.68274 32.8552 7.85433 33.0561C7.97741 33.0775 8.1005 33.0873 8.22098 33.0873C9.25124 33.0873 10.1649 32.3455 10.3453 31.2996C10.5466 30.1295 9.75791 29.014 8.58632 28.8132C7.41278 28.6097 6.29655 29.4001 6.09532 30.5696ZM8.42416 29.7512C9.07866 29.8636 9.5189 30.4857 9.40689 31.1384C9.29422 31.791 8.66708 32.2285 8.01714 32.1193C7.36264 32.0069 6.9224 31.3848 7.03441 30.7321C7.13535 30.1477 7.64462 29.7336 8.21967 29.7336C8.2874 29.7336 8.35578 29.7388 8.42416 29.7512Z" fill="#464860"/>
<path d="M5.96317 22.6721C6.0563 22.6883 6.14943 22.6961 6.24125 22.6961C6.57273 22.6961 6.89575 22.5941 7.17188 22.3997C7.5255 22.1508 7.7606 21.7789 7.83354 21.3538C7.98528 20.4749 7.392 19.6376 6.51282 19.4868C5.63104 19.3367 4.79354 19.9276 4.64245 20.8051C4.56886 21.2316 4.66654 21.6593 4.91532 22.0116C5.16475 22.3653 5.53726 22.5993 5.96317 22.6721ZM5.85376 20.5367C5.96773 20.4561 6.10058 20.4145 6.23669 20.4145C6.27512 20.4145 6.31289 20.4177 6.35131 20.4242C6.5265 20.4541 6.68019 20.551 6.78244 20.6959C6.88533 20.8415 6.92506 21.0177 6.8951 21.1926C6.86514 21.3674 6.76811 21.5209 6.62288 21.6229C6.477 21.7256 6.29986 21.7653 6.12533 21.7354C5.95015 21.7055 5.79645 21.6086 5.69421 21.4636C5.59131 21.318 5.55158 21.1419 5.58154 20.967C5.6115 20.7921 5.70853 20.6387 5.85376 20.5367Z" fill="#464860"/>
<path d="M6.21259 27.6385C6.3233 27.6573 6.43466 27.6671 6.54407 27.6671C6.93938 27.6671 7.32491 27.5455 7.65444 27.3135C8.07645 27.0164 8.35648 26.5731 8.4431 26.066C8.53102 25.5583 8.41509 25.0474 8.11748 24.6274C7.81986 24.2062 7.37571 23.9267 6.86774 23.8402C6.36107 23.7531 5.84789 23.8688 5.42654 24.1653C5.00453 24.4623 4.7245 24.9057 4.63723 25.4127V25.4134C4.54931 25.9204 4.66588 26.4313 4.9635 26.8519C5.26112 27.2719 5.70397 27.5514 6.21259 27.6385ZM5.57632 25.5739C5.62061 25.3165 5.76323 25.0922 5.97619 24.9421C6.18979 24.7913 6.44834 24.7321 6.70688 24.777C6.96412 24.8212 7.1888 24.9629 7.33989 25.1761C7.49033 25.3887 7.54894 25.6474 7.50531 25.9048C7.46102 26.1616 7.31905 26.3858 7.10544 26.5367C6.89249 26.6868 6.63329 26.746 6.37475 26.7018C6.11751 26.6576 5.89283 26.5159 5.74174 26.3026C5.59065 26.0894 5.53139 25.8307 5.57632 25.5739Z" fill="#464860"/>
<path d="M20.4286 13.8216C20.6402 13.977 20.8773 14.081 21.128 14.1518L24.7001 28.9347C24.9867 30.1393 25.1449 31.377 25.1677 32.6121L25.2439 36.5774C25.2537 37.0916 25.4835 37.583 25.858 37.8925C26.1146 38.1044 26.4168 38.2162 26.7235 38.2162C26.7958 38.2162 26.8687 38.2097 26.9417 38.1973L36.627 36.5345C37.008 36.4688 37.3336 36.2394 37.5459 35.8883C37.7953 35.473 37.8487 34.9341 37.6879 34.4472L36.3854 30.4987C36.0024 29.3397 35.7426 28.1358 35.6123 26.9215L34.0598 11.9748C34.2955 11.8143 34.502 11.6088 34.6596 11.3657C34.9872 10.86 35.0868 10.234 34.9351 9.64892C34.7104 8.78045 33.9562 8.13625 33.0588 8.04589C32.8797 8.02769 32.6993 8.03224 32.5235 8.05759C32.4974 7.73387 32.416 7.41534 32.2799 7.11502C31.7941 6.03723 30.6844 5.36312 29.503 5.43658C28.4324 5.50288 27.5135 6.14318 27.0765 7.08251C26.7281 6.9785 26.3569 6.95445 25.9941 7.01751C25.6372 7.07861 25.3058 7.21772 25.016 7.42444C24.4416 7.00191 23.7167 6.81144 23.0049 6.90505C22.271 7.00256 21.6197 7.37959 21.1697 7.96594C20.7444 8.52108 20.5484 9.20039 20.6109 9.89139C19.8308 10.3789 19.3899 11.2871 19.5142 12.2186C19.6048 12.8855 19.9291 13.455 20.4286 13.8216ZM31.6046 13.897L31.391 12.634L33.1383 12.3343L33.6098 16.8723C32.3411 16.7306 31.6052 16.8353 30.8986 16.9399C30.1543 17.0498 29.4516 17.1538 28.0664 16.9581C26.6805 16.7625 26.0339 16.4686 25.35 16.1573C24.6356 15.8322 23.8965 15.4968 22.381 15.2816L22.1231 14.2156C22.1616 14.2104 22.1974 14.2129 22.2364 14.2058L27.9387 13.2307L28.1654 14.5432C28.2487 15.0275 28.534 15.4565 28.9495 15.7204C29.2328 15.9005 29.5597 15.9941 29.8912 15.9934C30.0455 15.9934 30.2012 15.9733 30.3535 15.9323C31.2119 15.6977 31.7615 14.8045 31.6046 13.897ZM35.4801 30.7958L36.7826 34.7442C36.8582 34.9724 36.838 35.2168 36.7292 35.3982C36.6823 35.4762 36.599 35.5744 36.4655 35.5971L26.7808 37.26C26.6519 37.2827 26.5366 37.2183 26.4656 37.1598C26.3022 37.0246 26.2019 36.8004 26.1973 36.5592L26.1211 32.5939C26.0951 31.2905 25.9297 29.9859 25.6268 28.713L22.6233 16.2834C23.7473 16.4764 24.338 16.7423 24.9554 17.0225C25.6711 17.3482 26.4116 17.6849 27.9342 17.8994C28.5496 17.9865 29.0485 18.0184 29.4744 18.0184C30.1022 18.0184 30.5756 17.9488 31.0387 17.8799C31.7524 17.7746 32.4343 17.6777 33.7114 17.8422L34.6661 27.0216C34.8028 28.3035 35.077 29.5737 35.4801 30.7958ZM21.3208 10.5928C21.5338 10.5031 21.6523 10.2736 21.6002 10.0487C21.5885 9.9954 21.5774 9.94145 21.5702 9.88619C21.5058 9.40515 21.6334 8.92867 21.9278 8.54383C22.2228 8.159 22.65 7.91198 23.1313 7.84763C23.7017 7.77222 24.267 7.96659 24.6747 8.38522C24.7659 8.47818 24.8694 8.53148 25.0199 8.52953C25.1495 8.52888 25.2732 8.47493 25.3631 8.38067C25.5767 8.15445 25.8502 8.00754 26.1556 7.95423C26.4871 7.89833 26.8258 7.96008 27.1156 8.12715C27.2445 8.20255 27.4034 8.21296 27.5408 8.15445C27.6795 8.0966 27.7818 7.97634 27.8183 7.83072C28.0201 7.01816 28.7209 6.43636 29.5623 6.38436C30.3483 6.33495 31.0875 6.78609 31.4112 7.50375C31.5746 7.86583 31.6196 8.24676 31.5466 8.63809C31.5121 8.81946 31.5864 9.00472 31.7374 9.11198C31.8872 9.22054 32.0872 9.23029 32.248 9.13993C32.4707 9.01512 32.7124 8.96572 32.9624 8.99107C33.4567 9.04047 33.8879 9.4084 34.0116 9.88554C34.0982 10.219 34.0428 10.5609 33.8579 10.8476C33.6716 11.1349 33.3831 11.3254 33.0458 11.3839L31.2288 11.6953C30.7091 11.785 30.3594 12.2797 30.448 12.7984L30.6648 14.0569C30.7391 14.4866 30.4916 14.9059 30.1015 15.0119C29.8801 15.0723 29.6528 15.0379 29.46 14.9163C29.2686 14.7941 29.1416 14.6036 29.1025 14.38L28.8759 13.0676C28.7958 12.6028 28.39 12.2745 27.9335 12.2745C27.8795 12.2745 27.8248 12.279 27.7701 12.2881L22.073 13.2665C21.6542 13.3373 21.2785 13.2652 20.9906 13.0539C20.7021 12.842 20.512 12.5001 20.4579 12.0918C20.3745 11.458 20.7295 10.8411 21.3208 10.5928Z" fill="#464860"/>
<path d="M28.2819 21.7133C28.5476 21.3388 28.6499 20.8838 28.5717 20.432C28.4942 19.9802 28.2441 19.5856 27.8697 19.3217C27.4939 19.0565 27.0361 18.9538 26.5867 19.0318C26.1334 19.1092 25.7381 19.3588 25.4731 19.7332C25.2074 20.1076 25.1051 20.5627 25.1833 21.0145C25.3272 21.8491 26.0559 22.44 26.8765 22.44C26.9736 22.44 27.0712 22.4316 27.1689 22.4147C27.6215 22.3373 28.0168 22.0884 28.2819 21.7133ZM27.5037 21.1653C27.3858 21.3323 27.21 21.4429 27.0074 21.478C26.5893 21.5482 26.194 21.2699 26.1224 20.8533C26.0879 20.6517 26.1334 20.4489 26.2513 20.2819C26.3692 20.1148 26.545 20.0043 26.7476 19.9692C26.7912 19.9614 26.8348 19.9581 26.8772 19.9581C27.2438 19.9581 27.5681 20.2214 27.6326 20.5939C27.6678 20.7954 27.6215 20.9976 27.5037 21.1653Z" fill="#464860"/>
<path d="M29.1924 29.9371C28.0208 30.138 27.2315 31.2535 27.4334 32.4236C27.6138 33.4701 28.5275 34.2112 29.5577 34.2112C29.6782 34.2112 29.8013 34.2014 29.9244 34.18C31.096 33.9791 31.8853 32.8636 31.6834 31.6935C31.4828 30.5241 30.3705 29.733 29.1924 29.9371ZM29.7629 33.2426C29.1123 33.3544 28.4851 32.9156 28.3731 32.2617C28.2604 31.609 28.7007 30.9863 29.3558 30.8745C29.4242 30.8628 29.4926 30.8569 29.5603 30.8569C30.1354 30.8569 30.6447 31.271 30.7456 31.8554C30.857 32.5074 30.4167 33.1295 29.7629 33.2426Z" fill="#464860"/>
<path d="M31.3089 23.4443C31.3994 23.4443 31.4919 23.4365 31.5844 23.4203C32.011 23.3475 32.3828 23.1128 32.6322 22.7598C32.8817 22.4075 32.9794 21.9791 32.9051 21.5533C32.8322 21.1276 32.5971 20.7564 32.2434 20.5074C31.8905 20.2584 31.462 20.1596 31.0347 20.235C30.6082 20.3078 30.2363 20.5425 29.9869 20.8955C29.7375 21.2485 29.6398 21.6769 29.7134 22.1026C29.8488 22.8879 30.5352 23.4443 31.3089 23.4443ZM30.7651 21.4441C30.868 21.2992 31.0211 21.2023 31.1969 21.1724C31.2353 21.1659 31.2731 21.1627 31.3109 21.1627C31.447 21.1627 31.5798 21.2043 31.6938 21.2849C31.8397 21.3869 31.9361 21.5397 31.966 21.7146C31.966 21.7146 31.966 21.7146 31.966 21.7152C31.996 21.8901 31.9562 22.0662 31.8534 22.2118C31.7511 22.3568 31.5974 22.4537 31.4222 22.4836C31.0614 22.5453 30.715 22.3022 30.6525 21.9401C30.6218 21.7653 30.6622 21.5891 30.7651 21.4441Z" fill="#464860"/>
<path d="M32.205 25.3763C31.7837 25.0793 31.2725 24.9635 30.7638 25.0513C30.2552 25.1384 29.8111 25.4179 29.5135 25.8385C29.2158 26.2591 29.1006 26.77 29.1878 27.2771C29.2751 27.7848 29.5551 28.2275 29.9765 28.5245C30.306 28.7573 30.6909 28.8782 31.0869 28.8782C31.1963 28.8782 31.3076 28.8684 31.4183 28.8496C31.9263 28.7618 32.3705 28.4829 32.6681 28.0617C32.9657 27.6411 33.081 27.1302 32.9937 26.6231C32.9064 26.1161 32.6264 25.6734 32.205 25.3763ZM31.8892 27.5144C31.7388 27.7269 31.5134 27.8693 31.2562 27.9135C30.9976 27.957 30.7384 27.8985 30.5261 27.7484C30.3125 27.5982 30.1706 27.3733 30.1263 27.1165C30.082 26.8598 30.1406 26.6004 30.2917 26.3878C30.4421 26.1746 30.6675 26.0329 30.9247 25.9887C30.9807 25.9789 31.0367 25.9744 31.0927 25.9744C31.2926 25.9744 31.488 26.0355 31.6547 26.1538C31.8683 26.304 32.0103 26.5289 32.0546 26.7856V26.7863C32.0989 27.0418 32.0403 27.3005 31.8892 27.5144Z" fill="#464860"/>
<path d="M18.3589 0.466914L18.3153 2.96312C18.3107 3.22639 18.5204 3.44286 18.7829 3.44741C18.7855 3.44741 18.7887 3.44741 18.7913 3.44741C19.0512 3.44741 19.2628 3.23939 19.268 2.98067L19.3117 0.484466C19.3162 0.221194 19.1065 0.00472617 18.8441 0.000175793C18.5797 -0.0069748 18.3635 0.204943 18.3589 0.466914Z" fill="#464860"/>
<path d="M22.4683 1.41925L21.1801 3.55922C21.0447 3.78479 21.1176 4.07667 21.3436 4.21188C21.4204 4.25803 21.5051 4.28013 21.5885 4.28013C21.7506 4.28013 21.9082 4.19758 21.9974 4.04936L23.2856 1.90939C23.4211 1.68382 23.3481 1.39195 23.1221 1.25673C22.8962 1.12087 22.6038 1.19368 22.4683 1.41925Z" fill="#464860"/>
<path d="M16.0424 4.26908C16.1284 4.26908 16.2156 4.24568 16.2938 4.19757C16.5172 4.05846 16.5849 3.76464 16.4455 3.54232L15.1203 1.42444C14.9802 1.20212 14.6865 1.13322 14.4638 1.27298C14.2404 1.41209 14.1727 1.70592 14.3121 1.92823L15.6373 4.04611C15.7279 4.18912 15.8835 4.26908 16.0424 4.26908Z" fill="#464860"/>
</svg>
