<svg width="43" height="39" viewBox="0 0 43 39" fill="none" xmlns="http://www.w3.org/2000/svg">
<path d="M33.15 28.09H32.47V29.73H33.15V28.09Z" fill="white"/>
<path d="M33.15 32.68H32.47V34.32H33.15V32.68Z" fill="white"/>
<path d="M32.47 35.09H33.84H33.94V34.99V31.98V31.88H33.84H32.47V30.5H33.83H33.93V30.4V27.4V27.3H33.83H32.47V26.11V26.01H32.37H29.85V12.16H38.83V38.1H32.47V35.09Z" fill="white"/>
<path d="M30.32 34.35V38.1H27.71L27.73 34.35H30.32Z" fill="white"/>
<path d="M26.2001 24.75H25.6201H25.5201V24.85V26.01H24.3601V24.85V24.75H24.2601H23.6901H23.5901V24.85V26.01H23.2101V20.54V20.44H23.1101H20.4301V0.77H27.4501V26.01H26.3001V24.85V24.75H26.2001Z" fill="white"/>
<path d="M31.03 33.56H27.05H26.95V33.66V38.1H23.21V26.83H31.69V38.1H31.1L31.13 33.67V33.56H31.03Z" fill="white"/>
<path d="M22.43 21.22H13.45V38.1H22.43V21.22Z" fill="white"/>
<path d="M12.68 6.59H3.69995V38.1H12.68V6.59Z" fill="white"/>
<path d="M37.27 28.09H35.63V29.73H37.27V28.09Z" fill="white"/>
<path d="M37.27 32.68H35.63V34.32H37.27V32.68Z" fill="white"/>
<path d="M37.27 14.32H35.63V15.96H37.27V14.32Z" fill="white"/>
<path d="M37.27 23.5H35.63V25.14H37.27V23.5Z" fill="white"/>
<path d="M37.27 18.91H35.63V20.55H37.27V18.91Z" fill="white"/>
<path d="M33.17 23.5H31.53V25.14H33.17V23.5Z" fill="white"/>
<path d="M33.17 18.91H31.53V20.55H33.17V18.91Z" fill="white"/>
<path d="M33.17 14.32H31.53V15.96H33.17V14.32Z" fill="white"/>
<path d="M33.15 28.09H32.47V29.73H33.15V28.09Z" fill="white"/>
<path d="M33.15 32.68H32.47V34.32H33.15V32.68Z" fill="white"/>
<path d="M33.21 35.65H34.58H34.68V35.55V32.55V32.45H34.58H33.21V31.07H34.57H34.67V30.97V27.96V27.86H34.57H33.21V26.68V26.58H33.11H30.59V12.73H39.57V38.67H33.21V35.65Z" fill="#A3EFE0"/>
<path d="M30.32 34.35V38.1H27.71L27.73 34.35H30.32Z" fill="white"/>
<path d="M26.94 25.32H26.36H26.26V25.42V26.57H25.1V25.42V25.32H25H24.43H24.33V25.42V26.58H23.95V21.1V21H23.85H21.17V1.34H28.19V26.58H27.04V25.42V25.32H26.94Z" fill="#CCB8F4"/>
<path d="M31.77 34.13H27.79H27.69V34.23V38.67H23.95V27.4H32.43V38.67H31.84L31.87 34.23V34.13H31.77Z" fill="#CCB8F4"/>
<path d="M23.1699 21.79H14.1899V38.67H23.1699V21.79Z" fill="#A3EFE0"/>
<path d="M13.4199 7.15H4.43994V38.66H13.4199V7.15Z" fill="#CCB8F4"/>
<path d="M37.27 28.09H35.63V29.73H37.27V28.09Z" fill="white"/>
<path d="M37.27 32.68H35.63V34.32H37.27V32.68Z" fill="white"/>
<path d="M37.27 14.32H35.63V15.96H37.27V14.32Z" fill="white"/>
<path d="M37.27 23.5H35.63V25.14H37.27V23.5Z" fill="white"/>
<path d="M37.27 18.91H35.63V20.55H37.27V18.91Z" fill="white"/>
<path d="M33.17 23.5H31.53V25.14H33.17V23.5Z" fill="white"/>
<path d="M33.17 18.91H31.53V20.55H33.17V18.91Z" fill="white"/>
<path d="M33.17 14.32H31.53V15.96H33.17V14.32Z" fill="white"/>
<path d="M26.32 20.19V18.35V18.25H26.22H25.64H25.54V18.35V20.19V20.29H25.64H26.22H26.32V20.19Z" fill="#464860"/>
<path d="M21.74 18.25H21.64V18.35V20.19V20.29H21.74H22.32H22.42V20.19V18.35V18.25H22.32H21.74Z" fill="#464860"/>
<path d="M21.74 15H21.64V15.1V16.94V17.04H21.74H22.32H22.42V16.94V15.1V15H22.32H21.74Z" fill="#464860"/>
<path d="M23.69 18.25H23.59V18.35V20.19V20.29H23.69H24.27H24.37V20.19V18.35V18.25H24.27H23.69Z" fill="#464860"/>
<path d="M25.64 15H25.54V15.1V16.94V17.04H25.64H26.22H26.32V16.94V15.1V15H26.22H25.64Z" fill="#464860"/>
<path d="M11.95 9.32H12.05V9.22V8.65V8.55H11.95H4.55996H4.45996V8.65V9.22V9.32H4.55996H11.95Z" fill="#464860"/>
<path d="M25.62 21.5H25.52V21.6V23.44V23.54H25.62H26.19H26.29V23.44V21.6V21.5H26.19H25.62Z" fill="#464860"/>
<path d="M26.19 13.79H26.29V13.69V11.85V11.75H26.19H25.62H25.52V11.85V13.69V13.79H25.62H26.19Z" fill="#464860"/>
<path d="M23.69 15H23.59V15.1V16.94V17.04H23.69H24.27H24.37V16.94V15.1V15H24.27H23.69Z" fill="#464860"/>
<path d="M26.2 7.27H26.3V7.17V5.35V5.25H26.2H25.63H25.53V5.35V7.17V7.27H25.63H26.2Z" fill="#464860"/>
<path d="M22.29 13.79H22.39V13.69V11.85V11.75H22.29H21.72H21.62V11.85V13.69V13.79H21.72H22.29Z" fill="#464860"/>
<path d="M26.2 10.52H26.3V10.42V8.6V8.5H26.2H25.62H25.52V8.6V10.42V10.52H25.62H26.2Z" fill="#464860"/>
<path d="M11.95 22.66H12.05V22.56V21.98V21.88H11.95H4.55996H4.45996V21.98V22.56V22.66H4.55996H11.95Z" fill="#464860"/>
<path d="M11.94 14.67H12.03L12.04 14.58L12.05 14V13.9H11.95H4.55996H4.45996V14V14.57V14.67H4.55996H11.94Z" fill="#464860"/>
<path d="M11.96 28H12.07L12.06 27.9L12.05 27.33L12.04 27.23H11.95H4.55996H4.45996V27.33V27.9V28H4.55996H11.96Z" fill="#464860"/>
<path d="M11.94 25.33H12.03L12.04 25.24L12.05 24.66V24.56H11.95H4.55996H4.45996V24.66V25.23V25.33H4.55996H11.94Z" fill="#464860"/>
<path d="M11.96 20H12.06V19.9L12.05 19.33V19.23H11.95H4.55996H4.45996V19.33V19.9V20H4.55996H11.96Z" fill="#464860"/>
<path d="M11.95 30.66H12.05V30.56V29.98V29.88H11.95H4.55996H4.45996V29.98V30.56V30.66H4.55996H11.95Z" fill="#464860"/>
<path d="M11.96 17.34H12.06V17.23L12.05 16.66V16.56H11.95H4.55996H4.45996V16.66V17.24V17.34H4.55996H11.96Z" fill="#464860"/>
<path d="M11.95 33.33H12.05V33.23V32.66V32.56H11.95H4.55996H4.45996V32.66V33.23V33.33H4.55996H11.95Z" fill="#464860"/>
<path d="M22.3 4.02H22.4V3.92V2.1V2H22.3H21.73H21.63V2.1V3.92V4.02H21.73H22.3Z" fill="#464860"/>
<path d="M22.3 7.27H22.4V7.17V5.35V5.25H22.3H21.73H21.63V5.35V7.17V7.27H21.73H22.3Z" fill="#464860"/>
<path d="M24.25 4.02H24.35V3.92V2.1V2H24.25H23.68H23.58V2.1V3.92V4.02H23.68H24.25Z" fill="#464860"/>
<path d="M22.3 10.52H22.4V10.42V8.6V8.5H22.3H21.73H21.63V8.6V10.42V10.52H21.73H22.3Z" fill="#464860"/>
<path d="M11.95 11.99H12.05V11.89V11.32V11.22H11.95H4.55996H4.45996V11.32V11.89V11.99H4.55996H11.95Z" fill="#464860"/>
<path d="M11.94 36.02H12.04V35.93L12.05 35.35V35.25H11.95H4.55996H4.45996V35.35V35.92V36.02H4.55996H11.94Z" fill="#464860"/>
<path d="M26.2 4.02H26.3V3.92V2.1V2H26.2H25.63H25.53V2.1V3.92V4.02H25.63H26.2Z" fill="#464860"/>
<path d="M34.93 13.53H34.83V13.63V16.63V16.73H34.93H37.95H38.05V16.63V13.63V13.53H37.95H34.93ZM35.63 15.96V14.32H37.27V15.96H35.63Z" fill="#464860"/>
<path d="M34.93 22.7H34.83V22.8V25.8V25.9H34.93H37.95H38.05V25.8V22.8V22.7H37.95H34.93ZM35.63 25.13V23.5H37.27V25.14H35.63V25.13Z" fill="#464860"/>
<path d="M30.81 29.78V29.68H30.71H24.15H24.05V29.78V30.36V30.46H24.15H30.73H30.84L30.83 30.35L30.81 29.78Z" fill="#464860"/>
<path d="M24.15 35.55H24.05V35.65V36.23V36.33H24.15H26.22H26.32V36.23V35.65V35.55H26.22H24.15Z" fill="#464860"/>
<path d="M26.32 33.68L26.31 33.59H26.22H24.15H24.05V33.69V34.26V34.36H24.15H26.24H26.34V34.26L26.32 33.68Z" fill="#464860"/>
<path d="M30.81 31.73V31.63H30.71H24.15H24.05V31.73V32.3V32.4H24.15H30.72H30.82V32.3L30.81 31.73Z" fill="#464860"/>
<path d="M34.93 18.12H34.83V18.22V21.22V21.32H34.93H37.95H38.05V21.22V18.22V18.12H37.95H34.93ZM35.63 20.55V18.91H37.27V20.55H35.63Z" fill="#464860"/>
<path d="M33.94 22.8V22.7H33.84H30.84H30.74V22.8V25.8V25.9H30.84H33.86H33.96V25.8L33.94 22.8ZM33.17 23.5V25.14H31.53V23.5H33.17Z" fill="#464860"/>
<path d="M42.53 38.77L42.52 38.19V38.09H42.42H39.6V11.48V11.38H39.5H29.17H29.07V11.48V26.01H28.23V0.1V0H28.13H19.75H19.65V0.1V20.44H13.44V5.9V5.8H13.34H3.02H2.92V5.9V38.1H0.1H0V38.2V38.77V38.87H0.1H42.43H42.53V38.77ZM32.47 29.73V28.09H33.15V29.73H32.47ZM32.47 34.32V32.68H33.15V34.32H32.47ZM32.47 35.09H33.83H33.93V34.99V31.99V31.89H33.83H32.47V30.5H33.83H33.93V30.4V27.4V27.3H33.83H32.47V26.12V26.02H32.37H29.85V12.16H38.83V38.1H32.48V35.09H32.47ZM30.32 34.35V38.1H27.71L27.73 34.35H30.32ZM26.2 24.75H25.63H25.53V24.85V26.01H24.37V24.85V24.75H24.27H23.7H23.6V24.85V26.01H23.23V20.54V20.44H23.13H20.45V0.77H27.46V26.01H26.3V24.85V24.75H26.2ZM31.03 33.56H27.05H26.95V33.66V38.1H23.21V26.83H31.69V38.1H31.1L31.13 33.66V33.56H31.03ZM13.45 38.1V21.22H22.43V38.1H13.45ZM12.68 6.59V38.1H3.7V6.59H12.68Z" fill="#464860"/>
<path d="M33.94 18.22V18.12H33.84H30.84H30.74V18.22V21.22V21.32H30.84H33.86H33.96V21.22L33.94 18.22ZM33.17 18.91V20.55H31.53V18.91H33.17Z" fill="#464860"/>
<path d="M34.93 27.29H34.83V27.39V30.4V30.5H34.93H37.95H38.05V30.4V27.39V27.29H37.95H34.93ZM35.63 29.72V28.08H37.27V29.72H35.63Z" fill="#464860"/>
<path d="M33.94 13.63V13.53H33.84H30.84H30.74V13.63V16.63V16.73H30.84H33.86H33.96V16.63L33.94 13.63ZM33.17 14.32V15.96H31.53V14.32H33.17Z" fill="#464860"/>
<path d="M24.25 7.27H24.35V7.17V5.35V5.25H24.25H23.68H23.58V5.35V7.17V7.27H23.68H24.25Z" fill="#464860"/>
<path d="M34.93 31.88H34.83V31.98V34.98V35.08H34.93H37.95H38.05V34.98V31.98V31.88H37.95H34.93ZM35.63 34.32V32.68H37.27V34.32H35.63Z" fill="#464860"/>
<path d="M20.14 22.5H20.04V22.6V26.04V26.14H20.14H20.72H20.82V26.04V22.6V22.5H20.72H20.14Z" fill="#464860"/>
<path d="M23.6699 21.5H23.5699V21.6V23.44V23.54H23.6699H24.2399H24.3399V23.44V21.6V21.5H24.2399H23.6699Z" fill="#464860"/>
<path d="M20.13 28.01H20.03V28.11V31.55V31.65H20.13H20.7H20.8V31.55V28.11V28.01H20.7H20.13Z" fill="#464860"/>
<path d="M24.25 10.52H24.35V10.42V8.6V8.5H24.25H23.68H23.58V8.6V10.42V10.52H23.68H24.25Z" fill="#464860"/>
<path d="M20.12 33.55H20.02V33.65V37.09V37.19H20.12H20.69H20.79V37.09V33.65V33.55H20.69H20.12Z" fill="#464860"/>
<path d="M24.2399 13.79H24.3399V13.69V11.85V11.75H24.2399H23.6699H23.5699V11.85V13.69V13.79H23.6699H24.2399Z" fill="#464860"/>
<path d="M15.18 33.55H15.08V33.65V37.09V37.19H15.18H15.75H15.85V37.09V33.65V33.55H15.75H15.18Z" fill="#464860"/>
<path d="M15.18 28.01H15.08V28.11V31.55V31.65H15.18H15.76H15.86V31.55V28.11V28.01H15.76H15.18Z" fill="#464860"/>
<path d="M15.2 22.5H15.1V22.6V26.04V26.14H15.2H15.77H15.87V26.04V22.6V22.5H15.77H15.2Z" fill="#464860"/>
<path d="M30.81 27.83V27.73H30.71H24.15H24.05V27.83V28.41V28.51H24.15H30.73H30.84L30.83 28.4L30.81 27.83Z" fill="#464860"/>
<path d="M17.65 33.55H17.55V33.65V37.09V37.19H17.65H18.22H18.32V37.09V33.65V33.55H18.22H17.65Z" fill="#464860"/>
<path d="M17.6699 22.5H17.5699V22.6V26.04V26.14H17.6699H18.2399H18.3399V26.04V22.6V22.5H18.2399H17.6699Z" fill="#464860"/>
<path d="M17.65 28.01H17.55V28.11V31.55V31.65H17.65H18.23H18.33V31.55V28.11V28.01H18.23H17.65Z" fill="#464860"/>
</svg>
