<svg width="40" height="34" viewBox="0 0 40 34" fill="none" xmlns="http://www.w3.org/2000/svg">
<path fill-rule="evenodd" clip-rule="evenodd" d="M16.0127 6.42005C16.0127 6.42005 36.7579 -3.93919 31.605 12.9363L35.6685 15.0349L37.6936 16.2847V17.2404L37.072 18.2162L35.615 18.3699L29.1188 16.1577L27.7955 12.9363L16.2667 6.94803L16.0127 6.42005Z" fill="white"/>
<path fill-rule="evenodd" clip-rule="evenodd" d="M14.5898 6.69373C14.5898 6.69373 35.335 -3.6655 30.1822 13.21L34.2457 15.3086L36.2707 16.5584V17.5141L35.6492 18.4899L34.1922 18.6436L27.6959 16.4314L26.3726 13.21L14.8438 7.22171L14.5898 6.69373Z" fill="#CCB8F4"/>
<path fill-rule="evenodd" clip-rule="evenodd" d="M15.4249 6.89458L26.2186 13.7851L26.927 15.2555L26.4458 16.5587C26.4458 16.5587 21.0122 21.2438 20.9454 21.2972C20.8786 21.3507 20.6914 22.1661 20.6914 22.1661L22.2086 24.1978L22.0081 25.6749L14.8702 21.8386L20.4842 16.1845L14.7499 12.816C14.7499 12.8227 11.9162 8.79934 15.4249 6.89458Z" fill="white"/>
<path fill-rule="evenodd" clip-rule="evenodd" d="M14.2285 6.14622L25.0222 13.0368L25.7306 14.5071L25.2494 15.8104C25.2494 15.8104 19.8158 20.4954 19.749 20.5489C19.6821 20.609 19.495 21.4177 19.495 21.4177L21.0121 23.4495L20.8116 24.9265L13.6738 21.0903L19.2878 15.4361L13.5535 12.0677C13.5468 12.0811 10.7197 8.05099 14.2285 6.14622Z" fill="#A3EFE0"/>
<path d="M35.9566 33.0266L35.8697 32.9798L0 15.1285L0.327485 14.4735L14.4027 21.4844L19.9499 15.984L15.218 13.4242C14.0284 12.7091 13.3133 11.3056 13.3333 9.75505C13.3534 8.45848 13.8613 7.31562 14.7235 6.58714L7.78613 2.9848L7.03091 4.41504L6.38262 4.07419L8.22723 0.565414L8.87552 0.906267L8.12698 2.33651L15.4319 6.1193C17.7778 4.86282 22.9507 3.45932 26.6934 3.07168C29.3601 2.79766 31.1378 3.36575 32.0067 4.75589C32.0134 4.72916 32.0201 4.69574 32.0267 4.66901C32.2673 3.82022 33.3233 2.49023 33.9582 1.85531L33.9783 1.84194C35.4887 0.525314 37.2866 1.14687 38.3626 2.08254C39.5656 3.13183 40.3008 4.92297 39.3851 6.32648C38.6834 7.40251 37.2531 8.48521 36.5113 8.87285C35.1746 9.58129 33.7577 9.22707 32.7285 7.93049C32.6817 7.87703 32.6416 7.81688 32.6015 7.75673C32.5815 8.95305 32.4411 10.3298 32.3141 11.593C32.2607 12.1277 32.2072 12.6356 32.1738 13.0834L37.4603 15.4025C38.2556 15.8904 38.269 16.9731 37.9081 17.7484C37.5472 18.5236 36.8855 18.8845 36.2172 18.6707L28.939 16.4852L28.8789 16.4317C28.1905 15.8102 27.9098 15.2555 27.9165 14.5203L27.7761 13.3373L22.3024 10.5036C23.9733 11.6598 25.5305 12.7826 26.4327 13.4844L26.4996 13.5378C26.6934 13.6916 26.8471 13.8185 26.9674 13.9255C27.1746 14.1393 27.2548 14.4869 27.2882 14.7876L27.2949 14.801V14.9079C27.3016 15.0683 27.3016 15.2154 27.2949 15.3089V16.2713L26.8672 16.659C26.807 16.7325 26.7469 16.7993 26.6734 16.8528L20.8989 21.8319L22.5965 24.1043L22.416 25.4677L36.1036 32.2847L39.9465 32.0107L40 32.7459L35.9566 33.0266ZM15.0977 21.8252L21.7143 25.1201L21.8212 24.3048L19.8897 21.725L26.3058 16.1711C26.4194 16.004 26.5063 15.7434 26.5397 15.4359C26.5464 15.3891 26.553 15.3424 26.553 15.2956V15.0216L25.9382 14.0525L15.4185 6.97477C14.5831 7.54286 14.0819 8.56541 14.0685 9.75505C14.0551 11.0449 14.6299 12.2079 15.5789 12.7759L20.7185 15.5562L20.7586 16.1978L15.0977 21.8252ZM29.3066 15.8302L36.4244 17.9823C36.8722 18.1293 37.1529 17.6147 37.2331 17.4543C37.4603 16.9664 37.467 16.2914 37.1061 16.0642L31.3918 13.5579L31.4119 13.2972C31.452 12.7826 31.5121 12.1744 31.5789 11.5261C31.7594 9.76174 31.98 7.56291 31.7995 6.25297C31.4252 4.30142 29.7811 3.49273 26.7736 3.80685C23.3918 4.1477 18.66 5.39081 16.2339 6.53367L27.6692 12.4551L27.061 7.25547L27.7895 7.16859L28.6449 14.4735C28.6449 14.948 28.7519 15.3089 29.3066 15.8302ZM34.4729 2.38329C33.7911 3.065 32.9089 4.26132 32.7352 4.86282C32.5079 5.66483 32.7552 6.78764 33.2966 7.46934C33.7711 8.06416 34.7736 8.95305 36.1571 8.21788C36.8655 7.85029 38.1621 6.84779 38.7636 5.92548C39.452 4.87619 38.8371 3.47937 37.8747 2.63726C37.0259 1.89541 35.6224 1.38747 34.4729 2.38329ZM6.55639 2.34988L5.16625 1.62807L5.5071 0.9731L6.89724 1.6949L6.55639 2.34988Z" fill="#464860"/>
<path d="M34.4723 2.38331C33.7906 3.06501 32.9084 4.26134 32.7347 4.86284C32.5074 5.66484 32.7547 6.78765 33.2961 7.46936C33.7706 8.06418 34.7731 8.95306 36.1566 8.21789C36.865 7.85031 38.1616 6.8478 38.7631 5.9255C39.4515 4.87621 38.8366 3.47938 37.8742 2.63728C37.0254 1.89542 35.6219 1.38748 34.4723 2.38331Z" fill="white"/>
</svg>
