<svg width="39" height="39" viewBox="0 0 39 39" fill="none" xmlns="http://www.w3.org/2000/svg">
<path d="M22.8952 25.3803L26.2814 19.5215L22.8858 13.6447H16.1041L12.7136 19.5122L16.1041 25.3803H22.8952Z" fill="white"/>
<path d="M34.8242 19.5029L37.4258 24.0091C38.1646 21.0658 38.1646 17.9486 37.4258 15.0009L34.8242 19.5029Z" fill="white"/>
<path d="M32.3559 32.7792H27.162L24.5654 37.2762C27.5336 36.4329 30.1996 34.865 32.3559 32.7792Z" fill="white"/>
<path d="M26.2857 32.2699L22.8952 26.3974H16.1049L12.7144 32.2699L15.7977 37.6059C18.2339 38.1009 20.7668 38.1009 23.203 37.6059L26.2857 32.2699Z" fill="white"/>
<path d="M23.7715 25.8889L27.162 31.7613H33.3288C34.9667 29.9188 36.2375 27.7457 37.0357 25.3574L33.948 20.0214H27.162L23.7715 25.8889Z" fill="white"/>
<path d="M11.8374 7.26793H5.67067C4.0327 9.10621 2.76197 11.2792 1.96375 13.6676L5.05142 19.0036H11.8374L15.2279 13.1361L11.8374 7.26793Z" fill="white"/>
<path d="M11.8374 6.24509L14.434 1.7524C11.4659 2.59643 8.79985 4.15932 6.64355 6.24509H11.8374Z" fill="white"/>
<path d="M24.5654 1.75311L27.162 6.2458C28.8916 6.2458 30.6212 6.2458 32.3559 6.2458C30.1996 4.15932 27.5336 2.59643 24.5654 1.75311Z" fill="white"/>
<path d="M27.162 7.26292L23.7665 13.1447L27.1527 19.0036H33.9387L37.0314 13.654C36.2331 11.2699 34.9624 9.10621 33.3287 7.26364H27.162V7.26292Z" fill="white"/>
<path d="M15.802 1.41835L12.7144 6.75436L16.1099 12.6268H22.8866L26.2821 6.74506L23.1987 1.41835C20.7661 0.923375 18.2332 0.923375 15.802 1.41835Z" fill="white"/>
<path d="M4.17082 19.5121L1.57425 15.0152C0.835439 17.9586 0.835439 21.0708 1.57425 24.0091L4.17082 19.5121Z" fill="white"/>
<path d="M11.8374 32.7792C10.1078 32.7792 8.37818 32.7792 6.64355 32.7792C8.79985 34.865 11.4659 36.4329 14.434 37.2762L11.8374 32.7792Z" fill="white"/>
<path d="M1.96375 25.3567C2.76197 27.745 4.0327 29.9181 5.67067 31.7606H11.8374L15.2279 25.8882L11.8374 20.0207H5.05142L1.96375 25.3567Z" fill="white"/>
<path d="M22.8952 25.3803L26.2814 19.5215L22.8858 13.6447H16.1041L12.7136 19.5122L16.1041 25.3803H22.8952Z" fill="white"/>
<path d="M34.8242 19.5029L37.4258 24.0091C38.1646 21.0658 38.1646 17.9486 37.4258 15.0009L34.8242 19.5029Z" fill="white"/>
<path d="M32.3559 32.7792H27.162L24.5654 37.2762C27.5336 36.4329 30.1996 34.865 32.3559 32.7792Z" fill="white"/>
<path d="M11.8374 6.24509L14.434 1.7524C11.4659 2.59643 8.79985 4.15932 6.64355 6.24509H11.8374Z" fill="white"/>
<path d="M24.5654 1.75311L27.162 6.2458C28.8916 6.2458 30.6212 6.2458 32.3559 6.2458C30.1996 4.15932 27.5336 2.59643 24.5654 1.75311Z" fill="white"/>
<path d="M4.17082 19.5121L1.57425 15.0152C0.835439 17.9586 0.835439 21.0708 1.57425 24.0091L4.17082 19.5121Z" fill="white"/>
<path d="M11.8374 32.7792C10.1078 32.7792 8.37818 32.7792 6.64355 32.7792C8.79985 34.865 11.4659 36.4329 14.434 37.2762L11.8374 32.7792Z" fill="white"/>
<path d="M34.8242 19.5029L37.4258 24.0091C38.1646 21.0658 38.1646 17.9486 37.4258 15.0009L34.8242 19.5029Z" fill="white"/>
<path d="M27.4312 32.8422L24.0407 26.9697H17.2504L13.8599 32.8422L16.9432 38.1782C19.3795 38.6732 21.9123 38.6732 24.3485 38.1782L27.4312 32.8422Z" fill="#CCB8F4"/>
<path d="M24.9169 26.4611L28.3074 32.3336H34.4741C36.1121 30.491 37.3828 28.318 38.1811 25.9297L35.0934 20.5937H28.3074L24.9169 26.4611Z" fill="#A3EFE0"/>
<path d="M12.9828 7.84018H6.81606C5.17808 9.67846 3.90736 11.8515 3.10913 14.2398L6.19681 19.5758H12.9828L16.3733 13.7084L12.9828 7.84018Z" fill="#CCB8F4"/>
<path d="M28.3074 7.83519L24.9119 13.717L28.2981 19.5759H35.0841L38.1768 14.2263C37.3785 11.8422 36.1078 9.67848 34.4741 7.83591H28.3074V7.83519Z" fill="#CCB8F4"/>
<path d="M16.9475 1.99062L13.8599 7.32663L17.2554 13.1991H24.0321L27.4276 7.31733L24.3442 1.99062C21.9116 1.49564 19.3787 1.49564 16.9475 1.99062Z" fill="#A3EFE0"/>
<path d="M3.10913 25.929C3.90736 28.3173 5.17808 30.4903 6.81606 32.3329H12.9828L16.3733 26.4604L12.9828 20.5929H6.19681L3.10913 25.929Z" fill="#A3EFE0"/>
<path d="M38.9994 19.6776C38.9077 30.2903 30.0936 39.0503 19.5133 39.0003C8.70821 38.9402 0 30.2259 0 19.5124C0 8.34538 9.25873 -0.351034 20.28 0.0108991C30.6534 0.35495 39.0867 9.39971 38.9994 19.6776ZM22.8952 25.3806L26.2814 19.5217L22.8859 13.6449H16.1049L12.7144 19.5124L16.1049 25.3798H22.8952V25.3806ZM34.8242 19.5031L37.4258 24.0094C38.1646 21.066 38.1646 17.9488 37.4258 15.0011L34.8242 19.5031ZM32.3558 32.7794H27.162L24.5654 37.2764C27.5335 36.4331 30.1995 34.8652 32.3558 32.7794ZM26.2857 32.2702L22.8952 26.3977H16.1049L12.7144 32.2702L15.7978 37.6062C18.234 38.1012 20.7668 38.1012 23.203 37.6062L26.2857 32.2702ZM23.7715 25.8891L27.162 31.7616H33.3287C34.9667 29.919 36.2374 27.746 37.0357 25.3577L33.948 20.0217H27.162L23.7715 25.8891ZM11.8374 7.26816H5.67064C4.03266 9.10644 2.76194 11.2795 1.96371 13.6678L5.05139 19.0038H11.8374L15.2279 13.1363L11.8374 7.26816ZM11.8374 6.24531L14.434 1.75261C11.4659 2.59665 8.79984 4.15954 6.64355 6.24531H11.8374ZM24.5654 1.75333L27.162 6.24602C28.8916 6.24602 30.6212 6.24602 32.3558 6.24602C30.1995 4.15954 27.5335 2.59665 24.5654 1.75333ZM27.162 7.26315L23.7664 13.1449L27.1527 19.0038H33.9387L37.0314 13.6542C36.2331 11.2702 34.9624 9.10644 33.3287 7.26387H27.162V7.26315ZM15.8021 1.41858L12.7144 6.75459L16.1099 12.6271H22.8866L26.2821 6.74529L23.1987 1.41858C20.7661 0.9236 18.2333 0.9236 15.8021 1.41858ZM4.17083 19.5124L1.57426 15.0154C0.835455 17.9588 0.835455 21.071 1.57426 24.0094L4.17083 19.5124ZM11.8374 32.7794C10.1078 32.7794 8.37818 32.7794 6.64355 32.7794C8.79984 34.8652 11.4659 36.4331 14.434 37.2764L11.8374 32.7794ZM1.96371 25.357C2.76194 27.7453 4.03266 29.9183 5.67064 31.7609H11.8374L15.2279 25.8884L11.8374 20.0209H5.05139L1.96371 25.357Z" fill="#464860"/>
</svg>
