<svg width="43" height="34" viewBox="0 0 43 34" fill="none" xmlns="http://www.w3.org/2000/svg">
<path d="M9.05252 2.25243L14.2635 0.972061L14.311 0.953369H14.3586H28.6222H28.6697L28.7173 0.962715L33.9568 2.25243L35.4402 2.61692L33.9568 2.98141L33.9092 2.99075L33.5574 3.08421L28.7458 4.26178L28.6982 4.27113H28.6602L14.3776 4.28047H14.3301L14.2825 4.26178L9.05252 2.98141L7.57861 2.61692L9.05252 2.25243Z" fill="white"/>
<path d="M30.115 10.9159L30.2671 11.3925H29.7537H13.2459H12.7324L12.8846 10.9159L14.5296 5.49533L14.6152 5.23364H14.9005H28.0991H28.3843L28.4604 5.49533L30.115 10.9159Z" fill="white"/>
<path d="M1.6924 8.28043L5.60063 3.34585L5.75277 3.15894L5.9905 3.21501L13.2554 5.00006L13.6453 5.09351L13.5312 5.46735L11.8481 10.9533L11.7435 11.2991L11.3916 11.215L1.89209 8.87856L1.33105 8.73838L1.6924 8.28043Z" fill="white"/>
<path d="M18.0672 27.9627L2.69108 10.7571L1.88281 9.85986L3.06194 10.1496L11.5535 12.2337L11.7342 12.2804L11.8103 12.4486L18.7044 27.5701L19.7313 29.8225L18.0672 27.9627Z" fill="white"/>
<path d="M21.8422 30.5982L21.4999 31.3552L21.1481 30.5982L13.0749 12.8786L12.8276 12.3552H13.4172H29.5826H30.1627L29.9249 12.8786L21.8422 30.5982Z" fill="white"/>
<path d="M40.309 10.7571L24.9234 27.9627L23.2593 29.8225L24.2958 27.5608L31.1898 12.4486L31.2659 12.2804L31.4466 12.2337L39.9287 10.1496L41.1173 9.85986L40.309 10.7571Z" fill="white"/>
<path d="M41.0982 8.87839L31.6081 11.2055L31.2563 11.2989L31.1517 10.9532L29.4686 5.46717L29.3545 5.09334L29.7444 4.99988L34.033 3.95315L34.3658 3.85969L37.0093 3.21483L37.247 3.14941L37.3992 3.34568L41.3074 8.28026L41.6687 8.7382L41.0982 8.87839Z" fill="white"/>
<path d="M30.115 10.0748L30.2671 10.5608H29.7537H13.2459H12.7324L12.8846 10.0748L14.5296 4.66361L14.6152 4.39258H14.9005H28.0991H28.3843L28.4604 4.66361L30.115 10.0748Z" fill="#CCB8F4"/>
<path d="M0.741716 8.28043L4.64994 3.34585L4.80209 3.15894L5.03981 3.21501L12.3047 5.00006L12.6946 5.09351L12.5805 5.46735L10.9069 10.9533L10.8023 11.2991L10.4505 11.215L0.950915 8.87856L0.380371 8.73838L0.741716 8.28043Z" fill="#A3EFE0"/>
<path d="M17.1256 27.9627L1.73991 10.7571L0.931641 9.85986L2.12027 10.1496L10.6024 12.2337L10.783 12.2804L10.8591 12.4486L17.7532 27.5701L18.7802 29.8225L17.1256 27.9627Z" fill="#A3EFE0"/>
<path d="M21.8422 29.7569L21.4999 30.5139L21.1481 29.7569L13.0749 12.0373L12.8276 11.5139H13.4172H29.5826H30.1627L29.9249 12.0373L21.8422 29.7569Z" fill="#CCB8F4"/>
<path d="M41.2026 10.7571L25.8169 27.9627L24.1528 29.8225L25.1893 27.5608L32.0834 12.4486L32.1595 12.2804L32.3401 12.2337L40.8317 10.1496L42.0109 9.85986L41.2026 10.7571Z" fill="#A3EFE0"/>
<path d="M42.0015 8.87839L32.502 11.2055L32.1501 11.2989L32.0455 10.9532L30.3719 5.46717L30.2578 5.09334L30.6382 4.99988L34.9268 3.95315L35.2596 3.85969L37.9031 3.21483L38.1408 3.14941L38.293 3.34568L42.2012 8.28026L42.5625 8.7382L42.0015 8.87839Z" fill="#A3EFE0"/>
<path d="M37.8269 2.31776C37.7794 2.25234 37.7128 2.20561 37.6368 2.17757L37.5607 2.14953L28.8599 0.00934579C28.8219 0.00934579 28.7838 0 28.7458 0H14.254C14.2159 0 14.1779 0.00934579 14.1399 0.0186916L5.4771 2.14953C5.33446 2.17757 5.23937 2.23364 5.17281 2.31776L0.104474 8.72897C-0.000125929 8.85981 -0.0286531 9.02804 0.0284013 9.17757C0.0379103 9.21495 0.0569285 9.24299 0.0759466 9.27103L0.113983 9.33645L21.091 32.7944L21.1195 32.8224L21.148 32.8505C21.1766 32.8878 21.2241 32.9159 21.2907 32.9533C21.3858 32.9907 21.4428 33.0093 21.4999 33.0093C21.5569 33.0093 21.614 33 21.6805 32.972C21.7756 32.9252 21.8232 32.8972 21.8612 32.8505L42.8763 9.33645L42.8953 9.31776L42.9238 9.27103C42.9428 9.24299 42.9618 9.21495 42.9713 9.17757C43.0284 9.02804 42.9999 8.85981 42.8953 8.72897L37.8269 2.31776ZM9.05251 2.25234L14.2635 0.971963L14.311 0.962617H14.3586H28.6222H28.6697L28.7173 0.971963L33.9567 2.26168L35.4402 2.62617L33.9567 2.99065H33.9092L33.5669 3.08411L28.7553 4.26168L28.7077 4.27103H28.6602H14.3776H14.33L14.2825 4.26168L9.05251 2.97196L7.5786 2.61682L9.05251 2.25234ZM30.1151 10.9159L30.2577 11.3925H29.7442H13.246H12.7325L12.8752 10.9159L14.5297 5.49533L14.6153 5.2243H14.9006H28.0992H28.3844L28.47 5.49533L30.1151 10.9159ZM1.69249 8.28037L5.60071 3.34579L5.75286 3.14953L5.99059 3.21495L13.2555 5L13.6454 5.09346L13.5313 5.46729L11.8577 10.9533L11.7531 11.2991L11.3917 11.215L1.89218 8.8785L1.33114 8.73832L1.69249 8.28037ZM18.0671 27.9626L2.69094 10.757L1.88267 9.85981L3.06179 10.1495L11.5534 12.2336L11.7341 12.2804L11.8101 12.4486L18.7042 27.5701L19.7312 29.8318L18.0671 27.9626ZM21.8422 30.5981L21.4904 31.3551L21.148 30.5981L13.0653 12.8785L12.8276 12.3551H13.4172H29.5826H30.1721L29.9344 12.8785L21.8422 30.5981ZM40.3088 10.757L24.9231 27.9626L23.2591 29.8224L24.286 27.5607L31.1801 12.4393L31.2562 12.271L31.4368 12.2243L39.9284 10.1402L41.1076 9.85047L40.3088 10.757ZM41.0981 8.8785L31.5985 11.215L31.2467 11.2991L31.1421 10.9533L29.4685 5.46729L29.3544 5.09346L29.7442 5L34.0233 3.95327L34.3561 3.85981L36.9997 3.20561L37.2374 3.14953L37.3895 3.34579L41.2977 8.28037L41.6591 8.72897L41.0981 8.8785Z" fill="#464860"/>
</svg>
