<svg width="34" height="34" viewBox="0 0 34 34" fill="none" xmlns="http://www.w3.org/2000/svg">
<circle cx="17" cy="17" r="16.5" fill="white" stroke="#464860"/>
<mask id="mask0" mask-type="alpha" maskUnits="userSpaceOnUse" x="1" y="1" width="32" height="32">
<circle cx="17" cy="17" r="15.5" fill="white" stroke="#464860"/>
</mask>
<g mask="url(#mask0)">
<circle cx="20" cy="19" r="17" fill="#A3EFE0"/>
</g>
<path d="M12.1911 23.16C10.7725 23.16 9.71112 22.7653 9.00712 21.976C8.31379 21.1867 7.93512 20.152 7.87112 18.872C7.86046 18.584 7.85512 18.0933 7.85512 17.4C7.85512 16.696 7.86046 16.1947 7.87112 15.896C7.92446 14.6373 8.30846 13.6133 9.02312 12.824C9.73779 12.0347 10.7938 11.64 12.1911 11.64C13.5991 11.64 14.6605 12.0347 15.3751 12.824C16.0898 13.6133 16.4685 14.6373 16.5111 15.896C16.5325 16.1947 16.5431 16.696 16.5431 17.4C16.5431 18.0933 16.5325 18.584 16.5111 18.872C16.4578 20.152 16.0791 21.1867 15.3751 21.976C14.6818 22.7653 13.6205 23.16 12.1911 23.16ZM12.1911 21.32C12.8631 21.32 13.3645 21.1013 13.6951 20.664C14.0258 20.216 14.2018 19.592 14.2231 18.792C14.2445 18.1733 14.2551 17.704 14.2551 17.384C14.2551 17.032 14.2445 16.568 14.2231 15.992C14.2018 15.2027 14.0258 14.584 13.6951 14.136C13.3645 13.688 12.8631 13.464 12.1911 13.464C11.5298 13.464 11.0285 13.688 10.6871 14.136C10.3565 14.584 10.1805 15.2027 10.1591 15.992C10.1485 16.28 10.1431 16.744 10.1431 17.384C10.1431 18.0133 10.1485 18.4827 10.1591 18.792C10.1805 19.592 10.3565 20.216 10.6871 20.664C11.0285 21.1013 11.5298 21.32 12.1911 21.32ZM21.9548 23.16C21.0161 23.16 20.2161 23.0107 19.5548 22.712C18.9041 22.4133 18.4134 22.04 18.0828 21.592C17.7628 21.1333 17.5921 20.664 17.5708 20.184C17.5708 20.088 17.6028 20.0133 17.6668 19.96C17.7414 19.896 17.8268 19.864 17.9228 19.864H19.3628C19.5974 19.864 19.7521 19.9707 19.8268 20.184C20.0614 20.952 20.7761 21.336 21.9708 21.336C22.6214 21.336 23.1334 21.1867 23.5068 20.888C23.8801 20.5787 24.0668 20.1413 24.0668 19.576C24.0668 18.5093 23.4001 17.976 22.0668 17.976H20.4188C20.3014 17.976 20.2054 17.9387 20.1308 17.864C20.0561 17.7893 20.0188 17.6987 20.0188 17.592V16.92C20.0188 16.7493 20.0934 16.5893 20.2428 16.44L23.1068 13.64H18.5308C18.4241 13.64 18.3334 13.6027 18.2588 13.528C18.1841 13.4533 18.1468 13.3627 18.1468 13.256V12.2C18.1468 12.0827 18.1788 11.9867 18.2428 11.912C18.3174 11.8373 18.4134 11.8 18.5308 11.8H25.3948C25.5121 11.8 25.6081 11.8373 25.6828 11.912C25.7574 11.9867 25.7948 12.0827 25.7948 12.2V13.16C25.7948 13.32 25.7254 13.4693 25.5868 13.608L22.8188 16.456L23.0108 16.472C24.0348 16.5573 24.8454 16.8667 25.4428 17.4C26.0508 17.9333 26.3548 18.696 26.3548 19.688C26.3548 20.392 26.1628 21.0053 25.7788 21.528C25.4054 22.0507 24.8828 22.456 24.2108 22.744C23.5494 23.0213 22.7974 23.16 21.9548 23.16Z" fill="#059276"/>
</svg>
