<svg width="34" height="34" viewBox="0 0 34 34" fill="none" xmlns="http://www.w3.org/2000/svg">
<circle cx="17" cy="17" r="16.5" fill="white" stroke="#464860"/>
<mask id="mask0" mask-type="alpha" maskUnits="userSpaceOnUse" x="1" y="1" width="32" height="32">
<circle cx="17" cy="17" r="15.5" fill="white" stroke="#464860"/>
</mask>
<g mask="url(#mask0)">
<circle cx="20" cy="19" r="17" fill="#CCB8F4"/>
</g>
<path d="M12.1837 23.16C10.7544 23.16 9.68769 22.7653 8.98369 21.976C8.29035 21.1867 7.91169 20.152 7.84769 18.872C7.83702 18.584 7.83169 18.0933 7.83169 17.4C7.83169 16.696 7.83702 16.1947 7.84769 15.896C7.90102 14.6373 8.28502 13.6133 8.99969 12.824C9.71435 12.0347 10.7757 11.64 12.1837 11.64C13.5917 11.64 14.653 12.0347 15.3677 12.824C16.0824 13.6133 16.4664 14.6373 16.5197 15.896C16.541 16.4933 16.5517 16.9947 16.5517 17.4C16.5517 17.8053 16.541 18.296 16.5197 18.872C16.4557 20.152 16.0717 21.1867 15.3677 21.976C14.6744 22.7653 13.613 23.16 12.1837 23.16ZM12.1837 21.288C12.845 21.288 13.341 21.0747 13.6717 20.648C14.0024 20.2107 14.1784 19.592 14.1997 18.792C14.2104 18.4827 14.2157 18.008 14.2157 17.368C14.2157 16.728 14.2104 16.264 14.1997 15.976C14.1784 15.1973 14.0024 14.5893 13.6717 14.152C13.341 13.7147 12.845 13.4907 12.1837 13.48C11.5224 13.4907 11.0264 13.7147 10.6957 14.152C10.365 14.5893 10.189 15.1973 10.1677 15.976C10.157 16.264 10.1517 16.728 10.1517 17.368C10.1517 18.008 10.157 18.4827 10.1677 18.792C10.189 19.592 10.365 20.2107 10.6957 20.648C11.0264 21.0747 11.5224 21.288 12.1837 21.288ZM21.9786 23.16C21.0292 23.16 20.2239 23.0107 19.5626 22.712C18.9119 22.4133 18.4212 22.04 18.0906 21.592C17.7706 21.1333 17.5999 20.664 17.5786 20.184C17.5786 20.088 17.6106 20.008 17.6746 19.944C17.7386 19.88 17.8186 19.848 17.9146 19.848H19.3866C19.6212 19.848 19.7812 19.9547 19.8666 20.168C20.1012 20.9253 20.8052 21.304 21.9786 21.304C22.6292 21.304 23.1359 21.1547 23.4986 20.856C23.8719 20.5573 24.0586 20.1307 24.0586 19.576C24.0586 19.0213 23.8879 18.6213 23.5466 18.376C23.2159 18.12 22.7252 17.992 22.0746 17.992H20.4266C20.3199 17.992 20.2292 17.9547 20.1546 17.88C20.0799 17.8053 20.0426 17.7147 20.0426 17.608V16.92C20.0426 16.7173 20.1119 16.5573 20.2506 16.44L23.0986 13.656H18.5386C18.4212 13.656 18.3252 13.6187 18.2506 13.544C18.1759 13.4693 18.1386 13.3787 18.1386 13.272V12.2C18.1386 12.0827 18.1759 11.9867 18.2506 11.912C18.3252 11.8373 18.4212 11.8 18.5386 11.8H25.4186C25.5359 11.8 25.6319 11.8373 25.7066 11.912C25.7812 11.9867 25.8186 12.0827 25.8186 12.2V13.176C25.8186 13.3573 25.7492 13.5067 25.6106 13.624L22.8586 16.456L23.0506 16.472C24.0746 16.5573 24.8852 16.8667 25.4826 17.4C26.0906 17.9333 26.3946 18.696 26.3946 19.688C26.3946 20.392 26.2026 21.0053 25.8186 21.528C25.4452 22.0507 24.9226 22.456 24.2506 22.744C23.5892 23.0213 22.8319 23.16 21.9786 23.16Z" fill="#512D87"/>
</svg>
