<svg width="34" height="34" viewBox="0 0 34 34" fill="none" xmlns="http://www.w3.org/2000/svg">
<circle cx="17" cy="17" r="16.5" fill="white" stroke="#464860"/>
<mask id="mask0" mask-type="alpha" maskUnits="userSpaceOnUse" x="1" y="1" width="32" height="32">
<circle cx="17" cy="17" r="15.5" fill="white" stroke="#464860"/>
</mask>
<g mask="url(#mask0)">
<circle cx="20" cy="19" r="17" fill="#CCB8F4"/>
</g>
<path d="M12.2696 23.16C10.8403 23.16 9.77362 22.7653 9.06962 21.976C8.37629 21.1867 7.99762 20.152 7.93362 18.872C7.92296 18.584 7.91762 18.0933 7.91762 17.4C7.91762 16.696 7.92296 16.1947 7.93362 15.896C7.98696 14.6373 8.37096 13.6133 9.08562 12.824C9.80029 12.0347 10.8616 11.64 12.2696 11.64C13.6776 11.64 14.739 12.0347 15.4536 12.824C16.1683 13.6133 16.5523 14.6373 16.6056 15.896C16.627 16.4933 16.6376 16.9947 16.6376 17.4C16.6376 17.8053 16.627 18.296 16.6056 18.872C16.5416 20.152 16.1576 21.1867 15.4536 21.976C14.7603 22.7653 13.699 23.16 12.2696 23.16ZM12.2696 21.288C12.931 21.288 13.427 21.0747 13.7576 20.648C14.0883 20.2107 14.2643 19.592 14.2856 18.792C14.2963 18.4827 14.3016 18.008 14.3016 17.368C14.3016 16.728 14.2963 16.264 14.2856 15.976C14.2643 15.1973 14.0883 14.5893 13.7576 14.152C13.427 13.7147 12.931 13.4907 12.2696 13.48C11.6083 13.4907 11.1123 13.7147 10.7816 14.152C10.451 14.5893 10.275 15.1973 10.2536 15.976C10.243 16.264 10.2376 16.728 10.2376 17.368C10.2376 18.008 10.243 18.4827 10.2536 18.792C10.275 19.592 10.451 20.2107 10.7816 20.648C11.1123 21.0747 11.6083 21.288 12.2696 21.288ZM18.1765 23C18.0698 23 17.9792 22.9627 17.9045 22.888C17.8298 22.8133 17.7925 22.7227 17.7925 22.616V21.784C17.7925 21.4853 17.9258 21.2347 18.1925 21.032L20.6885 18.552C21.4458 17.9547 22.0272 17.4693 22.4325 17.096C22.8485 16.712 23.1578 16.36 23.3605 16.04C23.5632 15.72 23.6645 15.4053 23.6645 15.096C23.6645 14.5947 23.5312 14.2 23.2645 13.912C22.9978 13.624 22.5925 13.48 22.0485 13.48C21.5152 13.48 21.0938 13.64 20.7845 13.96C20.4858 14.2693 20.2992 14.6747 20.2245 15.176C20.1925 15.304 20.1285 15.4 20.0325 15.464C19.9472 15.5173 19.8512 15.544 19.7445 15.544H18.3045C18.2085 15.544 18.1285 15.512 18.0645 15.448C18.0005 15.384 17.9685 15.304 17.9685 15.208C17.9898 14.5787 18.1605 13.992 18.4805 13.448C18.8112 12.8933 19.2805 12.4507 19.8885 12.12C20.4965 11.7787 21.2112 11.608 22.0325 11.608C22.8858 11.608 23.6112 11.7573 24.2085 12.056C24.8058 12.344 25.2538 12.744 25.5525 13.256C25.8512 13.768 26.0005 14.3493 26.0005 15C26.0005 15.7147 25.7978 16.3653 25.3925 16.952C24.9978 17.528 24.3792 18.1467 23.5365 18.808L21.3125 21.064H25.8405C25.9578 21.064 26.0538 21.1013 26.1285 21.176C26.2032 21.2507 26.2405 21.3467 26.2405 21.464V22.616C26.2405 22.7333 26.2032 22.8293 26.1285 22.904C26.0538 22.968 25.9578 23 25.8405 23H18.1765Z" fill="#512D87"/>
</svg>
