<svg width="34" height="34" viewBox="0 0 34 34" fill="none" xmlns="http://www.w3.org/2000/svg">
<circle cx="17" cy="17" r="16.5" fill="white" stroke="#464860"/>
<mask id="mask0" mask-type="alpha" maskUnits="userSpaceOnUse" x="1" y="1" width="32" height="32">
<circle cx="17" cy="17" r="15.5" fill="white" stroke="#464860"/>
</mask>
<g mask="url(#mask0)">
<circle cx="20" cy="19" r="17" fill="#A3EFE0"/>
</g>
<path d="M13.5271 23.16C12.1084 23.16 11.0471 22.7653 10.3431 21.976C9.64973 21.1867 9.27106 20.152 9.20706 18.872C9.1964 18.584 9.19106 18.0933 9.19106 17.4C9.19106 16.696 9.1964 16.1947 9.20706 15.896C9.2604 14.6373 9.6444 13.6133 10.3591 12.824C11.0737 12.0347 12.1297 11.64 13.5271 11.64C14.9351 11.64 15.9964 12.0347 16.7111 12.824C17.4257 13.6133 17.8044 14.6373 17.8471 15.896C17.8684 16.1947 17.8791 16.696 17.8791 17.4C17.8791 18.0933 17.8684 18.584 17.8471 18.872C17.7937 20.152 17.4151 21.1867 16.7111 21.976C16.0177 22.7653 14.9564 23.16 13.5271 23.16ZM13.5271 21.32C14.1991 21.32 14.7004 21.1013 15.0311 20.664C15.3617 20.216 15.5377 19.592 15.5591 18.792C15.5804 18.1733 15.5911 17.704 15.5911 17.384C15.5911 17.032 15.5804 16.568 15.5591 15.992C15.5377 15.2027 15.3617 14.584 15.0311 14.136C14.7004 13.688 14.1991 13.464 13.5271 13.464C12.8657 13.464 12.3644 13.688 12.0231 14.136C11.6924 14.584 11.5164 15.2027 11.4951 15.992C11.4844 16.28 11.4791 16.744 11.4791 17.384C11.4791 18.0133 11.4844 18.4827 11.4951 18.792C11.5164 19.592 11.6924 20.216 12.0231 20.664C12.3644 21.1013 12.8657 21.32 13.5271 21.32ZM22.7467 23C22.64 23 22.5494 22.9627 22.4747 22.888C22.4 22.8133 22.3627 22.7227 22.3627 22.616V14.328L19.9307 16.2C19.8667 16.2533 19.792 16.28 19.7067 16.28C19.5787 16.28 19.472 16.2213 19.3867 16.104L18.7147 15.24C18.6614 15.1547 18.6347 15.0747 18.6347 15C18.6347 14.872 18.6934 14.7653 18.8107 14.68L22.3947 11.912C22.4907 11.8373 22.624 11.8 22.7947 11.8H24.2027C24.32 11.8 24.4107 11.8373 24.4747 11.912C24.5494 11.976 24.5867 12.0667 24.5867 12.184V22.616C24.5867 22.7227 24.5494 22.8133 24.4747 22.888C24.4107 22.9627 24.32 23 24.2027 23H22.7467Z" fill="#059276"/>
</svg>
