<svg width="34" height="34" viewBox="0 0 34 34" fill="none" xmlns="http://www.w3.org/2000/svg">
<circle cx="17" cy="17" r="16.5" fill="white" stroke="#464860"/>
<mask id="mask0" mask-type="alpha" maskUnits="userSpaceOnUse" x="1" y="1" width="32" height="32">
<circle cx="17" cy="17" r="15.5" fill="white" stroke="#464860"/>
</mask>
<g mask="url(#mask0)">
<circle cx="20" cy="19" r="17" fill="#A3EFE0"/>
</g>
<path d="M12.0114 23.16C10.5928 23.16 9.53144 22.7653 8.82744 21.976C8.1341 21.1867 7.75544 20.152 7.69144 18.872C7.68077 18.584 7.67544 18.0933 7.67544 17.4C7.67544 16.696 7.68077 16.1947 7.69144 15.896C7.74477 14.6373 8.12877 13.6133 8.84344 12.824C9.5581 12.0347 10.6141 11.64 12.0114 11.64C13.4194 11.64 14.4808 12.0347 15.1954 12.824C15.9101 13.6133 16.2888 14.6373 16.3314 15.896C16.3528 16.1947 16.3634 16.696 16.3634 17.4C16.3634 18.0933 16.3528 18.584 16.3314 18.872C16.2781 20.152 15.8994 21.1867 15.1954 21.976C14.5021 22.7653 13.4408 23.16 12.0114 23.16ZM12.0114 21.32C12.6834 21.32 13.1848 21.1013 13.5154 20.664C13.8461 20.216 14.0221 19.592 14.0434 18.792C14.0648 18.1733 14.0754 17.704 14.0754 17.384C14.0754 17.032 14.0648 16.568 14.0434 15.992C14.0221 15.2027 13.8461 14.584 13.5154 14.136C13.1848 13.688 12.6834 13.464 12.0114 13.464C11.3501 13.464 10.8488 13.688 10.5074 14.136C10.1768 14.584 10.0008 15.2027 9.97944 15.992C9.96877 16.28 9.96344 16.744 9.96344 17.384C9.96344 18.0133 9.96877 18.4827 9.97944 18.792C10.0008 19.592 10.1768 20.216 10.5074 20.664C10.8488 21.1013 11.3501 21.32 12.0114 21.32ZM23.1191 23C23.0124 23 22.9217 22.9627 22.8471 22.888C22.7724 22.8133 22.7351 22.7227 22.7351 22.616V20.568H17.6631C17.5564 20.568 17.4657 20.5307 17.3911 20.456C17.3164 20.3813 17.2791 20.2907 17.2791 20.184V19.096C17.2791 18.9253 17.3377 18.7653 17.4551 18.616L22.1751 12.072C22.2284 11.9867 22.3084 11.9227 22.4151 11.88C22.5217 11.8267 22.6391 11.8 22.7671 11.8H24.5111C24.6284 11.8 24.7191 11.8373 24.7831 11.912C24.8577 11.976 24.8951 12.0667 24.8951 12.184V18.68H26.3191C26.4364 18.68 26.5324 18.7173 26.6071 18.792C26.6817 18.856 26.7191 18.9467 26.7191 19.064V20.184C26.7191 20.2907 26.6817 20.3813 26.6071 20.456C26.5324 20.5307 26.4417 20.568 26.3351 20.568H24.8951V22.616C24.8951 22.7227 24.8577 22.8133 24.7831 22.888C24.7191 22.9627 24.6284 23 24.5111 23H23.1191ZM22.7831 18.744V14.12L19.5031 18.744H22.7831Z" fill="#059276"/>
</svg>
