<svg width="34" height="34" viewBox="0 0 34 34" fill="none" xmlns="http://www.w3.org/2000/svg">
<circle cx="17" cy="17" r="16.5" fill="white" stroke="#464860"/>
<mask id="mask0" mask-type="alpha" maskUnits="userSpaceOnUse" x="1" y="1" width="32" height="32">
<circle cx="17" cy="17" r="15.5" fill="white" stroke="#464860"/>
</mask>
<g mask="url(#mask0)">
<circle cx="20" cy="19" r="17" fill="#A3EFE0"/>
</g>
<path d="M12.2771 23.16C10.8584 23.16 9.79706 22.7653 9.09306 21.976C8.39973 21.1867 8.02106 20.152 7.95706 18.872C7.9464 18.584 7.94106 18.0933 7.94106 17.4C7.94106 16.696 7.9464 16.1947 7.95706 15.896C8.0104 14.6373 8.3944 13.6133 9.10906 12.824C9.82373 12.0347 10.8797 11.64 12.2771 11.64C13.6851 11.64 14.7464 12.0347 15.4611 12.824C16.1757 13.6133 16.5544 14.6373 16.5971 15.896C16.6184 16.1947 16.6291 16.696 16.6291 17.4C16.6291 18.0933 16.6184 18.584 16.5971 18.872C16.5437 20.152 16.1651 21.1867 15.4611 21.976C14.7677 22.7653 13.7064 23.16 12.2771 23.16ZM12.2771 21.32C12.9491 21.32 13.4504 21.1013 13.7811 20.664C14.1117 20.216 14.2877 19.592 14.3091 18.792C14.3304 18.1733 14.3411 17.704 14.3411 17.384C14.3411 17.032 14.3304 16.568 14.3091 15.992C14.2877 15.2027 14.1117 14.584 13.7811 14.136C13.4504 13.688 12.9491 13.464 12.2771 13.464C11.6157 13.464 11.1144 13.688 10.7731 14.136C10.4424 14.584 10.2664 15.2027 10.2451 15.992C10.2344 16.28 10.2291 16.744 10.2291 17.384C10.2291 18.0133 10.2344 18.4827 10.2451 18.792C10.2664 19.592 10.4424 20.216 10.7731 20.664C11.1144 21.1013 11.6157 21.32 12.2771 21.32ZM18.1687 23C18.062 23 17.9714 22.9627 17.8967 22.888C17.822 22.8133 17.7847 22.7227 17.7847 22.616V21.8C17.7847 21.512 17.918 21.2613 18.1847 21.048L20.7127 18.536C21.8114 17.672 22.574 17 23.0007 16.52C23.438 16.0293 23.6567 15.5493 23.6567 15.08C23.6567 14.5787 23.518 14.184 23.2407 13.896C22.974 13.608 22.5687 13.464 22.0247 13.464C21.4914 13.464 21.07 13.624 20.7607 13.944C20.4514 14.2533 20.2594 14.6587 20.1847 15.16C20.1527 15.288 20.094 15.384 20.0087 15.448C19.9234 15.5013 19.8274 15.528 19.7207 15.528H18.2967C18.2007 15.528 18.1207 15.496 18.0567 15.432C17.9927 15.368 17.9607 15.2933 17.9607 15.208C17.982 14.5787 18.1527 13.992 18.4727 13.448C18.7927 12.8933 19.2567 12.4507 19.8647 12.12C20.4727 11.7787 21.1874 11.608 22.0087 11.608C22.862 11.608 23.582 11.7573 24.1687 12.056C24.766 12.344 25.214 12.744 25.5127 13.256C25.8114 13.768 25.9607 14.3493 25.9607 15C25.9607 15.7147 25.758 16.36 25.3527 16.936C24.958 17.512 24.35 18.1307 23.5287 18.792L21.2567 21.096H25.8167C25.934 21.096 26.0247 21.1333 26.0887 21.208C26.1634 21.272 26.2007 21.3627 26.2007 21.48V22.616C26.2007 22.7227 26.1634 22.8133 26.0887 22.888C26.0247 22.9627 25.934 23 25.8167 23H18.1687Z" fill="#059276"/>
</svg>
