<svg width="34" height="34" viewBox="0 0 34 34" fill="none" xmlns="http://www.w3.org/2000/svg">
<circle cx="17" cy="17" r="16.5" fill="white" stroke="#464860"/>
<mask id="mask0" mask-type="alpha" maskUnits="userSpaceOnUse" x="1" y="1" width="32" height="32">
<circle cx="17" cy="17" r="15.5" fill="white" stroke="#464860"/>
</mask>
<g mask="url(#mask0)">
<circle cx="20" cy="19" r="17" fill="#CCB8F4"/>
</g>
<path d="M12.004 23.16C10.5747 23.16 9.508 22.7653 8.804 21.976C8.11067 21.1867 7.732 20.152 7.668 18.872C7.65733 18.584 7.652 18.0933 7.652 17.4C7.652 16.696 7.65733 16.1947 7.668 15.896C7.72133 14.6373 8.10533 13.6133 8.82 12.824C9.53467 12.0347 10.596 11.64 12.004 11.64C13.412 11.64 14.4733 12.0347 15.188 12.824C15.9027 13.6133 16.2867 14.6373 16.34 15.896C16.3613 16.4933 16.372 16.9947 16.372 17.4C16.372 17.8053 16.3613 18.296 16.34 18.872C16.276 20.152 15.892 21.1867 15.188 21.976C14.4947 22.7653 13.4333 23.16 12.004 23.16ZM12.004 21.288C12.6653 21.288 13.1613 21.0747 13.492 20.648C13.8227 20.2107 13.9987 19.592 14.02 18.792C14.0307 18.4827 14.036 18.008 14.036 17.368C14.036 16.728 14.0307 16.264 14.02 15.976C13.9987 15.1973 13.8227 14.5893 13.492 14.152C13.1613 13.7147 12.6653 13.4907 12.004 13.48C11.3427 13.4907 10.8467 13.7147 10.516 14.152C10.1853 14.5893 10.0093 15.1973 9.988 15.976C9.97733 16.264 9.972 16.728 9.972 17.368C9.972 18.008 9.97733 18.4827 9.988 18.792C10.0093 19.592 10.1853 20.2107 10.516 20.648C10.8467 21.0747 11.3427 21.288 12.004 21.288ZM23.1269 23C23.0202 23 22.9295 22.9627 22.8549 22.888C22.7802 22.8133 22.7429 22.7227 22.7429 22.616V20.568H17.6709C17.5642 20.568 17.4735 20.5307 17.3989 20.456C17.3242 20.3813 17.2869 20.2907 17.2869 20.184V19.08C17.2869 18.9093 17.3455 18.7493 17.4629 18.6L22.1829 12.072C22.2362 11.9867 22.3162 11.9227 22.4229 11.88C22.5295 11.8267 22.6469 11.8 22.7749 11.8H24.5349C24.6522 11.8 24.7429 11.8373 24.8069 11.912C24.8815 11.976 24.9189 12.0667 24.9189 12.184V18.664H26.3589C26.4762 18.664 26.5669 18.7013 26.6309 18.776C26.7055 18.84 26.7429 18.9307 26.7429 19.048V20.184C26.7429 20.2907 26.7055 20.3813 26.6309 20.456C26.5669 20.5307 26.4762 20.568 26.3589 20.568H24.9189V22.616C24.9189 22.7227 24.8815 22.8133 24.8069 22.888C24.7429 22.9627 24.6522 23 24.5349 23H23.1269ZM19.5429 18.728H22.7909V14.136L19.5429 18.728Z" fill="#512D87"/>
</svg>
