<svg width="34" height="34" viewBox="0 0 34 34" fill="none" xmlns="http://www.w3.org/2000/svg">
<circle cx="17" cy="17" r="16.5" fill="white" stroke="#464860"/>
<mask id="mask0" mask-type="alpha" maskUnits="userSpaceOnUse" x="1" y="1" width="32" height="32">
<circle cx="17" cy="17" r="15.5" fill="white" stroke="#464860"/>
</mask>
<g mask="url(#mask0)">
<circle cx="20" cy="19" r="17" fill="#CCB8F4"/>
</g>
<path d="M13.5196 23.16C12.0903 23.16 11.0236 22.7653 10.3196 21.976C9.62629 21.1867 9.24762 20.152 9.18362 18.872C9.17296 18.584 9.16762 18.0933 9.16762 17.4C9.16762 16.696 9.17296 16.1947 9.18362 15.896C9.23696 14.6373 9.62096 13.6133 10.3356 12.824C11.0503 12.0347 12.1116 11.64 13.5196 11.64C14.9276 11.64 15.989 12.0347 16.7036 12.824C17.4183 13.6133 17.8023 14.6373 17.8556 15.896C17.877 16.4933 17.8876 16.9947 17.8876 17.4C17.8876 17.8053 17.877 18.296 17.8556 18.872C17.7916 20.152 17.4076 21.1867 16.7036 21.976C16.0103 22.7653 14.949 23.16 13.5196 23.16ZM13.5196 21.288C14.181 21.288 14.677 21.0747 15.0076 20.648C15.3383 20.2107 15.5143 19.592 15.5356 18.792C15.5463 18.4827 15.5516 18.008 15.5516 17.368C15.5516 16.728 15.5463 16.264 15.5356 15.976C15.5143 15.1973 15.3383 14.5893 15.0076 14.152C14.677 13.7147 14.181 13.4907 13.5196 13.48C12.8583 13.4907 12.3623 13.7147 12.0316 14.152C11.701 14.5893 11.525 15.1973 11.5036 15.976C11.493 16.264 11.4876 16.728 11.4876 17.368C11.4876 18.008 11.493 18.4827 11.5036 18.792C11.525 19.592 11.701 20.2107 12.0316 20.648C12.3623 21.0747 12.8583 21.288 13.5196 21.288ZM22.7545 23C22.6478 23 22.5572 22.9627 22.4825 22.888C22.4078 22.8133 22.3705 22.7227 22.3705 22.616V14.36L19.9545 16.216C19.8905 16.2693 19.8105 16.296 19.7145 16.296C19.5865 16.296 19.4852 16.2427 19.4105 16.136L18.7225 15.24C18.6692 15.1653 18.6425 15.0907 18.6425 15.016C18.6425 14.888 18.7012 14.7813 18.8185 14.696L22.4025 11.912C22.5198 11.8373 22.6532 11.8 22.8025 11.8H24.2425C24.3492 11.8 24.4398 11.8373 24.5145 11.912C24.5892 11.9867 24.6265 12.0773 24.6265 12.184V22.616C24.6265 22.7227 24.5892 22.8133 24.5145 22.888C24.4398 22.9627 24.3492 23 24.2425 23H22.7545Z" fill="#512D87"/>
</svg>
