<svg width="47" height="46" viewBox="0 0 47 46" fill="none" xmlns="http://www.w3.org/2000/svg">
<path d="M16.5858 27.7321C14.6858 29.7421 11.7958 30.3221 8.23575 29.4021C4.66575 28.4721 2.42575 26.5721 1.75575 23.8921C0.925752 20.6021 2.55575 16.3621 5.80575 13.3521C6.09575 13.0821 6.35575 12.8221 6.58575 12.5621C7.09575 12.9221 7.76575 13.3021 8.83575 13.5721C10.3558 13.9621 11.2758 13.8021 12.1658 13.6521C12.9758 13.5121 13.7458 13.3821 15.0258 13.7121C16.3158 14.0421 16.9158 14.5321 17.5558 15.0521L17.8058 15.2521C17.8158 15.2621 17.8258 15.2621 17.8358 15.2721C17.9158 15.6721 18.0358 16.1021 18.1858 16.5621C19.5658 20.7721 18.9158 25.2621 16.5858 27.7321Z" fill="white"/>
<path d="M17.6756 29.2821C15.7756 31.2921 12.8856 31.8721 9.3256 30.9521C5.7556 30.0221 3.5156 28.1221 2.8456 25.4421C2.0156 22.1521 3.6456 17.9121 6.8956 14.9021C7.1856 14.6321 7.4456 14.3721 7.6756 14.1121C8.1856 14.4721 8.8556 14.8521 9.9256 15.1221C11.4456 15.5121 12.3656 15.3521 13.2556 15.2021C14.0656 15.0621 14.8356 14.9321 16.1156 15.2621C17.4056 15.5921 18.0056 16.0821 18.6456 16.6021L18.8956 16.8021C18.9056 16.8121 18.9156 16.8121 18.9256 16.8221C19.0056 17.2221 19.1256 17.6521 19.2756 18.1121C20.6556 22.3221 20.0056 26.8121 17.6756 29.2821Z" fill="#CCB8F4"/>
<path d="M7.5888 22.9378L5.59082 23.3501L6.00108 25.3383L7.99906 24.926L7.5888 22.9378Z" fill="white"/>
<path d="M8.38575 16.0621L9.42575 17.8321L7.67575 18.8521L6.64575 17.1021L8.38575 16.0621Z" fill="white"/>
<path d="M15.3871 16.6594L13.3628 16.8108L13.5142 18.8351L15.5385 18.6837L15.3871 16.6594Z" fill="white"/>
<path d="M13.9056 25.7221L12.2856 24.4921L13.5156 22.8821L15.1356 24.1021L13.9056 25.7221Z" fill="white"/>
<path d="M2.34566 5.6021C3.09566 2.7121 6.05566 0.982103 8.94566 1.7321C11.6857 2.4421 13.3857 5.1221 12.9257 7.8521L7.65566 6.4821C7.46566 6.4321 7.27566 6.4821 7.13566 6.6121C6.99566 6.7421 6.93566 6.9421 6.97566 7.1321C6.99566 7.2421 7.02566 7.3621 7.06566 7.4921C7.29566 8.4121 7.63566 9.7521 5.78566 11.7921C2.83566 10.9621 1.71566 8.0121 2.34566 5.6021Z" fill="white"/>
<path d="M1.47573 4.48209C2.22573 1.60209 5.18573 -0.137909 8.08573 0.612091C10.8257 1.32209 12.5257 4.00209 12.0657 6.73209L6.78573 5.36209C6.59573 5.31209 6.40573 5.36209 6.26573 5.49209C6.12573 5.62209 6.06573 5.82209 6.10573 6.00209C6.13573 6.12209 6.16573 6.24209 6.19573 6.37209C6.43573 7.29209 6.76573 8.63209 4.92573 10.6821C1.96573 9.84209 0.845731 6.89209 1.47573 4.48209Z" fill="#A3EFE0"/>
<path d="M8.65579 22.6521C8.53579 22.0921 7.99579 21.7321 7.43579 21.8521L5.29579 22.2821C5.02579 22.3421 4.79579 22.4921 4.63579 22.7221C4.48579 22.9521 4.43579 23.2321 4.48579 23.4921L4.92579 25.6221C4.98579 25.8921 5.13579 26.1221 5.36579 26.2721C5.46579 26.3321 5.56579 26.3821 5.67579 26.4121C5.82579 26.4521 5.98579 26.4521 6.14579 26.4221L8.28579 25.9921C8.84579 25.8821 9.20579 25.3321 9.08579 24.7721L8.65579 22.6521ZM6.00579 25.3421L5.59579 23.3521L7.58579 22.9421L7.99579 24.9321L6.00579 25.3421Z" fill="#464860"/>
<path d="M7.38577 19.952C7.65577 20.022 7.93577 19.982 8.16577 19.842L10.0458 18.742C10.2858 18.602 10.4558 18.382 10.5258 18.112C10.5958 17.842 10.5558 17.572 10.4158 17.332L9.31577 15.462C9.17577 15.222 8.95577 15.052 8.68577 14.982C8.41577 14.912 8.13577 14.952 7.90577 15.092L6.02577 16.192C5.53577 16.482 5.36577 17.112 5.65577 17.602L6.75577 19.472C6.89577 19.712 7.11577 19.882 7.38577 19.952ZM8.38577 16.062L9.42577 17.832L7.67577 18.862L6.64577 17.112L8.38577 16.062Z" fill="#464860"/>
<path d="M12.7757 19.6821C12.8957 19.7921 13.0357 19.8621 13.1857 19.9021C13.2957 19.9321 13.4057 19.9421 13.5257 19.9321L15.6957 19.7721C15.9657 19.7521 16.2257 19.6221 16.4057 19.4121C16.5857 19.2021 16.6757 18.9421 16.6557 18.6621L16.4957 16.4921C16.4557 15.9221 15.9557 15.5021 15.3857 15.5421L13.2157 15.7021C12.9357 15.7221 12.6857 15.8521 12.5057 16.0621C12.3257 16.2721 12.2357 16.5321 12.2557 16.8121L12.4157 18.9821C12.4357 19.2521 12.5657 19.5021 12.7757 19.6821ZM15.3957 16.6521L15.5457 18.6721L13.5157 18.8221L13.3657 16.8021L15.3957 16.6521Z" fill="#464860"/>
<path d="M15.8656 23.272L14.1256 21.962C13.6656 21.622 13.0256 21.712 12.6756 22.162L11.3556 23.892C11.0156 24.342 11.1056 24.992 11.5556 25.332L13.2956 26.642C13.4056 26.722 13.5356 26.782 13.6556 26.822C14.0456 26.922 14.4856 26.792 14.7356 26.452L16.0556 24.722C16.4056 24.262 16.3156 23.612 15.8656 23.272ZM13.9056 25.722L12.2856 24.492L13.5156 22.872L15.1356 24.102L13.9056 25.722Z" fill="#464860"/>
<path d="M5.81567 6.50204C5.89567 6.21204 5.71567 5.90204 5.41567 5.83204L4.01567 5.46204C3.71567 5.38204 3.41567 5.56204 3.34567 5.85204C3.26567 6.14204 3.44567 6.45204 3.74567 6.52204L5.13567 6.89204C5.43567 6.97204 5.73567 6.79204 5.81567 6.50204Z" fill="#464860"/>
<path d="M8.04572 5.19201C8.34572 5.27201 8.64572 5.09202 8.71572 4.80202L9.07572 3.40202C9.15572 3.11202 8.97572 2.80202 8.67572 2.73202C8.37572 2.66202 8.07572 2.83202 8.00572 3.12202L7.64572 4.52202C7.57572 4.81202 7.75572 5.11201 8.04572 5.19201Z" fill="#464860"/>
<path d="M5.24575 7.69207L3.99575 8.42207C3.73575 8.57207 3.64575 8.91207 3.79575 9.17207C3.87575 9.30207 3.99575 9.39207 4.13575 9.42207C4.27575 9.45207 4.42575 9.44207 4.55575 9.36207L5.80575 8.63207C6.06575 8.48207 6.15575 8.14207 6.00575 7.88207C5.85575 7.62207 5.51575 7.53207 5.24575 7.69207Z" fill="#464860"/>
<path d="M9.50563 6.28198C9.64563 6.32198 9.79563 6.30198 9.92563 6.23198L11.1756 5.50198C11.4356 5.35198 11.5256 5.01198 11.3756 4.75198C11.2256 4.49198 10.8856 4.40198 10.6156 4.55198L9.36563 5.28198C9.10563 5.43198 9.01563 5.77198 9.16563 6.03198C9.24563 6.16198 9.36563 6.25198 9.50563 6.28198Z" fill="#464860"/>
<path d="M5.90578 5.18198C5.98578 5.31198 6.10578 5.40198 6.24578 5.43198C6.38578 5.46198 6.53578 5.45198 6.66578 5.37198C6.92578 5.22198 7.01578 4.88198 6.86578 4.62198L6.11578 3.38198C5.96578 3.12198 5.62578 3.03198 5.35578 3.18198C5.09578 3.34198 5.01578 3.67198 5.16578 3.94198L5.90578 5.18198Z" fill="#464860"/>
<path d="M20.2057 10.552C20.3357 10.412 20.3757 10.212 20.3157 10.022C20.2557 9.84203 20.1157 9.70203 19.9257 9.65203L13.9957 8.12203C14.6057 4.80203 12.5457 1.52203 9.22567 0.662032C5.74567 -0.237968 2.17567 1.85203 1.26567 5.32203C0.545672 8.09203 1.73567 11.452 4.91567 12.672C1.46567 15.942 -0.244328 20.532 0.675672 24.162C1.20567 26.262 2.85567 29.022 7.59567 30.362L4.10567 43.742L0.685672 42.852C0.385672 42.772 0.085672 42.952 0.015672 43.242C-0.054328 43.532 0.115672 43.842 0.415672 43.912L8.32567 45.962C8.62567 46.042 8.92567 45.862 8.99567 45.572C9.07567 45.282 8.89567 44.972 8.59567 44.902L5.17567 44.012L8.66567 30.622C13.2557 31.592 15.9357 30.022 17.3857 28.482C19.9857 25.722 20.7357 20.792 19.2357 16.212C18.1057 12.752 19.2157 11.592 19.9457 10.822C20.0457 10.732 20.1257 10.642 20.2057 10.552ZM17.6457 13.722C17.0857 13.312 16.4057 12.932 15.3057 12.642C13.7857 12.252 12.8657 12.412 11.9757 12.562C11.1657 12.702 10.3957 12.832 9.11567 12.502C8.25567 12.282 7.71567 11.992 7.28567 11.692C8.49567 10.012 8.45567 8.71203 8.26567 7.76203L18.7557 10.482C18.2057 11.142 17.6157 12.092 17.6457 13.722ZM2.34567 5.60203C3.09567 2.71203 6.05567 0.982032 8.94567 1.73203C11.6857 2.44203 13.3857 5.12203 12.9257 7.85203L7.65567 6.48203C7.46567 6.43203 7.27567 6.48203 7.13567 6.61203C6.99567 6.74203 6.93567 6.94203 6.97567 7.13203C6.99567 7.24203 7.02567 7.36203 7.06567 7.49203C7.29567 8.41203 7.63567 9.75203 5.78567 11.792C2.83567 10.962 1.71567 8.01203 2.34567 5.60203ZM16.5857 27.732C14.6857 29.742 11.7957 30.322 8.23567 29.402C4.66567 28.472 2.42567 26.572 1.75567 23.892C0.925672 20.602 2.55567 16.362 5.80567 13.352C6.09567 13.082 6.35567 12.822 6.58567 12.562C7.09567 12.922 7.76567 13.302 8.83567 13.572C10.3557 13.962 11.2757 13.802 12.1657 13.652C12.9757 13.512 13.7457 13.382 15.0257 13.712C16.3157 14.042 16.9157 14.532 17.5557 15.052L17.8057 15.252C17.8157 15.262 17.8257 15.262 17.8357 15.272C17.9157 15.672 18.0357 16.102 18.1857 16.562C19.5657 20.772 18.9157 25.262 16.5857 27.732Z" fill="#464860"/>
<path d="M28.4557 15.6921C28.6257 15.2321 28.7557 14.8121 28.8557 14.4121C28.8657 14.4021 28.8757 14.4021 28.8857 14.3921L29.1357 14.2021C29.7957 13.7121 30.4157 13.2421 31.7157 12.9621C33.0157 12.6821 33.7757 12.8421 34.5757 13.0121C35.4657 13.2021 36.3757 13.3921 37.9057 13.0621C38.9857 12.8221 39.6757 12.4721 40.1957 12.1321C40.4157 12.3921 40.6657 12.6721 40.9457 12.9521C44.0857 16.0821 45.5457 20.3821 44.5957 23.6421C43.8157 26.2921 41.5057 28.1121 37.9057 28.9021C34.3057 29.6921 31.4457 29.0021 29.6257 26.9221C27.3957 24.3521 26.9157 19.8421 28.4557 15.6921Z" fill="white"/>
<path d="M27.3057 17.2021C27.4757 16.7421 27.6057 16.3221 27.7057 15.9221C27.7157 15.9121 27.7257 15.9121 27.7357 15.9021L27.9957 15.7221C28.6557 15.2321 29.2757 14.7621 30.5757 14.4821C31.8757 14.2021 32.6357 14.3621 33.4357 14.5321C34.3257 14.7221 35.2357 14.9121 36.7657 14.5821C37.8457 14.3421 38.5357 13.9921 39.0557 13.6521C39.2757 13.9121 39.5257 14.1921 39.8057 14.4721C42.9457 17.6021 44.4057 21.9021 43.4557 25.1621C42.6757 27.8121 40.3657 29.6321 36.7657 30.4221C33.1657 31.2121 30.3057 30.5221 28.4857 28.4421C26.2457 25.8621 25.7757 21.3521 27.3057 17.2021Z" fill="#A3EFE0"/>
<path d="M38.3257 24.4421L38.8057 22.4721L40.7857 22.9521L40.2957 24.9221L38.3257 24.4421Z" fill="white"/>
<path d="M39.9755 16.6721L38.8755 18.3821L37.1655 17.2921L38.2755 15.5621L39.9755 16.6721Z" fill="white"/>
<path d="M31.2448 15.8924L31.0154 17.9094L33.0324 18.1388L33.2618 16.1218L31.2448 15.8924Z" fill="white"/>
<path d="M31.2156 23.3421L32.8856 22.1821L34.0556 23.8421L32.3856 25.0121L31.2156 23.3421Z" fill="white"/>
<path d="M41.0256 11.402C39.2556 9.29205 39.6456 7.96205 39.9156 7.05205C39.9556 6.92205 39.9856 6.80205 40.0156 6.69205C40.0656 6.50205 40.0056 6.31205 39.8756 6.17205C39.7456 6.03205 39.5456 5.97205 39.3556 6.02205L34.0356 7.18205C33.6856 4.44205 35.4856 1.82205 38.2456 1.22205C41.1656 0.582049 44.0556 2.43205 44.6956 5.34205C45.2456 7.77205 44.0156 10.682 41.0256 11.402Z" fill="white"/>
<path d="M41.9357 10.3121C40.1657 8.20208 40.5557 6.87208 40.8257 5.96208C40.8657 5.83208 40.8957 5.71208 40.9257 5.60208C40.9757 5.41208 40.9157 5.22208 40.7857 5.08208C40.6557 4.94208 40.4557 4.88208 40.2657 4.93208L34.9457 6.09208C34.5957 3.35208 36.3957 0.732083 39.1557 0.132083C42.0757 -0.507917 44.9657 1.34208 45.6057 4.25208C46.1557 6.68208 44.9257 9.59208 41.9357 10.3121Z" fill="#CCB8F4"/>
<path d="M37.2358 24.2521C37.0958 24.8021 37.4358 25.3621 37.9958 25.5021L40.1158 26.0221C40.2658 26.0621 40.4258 26.0621 40.5858 26.0321C40.6958 26.0121 40.8058 25.9621 40.9058 25.9021C41.1458 25.7621 41.3058 25.5321 41.3758 25.2621L41.8958 23.1521C41.9658 22.8821 41.9158 22.6121 41.7758 22.3721C41.6358 22.1321 41.4058 21.9721 41.1358 21.9021L39.0158 21.3821C38.4658 21.2421 37.9058 21.5821 37.7658 22.1321L37.2358 24.2521ZM38.3258 24.4421L38.8158 22.4721L40.7958 22.9521L40.3058 24.9221L38.3258 24.4421Z" fill="#464860"/>
<path d="M39.7658 19.0421L40.9358 17.2121C41.2458 16.7321 41.1058 16.0922 40.6258 15.7922L38.7958 14.6221C38.5658 14.4721 38.2858 14.4221 38.0158 14.4821C37.7458 14.5421 37.5158 14.7021 37.3658 14.9321L36.1958 16.7622C36.0458 16.9922 35.9958 17.2721 36.0558 17.5421C36.1158 17.8121 36.2758 18.0422 36.5058 18.1922L38.3358 19.3622C38.5658 19.5122 38.8458 19.5622 39.1158 19.5022C39.3858 19.4322 39.6158 19.2721 39.7658 19.0421ZM39.9758 16.6722L38.8758 18.3821L37.1658 17.2921L38.2758 15.5621L39.9758 16.6722Z" fill="#464860"/>
<path d="M34.1258 18.3321L34.3758 16.1721C34.4058 15.9021 34.3258 15.6321 34.1558 15.4121C33.9858 15.1921 33.7358 15.0621 33.4658 15.0321L31.2958 14.7921C30.7258 14.7221 30.2158 15.1321 30.1558 15.7021L29.9058 17.8621C29.8758 18.1321 29.9558 18.4021 30.1258 18.6221C30.2958 18.8421 30.5458 18.9721 30.8158 19.0021L32.9758 19.2421C33.0858 19.2521 33.2058 19.2521 33.3158 19.2221C33.4658 19.1921 33.6158 19.1221 33.7358 19.0221C33.9658 18.8521 34.0958 18.6021 34.1258 18.3321ZM33.2658 16.1221L33.0358 18.1421L31.0158 17.9121L31.2458 15.8921L33.2658 16.1221Z" fill="#464860"/>
<path d="M30.2657 23.9221L31.5157 25.7021C31.7657 26.0521 32.1857 26.2021 32.5857 26.1121C32.7157 26.0821 32.8357 26.0321 32.9557 25.9521L34.7457 24.7021C35.2157 24.3821 35.3257 23.7321 34.9957 23.2721L33.7457 21.4921C33.4157 21.0221 32.7757 20.9121 32.3057 21.2421L30.5157 22.4921C30.0557 22.8121 29.9457 23.4521 30.2657 23.9221ZM31.2157 23.3421L32.8857 22.1821L34.0557 23.8421L32.3857 25.0021L31.2157 23.3421Z" fill="#464860"/>
<path d="M41.8659 6.52208L43.2859 6.21208C43.5859 6.14208 43.7759 5.85208 43.7059 5.55208C43.6359 5.25208 43.3459 5.06208 43.0459 5.13208L41.6259 5.44208C41.3259 5.51208 41.1359 5.80208 41.2059 6.10208C41.2759 6.40208 41.5659 6.59208 41.8659 6.52208Z" fill="#464860"/>
<path d="M39.4458 4.05204L39.1358 2.64204C39.0658 2.34204 38.7758 2.15204 38.4758 2.22204C38.1758 2.29204 37.9858 2.58204 38.0558 2.88204L38.3658 4.29204C38.4358 4.59204 38.7258 4.78204 39.0258 4.71204C39.3258 4.64204 39.5158 4.35204 39.4458 4.05204Z" fill="#464860"/>
<path d="M40.9659 7.48205C40.8059 7.74205 40.8759 8.08205 41.1359 8.24205L42.3559 9.02205C42.4859 9.10205 42.6359 9.12205 42.7759 9.09205C42.9159 9.06205 43.0359 8.98205 43.1259 8.85205C43.2859 8.59205 43.2159 8.25205 42.9559 8.09205L41.7359 7.31205C41.4659 7.15205 41.1259 7.22205 40.9659 7.48205Z" fill="#464860"/>
<path d="M37.8759 5.51208C38.0359 5.25208 37.9659 4.91208 37.7059 4.75208L36.4859 3.97208C36.2259 3.81208 35.8859 3.88208 35.7259 4.14208C35.5659 4.40208 35.6359 4.74208 35.8959 4.90208L37.1159 5.68208C37.2459 5.76208 37.3959 5.78208 37.5359 5.75208C37.6659 5.72208 37.7959 5.64208 37.8759 5.51208Z" fill="#464860"/>
<path d="M41.9559 3.57205C42.1159 3.31205 42.0459 2.97205 41.7859 2.81205C41.5259 2.65205 41.1859 2.72205 41.0259 2.98205L40.2359 4.19205C40.0759 4.45205 40.1459 4.79205 40.4059 4.95205C40.5359 5.03205 40.6859 5.05205 40.8259 5.02205C40.9659 4.99205 41.0859 4.91205 41.1759 4.78205L41.9559 3.57205Z" fill="#464860"/>
<path d="M26.9158 9.8921C27.6158 10.6921 28.6758 11.8921 27.4158 15.3021C25.7458 19.8221 26.2958 24.7821 28.7958 27.6321C30.1958 29.2221 32.8058 30.8921 37.4258 30.1021L40.4058 43.6221L36.9558 44.3821C36.6558 44.4521 36.4658 44.7421 36.5358 45.0421C36.6058 45.3421 36.8958 45.5321 37.1958 45.4621L45.1858 43.7121C45.4858 43.6421 45.6758 43.3521 45.6058 43.0521C45.5358 42.7521 45.2458 42.5621 44.9458 42.6321L41.4958 43.3921L38.5258 29.8821C43.3158 28.7221 45.0658 26.0321 45.6758 23.9521C46.7258 20.3621 45.2058 15.7121 41.8758 12.3121C45.0958 11.2221 46.4158 7.9021 45.8058 5.1121C45.0358 1.6121 41.5458 -0.617899 38.0358 0.152101C34.6758 0.882101 32.5058 4.0921 32.9858 7.4221L27.0058 8.7321C26.8158 8.7721 26.6658 8.9121 26.6058 9.0921C26.5458 9.2721 26.5758 9.4721 26.6958 9.6221C26.7458 9.7021 26.8258 9.7921 26.9158 9.8921ZM28.1158 9.6121L38.7058 7.2921C38.4758 8.2321 38.3958 9.5221 39.5358 11.2521C39.0958 11.5321 38.5458 11.8021 37.6758 11.9921C36.3758 12.2721 35.6158 12.1121 34.8158 11.9421C33.9258 11.7521 33.0158 11.5621 31.4858 11.8921C30.3758 12.1321 29.6758 12.4921 29.1058 12.8821C29.1958 11.2421 28.6458 10.2721 28.1158 9.6121ZM41.0258 11.4021C39.2558 9.2921 39.6458 7.9621 39.9158 7.0521C39.9558 6.9221 39.9858 6.8021 40.0158 6.6921C40.0658 6.5021 40.0058 6.3121 39.8758 6.1721C39.7458 6.0321 39.5458 5.9721 39.3558 6.0221L34.0358 7.1821C33.6858 4.4421 35.4858 1.8221 38.2458 1.2221C41.1658 0.582101 44.0558 2.4321 44.6958 5.3421C45.2458 7.7721 44.0158 10.6821 41.0258 11.4021ZM28.4558 15.6921C28.6258 15.2321 28.7558 14.8121 28.8558 14.4121C28.8658 14.4021 28.8758 14.4021 28.8858 14.3921L29.1358 14.2021C29.7958 13.7121 30.4158 13.2421 31.7158 12.9621C33.0158 12.6821 33.7758 12.8421 34.5758 13.0121C35.4658 13.2021 36.3758 13.3921 37.9058 13.0621C38.9858 12.8221 39.6758 12.4721 40.1958 12.1321C40.4158 12.3921 40.6658 12.6721 40.9458 12.9521C44.0858 16.0821 45.5458 20.3821 44.5958 23.6421C43.8158 26.2921 41.5058 28.1121 37.9058 28.9021C34.3058 29.6921 31.4458 29.0021 29.6258 26.9221C27.3958 24.3521 26.9158 19.8421 28.4558 15.6921Z" fill="#464860"/>
</svg>
