<svg width="33" height="37" viewBox="0 0 33 37" fill="none" xmlns="http://www.w3.org/2000/svg">
<path d="M27.4998 5.71875C27.4895 5.85056 27.4689 5.97224 27.4483 6.10406C27.4277 6.2156 27.4174 6.32713 27.3968 6.42853C27.3762 6.56035 27.3453 6.68202 27.3247 6.81384C27.3041 6.91524 27.2835 7.02678 27.2629 7.12817C27.232 7.25999 27.2011 7.39181 27.1702 7.51348C27.1496 7.61488 27.1187 7.71628 27.0981 7.81768C27.0672 7.9495 27.026 8.08131 26.9848 8.22327C26.9539 8.31453 26.9333 8.41592 26.9024 8.50718C26.8612 8.65928 26.8097 8.80124 26.7582 8.94319C26.7273 9.02431 26.7067 9.09529 26.6758 9.17641C26.5934 9.39948 26.511 9.62256 26.4183 9.83549C26.408 9.86591 26.3977 9.88619 26.3771 9.91661C26.2947 10.1093 26.2124 10.2918 26.13 10.4844C26.0991 10.5554 26.0579 10.6365 26.0167 10.7075C25.9446 10.8495 25.8828 10.9813 25.8107 11.1232C25.7695 11.2044 25.718 11.2956 25.6665 11.3767C25.5944 11.4984 25.5326 11.6201 25.4605 11.7418C25.409 11.833 25.3575 11.9141 25.2957 12.0054C25.2236 12.1169 25.1515 12.2386 25.0794 12.3502C25.0176 12.4414 24.9661 12.5225 24.9043 12.6138C24.8322 12.7253 24.7601 12.8369 24.6777 12.9383C24.6159 13.0295 24.5541 13.1106 24.482 13.2019C24.3996 13.3033 24.3275 13.4148 24.2451 13.5162C24.173 13.6075 24.1112 13.6886 24.0391 13.7697C23.9567 13.8711 23.8743 13.9725 23.7919 14.0638C23.7198 14.1449 23.6477 14.2361 23.5653 14.3173C23.4829 14.4085 23.3903 14.5099 23.3079 14.6012C23.2255 14.6823 23.1534 14.7634 23.071 14.8445C23.0195 14.8952 22.9783 14.9358 22.9268 14.9865L16.9839 12.5022C16.9839 12.4414 16.9942 12.3704 16.9942 12.2995C17.0045 12.1879 17.0045 12.0662 17.0148 11.9547C17.0251 11.833 17.0354 11.7012 17.0457 11.5795C17.056 11.468 17.0663 11.3565 17.0869 11.2348C17.1075 11.1131 17.1178 10.9813 17.1384 10.8596C17.159 10.7481 17.1693 10.6365 17.1899 10.525C17.2105 10.4033 17.2414 10.2715 17.262 10.1498C17.2826 10.0383 17.3032 9.92675 17.3341 9.82535C17.365 9.70367 17.3959 9.57186 17.4268 9.45018C17.4577 9.34878 17.4783 9.23725 17.5092 9.13585C17.5401 9.01417 17.5813 8.88235 17.6225 8.76068C17.6534 8.65928 17.6843 8.55788 17.7152 8.45648C17.7564 8.32467 17.8079 8.20299 17.8491 8.07117C17.88 7.97991 17.9109 7.87852 17.9521 7.78726C18.0036 7.6453 18.055 7.51348 18.1168 7.38167C18.1477 7.30055 18.1786 7.20929 18.2198 7.12817C18.2919 6.9558 18.3743 6.79356 18.4464 6.62119C18.467 6.57049 18.4876 6.51979 18.5082 6.46909C18.6112 6.25615 18.7245 6.04322 18.8378 5.83028C18.8687 5.76945 18.9099 5.70861 18.9408 5.63763C19.0232 5.49567 19.1056 5.34358 19.188 5.20162C19.2395 5.1205 19.2807 5.04952 19.3322 4.9684C19.4146 4.84673 19.4867 4.71491 19.5691 4.59323C19.6206 4.51212 19.6824 4.431 19.7339 4.34988C19.8163 4.2282 19.8987 4.11666 19.9811 4.00513C20.0429 3.92401 20.1047 3.84289 20.1665 3.76177C20.2489 3.65024 20.3313 3.5387 20.424 3.4373C20.4858 3.35618 20.5579 3.27506 20.6197 3.19395C20.7124 3.09255 20.7947 2.98101 20.8874 2.87961C20.9595 2.7985 21.0316 2.72752 21.1037 2.6464C21.1655 2.57542 21.2273 2.51458 21.2891 2.4436C22.3912 2.57542 23.4829 2.86947 24.5129 3.29534L24.5335 3.30548C25.6253 3.76177 26.6346 4.37016 27.541 5.1205C27.5307 5.20162 27.5307 5.29288 27.5204 5.374C27.5204 5.49567 27.5101 5.60721 27.4998 5.71875Z" fill="white"/>
<path d="M19.7856 2.36255C19.8371 2.36255 19.8886 2.36255 19.9401 2.36255C19.8783 2.43353 19.8268 2.50451 19.765 2.57548C19.7032 2.64646 19.6414 2.71744 19.5796 2.79856C19.4766 2.93038 19.3736 3.06219 19.2706 3.19401C19.2191 3.25485 19.1779 3.31569 19.1265 3.38666C18.9823 3.57932 18.8381 3.78212 18.7042 3.98491C18.6836 4.01533 18.663 4.05589 18.6424 4.08631C18.5291 4.25868 18.4158 4.43106 18.3128 4.60344C18.2716 4.67441 18.2201 4.75553 18.1789 4.82651C18.0965 4.95833 18.0244 5.10028 17.942 5.2321C17.8905 5.31322 17.8493 5.40448 17.8081 5.4856C17.736 5.61741 17.6742 5.74923 17.6021 5.88105C17.5609 5.9723 17.5197 6.05342 17.4785 6.14468C17.4167 6.28664 17.3549 6.41845 17.2931 6.56041C17.2519 6.64153 17.221 6.72265 17.1798 6.8139C17.1077 6.97614 17.0459 7.13838 16.9841 7.31075C16.9635 7.37159 16.9326 7.43243 16.912 7.49327C16.8296 7.71634 16.7472 7.94956 16.6751 8.17263C16.6545 8.23347 16.6339 8.30445 16.6133 8.36529C16.5618 8.53766 16.5103 8.6999 16.4691 8.87228C16.4485 8.96353 16.428 9.04465 16.3971 9.13591C16.3559 9.28801 16.325 9.42996 16.2941 9.58206C16.2735 9.67332 16.2529 9.77472 16.2323 9.86597C16.2014 10.0181 16.1705 10.16 16.1499 10.3121C16.1293 10.4034 16.119 10.4946 16.0984 10.596C16.0778 10.7583 16.0469 10.9104 16.0263 11.0726C16.016 11.1537 16.0057 11.245 15.9954 11.3261C15.9748 11.539 15.9542 11.7621 15.9336 11.975C15.9336 12.0055 15.9233 12.0257 15.9233 12.0562C15.9233 12.0562 15.9233 12.0562 15.9233 12.0663L8.89893 9.12577C10.9177 4.96847 15.1405 2.36255 19.7856 2.36255Z" fill="white"/>
<path d="M31.1459 18.434L24.0083 15.4529C24.1834 15.2704 24.3482 15.098 24.5027 14.9054C24.5439 14.8547 24.5954 14.804 24.6366 14.7533C24.7499 14.6215 24.8632 14.4795 24.9765 14.3477C25.028 14.2767 25.0795 14.2159 25.1413 14.1449C25.2443 14.0232 25.337 13.8914 25.4297 13.7596C25.4811 13.6886 25.5326 13.6176 25.5944 13.5365C25.6871 13.4047 25.7798 13.2729 25.8622 13.141C25.9137 13.0701 25.9549 12.9991 26.0064 12.9281C26.0991 12.776 26.1918 12.6239 26.2845 12.4718C26.3154 12.411 26.3566 12.3603 26.3875 12.2994C26.5111 12.0865 26.6347 11.8736 26.748 11.6606C26.7686 11.6201 26.7892 11.5795 26.8098 11.539C26.9025 11.3666 26.9952 11.1841 27.0776 11.0117C27.1085 10.9407 27.1497 10.8596 27.1806 10.7886C27.2424 10.6467 27.3145 10.4946 27.3763 10.3526C27.4072 10.2715 27.4484 10.1802 27.4793 10.0991C27.5411 9.95716 27.5926 9.8152 27.6441 9.67325C27.675 9.58199 27.7059 9.50087 27.7368 9.40961C27.7883 9.25752 27.8398 9.10542 27.8913 8.95332C27.9119 8.87221 27.9428 8.79109 27.9634 8.72011C28.0252 8.52746 28.0767 8.3348 28.1282 8.14214C28.1385 8.10158 28.1488 8.06103 28.1591 8.02047C28.2208 7.78725 28.2723 7.5439 28.3238 7.31068C28.3341 7.2397 28.3444 7.17887 28.365 7.10789C28.3959 6.93551 28.4371 6.76314 28.4577 6.59076C28.468 6.4995 28.4886 6.41838 28.4989 6.32713C28.5092 6.23587 28.5298 6.13447 28.5401 6.04321C31.7536 9.33864 32.7733 14.1347 31.1459 18.434Z" fill="white"/>
<path d="M28.3548 6.25635C28.3445 6.38816 28.3239 6.50984 28.3033 6.64166C28.2827 6.75319 28.2724 6.86473 28.2518 6.96613C28.2312 7.09795 28.2003 7.21962 28.1797 7.35144C28.1591 7.45284 28.1385 7.56437 28.1179 7.66577C28.087 7.79759 28.0561 7.92941 28.0252 8.05108C28.0046 8.15248 27.9737 8.25388 27.9531 8.35528C27.9222 8.48709 27.881 8.61891 27.8398 8.76087C27.8089 8.85213 27.7883 8.95352 27.7574 9.04478C27.7162 9.19688 27.6647 9.33883 27.6132 9.48079C27.5823 9.56191 27.5617 9.63289 27.5308 9.714C27.4484 9.93708 27.366 10.1602 27.2733 10.3731C27.263 10.4035 27.2527 10.4238 27.2321 10.4542C27.1497 10.6469 27.0673 10.8294 26.9849 11.022C26.954 11.093 26.9128 11.1741 26.8716 11.2451C26.7995 11.3871 26.7377 11.5189 26.6656 11.6608C26.6244 11.742 26.5729 11.8332 26.5215 11.9143C26.4494 12.036 26.3876 12.1577 26.3155 12.2794C26.264 12.3706 26.2125 12.4517 26.1507 12.543C26.0786 12.6545 26.0065 12.7762 25.9344 12.8878C25.8726 12.979 25.8211 13.0601 25.7593 13.1514C25.6872 13.2629 25.6151 13.3745 25.5327 13.4759C25.4709 13.5671 25.4091 13.6482 25.337 13.7395C25.2546 13.8409 25.1825 13.9524 25.1001 14.0538C25.028 14.1451 24.9662 14.2262 24.8941 14.3073C24.8117 14.4087 24.7293 14.5101 24.6469 14.6014C24.5748 14.6825 24.5027 14.7737 24.4203 14.8549C24.3379 14.9461 24.2452 15.0475 24.1628 15.1388C24.0804 15.2199 24.0083 15.301 23.9259 15.3821C23.8744 15.4328 23.8332 15.4734 23.7818 15.5241L17.8389 13.0398C17.8389 12.979 17.8492 12.908 17.8492 12.8371C17.8595 12.7255 17.8595 12.6038 17.8698 12.4923C17.8801 12.3706 17.8904 12.2388 17.9007 12.1171C17.911 12.0056 17.9213 11.8941 17.9419 11.7724C17.9625 11.6507 17.9728 11.5189 17.9934 11.3972C18.014 11.2857 18.0243 11.1741 18.0449 11.0626C18.0655 10.9409 18.0964 10.8091 18.117 10.6874C18.1376 10.5759 18.1582 10.4643 18.1891 10.3629C18.22 10.2413 18.2509 10.1095 18.2818 9.98778C18.3127 9.88638 18.3332 9.77484 18.3641 9.67345C18.395 9.55177 18.4362 9.41995 18.4774 9.29827C18.5083 9.19688 18.5392 9.09548 18.5701 8.99408C18.6113 8.86226 18.6628 8.74059 18.704 8.60877C18.7349 8.51751 18.7658 8.41611 18.807 8.32486C18.8585 8.1829 18.91 8.05108 18.9718 7.91927C19.0027 7.83815 19.0336 7.74689 19.0748 7.66577C19.1469 7.4934 19.2293 7.33116 19.3014 7.15878C19.322 7.10809 19.3426 7.05739 19.3632 7.00669C19.4662 6.79375 19.5795 6.58082 19.6928 6.36788C19.7237 6.30704 19.7649 6.24621 19.7958 6.17523C19.8782 6.03327 19.9606 5.88117 20.043 5.73922C20.0945 5.6581 20.1357 5.58712 20.1872 5.506C20.2696 5.38433 20.3417 5.25251 20.4241 5.13083C20.4756 5.04971 20.5374 4.9686 20.5889 4.88748C20.6713 4.7658 20.7537 4.65426 20.8361 4.54272C20.8979 4.46161 20.9597 4.38049 21.0215 4.29937C21.1038 4.18783 21.1862 4.0763 21.2789 3.9749C21.3407 3.89378 21.4128 3.81266 21.4746 3.73154C21.5673 3.63015 21.6497 3.51861 21.7424 3.41721C21.8145 3.33609 21.8866 3.26511 21.9587 3.184C22.0205 3.11302 22.0823 3.05218 22.1441 2.9812C23.2462 3.11302 24.3379 3.40707 25.3679 3.83294L25.3885 3.84308C26.4803 4.29937 27.4896 4.90776 28.396 5.6581C28.3857 5.73922 28.3857 5.83047 28.3754 5.91159C28.3857 6.03327 28.3651 6.14481 28.3548 6.25635Z" fill="#CCB8F4"/>
<path d="M20.6406 2.8999C20.6921 2.8999 20.7436 2.8999 20.7951 2.8999C20.7333 2.97088 20.6715 3.04186 20.62 3.11284C20.5582 3.18382 20.4964 3.25479 20.4346 3.33591C20.3316 3.46773 20.2286 3.59955 20.1256 3.73136C20.0741 3.7922 20.0329 3.85304 19.9814 3.92402C19.8372 4.11667 19.693 4.31947 19.5591 4.52226C19.5385 4.55268 19.5179 4.59324 19.4973 4.62366C19.384 4.79604 19.2707 4.96841 19.1677 5.14079C19.1265 5.21177 19.075 5.29289 19.0338 5.36386C18.9514 5.49568 18.8793 5.63764 18.7969 5.76946C18.7454 5.85057 18.7042 5.94183 18.663 6.02295C18.5909 6.15477 18.5291 6.28658 18.457 6.4184C18.4158 6.50966 18.3746 6.59078 18.3334 6.68203C18.2717 6.82399 18.2099 6.95581 18.1481 7.09776C18.1069 7.17888 18.076 7.26 18.0348 7.35126C17.9627 7.51349 17.9009 7.67573 17.8391 7.84811C17.8185 7.90895 17.7876 7.96978 17.767 8.03062C17.6846 8.2537 17.6022 8.48691 17.5301 8.70999C17.5095 8.77083 17.4889 8.8418 17.4786 8.90264C17.4271 9.07502 17.3756 9.23725 17.3344 9.40963C17.3138 9.50089 17.2932 9.58201 17.2623 9.67326C17.2211 9.82536 17.1902 9.96732 17.1593 10.1194C17.1387 10.2107 17.1181 10.3121 17.0975 10.4033C17.0666 10.5554 17.0357 10.6974 17.0151 10.8495C16.9945 10.9407 16.9842 11.032 16.9636 11.1334C16.943 11.2956 16.9121 11.4477 16.8915 11.61C16.8812 11.6911 16.8709 11.7823 16.8606 11.8635C16.84 12.0764 16.8194 12.2995 16.7988 12.5124C16.7988 12.5428 16.7885 12.5631 16.7885 12.5935C16.7885 12.5935 16.7885 12.5935 16.7885 12.6037L9.76416 9.66312C11.7829 5.49568 15.9954 2.8999 20.6406 2.8999Z" fill="#A3EFE0"/>
<path d="M32.0009 18.9716L24.8633 15.9905C25.0384 15.808 25.2032 15.6356 25.3577 15.443C25.3989 15.3923 25.4504 15.3416 25.4916 15.2909C25.6049 15.1591 25.7182 15.0171 25.8314 14.8853C25.8829 14.8143 25.9344 14.7535 25.9962 14.6825C26.0992 14.5608 26.1919 14.429 26.2846 14.2972C26.3361 14.2262 26.3876 14.1552 26.4494 14.0741C26.5421 13.9423 26.6348 13.8105 26.7172 13.6786C26.7687 13.6077 26.8099 13.5367 26.8614 13.4657C26.9541 13.3136 27.0468 13.1615 27.1395 13.0094C27.1704 12.9486 27.2116 12.8979 27.2425 12.837C27.3661 12.6241 27.4897 12.4112 27.603 12.1982C27.6236 12.1577 27.6442 12.1171 27.6648 12.0766C27.7575 11.9042 27.8502 11.7217 27.9326 11.5493C27.9635 11.4783 28.0047 11.3972 28.0356 11.3262C28.0974 11.1843 28.1695 11.0322 28.2313 10.8902C28.2622 10.8091 28.3034 10.7178 28.3343 10.6367C28.3961 10.4948 28.4476 10.3528 28.499 10.2108C28.5299 10.1196 28.5608 10.0385 28.5917 9.94721C28.6432 9.79512 28.6947 9.64302 28.7462 9.49092C28.7668 9.4098 28.7977 9.32869 28.8183 9.25771C28.8801 9.06505 28.9316 8.8724 28.9831 8.67974C28.9934 8.63918 29.0037 8.59862 29.014 8.55806C29.0758 8.32485 29.1273 8.0815 29.1788 7.84828C29.1891 7.7773 29.1994 7.71646 29.22 7.64549C29.2509 7.47311 29.2921 7.30073 29.3127 7.12836C29.323 7.0371 29.3436 6.95598 29.3539 6.86472C29.3642 6.77347 29.3848 6.67207 29.3951 6.58081C32.6086 9.86609 33.6283 14.6723 32.0009 18.9716Z" fill="#A3EFE0"/>
<path d="M28.4785 4.50209C28.1592 4.22831 27.8296 3.97482 27.4794 3.73146C27.6957 3.09266 27.6854 2.40316 27.4279 1.76435C27.1395 1.06471 26.5936 0.51716 25.883 0.223106C24.4925 -0.35486 22.8961 0.223106 22.2163 1.521C21.8661 1.46016 21.5056 1.39932 21.1554 1.3689C15.367 0.780793 9.94944 3.93426 7.67322 9.20694C7.62172 9.33875 7.61142 9.48071 7.67322 9.61253C7.72472 9.74434 7.82772 9.84574 7.96161 9.90658L16.2219 13.3642L19.0955 14.5607L11.8961 30.7641C10.7528 30.906 10.0421 31.3116 9.40356 31.6868C8.65169 32.1329 8.01311 32.5081 6.63296 32.5081C5.26311 32.5081 4.61423 32.1228 3.86236 31.6868C3.08989 31.2305 2.21442 30.7134 0.535581 30.7134C0.247191 30.7032 0 30.9466 0 31.2406C0 31.5347 0.247191 31.778 0.54588 31.778C1.91573 31.778 2.56461 32.1634 3.31648 32.5994C4.08895 33.0557 4.96442 33.5728 6.64326 33.5728C8.3221 33.5728 9.19757 33.0557 9.97004 32.5994C10.7219 32.1532 11.3605 31.778 12.7406 31.778C14.1105 31.778 14.7594 32.1634 15.5112 32.5994C16.2837 33.0557 17.1592 33.5728 18.838 33.5728C20.5169 33.5728 21.3923 33.0557 22.1648 32.5994C22.9167 32.1532 23.5655 31.778 24.9354 31.778C26.3052 31.778 26.9541 32.1634 27.706 32.5994C28.4785 33.0557 29.3642 33.5728 31.0328 33.5728C31.3315 33.5728 31.5787 33.3294 31.5787 33.0354C31.5787 32.7413 31.3315 32.498 31.0328 32.498C29.6629 32.498 29.014 32.1127 28.2622 31.6767C27.4897 31.2204 26.6039 30.7032 24.9354 30.7032C23.2669 30.7032 22.3811 31.2204 21.6086 31.6767C20.8567 32.1228 20.2079 32.498 18.838 32.498C17.4682 32.498 16.8193 32.1127 16.0674 31.6767C15.3567 31.2508 14.5431 30.7844 13.1011 30.7134L20.0946 14.9765L22.8446 16.1324L31.2285 19.6408C31.3006 19.6712 31.3727 19.6813 31.4448 19.6813C31.5169 19.6813 31.5787 19.6712 31.6507 19.6408C31.7846 19.5901 31.8876 19.4887 31.9494 19.3568C34.1742 14.1653 32.7837 8.2031 28.4785 4.50209ZM27.5 5.71886C27.4897 5.85067 27.4691 5.97235 27.4485 6.10417C27.4279 6.21571 27.4176 6.32724 27.397 6.42864C27.3764 6.56046 27.3455 6.68214 27.3249 6.81395C27.3043 6.91535 27.2837 7.02689 27.2631 7.12829C27.2322 7.2601 27.2013 7.39192 27.1704 7.5136C27.1498 7.61499 27.1189 7.71639 27.0983 7.81779C27.0674 7.94961 27.0262 8.08142 26.985 8.22338C26.9541 8.31464 26.9335 8.41604 26.9026 8.50729C26.8614 8.65939 26.8099 8.80135 26.7584 8.9433C26.7275 9.02442 26.7069 9.0954 26.676 9.17652C26.5936 9.39959 26.5112 9.62267 26.4185 9.8356C26.4082 9.86602 26.3979 9.8863 26.3773 9.91672C26.2949 10.1094 26.2125 10.2919 26.1301 10.4845C26.0993 10.5555 26.0581 10.6366 26.0169 10.7076C25.9448 10.8496 25.883 10.9814 25.8109 11.1234C25.7697 11.2045 25.7182 11.2957 25.6667 11.3768C25.5946 11.4985 25.5328 11.6202 25.4607 11.7419C25.4092 11.8331 25.3577 11.9143 25.2959 12.0055C25.2238 12.117 25.1517 12.2387 25.0796 12.3503C25.0178 12.4415 24.9663 12.5226 24.9045 12.6139C24.8324 12.7254 24.7603 12.837 24.6779 12.9384C24.6161 13.0296 24.5543 13.1107 24.4822 13.202C24.3998 13.3034 24.3277 13.4149 24.2453 13.5163C24.1732 13.6076 24.1114 13.6887 24.0393 13.7698C23.9569 13.8712 23.8745 13.9726 23.7921 14.0639C23.72 14.145 23.6479 14.2363 23.5655 14.3174C23.4831 14.4086 23.3904 14.51 23.3081 14.6013C23.2257 14.6824 23.1536 14.7635 23.0712 14.8446C23.0197 14.8953 22.9785 14.9359 22.927 14.9866L16.9841 12.5024C16.9841 12.4415 16.9944 12.3705 16.9944 12.2996C17.0047 12.188 17.0047 12.0663 17.015 11.9548C17.0253 11.8331 17.0356 11.7013 17.0459 11.5796C17.0562 11.4681 17.0665 11.3566 17.0871 11.2349C17.1077 11.1132 17.118 10.9814 17.1386 10.8597C17.1592 10.7482 17.1695 10.6366 17.1901 10.5251C17.2107 10.4034 17.2416 10.2716 17.2622 10.1499C17.2828 10.0384 17.3034 9.92686 17.3343 9.82546C17.3652 9.70378 17.3961 9.57197 17.427 9.45029C17.4579 9.34889 17.4785 9.23736 17.5094 9.13596C17.5403 9.01428 17.5815 8.88247 17.6227 8.76079C17.6536 8.65939 17.6845 8.55799 17.7154 8.45659C17.7566 8.32478 17.8081 8.2031 17.8493 8.07128C17.8801 7.98003 17.911 7.87863 17.9522 7.78737C18.0037 7.64541 18.0552 7.5136 18.117 7.38178C18.1479 7.30066 18.1788 7.2094 18.22 7.12829C18.2921 6.95591 18.3745 6.79367 18.4466 6.6213C18.4672 6.5706 18.4878 6.5199 18.5084 6.4692C18.6114 6.25627 18.7247 6.04333 18.838 5.8304C18.8689 5.76956 18.9101 5.70872 18.941 5.63774C19.0234 5.49578 19.1058 5.34369 19.1882 5.20173C19.2397 5.12061 19.2809 5.04963 19.3324 4.96852C19.4148 4.84684 19.4869 4.71502 19.5693 4.59334C19.6208 4.51223 19.6826 4.43111 19.7341 4.34999C19.8165 4.22831 19.8989 4.11678 19.9813 4.00524C20.0431 3.92412 20.1049 3.843 20.1667 3.76188C20.2491 3.65035 20.3315 3.53881 20.4242 3.43741C20.486 3.35629 20.5581 3.27518 20.6199 3.19406C20.7125 3.09266 20.7949 2.98112 20.8876 2.87972C20.9597 2.79861 21.0318 2.72763 21.1039 2.64651C21.1657 2.57553 21.2275 2.51469 21.2893 2.44371C22.3914 2.57553 23.4831 2.86958 24.5131 3.29545L24.5337 3.30559C25.6255 3.76188 26.6348 4.37027 27.5412 5.12061C27.5309 5.20173 27.5309 5.29299 27.5206 5.37411C27.5206 5.49578 27.5103 5.60732 27.5 5.71886ZM23.4007 1.68323C23.8951 1.11541 24.7294 0.902471 25.4607 1.20666C25.9036 1.38918 26.2434 1.73393 26.4185 2.16994C26.5318 2.43358 26.573 2.71749 26.5421 2.99126L24.9663 2.33218C24.9663 2.33218 24.9663 2.33218 24.956 2.33218C24.9457 2.33218 24.956 2.33218 24.9457 2.33218L23.4007 1.68323ZM19.7856 2.3626C19.8371 2.3626 19.8886 2.3626 19.9401 2.3626C19.8783 2.43357 19.8268 2.50455 19.765 2.57553C19.7032 2.64651 19.6414 2.71749 19.5796 2.79861C19.4766 2.93042 19.3736 3.06224 19.2706 3.19406C19.2191 3.2549 19.1779 3.31573 19.1264 3.38671C18.9822 3.57937 18.838 3.78216 18.7041 3.98496C18.6835 4.01538 18.6629 4.05594 18.6423 4.08636C18.529 4.25873 18.4157 4.43111 18.3127 4.60348C18.2715 4.67446 18.22 4.75558 18.1788 4.82656C18.0964 4.95838 18.0243 5.10033 17.9419 5.23215C17.8904 5.31327 17.8493 5.40453 17.8081 5.48564C17.736 5.61746 17.6742 5.74928 17.6021 5.88109C17.5609 5.97235 17.5197 6.05347 17.4785 6.14473C17.4167 6.28668 17.3549 6.4185 17.2931 6.56046C17.2519 6.64158 17.221 6.72269 17.1798 6.81395C17.1077 6.97619 17.0459 7.13842 16.9841 7.3108C16.9635 7.37164 16.9326 7.43248 16.912 7.49332C16.8296 7.71639 16.7472 7.94961 16.6751 8.17268C16.6545 8.23352 16.6339 8.3045 16.6133 8.36534C16.5618 8.53771 16.5103 8.69995 16.4691 8.87232C16.4485 8.96358 16.4279 9.0447 16.397 9.13596C16.3558 9.28806 16.3249 9.43001 16.294 9.58211C16.2734 9.67337 16.2528 9.77476 16.2322 9.86602C16.2013 10.0181 16.1704 10.1601 16.1498 10.3122C16.1292 10.4034 16.1189 10.4947 16.0983 10.5961C16.0777 10.7583 16.0468 10.9104 16.0262 11.0727C16.0159 11.1538 16.0056 11.245 15.9953 11.3261C15.9747 11.5391 15.9541 11.7622 15.9335 11.9751C15.9335 12.0055 15.9232 12.0258 15.9232 12.0562C15.9232 12.0562 15.9232 12.0562 15.9232 12.0663L8.89888 9.12582C10.9176 4.96852 15.1404 2.3626 19.7856 2.3626ZM31.1461 18.4341L24.0084 15.453C24.1835 15.2705 24.3483 15.0981 24.5028 14.9055C24.544 14.8548 24.5955 14.8041 24.6367 14.7534C24.75 14.6216 24.8633 14.4796 24.9766 14.3478C25.0281 14.2768 25.0796 14.216 25.1414 14.145C25.2444 14.0233 25.3371 13.8915 25.4298 13.7597C25.4813 13.6887 25.5328 13.6177 25.5946 13.5366C25.6873 13.4048 25.78 13.273 25.8624 13.1412C25.9139 13.0702 25.9551 12.9992 26.0066 12.9282C26.0993 12.7761 26.1919 12.624 26.2846 12.4719C26.3155 12.4111 26.3567 12.3604 26.3876 12.2996C26.5112 12.0866 26.6348 11.8737 26.7481 11.6608C26.7687 11.6202 26.7893 11.5796 26.8099 11.5391C26.9026 11.3667 26.9953 11.1842 27.0777 11.0118C27.1086 10.9408 27.1498 10.8597 27.1807 10.7887C27.2425 10.6468 27.3146 10.4947 27.3764 10.3527C27.4073 10.2716 27.4485 10.1804 27.4794 10.0992C27.5412 9.95728 27.5927 9.81532 27.6442 9.67337C27.6751 9.58211 27.706 9.50099 27.7369 9.40973C27.7884 9.25764 27.8399 9.10554 27.8914 8.95344C27.912 8.87232 27.9429 8.79121 27.9635 8.72023C28.0253 8.52757 28.0768 8.33492 28.1283 8.14226C28.1386 8.1017 28.1489 8.06114 28.1592 8.02058C28.221 7.78737 28.2725 7.54402 28.324 7.3108C28.3343 7.23982 28.3446 7.17898 28.3652 7.10801C28.3961 6.93563 28.4373 6.76325 28.4579 6.59088C28.4682 6.49962 28.4888 6.4185 28.4991 6.32724C28.5094 6.23599 28.53 6.13459 28.5403 6.04333C31.7537 9.33875 32.7734 14.1349 31.1461 18.4341Z" fill="#464860"/>
<path d="M21.969 35.55H19.1572C18.8585 35.55 18.6113 35.7934 18.6113 36.0875C18.6113 36.3815 18.8585 36.6249 19.1572 36.6249H21.969C22.2677 36.6249 22.5149 36.3815 22.5149 36.0875C22.5149 35.7934 22.2677 35.55 21.969 35.55Z" fill="#464860"/>
<path d="M6.56085 35.9253H3.73875C3.44006 35.9253 3.19287 36.1686 3.19287 36.4627C3.19287 36.7568 3.44006 37.0001 3.73875 37.0001H6.56085C6.85954 37.0001 7.10673 36.7568 7.10673 36.4627C7.10673 36.1686 6.85954 35.9253 6.56085 35.9253Z" fill="#464860"/>
<path d="M13.3588 33.7959H11.1753C10.8766 33.7959 10.6294 34.0393 10.6294 34.3333C10.6294 34.6274 10.8766 34.8707 11.1753 34.8707H13.3588C13.6575 34.8707 13.9047 34.6274 13.9047 34.3333C13.9047 34.0393 13.6575 33.7959 13.3588 33.7959Z" fill="#464860"/>
<path d="M28.5302 34.9111H26.9028C26.6041 34.9111 26.3569 35.1545 26.3569 35.4485C26.3569 35.7426 26.6041 35.986 26.9028 35.986H28.5302C28.8288 35.986 29.076 35.7426 29.076 35.4485C29.076 35.1545 28.8288 34.9111 28.5302 34.9111Z" fill="#464860"/>
</svg>
