<svg width="78" height="78" viewBox="0 0 78 78" fill="none" xmlns="http://www.w3.org/2000/svg">
<rect width="78" height="78" fill="white"/>
<path d="M50.4998 25.7187C50.4895 25.8506 50.4689 25.9722 50.4483 26.1041C50.4277 26.2156 50.4174 26.3271 50.3968 26.4285C50.3762 26.5603 50.3453 26.682 50.3247 26.8138C50.3041 26.9152 50.2835 27.0268 50.2629 27.1282C50.232 27.26 50.2011 27.3918 50.1702 27.5135C50.1496 27.6149 50.1187 27.7163 50.0981 27.8177C50.0672 27.9495 50.026 28.0813 49.9848 28.2233C49.9539 28.3145 49.9333 28.4159 49.9024 28.5072C49.8612 28.6593 49.8097 28.8012 49.7582 28.9432C49.7273 29.0243 49.7067 29.0953 49.6758 29.1764C49.5934 29.3995 49.511 29.6226 49.4183 29.8355C49.408 29.8659 49.3977 29.8862 49.3771 29.9166C49.2947 30.1093 49.2124 30.2918 49.13 30.4844C49.0991 30.5554 49.0579 30.6365 49.0167 30.7075C48.9446 30.8495 48.8828 30.9813 48.8107 31.1232C48.7695 31.2044 48.718 31.2956 48.6665 31.3767C48.5944 31.4984 48.5326 31.6201 48.4605 31.7418C48.409 31.833 48.3575 31.9141 48.2957 32.0054C48.2236 32.1169 48.1515 32.2386 48.0794 32.3502C48.0176 32.4414 47.9661 32.5225 47.9043 32.6138C47.8322 32.7253 47.7601 32.8369 47.6777 32.9383C47.6159 33.0295 47.5541 33.1106 47.482 33.2019C47.3996 33.3033 47.3275 33.4148 47.2451 33.5162C47.173 33.6075 47.1112 33.6886 47.0391 33.7697C46.9567 33.8711 46.8743 33.9725 46.7919 34.0638C46.7198 34.1449 46.6477 34.2361 46.5653 34.3173C46.4829 34.4085 46.3903 34.5099 46.3079 34.6012C46.2255 34.6823 46.1534 34.7634 46.071 34.8445C46.0195 34.8952 45.9783 34.9358 45.9268 34.9865L39.9839 32.5022C39.9839 32.4414 39.9942 32.3704 39.9942 32.2995C40.0045 32.1879 40.0045 32.0662 40.0148 31.9547C40.0251 31.833 40.0354 31.7012 40.0457 31.5795C40.056 31.468 40.0663 31.3565 40.0869 31.2348C40.1075 31.1131 40.1178 30.9813 40.1384 30.8596C40.159 30.7481 40.1693 30.6365 40.1899 30.525C40.2105 30.4033 40.2414 30.2715 40.262 30.1498C40.2826 30.0383 40.3032 29.9267 40.3341 29.8254C40.365 29.7037 40.3959 29.5719 40.4268 29.4502C40.4577 29.3488 40.4783 29.2372 40.5092 29.1358C40.5401 29.0142 40.5813 28.8824 40.6225 28.7607C40.6534 28.6593 40.6843 28.5579 40.7152 28.4565C40.7564 28.3247 40.8079 28.203 40.8491 28.0712C40.88 27.9799 40.9109 27.8785 40.9521 27.7873C41.0036 27.6453 41.055 27.5135 41.1168 27.3817C41.1477 27.3005 41.1786 27.2093 41.2198 27.1282C41.2919 26.9558 41.3743 26.7936 41.4464 26.6212C41.467 26.5705 41.4876 26.5198 41.5082 26.4691C41.6112 26.2562 41.7245 26.0432 41.8378 25.8303C41.8687 25.7694 41.9099 25.7086 41.9408 25.6376C42.0232 25.4957 42.1056 25.3436 42.188 25.2016C42.2395 25.1205 42.2807 25.0495 42.3322 24.9684C42.4146 24.8467 42.4867 24.7149 42.5691 24.5932C42.6206 24.5121 42.6824 24.431 42.7339 24.3499C42.8163 24.2282 42.8987 24.1167 42.9811 24.0051C43.0429 23.924 43.1047 23.8429 43.1665 23.7618C43.2489 23.6502 43.3313 23.5387 43.424 23.4373C43.4858 23.3562 43.5579 23.2751 43.6197 23.1939C43.7124 23.0925 43.7947 22.981 43.8874 22.8796C43.9595 22.7985 44.0316 22.7275 44.1037 22.6464C44.1655 22.5754 44.2273 22.5146 44.2891 22.4436C45.3912 22.5754 46.4829 22.8695 47.5129 23.2953L47.5335 23.3055C48.6253 23.7618 49.6346 24.3702 50.541 25.1205C50.5307 25.2016 50.5307 25.2929 50.5204 25.374C50.5204 25.4957 50.5101 25.6072 50.4998 25.7187Z" fill="white"/>
<path d="M42.7856 22.3625C42.8371 22.3625 42.8886 22.3625 42.9401 22.3625C42.8783 22.4335 42.8268 22.5045 42.765 22.5755C42.7032 22.6465 42.6414 22.7174 42.5796 22.7986C42.4766 22.9304 42.3736 23.0622 42.2706 23.194C42.2191 23.2548 42.1779 23.3157 42.1265 23.3867C41.9823 23.5793 41.8381 23.7821 41.7042 23.9849C41.6836 24.0153 41.663 24.0559 41.6424 24.0863C41.5291 24.2587 41.4158 24.4311 41.3128 24.6034C41.2716 24.6744 41.2201 24.7555 41.1789 24.8265C41.0965 24.9583 41.0244 25.1003 40.942 25.2321C40.8905 25.3132 40.8493 25.4045 40.8081 25.4856C40.736 25.6174 40.6742 25.7492 40.6021 25.881C40.5609 25.9723 40.5197 26.0534 40.4785 26.1447C40.4167 26.2866 40.3549 26.4185 40.2931 26.5604C40.2519 26.6415 40.221 26.7226 40.1798 26.8139C40.1077 26.9761 40.0459 27.1384 39.9841 27.3108C39.9635 27.3716 39.9326 27.4324 39.912 27.4933C39.8296 27.7163 39.7472 27.9496 39.6751 28.1726C39.6545 28.2335 39.6339 28.3045 39.6133 28.3653C39.5618 28.5377 39.5103 28.6999 39.4691 28.8723C39.4485 28.9635 39.428 29.0447 39.3971 29.1359C39.3559 29.288 39.325 29.43 39.2941 29.5821C39.2735 29.6733 39.2529 29.7747 39.2323 29.866C39.2014 30.0181 39.1705 30.16 39.1499 30.3121C39.1293 30.4034 39.119 30.4946 39.0984 30.596C39.0778 30.7583 39.0469 30.9104 39.0263 31.0726C39.016 31.1537 39.0057 31.245 38.9954 31.3261C38.9748 31.539 38.9542 31.7621 38.9336 31.975C38.9336 32.0055 38.9233 32.0257 38.9233 32.0562C38.9233 32.0562 38.9233 32.0562 38.9233 32.0663L31.8989 29.1258C33.9177 24.9685 38.1405 22.3625 42.7856 22.3625Z" fill="white"/>
<path d="M54.1459 38.434L47.0083 35.4529C47.1834 35.2704 47.3482 35.098 47.5027 34.9054C47.5439 34.8547 47.5954 34.804 47.6366 34.7533C47.7499 34.6215 47.8632 34.4795 47.9765 34.3477C48.028 34.2767 48.0795 34.2159 48.1413 34.1449C48.2443 34.0232 48.337 33.8914 48.4297 33.7596C48.4811 33.6886 48.5326 33.6176 48.5944 33.5365C48.6871 33.4047 48.7798 33.2729 48.8622 33.141C48.9137 33.0701 48.9549 32.9991 49.0064 32.9281C49.0991 32.776 49.1918 32.6239 49.2845 32.4718C49.3154 32.411 49.3566 32.3603 49.3875 32.2994C49.5111 32.0865 49.6347 31.8736 49.748 31.6606C49.7686 31.6201 49.7892 31.5795 49.8098 31.539C49.9025 31.3666 49.9952 31.1841 50.0776 31.0117C50.1085 30.9407 50.1497 30.8596 50.1806 30.7886C50.2424 30.6467 50.3145 30.4946 50.3763 30.3526C50.4072 30.2715 50.4484 30.1802 50.4793 30.0991C50.5411 29.9572 50.5926 29.8152 50.6441 29.6732C50.675 29.582 50.7059 29.5009 50.7368 29.4096C50.7883 29.2575 50.8398 29.1054 50.8913 28.9533C50.9119 28.8722 50.9428 28.7911 50.9634 28.7201C51.0252 28.5275 51.0767 28.3348 51.1282 28.1421C51.1385 28.1016 51.1488 28.061 51.1591 28.0205C51.2208 27.7873 51.2723 27.5439 51.3238 27.3107C51.3341 27.2397 51.3444 27.1789 51.365 27.1079C51.3959 26.9355 51.4371 26.7631 51.4577 26.5908C51.468 26.4995 51.4886 26.4184 51.4989 26.3271C51.5092 26.2359 51.5298 26.1345 51.5401 26.0432C54.7536 29.3386 55.7733 34.1347 54.1459 38.434Z" fill="white"/>
<path d="M51.3548 26.2563C51.3445 26.3882 51.3239 26.5098 51.3033 26.6417C51.2827 26.7532 51.2724 26.8647 51.2518 26.9661C51.2312 27.0979 51.2003 27.2196 51.1797 27.3514C51.1591 27.4528 51.1385 27.5644 51.1179 27.6658C51.087 27.7976 51.0561 27.9294 51.0252 28.0511C51.0046 28.1525 50.9737 28.2539 50.9531 28.3553C50.9222 28.4871 50.881 28.6189 50.8398 28.7609C50.8089 28.8521 50.7883 28.9535 50.7574 29.0448C50.7162 29.1969 50.6647 29.3388 50.6132 29.4808C50.5823 29.5619 50.5617 29.6329 50.5308 29.714C50.4484 29.9371 50.366 30.1602 50.2733 30.3731C50.263 30.4035 50.2527 30.4238 50.2321 30.4542C50.1497 30.6469 50.0673 30.8294 49.9849 31.022C49.954 31.093 49.9128 31.1741 49.8716 31.2451C49.7995 31.3871 49.7377 31.5189 49.6656 31.6608C49.6244 31.742 49.5729 31.8332 49.5215 31.9143C49.4494 32.036 49.3876 32.1577 49.3155 32.2794C49.264 32.3706 49.2125 32.4517 49.1507 32.543C49.0786 32.6545 49.0065 32.7762 48.9344 32.8878C48.8726 32.979 48.8211 33.0601 48.7593 33.1514C48.6872 33.2629 48.6151 33.3745 48.5327 33.4759C48.4709 33.5671 48.4091 33.6482 48.337 33.7395C48.2546 33.8409 48.1825 33.9524 48.1001 34.0538C48.028 34.1451 47.9662 34.2262 47.8941 34.3073C47.8117 34.4087 47.7293 34.5101 47.6469 34.6014C47.5748 34.6825 47.5027 34.7737 47.4203 34.8549C47.3379 34.9461 47.2452 35.0475 47.1628 35.1388C47.0804 35.2199 47.0083 35.301 46.9259 35.3821C46.8744 35.4328 46.8332 35.4734 46.7818 35.5241L40.8389 33.0398C40.8389 32.979 40.8492 32.908 40.8492 32.8371C40.8595 32.7255 40.8595 32.6038 40.8698 32.4923C40.8801 32.3706 40.8904 32.2388 40.9007 32.1171C40.911 32.0056 40.9213 31.8941 40.9419 31.7724C40.9625 31.6507 40.9728 31.5189 40.9934 31.3972C41.014 31.2857 41.0243 31.1741 41.0449 31.0626C41.0655 30.9409 41.0964 30.8091 41.117 30.6874C41.1376 30.5759 41.1582 30.4643 41.1891 30.3629C41.22 30.2413 41.2509 30.1095 41.2818 29.9878C41.3127 29.8864 41.3332 29.7748 41.3641 29.6734C41.395 29.5518 41.4362 29.42 41.4774 29.2983C41.5083 29.1969 41.5392 29.0955 41.5701 28.9941C41.6113 28.8623 41.6628 28.7406 41.704 28.6088C41.7349 28.5175 41.7658 28.4161 41.807 28.3249C41.8585 28.1829 41.91 28.0511 41.9718 27.9193C42.0027 27.8381 42.0336 27.7469 42.0748 27.6658C42.1469 27.4934 42.2293 27.3312 42.3014 27.1588C42.322 27.1081 42.3426 27.0574 42.3632 27.0067C42.4662 26.7938 42.5795 26.5808 42.6928 26.3679C42.7237 26.307 42.7649 26.2462 42.7958 26.1752C42.8782 26.0333 42.9606 25.8812 43.043 25.7392C43.0945 25.6581 43.1357 25.5871 43.1872 25.506C43.2696 25.3843 43.3417 25.2525 43.4241 25.1308C43.4756 25.0497 43.5374 24.9686 43.5889 24.8875C43.6713 24.7658 43.7537 24.6543 43.8361 24.5427C43.8979 24.4616 43.9597 24.3805 44.0215 24.2994C44.1038 24.1878 44.1862 24.0763 44.2789 23.9749C44.3407 23.8938 44.4128 23.8127 44.4746 23.7315C44.5673 23.6301 44.6497 23.5186 44.7424 23.4172C44.8145 23.3361 44.8866 23.2651 44.9587 23.184C45.0205 23.113 45.0823 23.0522 45.1441 22.9812C46.2462 23.113 47.3379 23.4071 48.3679 23.8329L48.3885 23.8431C49.4803 24.2994 50.4896 24.9078 51.396 25.6581C51.3857 25.7392 51.3857 25.8305 51.3754 25.9116C51.3857 26.0333 51.3651 26.1448 51.3548 26.2563Z" fill="#CCB8F4"/>
<path d="M43.6406 22.8999C43.6921 22.8999 43.7436 22.8999 43.7951 22.8999C43.7333 22.9709 43.6715 23.0419 43.62 23.1128C43.5582 23.1838 43.4964 23.2548 43.4346 23.3359C43.3316 23.4677 43.2286 23.5995 43.1256 23.7314C43.0741 23.7922 43.0329 23.853 42.9814 23.924C42.8372 24.1167 42.693 24.3195 42.5591 24.5223C42.5385 24.5527 42.5179 24.5932 42.4973 24.6237C42.384 24.796 42.2707 24.9684 42.1677 25.1408C42.1265 25.2118 42.075 25.2929 42.0338 25.3639C41.9514 25.4957 41.8793 25.6376 41.7969 25.7695C41.7454 25.8506 41.7042 25.9418 41.663 26.0229C41.5909 26.1548 41.5291 26.2866 41.457 26.4184C41.4158 26.5097 41.3746 26.5908 41.3334 26.682C41.2717 26.824 41.2099 26.9558 41.1481 27.0978C41.1069 27.1789 41.076 27.26 41.0348 27.3513C40.9627 27.5135 40.9009 27.6757 40.8391 27.8481C40.8185 27.9089 40.7876 27.9698 40.767 28.0306C40.6846 28.2537 40.6022 28.4869 40.5301 28.71C40.5095 28.7708 40.4889 28.8418 40.4786 28.9026C40.4271 29.075 40.3756 29.2373 40.3344 29.4096C40.3138 29.5009 40.2932 29.582 40.2623 29.6733C40.2211 29.8254 40.1902 29.9673 40.1593 30.1194C40.1387 30.2107 40.1181 30.3121 40.0975 30.4033C40.0666 30.5554 40.0357 30.6974 40.0151 30.8495C39.9945 30.9407 39.9842 31.032 39.9636 31.1334C39.943 31.2956 39.9121 31.4477 39.8915 31.61C39.8812 31.6911 39.8709 31.7823 39.8606 31.8635C39.84 32.0764 39.8194 32.2995 39.7988 32.5124C39.7988 32.5428 39.7885 32.5631 39.7885 32.5935C39.7885 32.5935 39.7885 32.5935 39.7885 32.6037L32.7642 29.6631C34.7829 25.4957 38.9954 22.8999 43.6406 22.8999Z" fill="#A3EFE0"/>
<path d="M55.0009 38.9716L47.8633 35.9905C48.0384 35.808 48.2032 35.6356 48.3577 35.443C48.3989 35.3923 48.4504 35.3416 48.4916 35.2909C48.6049 35.1591 48.7182 35.0171 48.8314 34.8853C48.8829 34.8143 48.9344 34.7535 48.9962 34.6825C49.0992 34.5608 49.1919 34.429 49.2846 34.2972C49.3361 34.2262 49.3876 34.1552 49.4494 34.0741C49.5421 33.9423 49.6348 33.8105 49.7172 33.6786C49.7687 33.6077 49.8099 33.5367 49.8614 33.4657C49.9541 33.3136 50.0468 33.1615 50.1395 33.0094C50.1704 32.9486 50.2116 32.8979 50.2425 32.837C50.3661 32.6241 50.4897 32.4112 50.603 32.1982C50.6236 32.1577 50.6442 32.1171 50.6648 32.0766C50.7575 31.9042 50.8502 31.7217 50.9326 31.5493C50.9635 31.4783 51.0047 31.3972 51.0356 31.3262C51.0974 31.1843 51.1695 31.0322 51.2313 30.8902C51.2622 30.8091 51.3034 30.7178 51.3343 30.6367C51.3961 30.4948 51.4476 30.3528 51.499 30.2108C51.5299 30.1196 51.5608 30.0385 51.5917 29.9472C51.6432 29.7951 51.6947 29.643 51.7462 29.4909C51.7668 29.4098 51.7977 29.3287 51.8183 29.2577C51.8801 29.0651 51.9316 28.8724 51.9831 28.6797C51.9934 28.6392 52.0037 28.5986 52.014 28.5581C52.0758 28.3248 52.1273 28.0815 52.1788 27.8483C52.1891 27.7773 52.1994 27.7165 52.22 27.6455C52.2509 27.4731 52.2921 27.3007 52.3127 27.1284C52.323 27.0371 52.3436 26.956 52.3539 26.8647C52.3642 26.7735 52.3848 26.6721 52.3951 26.5808C55.6086 29.8661 56.6283 34.6723 55.0009 38.9716Z" fill="#A3EFE0"/>
<path d="M51.4785 24.5021C51.1592 24.2283 50.8296 23.9748 50.4794 23.7315C50.6957 23.0927 50.6854 22.4032 50.4279 21.7644C50.1395 21.0647 49.5936 20.5172 48.883 20.2231C47.4925 19.6451 45.8961 20.2231 45.2163 21.521C44.8661 21.4602 44.5056 21.3993 44.1554 21.3689C38.367 20.7808 32.9494 23.9343 30.6732 29.2069C30.6217 29.3388 30.6114 29.4807 30.6732 29.6125C30.7247 29.7443 30.8277 29.8457 30.9616 29.9066L39.2219 33.3642L42.0955 34.5607L34.8961 50.7641C33.7528 50.906 33.0421 51.3116 32.4036 51.6868C31.6517 52.1329 31.0131 52.5081 29.633 52.5081C28.2631 52.5081 27.6142 52.1228 26.8624 51.6868C26.0899 51.2305 25.2144 50.7134 23.5356 50.7134C23.2472 50.7032 23 50.9466 23 51.2406C23 51.5347 23.2472 51.778 23.5459 51.778C24.9157 51.778 25.5646 52.1634 26.3165 52.5994C27.089 53.0557 27.9644 53.5728 29.6433 53.5728C31.3221 53.5728 32.1976 53.0557 32.97 52.5994C33.7219 52.1532 34.3605 51.778 35.7406 51.778C37.1105 51.778 37.7594 52.1634 38.5112 52.5994C39.2837 53.0557 40.1592 53.5728 41.838 53.5728C43.5169 53.5728 44.3923 53.0557 45.1648 52.5994C45.9167 52.1532 46.5655 51.778 47.9354 51.778C49.3052 51.778 49.9541 52.1634 50.706 52.5994C51.4785 53.0557 52.3642 53.5728 54.0328 53.5728C54.3315 53.5728 54.5787 53.3294 54.5787 53.0354C54.5787 52.7413 54.3315 52.498 54.0328 52.498C52.6629 52.498 52.014 52.1127 51.2622 51.6767C50.4897 51.2204 49.6039 50.7032 47.9354 50.7032C46.2669 50.7032 45.3811 51.2204 44.6086 51.6767C43.8567 52.1228 43.2079 52.498 41.838 52.498C40.4682 52.498 39.8193 52.1127 39.0674 51.6767C38.3567 51.2508 37.5431 50.7844 36.1011 50.7134L43.0946 34.9765L45.8446 36.1324L54.2285 39.6408C54.3006 39.6712 54.3727 39.6813 54.4448 39.6813C54.5169 39.6813 54.5787 39.6712 54.6507 39.6408C54.7846 39.5901 54.8876 39.4887 54.9494 39.3568C57.1742 34.1653 55.7837 28.2031 51.4785 24.5021ZM50.5 25.7189C50.4897 25.8507 50.4691 25.9724 50.4485 26.1042C50.4279 26.2157 50.4176 26.3272 50.397 26.4286C50.3764 26.5605 50.3455 26.6821 50.3249 26.814C50.3043 26.9153 50.2837 27.0269 50.2631 27.1283C50.2322 27.2601 50.2013 27.3919 50.1704 27.5136C50.1498 27.615 50.1189 27.7164 50.0983 27.8178C50.0674 27.9496 50.0262 28.0814 49.985 28.2234C49.9541 28.3146 49.9335 28.416 49.9026 28.5073C49.8614 28.6594 49.8099 28.8013 49.7584 28.9433C49.7275 29.0244 49.7069 29.0954 49.676 29.1765C49.5936 29.3996 49.5112 29.6227 49.4185 29.8356C49.4082 29.866 49.3979 29.8863 49.3773 29.9167C49.2949 30.1094 49.2125 30.2919 49.1301 30.4845C49.0993 30.5555 49.0581 30.6366 49.0169 30.7076C48.9448 30.8496 48.883 30.9814 48.8109 31.1234C48.7697 31.2045 48.7182 31.2957 48.6667 31.3768C48.5946 31.4985 48.5328 31.6202 48.4607 31.7419C48.4092 31.8331 48.3577 31.9143 48.2959 32.0055C48.2238 32.117 48.1517 32.2387 48.0796 32.3503C48.0178 32.4415 47.9663 32.5226 47.9045 32.6139C47.8324 32.7254 47.7603 32.837 47.6779 32.9384C47.6161 33.0296 47.5543 33.1107 47.4822 33.202C47.3998 33.3034 47.3277 33.4149 47.2453 33.5163C47.1732 33.6076 47.1114 33.6887 47.0393 33.7698C46.9569 33.8712 46.8745 33.9726 46.7921 34.0639C46.72 34.145 46.6479 34.2363 46.5655 34.3174C46.4831 34.4086 46.3904 34.51 46.3081 34.6013C46.2257 34.6824 46.1536 34.7635 46.0712 34.8446C46.0197 34.8953 45.9785 34.9359 45.927 34.9866L39.9841 32.5024C39.9841 32.4415 39.9944 32.3705 39.9944 32.2996C40.0047 32.188 40.0047 32.0663 40.015 31.9548C40.0253 31.8331 40.0356 31.7013 40.0459 31.5796C40.0562 31.4681 40.0665 31.3566 40.0871 31.2349C40.1077 31.1132 40.118 30.9814 40.1386 30.8597C40.1592 30.7482 40.1695 30.6366 40.1901 30.5251C40.2107 30.4034 40.2416 30.2716 40.2622 30.1499C40.2828 30.0384 40.3034 29.9269 40.3343 29.8255C40.3652 29.7038 40.3961 29.572 40.427 29.4503C40.4579 29.3489 40.4785 29.2374 40.5094 29.136C40.5403 29.0143 40.5815 28.8825 40.6227 28.7608C40.6536 28.6594 40.6845 28.558 40.7154 28.4566C40.7566 28.3248 40.8081 28.2031 40.8493 28.0713C40.8801 27.98 40.911 27.8786 40.9522 27.7874C41.0037 27.6454 41.0552 27.5136 41.117 27.3818C41.1479 27.3007 41.1788 27.2094 41.22 27.1283C41.2921 26.9559 41.3745 26.7937 41.4466 26.6213C41.4672 26.5706 41.4878 26.5199 41.5084 26.4692C41.6114 26.2563 41.7247 26.0433 41.838 25.8304C41.8689 25.7696 41.9101 25.7087 41.941 25.6377C42.0234 25.4958 42.1058 25.3437 42.1882 25.2017C42.2397 25.1206 42.2809 25.0496 42.3324 24.9685C42.4148 24.8468 42.4869 24.715 42.5693 24.5933C42.6208 24.5122 42.6826 24.4311 42.7341 24.35C42.8165 24.2283 42.8989 24.1168 42.9813 24.0052C43.0431 23.9241 43.1049 23.843 43.1667 23.7619C43.2491 23.6503 43.3315 23.5388 43.4242 23.4374C43.486 23.3563 43.5581 23.2752 43.6199 23.1941C43.7125 23.0927 43.7949 22.9811 43.8876 22.8797C43.9597 22.7986 44.0318 22.7276 44.1039 22.6465C44.1657 22.5755 44.2275 22.5147 44.2893 22.4437C45.3914 22.5755 46.4831 22.8696 47.5131 23.2955L47.5337 23.3056C48.6255 23.7619 49.6348 24.3703 50.5412 25.1206C50.5309 25.2017 50.5309 25.293 50.5206 25.3741C50.5206 25.4958 50.5103 25.6073 50.5 25.7189ZM46.4007 21.6832C46.8951 21.1154 47.7294 20.9025 48.4607 21.2067C48.9036 21.3892 49.2434 21.7339 49.4185 22.1699C49.5318 22.4336 49.573 22.7175 49.5421 22.9913L47.9663 22.3322C47.9663 22.3322 47.9663 22.3322 47.956 22.3322C47.9457 22.3322 47.956 22.3322 47.9457 22.3322L46.4007 21.6832ZM42.7856 22.3626C42.8371 22.3626 42.8886 22.3626 42.9401 22.3626C42.8783 22.4336 42.8268 22.5046 42.765 22.5755C42.7032 22.6465 42.6414 22.7175 42.5796 22.7986C42.4766 22.9304 42.3736 23.0622 42.2706 23.1941C42.2191 23.2549 42.1779 23.3157 42.1264 23.3867C41.9822 23.5794 41.838 23.7822 41.7041 23.985C41.6835 24.0154 41.6629 24.0559 41.6423 24.0864C41.529 24.2587 41.4157 24.4311 41.3127 24.6035C41.2715 24.6745 41.22 24.7556 41.1788 24.8266C41.0964 24.9584 41.0243 25.1003 40.9419 25.2321C40.8904 25.3133 40.8493 25.4045 40.8081 25.4856C40.736 25.6175 40.6742 25.7493 40.6021 25.8811C40.5609 25.9724 40.5197 26.0535 40.4785 26.1447C40.4167 26.2867 40.3549 26.4185 40.2931 26.5605C40.2519 26.6416 40.221 26.7227 40.1798 26.814C40.1077 26.9762 40.0459 27.1384 39.9841 27.3108C39.9635 27.3716 39.9326 27.4325 39.912 27.4933C39.8296 27.7164 39.7472 27.9496 39.6751 28.1727C39.6545 28.2335 39.6339 28.3045 39.6133 28.3653C39.5618 28.5377 39.5103 28.6999 39.4691 28.8723C39.4485 28.9636 39.4279 29.0447 39.397 29.136C39.3558 29.2881 39.3249 29.43 39.294 29.5821C39.2734 29.6734 39.2528 29.7748 39.2322 29.866C39.2013 30.0181 39.1704 30.1601 39.1498 30.3122C39.1292 30.4034 39.1189 30.4947 39.0983 30.5961C39.0777 30.7583 39.0468 30.9104 39.0262 31.0727C39.0159 31.1538 39.0056 31.245 38.9953 31.3261C38.9747 31.5391 38.9541 31.7622 38.9335 31.9751C38.9335 32.0055 38.9232 32.0258 38.9232 32.0562C38.9232 32.0562 38.9232 32.0562 38.9232 32.0663L31.8989 29.1258C33.9176 24.9685 38.1404 22.3626 42.7856 22.3626ZM54.1461 38.4341L47.0084 35.453C47.1835 35.2705 47.3483 35.0981 47.5028 34.9055C47.544 34.8548 47.5955 34.8041 47.6367 34.7534C47.75 34.6216 47.8633 34.4796 47.9766 34.3478C48.0281 34.2768 48.0796 34.216 48.1414 34.145C48.2444 34.0233 48.3371 33.8915 48.4298 33.7597C48.4813 33.6887 48.5328 33.6177 48.5946 33.5366C48.6873 33.4048 48.78 33.273 48.8624 33.1412C48.9139 33.0702 48.9551 32.9992 49.0066 32.9282C49.0993 32.7761 49.1919 32.624 49.2846 32.4719C49.3155 32.4111 49.3567 32.3604 49.3876 32.2996C49.5112 32.0866 49.6348 31.8737 49.7481 31.6608C49.7687 31.6202 49.7893 31.5796 49.8099 31.5391C49.9026 31.3667 49.9953 31.1842 50.0777 31.0118C50.1086 30.9408 50.1498 30.8597 50.1807 30.7887C50.2425 30.6468 50.3146 30.4947 50.3764 30.3527C50.4073 30.2716 50.4485 30.1804 50.4794 30.0992C50.5412 29.9573 50.5927 29.8153 50.6442 29.6734C50.6751 29.5821 50.706 29.501 50.7369 29.4097C50.7884 29.2576 50.8399 29.1055 50.8914 28.9534C50.912 28.8723 50.9429 28.7912 50.9635 28.7202C51.0253 28.5276 51.0768 28.3349 51.1283 28.1423C51.1386 28.1017 51.1489 28.0611 51.1592 28.0206C51.221 27.7874 51.2725 27.544 51.324 27.3108C51.3343 27.2398 51.3446 27.179 51.3652 27.108C51.3961 26.9356 51.4373 26.7633 51.4579 26.5909C51.4682 26.4996 51.4888 26.4185 51.4991 26.3272C51.5094 26.236 51.53 26.1346 51.5403 26.0433C54.7537 29.3388 55.7734 34.1349 54.1461 38.4341Z" fill="#464860"/>
<path d="M44.969 55.55H42.1572C41.8585 55.55 41.6113 55.7934 41.6113 56.0875C41.6113 56.3815 41.8585 56.6249 42.1572 56.6249H44.969C45.2677 56.6249 45.5149 56.3815 45.5149 56.0875C45.5149 55.7934 45.2677 55.55 44.969 55.55Z" fill="#464860"/>
<path d="M29.5608 55.9253H26.7388C26.4401 55.9253 26.1929 56.1686 26.1929 56.4627C26.1929 56.7568 26.4401 57.0001 26.7388 57.0001H29.5608C29.8595 57.0001 30.1067 56.7568 30.1067 56.4627C30.1067 56.1686 29.8595 55.9253 29.5608 55.9253Z" fill="#464860"/>
<path d="M36.3588 53.7959H34.1753C33.8766 53.7959 33.6294 54.0393 33.6294 54.3333C33.6294 54.6274 33.8766 54.8707 34.1753 54.8707H36.3588C36.6575 54.8707 36.9047 54.6274 36.9047 54.3333C36.9047 54.0393 36.6575 53.7959 36.3588 53.7959Z" fill="#464860"/>
<path d="M51.5302 54.9111H49.9028C49.6041 54.9111 49.3569 55.1545 49.3569 55.4485C49.3569 55.7426 49.6041 55.986 49.9028 55.986H51.5302C51.8288 55.986 52.076 55.7426 52.076 55.4485C52.076 55.1545 51.8288 54.9111 51.5302 54.9111Z" fill="#464860"/>
</svg>
