<svg width="78" height="78" viewBox="0 0 78 78" fill="none" xmlns="http://www.w3.org/2000/svg">
<rect width="78" height="78" fill="white"/>
<path d="M27.5699 36.7604C28.3799 37.0504 29.2199 37.2004 30.0799 37.1704C30.1299 37.1704 30.1799 37.1704 30.2299 37.1704C31.1999 37.1704 32.1799 36.9704 33.0599 36.5804C33.8799 36.2104 34.7899 36.0404 35.6699 36.0604C35.7199 36.0604 35.7699 36.0604 35.8199 36.0604C36.6599 36.0604 37.5099 36.2404 38.2799 36.5904C39.2099 37.0004 40.2399 37.2004 41.2499 37.1804C41.9399 37.2004 42.6299 37.1004 43.2899 36.9204L43.4199 36.8804V53.7504H27.4399V36.7104L27.5699 36.7604Z" fill="white"/>
<path d="M43.6701 28.9505C43.0201 29.3005 42.2801 29.4905 41.5301 29.4905C41.5201 29.4905 41.5001 29.4905 41.4901 29.4905C41.1201 29.4705 40.7601 29.4305 40.4001 29.3705C40.1301 29.3005 39.8501 29.4705 39.7801 29.7405C39.7701 29.7805 39.7701 29.8205 39.7701 29.8605V31.8205C39.7701 32.5405 39.1801 33.1305 38.4601 33.1305C37.7401 33.1305 37.1501 32.5405 37.1501 31.8205V28.1705C37.1501 27.8905 36.9201 27.6605 36.6401 27.6605H26.9301C26.6501 27.6605 26.4201 27.8905 26.4201 28.1705V28.8005L26.2501 28.5605C25.8401 28.0005 25.6201 27.3405 25.6201 26.6505C25.7101 24.7305 27.3101 23.2205 29.2201 23.2205C29.2701 23.2205 29.3201 23.2205 29.3701 23.2205C29.3801 23.2205 29.4001 23.2205 29.4101 23.2205C30.2701 23.2205 31.1201 23.5105 31.8001 24.0505C31.9001 24.1305 32.0401 24.1705 32.1701 24.1505C32.3001 24.1305 32.4301 24.0605 32.5101 23.9505C33.4901 22.7305 34.9901 22.0005 36.5501 22.0005C36.6101 22.0005 36.6701 22.0005 36.7301 22.0005C38.1801 22.0005 39.5701 22.6105 40.5501 23.6805C40.6601 23.8005 40.8101 23.8605 40.9801 23.8505C41.1501 23.8305 41.3201 23.8205 41.4901 23.8205C43.5501 23.8205 45.2301 25.0905 45.2301 26.6505C45.1701 27.6505 44.5701 28.5305 43.6701 28.9505Z" fill="white"/>
<path d="M28.5199 37.4804C29.3299 37.7704 30.1699 37.9204 31.0299 37.8904C31.0799 37.8904 31.1299 37.8904 31.1799 37.8904C32.1499 37.8904 33.1299 37.6904 34.0099 37.3004C34.8299 36.9304 35.7399 36.7604 36.6199 36.7804C36.6699 36.7804 36.7199 36.7804 36.7699 36.7804C37.6099 36.7804 38.4599 36.9604 39.2299 37.3104C40.1599 37.7204 41.1899 37.9204 42.1999 37.9004C42.8899 37.9204 43.5799 37.8204 44.2399 37.6404L44.3699 37.6004V54.4704H28.3799V37.4304L28.5199 37.4804Z" fill="#CCB8F4"/>
<path d="M44.6101 29.6705C43.9601 30.0205 43.2201 30.2105 42.4701 30.2105C42.4601 30.2105 42.4401 30.2105 42.4301 30.2105C42.0601 30.1905 41.7001 30.1505 41.3401 30.0905C41.0701 30.0205 40.7901 30.1905 40.7201 30.4605C40.7101 30.5005 40.7101 30.5405 40.7101 30.5805V32.5405C40.7101 33.2605 40.1201 33.8505 39.4001 33.8505C38.6801 33.8505 38.0901 33.2605 38.0901 32.5405V28.8905C38.0901 28.6105 37.8601 28.3805 37.5801 28.3805H27.8801C27.6001 28.3805 27.3701 28.6105 27.3701 28.8905V29.5205L27.1901 29.2805C26.7801 28.7305 26.5701 28.0705 26.5601 27.3805V27.3705C26.6501 25.4505 28.2501 23.9405 30.1601 23.9405C30.2101 23.9405 30.2601 23.9405 30.3101 23.9405C30.3201 23.9405 30.3401 23.9405 30.3501 23.9405C31.2101 23.9405 32.0601 24.2305 32.7401 24.7705C32.8501 24.8505 32.9801 24.8905 33.1201 24.8805C33.2501 24.8605 33.3801 24.7905 33.4601 24.6805C34.4301 23.4505 35.9401 22.7305 37.5001 22.7305C37.5601 22.7305 37.6201 22.7305 37.6801 22.7305C39.1301 22.7305 40.5201 23.3405 41.5001 24.4105C41.6101 24.5305 41.7601 24.5905 41.9301 24.5805C42.1001 24.5605 42.2701 24.5505 42.4401 24.5505C44.5001 24.5505 46.1801 25.8205 46.1801 27.3805C46.1101 28.3705 45.5101 29.2505 44.6101 29.6705Z" fill="#A3EFE0"/>
<path d="M54.13 42.7605V36.0505C54.13 33.1005 51.72 30.6905 48.77 30.6905H44.42V29.6705L44.47 29.6405C45.54 29.0105 46.2 27.8905 46.24 26.6505C46.24 24.5305 44.11 22.8105 41.49 22.8105C41.38 22.8105 41.28 22.8105 41.18 22.8205H41.14L41.1 22.7905C38.58 20.3605 34.53 20.4105 32.07 22.9005L32.02 22.9605L31.95 22.9205C31.18 22.4505 30.3 22.2005 29.4 22.2005C29.39 22.2005 29.38 22.2005 29.36 22.2005C29.31 22.2005 29.27 22.2005 29.22 22.2005C26.75 22.2005 24.69 24.1705 24.61 26.6605C24.62 28.0205 25.29 29.3105 26.39 30.1205L26.43 30.1505V53.8005L26.35 53.8205C24.99 54.0805 24 55.2905 24 56.6805C24 56.9605 24.23 57.1905 24.51 57.1905H46.35C46.63 57.1905 46.86 56.9605 46.86 56.6805C46.86 55.2905 45.87 54.0805 44.51 53.8105L44.43 53.7905V50.9305L51.17 47.5605C53 46.6505 54.14 44.8105 54.13 42.7605ZM45.73 56.0405L45.78 56.1705H25.08L25.13 56.0405C25.4 55.2805 26.13 54.7605 26.94 54.7605H43.92C44.73 54.7605 45.46 55.2805 45.73 56.0405ZM38.46 34.1405C39.74 34.1405 40.79 33.1005 40.79 31.8105V30.4405L40.9 30.4505C41.1 30.4705 41.3 30.4905 41.5 30.4905C42.11 30.4905 42.71 30.3905 43.29 30.2005L43.42 30.1605V35.8005L43.35 35.8205C42.72 36.0405 42.07 36.1505 41.41 36.1505C41.36 36.1505 41.3 36.1505 41.25 36.1505C41.2 36.1505 41.15 36.1505 41.1 36.1505C40.26 36.1505 39.42 35.9705 38.65 35.6205C37.72 35.2105 36.7 35.0105 35.68 35.0305C34.64 35.0105 33.64 35.2105 32.7 35.6205C31.88 36.0005 30.97 36.1705 30.08 36.1605C29.21 36.1705 28.31 36.0005 27.5 35.6405L27.44 35.6105V28.6805H36.13V31.8105C36.13 33.0905 37.18 34.1405 38.46 34.1405ZM27.57 36.7605C28.38 37.0505 29.22 37.2005 30.08 37.1705C30.13 37.1705 30.18 37.1705 30.23 37.1705C31.2 37.1705 32.18 36.9705 33.06 36.5805C33.88 36.2105 34.79 36.0405 35.67 36.0605C35.72 36.0605 35.77 36.0605 35.82 36.0605C36.66 36.0605 37.51 36.2405 38.28 36.5905C39.21 37.0005 40.24 37.2005 41.25 37.1805C41.94 37.2005 42.63 37.1005 43.29 36.9205L43.42 36.8805V53.7505H27.44V36.7105L27.57 36.7605ZM43.67 28.9505C43.02 29.3005 42.28 29.4905 41.53 29.4905C41.52 29.4905 41.5 29.4905 41.49 29.4905C41.12 29.4705 40.76 29.4305 40.4 29.3705C40.13 29.3005 39.85 29.4705 39.78 29.7405C39.77 29.7805 39.77 29.8205 39.77 29.8605V31.8205C39.77 32.5405 39.18 33.1305 38.46 33.1305C37.74 33.1305 37.15 32.5405 37.15 31.8205V28.1705C37.15 27.8905 36.92 27.6605 36.64 27.6605H26.93C26.65 27.6605 26.42 27.8905 26.42 28.1705V28.8005L26.25 28.5605C25.84 28.0005 25.62 27.3405 25.62 26.6505C25.71 24.7305 27.31 23.2205 29.22 23.2205C29.27 23.2205 29.32 23.2205 29.37 23.2205C29.38 23.2205 29.4 23.2205 29.41 23.2205C30.27 23.2205 31.12 23.5105 31.8 24.0505C31.9 24.1305 32.04 24.1705 32.17 24.1505C32.3 24.1305 32.43 24.0605 32.51 23.9505C33.49 22.7305 34.99 22.0005 36.55 22.0005C36.61 22.0005 36.67 22.0005 36.73 22.0005C38.18 22.0005 39.57 22.6105 40.55 23.6805C40.66 23.8005 40.81 23.8605 40.98 23.8505C41.15 23.8305 41.32 23.8205 41.49 23.8205C43.55 23.8205 45.23 25.0905 45.23 26.6505C45.17 27.6505 44.57 28.5305 43.67 28.9505ZM44.42 34.7405H48.77C49.49 34.7405 50.08 35.3305 50.08 36.0505V42.7605C50.08 43.2705 49.78 43.7405 49.31 43.9605L44.42 46.1805V34.7405ZM50.71 46.6505L44.42 49.7905V47.3005L44.48 47.2705L49.73 44.8805C50.56 44.5005 51.09 43.6705 51.09 42.7605V36.0505C51.09 34.7705 50.05 33.7205 48.76 33.7205H44.41V31.7005H48.76C51.15 31.7005 53.1 33.6505 53.11 36.0505V42.7605C53.12 44.4005 52.18 45.9205 50.71 46.6505Z" fill="#464860"/>
<path d="M45.7301 56.0405L45.7801 56.1705H25.0801L25.1301 56.0405C25.4001 55.2805 26.1301 54.7605 26.9401 54.7605H43.9201C44.7301 54.7605 45.4601 55.2805 45.7301 56.0405Z" fill="white"/>
<path d="M38.4599 34.1404C39.7399 34.1404 40.7899 33.1004 40.7899 31.8104V30.4404L40.8999 30.4504C41.0999 30.4704 41.2999 30.4904 41.4999 30.4904C42.1099 30.4904 42.7099 30.3904 43.2899 30.2004L43.4199 30.1604V35.8004L43.3499 35.8204C42.7199 36.0404 42.0699 36.1504 41.4099 36.1504C41.3599 36.1504 41.2999 36.1504 41.2499 36.1504C41.1999 36.1504 41.1499 36.1504 41.0999 36.1504C40.2599 36.1504 39.4199 35.9704 38.6499 35.6204C37.7199 35.2104 36.6999 35.0104 35.6799 35.0304C34.6399 35.0104 33.6399 35.2104 32.6999 35.6204C31.8799 36.0004 30.9699 36.1704 30.0799 36.1604C29.2099 36.1704 28.3099 36.0004 27.4999 35.6404L27.4399 35.6104V28.6804H36.1299V31.8104C36.1299 33.0904 37.1799 34.1404 38.4599 34.1404Z" fill="white"/>
<path d="M50.7102 46.6504L44.4202 49.7904V47.3004L44.4802 47.2704L49.7302 44.8804C50.5602 44.5004 51.0902 43.6704 51.0902 42.7604V36.0504C51.0902 34.7704 50.0502 33.7204 48.7602 33.7204H44.4102V31.7004H48.7602C51.1502 31.7004 53.1002 33.6504 53.1102 36.0504V42.7604C53.1202 44.4004 52.1802 45.9204 50.7102 46.6504Z" fill="white"/>
</svg>
