<svg width="31" height="37" viewBox="0 0 31 37" fill="none" xmlns="http://www.w3.org/2000/svg">
<path d="M3.56994 15.7604C4.37994 16.0504 5.21994 16.2004 6.07994 16.1704C6.12994 16.1704 6.17994 16.1704 6.22994 16.1704C7.19994 16.1704 8.17994 15.9704 9.05994 15.5804C9.87994 15.2104 10.7899 15.0404 11.6699 15.0604C11.7199 15.0604 11.7699 15.0604 11.8199 15.0604C12.6599 15.0604 13.5099 15.2404 14.2799 15.5904C15.2099 16.0004 16.2399 16.2004 17.2499 16.1804C17.9399 16.2004 18.6299 16.1004 19.2899 15.9204L19.4199 15.8804V32.7504H3.43994V15.7104L3.56994 15.7604Z" fill="white"/>
<path d="M19.6701 7.95049C19.0201 8.30049 18.2801 8.49049 17.5301 8.49049C17.5201 8.49049 17.5001 8.49049 17.4901 8.49049C17.1201 8.47049 16.7601 8.43049 16.4001 8.37049C16.1301 8.30049 15.8501 8.47049 15.7801 8.74049C15.7701 8.78049 15.7701 8.82049 15.7701 8.86049V10.8205C15.7701 11.5405 15.1801 12.1305 14.4601 12.1305C13.7401 12.1305 13.1501 11.5405 13.1501 10.8205V7.17049C13.1501 6.89049 12.9201 6.66049 12.6401 6.66049H2.93012C2.65012 6.66049 2.42012 6.89049 2.42012 7.17049V7.80049L2.25012 7.56049C1.84012 7.00049 1.62012 6.34049 1.62012 5.65049C1.71012 3.73049 3.31012 2.22049 5.22012 2.22049C5.27012 2.22049 5.32012 2.22049 5.37012 2.22049C5.38012 2.22049 5.40012 2.22049 5.41012 2.22049C6.27012 2.22049 7.12012 2.51049 7.80012 3.05049C7.90012 3.13049 8.04012 3.17049 8.17012 3.15049C8.30012 3.13049 8.43012 3.06049 8.51012 2.95049C9.49012 1.73049 10.9901 1.00049 12.5501 1.00049C12.6101 1.00049 12.6701 1.00049 12.7301 1.00049C14.1801 1.00049 15.5701 1.61049 16.5501 2.68049C16.6601 2.80049 16.8101 2.86049 16.9801 2.85049C17.1501 2.83049 17.3201 2.82049 17.4901 2.82049C19.5501 2.82049 21.2301 4.09049 21.2301 5.65049C21.1701 6.65049 20.5701 7.53049 19.6701 7.95049Z" fill="white"/>
<path d="M4.51988 16.4804C5.32988 16.7704 6.16988 16.9204 7.02988 16.8904C7.07988 16.8904 7.12988 16.8904 7.17988 16.8904C8.14988 16.8904 9.12988 16.6904 10.0099 16.3004C10.8299 15.9304 11.7399 15.7604 12.6199 15.7804C12.6699 15.7804 12.7199 15.7804 12.7699 15.7804C13.6099 15.7804 14.4599 15.9604 15.2299 16.3104C16.1599 16.7204 17.1899 16.9204 18.1999 16.9004C18.8899 16.9204 19.5799 16.8204 20.2399 16.6404L20.3699 16.6004V33.4704H4.37988V16.4304L4.51988 16.4804Z" fill="#CCB8F4"/>
<path d="M20.6101 8.67047C19.9601 9.02047 19.2201 9.21047 18.4701 9.21047C18.4601 9.21047 18.4401 9.21047 18.4301 9.21047C18.0601 9.19047 17.7001 9.15047 17.3401 9.09047C17.0701 9.02047 16.7901 9.19047 16.7201 9.46047C16.7101 9.50047 16.7101 9.54047 16.7101 9.58047V11.5405C16.7101 12.2605 16.1201 12.8505 15.4001 12.8505C14.6801 12.8505 14.0901 12.2605 14.0901 11.5405V7.89047C14.0901 7.61047 13.8601 7.38047 13.5801 7.38047H3.88006C3.60006 7.38047 3.37006 7.61047 3.37006 7.89047V8.52047L3.19006 8.28047C2.78006 7.73047 2.57006 7.07047 2.56006 6.38047V6.37047C2.65006 4.45047 4.25006 2.94047 6.16006 2.94047C6.21006 2.94047 6.26006 2.94047 6.31006 2.94047C6.32006 2.94047 6.34006 2.94047 6.35006 2.94047C7.21006 2.94047 8.06006 3.23047 8.74006 3.77047C8.85006 3.85047 8.98006 3.89047 9.12006 3.88047C9.25006 3.86047 9.38006 3.79047 9.46006 3.68047C10.4301 2.45047 11.9401 1.73047 13.5001 1.73047C13.5601 1.73047 13.6201 1.73047 13.6801 1.73047C15.1301 1.73047 16.5201 2.34047 17.5001 3.41047C17.6101 3.53047 17.7601 3.59047 17.9301 3.58047C18.1001 3.56047 18.2701 3.55047 18.4401 3.55047C20.5001 3.55047 22.1801 4.82047 22.1801 6.38047C22.1101 7.37047 21.5101 8.25047 20.6101 8.67047Z" fill="#A3EFE0"/>
<path d="M30.13 21.7605V15.0505C30.13 12.1005 27.72 9.69049 24.77 9.69049H20.42V8.67049L20.47 8.64049C21.54 8.01049 22.2 6.89049 22.24 5.65049C22.24 3.53049 20.11 1.81049 17.49 1.81049C17.38 1.81049 17.28 1.81049 17.18 1.82049H17.14L17.1 1.79049C14.58 -0.639512 10.53 -0.589512 8.07 1.90049L8.02 1.96049L7.95 1.92049C7.18 1.45049 6.3 1.20049 5.4 1.20049C5.39 1.20049 5.38 1.20049 5.36 1.20049C5.31 1.20049 5.27 1.20049 5.22 1.20049C2.75 1.20049 0.69 3.17049 0.61 5.66049C0.62 7.02049 1.29 8.31049 2.39 9.12049L2.43 9.15049V32.8005L2.35 32.8205C0.99 33.0805 0 34.2905 0 35.6805C0 35.9605 0.23 36.1905 0.51 36.1905H22.35C22.63 36.1905 22.86 35.9605 22.86 35.6805C22.86 34.2905 21.87 33.0805 20.51 32.8105L20.43 32.7905V29.9305L27.17 26.5605C29 25.6505 30.14 23.8105 30.13 21.7605ZM21.73 35.0405L21.78 35.1705H1.08L1.13 35.0405C1.4 34.2805 2.13 33.7605 2.94 33.7605H19.92C20.73 33.7605 21.46 34.2805 21.73 35.0405ZM14.46 13.1405C15.74 13.1405 16.79 12.1005 16.79 10.8105V9.44049L16.9 9.45049C17.1 9.47049 17.3 9.49049 17.5 9.49049C18.11 9.49049 18.71 9.39049 19.29 9.20049L19.42 9.16049V14.8005L19.35 14.8205C18.72 15.0405 18.07 15.1505 17.41 15.1505C17.36 15.1505 17.3 15.1505 17.25 15.1505C17.2 15.1505 17.15 15.1505 17.1 15.1505C16.26 15.1505 15.42 14.9705 14.65 14.6205C13.72 14.2105 12.7 14.0105 11.68 14.0305C10.64 14.0105 9.64 14.2105 8.7 14.6205C7.88 15.0005 6.97 15.1705 6.08 15.1605C5.21 15.1705 4.31 15.0005 3.5 14.6405L3.44 14.6105V7.68049H12.13V10.8105C12.13 12.0905 13.18 13.1405 14.46 13.1405ZM3.57 15.7605C4.38 16.0505 5.22 16.2005 6.08 16.1705C6.13 16.1705 6.18 16.1705 6.23 16.1705C7.2 16.1705 8.18 15.9705 9.06 15.5805C9.88 15.2105 10.79 15.0405 11.67 15.0605C11.72 15.0605 11.77 15.0605 11.82 15.0605C12.66 15.0605 13.51 15.2405 14.28 15.5905C15.21 16.0005 16.24 16.2005 17.25 16.1805C17.94 16.2005 18.63 16.1005 19.29 15.9205L19.42 15.8805V32.7505H3.44V15.7105L3.57 15.7605ZM19.67 7.95049C19.02 8.30049 18.28 8.49049 17.53 8.49049C17.52 8.49049 17.5 8.49049 17.49 8.49049C17.12 8.47049 16.76 8.43049 16.4 8.37049C16.13 8.30049 15.85 8.47049 15.78 8.74049C15.77 8.78049 15.77 8.82049 15.77 8.86049V10.8205C15.77 11.5405 15.18 12.1305 14.46 12.1305C13.74 12.1305 13.15 11.5405 13.15 10.8205V7.17049C13.15 6.89049 12.92 6.66049 12.64 6.66049H2.93C2.65 6.66049 2.42 6.89049 2.42 7.17049V7.80049L2.25 7.56049C1.84 7.00049 1.62 6.34049 1.62 5.65049C1.71 3.73049 3.31 2.22049 5.22 2.22049C5.27 2.22049 5.32 2.22049 5.37 2.22049C5.38 2.22049 5.4 2.22049 5.41 2.22049C6.27 2.22049 7.12 2.51049 7.8 3.05049C7.9 3.13049 8.04 3.17049 8.17 3.15049C8.3 3.13049 8.43 3.06049 8.51 2.95049C9.49 1.73049 10.99 1.00049 12.55 1.00049C12.61 1.00049 12.67 1.00049 12.73 1.00049C14.18 1.00049 15.57 1.61049 16.55 2.68049C16.66 2.80049 16.81 2.86049 16.98 2.85049C17.15 2.83049 17.32 2.82049 17.49 2.82049C19.55 2.82049 21.23 4.09049 21.23 5.65049C21.17 6.65049 20.57 7.53049 19.67 7.95049ZM20.42 13.7405H24.77C25.49 13.7405 26.08 14.3305 26.08 15.0505V21.7605C26.08 22.2705 25.78 22.7405 25.31 22.9605L20.42 25.1805V13.7405ZM26.71 25.6505L20.42 28.7905V26.3005L20.48 26.2705L25.73 23.8805C26.56 23.5005 27.09 22.6705 27.09 21.7605V15.0505C27.09 13.7705 26.05 12.7205 24.76 12.7205H20.41V10.7005H24.76C27.15 10.7005 29.1 12.6505 29.11 15.0505V21.7605C29.12 23.4005 28.18 24.9205 26.71 25.6505Z" fill="#464860"/>
<path d="M21.7301 35.0405L21.7801 35.1705H1.08008L1.13008 35.0405C1.40008 34.2805 2.13008 33.7605 2.94008 33.7605H19.9201C20.7301 33.7605 21.4601 34.2805 21.7301 35.0405Z" fill="white"/>
<path d="M14.4599 13.1404C15.7399 13.1404 16.7899 12.1004 16.7899 10.8104V9.44042L16.8999 9.45042C17.0999 9.47042 17.2999 9.49042 17.4999 9.49042C18.1099 9.49042 18.7099 9.39042 19.2899 9.20042L19.4199 9.16042V14.8004L19.3499 14.8204C18.7199 15.0404 18.0699 15.1504 17.4099 15.1504C17.3599 15.1504 17.2999 15.1504 17.2499 15.1504C17.1999 15.1504 17.1499 15.1504 17.0999 15.1504C16.2599 15.1504 15.4199 14.9704 14.6499 14.6204C13.7199 14.2104 12.6999 14.0104 11.6799 14.0304C10.6399 14.0104 9.63994 14.2104 8.69994 14.6204C7.87994 15.0004 6.96994 15.1704 6.07994 15.1604C5.20994 15.1704 4.30994 15.0004 3.49994 14.6404L3.43994 14.6104V7.68042H12.1299V10.8104C12.1299 12.0904 13.1799 13.1404 14.4599 13.1404Z" fill="white"/>
<path d="M26.7102 25.6504L20.4202 28.7904V26.3004L20.4802 26.2704L25.7302 23.8804C26.5602 23.5004 27.0902 22.6704 27.0902 21.7604V15.0504C27.0902 13.7704 26.0502 12.7204 24.7602 12.7204H20.4102V10.7004H24.7602C27.1502 10.7004 29.1002 12.6504 29.1102 15.0504V21.7604C29.1202 23.4004 28.1802 24.9204 26.7102 25.6504Z" fill="white"/>
</svg>
