<svg width="57" height="42" viewBox="0 0 57 42" fill="none" xmlns="http://www.w3.org/2000/svg">
<path d="M46.6182 9.47006C46.6982 9.68006 46.8982 9.82006 47.1182 9.82006C47.1482 9.82006 47.1882 9.82006 47.2282 9.81006C47.4482 9.77006 47.6682 9.74006 47.8782 9.74006C49.1982 9.74006 50.4982 10.5201 51.5482 11.9401L51.8082 12.2901L51.4282 12.0901C49.7482 11.2101 47.7182 10.6901 46.0082 10.6901C45.3182 10.6901 44.7082 10.7701 44.1882 10.9401C42.2482 11.4101 39.9182 13.4301 38.5182 15.8501L38.2982 16.2201L38.3282 15.7901C38.4782 13.7001 39.4082 12.1901 40.8782 11.6601C41.1282 11.5701 41.2682 11.3101 41.2182 11.0501C41.1682 10.8101 40.9482 10.6301 40.6982 10.6301C38.1982 10.8001 35.7282 11.6901 33.9082 13.0601L33.6382 13.2601L33.7482 12.9401C34.3282 11.3101 35.2682 10.1101 36.4682 9.46006C36.6982 9.34006 36.8082 9.06006 36.7182 8.82006C36.6382 8.61006 36.4382 8.47006 36.2182 8.47006C36.1882 8.47006 36.1482 8.47006 36.1182 8.48006C35.5382 8.59006 34.9582 8.77006 34.3882 9.01006L34.1182 9.12006L34.2582 8.87006C35.4882 6.69006 36.7482 5.58006 38.0082 5.58006H38.0882C38.3482 5.58006 38.5582 5.42006 38.6182 5.18006C38.6782 4.94006 38.5682 4.69006 38.3382 4.58006C37.8282 4.32006 37.3282 4.15006 36.8482 4.05006L36.6282 4.01006L36.7982 3.88006C37.5682 3.28006 38.1882 3.01006 38.8082 3.01006C39.7782 3.01006 40.7182 3.71006 41.8382 4.76006C41.9382 4.85006 42.0682 4.90006 42.1982 4.90006C42.2582 4.90006 42.3082 4.89006 42.3582 4.87006C42.5382 4.81006 42.6782 4.66006 42.7182 4.47006C42.9982 3.00006 43.5182 2.04006 44.3082 1.54006C44.8082 1.22006 45.4182 1.06006 46.1782 1.06006C46.2782 1.06006 46.3882 1.06006 46.4882 1.07006L46.7182 1.08006L46.5482 1.24006C46.1982 1.58006 45.8682 1.99006 45.5782 2.48006C45.4482 2.69006 45.4882 2.97006 45.6682 3.14006C45.7682 3.23006 45.8982 3.28006 46.0282 3.28006C46.1382 3.28006 46.2382 3.25006 46.3282 3.19006C46.7282 2.92006 47.2182 2.78006 47.7782 2.78006C48.7182 2.78006 49.9182 3.16006 51.3182 3.92006L51.5782 4.06006L51.3082 4.10006C50.6982 4.20006 50.1182 4.36006 49.5682 4.58006C49.3182 4.68006 49.1882 4.93006 49.2382 5.19006C49.2882 5.43006 49.5082 5.60006 49.7582 5.60006C49.8982 5.59006 50.0082 5.59006 50.1282 5.59006C51.3782 5.59006 52.6982 6.11006 53.9482 7.08006L54.2082 7.29006L53.8782 7.26006C53.5982 7.24006 53.3182 7.23006 53.0282 7.23006C50.9882 7.23006 48.7382 7.81006 46.8582 8.83006C46.6282 8.95006 46.5282 9.23006 46.6182 9.47006Z" fill="white"/>
<path d="M4.65779 12.2901L4.91779 11.9401C5.96779 10.5201 7.26779 9.74006 8.58779 9.74006C8.80779 9.74006 9.02779 9.76006 9.24779 9.81006C9.27779 9.82006 9.31779 9.82006 9.35779 9.82006C9.57779 9.82006 9.77779 9.68006 9.85779 9.47006C9.92779 9.23006 9.82779 8.95006 9.59779 8.83006C7.68779 7.80006 5.49779 7.23006 3.42779 7.22006C3.13779 7.22006 2.84779 7.23006 2.57779 7.25006L2.23779 7.28006L2.49779 7.08006C3.74779 6.10006 5.07779 5.59006 6.32779 5.59006C6.43779 5.59006 6.54779 5.59006 6.65779 5.60006C6.93779 5.60006 7.15779 5.43006 7.20779 5.19006C7.26779 4.94006 7.12779 4.67006 6.87779 4.58006C6.34779 4.37006 5.75779 4.21006 5.14779 4.10006L4.85779 4.05006L5.11779 3.91006C6.52779 3.16006 7.71779 2.77006 8.65779 2.77006C9.22779 2.77006 9.71779 2.91006 10.1078 3.18006C10.1978 3.24006 10.2978 3.27006 10.4078 3.27006C10.5478 3.27006 10.6778 3.22006 10.7678 3.13006C10.9478 2.96006 10.9878 2.68006 10.8578 2.47006C10.5678 1.98006 10.2378 1.57006 9.88779 1.23006L9.72779 1.08006L9.95779 1.07006C10.0678 1.06006 10.1678 1.06006 10.2678 1.06006C11.0178 1.06006 11.6478 1.22006 12.1378 1.54006C12.9178 2.04006 13.4378 3.00006 13.7278 4.48006C13.7678 4.67006 13.8978 4.82006 14.0878 4.88006C14.1378 4.90006 14.1978 4.91006 14.2478 4.91006C14.3878 4.91006 14.5078 4.86006 14.6078 4.77006C15.7278 3.72006 16.6678 3.02006 17.6378 3.02006C18.2578 3.02006 18.8778 3.29006 19.6478 3.89006L19.8178 4.02006L19.5978 4.06006C19.1178 4.16006 18.6178 4.33006 18.1078 4.59006C17.8878 4.70006 17.7678 4.95006 17.8278 5.19006C17.8878 5.42006 18.0978 5.59006 18.3378 5.59006H18.4278C19.6878 5.59006 20.9478 6.70006 22.1778 8.88006L22.3178 9.13006L22.0478 9.02006C21.4778 8.78006 20.8978 8.60006 20.3178 8.49006C20.2778 8.48006 20.2478 8.48006 20.2078 8.48006C19.9878 8.48006 19.7878 8.62006 19.7078 8.83006C19.6578 9.07006 19.7678 9.35006 19.9978 9.47006C21.1978 10.1101 22.1378 11.3101 22.7178 12.9401L22.8278 13.2601L22.5578 13.0601C20.7378 11.6901 18.2778 10.8001 15.8078 10.6301C15.5278 10.6301 15.3078 10.8001 15.2578 11.0501C15.2078 11.3101 15.3478 11.5701 15.5978 11.6601C17.0678 12.2001 17.9978 13.7001 18.1478 15.7901L18.1778 16.2201L17.9578 15.8501C16.5578 13.4301 14.2278 11.4201 12.2878 10.9501C11.7678 10.7801 11.1478 10.7001 10.4578 10.7001C8.74779 10.7001 6.71779 11.2201 5.03779 12.1001L4.65779 12.2901Z" fill="white"/>
<path d="M44.9779 40.31C46.5079 32.74 46.8179 20.27 44.3879 12.08L44.3579 11.98L44.4579 11.95C44.7079 11.87 44.9779 11.81 45.2979 11.78L45.3779 11.77L45.4079 11.84L45.4179 11.88C48.8179 18.87 48.8879 31.6 48.9379 40.02V40.32V40.42H48.8379H45.0979H44.9779V40.31Z" fill="white"/>
<path d="M42.9181 24.9502L42.5281 25.5102C37.7381 32.4502 32.9181 35.9702 28.2181 35.9702C23.5181 35.9702 18.7081 32.4502 13.9081 25.5102L13.5181 24.9502L14.0481 25.3802C18.7281 29.1302 23.4981 31.0302 28.2081 31.0302C32.9181 31.0302 37.6881 29.1302 42.3681 25.3802L42.9181 24.9502Z" fill="white"/>
<path d="M11.0578 11.88L11.0978 11.79H11.1878C11.4878 11.83 11.7578 11.88 11.9878 11.96L12.1078 11.98L12.0778 12.09C9.64783 20.28 9.95783 32.75 11.4878 40.32L11.5078 40.44H11.3878H7.62783H7.52783V40.34V40.04C7.57783 31.61 7.64783 18.88 11.0578 11.88Z" fill="white"/>
<path d="M47.3882 9.47006C47.4682 9.68006 47.6682 9.82006 47.8882 9.82006C47.9182 9.82006 47.9582 9.82006 47.9982 9.81006C48.2182 9.77006 48.4382 9.74006 48.6482 9.74006C49.9682 9.74006 51.2682 10.5201 52.3182 11.9401L52.5782 12.2901L52.1982 12.0901C50.5182 11.2101 48.4882 10.6901 46.7782 10.6901C46.0882 10.6901 45.4782 10.7701 44.9582 10.9401C43.0182 11.4101 40.6882 13.4301 39.2882 15.8501L39.0682 16.2201L39.0982 15.7901C39.2482 13.7001 40.1782 12.1901 41.6482 11.6601C41.8982 11.5701 42.0382 11.3101 41.9882 11.0501C41.9382 10.8101 41.7182 10.6301 41.4682 10.6301C38.9682 10.8001 36.4982 11.6901 34.6782 13.0601L34.4082 13.2601L34.5182 12.9401C35.0982 11.3101 36.0382 10.1101 37.2382 9.46006C37.4682 9.34006 37.5782 9.06006 37.4882 8.82006C37.4082 8.61006 37.2082 8.47006 36.9882 8.47006C36.9582 8.47006 36.9182 8.47006 36.8882 8.48006C36.3082 8.59006 35.7282 8.77006 35.1582 9.01006L34.8882 9.12006L35.0282 8.87006C36.2582 6.69006 37.5182 5.58006 38.7782 5.58006H38.8582C39.1182 5.58006 39.3282 5.42006 39.3882 5.18006C39.4482 4.94006 39.3382 4.69006 39.1082 4.58006C38.5982 4.32006 38.0982 4.15006 37.6182 4.05006L37.3982 4.01006L37.5682 3.88006C38.3382 3.28006 38.9582 3.01006 39.5782 3.01006C40.5482 3.01006 41.4882 3.71006 42.6082 4.76006C42.7082 4.85006 42.8382 4.90006 42.9682 4.90006C43.0282 4.90006 43.0782 4.89006 43.1282 4.87006C43.3082 4.81006 43.4482 4.66006 43.4882 4.47006C43.7682 3.00006 44.2882 2.04006 45.0782 1.54006C45.5782 1.22006 46.1882 1.06006 46.9482 1.06006C47.0482 1.06006 47.1582 1.06006 47.2582 1.07006L47.4882 1.08006L47.3182 1.24006C46.9682 1.58006 46.6382 1.99006 46.3482 2.48006C46.2182 2.69006 46.2582 2.97006 46.4382 3.14006C46.5382 3.23006 46.6682 3.28006 46.7982 3.28006C46.9082 3.28006 47.0082 3.25006 47.0982 3.19006C47.4982 2.92006 47.9882 2.78006 48.5482 2.78006C49.4882 2.78006 50.6882 3.16006 52.0882 3.92006L52.3482 4.06006L52.0582 4.11006C51.4482 4.21006 50.8682 4.37006 50.3182 4.59006C50.0682 4.69006 49.9382 4.94006 49.9882 5.20006C50.0382 5.44006 50.2582 5.61006 50.5082 5.61006C50.6482 5.60006 50.7582 5.60006 50.8782 5.60006C52.1282 5.60006 53.4482 6.12006 54.6982 7.09006L54.9582 7.30006L54.6282 7.27006C54.3482 7.25006 54.0682 7.24006 53.7782 7.24006C51.7382 7.24006 49.4882 7.82006 47.6082 8.84006C47.4082 8.95006 47.2982 9.23006 47.3882 9.47006Z" fill="#A3EFE0"/>
<path d="M3.84799 12.2901L4.10799 11.9401C5.15799 10.5201 6.45799 9.74006 7.77799 9.74006C7.99799 9.74006 8.21799 9.76006 8.43799 9.81006C8.46799 9.82006 8.50799 9.82006 8.54799 9.82006C8.76799 9.82006 8.96799 9.68006 9.04799 9.47006C9.12799 9.23006 9.01799 8.95006 8.79799 8.83006C6.88799 7.80006 4.69799 7.23006 2.62799 7.22006C2.33799 7.22006 2.04799 7.23006 1.77799 7.25006L1.43799 7.28006L1.69799 7.08006C2.94799 6.10006 4.26799 5.59006 5.52799 5.59006C5.63799 5.59006 5.74799 5.59006 5.85799 5.60006C6.13799 5.60006 6.35799 5.43006 6.40799 5.19006C6.46799 4.94006 6.32799 4.67006 6.07799 4.58006C5.53799 4.37006 4.95799 4.21006 4.34799 4.10006L4.05799 4.05006L4.31799 3.91006C5.72799 3.16006 6.91799 2.77006 7.85799 2.77006C8.42799 2.77006 8.91799 2.91006 9.30799 3.18006C9.39799 3.25006 9.49799 3.28006 9.60799 3.28006C9.74799 3.28006 9.87799 3.23006 9.96799 3.14006C10.148 2.97006 10.188 2.69006 10.058 2.48006C9.76799 1.99006 9.43799 1.58006 9.08799 1.24006L8.92799 1.08006L9.15799 1.07006C9.26799 1.06006 9.36799 1.06006 9.46799 1.06006C10.218 1.06006 10.848 1.22006 11.338 1.54006C12.118 2.04006 12.638 3.00006 12.928 4.48006C12.968 4.67006 13.098 4.82006 13.288 4.88006C13.338 4.90006 13.398 4.91006 13.448 4.91006C13.588 4.91006 13.708 4.86006 13.808 4.77006C14.928 3.72006 15.868 3.02006 16.838 3.02006C17.458 3.02006 18.078 3.29006 18.848 3.89006L19.018 4.02006L18.798 4.06006C18.318 4.16006 17.818 4.33006 17.308 4.59006C17.088 4.70006 16.968 4.95006 17.028 5.19006C17.088 5.42006 17.298 5.59006 17.538 5.59006H17.628C18.888 5.59006 20.148 6.70006 21.378 8.88006L21.518 9.13006L21.248 9.02006C20.678 8.78006 20.098 8.60006 19.518 8.49006C19.478 8.48006 19.448 8.48006 19.408 8.48006C19.188 8.48006 18.988 8.62006 18.908 8.83006C18.818 9.08006 18.928 9.35006 19.158 9.47006C20.358 10.1101 21.298 11.3101 21.878 12.9401L21.988 13.2601L21.718 13.0601C19.898 11.6901 17.438 10.8001 14.968 10.6301C14.688 10.6301 14.468 10.8001 14.418 11.0501C14.368 11.3101 14.508 11.5701 14.758 11.6601C16.228 12.2001 17.158 13.7001 17.308 15.7901L17.338 16.2201L17.118 15.8501C15.718 13.4301 13.388 11.4201 11.448 10.9501C10.928 10.7801 10.308 10.7001 9.61799 10.7001C7.90799 10.7001 5.87799 11.2201 4.19799 12.1001L3.84799 12.2901Z" fill="#A3EFE0"/>
<path d="M45.7582 40.31C47.2882 32.74 47.5982 20.27 45.1682 12.08L45.1382 11.98L45.2382 11.95C45.4882 11.87 45.7582 11.81 46.0782 11.78L46.1582 11.77L46.1882 11.84L46.1982 11.88C49.5982 18.87 49.6682 31.6 49.7182 40.02V40.32V40.42H49.6182H45.8782H45.7582V40.31Z" fill="#CCB8F4"/>
<path d="M42.9181 26.1001L42.5281 26.6601C37.7381 33.6001 32.9181 37.1201 28.2181 37.1201C23.5181 37.1201 18.7081 33.6001 13.9081 26.6601L13.5181 26.1001L14.0481 26.5301C18.7281 30.2801 23.4981 32.1801 28.2081 32.1801C32.9181 32.1801 37.6881 30.2801 42.3681 26.5301L42.9181 26.1001Z" fill="#A3EFE0"/>
<path d="M10.248 11.88L10.288 11.79H10.378C10.678 11.83 10.948 11.88 11.178 11.96L11.298 11.98L11.268 12.09C8.83803 20.28 9.14803 32.75 10.678 40.32L10.698 40.44H10.578H6.82803H6.72803V40.34V40.04C6.77803 31.61 6.84803 18.88 10.248 11.88Z" fill="#CCB8F4"/>
<path d="M56.328 7.9C55.278 6.68 54.138 5.78 52.948 5.2L52.568 5.02L52.998 5.01H53.088H53.318C53.568 5 53.768 4.86 53.838 4.64C53.908 4.42 53.818 4.17 53.628 4.04C51.338 2.53 49.498 1.77 47.988 1.72L47.638 1.71L47.938 1.54C48.098 1.45 48.268 1.37 48.438 1.32C48.658 1.25 48.818 1.03 48.808 0.8C48.798 0.56 48.638 0.36 48.408 0.3C47.578 0.1 46.838 0 46.178 0C45.208 0 44.408 0.21 43.738 0.64C42.908 1.17 42.318 2.02 41.938 3.24L41.898 3.38L41.788 3.29C40.668 2.37 39.718 1.94 38.818 1.94C37.668 1.94 36.468 2.62 34.828 4.22C34.658 4.39 34.618 4.65 34.738 4.86C34.828 5.03 35.008 5.13 35.198 5.13C35.248 5.13 35.288 5.12 35.328 5.11C35.498 5.07 35.678 5.04 35.868 5.03L36.218 5.01L35.928 5.21C34.688 6.07 33.528 7.7 32.408 10.2C32.308 10.41 32.368 10.67 32.548 10.82C32.648 10.9 32.768 10.95 32.888 10.95C32.988 10.95 33.098 10.92 33.178 10.86C33.268 10.8 33.358 10.74 33.438 10.69L33.798 10.46L33.568 10.82C32.868 11.94 32.398 13.32 32.158 14.91C32.118 15.15 32.258 15.39 32.478 15.48C32.538 15.51 32.608 15.52 32.678 15.52C32.848 15.52 33.008 15.44 33.108 15.3C34.108 13.92 36.048 12.72 38.288 12.1L38.558 12.02L38.388 12.25C37.268 13.79 36.938 16.12 37.458 18.63C37.508 18.87 37.728 19.05 37.978 19.05C38.228 19.05 38.448 18.87 38.498 18.62C38.928 16.42 41.058 13.65 43.248 12.44L43.358 12.38L43.398 12.5C44.138 15.04 44.648 18.12 44.908 21.64V21.69L44.878 21.72C39.338 27.21 33.728 30 28.228 30C22.728 30 17.118 27.22 11.568 21.73L11.538 21.7V21.65C11.798 18.12 12.308 15.05 13.048 12.51L13.088 12.39L13.198 12.45C15.388 13.66 17.518 16.44 17.948 18.63C17.998 18.88 18.218 19.06 18.468 19.06C18.718 19.06 18.938 18.88 18.988 18.64C19.508 16.13 19.168 13.81 18.058 12.26L17.888 12.03L18.158 12.11C20.398 12.73 22.338 13.93 23.338 15.31C23.438 15.45 23.598 15.53 23.768 15.53C23.838 15.53 23.908 15.52 23.968 15.49C24.198 15.4 24.328 15.16 24.288 14.92C24.048 13.33 23.578 11.96 22.878 10.83L22.648 10.47L23.018 10.7C23.108 10.75 23.198 10.81 23.278 10.87C23.368 10.93 23.468 10.96 23.568 10.96C23.698 10.96 23.818 10.92 23.908 10.83C24.088 10.68 24.148 10.42 24.048 10.21C22.918 7.71 21.768 6.08 20.528 5.22L20.238 5.02L20.588 5.04C20.768 5.05 20.958 5.08 21.128 5.12C21.168 5.13 21.218 5.14 21.258 5.14C21.448 5.14 21.628 5.04 21.718 4.87C21.838 4.66 21.798 4.4 21.628 4.23C19.978 2.63 18.788 1.95 17.638 1.95C16.738 1.95 15.798 2.38 14.668 3.3L14.558 3.39L14.518 3.25C14.138 2.03 13.548 1.18 12.718 0.65C12.038 0.21 11.238 0 10.268 0C9.618 0 8.878 0.1 8.068 0.3C7.838 0.36 7.668 0.56 7.668 0.8C7.658 1.03 7.808 1.24 8.038 1.31C8.208 1.37 8.378 1.44 8.538 1.53L8.838 1.7L8.488 1.72C6.978 1.78 5.138 2.54 2.848 4.05C2.648 4.18 2.568 4.43 2.638 4.65C2.708 4.87 2.898 5.01 3.158 5.02H3.378H3.468L3.898 5.03L3.508 5.21C2.318 5.78 1.178 6.69 0.128 7.9C-0.032 8.09 -0.042 8.36 0.098 8.56C0.198 8.7 0.358 8.78 0.528 8.78C0.598 8.78 0.658 8.77 0.728 8.74C1.488 8.44 2.388 8.28 3.418 8.28C4.528 8.28 5.728 8.47 6.888 8.83L7.158 8.91L6.898 9.01C5.128 9.72 3.598 11.5 2.698 13.89C2.608 14.12 2.698 14.39 2.918 14.52C2.998 14.57 3.098 14.6 3.198 14.6C3.348 14.6 3.488 14.54 3.578 14.43C4.898 13.03 7.458 11.93 9.808 11.74L9.978 11.73L9.908 11.88C6.608 19.2 6.538 31.72 6.498 40V40.31V40.41H6.398H2.938C2.648 40.41 2.408 40.65 2.408 40.94C2.408 41.23 2.648 41.47 2.938 41.47H6.998H49.458H53.518C53.808 41.47 54.048 41.23 54.048 40.94C54.048 40.65 53.808 40.41 53.518 40.41H50.088H49.988V40.31V40C49.938 31.72 49.868 19.2 46.578 11.88L46.508 11.73L46.678 11.74C49.018 11.93 51.578 13.03 52.908 14.43C53.008 14.54 53.148 14.6 53.288 14.6C53.388 14.6 53.488 14.57 53.568 14.52C53.778 14.39 53.868 14.12 53.788 13.88C52.888 11.48 51.358 9.7 49.588 9L49.328 8.9L49.598 8.82C50.758 8.46 51.948 8.27 53.068 8.27C54.088 8.27 54.998 8.42 55.758 8.73C55.818 8.75 55.888 8.77 55.958 8.77C56.128 8.77 56.288 8.69 56.388 8.55C56.498 8.36 56.488 8.09 56.328 7.9ZM46.618 9.47C46.698 9.68 46.898 9.82 47.118 9.82C47.148 9.82 47.188 9.82 47.228 9.81C47.448 9.77 47.668 9.74 47.878 9.74C49.198 9.74 50.498 10.52 51.548 11.94L51.808 12.29L51.428 12.09C49.748 11.21 47.718 10.69 46.008 10.69C45.318 10.69 44.708 10.77 44.188 10.94C42.248 11.41 39.918 13.43 38.518 15.85L38.298 16.22L38.328 15.79C38.478 13.7 39.408 12.19 40.878 11.66C41.128 11.57 41.268 11.31 41.218 11.05C41.168 10.81 40.948 10.63 40.698 10.63C38.198 10.8 35.728 11.69 33.908 13.06L33.638 13.26L33.748 12.94C34.328 11.31 35.268 10.11 36.468 9.46C36.698 9.34 36.808 9.06 36.718 8.82C36.638 8.61 36.438 8.47 36.218 8.47C36.188 8.47 36.148 8.47 36.118 8.48C35.538 8.59 34.958 8.77 34.388 9.01L34.118 9.12L34.258 8.87C35.488 6.69 36.748 5.58 38.008 5.58H38.088C38.348 5.58 38.558 5.42 38.618 5.18C38.678 4.94 38.568 4.69 38.338 4.58C37.828 4.32 37.328 4.15 36.848 4.05L36.628 4.01L36.798 3.88C37.568 3.28 38.188 3.01 38.808 3.01C39.778 3.01 40.718 3.71 41.838 4.76C41.938 4.85 42.068 4.9 42.198 4.9C42.258 4.9 42.308 4.89 42.358 4.87C42.538 4.81 42.678 4.66 42.718 4.47C42.998 3 43.518 2.04 44.308 1.54C44.808 1.22 45.418 1.06 46.178 1.06C46.278 1.06 46.388 1.06 46.488 1.07L46.718 1.08L46.548 1.24C46.198 1.58 45.868 1.99 45.578 2.48C45.448 2.69 45.488 2.97 45.668 3.14C45.768 3.23 45.898 3.28 46.028 3.28C46.138 3.28 46.238 3.25 46.328 3.19C46.728 2.92 47.218 2.78 47.778 2.78C48.718 2.78 49.918 3.16 51.318 3.92L51.578 4.06L51.308 4.1C50.698 4.2 50.118 4.36 49.568 4.58C49.318 4.68 49.188 4.93 49.238 5.19C49.288 5.43 49.508 5.6 49.758 5.6C49.898 5.59 50.008 5.59 50.128 5.59C51.378 5.59 52.698 6.11 53.948 7.08L54.208 7.29L53.878 7.26C53.598 7.24 53.318 7.23 53.028 7.23C50.988 7.23 48.738 7.81 46.858 8.83C46.628 8.95 46.528 9.23 46.618 9.47ZM4.658 12.29L4.918 11.94C5.968 10.52 7.268 9.74 8.588 9.74C8.808 9.74 9.028 9.76 9.248 9.81C9.278 9.82 9.318 9.82 9.358 9.82C9.578 9.82 9.778 9.68 9.858 9.47C9.928 9.23 9.828 8.95 9.598 8.83C7.688 7.8 5.498 7.23 3.428 7.22C3.138 7.22 2.848 7.23 2.578 7.25L2.238 7.28L2.498 7.08C3.748 6.1 5.078 5.59 6.328 5.59C6.438 5.59 6.548 5.59 6.658 5.6C6.938 5.6 7.158 5.43 7.208 5.19C7.268 4.94 7.128 4.67 6.878 4.58C6.348 4.37 5.758 4.21 5.148 4.1L4.858 4.05L5.118 3.91C6.528 3.16 7.718 2.77 8.658 2.77C9.228 2.77 9.718 2.91 10.108 3.18C10.198 3.24 10.298 3.27 10.408 3.27C10.548 3.27 10.678 3.22 10.768 3.13C10.948 2.96 10.988 2.68 10.858 2.47C10.568 1.98 10.238 1.57 9.888 1.23L9.728 1.08L9.958 1.07C10.068 1.06 10.168 1.06 10.268 1.06C11.018 1.06 11.648 1.22 12.138 1.54C12.918 2.04 13.438 3 13.728 4.48C13.768 4.67 13.898 4.82 14.088 4.88C14.138 4.9 14.198 4.91 14.248 4.91C14.388 4.91 14.508 4.86 14.608 4.77C15.728 3.72 16.668 3.02 17.638 3.02C18.258 3.02 18.878 3.29 19.648 3.89L19.818 4.02L19.598 4.06C19.118 4.16 18.618 4.33 18.108 4.59C17.888 4.7 17.768 4.95 17.828 5.19C17.888 5.42 18.098 5.59 18.338 5.59H18.428C19.688 5.59 20.948 6.7 22.178 8.88L22.318 9.13L22.048 9.02C21.478 8.78 20.898 8.6 20.318 8.49C20.278 8.48 20.248 8.48 20.208 8.48C19.988 8.48 19.788 8.62 19.708 8.83C19.658 9.07 19.768 9.35 19.998 9.47C21.198 10.11 22.138 11.31 22.718 12.94L22.828 13.26L22.558 13.06C20.738 11.69 18.278 10.8 15.808 10.63C15.528 10.63 15.308 10.8 15.258 11.05C15.208 11.31 15.348 11.57 15.598 11.66C17.068 12.2 17.998 13.7 18.148 15.79L18.178 16.22L17.958 15.85C16.558 13.43 14.228 11.42 12.288 10.95C11.768 10.78 11.148 10.7 10.458 10.7C8.748 10.7 6.718 11.22 5.038 12.1L4.658 12.29ZM44.978 40.31C46.508 32.74 46.818 20.27 44.388 12.08L44.358 11.98L44.458 11.95C44.708 11.87 44.978 11.81 45.298 11.78L45.378 11.77L45.408 11.84L45.418 11.88C48.818 18.87 48.888 31.6 48.938 40.02V40.32V40.42H48.838H45.098H44.978V40.31ZM44.868 23.9L45.038 23.63L45.048 23.95C45.278 29.66 44.848 35.79 43.888 40.36L43.868 40.44H43.798H12.658H12.578L12.558 40.36C11.608 35.79 11.168 29.66 11.398 23.95L11.408 23.63L11.578 23.9C17.058 32.62 22.658 37.04 28.218 37.04C33.788 37.03 39.378 32.61 44.868 23.9ZM42.918 24.95L42.528 25.51C37.738 32.45 32.918 35.97 28.218 35.97C23.518 35.97 18.708 32.45 13.908 25.51L13.518 24.95L14.048 25.38C18.728 29.13 23.498 31.03 28.208 31.03C32.918 31.03 37.688 29.13 42.368 25.38L42.918 24.95ZM11.058 11.88L11.098 11.79H11.188C11.488 11.83 11.758 11.88 11.988 11.96L12.108 11.98L12.078 12.09C9.648 20.28 9.958 32.75 11.488 40.32L11.508 40.44H11.388H7.628H7.528V40.34V40.04C7.578 31.61 7.648 18.88 11.058 11.88Z" fill="#464860"/>
</svg>
