<svg width="78" height="78" viewBox="0 0 78 78" fill="none" xmlns="http://www.w3.org/2000/svg">
<rect width="78" height="78" fill="white"/>
<path d="M51.1502 48.0901H50.4702V49.7301H51.1502V48.0901Z" fill="white"/>
<path d="M51.1502 52.6799H50.4702V54.3199H51.1502V52.6799Z" fill="white"/>
<path d="M50.4701 55.0899H51.8401H51.9401V54.9899V51.9799V51.8799H51.8401H50.4701V50.4999H51.8301H51.9301V50.3999V47.3999V47.2999H51.8301H50.4701V46.1099V46.0099H50.3701H47.8501V32.1599H56.8301V58.0999H50.4701V55.0899Z" fill="white"/>
<path d="M48.32 54.3501V58.1001H45.71L45.73 54.3501H48.32Z" fill="white"/>
<path d="M44.2002 44.75H43.6202H43.5202V44.85V46.01H42.3602V44.85V44.75H42.2602H41.6902H41.5902V44.85V46.01H41.2102V40.54V40.44H41.1102H38.4302V20.77H45.4502V46.01H44.3002V44.85V44.75H44.2002Z" fill="white"/>
<path d="M49.03 53.5601H45.05H44.95V53.6601V58.1001H41.21V46.8301H49.69V58.1001H49.1L49.13 53.6701V53.5601H49.03Z" fill="white"/>
<path d="M40.4302 41.22H31.4502V58.1H40.4302V41.22Z" fill="white"/>
<path d="M30.6802 26.5901H21.7002V58.1001H30.6802V26.5901Z" fill="white"/>
<path d="M55.2699 48.0901H53.6299V49.7301H55.2699V48.0901Z" fill="white"/>
<path d="M55.2699 52.6799H53.6299V54.3199H55.2699V52.6799Z" fill="white"/>
<path d="M55.2699 34.3201H53.6299V35.9601H55.2699V34.3201Z" fill="white"/>
<path d="M55.2699 43.5H53.6299V45.14H55.2699V43.5Z" fill="white"/>
<path d="M55.2699 38.9099H53.6299V40.5499H55.2699V38.9099Z" fill="white"/>
<path d="M51.1698 43.5H49.5298V45.14H51.1698V43.5Z" fill="white"/>
<path d="M51.1698 38.9099H49.5298V40.5499H51.1698V38.9099Z" fill="white"/>
<path d="M51.1698 34.3201H49.5298V35.9601H51.1698V34.3201Z" fill="white"/>
<path d="M51.1502 48.0901H50.4702V49.7301H51.1502V48.0901Z" fill="white"/>
<path d="M51.1502 52.6799H50.4702V54.3199H51.1502V52.6799Z" fill="white"/>
<path d="M51.2098 55.65H52.5798H52.6798V55.55V52.55V52.45H52.5798H51.2098V51.07H52.5698H52.6698V50.97V47.96V47.86H52.5698H51.2098V46.68V46.58H51.1098H48.5898V32.73H57.5698V58.67H51.2098V55.65Z" fill="#A3EFE0"/>
<path d="M48.32 54.3501V58.1001H45.71L45.73 54.3501H48.32Z" fill="white"/>
<path d="M44.9399 45.3201H44.3599H44.2599V45.4201V46.5701H43.0999V45.4201V45.3201H42.9999H42.4299H42.3299V45.4201V46.5801H41.9499V41.1001V41.0001H41.8499H39.1699V21.3401H46.1899V46.5801H45.0399V45.4201V45.3201H44.9399Z" fill="#CCB8F4"/>
<path d="M49.7702 54.1299H45.7902H45.6902V54.2299V58.6699H41.9502V47.3999H50.4302V58.6699H49.8402L49.8702 54.2299V54.1299H49.7702Z" fill="#CCB8F4"/>
<path d="M41.1699 41.79H32.1899V58.67H41.1699V41.79Z" fill="#A3EFE0"/>
<path d="M31.4199 27.1499H22.4399V58.6599H31.4199V27.1499Z" fill="#CCB8F4"/>
<path d="M55.2699 48.0901H53.6299V49.7301H55.2699V48.0901Z" fill="white"/>
<path d="M55.2699 52.6799H53.6299V54.3199H55.2699V52.6799Z" fill="white"/>
<path d="M55.2699 34.3201H53.6299V35.9601H55.2699V34.3201Z" fill="white"/>
<path d="M55.2699 43.5H53.6299V45.14H55.2699V43.5Z" fill="white"/>
<path d="M55.2699 38.9099H53.6299V40.5499H55.2699V38.9099Z" fill="white"/>
<path d="M51.1698 43.5H49.5298V45.14H51.1698V43.5Z" fill="white"/>
<path d="M51.1698 38.9099H49.5298V40.5499H51.1698V38.9099Z" fill="white"/>
<path d="M51.1698 34.3201H49.5298V35.9601H51.1698V34.3201Z" fill="white"/>
<path d="M44.32 40.19V38.35V38.25H44.22H43.64H43.54V38.35V40.19V40.29H43.64H44.22H44.32V40.19Z" fill="#464860"/>
<path d="M39.7401 38.25H39.6401V38.35V40.19V40.29H39.7401H40.3201H40.4201V40.19V38.35V38.25H40.3201H39.7401Z" fill="#464860"/>
<path d="M39.7401 35H39.6401V35.1V36.94V37.04H39.7401H40.3201H40.4201V36.94V35.1V35H40.3201H39.7401Z" fill="#464860"/>
<path d="M41.6898 38.25H41.5898V38.35V40.19V40.29H41.6898H42.2698H42.3698V40.19V38.35V38.25H42.2698H41.6898Z" fill="#464860"/>
<path d="M43.64 35H43.54V35.1V36.94V37.04H43.64H44.22H44.32V36.94V35.1V35H44.22H43.64Z" fill="#464860"/>
<path d="M29.95 29.32H30.05V29.22V28.65V28.55H29.95H22.56H22.46V28.65V29.22V29.32H22.56H29.95Z" fill="#464860"/>
<path d="M43.62 41.5H43.52V41.6V43.44V43.54H43.62H44.19H44.29V43.44V41.6V41.5H44.19H43.62Z" fill="#464860"/>
<path d="M44.19 33.79H44.29V33.69V31.85V31.75H44.19H43.62H43.52V31.85V33.69V33.79H43.62H44.19Z" fill="#464860"/>
<path d="M41.6898 35H41.5898V35.1V36.94V37.04H41.6898H42.2698H42.3698V36.94V35.1V35H42.2698H41.6898Z" fill="#464860"/>
<path d="M44.1998 27.27H44.2998V27.17V25.35V25.25H44.1998H43.6298H43.5298V25.35V27.17V27.27H43.6298H44.1998Z" fill="#464860"/>
<path d="M40.2901 33.79H40.3901V33.69V31.85V31.75H40.2901H39.7201H39.6201V31.85V33.69V33.79H39.7201H40.2901Z" fill="#464860"/>
<path d="M44.2 30.52H44.3V30.42V28.6V28.5H44.2H43.62H43.52V28.6V30.42V30.52H43.62H44.2Z" fill="#464860"/>
<path d="M29.95 42.6599H30.05V42.5599V41.9799V41.8799H29.95H22.56H22.46V41.9799V42.5599V42.6599H22.56H29.95Z" fill="#464860"/>
<path d="M29.94 34.6699H30.03L30.04 34.5799L30.05 33.9999V33.8999H29.95H22.56H22.46V33.9999V34.5699V34.6699H22.56H29.94Z" fill="#464860"/>
<path d="M29.96 48H30.07L30.06 47.9L30.05 47.33L30.04 47.23H29.95H22.56H22.46V47.33V47.9V48H22.56H29.96Z" fill="#464860"/>
<path d="M29.94 45.3301H30.03L30.04 45.2401L30.05 44.6601V44.5601H29.95H22.56H22.46V44.6601V45.2301V45.3301H22.56H29.94Z" fill="#464860"/>
<path d="M29.96 40H30.06V39.9L30.05 39.33V39.23H29.95H22.56H22.46V39.33V39.9V40H22.56H29.96Z" fill="#464860"/>
<path d="M29.95 50.6599H30.05V50.5599V49.9799V49.8799H29.95H22.56H22.46V49.9799V50.5599V50.6599H22.56H29.95Z" fill="#464860"/>
<path d="M29.96 37.3401H30.06V37.2301L30.05 36.6601V36.5601H29.95H22.56H22.46V36.6601V37.2401V37.3401H22.56H29.96Z" fill="#464860"/>
<path d="M29.95 53.3301H30.05V53.2301V52.6601V52.5601H29.95H22.56H22.46V52.6601V53.2301V53.3301H22.56H29.95Z" fill="#464860"/>
<path d="M40.2999 24.02H40.3999V23.92V22.1V22H40.2999H39.7299H39.6299V22.1V23.92V24.02H39.7299H40.2999Z" fill="#464860"/>
<path d="M40.2999 27.27H40.3999V27.17V25.35V25.25H40.2999H39.7299H39.6299V25.35V27.17V27.27H39.7299H40.2999Z" fill="#464860"/>
<path d="M42.2501 24.02H42.3501V23.92V22.1V22H42.2501H41.6801H41.5801V22.1V23.92V24.02H41.6801H42.2501Z" fill="#464860"/>
<path d="M40.2999 30.52H40.3999V30.42V28.6V28.5H40.2999H39.7299H39.6299V28.6V30.42V30.52H39.7299H40.2999Z" fill="#464860"/>
<path d="M29.95 31.99H30.05V31.89V31.32V31.22H29.95H22.56H22.46V31.32V31.89V31.99H22.56H29.95Z" fill="#464860"/>
<path d="M29.94 56.02H30.04V55.93L30.05 55.35V55.25H29.95H22.56H22.46V55.35V55.92V56.02H22.56H29.94Z" fill="#464860"/>
<path d="M44.1998 24.02H44.2998V23.92V22.1V22H44.1998H43.6298H43.5298V22.1V23.92V24.02H43.6298H44.1998Z" fill="#464860"/>
<path d="M52.9301 33.53H52.8301V33.63V36.63V36.73H52.9301H55.9501H56.0501V36.63V33.63V33.53H55.9501H52.9301ZM53.6301 35.96V34.32H55.2701V35.96H53.6301Z" fill="#464860"/>
<path d="M52.9301 42.7H52.8301V42.7999V45.7999V45.9H52.9301H55.9501H56.0501V45.7999V42.7999V42.7H55.9501H52.9301ZM53.6301 45.1299V43.5H55.2701V45.1399H53.6301V45.1299Z" fill="#464860"/>
<path d="M48.8098 49.7799V49.6799H48.7098H42.1498H42.0498V49.7799V50.3599V50.4599H42.1498H48.7298H48.8398L48.8298 50.3499L48.8098 49.7799Z" fill="#464860"/>
<path d="M42.1498 55.55H42.0498V55.6501V56.23V56.3301H42.1498H44.2198H44.3198V56.23V55.6501V55.55H44.2198H42.1498Z" fill="#464860"/>
<path d="M44.3198 53.6801L44.3098 53.5901H44.2198H42.1498H42.0498V53.6901V54.2601V54.3601H42.1498H44.2398H44.3398V54.2601L44.3198 53.6801Z" fill="#464860"/>
<path d="M48.8098 51.7299V51.6299H48.7098H42.1498H42.0498V51.7299V52.2999V52.3999H42.1498H48.7198H48.8198V52.2999L48.8098 51.7299Z" fill="#464860"/>
<path d="M52.9301 38.1201H52.8301V38.2201V41.2201V41.3201H52.9301H55.9501H56.0501V41.2201V38.2201V38.1201H55.9501H52.9301ZM53.6301 40.5501V38.9101H55.2701V40.5501H53.6301Z" fill="#464860"/>
<path d="M51.9402 42.7999V42.7H51.8402H48.8402H48.7402V42.7999V45.7999V45.9H48.8402H51.8602H51.9602V45.7999L51.9402 42.7999ZM51.1702 43.5V45.1399H49.5302V43.5H51.1702Z" fill="#464860"/>
<path d="M60.53 58.77L60.52 58.19V58.09H60.42H57.6V31.48V31.38H57.5H47.17H47.07V31.48V46.01H46.23V20.1V20H46.13H37.75H37.65V20.1V40.44H31.44V25.9V25.8H31.34H21.02H20.92V25.9V58.1H18.1H18V58.2V58.77V58.87H18.1H60.43H60.53V58.77ZM50.47 49.73V48.09H51.15V49.73H50.47ZM50.47 54.32V52.68H51.15V54.32H50.47ZM50.47 55.09H51.83H51.93V54.99V51.99V51.89H51.83H50.47V50.5H51.83H51.93V50.4V47.4V47.3H51.83H50.47V46.12V46.02H50.37H47.85V32.16H56.83V58.1H50.48V55.09H50.47ZM48.32 54.35V58.1H45.71L45.73 54.35H48.32ZM44.2 44.75H43.63H43.53V44.85V46.01H42.37V44.85V44.75H42.27H41.7H41.6V44.85V46.01H41.23V40.54V40.44H41.13H38.45V20.77H45.46V46.01H44.3V44.85V44.75H44.2ZM49.03 53.56H45.05H44.95V53.66V58.1H41.21V46.83H49.69V58.1H49.1L49.13 53.66V53.56H49.03ZM31.45 58.1V41.22H40.43V58.1H31.45ZM30.68 26.59V58.1H21.7V26.59H30.68Z" fill="#464860"/>
<path d="M51.9402 38.2201V38.1201H51.8402H48.8402H48.7402V38.2201V41.2201V41.3201H48.8402H51.8602H51.9602V41.2201L51.9402 38.2201ZM51.1702 38.9101V40.5501H49.5302V38.9101H51.1702Z" fill="#464860"/>
<path d="M52.9301 47.29H52.8301V47.39V50.4V50.5H52.9301H55.9501H56.0501V50.4V47.39V47.29H55.9501H52.9301ZM53.6301 49.72V48.08H55.2701V49.72H53.6301Z" fill="#464860"/>
<path d="M51.9402 33.63V33.53H51.8402H48.8402H48.7402V33.63V36.63V36.73H48.8402H51.8602H51.9602V36.63L51.9402 33.63ZM51.1702 34.32V35.96H49.5302V34.32H51.1702Z" fill="#464860"/>
<path d="M42.2501 27.27H42.3501V27.17V25.35V25.25H42.2501H41.6801H41.5801V25.35V27.17V27.27H41.6801H42.2501Z" fill="#464860"/>
<path d="M52.9301 51.8799H52.8301V51.9799V54.9799V55.0799H52.9301H55.9501H56.0501V54.9799V51.9799V51.8799H55.9501H52.9301ZM53.6301 54.3199V52.6799H55.2701V54.3199H53.6301Z" fill="#464860"/>
<path d="M38.14 42.5H38.04V42.6V46.04V46.14H38.14H38.72H38.82V46.04V42.6V42.5H38.72H38.14Z" fill="#464860"/>
<path d="M41.6698 41.5H41.5698V41.6V43.44V43.54H41.6698H42.2398H42.3398V43.44V41.6V41.5H42.2398H41.6698Z" fill="#464860"/>
<path d="M38.1298 48.01H38.0298V48.11V51.55V51.65H38.1298H38.6998H38.7998V51.55V48.11V48.01H38.6998H38.1298Z" fill="#464860"/>
<path d="M42.2501 30.52H42.3501V30.42V28.6V28.5H42.2501H41.6801H41.5801V28.6V30.42V30.52H41.6801H42.2501Z" fill="#464860"/>
<path d="M38.12 53.55H38.02V53.6501V57.09V57.19H38.12H38.69H38.79V57.09V53.6501V53.55H38.69H38.12Z" fill="#464860"/>
<path d="M42.2398 33.79H42.3398V33.69V31.85V31.75H42.2398H41.6698H41.5698V31.85V33.69V33.79H41.6698H42.2398Z" fill="#464860"/>
<path d="M33.1801 53.55H33.0801V53.6501V57.09V57.19H33.1801H33.7501H33.8501V57.09V53.6501V53.55H33.7501H33.1801Z" fill="#464860"/>
<path d="M33.1801 48.01H33.0801V48.11V51.55V51.65H33.1801H33.7601H33.8601V51.55V48.11V48.01H33.7601H33.1801Z" fill="#464860"/>
<path d="M33.2001 42.5H33.1001V42.6V46.04V46.14H33.2001H33.7701H33.8701V46.04V42.6V42.5H33.7701H33.2001Z" fill="#464860"/>
<path d="M48.8098 47.83V47.73H48.7098H42.1498H42.0498V47.83V48.41V48.51H42.1498H48.7298H48.8398L48.8298 48.4L48.8098 47.83Z" fill="#464860"/>
<path d="M35.6498 53.55H35.5498V53.6501V57.09V57.19H35.6498H36.2198H36.3198V57.09V53.6501V53.55H36.2198H35.6498Z" fill="#464860"/>
<path d="M35.6698 42.5H35.5698V42.6V46.04V46.14H35.6698H36.2398H36.3398V46.04V42.6V42.5H36.2398H35.6698Z" fill="#464860"/>
<path d="M35.6498 48.01H35.5498V48.11V51.55V51.65H35.6498H36.2298H36.3298V51.55V48.11V48.01H36.2298H35.6498Z" fill="#464860"/>
</svg>
