<svg width="43" height="39" viewBox="0 0 43 39" fill="none" xmlns="http://www.w3.org/2000/svg">
<path d="M33.1502 28.0901H32.4702V29.7301H33.1502V28.0901Z" fill="white"/>
<path d="M33.1502 32.6799H32.4702V34.3199H33.1502V32.6799Z" fill="white"/>
<path d="M32.4701 35.0899H33.8401H33.9401V34.9899V31.9799V31.8799H33.8401H32.4701V30.4999H33.8301H33.9301V30.3999V27.3999V27.2999H33.8301H32.4701V26.1099V26.0099H32.3701H29.8501V12.1599H38.8301V38.0999H32.4701V35.0899Z" fill="white"/>
<path d="M30.32 34.3501V38.1001H27.71L27.73 34.3501H30.32Z" fill="white"/>
<path d="M26.2002 24.75H25.6202H25.5202V24.85V26.01H24.3602V24.85V24.75H24.2602H23.6902H23.5902V24.85V26.01H23.2102V20.54V20.44H23.1102H20.4302V0.77002H27.4502V26.01H26.3002V24.85V24.75H26.2002Z" fill="white"/>
<path d="M31.03 33.5601H27.05H26.95V33.6601V38.1001H23.21V26.8301H31.69V38.1001H31.1L31.13 33.6701V33.5601H31.03Z" fill="white"/>
<path d="M22.4302 21.22H13.4502V38.1H22.4302V21.22Z" fill="white"/>
<path d="M12.6802 6.59009H3.7002V38.1001H12.6802V6.59009Z" fill="white"/>
<path d="M37.2699 28.0901H35.6299V29.7301H37.2699V28.0901Z" fill="white"/>
<path d="M37.2699 32.6799H35.6299V34.3199H37.2699V32.6799Z" fill="white"/>
<path d="M37.2699 14.3201H35.6299V15.9601H37.2699V14.3201Z" fill="white"/>
<path d="M37.2699 23.5H35.6299V25.14H37.2699V23.5Z" fill="white"/>
<path d="M37.2699 18.9099H35.6299V20.5499H37.2699V18.9099Z" fill="white"/>
<path d="M33.1698 23.5H31.5298V25.14H33.1698V23.5Z" fill="white"/>
<path d="M33.1698 18.9099H31.5298V20.5499H33.1698V18.9099Z" fill="white"/>
<path d="M33.1698 14.3201H31.5298V15.9601H33.1698V14.3201Z" fill="white"/>
<path d="M33.1502 28.0901H32.4702V29.7301H33.1502V28.0901Z" fill="white"/>
<path d="M33.1502 32.6799H32.4702V34.3199H33.1502V32.6799Z" fill="white"/>
<path d="M33.2098 35.65H34.5798H34.6798V35.55V32.55V32.45H34.5798H33.2098V31.07H34.5698H34.6698V30.97V27.96V27.86H34.5698H33.2098V26.68V26.58H33.1098H30.5898V12.73H39.5698V38.67H33.2098V35.65Z" fill="#A3EFE0"/>
<path d="M30.32 34.3501V38.1001H27.71L27.73 34.3501H30.32Z" fill="white"/>
<path d="M26.9399 25.3201H26.3599H26.2599V25.4201V26.5701H25.0999V25.4201V25.3201H24.9999H24.4299H24.3299V25.4201V26.5801H23.9499V21.1001V21.0001H23.8499H21.1699V1.34009H28.1899V26.5801H27.0399V25.4201V25.3201H26.9399Z" fill="#CCB8F4"/>
<path d="M31.7702 34.1299H27.7902H27.6902V34.2299V38.6699H23.9502V27.3999H32.4302V38.6699H31.8402L31.8702 34.2299V34.1299H31.7702Z" fill="#CCB8F4"/>
<path d="M23.1699 21.79H14.1899V38.67H23.1699V21.79Z" fill="#A3EFE0"/>
<path d="M13.4199 7.1499H4.43994V38.6599H13.4199V7.1499Z" fill="#CCB8F4"/>
<path d="M37.2699 28.0901H35.6299V29.7301H37.2699V28.0901Z" fill="white"/>
<path d="M37.2699 32.6799H35.6299V34.3199H37.2699V32.6799Z" fill="white"/>
<path d="M37.2699 14.3201H35.6299V15.9601H37.2699V14.3201Z" fill="white"/>
<path d="M37.2699 23.5H35.6299V25.14H37.2699V23.5Z" fill="white"/>
<path d="M37.2699 18.9099H35.6299V20.5499H37.2699V18.9099Z" fill="white"/>
<path d="M33.1698 23.5H31.5298V25.14H33.1698V23.5Z" fill="white"/>
<path d="M33.1698 18.9099H31.5298V20.5499H33.1698V18.9099Z" fill="white"/>
<path d="M33.1698 14.3201H31.5298V15.9601H33.1698V14.3201Z" fill="white"/>
<path d="M26.32 20.19V18.35V18.25H26.22H25.64H25.54V18.35V20.19V20.29H25.64H26.22H26.32V20.19Z" fill="#464860"/>
<path d="M21.7401 18.25H21.6401V18.35V20.19V20.29H21.7401H22.3201H22.4201V20.19V18.35V18.25H22.3201H21.7401Z" fill="#464860"/>
<path d="M21.7401 15H21.6401V15.1V16.94V17.04H21.7401H22.3201H22.4201V16.94V15.1V15H22.3201H21.7401Z" fill="#464860"/>
<path d="M23.6898 18.25H23.5898V18.35V20.19V20.29H23.6898H24.2698H24.3698V20.19V18.35V18.25H24.2698H23.6898Z" fill="#464860"/>
<path d="M25.64 15H25.54V15.1V16.94V17.04H25.64H26.22H26.32V16.94V15.1V15H26.22H25.64Z" fill="#464860"/>
<path d="M11.95 9.32005H12.05V9.22005V8.65005V8.55005H11.95H4.55996H4.45996V8.65005V9.22005V9.32005H4.55996H11.95Z" fill="#464860"/>
<path d="M25.62 21.5H25.52V21.6V23.44V23.54H25.62H26.19H26.29V23.44V21.6V21.5H26.19H25.62Z" fill="#464860"/>
<path d="M26.19 13.79H26.29V13.69V11.85V11.75H26.19H25.62H25.52V11.85V13.69V13.79H25.62H26.19Z" fill="#464860"/>
<path d="M23.6898 15H23.5898V15.1V16.94V17.04H23.6898H24.2698H24.3698V16.94V15.1V15H24.2698H23.6898Z" fill="#464860"/>
<path d="M26.1998 7.27H26.2998V7.17V5.35V5.25H26.1998H25.6298H25.5298V5.35V7.17V7.27H25.6298H26.1998Z" fill="#464860"/>
<path d="M22.2901 13.79H22.3901V13.69V11.85V11.75H22.2901H21.7201H21.6201V11.85V13.69V13.79H21.7201H22.2901Z" fill="#464860"/>
<path d="M26.2 10.52H26.3V10.42V8.6V8.5H26.2H25.62H25.52V8.6V10.42V10.52H25.62H26.2Z" fill="#464860"/>
<path d="M11.95 22.6599H12.05V22.5599V21.9799V21.8799H11.95H4.55996H4.45996V21.9799V22.5599V22.6599H4.55996H11.95Z" fill="#464860"/>
<path d="M11.94 14.6699H12.03L12.04 14.5799L12.05 13.9999V13.8999H11.95H4.55996H4.45996V13.9999V14.5699V14.6699H4.55996H11.94Z" fill="#464860"/>
<path d="M11.96 28H12.07L12.06 27.9L12.05 27.33L12.04 27.23H11.95H4.55996H4.45996V27.33V27.9V28H4.55996H11.96Z" fill="#464860"/>
<path d="M11.94 25.3301H12.03L12.04 25.2401L12.05 24.6601V24.5601H11.95H4.55996H4.45996V24.6601V25.2301V25.3301H4.55996H11.94Z" fill="#464860"/>
<path d="M11.96 20H12.06V19.9L12.05 19.33V19.23H11.95H4.55996H4.45996V19.33V19.9V20H4.55996H11.96Z" fill="#464860"/>
<path d="M11.95 30.6599H12.05V30.5599V29.9799V29.8799H11.95H4.55996H4.45996V29.9799V30.5599V30.6599H4.55996H11.95Z" fill="#464860"/>
<path d="M11.96 17.3401H12.06V17.2301L12.05 16.6601V16.5601H11.95H4.55996H4.45996V16.6601V17.2401V17.3401H4.55996H11.96Z" fill="#464860"/>
<path d="M11.95 33.3301H12.05V33.2301V32.6601V32.5601H11.95H4.55996H4.45996V32.6601V33.2301V33.3301H4.55996H11.95Z" fill="#464860"/>
<path d="M22.2999 4.02H22.3999V3.92V2.1V2H22.2999H21.7299H21.6299V2.1V3.92V4.02H21.7299H22.2999Z" fill="#464860"/>
<path d="M22.2999 7.27H22.3999V7.17V5.35V5.25H22.2999H21.7299H21.6299V5.35V7.17V7.27H21.7299H22.2999Z" fill="#464860"/>
<path d="M24.2501 4.02H24.3501V3.92V2.1V2H24.2501H23.6801H23.5801V2.1V3.92V4.02H23.6801H24.2501Z" fill="#464860"/>
<path d="M22.2999 10.52H22.3999V10.42V8.6V8.5H22.2999H21.7299H21.6299V8.6V10.42V10.52H21.7299H22.2999Z" fill="#464860"/>
<path d="M11.95 11.99H12.05V11.89V11.32V11.22H11.95H4.55996H4.45996V11.32V11.89V11.99H4.55996H11.95Z" fill="#464860"/>
<path d="M11.94 36.02H12.04V35.93L12.05 35.35V35.25H11.95H4.55996H4.45996V35.35V35.92V36.02H4.55996H11.94Z" fill="#464860"/>
<path d="M26.1998 4.02H26.2998V3.92V2.1V2H26.1998H25.6298H25.5298V2.1V3.92V4.02H25.6298H26.1998Z" fill="#464860"/>
<path d="M34.9301 13.53H34.8301V13.63V16.63V16.73H34.9301H37.9501H38.0501V16.63V13.63V13.53H37.9501H34.9301ZM35.6301 15.96V14.32H37.2701V15.96H35.6301Z" fill="#464860"/>
<path d="M34.9301 22.7H34.8301V22.7999V25.7999V25.9H34.9301H37.9501H38.0501V25.7999V22.7999V22.7H37.9501H34.9301ZM35.6301 25.1299V23.5H37.2701V25.1399H35.6301V25.1299Z" fill="#464860"/>
<path d="M30.8098 29.7799V29.6799H30.7098H24.1498H24.0498V29.7799V30.3599V30.4599H24.1498H30.7298H30.8398L30.8298 30.3499L30.8098 29.7799Z" fill="#464860"/>
<path d="M24.1498 35.55H24.0498V35.6501V36.23V36.3301H24.1498H26.2198H26.3198V36.23V35.6501V35.55H26.2198H24.1498Z" fill="#464860"/>
<path d="M26.3198 33.6801L26.3098 33.5901H26.2198H24.1498H24.0498V33.6901V34.2601V34.3601H24.1498H26.2398H26.3398V34.2601L26.3198 33.6801Z" fill="#464860"/>
<path d="M30.8098 31.7299V31.6299H30.7098H24.1498H24.0498V31.7299V32.2999V32.3999H24.1498H30.7198H30.8198V32.2999L30.8098 31.7299Z" fill="#464860"/>
<path d="M34.9301 18.1201H34.8301V18.2201V21.2201V21.3201H34.9301H37.9501H38.0501V21.2201V18.2201V18.1201H37.9501H34.9301ZM35.6301 20.5501V18.9101H37.2701V20.5501H35.6301Z" fill="#464860"/>
<path d="M33.9402 22.7999V22.7H33.8402H30.8402H30.7402V22.7999V25.7999V25.9H30.8402H33.8602H33.9602V25.7999L33.9402 22.7999ZM33.1702 23.5V25.1399H31.5302V23.5H33.1702Z" fill="#464860"/>
<path d="M42.53 38.77L42.52 38.19V38.09H42.42H39.6V11.48V11.38H39.5H29.17H29.07V11.48V26.01H28.23V0.1V0H28.13H19.75H19.65V0.1V20.44H13.44V5.9V5.8H13.34H3.02H2.92V5.9V38.1H0.1H0V38.2V38.77V38.87H0.1H42.43H42.53V38.77ZM32.47 29.73V28.09H33.15V29.73H32.47ZM32.47 34.32V32.68H33.15V34.32H32.47ZM32.47 35.09H33.83H33.93V34.99V31.99V31.89H33.83H32.47V30.5H33.83H33.93V30.4V27.4V27.3H33.83H32.47V26.12V26.02H32.37H29.85V12.16H38.83V38.1H32.48V35.09H32.47ZM30.32 34.35V38.1H27.71L27.73 34.35H30.32ZM26.2 24.75H25.63H25.53V24.85V26.01H24.37V24.85V24.75H24.27H23.7H23.6V24.85V26.01H23.23V20.54V20.44H23.13H20.45V0.77H27.46V26.01H26.3V24.85V24.75H26.2ZM31.03 33.56H27.05H26.95V33.66V38.1H23.21V26.83H31.69V38.1H31.1L31.13 33.66V33.56H31.03ZM13.45 38.1V21.22H22.43V38.1H13.45ZM12.68 6.59V38.1H3.7V6.59H12.68Z" fill="#464860"/>
<path d="M33.9402 18.2201V18.1201H33.8402H30.8402H30.7402V18.2201V21.2201V21.3201H30.8402H33.8602H33.9602V21.2201L33.9402 18.2201ZM33.1702 18.9101V20.5501H31.5302V18.9101H33.1702Z" fill="#464860"/>
<path d="M34.9301 27.29H34.8301V27.39V30.4V30.5H34.9301H37.9501H38.0501V30.4V27.39V27.29H37.9501H34.9301ZM35.6301 29.72V28.08H37.2701V29.72H35.6301Z" fill="#464860"/>
<path d="M33.9402 13.63V13.53H33.8402H30.8402H30.7402V13.63V16.63V16.73H30.8402H33.8602H33.9602V16.63L33.9402 13.63ZM33.1702 14.32V15.96H31.5302V14.32H33.1702Z" fill="#464860"/>
<path d="M24.2501 7.27H24.3501V7.17V5.35V5.25H24.2501H23.6801H23.5801V5.35V7.17V7.27H23.6801H24.2501Z" fill="#464860"/>
<path d="M34.9301 31.8799H34.8301V31.9799V34.9799V35.0799H34.9301H37.9501H38.0501V34.9799V31.9799V31.8799H37.9501H34.9301ZM35.6301 34.3199V32.6799H37.2701V34.3199H35.6301Z" fill="#464860"/>
<path d="M20.14 22.5H20.04V22.6V26.04V26.14H20.14H20.72H20.82V26.04V22.6V22.5H20.72H20.14Z" fill="#464860"/>
<path d="M23.6698 21.5H23.5698V21.6V23.44V23.54H23.6698H24.2398H24.3398V23.44V21.6V21.5H24.2398H23.6698Z" fill="#464860"/>
<path d="M20.1298 28.01H20.0298V28.11V31.55V31.65H20.1298H20.6998H20.7998V31.55V28.11V28.01H20.6998H20.1298Z" fill="#464860"/>
<path d="M24.2501 10.52H24.3501V10.42V8.6V8.5H24.2501H23.6801H23.5801V8.6V10.42V10.52H23.6801H24.2501Z" fill="#464860"/>
<path d="M20.12 33.55H20.02V33.6501V37.09V37.19H20.12H20.69H20.79V37.09V33.6501V33.55H20.69H20.12Z" fill="#464860"/>
<path d="M24.2398 13.79H24.3398V13.69V11.85V11.75H24.2398H23.6698H23.5698V11.85V13.69V13.79H23.6698H24.2398Z" fill="#464860"/>
<path d="M15.1801 33.55H15.0801V33.6501V37.09V37.19H15.1801H15.7501H15.8501V37.09V33.6501V33.55H15.7501H15.1801Z" fill="#464860"/>
<path d="M15.1801 28.01H15.0801V28.11V31.55V31.65H15.1801H15.7601H15.8601V31.55V28.11V28.01H15.7601H15.1801Z" fill="#464860"/>
<path d="M15.2001 22.5H15.1001V22.6V26.04V26.14H15.2001H15.7701H15.8701V26.04V22.6V22.5H15.7701H15.2001Z" fill="#464860"/>
<path d="M30.8098 27.83V27.73H30.7098H24.1498H24.0498V27.83V28.41V28.51H24.1498H30.7298H30.8398L30.8298 28.4L30.8098 27.83Z" fill="#464860"/>
<path d="M17.6498 33.55H17.5498V33.6501V37.09V37.19H17.6498H18.2198H18.3198V37.09V33.6501V33.55H18.2198H17.6498Z" fill="#464860"/>
<path d="M17.6698 22.5H17.5698V22.6V26.04V26.14H17.6698H18.2398H18.3398V26.04V22.6V22.5H18.2398H17.6698Z" fill="#464860"/>
<path d="M17.6498 28.01H17.5498V28.11V31.55V31.65H17.6498H18.2298H18.3298V31.55V28.11V28.01H18.2298H17.6498Z" fill="#464860"/>
</svg>
