<svg width="43" height="42" viewBox="0 0 43 42" fill="none" xmlns="http://www.w3.org/2000/svg">
<path d="M15.1419 25.319C13.4115 27.1563 10.7695 27.6831 7.51336 26.8402C4.25719 25.9973 2.2097 24.2588 1.59545 21.8091C0.835894 18.7997 2.32198 14.9342 5.29414 12.1882C5.56494 11.938 5.79611 11.7009 6.00746 11.4705C6.4698 11.7997 7.09065 12.1421 8.06156 12.399C9.44857 12.7546 10.2874 12.6097 11.0998 12.4714C11.8395 12.3397 12.5396 12.2212 13.7153 12.5241C14.8909 12.827 15.4457 13.2748 16.027 13.7489L16.2515 13.9267C16.2581 13.9333 16.2713 13.9333 16.2845 13.9399C16.3638 14.3087 16.4629 14.6972 16.6016 15.1186C17.8631 18.9643 17.2753 23.0603 15.1419 25.319Z" fill="white"/>
<path d="M16.1395 26.7414C14.409 28.5786 11.7671 29.1054 8.51092 28.2625C5.25475 27.413 3.20725 25.6746 2.59301 23.2315C1.83345 20.2221 3.31954 16.3566 6.2917 13.6106C6.5625 13.3604 6.79367 13.1233 7.00502 12.8928C7.46736 13.2221 8.08821 13.5645 9.05912 13.8213C10.4461 14.1769 11.2849 14.0321 12.0973 13.8938C12.8371 13.7621 13.5372 13.6435 14.7128 13.9464C15.8885 14.2494 16.4433 14.6971 17.0245 15.1713L17.2491 15.3491C17.2557 15.3557 17.2689 15.3557 17.2821 15.3622C17.3614 15.731 17.4604 16.1195 17.5991 16.541C18.8607 20.3801 18.2728 24.4827 16.1395 26.7414Z" fill="#CCB8F4"/>
<path d="M6.92435 20.9514L5.10645 21.3242L5.48042 23.1367L7.29832 22.7638L6.92435 20.9514Z" fill="white"/>
<path d="M7.65914 14.6646L8.61024 16.2779L7.00527 17.213L6.06738 15.6194L7.65914 14.6646Z" fill="white"/>
<path d="M14.0529 15.2036L12.2021 15.3413L12.3402 17.1866L14.191 17.0489L14.0529 15.2036Z" fill="white"/>
<path d="M12.3388 20.8944L11.2173 22.3687L12.6959 23.4869L13.8175 22.0126L12.3388 20.8944Z" fill="white"/>
<path d="M2.13741 5.11594C2.82431 2.48188 5.53229 0.894865 8.16761 1.57972C10.6642 2.22506 12.2164 4.67473 11.8003 7.16392L6.99195 5.91932C6.82023 5.87323 6.64189 5.91932 6.5164 6.04444C6.39091 6.16297 6.33147 6.33419 6.3711 6.5054C6.39091 6.60418 6.42394 6.71613 6.45036 6.83466C6.66831 7.67756 6.97214 8.90239 5.28791 10.766C2.59315 10.0087 1.5694 7.30879 2.13741 5.11594Z" fill="white"/>
<path d="M1.34444 4.08859C2.03134 1.45454 4.73932 -0.132479 7.37464 0.552376C9.87126 1.19772 11.4234 3.64739 11.0073 6.13657L6.19898 4.89198C6.02726 4.84589 5.84893 4.89198 5.72343 5.0171C5.59794 5.13563 5.5385 5.31343 5.57813 5.48464C5.59794 5.58342 5.63097 5.69537 5.65739 5.8139C5.87535 6.6568 6.17917 7.88163 4.49494 9.74523C1.80018 8.98794 0.77643 6.28803 1.34444 4.08859Z" fill="#A3EFE0"/>
<path d="M7.90325 20.6832C7.79758 20.1762 7.29561 19.8469 6.78704 19.9523L4.83862 20.354C4.59424 20.4066 4.37628 20.5449 4.23758 20.7556C4.09888 20.9664 4.05265 21.2166 4.09888 21.4603L4.50177 23.4029C4.55461 23.6465 4.69331 23.8572 4.90467 24.0021C4.99053 24.0614 5.0896 24.1009 5.18867 24.1272C5.32738 24.1602 5.47268 24.1667 5.61138 24.1404L7.5598 23.7387C8.06837 23.6334 8.39861 23.1395 8.29294 22.6258L7.90325 20.6832ZM5.47929 23.1329L5.10281 21.3154L6.92574 20.94L7.30221 22.7575L5.47929 23.1329Z" fill="#464860"/>
<path d="M6.74751 18.2139C6.99189 18.2798 7.24947 18.2403 7.46083 18.1152L9.17808 17.1142C9.39604 16.9891 9.54795 16.785 9.614 16.5413C9.68004 16.2977 9.64041 16.0474 9.51492 15.8301L8.51099 14.118C8.3855 13.9007 8.18075 13.7492 7.93637 13.6834C7.692 13.6175 7.44101 13.657 7.22305 13.7821L5.5058 14.7897C5.05668 15.0531 4.90476 15.6326 5.16896 16.0803L6.17949 17.7925C6.29838 17.9966 6.50313 18.1547 6.74751 18.2139ZM7.65897 14.6645L8.61006 16.2779L7.00509 17.2196L6.06061 15.6194L7.65897 14.6645Z" fill="#464860"/>
<path d="M11.6677 17.9767C11.78 18.0755 11.9055 18.1413 12.0442 18.1742C12.1433 18.2006 12.249 18.2072 12.3546 18.2006L14.3361 18.0557C14.5871 18.036 14.8182 17.924 14.9833 17.733C15.1485 17.5421 15.2277 17.2984 15.2079 17.0482L15.0626 15.0726C15.023 14.559 14.5672 14.1639 14.0521 14.2034L12.0706 14.3483C11.8196 14.368 11.5885 14.48 11.4234 14.671C11.2582 14.8619 11.179 15.1056 11.1988 15.3558L11.3441 17.3313C11.3573 17.5816 11.4762 17.8121 11.6677 17.9767ZM14.0521 15.2043L14.1908 17.0482L12.3414 17.1865L12.2027 15.3426L14.0521 15.2043Z" fill="#464860"/>
<path d="M14.4816 21.2492L12.8965 20.0507C12.4804 19.7412 11.8859 19.8202 11.5755 20.2351L10.3734 21.8155C10.0564 22.2304 10.1423 22.823 10.5584 23.1325L12.1435 24.331C12.2426 24.4101 12.3615 24.4627 12.4737 24.4891C12.8304 24.5813 13.2267 24.4561 13.4645 24.1466L14.6665 22.5662C14.977 22.1513 14.8977 21.5587 14.4816 21.2492ZM12.6983 23.4881L11.2188 22.3687L12.3417 20.8936L13.8211 22.0131L12.6983 23.4881Z" fill="#464860"/>
<path d="M5.30774 5.93238C5.38039 5.66239 5.21527 5.3924 4.94447 5.31997L3.66314 4.99071C3.39234 4.91827 3.12154 5.07632 3.04889 5.34631C2.97624 5.6163 3.14136 5.89287 3.41216 5.95872L4.69349 6.28798C4.96429 6.36042 5.24169 6.20237 5.30774 5.93238Z" fill="#464860"/>
<path d="M7.34843 4.73406C7.61922 4.8065 7.89663 4.64187 7.96268 4.37188L8.29292 3.09436C8.36557 2.82437 8.20045 2.5478 7.92965 2.48195C7.65885 2.40951 7.38145 2.57414 7.3154 2.84413L6.98516 4.12165C6.91911 4.39164 7.07763 4.66821 7.34843 4.73406Z" fill="#464860"/>
<path d="M4.79254 7.01899L3.64991 7.69067C3.41213 7.82896 3.32627 8.13846 3.47158 8.38211C3.54423 8.50065 3.65651 8.57967 3.782 8.61259C3.90749 8.64552 4.04619 8.63235 4.16508 8.55991L5.30771 7.88823C5.54549 7.74994 5.63135 7.44044 5.48604 7.19679C5.34074 6.95314 5.03692 6.8807 4.79254 7.01899Z" fill="#464860"/>
<path d="M8.68239 5.7415C8.80788 5.77442 8.94658 5.76125 9.06547 5.68882L10.2081 5.01713C10.4459 4.87884 10.5317 4.56934 10.3864 4.32569C10.2411 4.08204 9.93731 4.00302 9.69293 4.14789L8.5503 4.81958C8.31252 4.95787 8.22666 5.26737 8.37197 5.51102C8.44462 5.62955 8.5569 5.70857 8.68239 5.7415Z" fill="#464860"/>
<path d="M5.38671 4.73394C5.45936 4.85247 5.57164 4.93149 5.69713 4.96442C5.82263 4.99735 5.96133 4.98417 6.08021 4.91174C6.31799 4.77345 6.40385 4.46395 6.25854 4.22688L5.59146 3.08766C5.44615 2.84401 5.13573 2.76498 4.89795 2.90986C4.66018 3.04814 4.57432 3.35765 4.71962 3.59471L5.38671 4.73394Z" fill="#464860"/>
<path d="M18.4446 9.63263C18.5569 9.50092 18.5965 9.31654 18.5437 9.15191C18.4908 8.98728 18.3587 8.85558 18.187 8.81607L12.7776 7.41344C13.3325 4.38427 11.4567 1.38803 8.41847 0.597818C5.24156 -0.225324 1.97878 1.68437 1.15318 4.85182C0.4927 7.38051 1.57589 10.4492 4.48201 11.5621C1.33151 14.5451 -0.227225 18.7399 0.604982 22.0522C1.09374 23.9751 2.59303 26.4906 6.92579 27.7154L3.75548 39.9374L0.631401 39.1275C0.360604 39.055 0.0832016 39.2196 0.0171535 39.4896C-0.0554994 39.7596 0.109621 40.0362 0.380418 40.1021L7.60608 41.9722C7.87688 42.0447 8.15428 41.88 8.22033 41.6101C8.29298 41.3401 8.12786 41.0635 7.85706 40.9976L4.73299 40.1877L7.91651 27.9591C12.104 28.8415 14.5477 27.4125 15.8819 26.0033C18.2596 23.4878 18.9399 18.9835 17.5727 14.802C16.5424 11.6477 17.5529 10.5809 18.22 9.87628C18.2993 9.79725 18.3785 9.71165 18.4446 9.63263ZM16.1197 12.5301C15.6045 12.1613 14.9837 11.8057 13.9797 11.5423C12.5927 11.1867 11.7539 11.3316 10.9415 11.4699C10.2018 11.6016 9.50166 11.7201 8.32601 11.4172C7.54003 11.2131 7.04467 10.9497 6.65499 10.6797C7.75799 9.14533 7.72497 7.95342 7.55324 7.09735L17.1302 9.57995C16.6217 10.1726 16.0867 11.0418 16.1197 12.5301ZM2.1373 5.11522C2.8242 2.48117 5.53217 0.894149 8.16749 1.579C10.6641 2.22435 12.2162 4.67402 11.8001 7.1632L6.99183 5.91861C6.82011 5.87251 6.64178 5.91861 6.51629 6.04373C6.3908 6.16226 6.33135 6.33347 6.37098 6.50469C6.3908 6.60346 6.42382 6.71541 6.45024 6.83394C6.6682 7.67684 6.97202 8.90168 5.28779 10.7653C2.59303 10.008 1.56928 7.30807 2.1373 5.11522ZM15.1422 25.3184C13.4117 27.1557 10.7698 27.6825 7.51361 26.8396C4.25744 25.9967 2.20995 24.2582 1.5957 21.8085C0.83615 18.7991 2.32223 14.9337 5.2944 12.1877C5.5652 11.9374 5.79636 11.7004 6.00772 11.4699C6.47005 11.7991 7.09091 12.1416 8.06181 12.3984C9.44882 12.754 10.2876 12.6091 11.1 12.4708C11.8398 12.3391 12.5399 12.2206 13.7155 12.5235C14.8912 12.8264 15.446 13.2742 16.0272 13.7483L16.2518 13.9261C16.2584 13.9327 16.2716 13.9327 16.2848 13.9393C16.3641 14.3081 16.4631 14.6966 16.6018 15.118C17.8634 18.9638 17.2755 23.0597 15.1422 25.3184Z" fill="#464860"/>
<path d="M25.9806 14.3219C26.1325 13.9071 26.2514 13.5185 26.3439 13.1563C26.3571 13.1498 26.3637 13.1498 26.3769 13.1432L26.6081 12.972C27.2091 12.5242 27.7771 12.0961 28.966 11.8393C30.1483 11.5825 30.8418 11.7274 31.5815 11.8854C32.3873 12.0566 33.2261 12.2344 34.6263 11.9315C35.6104 11.7142 36.2379 11.3915 36.7201 11.082C36.9248 11.3257 37.1494 11.5693 37.407 11.8262C40.2734 14.6841 41.6142 18.6088 40.7358 21.5853C40.0225 24.0087 37.9155 25.6681 34.6263 26.3859C31.3437 27.1037 28.7282 26.4781 27.0638 24.575C25.0097 22.2373 24.5804 18.115 25.9806 14.3219Z" fill="white"/>
<path d="M24.9303 15.7047C25.0823 15.2899 25.2011 14.9013 25.2936 14.5392C25.3068 14.5326 25.3134 14.5326 25.3266 14.526L25.5578 14.3548C26.1588 13.907 26.7269 13.479 27.9157 13.2221C29.098 12.9653 29.7915 13.1102 30.5312 13.2682C31.337 13.4394 32.1758 13.6172 33.576 13.3143C34.5602 13.097 35.1876 12.7743 35.6698 12.4648C35.8745 12.7085 36.0991 12.9521 36.3567 13.209C39.2232 16.0669 40.5639 19.9917 39.6855 22.9681C38.9722 25.3915 36.8652 27.0509 33.576 27.7687C30.2934 28.4865 27.6779 27.8609 26.0135 25.9578C23.9594 23.6135 23.5301 19.4978 24.9303 15.7047Z" fill="#A3EFE0"/>
<path d="M35.428 20.5234L34.9854 22.3203L36.7877 22.7616L37.2303 20.9647L35.428 20.5234Z" fill="white"/>
<path d="M36.5019 15.2241L35.498 16.7847L33.9326 15.7838L34.9432 14.21L36.5019 15.2241Z" fill="white"/>
<path d="M28.5264 14.514L28.3174 16.3525L30.1615 16.5609L30.3704 14.7223L28.5264 14.514Z" fill="white"/>
<path d="M30.0228 20.2547L28.5024 21.3159L29.5668 22.8318L31.0872 21.7706L30.0228 20.2547Z" fill="white"/>
<path d="M37.4595 10.4103C35.8479 8.4809 36.2045 7.26924 36.4489 6.43951C36.482 6.32098 36.515 6.21562 36.5414 6.11684C36.581 5.94563 36.5348 5.76783 36.4159 5.64271C36.297 5.51759 36.1187 5.46491 35.947 5.50442L31.0858 6.56463C30.7622 4.06228 32.4134 1.67187 34.9298 1.11872C37.5982 0.532645 40.2401 2.22502 40.8213 4.87883C41.3101 7.09803 40.1873 9.75184 37.4595 10.4103Z" fill="white"/>
<path d="M38.292 9.41597C36.6804 7.48652 37.0371 6.27485 37.2814 5.44513C37.3145 5.3266 37.3475 5.22123 37.3739 5.12246C37.4135 4.95124 37.3673 4.77344 37.2484 4.64833C37.1295 4.52321 36.9512 4.47053 36.7795 4.51004L31.9183 5.57025C31.5947 3.06789 33.2459 0.677489 35.7623 0.124337C38.4307 -0.46174 41.0726 1.23064 41.6538 3.88445C42.1426 6.10364 41.0132 8.76404 38.292 9.41597Z" fill="#CCB8F4"/>
<path d="M33.9917 22.1386C33.8662 22.6457 34.1767 23.1528 34.6852 23.2779L36.6138 23.752C36.7525 23.7849 36.8978 23.7915 37.0365 23.7586C37.1356 23.7388 37.2347 23.6993 37.3271 23.6401C37.5451 23.5084 37.697 23.3042 37.7565 23.0606L38.232 21.1377C38.2915 20.8941 38.2518 20.6438 38.1197 20.4265C37.9876 20.2092 37.7829 20.0577 37.5385 19.9985L35.6099 19.5243C35.1079 19.3992 34.5928 19.7087 34.4673 20.2158L33.9917 22.1386ZM34.989 22.3164L35.4316 20.5187L37.2347 20.9599L36.7922 22.7576L34.989 22.3164Z" fill="#464860"/>
<path d="M36.3099 17.3839L37.3799 15.7113C37.6573 15.2767 37.5318 14.6906 37.0959 14.414L35.4183 13.3473C35.2069 13.209 34.956 13.1695 34.705 13.2221C34.4606 13.2748 34.2492 13.4197 34.1105 13.637L33.0406 15.3096C32.9019 15.5203 32.8622 15.7706 32.9151 16.0142C32.9679 16.2579 33.1132 16.4686 33.3312 16.6069L35.0088 17.6737C35.2202 17.812 35.4711 17.8515 35.7155 17.7988C35.9665 17.7395 36.1779 17.5947 36.3099 17.3839ZM36.5015 15.224L35.4976 16.7847L33.9322 15.7838L34.9428 14.2099L36.5015 15.224Z" fill="#464860"/>
<path d="M31.1649 16.7385L31.3894 14.7695C31.4158 14.5193 31.3432 14.2756 31.1913 14.0781C31.0328 13.8805 30.8082 13.7554 30.5572 13.7291L28.5824 13.5052C28.0672 13.4459 27.5983 13.8213 27.5388 14.3349L27.3143 16.3039C27.2878 16.5541 27.3539 16.7978 27.5124 16.9953C27.6709 17.1929 27.8955 17.318 28.1465 17.3443L30.1213 17.5682C30.227 17.5814 30.3327 17.5748 30.4317 17.555C30.5704 17.5221 30.7025 17.4628 30.8148 17.3707C31.0129 17.206 31.1318 16.9887 31.1649 16.7385ZM30.3789 14.7168L30.1675 16.5541L28.3248 16.3434L28.5361 14.5061L30.3789 14.7168Z" fill="#464860"/>
<path d="M27.6383 21.8356L28.7809 23.4621C29.0055 23.7848 29.3951 23.9231 29.7584 23.8441C29.8773 23.8177 29.9896 23.7716 30.0953 23.6992L31.7266 22.56C32.1494 22.2636 32.255 21.6775 31.9578 21.2495L30.8152 19.623C30.518 19.1949 29.9301 19.0962 29.5008 19.3925L27.8694 20.5317C27.4467 20.8281 27.341 21.4141 27.6383 21.8356ZM28.5035 21.3154L30.0226 20.2552L31.086 21.7697L29.5669 22.8299L28.5035 21.3154Z" fill="#464860"/>
<path d="M38.2256 5.95869L39.5201 5.67553C39.7909 5.61626 39.9627 5.34627 39.9032 5.07628C39.8438 4.80629 39.573 4.63508 39.3022 4.69434L38.0076 4.9775C37.7368 5.03677 37.5651 5.30676 37.6246 5.57675C37.684 5.84674 37.9548 6.01796 38.2256 5.95869Z" fill="#464860"/>
<path d="M36.0128 3.69998L35.7288 2.40929C35.6693 2.1393 35.3985 1.96809 35.1277 2.02735C34.857 2.08662 34.6852 2.35661 34.7447 2.6266L35.0287 3.91729C35.0881 4.18728 35.3589 4.35849 35.6297 4.29922C35.9005 4.23996 36.0722 3.97655 36.0128 3.69998Z" fill="#464860"/>
<path d="M37.4002 6.8345C37.2482 7.07157 37.3209 7.38107 37.5521 7.53253L38.6683 8.24372C38.7872 8.31616 38.9193 8.33591 39.0514 8.30957C39.1768 8.28323 39.2957 8.20421 39.3684 8.09226C39.5203 7.8552 39.4476 7.5457 39.2165 7.39424L38.1003 6.68305C37.8625 6.53159 37.5521 6.59744 37.4002 6.8345Z" fill="#464860"/>
<path d="M34.5798 5.03033C34.7317 4.79326 34.6591 4.48376 34.4279 4.3323L33.3117 3.62111C33.0739 3.46965 32.7635 3.54208 32.6116 3.77256C32.4597 4.00304 32.5323 4.31913 32.7635 4.47059L33.8797 5.18178C33.9986 5.25422 34.1307 5.27398 34.2628 5.24763C34.3883 5.22788 34.5072 5.14886 34.5798 5.03033Z" fill="#464860"/>
<path d="M38.3048 3.25883C38.4568 3.02176 38.3841 2.71226 38.1529 2.5608C37.9152 2.40935 37.6047 2.48178 37.4528 2.71226L36.7395 3.82515C36.5876 4.06221 36.6603 4.37172 36.8914 4.52317C37.0103 4.59561 37.1424 4.61537 37.2745 4.58903C37.4 4.56268 37.5189 4.48366 37.5915 4.37172L38.3048 3.25883Z" fill="#464860"/>
<path d="M24.5734 9.03401C25.2141 9.76496 26.185 10.8647 25.0358 13.9794C23.5101 18.1083 24.0186 22.6323 26.2973 25.24C27.572 26.6953 29.963 28.2231 34.1768 27.4987L36.8914 39.8393L33.7409 40.5307C33.4701 40.59 33.2984 40.86 33.3578 41.13C33.4173 41.4 33.6881 41.5712 33.9589 41.5119L41.2506 39.9183C41.5214 39.859 41.6931 39.589 41.6337 39.3191C41.5742 39.0491 41.3034 38.8779 41.0326 38.9371L37.8821 39.6286L35.1675 27.2946C39.5465 26.2344 41.1383 23.7781 41.6997 21.875C42.664 18.5956 41.2638 14.3482 38.2322 11.2466C41.1779 10.2523 42.38 7.2231 41.8186 4.66807C41.1119 1.46769 37.935 -0.56053 34.725 0.137494C31.6604 0.809178 29.6723 3.73298 30.1083 6.7819L24.6461 7.97381C24.4744 8.01332 24.3357 8.13185 24.2762 8.29648C24.2168 8.46111 24.2498 8.64549 24.3621 8.77719C24.4215 8.85621 24.4942 8.94182 24.5734 9.03401ZM25.6764 8.77061L35.3459 6.65678C35.1411 7.51285 35.0619 8.69817 36.1054 10.272C35.7025 10.5223 35.2006 10.7725 34.408 10.9437C33.2257 11.2005 32.5322 11.0556 31.7925 10.8976C30.9867 10.7264 30.1479 10.5486 28.7543 10.8515C27.7437 11.0754 27.1031 11.4047 26.5813 11.7537C26.6606 10.272 26.1586 9.38303 25.6764 8.77061ZM37.4594 10.4103C35.8478 8.48086 36.2045 7.2692 36.4489 6.43947C36.4819 6.32094 36.5149 6.21558 36.5414 6.1168C36.581 5.94558 36.5347 5.76779 36.4159 5.64267C36.297 5.51755 36.1186 5.46487 35.9469 5.50438L31.0858 6.56459C30.7621 4.06224 32.4133 1.67183 34.9298 1.11868C37.5981 0.532602 40.24 2.22498 40.8213 4.87879C41.31 7.09798 40.1872 9.75179 37.4594 10.4103ZM25.9803 14.3219C26.1322 13.907 26.2511 13.5185 26.3435 13.1563C26.3567 13.1497 26.3633 13.1497 26.3765 13.1431L26.6077 12.9719C27.2088 12.5241 27.7768 12.0961 28.9656 11.8393C30.1479 11.5825 30.8414 11.7273 31.5811 11.8854C32.3869 12.0566 33.2257 12.2344 34.626 11.9315C35.6101 11.7142 36.2375 11.3915 36.7197 11.082C36.9244 11.3256 37.149 11.5693 37.4066 11.8261C40.2731 14.6841 41.6138 18.6088 40.7354 21.5853C40.0221 24.0086 37.9152 25.6681 34.626 26.3858C31.3434 27.1036 28.7279 26.478 27.0634 24.5749C25.0093 22.2372 24.58 18.1149 25.9803 14.3219Z" fill="#464860"/>
<path d="M16.1195 12.5306C15.6043 12.1619 14.9835 11.8063 13.9795 11.5429C12.5925 11.1873 11.7537 11.3321 10.9413 11.4704C10.2016 11.6021 9.50146 11.7207 8.3258 11.4177C7.53983 11.2136 7.04447 10.9502 6.65479 10.6802C7.75779 9.14588 7.72476 7.95397 7.55304 7.0979L17.13 9.5805C16.6214 10.1732 16.0865 11.0424 16.1195 12.5306Z" fill="white"/>
<path d="M25.6768 8.77057L35.3462 6.65674C35.1415 7.51281 35.0622 8.69813 36.1058 10.272C35.7029 10.5222 35.2009 10.7724 34.4083 10.9437C33.2261 11.2005 32.5326 11.0556 31.7928 10.8976C30.987 10.7264 30.1482 10.5486 28.7546 10.8515C27.7441 11.0754 27.1034 11.4046 26.5816 11.7536C26.6609 10.272 26.1589 9.38298 25.6768 8.77057Z" fill="white"/>
</svg>
