<svg width="43" height="42" viewBox="0 0 43 42" fill="none" xmlns="http://www.w3.org/2000/svg"><path d="M15.142 25.319c-1.73 1.837-4.372 2.364-7.629 1.521-3.256-.843-5.303-2.581-5.918-5.03-.76-3.01.727-6.876 3.7-9.622.27-.25.501-.487.712-.718.463.33 1.084.672 2.055.929 1.387.356 2.225.21 3.038.072.74-.131 1.44-.25 2.615.053 1.176.303 1.73.75 2.312 1.225l.224.178c.007.006.02.006.034.013.079.369.178.757.317 1.179 1.261 3.845.673 7.941-1.46 10.2z" fill="#fff"/><path d="M16.14 26.741c-1.731 1.838-4.373 2.364-7.63 1.521-3.255-.849-5.303-2.587-5.917-5.03-.76-3.01.727-6.875 3.699-9.621.27-.25.502-.488.713-.718.462.33 1.083.671 2.054.928 1.387.356 2.226.211 3.038.073.74-.132 1.44-.25 2.616.052 1.176.303 1.73.751 2.312 1.225l.224.178c.007.007.02.007.033.013.08.369.178.757.317 1.179 1.262 3.84.674 7.942-1.46 10.2z" fill="#CCB8F4"/><path d="M6.924 20.951l-1.818.373.374 1.813 1.818-.373-.374-1.813zm.736-6.286l.95 1.613-1.605.935-.938-1.594 1.592-.954zm6.393.539l-1.85.137.137 1.846 1.851-.138-.138-1.845zm-1.714 5.69l-1.122 1.475 1.479 1.118 1.122-1.474-1.48-1.119zM2.137 5.116a4.954 4.954 0 016.03-3.536A4.938 4.938 0 0111.8 7.164L6.992 5.919a.488.488 0 00-.476.125.482.482 0 00-.145.461c.02.1.053.211.08.33.217.843.521 2.067-1.163 3.931-2.695-.757-3.719-3.457-3.15-5.65z" fill="#fff"/><path d="M1.344 4.089A4.954 4.954 0 017.374.552a4.938 4.938 0 013.633 5.585L6.2 4.892a.488.488 0 00-.476.125.494.494 0 00-.145.468c.02.098.053.21.08.329.217.843.521 2.068-1.163 3.931C1.8 8.988.776 6.288 1.345 4.09z" fill="#A3EFE0"/><path d="M7.903 20.683a.947.947 0 00-1.116-.73l-1.948.401a.952.952 0 00-.601.402.95.95 0 00-.14.704l.404 1.943a.966.966 0 00.403.6.91.91 0 00.284.124c.138.033.284.04.422.013l1.949-.401a.94.94 0 00.733-1.113l-.39-1.943zm-2.424 2.45l-.376-1.818 1.823-.375.376 1.817-1.823.376zm1.269-4.919a.929.929 0 00.713-.099l1.717-1a.933.933 0 00.337-1.285L8.51 14.118a.935.935 0 00-.575-.435.933.933 0 00-.713.1L5.506 14.79a.943.943 0 00-.337 1.29l1.01 1.713a.908.908 0 00.569.42zm.911-3.55l.951 1.614-1.605.942-.944-1.6 1.598-.955zm4.009 3.313a.866.866 0 00.376.197c.1.027.205.033.31.027l1.982-.145a.946.946 0 00.647-.323.928.928 0 00.225-.685l-.145-1.975a.949.949 0 00-1.01-.87l-1.982.145a.946.946 0 00-.648.323.928.928 0 00-.224.685l.145 1.975c.013.25.132.481.324.646zm2.384-2.773l.139 1.844-1.85.139-.138-1.844 1.85-.139zm.43 6.046l-1.585-1.2a.947.947 0 00-1.322.185l-1.202 1.58a.935.935 0 00.185 1.317l1.585 1.199a.954.954 0 001.321-.184l1.202-1.58a.94.94 0 00-.184-1.318zm-1.784 2.238l-1.48-1.12 1.124-1.474 1.48 1.12-1.124 1.474zM5.308 5.932a.5.5 0 00-.364-.612l-1.28-.33a.499.499 0 00-.615.356.498.498 0 00.363.613l1.281.329a.496.496 0 00.615-.356zm2.04-1.198a.5.5 0 00.615-.362l.33-1.278a.498.498 0 00-.363-.612.5.5 0 00-.615.362l-.33 1.278a.503.503 0 00.363.612zM4.793 7.019l-1.143.672a.502.502 0 00.132.922.49.49 0 00.383-.053l1.143-.672a.502.502 0 00.178-.691.507.507 0 00-.693-.178zm3.889-1.277c.126.032.265.02.383-.053l1.143-.672a.502.502 0 00.178-.691.501.501 0 00-.693-.178L8.55 4.82a.502.502 0 00.132.921zM5.387 4.734a.516.516 0 00.693.178.496.496 0 00.179-.685l-.668-1.14a.503.503 0 00-.693-.177.496.496 0 00-.178.685l.667 1.139z" fill="#464860"/><path d="M18.445 9.633a.509.509 0 00.099-.481.496.496 0 00-.357-.336l-5.41-1.403A5.948 5.948 0 008.419.598c-3.176-.823-6.44 1.086-7.265 4.254-.66 2.529.423 5.597 3.329 6.71-3.15 2.983-4.71 7.178-3.877 10.49.489 1.923 1.988 4.439 6.32 5.663l-3.17 12.222-3.124-.81a.5.5 0 00-.614.363.498.498 0 00.363.612l7.226 1.87a.5.5 0 00.614-.362.498.498 0 00-.363-.612l-3.124-.81 3.184-12.229c4.187.883 6.63-.546 7.965-1.956 2.378-2.515 3.058-7.02 1.69-11.201-1.03-3.154-.02-4.221.648-4.926.08-.079.159-.164.225-.243zM16.12 12.53c-.516-.369-1.136-.724-2.14-.988-1.387-.355-2.226-.21-3.039-.072-.74.132-1.44.25-2.615-.053-.786-.204-1.281-.467-1.671-.737 1.103-1.535 1.07-2.727.898-3.583L17.13 9.58c-.508.593-1.043 1.462-1.01 2.95zM2.137 5.115a4.954 4.954 0 016.03-3.536A4.938 4.938 0 0111.8 7.163L6.992 5.92a.488.488 0 00-.476.125.482.482 0 00-.145.46c.02.1.053.211.08.33.217.843.521 2.068-1.163 3.931-2.695-.757-3.719-3.457-3.15-5.65zm13.005 20.203c-1.73 1.838-4.372 2.364-7.628 1.522-3.257-.843-5.304-2.582-5.918-5.032-.76-3.009.726-6.874 3.698-9.62.271-.25.502-.488.714-.718.462.33 1.083.672 2.054.928 1.387.356 2.226.211 3.038.073.74-.132 1.44-.25 2.616.053 1.175.302 1.73.75 2.311 1.224l.225.178c.006.007.02.007.033.013.08.37.178.758.317 1.179 1.261 3.846.674 7.942-1.46 10.2z" fill="#464860"/><path d="M25.98 14.322c.152-.415.271-.803.364-1.166.013-.006.02-.006.033-.013l.231-.171c.601-.448 1.17-.876 2.358-1.133 1.182-.257 1.876-.112 2.615.046.806.172 1.645.35 3.045.046.984-.217 1.612-.54 2.094-.849.205.244.43.487.687.744 2.866 2.858 4.207 6.783 3.329 9.76-.713 2.423-2.82 4.082-6.11 4.8-3.282.718-5.898.092-7.562-1.811-2.054-2.338-2.484-6.46-1.083-10.253z" fill="#fff"/><path d="M24.93 15.705c.152-.415.271-.804.364-1.166.013-.006.02-.006.033-.013l.23-.171c.602-.448 1.17-.876 2.359-1.133 1.182-.257 1.875-.112 2.615.046.806.171 1.645.35 3.045.046.984-.217 1.612-.54 2.094-.85.204.245.43.488.687.745 2.866 2.858 4.207 6.783 3.328 9.76-.713 2.422-2.82 4.082-6.109 4.8-3.283.718-5.898.092-7.563-1.811-2.054-2.345-2.483-6.46-1.083-10.253z" fill="#A3EFE0"/><path d="M35.428 20.523l-.443 1.797 1.803.442.442-1.797-1.802-.442zm1.074-5.299l-1.004 1.56-1.565-1 1.01-1.574 1.559 1.014zm-7.976-.71l-.209 1.838 1.845.209.208-1.839-1.844-.208zm1.497 5.741l-1.52 1.06 1.064 1.517 1.52-1.061-1.064-1.516zm7.437-9.845c-1.612-1.93-1.255-3.14-1.011-3.97.033-.119.066-.224.092-.323a.517.517 0 00-.125-.474.493.493 0 00-.469-.139l-4.861 1.06A4.946 4.946 0 0140.82 4.88c.49 2.219-.634 4.873-3.361 5.531z" fill="#fff"/><path d="M38.292 9.416c-1.612-1.93-1.255-3.141-1.01-3.97.033-.12.066-.225.092-.324a.517.517 0 00-.126-.474.493.493 0 00-.468-.138l-4.862 1.06a4.946 4.946 0 019.736-1.686c.489 2.22-.64 4.88-3.362 5.532z" fill="#CCB8F4"/><path d="M33.992 22.139a.94.94 0 00.693 1.139l1.929.474a.918.918 0 00.713-.112.93.93 0 00.43-.58l.475-1.922a.93.93 0 00-.112-.712.932.932 0 00-.581-.427l-1.93-.475a.946.946 0 00-1.142.692l-.475 1.923zm.997.177l.443-1.797 1.803.44-.443 1.799-1.803-.442zm1.321-4.932l1.07-1.673a.942.942 0 00-.284-1.297l-1.678-1.067a.934.934 0 00-.713-.125.933.933 0 00-.594.415l-1.07 1.673a.915.915 0 00-.126.704.93.93 0 00.416.593l1.678 1.067a.947.947 0 001.301-.29zm.191-2.16l-1.003 1.56-1.566-1 1.01-1.574 1.56 1.014zm-5.336 1.514l.224-1.968a.962.962 0 00-.198-.692.934.934 0 00-.634-.349l-1.975-.224a.947.947 0 00-1.043.83l-.225 1.969c-.026.25.04.494.198.691a.934.934 0 00.634.35l1.975.223a.974.974 0 00.31-.013.942.942 0 00.384-.184.972.972 0 00.35-.633zm-.786-2.021l-.212 1.837-1.842-.21.211-1.838 1.843.21zm-2.741 7.119l1.143 1.626a.944.944 0 001.314.237l1.632-1.139a.944.944 0 00.23-1.31l-1.142-1.627a.944.944 0 00-1.314-.23l-1.632 1.139a.937.937 0 00-.23 1.304zm.865-.52l1.52-1.06 1.063 1.514-1.52 1.06-1.063-1.515zm9.723-15.357l1.294-.283c.27-.06.443-.33.383-.6a.505.505 0 00-.6-.382l-1.295.284a.504.504 0 00-.383.599c.059.27.33.441.6.382zM36.013 3.7l-.284-1.29a.504.504 0 00-.984.217l.284 1.29c.06.27.33.441.6.382a.5.5 0 00.384-.599zM37.4 6.835a.507.507 0 00.152.698l1.116.71a.524.524 0 00.383.067.51.51 0 00.317-.218.507.507 0 00-.151-.698L38.1 6.683a.504.504 0 00-.7.152zM34.58 5.03a.507.507 0 00-.152-.698l-1.116-.71a.51.51 0 00-.7.15.508.508 0 00.151.699l1.117.71a.524.524 0 00.383.067.463.463 0 00.317-.218zm3.725-1.771a.507.507 0 00-.152-.698.51.51 0 00-.7.151l-.714 1.113a.507.507 0 00.152.698.524.524 0 00.384.066.509.509 0 00.317-.217l.713-1.113z" fill="#464860"/><path d="M24.573 9.034c.641.731 1.612 1.83.463 4.945-1.526 4.13-1.017 8.653 1.261 11.261 1.275 1.455 3.666 2.983 7.88 2.259l2.714 12.34-3.15.692a.504.504 0 00-.383.599c.06.27.33.441.6.382l7.293-1.594a.504.504 0 00.383-.599.506.506 0 00-.601-.382l-3.15.692-2.716-12.334c4.38-1.06 5.971-3.517 6.533-5.42.964-3.28-.436-7.527-3.468-10.628 2.946-.995 4.148-4.024 3.587-6.579-.707-3.2-3.884-5.229-7.094-4.53a5.95 5.95 0 00-4.617 6.644l-5.462 1.192a.51.51 0 00-.37.322.487.487 0 00.086.481c.06.08.132.165.211.257zm1.103-.263l9.67-2.114c-.205.856-.284 2.041.76 3.615-.404.25-.905.5-1.698.672-1.182.256-1.876.112-2.616-.046-.805-.172-1.644-.35-3.038-.046-1.01.223-1.65.553-2.173.902.08-1.482-.422-2.371-.905-2.983zm11.783 1.64c-1.611-1.93-1.255-3.142-1.01-3.972.033-.118.066-.223.092-.322a.517.517 0 00-.125-.474.493.493 0 00-.47-.139l-4.86 1.06A4.946 4.946 0 0140.82 4.88c.489 2.219-.634 4.873-3.362 5.531zM25.98 14.32c.152-.414.271-.803.363-1.165.014-.006.02-.006.034-.013l.23-.171c.602-.448 1.17-.876 2.359-1.133 1.182-.257 1.875-.112 2.615.046.806.172 1.645.35 3.045.046.984-.217 1.611-.54 2.094-.849.204.244.429.487.687.744 2.866 2.858 4.207 6.783 3.328 9.76-.713 2.423-2.82 4.082-6.109 4.8-3.283.718-5.898.092-7.563-1.811-2.054-2.338-2.483-6.46-1.083-10.253z" fill="#464860"/><path d="M16.12 12.53c-.516-.368-1.137-.724-2.14-.987-1.388-.356-2.226-.21-3.039-.073-.74.132-1.44.25-2.615-.052-.786-.204-1.282-.468-1.671-.738 1.103-1.534 1.07-2.726.898-3.582L17.13 9.58c-.509.592-1.043 1.461-1.01 2.95zm9.557-3.76l9.67-2.113c-.206.856-.285 2.041.759 3.615-.403.25-.905.5-1.698.672-1.182.256-1.875.112-2.615-.046-.806-.172-1.645-.35-3.038-.046-1.01.223-1.652.553-2.173.902.079-1.482-.423-2.371-.905-2.983z" fill="#fff"/></svg>