<svg width="78" height="78" viewBox="0 0 78 78" fill="none" xmlns="http://www.w3.org/2000/svg">
<rect width="78" height="78" fill="white"/>
<path d="M46.8073 53.8459C47.6409 53.8459 48.1594 53.856 48.3932 54.0476L48.4237 54.0677L48.4338 54.0778L48.444 54.098L48.4643 54.1282C48.5762 54.3097 48.6168 54.5215 48.5965 54.7332V58.3932V58.5949V58.6957H48.4948H48.2915H29.7083H29.505H29.4033V58.5949V58.3932V54.703C29.383 54.5215 29.4338 54.3097 29.5355 54.1282L29.5762 54.0677L29.5965 54.0375L29.627 54.0274L29.6982 54.0072C30.0438 53.8863 30.4098 53.8157 30.7859 53.8157C30.9384 53.8157 31.0807 53.8258 31.2332 53.8459H36.1433H41.8667H46.8073Z" fill="white"/>
<path d="M36.5503 53.0291V52.9282V52.7266V48.391V48.1793V48.0684L36.6621 48.0784L36.8756 48.0885L37.0078 48.0986C37.1907 48.1087 37.3839 48.1289 37.5669 48.1289H40.4235C40.6065 48.1289 40.7996 48.1188 40.9826 48.0986L41.1249 48.0885L41.3384 48.0784L41.4502 48.0684V48.1793V48.391V52.7266V52.9282V53.0291H41.3486H41.1453H36.8553H36.652H36.5503Z" fill="white"/>
<path d="M50.0297 19.9177V20.1194V21.047V37.8045C50.0297 42.493 46.5022 46.5462 41.8157 47.2117H36.2347H36.2245H36.2042H36.194C31.5075 46.5361 27.98 42.493 27.98 37.8045V21.047V20.1194V19.9177V19.8169H28.0816H28.285H49.7349H49.9382H50.0399V19.9177H50.0297Z" fill="white"/>
<path d="M43.6765 29.8995L43.3817 30.1919L41.562 31.9564C41.4603 32.0471 41.4197 32.1883 41.44 32.3193L41.8873 34.7997L41.9584 35.203L41.9991 35.4047L41.8161 35.3038L41.4501 35.1123L39.1933 33.9326C39.1425 33.9023 39.0612 33.8922 39.0002 33.8922C38.9392 33.8922 38.868 33.9124 38.807 33.9427L36.5604 35.1223L36.1944 35.3139L36.0114 35.4047L36.0419 35.203L36.1131 34.7997L36.5502 32.3093C36.5705 32.1782 36.5299 32.0471 36.4282 31.9564L34.6085 30.1919L34.3137 29.9096L34.1714 29.7684L34.3747 29.7382L34.7813 29.6777L37.3025 29.3147C37.4346 29.2945 37.5465 29.2139 37.6074 29.0929L38.7359 26.8343L38.9087 26.4613L39.0002 26.2798L39.0917 26.4613L39.2747 26.8243L40.3929 29.0828C40.4539 29.2038 40.5657 29.2844 40.6979 29.3046L43.2088 29.6676L43.6155 29.7281L43.8188 29.7583L43.6765 29.8995Z" fill="white"/>
<path d="M47.3155 54.6628C48.1491 54.6628 48.6676 54.6729 48.9014 54.8645L48.9319 54.8846L48.942 54.8947L48.9522 54.9149L48.9725 54.9451C49.0844 55.1266 49.125 55.3384 49.1047 55.5501V59.2101V59.4118V59.5126H49.003H48.7997H30.2064H30.003H29.9014V59.4118V59.2101V55.5198C29.8811 55.3384 29.9319 55.1266 30.0335 54.9451L30.0742 54.8846L30.0945 54.8544L30.125 54.8443L30.1962 54.8241C30.5418 54.7031 30.9078 54.6326 31.2839 54.6326C31.4364 54.6326 31.5788 54.6426 31.7312 54.6628H36.6414H42.3647H47.3155Z" fill="#CCB8F4"/>
<path d="M37.0581 53.846V53.7451V53.5435V49.2079V48.9962V48.8853L37.1699 48.8953L37.3834 48.9054L37.5156 48.9155C37.6986 48.9256 37.8917 48.9458 38.0747 48.9458H40.9313C41.1143 48.9458 41.3074 48.9357 41.4904 48.9155L41.6327 48.9054L41.8462 48.8953L41.9581 48.8853V48.9962V49.2079V53.5435V53.7451V53.846H41.8564H41.6531H37.3631H37.1598H37.0581Z" fill="#A3EFE0"/>
<path d="M50.5283 20.7241V20.9258V21.8534V38.6109C50.5283 43.2993 47.0007 47.3526 42.3143 48.0181H36.7332H36.723H36.7027H36.6925C32.0061 47.3425 28.4785 43.2993 28.4785 38.6109V21.8534V20.9258V20.7241V20.6233H28.5802H28.7835H50.2335H50.4368H50.5384V20.7241H50.5283Z" fill="#CCB8F4"/>
<path d="M43.6765 29.8995L43.3817 30.1919L41.562 31.9564C41.4603 32.0471 41.4197 32.1883 41.44 32.3193L41.8873 34.7997L41.9584 35.203L41.9991 35.4047L41.8161 35.3038L41.4501 35.1123L39.1933 33.9326C39.1425 33.9023 39.0612 33.8922 39.0002 33.8922C38.9392 33.8922 38.868 33.9124 38.807 33.9427L36.5604 35.1223L36.1944 35.3139L36.0114 35.4047L36.0419 35.203L36.1131 34.7997L36.5502 32.3093C36.5705 32.1782 36.5299 32.0471 36.4282 31.9564L34.6085 30.1919L34.3137 29.9096L34.1714 29.7684L34.3747 29.7382L34.7813 29.6777L37.3025 29.3147C37.4346 29.2945 37.5465 29.2139 37.6074 29.0929L38.7359 26.8343L38.9087 26.4613L39.0002 26.2798L39.0917 26.4613L39.2747 26.8243L40.3929 29.0828C40.4539 29.2038 40.5657 29.2844 40.6979 29.3046L43.2088 29.6676L43.6155 29.7281L43.8188 29.7583L43.6765 29.8995Z" fill="white"/>
<path d="M44.1945 30.4708L43.8997 30.7632L42.08 32.5277C41.9784 32.6184 41.9377 32.7596 41.958 32.8906L42.4053 35.371L42.4765 35.7743L42.5172 35.9759L42.3342 35.8751L41.9682 35.6835L39.7114 34.5039C39.6606 34.4736 39.5792 34.4635 39.5182 34.4635C39.4572 34.4635 39.3861 34.4837 39.3251 34.5139L37.0784 35.6936L36.7125 35.8852L36.5295 35.9759L36.56 35.7743L36.6311 35.371L37.0683 32.8805C37.0886 32.7495 37.0479 32.6184 36.9463 32.5277L35.1266 30.7632L34.8318 30.4809L34.6895 30.3397L34.8928 30.3094L35.2994 30.249L37.8205 29.886C37.9527 29.8658 38.0645 29.7851 38.1255 29.6642L39.2539 27.4056L39.4267 27.0326L39.5182 26.8511L39.6097 27.0326L39.7927 27.3955L40.911 29.6541C40.972 29.7751 41.0838 29.8557 41.2159 29.8759L43.7269 30.2389L44.1335 30.2994L44.3369 30.3296L44.1945 30.4708Z" fill="#A3EFE0"/>
<path d="M57.5832 20.6334H51.1482H50.9449H50.8432V20.5326V20.3309V19.4033C50.8432 19.1815 50.6602 19 50.4366 19H27.5634C27.3398 19 27.1568 19.1815 27.1568 19.4033V20.3309V20.5326V20.6334H27.0551H26.8518H20.4066C20.183 20.6334 20 20.825 20 21.0468V32.168C20 36.1104 23.1108 39.3974 27.0856 39.6393L27.2381 39.6494H27.3194L27.3398 39.72L27.3703 39.8713C28.2039 43.9346 31.3959 47.0905 35.4928 47.9173L35.6554 47.9475L35.7368 47.9677V48.0483V48.2097V52.7166V52.9183V53.0191H35.6351H35.4318H31.2129C30.3387 53.0191 29.5152 53.0191 29.0171 53.493C28.7223 53.8056 28.5698 54.2391 28.5902 54.6828V59.099C28.5902 59.3208 28.7731 59.5023 28.9968 59.5023H49.0134C49.237 59.5023 49.42 59.3208 49.42 59.099V54.6929C49.4403 54.2391 49.2777 53.8056 48.9829 53.4829C48.4949 53.0292 47.6715 53.0292 46.7972 53.0292H42.5682H42.3649H42.2632V52.9284V52.7267V48.2198V48.0584V47.9778L42.3446 47.9576L42.5072 47.9274C46.6041 47.1006 49.7961 43.9447 50.6297 39.8813L50.6602 39.7301L50.6806 39.6595H50.7619L50.9144 39.6494C54.8892 39.4074 58 36.1205 58 32.1781V21.0468C57.9898 20.825 57.8069 20.6334 57.5832 20.6334ZM27.1466 21.5509V21.7526V37.7942V38.5V38.7218V38.8327L27.0348 38.8226L26.8111 38.8126C23.3954 38.4294 20.8234 35.576 20.8234 32.1781V21.7526V21.5509V21.4501H20.9251H21.1284H26.8518H27.0551H27.1568V21.5509H27.1466ZM46.8074 53.8459C47.641 53.8459 48.1594 53.856 48.3933 54.0476L48.4238 54.0677L48.4339 54.0778L48.4441 54.098L48.4644 54.1282C48.5762 54.3097 48.6169 54.5215 48.5966 54.7332V58.3932V58.5949V58.6957H48.4949H48.2916H29.7084H29.5051H29.4034V58.5949V58.3932V54.7029C29.3831 54.5215 29.4339 54.3097 29.5356 54.1282L29.5762 54.0677L29.5966 54.0375L29.6271 54.0274L29.6982 54.0072C30.0439 53.8862 30.4098 53.8157 30.786 53.8157C30.9385 53.8157 31.0808 53.8258 31.2333 53.8459H36.1434H41.8668H46.8074ZM36.55 53.0292V52.9284V52.7267V48.3912V48.1794V48.0685L36.6618 48.0786L36.8753 48.0887L37.0075 48.0988C37.1905 48.1088 37.3836 48.129 37.5666 48.129H40.4232C40.6062 48.129 40.7994 48.1189 40.9823 48.0988L41.1247 48.0887L41.3381 48.0786L41.45 48.0685V48.1794V48.3912V52.7267V52.9284V53.0292H41.3483H41.145H36.855H36.6517H36.55ZM50.03 19.9175V20.1192V21.0468V37.8043C50.03 42.4928 46.5024 46.546 41.8159 47.2115H36.2349H36.2247H36.2044H36.1942C31.5078 46.5359 27.9802 42.4928 27.9802 37.8043V21.0468V20.1192V19.9175V19.8167H28.0819H28.2852H49.7352H49.9385H50.0401V19.9175H50.03ZM57.1766 21.5509V21.7526V32.168C57.1766 35.576 54.6046 38.4294 51.1889 38.8025L50.9652 38.8226L50.8534 38.8327V38.7218V38.5V37.7942V21.7526V21.5509V21.4501H50.9551H51.1584H56.8818H57.0851H57.1867V21.5509H57.1766Z" fill="#464860"/>
<path d="M45.0993 29.3851C45.0485 29.2338 44.9265 29.133 44.7638 29.1028L41.1854 28.5885L41.0838 28.5684L41.0431 28.5785L41.0228 28.5281L40.972 28.4373L39.3657 25.2209C39.3251 25.1403 39.2539 25.0697 39.1726 25.0293C39.1116 24.9991 39.0608 24.989 38.9896 24.989C38.827 24.989 38.6846 25.0798 38.6236 25.2209L37.0174 28.4171L36.9768 28.5079L36.9564 28.5583L36.9056 28.5684L36.804 28.5785L33.2256 29.0826C33.0731 29.1028 32.9409 29.2137 32.8901 29.3649C32.8494 29.5061 32.8901 29.6674 32.9918 29.7682L35.584 32.2486L35.6654 32.3192L35.706 32.3595L35.6959 32.4099L35.6755 32.5107L35.0656 36.0598C35.0351 36.2212 35.0961 36.3825 35.2282 36.4732C35.2994 36.5237 35.3807 36.5539 35.4621 36.5539C35.5332 36.5539 35.5942 36.5337 35.6552 36.5035L38.8575 34.8398L38.9489 34.7894L38.9998 34.7693L39.0506 34.7894L39.1421 34.8398L42.3443 36.5035C42.4053 36.5337 42.4663 36.5539 42.5375 36.5539H42.6087C42.6798 36.5539 42.7408 36.5337 42.8018 36.5035C42.9136 36.4228 42.9746 36.2615 42.9441 36.1103L42.324 32.5611L42.3037 32.4603L42.2935 32.4099L42.3342 32.3696L42.4155 32.299L45.0078 29.7985C45.1095 29.6876 45.1501 29.5262 45.0993 29.3851ZM43.6761 29.8993L43.3813 30.1917L41.5616 31.9562C41.4599 32.0469 41.4193 32.1881 41.4396 32.3192L41.8869 34.7995L41.958 35.2028L41.9987 35.4045L41.8157 35.3036L41.4497 35.1121L39.1929 33.9324C39.1421 33.9021 39.0608 33.8921 38.9998 33.8921C38.9388 33.8921 38.8676 33.9122 38.8066 33.9425L36.56 35.1222L36.194 35.3137L36.011 35.4045L36.0415 35.2028L36.1127 34.7995L36.5498 32.3091C36.5701 32.178 36.5295 32.0469 36.4278 31.9562L34.6081 30.1917L34.3133 29.9094L34.171 29.7682L34.3743 29.738L34.7809 29.6775L37.3021 29.3145C37.4342 29.2943 37.5461 29.2137 37.6071 29.0927L38.7355 26.8342L38.9083 26.4611L38.9998 26.2796L39.0913 26.4611L39.2743 26.8241L40.3925 29.0826C40.4535 29.2036 40.5653 29.2843 40.6975 29.3044L43.2084 29.6674L43.6151 29.7279L43.8184 29.7581L43.6761 29.8993Z" fill="#464860"/>
</svg>
