<svg width="38" height="41" viewBox="0 0 38 41" fill="none" xmlns="http://www.w3.org/2000/svg">
<path d="M26.8073 34.8459C27.6409 34.8459 28.1594 34.856 28.3932 35.0476L28.4237 35.0677L28.4338 35.0778L28.444 35.098L28.4643 35.1282C28.5762 35.3097 28.6168 35.5215 28.5965 35.7332V39.3932V39.5949V39.6957H28.4948H28.2915H9.70832H9.505H9.40334V39.5949V39.3932V35.703C9.38301 35.5215 9.43384 35.3097 9.5355 35.1282L9.57616 35.0677L9.59649 35.0375L9.62699 35.0274L9.69815 35.0072C10.0438 34.8863 10.4098 34.8157 10.7859 34.8157C10.9384 34.8157 11.0807 34.8258 11.2332 34.8459H16.1433H21.8667H26.8073Z" fill="white"/>
<path d="M16.5503 34.0291V33.9282V33.7266V29.391V29.1793V29.0684L16.6621 29.0784L16.8756 29.0885L17.0078 29.0986C17.1907 29.1087 17.3839 29.1289 17.5669 29.1289H20.4235C20.6065 29.1289 20.7996 29.1188 20.9826 29.0986L21.1249 29.0885L21.3384 29.0784L21.4502 29.0684V29.1793V29.391V33.7266V33.9282V34.0291H21.3486H21.1453H16.8553H16.652H16.5503Z" fill="white"/>
<path d="M30.0297 0.917722V1.11938V2.04699V18.8045C30.0297 23.493 26.5022 27.5462 21.8157 28.2117H16.2347H16.2245H16.2042H16.194C11.5075 27.5361 7.97998 23.493 7.97998 18.8045V2.04699V1.11938V0.917722V0.816895H8.08164H8.28496H29.7349H29.9382H30.0399V0.917722H30.0297Z" fill="white"/>
<path d="M23.6765 10.8995L23.3817 11.1919L21.562 12.9564C21.4603 13.0471 21.4197 13.1883 21.44 13.3193L21.8873 15.7997L21.9584 16.203L21.9991 16.4047L21.8161 16.3038L21.4501 16.1123L19.1933 14.9326C19.1425 14.9023 19.0612 14.8922 19.0002 14.8922C18.9392 14.8922 18.868 14.9124 18.807 14.9427L16.5604 16.1223L16.1944 16.3139L16.0114 16.4047L16.0419 16.203L16.1131 15.7997L16.5502 13.3093C16.5705 13.1782 16.5299 13.0471 16.4282 12.9564L14.6085 11.1919L14.3137 10.9096L14.1714 10.7684L14.3747 10.7382L14.7813 10.6777L17.3025 10.3147C17.4346 10.2945 17.5465 10.2139 17.6074 10.0929L18.7359 7.83434L18.9087 7.46127L19.0002 7.27979L19.0917 7.46127L19.2747 7.82425L20.3929 10.0828C20.4539 10.2038 20.5657 10.2844 20.6979 10.3046L23.2088 10.6676L23.6155 10.7281L23.8188 10.7583L23.6765 10.8995Z" fill="white"/>
<path d="M27.3155 35.6628C28.1491 35.6628 28.6676 35.6729 28.9014 35.8645L28.9319 35.8846L28.942 35.8947L28.9522 35.9149L28.9725 35.9451C29.0844 36.1266 29.125 36.3384 29.1047 36.5501V40.2101V40.4118V40.5126H29.003H28.7997H10.2064H10.003H9.90139V40.4118V40.2101V36.5198C9.88106 36.3384 9.93189 36.1266 10.0335 35.9451L10.0742 35.8846L10.0945 35.8544L10.125 35.8443L10.1962 35.8241C10.5418 35.7031 10.9078 35.6326 11.2839 35.6326C11.4364 35.6326 11.5788 35.6426 11.7312 35.6628H16.6414H22.3647H27.3155Z" fill="#CCB8F4"/>
<path d="M17.0581 34.846V34.7451V34.5435V30.2079V29.9962V29.8853L17.1699 29.8953L17.3834 29.9054L17.5156 29.9155C17.6986 29.9256 17.8917 29.9458 18.0747 29.9458H20.9313C21.1143 29.9458 21.3074 29.9357 21.4904 29.9155L21.6327 29.9054L21.8462 29.8953L21.9581 29.8853V29.9962V30.2079V34.5435V34.7451V34.846H21.8564H21.6531H17.3631H17.1598H17.0581Z" fill="#A3EFE0"/>
<path d="M30.5283 1.72412V1.92577V2.85338V19.6109C30.5283 24.2993 27.0007 28.3526 22.3143 29.0181H16.7332H16.723H16.7027H16.6925C12.0061 28.3425 8.47852 24.2993 8.47852 19.6109V2.85338V1.92577V1.72412V1.62329H8.58017H8.78349H30.2335H30.4368H30.5384V1.72412H30.5283Z" fill="#CCB8F4"/>
<path d="M23.6765 10.8995L23.3817 11.1919L21.562 12.9564C21.4603 13.0471 21.4197 13.1883 21.44 13.3193L21.8873 15.7997L21.9584 16.203L21.9991 16.4047L21.8161 16.3038L21.4501 16.1123L19.1933 14.9326C19.1425 14.9023 19.0612 14.8922 19.0002 14.8922C18.9392 14.8922 18.868 14.9124 18.807 14.9427L16.5604 16.1223L16.1944 16.3139L16.0114 16.4047L16.0419 16.203L16.1131 15.7997L16.5502 13.3093C16.5705 13.1782 16.5299 13.0471 16.4282 12.9564L14.6085 11.1919L14.3137 10.9096L14.1714 10.7684L14.3747 10.7382L14.7813 10.6777L17.3025 10.3147C17.4346 10.2945 17.5465 10.2139 17.6074 10.0929L18.7359 7.83434L18.9087 7.46127L19.0002 7.27979L19.0917 7.46127L19.2747 7.82425L20.3929 10.0828C20.4539 10.2038 20.5657 10.2844 20.6979 10.3046L23.2088 10.6676L23.6155 10.7281L23.8188 10.7583L23.6765 10.8995Z" fill="white"/>
<path d="M24.1945 11.4708L23.8997 11.7632L22.08 13.5277C21.9784 13.6184 21.9377 13.7596 21.958 13.8906L22.4053 16.371L22.4765 16.7743L22.5172 16.9759L22.3342 16.8751L21.9682 16.6835L19.7114 15.5039C19.6606 15.4736 19.5792 15.4635 19.5182 15.4635C19.4572 15.4635 19.3861 15.4837 19.3251 15.5139L17.0784 16.6936L16.7125 16.8852L16.5295 16.9759L16.56 16.7743L16.6311 16.371L17.0683 13.8805C17.0886 13.7495 17.0479 13.6184 16.9463 13.5277L15.1266 11.7632L14.8318 11.4809L14.6895 11.3397L14.8928 11.3094L15.2994 11.249L17.8205 10.886C17.9527 10.8658 18.0645 10.7851 18.1255 10.6642L19.2539 8.40562L19.4267 8.03256L19.5182 7.85107L19.6097 8.03256L19.7927 8.39554L20.911 10.6541C20.972 10.7751 21.0838 10.8557 21.2159 10.8759L23.7269 11.2389L24.1335 11.2994L24.3369 11.3296L24.1945 11.4708Z" fill="#A3EFE0"/>
<path d="M37.5832 1.6334H31.1482H30.9449H30.8432V1.53257V1.33092V0.403309C30.8432 0.181489 30.6602 0 30.4366 0H7.5634C7.33975 0 7.15677 0.181489 7.15677 0.403309V1.33092V1.53257V1.6334H7.05511H6.85179H0.406635C0.182986 1.6334 0 1.82497 0 2.04679V13.168C0 17.1104 3.11075 20.3974 7.08561 20.6393L7.2381 20.6494H7.31942L7.33975 20.72L7.37025 20.8713C8.20385 24.9346 11.3959 28.0905 15.4928 28.9173L15.6554 28.9475L15.7368 28.9677V29.0483V29.2097V33.7166V33.9183V34.0191H15.6351H15.4318H11.2129C10.3387 34.0191 9.51525 34.0191 9.01712 34.493C8.72231 34.8056 8.56982 35.2391 8.59015 35.6828V40.099C8.59015 40.3208 8.77314 40.5023 8.99679 40.5023H29.0134C29.237 40.5023 29.42 40.3208 29.42 40.099V35.6929C29.4403 35.2391 29.2777 34.8056 28.9829 34.4829C28.4949 34.0292 27.6715 34.0292 26.7972 34.0292H22.5682H22.3649H22.2632V33.9284V33.7267V29.2198V29.0584V28.9778L22.3446 28.9576L22.5072 28.9274C26.6041 28.1006 29.7961 24.9447 30.6297 20.8813L30.6602 20.7301L30.6806 20.6595H30.7619L30.9144 20.6494C34.8892 20.4074 38 17.1205 38 13.1781V2.04679C37.9898 1.82497 37.8069 1.6334 37.5832 1.6334ZM7.1466 2.55093V2.75259V18.7942V19.5V19.7218V19.8327L7.03478 19.8226L6.81113 19.8126C3.3954 19.4294 0.823435 16.576 0.823435 13.1781V2.75259V2.55093V2.4501H0.925094H1.12841H6.85179H7.05511H7.15677V2.55093H7.1466ZM26.8074 34.8459C27.641 34.8459 28.1594 34.856 28.3933 35.0476L28.4238 35.0677L28.4339 35.0778L28.4441 35.098L28.4644 35.1282C28.5762 35.3097 28.6169 35.5215 28.5966 35.7332V39.3932V39.5949V39.6957H28.4949H28.2916H9.7084H9.50508H9.40342V39.5949V39.3932V35.7029C9.38309 35.5215 9.43392 35.3097 9.53558 35.1282L9.57624 35.0677L9.59658 35.0375L9.62707 35.0274L9.69823 35.0072C10.0439 34.8862 10.4098 34.8157 10.786 34.8157C10.9385 34.8157 11.0808 34.8258 11.2333 34.8459H16.1434H21.8668H26.8074ZM16.55 34.0292V33.9284V33.7267V29.3912V29.1794V29.0685L16.6618 29.0786L16.8753 29.0887L17.0075 29.0988C17.1905 29.1088 17.3836 29.129 17.5666 29.129H20.4232C20.6062 29.129 20.7994 29.1189 20.9823 29.0988L21.1247 29.0887L21.3381 29.0786L21.45 29.0685V29.1794V29.3912V33.7267V33.9284V34.0292H21.3483H21.145H16.855H16.6517H16.55ZM30.03 0.917528V1.11918V2.04679V18.8043C30.03 23.4928 26.5024 27.546 21.8159 28.2115H16.2349H16.2247H16.2044H16.1942C11.5078 27.5359 7.9802 23.4928 7.9802 18.8043V2.04679V1.11918V0.917528V0.816701H8.08186H8.28518H29.7352H29.9385H30.0401V0.917528H30.03ZM37.1766 2.55093V2.75259V13.168C37.1766 16.576 34.6046 19.4294 31.1889 19.8025L30.9652 19.8226L30.8534 19.8327V19.7218V19.5V18.7942V2.75259V2.55093V2.4501H30.9551H31.1584H36.8818H37.0851H37.1867V2.55093H37.1766Z" fill="#464860"/>
<path d="M25.0993 10.3851C25.0485 10.2338 24.9265 10.133 24.7638 10.1028L21.1854 9.58855L21.0838 9.56838L21.0431 9.57846L21.0228 9.52805L20.972 9.43731L19.3657 6.22092C19.3251 6.14025 19.2539 6.06968 19.1726 6.02934C19.1116 5.9991 19.0608 5.98901 18.9896 5.98901C18.827 5.98901 18.6846 6.07976 18.6236 6.22092L17.0174 9.41714L16.9768 9.50789L16.9564 9.5583L16.9056 9.56838L16.804 9.57846L13.2256 10.0826C13.0731 10.1028 12.9409 10.2137 12.8901 10.3649C12.8494 10.5061 12.8901 10.6674 12.9918 10.7682L15.584 13.2486L15.6654 13.3192L15.706 13.3595L15.6959 13.4099L15.6755 13.5107L15.0656 17.0598C15.0351 17.2212 15.0961 17.3825 15.2282 17.4732C15.2994 17.5237 15.3807 17.5539 15.4621 17.5539C15.5332 17.5539 15.5942 17.5337 15.6552 17.5035L18.8575 15.8398L18.9489 15.7894L18.9998 15.7693L19.0506 15.7894L19.1421 15.8398L22.3443 17.5035C22.4053 17.5337 22.4663 17.5539 22.5375 17.5539H22.6087C22.6798 17.5539 22.7408 17.5337 22.8018 17.5035C22.9136 17.4228 22.9746 17.2615 22.9441 17.1103L22.324 13.5611L22.3037 13.4603L22.2935 13.4099L22.3342 13.3696L22.4155 13.299L25.0078 10.7985C25.1095 10.6876 25.1501 10.5262 25.0993 10.3851ZM23.6761 10.8993L23.3813 11.1917L21.5616 12.9562C21.4599 13.0469 21.4193 13.1881 21.4396 13.3192L21.8869 15.7995L21.958 16.2028L21.9987 16.4045L21.8157 16.3036L21.4497 16.1121L19.1929 14.9324C19.1421 14.9021 19.0608 14.8921 18.9998 14.8921C18.9388 14.8921 18.8676 14.9122 18.8066 14.9425L16.56 16.1222L16.194 16.3137L16.011 16.4045L16.0415 16.2028L16.1127 15.7995L16.5498 13.3091C16.5701 13.178 16.5295 13.0469 16.4278 12.9562L14.6081 11.1917L14.3133 10.9094L14.171 10.7682L14.3743 10.738L14.7809 10.6775L17.3021 10.3145C17.4342 10.2943 17.5461 10.2137 17.6071 10.0927L18.7355 7.83415L18.9083 7.46109L18.9998 7.2796L19.0913 7.46109L19.2743 7.82407L20.3925 10.0826C20.4535 10.2036 20.5653 10.2843 20.6975 10.3044L23.2084 10.6674L23.6151 10.7279L23.8184 10.7581L23.6761 10.8993Z" fill="#464860"/>
</svg>
