<svg width="33" height="38" viewBox="0 0 33 38" fill="none" xmlns="http://www.w3.org/2000/svg">
<path d="M20.23 36.1901L20.12 36.3901H19.97H19.89H19.74H12.95H12.8H12.7H12.55L12.44 36.1901C11.06 33.7401 9.84998 31.4301 8.82998 29.3301C8.81998 29.3101 8.80998 29.2801 8.78998 29.2601L8.75998 29.2301L8.73998 29.1901C6.42998 24.3801 5.17998 20.7401 4.99998 18.3401L4.98998 18.2301L4.97998 18.1101V18.0401C4.97998 17.9801 4.97998 17.9101 4.97998 17.8501C4.97998 17.7201 4.97998 17.5901 4.98998 17.4201C4.98998 17.3001 4.99998 17.1701 5.00998 17.0501V16.9901C5.01998 16.8701 5.02998 16.7501 5.04998 16.5801C5.05998 16.4501 5.07998 16.3301 5.09998 16.1901C5.17998 15.6601 5.29998 15.1201 5.45998 14.5901C5.49998 14.4701 5.53998 14.3401 5.57998 14.2001C5.70998 13.8301 5.84998 13.4701 6.01998 13.1101L6.07998 13.0001L6.17998 12.7901L6.25998 12.6401L6.35998 12.4601L6.44998 12.3001L6.48998 12.2301C7.02998 11.3001 7.69998 10.4501 8.46998 9.70008C8.54998 9.62008 8.62998 9.55008 8.70998 9.48008C8.86998 9.34008 9.02998 9.20008 9.21998 9.05008C9.28998 9.00008 9.34998 8.95008 9.41998 8.89008L9.52998 8.81008L9.68998 8.69008L9.89998 8.55008L9.97998 8.49008C10.55 8.11008 11.15 7.78008 11.77 7.51008C13.19 6.90008 14.69 6.58008 16.25 6.58008C16.28 6.58008 16.3 6.59008 16.33 6.59008C16.36 6.59008 16.38 6.58008 16.41 6.58008C17.97 6.58008 19.47 6.89008 20.89 7.51008C21.51 7.78008 22.12 8.11008 22.68 8.49008L22.76 8.55008L22.97 8.69008L23.13 8.81008L23.24 8.89008C23.31 8.94008 23.37 8.99008 23.44 9.05008C23.62 9.20008 23.79 9.34008 23.95 9.48008C24.03 9.55008 24.11 9.63008 24.19 9.70008C24.97 10.4401 25.63 11.2901 26.17 12.2301L26.21 12.3001L26.3 12.4601L26.4 12.6401L26.48 12.7901L26.58 13.0001L26.63 13.1101C26.79 13.4701 26.94 13.8301 27.07 14.2001C27.12 14.3401 27.16 14.4601 27.19 14.5901C27.35 15.1201 27.47 15.6601 27.55 16.1901C27.57 16.3301 27.59 16.4601 27.6 16.5801C27.62 16.7501 27.63 16.8701 27.64 16.9901V17.0501C27.65 17.1701 27.66 17.2901 27.66 17.4201C27.67 17.5901 27.67 17.7201 27.67 17.8501C27.67 17.9101 27.67 17.9801 27.67 18.0401V18.1101L27.66 18.2301L27.65 18.3401C27.47 20.7401 26.22 24.3701 23.92 29.1901L23.9 29.2301L23.87 29.2601C23.85 29.2801 23.84 29.3001 23.83 29.3301C22.82 31.4301 21.61 33.7401 20.23 36.1901Z" fill="white"/>
<path d="M10.5499 2.45989H10.1499V2.05989V1.28989V0.889893H10.5499H22.1099H22.5099V1.28989V2.05989V2.45989H22.1099H21.0299H20.8799H11.7799H11.6299H10.5499Z" fill="white"/>
<path d="M18.4101 6.04993C18.3901 6.04993 16.9901 5.90993 16.9701 5.90993C16.9101 5.90993 16.8501 5.89993 16.7901 5.89993C16.7501 5.89993 16.7101 5.89993 16.6701 5.89993C16.6201 5.89993 16.5701 5.89993 16.5301 5.89993C16.4601 5.89993 16.4001 5.89993 16.3301 5.89993C16.2601 5.89993 16.2001 5.89993 16.1301 5.89993C16.0801 5.89993 16.0301 5.89993 15.9901 5.89993C15.9501 5.89993 15.9101 5.89993 15.8701 5.89993C15.8101 5.89993 15.7501 5.90993 15.6901 5.90993C15.6701 5.90993 15.6501 5.90993 15.6201 5.90993C14.5701 5.96993 13.5201 6.04993 12.5501 6.25993L12.4801 6.30993C12.4701 6.30993 12.4601 6.31993 12.4501 6.31993C12.4101 6.32993 12.3701 6.33993 12.3301 6.35993V3.17993H12.5501H20.1101H20.4201V6.36993" fill="white"/>
<path d="M22.25 36.6L22.14 36.8H21.99H21.91H21.76H14.97H14.82H14.72H14.57L14.46 36.6C13.07 34.15 11.86 31.85 10.84 29.75C10.83 29.73 10.82 29.7 10.8 29.68L10.77 29.65L10.75 29.61C8.45 24.79 7.2 21.16 7.02 18.76L7.01 18.65L7 18.53V18.46C7 18.4 7 18.33 7 18.27C7 18.14 7 18.01 7.01 17.84C7.01 17.72 7.02 17.59 7.03 17.47V17.41C7.04 17.29 7.05 17.17 7.07 17C7.08 16.87 7.1 16.75 7.12 16.61C7.2 16.08 7.32 15.54 7.48 15.01C7.52 14.89 7.56 14.76 7.6 14.62C7.73 14.25 7.87 13.89 8.04 13.53L8.09 13.42L8.19 13.21L8.27 13.06L8.37 12.88L8.46 12.72L8.5 12.65C9.04 11.72 9.71 10.87 10.48 10.12C10.56 10.04 10.64 9.97 10.72 9.9C10.88 9.76 11.04 9.62 11.23 9.47C11.3 9.42 11.36 9.37 11.43 9.31L11.54 9.23L11.7 9.11L11.91 8.97L11.99 8.91C12.56 8.53 13.16 8.2 13.78 7.93C15.2 7.32 16.7 7 18.26 7C18.29 7 18.31 7.01 18.34 7.01C18.37 7.01 18.39 7 18.42 7C19.98 7 21.48 7.31 22.9 7.93C23.52 8.2 24.13 8.53 24.69 8.91L24.77 8.97L24.98 9.11L25.14 9.23L25.25 9.31C25.32 9.36 25.38 9.41 25.45 9.47C25.63 9.62 25.8 9.76 25.96 9.9C26.04 9.97 26.12 10.05 26.2 10.12C26.98 10.86 27.64 11.71 28.18 12.65L28.22 12.72L28.31 12.88L28.41 13.06L28.49 13.21L28.59 13.42L28.64 13.53C28.8 13.89 28.95 14.25 29.08 14.62C29.13 14.76 29.17 14.88 29.2 15.01C29.36 15.54 29.48 16.08 29.56 16.61C29.58 16.75 29.6 16.88 29.61 17C29.63 17.17 29.64 17.29 29.65 17.41V17.47C29.66 17.59 29.67 17.71 29.67 17.84C29.68 18.01 29.68 18.14 29.68 18.27C29.68 18.33 29.68 18.4 29.68 18.46V18.53L29.67 18.65L29.66 18.76C29.48 21.16 28.23 24.79 25.93 29.61L25.91 29.65L25.88 29.68C25.86 29.7 25.85 29.72 25.84 29.75C24.84 31.85 23.63 34.15 22.25 36.6Z" fill="#CCB8F4"/>
<path d="M11.4601 2.95989H11.0601V2.55989V1.78989V1.38989H11.4601H23.0301H23.4301V1.78989V2.55989V2.95989H23.0301H21.9501H21.8001H12.7001H12.5401H11.4601Z" fill="#A3EFE0"/>
<path d="M18.4101 6.04993C18.3901 6.04993 16.9901 5.90993 16.9701 5.90993C16.9101 5.90993 16.8501 5.89993 16.7901 5.89993C16.7501 5.89993 16.7101 5.89993 16.6701 5.89993C16.6201 5.89993 16.5701 5.89993 16.5301 5.89993C16.4601 5.89993 16.4001 5.89993 16.3301 5.89993C16.2601 5.89993 16.2001 5.89993 16.1301 5.89993C16.0801 5.89993 16.0301 5.89993 15.9901 5.89993C15.9501 5.89993 15.9101 5.89993 15.8701 5.89993C15.8101 5.89993 15.7501 5.90993 15.6901 5.90993C15.6701 5.90993 15.6501 5.90993 15.6201 5.90993C14.5701 5.96993 13.5201 6.04993 12.5501 6.25993L12.4801 6.30993C12.4701 6.30993 12.4601 6.31993 12.4501 6.31993C12.4101 6.32993 12.3701 6.33993 12.3301 6.35993V3.17993H12.5501H20.1101H20.4201V6.36993" fill="white"/>
<path d="M18.42 32.6001C18.5 32.6401 18.58 32.6601 18.66 32.6601C18.85 32.6601 19.03 32.5501 19.12 32.3801C21.47 27.9701 24.26 22.0701 24.26 18.9501C24.26 18.3101 24.19 17.6801 24.06 17.0501C23.49 14.3701 21.71 12.1101 19.29 11.0201C18.98 10.8801 18.7 11.0201 18.58 11.2701C18.52 11.4001 18.52 11.5401 18.57 11.6701C18.62 11.8001 18.72 11.9001 18.84 11.9601C20.96 12.9301 22.53 14.9101 23.04 17.2701C23.16 17.8201 23.22 18.3801 23.22 18.9501C23.22 21.2101 21.44 25.8001 18.2 31.8901C18.14 32.0101 18.12 32.1501 18.16 32.2901C18.21 32.4201 18.3 32.5301 18.42 32.6001Z" fill="#464860"/>
<path d="M32.14 36.24H21.13L21.33 35.87C24.29 30.47 26.36 25.99 27.47 22.56L27.51 22.46C28.01 20.92 28.3 19.58 28.39 18.48L28.41 18.07C28.41 18 28.41 17.93 28.41 17.86C28.41 17.72 28.41 17.58 28.4 17.39C28.4 17.26 28.39 17.13 28.38 16.98L28.37 16.93C28.36 16.8 28.35 16.67 28.33 16.54L28.32 16.48C28.3 16.35 28.29 16.21 28.26 16.06L28.19 15.65L28.33 15.56C28.42 15.5 28.51 15.44 28.6 15.37L28.75 15.26C28.84 15.2 28.92 15.13 29 15.07C29.06 15.02 29.11 14.97 29.16 14.92L29.27 14.82C29.36 14.74 29.45 14.65 29.53 14.56C29.56 14.52 29.6 14.48 29.63 14.44L29.69 14.37C29.8 14.24 29.9 14.12 30 13.98C30.02 13.95 30.04 13.92 30.06 13.89L30.09 13.84C30.18 13.7 30.29 13.54 30.38 13.37C30.39 13.35 30.4 13.32 30.42 13.3L30.44 13.25C30.51 13.11 30.61 12.92 30.69 12.71C30.7 12.68 30.71 12.66 30.72 12.63L30.73 12.58C30.79 12.41 30.86 12.22 30.91 12.02C30.92 11.97 30.93 11.92 30.94 11.87C30.94 11.84 30.95 11.81 30.96 11.78L30.97 11.72C31 11.58 31.03 11.44 31.05 11.3C31.08 11.05 31.1 10.8 31.1 10.56C31.1 7.3 28.44 4.64 25.18 4.64C24.89 4.64 24.59 4.66 24.3 4.71C24.23 4.72 24.16 4.74 24.09 4.75C24.05 4.76 24.01 4.77 23.97 4.78H23.9C23.75 4.81 23.6 4.84 23.46 4.89C23.38 4.92 23.29 4.95 23.21 4.98L23.03 5.05C22.9 5.1 22.77 5.15 22.64 5.21C22.56 5.25 22.49 5.29 22.41 5.34L22.21 5.45C22.07 5.53 21.93 5.61 21.8 5.7L21.4 5.98V3.35H22.88C23.17 3.35 23.4 3.12 23.4 2.83V0.52C23.4 0.23 23.17 0 22.88 0H9.77C9.49 0 9.25 0.23 9.25 0.52V2.83C9.25 3.12 9.48 3.35 9.77 3.35H11.25V5.97L10.86 5.7C10.73 5.61 10.59 5.53 10.46 5.45L10.25 5.33C10.17 5.29 10.1 5.24 10.02 5.2C9.9 5.15 9.77 5.1 9.65 5.06L9.45 4.98C9.36 4.95 9.29 4.91 9.2 4.89C9.06 4.85 8.91 4.82 8.76 4.79L8.67 4.77C8.64 4.76 8.6 4.75 8.56 4.74C8.49 4.72 8.42 4.7 8.35 4.69C4.71 4.14 1.55 6.99 1.55 10.54C1.55 10.78 1.57 11.03 1.6 11.28C1.62 11.42 1.64 11.55 1.67 11.69L1.69 11.76C1.7 11.79 1.7 11.82 1.71 11.85C1.7 11.9 1.71 11.95 1.72 12C1.77 12.2 1.83 12.38 1.9 12.56L1.92 12.61C1.93 12.64 1.94 12.66 1.95 12.69C2.03 12.89 2.12 13.07 2.2 13.22L2.22 13.27C2.23 13.3 2.24 13.32 2.26 13.35C2.34 13.51 2.44 13.65 2.55 13.82L2.59 13.88C2.61 13.91 2.63 13.94 2.65 13.97C2.74 14.11 2.85 14.23 2.96 14.36L3.01 14.42C3.04 14.46 3.08 14.51 3.12 14.55C3.2 14.64 3.29 14.72 3.37 14.8L3.5 14.92C3.55 14.97 3.6 15.02 3.65 15.06C3.73 15.13 3.82 15.19 3.9 15.25L4.04 15.36C4.13 15.43 4.22 15.5 4.32 15.56L4.46 15.65L4.39 16.08C4.37 16.21 4.35 16.35 4.34 16.49L4.33 16.55C4.32 16.68 4.3 16.81 4.29 16.96V17.01C4.28 17.14 4.27 17.27 4.27 17.41C4.26 17.6 4.26 17.74 4.26 17.88C4.26 17.95 4.26 18.02 4.26 18.1L4.28 18.51C4.36 19.61 4.66 20.95 5.17 22.52L5.19 22.58C6.3 26.01 8.37 30.49 11.33 35.9L11.53 36.27H0.52C0.23 36.24 0 36.47 0 36.76C0 37.05 0.23 37.28 0.52 37.28H32.13C32.42 37.28 32.65 37.05 32.65 36.76C32.65 36.47 32.42 36.24 32.14 36.24ZM22.36 1.04V2.31H10.3V1.04H22.36ZM5.14 17.43C5.14 17.31 5.15 17.19 5.16 17.07V17.01C5.17 16.89 5.18 16.77 5.2 16.6C5.21 16.47 5.23 16.35 5.25 16.21C5.33 15.69 5.45 15.16 5.6 14.63C5.64 14.51 5.68 14.39 5.72 14.25C5.84 13.89 5.99 13.53 6.15 13.18L6.6 12.31C7.13 11.39 7.79 10.55 8.56 9.82C8.64 9.75 8.72 9.67 8.8 9.6C8.96 9.46 9.12 9.32 9.3 9.18C9.36 9.13 9.43 9.08 9.5 9.03L10.06 8.63C10.62 8.26 11.21 7.93 11.83 7.66C13.22 7.05 14.71 6.75 16.26 6.75C16.26 6.75 16.26 6.75 16.27 6.75C16.31 6.75 16.32 6.76 16.4 6.75C17.93 6.75 19.42 7.06 20.82 7.67C21.44 7.94 22.03 8.26 22.59 8.64L23.34 9.19C23.52 9.33 23.68 9.47 23.84 9.61C23.92 9.68 24 9.76 24.08 9.83C24.85 10.56 25.5 11.4 26.04 12.32L26.49 13.19C26.65 13.54 26.8 13.9 26.92 14.26C26.97 14.4 27.01 14.52 27.04 14.64C27.2 15.16 27.32 15.69 27.4 16.22C27.42 16.36 27.44 16.48 27.45 16.61C27.47 16.78 27.48 16.9 27.49 17.02V17.08C27.5 17.2 27.51 17.32 27.51 17.44C27.52 17.61 27.52 17.74 27.52 17.87C27.52 17.93 27.52 17.99 27.52 18.05L27.51 18.34C27.34 20.7 26.08 24.34 23.79 29.14L23.76 29.18C23.74 29.21 23.72 29.24 23.7 29.27C22.68 31.37 21.46 33.68 20.09 36.12L20.02 36.25H12.63L12.56 36.12C11.18 33.67 9.97 31.36 8.95 29.27C8.93 29.24 8.92 29.21 8.89 29.18L8.86 29.14C6.57 24.34 5.32 20.71 5.14 18.35L5.13 18.06C5.13 18 5.13 17.94 5.13 17.87C5.13 17.73 5.13 17.6 5.14 17.43ZM20.27 6.2C19.95 6.16 19.21 6.06 18.52 5.97C17.06 5.78 16.99 5.77 16.98 5.77L16.53 5.75C16.46 5.75 16.4 5.75 16.33 5.75C16.26 5.75 16.2 5.75 16.13 5.75L15.62 5.77C14.44 5.84 13.47 5.92 12.52 6.13L12.48 6.15V3.33H20.27V6.2ZM21.86 6.97L22.15 6.73C23.01 6.04 24.09 5.66 25.19 5.66C27.88 5.66 30.07 7.85 30.07 10.54C30.07 11.96 29.46 13.3 28.38 14.23L28.09 14.48L27.97 14.12C27.02 11.17 24.91 8.63 22.18 7.15L21.86 6.97ZM10.47 7.15C7.74 8.63 5.63 11.17 4.68 14.12L4.56 14.48L4.27 14.23C3.2 13.3 2.58 11.96 2.58 10.54C2.58 7.85 4.77 5.66 7.46 5.66C8.56 5.66 9.64 6.04 10.5 6.73L10.79 6.97L10.47 7.15Z" fill="#464860"/>
</svg>
