<svg width="78" height="78" viewBox="0 0 78 78" fill="none" xmlns="http://www.w3.org/2000/svg">
<rect width="78" height="78" fill="white"/>
<path d="M43.23 56.1901L43.12 56.3901H42.97H42.89H42.74H35.95H35.8H35.7H35.55L35.44 56.1901C34.06 53.7401 32.85 51.4301 31.83 49.3301C31.82 49.3101 31.81 49.2801 31.79 49.2601L31.76 49.2301L31.74 49.1901C29.43 44.3801 28.18 40.7401 28 38.3401L27.99 38.2301L27.98 38.1101V38.0401C27.98 37.9801 27.98 37.9101 27.98 37.8501C27.98 37.7201 27.98 37.5901 27.99 37.4201C27.99 37.3001 28 37.1701 28.01 37.0501V36.9901C28.02 36.8701 28.03 36.7501 28.05 36.5801C28.06 36.4501 28.08 36.3301 28.1 36.1901C28.18 35.6601 28.3 35.1201 28.46 34.5901C28.5 34.4701 28.54 34.3401 28.58 34.2001C28.71 33.8301 28.85 33.4701 29.02 33.1101L29.08 33.0001L29.18 32.7901L29.26 32.6401L29.36 32.4601L29.45 32.3001L29.49 32.2301C30.03 31.3001 30.7 30.4501 31.47 29.7001C31.55 29.6201 31.63 29.5501 31.71 29.4801C31.87 29.3401 32.03 29.2001 32.22 29.0501C32.29 29.0001 32.35 28.9501 32.42 28.8901L32.53 28.8101L32.69 28.6901L32.9 28.5501L32.98 28.4901C33.55 28.1101 34.15 27.7801 34.77 27.5101C36.19 26.9001 37.69 26.5801 39.25 26.5801C39.28 26.5801 39.3 26.5901 39.33 26.5901C39.36 26.5901 39.38 26.5801 39.41 26.5801C40.97 26.5801 42.47 26.8901 43.89 27.5101C44.51 27.7801 45.12 28.1101 45.68 28.4901L45.76 28.5501L45.97 28.6901L46.13 28.8101L46.24 28.8901C46.31 28.9401 46.37 28.9901 46.44 29.0501C46.62 29.2001 46.79 29.3401 46.95 29.4801C47.03 29.5501 47.11 29.6301 47.19 29.7001C47.97 30.4401 48.63 31.2901 49.17 32.2301L49.21 32.3001L49.3 32.4601L49.4 32.6401L49.48 32.7901L49.58 33.0001L49.63 33.1101C49.79 33.4701 49.94 33.8301 50.07 34.2001C50.12 34.3401 50.16 34.4601 50.19 34.5901C50.35 35.1201 50.47 35.6601 50.55 36.1901C50.57 36.3301 50.59 36.4601 50.6 36.5801C50.62 36.7501 50.63 36.8701 50.64 36.9901V37.0501C50.65 37.1701 50.66 37.2901 50.66 37.4201C50.67 37.5901 50.67 37.7201 50.67 37.8501C50.67 37.9101 50.67 37.9801 50.67 38.0401V38.1101L50.66 38.2301L50.65 38.3401C50.47 40.7401 49.22 44.3701 46.92 49.1901L46.9 49.2301L46.87 49.2601C46.85 49.2801 46.84 49.3001 46.83 49.3301C45.82 51.4301 44.61 53.7401 43.23 56.1901Z" fill="white"/>
<path d="M33.5499 22.4599H33.1499V22.0599V21.2899V20.8899H33.5499H45.1099H45.5099V21.2899V22.0599V22.4599H45.1099H44.0299H43.8799H34.7799H34.6299H33.5499Z" fill="white"/>
<path d="M41.4101 26.0499C41.3901 26.0499 39.9901 25.9099 39.9701 25.9099C39.9101 25.9099 39.8501 25.8999 39.7901 25.8999C39.7501 25.8999 39.7101 25.8999 39.6701 25.8999C39.6201 25.8999 39.5701 25.8999 39.5301 25.8999C39.4601 25.8999 39.4001 25.8999 39.3301 25.8999C39.2601 25.8999 39.2001 25.8999 39.1301 25.8999C39.0801 25.8999 39.0301 25.8999 38.9901 25.8999C38.9501 25.8999 38.9101 25.8999 38.8701 25.8999C38.8101 25.8999 38.7501 25.9099 38.6901 25.9099C38.6701 25.9099 38.6501 25.9099 38.6201 25.9099C37.5701 25.9699 36.5201 26.0499 35.5501 26.2599L35.4801 26.3099C35.4701 26.3099 35.4601 26.3199 35.4501 26.3199C35.4101 26.3299 35.3701 26.3399 35.3301 26.3599V23.1799H35.5501H43.1101H43.4201V26.3699" fill="white"/>
<path d="M45.25 56.6L45.14 56.8H44.99H44.91H44.76H37.97H37.82H37.72H37.57L37.46 56.6C36.07 54.15 34.86 51.85 33.84 49.75C33.83 49.73 33.82 49.7 33.8 49.68L33.77 49.65L33.75 49.61C31.45 44.79 30.2 41.16 30.02 38.76L30.01 38.65L30 38.53V38.46C30 38.4 30 38.33 30 38.27C30 38.14 30 38.01 30.01 37.84C30.01 37.72 30.02 37.59 30.03 37.47V37.41C30.04 37.29 30.05 37.17 30.07 37C30.08 36.87 30.1 36.75 30.12 36.61C30.2 36.08 30.32 35.54 30.48 35.01C30.52 34.89 30.56 34.76 30.6 34.62C30.73 34.25 30.87 33.89 31.04 33.53L31.09 33.42L31.19 33.21L31.27 33.06L31.37 32.88L31.46 32.72L31.5 32.65C32.04 31.72 32.71 30.87 33.48 30.12C33.56 30.04 33.64 29.97 33.72 29.9C33.88 29.76 34.04 29.62 34.23 29.47C34.3 29.42 34.36 29.37 34.43 29.31L34.54 29.23L34.7 29.11L34.91 28.97L34.99 28.91C35.56 28.53 36.16 28.2 36.78 27.93C38.2 27.32 39.7 27 41.26 27C41.29 27 41.31 27.01 41.34 27.01C41.37 27.01 41.39 27 41.42 27C42.98 27 44.48 27.31 45.9 27.93C46.52 28.2 47.13 28.53 47.69 28.91L47.77 28.97L47.98 29.11L48.14 29.23L48.25 29.31C48.32 29.36 48.38 29.41 48.45 29.47C48.63 29.62 48.8 29.76 48.96 29.9C49.04 29.97 49.12 30.05 49.2 30.12C49.98 30.86 50.64 31.71 51.18 32.65L51.22 32.72L51.31 32.88L51.41 33.06L51.49 33.21L51.59 33.42L51.64 33.53C51.8 33.89 51.95 34.25 52.08 34.62C52.13 34.76 52.17 34.88 52.2 35.01C52.36 35.54 52.48 36.08 52.56 36.61C52.58 36.75 52.6 36.88 52.61 37C52.63 37.17 52.64 37.29 52.65 37.41V37.47C52.66 37.59 52.67 37.71 52.67 37.84C52.68 38.01 52.68 38.14 52.68 38.27C52.68 38.33 52.68 38.4 52.68 38.46V38.53L52.67 38.65L52.66 38.76C52.48 41.16 51.23 44.79 48.93 49.61L48.91 49.65L48.88 49.68C48.86 49.7 48.85 49.72 48.84 49.75C47.84 51.85 46.63 54.15 45.25 56.6Z" fill="#CCB8F4"/>
<path d="M34.4601 22.9599H34.0601V22.5599V21.7899V21.3899H34.4601H46.0301H46.4301V21.7899V22.5599V22.9599H46.0301H44.9501H44.8001H35.7001H35.5401H34.4601Z" fill="#A3EFE0"/>
<path d="M41.4101 26.0499C41.3901 26.0499 39.9901 25.9099 39.9701 25.9099C39.9101 25.9099 39.8501 25.8999 39.7901 25.8999C39.7501 25.8999 39.7101 25.8999 39.6701 25.8999C39.6201 25.8999 39.5701 25.8999 39.5301 25.8999C39.4601 25.8999 39.4001 25.8999 39.3301 25.8999C39.2601 25.8999 39.2001 25.8999 39.1301 25.8999C39.0801 25.8999 39.0301 25.8999 38.9901 25.8999C38.9501 25.8999 38.9101 25.8999 38.8701 25.8999C38.8101 25.8999 38.7501 25.9099 38.6901 25.9099C38.6701 25.9099 38.6501 25.9099 38.6201 25.9099C37.5701 25.9699 36.5201 26.0499 35.5501 26.2599L35.4801 26.3099C35.4701 26.3099 35.4601 26.3199 35.4501 26.3199C35.4101 26.3299 35.3701 26.3399 35.3301 26.3599V23.1799H35.5501H43.1101H43.4201V26.3699" fill="white"/>
<path d="M41.42 52.6001C41.5 52.6401 41.58 52.6601 41.66 52.6601C41.85 52.6601 42.03 52.5501 42.12 52.3801C44.47 47.9701 47.26 42.0701 47.26 38.9501C47.26 38.3101 47.19 37.6801 47.06 37.0501C46.49 34.3701 44.71 32.1101 42.29 31.0201C41.98 30.8801 41.7 31.0201 41.58 31.2701C41.52 31.4001 41.52 31.5401 41.57 31.6701C41.62 31.8001 41.72 31.9001 41.84 31.9601C43.96 32.9301 45.53 34.9101 46.04 37.2701C46.16 37.8201 46.22 38.3801 46.22 38.9501C46.22 41.2101 44.44 45.8001 41.2 51.8901C41.14 52.0101 41.12 52.1501 41.16 52.2901C41.21 52.4201 41.3 52.5301 41.42 52.6001Z" fill="#464860"/>
<path d="M55.14 56.24H44.13L44.33 55.87C47.29 50.47 49.36 45.99 50.47 42.56L50.51 42.46C51.01 40.92 51.3 39.58 51.39 38.48L51.41 38.07C51.41 38 51.41 37.93 51.41 37.86C51.41 37.72 51.41 37.58 51.4 37.39C51.4 37.26 51.39 37.13 51.38 36.98L51.37 36.93C51.36 36.8 51.35 36.67 51.33 36.54L51.32 36.48C51.3 36.35 51.29 36.21 51.26 36.06L51.19 35.65L51.33 35.56C51.42 35.5 51.51 35.44 51.6 35.37L51.75 35.26C51.84 35.2 51.92 35.13 52 35.07C52.06 35.02 52.11 34.97 52.16 34.92L52.27 34.82C52.36 34.74 52.45 34.65 52.53 34.56C52.56 34.52 52.6 34.48 52.63 34.44L52.69 34.37C52.8 34.24 52.9 34.12 53 33.98C53.02 33.95 53.04 33.92 53.06 33.89L53.09 33.84C53.18 33.7 53.29 33.54 53.38 33.37C53.39 33.35 53.4 33.32 53.42 33.3L53.44 33.25C53.51 33.11 53.61 32.92 53.69 32.71C53.7 32.68 53.71 32.66 53.72 32.63L53.73 32.58C53.79 32.41 53.86 32.22 53.91 32.02C53.92 31.97 53.93 31.92 53.94 31.87C53.94 31.84 53.95 31.81 53.96 31.78L53.97 31.72C54 31.58 54.03 31.44 54.05 31.3C54.08 31.05 54.1 30.8 54.1 30.56C54.1 27.3 51.44 24.64 48.18 24.64C47.89 24.64 47.59 24.66 47.3 24.71C47.23 24.72 47.16 24.74 47.09 24.75C47.05 24.76 47.01 24.77 46.97 24.78H46.9C46.75 24.81 46.6 24.84 46.46 24.89C46.38 24.92 46.29 24.95 46.21 24.98L46.03 25.05C45.9 25.1 45.77 25.15 45.64 25.21C45.56 25.25 45.49 25.29 45.41 25.34L45.21 25.45C45.07 25.53 44.93 25.61 44.8 25.7L44.4 25.98V23.35H45.88C46.17 23.35 46.4 23.12 46.4 22.83V20.52C46.4 20.23 46.17 20 45.88 20H32.77C32.49 20 32.25 20.23 32.25 20.52V22.83C32.25 23.12 32.48 23.35 32.77 23.35H34.25V25.97L33.86 25.7C33.73 25.61 33.59 25.53 33.46 25.45L33.25 25.33C33.17 25.29 33.1 25.24 33.02 25.2C32.9 25.15 32.77 25.1 32.65 25.06L32.45 24.98C32.36 24.95 32.29 24.91 32.2 24.89C32.06 24.85 31.91 24.82 31.76 24.79L31.67 24.77C31.64 24.76 31.6 24.75 31.56 24.74C31.49 24.72 31.42 24.7 31.35 24.69C27.71 24.14 24.55 26.99 24.55 30.54C24.55 30.78 24.57 31.03 24.6 31.28C24.62 31.42 24.64 31.55 24.67 31.69L24.69 31.76C24.7 31.79 24.7 31.82 24.71 31.85C24.7 31.9 24.71 31.95 24.72 32C24.77 32.2 24.83 32.38 24.9 32.56L24.92 32.61C24.93 32.64 24.94 32.66 24.95 32.69C25.03 32.89 25.12 33.07 25.2 33.22L25.22 33.27C25.23 33.3 25.24 33.32 25.26 33.35C25.34 33.51 25.44 33.65 25.55 33.82L25.59 33.88C25.61 33.91 25.63 33.94 25.65 33.97C25.74 34.11 25.85 34.23 25.96 34.36L26.01 34.42C26.04 34.46 26.08 34.51 26.12 34.55C26.2 34.64 26.29 34.72 26.37 34.8L26.5 34.92C26.55 34.97 26.6 35.02 26.65 35.06C26.73 35.13 26.82 35.19 26.9 35.25L27.04 35.36C27.13 35.43 27.22 35.5 27.32 35.56L27.46 35.65L27.39 36.08C27.37 36.21 27.35 36.35 27.34 36.49L27.33 36.55C27.32 36.68 27.3 36.81 27.29 36.96V37.01C27.28 37.14 27.27 37.27 27.27 37.41C27.26 37.6 27.26 37.74 27.26 37.88C27.26 37.95 27.26 38.02 27.26 38.1L27.28 38.51C27.36 39.61 27.66 40.95 28.17 42.52L28.19 42.58C29.3 46.01 31.37 50.49 34.33 55.9L34.53 56.27H23.52C23.23 56.24 23 56.47 23 56.76C23 57.05 23.23 57.28 23.52 57.28H55.13C55.42 57.28 55.65 57.05 55.65 56.76C55.65 56.47 55.42 56.24 55.14 56.24ZM45.36 21.04V22.31H33.3V21.04H45.36ZM28.14 37.43C28.14 37.31 28.15 37.19 28.16 37.07V37.01C28.17 36.89 28.18 36.77 28.2 36.6C28.21 36.47 28.23 36.35 28.25 36.21C28.33 35.69 28.45 35.16 28.6 34.63C28.64 34.51 28.68 34.39 28.72 34.25C28.84 33.89 28.99 33.53 29.15 33.18L29.6 32.31C30.13 31.39 30.79 30.55 31.56 29.82C31.64 29.75 31.72 29.67 31.8 29.6C31.96 29.46 32.12 29.32 32.3 29.18C32.36 29.13 32.43 29.08 32.5 29.03L33.06 28.63C33.62 28.26 34.21 27.93 34.83 27.66C36.22 27.05 37.71 26.75 39.26 26.75C39.26 26.75 39.26 26.75 39.27 26.75C39.31 26.75 39.32 26.76 39.4 26.75C40.93 26.75 42.42 27.06 43.82 27.67C44.44 27.94 45.03 28.26 45.59 28.64L46.34 29.19C46.52 29.33 46.68 29.47 46.84 29.61C46.92 29.68 47 29.76 47.08 29.83C47.85 30.56 48.5 31.4 49.04 32.32L49.49 33.19C49.65 33.54 49.8 33.9 49.92 34.26C49.97 34.4 50.01 34.52 50.04 34.64C50.2 35.16 50.32 35.69 50.4 36.22C50.42 36.36 50.44 36.48 50.45 36.61C50.47 36.78 50.48 36.9 50.49 37.02V37.08C50.5 37.2 50.51 37.32 50.51 37.44C50.52 37.61 50.52 37.74 50.52 37.87C50.52 37.93 50.52 37.99 50.52 38.05L50.51 38.34C50.34 40.7 49.08 44.34 46.79 49.14L46.76 49.18C46.74 49.21 46.72 49.24 46.7 49.27C45.68 51.37 44.46 53.68 43.09 56.12L43.02 56.25H35.63L35.56 56.12C34.18 53.67 32.97 51.36 31.95 49.27C31.93 49.24 31.92 49.21 31.89 49.18L31.86 49.14C29.57 44.34 28.32 40.71 28.14 38.35L28.13 38.06C28.13 38 28.13 37.94 28.13 37.87C28.13 37.73 28.13 37.6 28.14 37.43ZM43.27 26.2C42.95 26.16 42.21 26.06 41.52 25.97C40.06 25.78 39.99 25.77 39.98 25.77L39.53 25.75C39.46 25.75 39.4 25.75 39.33 25.75C39.26 25.75 39.2 25.75 39.13 25.75L38.62 25.77C37.44 25.84 36.47 25.92 35.52 26.13L35.48 26.15V23.33H43.27V26.2ZM44.86 26.97L45.15 26.73C46.01 26.04 47.09 25.66 48.19 25.66C50.88 25.66 53.07 27.85 53.07 30.54C53.07 31.96 52.46 33.3 51.38 34.23L51.09 34.48L50.97 34.12C50.02 31.17 47.91 28.63 45.18 27.15L44.86 26.97ZM33.47 27.15C30.74 28.63 28.63 31.17 27.68 34.12L27.56 34.48L27.27 34.23C26.2 33.3 25.58 31.96 25.58 30.54C25.58 27.85 27.77 25.66 30.46 25.66C31.56 25.66 32.64 26.04 33.5 26.73L33.79 26.97L33.47 27.15Z" fill="#464860"/>
</svg>
