<svg width="78" height="78" viewBox="0 0 78 78" fill="none" xmlns="http://www.w3.org/2000/svg">
<rect width="78" height="78" fill="white"/>
<path d="M26.0525 24.2524L31.2635 22.9721L31.311 22.9534H31.3586H45.6222H45.6697L45.7173 22.9627L50.9568 24.2524L52.4402 24.6169L50.9568 24.9814L50.9092 24.9908L50.5574 25.0842L45.7458 26.2618L45.6982 26.2711H45.6602L31.3776 26.2805H31.3301L31.2825 26.2618L26.0525 24.9814L24.5786 24.6169L26.0525 24.2524Z" fill="white"/>
<path d="M47.115 32.9159L47.2671 33.3925H46.7537H30.2459H29.7324L29.8846 32.9159L31.5296 27.4953L31.6152 27.2336H31.9005H45.0991H45.3843L45.4604 27.4953L47.115 32.9159Z" fill="white"/>
<path d="M18.6924 30.2804L22.6006 25.3459L22.7528 25.1589L22.9905 25.215L30.2554 27.0001L30.6453 27.0935L30.5312 27.4673L28.8481 32.9533L28.7435 33.2991L28.3916 33.215L18.8921 30.8786L18.3311 30.7384L18.6924 30.2804Z" fill="white"/>
<path d="M35.0672 49.9627L19.6911 32.7571L18.8828 31.8599L20.0619 32.1496L28.5535 34.2337L28.7342 34.2804L28.8103 34.4486L35.7044 49.5701L36.7313 51.8225L35.0672 49.9627Z" fill="white"/>
<path d="M38.8422 52.5982L38.4999 53.3552L38.1481 52.5982L30.0749 34.8786L29.8276 34.3552H30.4172H46.5826H47.1627L46.9249 34.8786L38.8422 52.5982Z" fill="white"/>
<path d="M57.309 32.7571L41.9234 49.9627L40.2593 51.8225L41.2958 49.5608L48.1898 34.4486L48.2659 34.2804L48.4466 34.2337L56.9287 32.1496L58.1173 31.8599L57.309 32.7571Z" fill="white"/>
<path d="M58.0982 30.8784L48.6081 33.2055L48.2563 33.2989L48.1517 32.9532L46.4686 27.4672L46.3545 27.0933L46.7444 26.9999L51.033 25.9532L51.3658 25.8597L54.0093 25.2148L54.247 25.1494L54.3992 25.3457L58.3074 30.2803L58.6687 30.7382L58.0982 30.8784Z" fill="white"/>
<path d="M47.115 32.0748L47.2671 32.5608H46.7537H30.2459H29.7324L29.8846 32.0748L31.5296 26.6636L31.6152 26.3926H31.9005H45.0991H45.3843L45.4604 26.6636L47.115 32.0748Z" fill="#CCB8F4"/>
<path d="M17.7417 30.2804L21.6499 25.3459L21.8021 25.1589L22.0398 25.215L29.3047 27.0001L29.6946 27.0935L29.5805 27.4673L27.9069 32.9533L27.8023 33.2991L27.4505 33.215L17.9509 30.8786L17.3804 30.7384L17.7417 30.2804Z" fill="#A3EFE0"/>
<path d="M34.1256 49.9627L18.7399 32.7571L17.9316 31.8599L19.1203 32.1496L27.6024 34.2337L27.783 34.2804L27.8591 34.4486L34.7532 49.5701L35.7802 51.8225L34.1256 49.9627Z" fill="#A3EFE0"/>
<path d="M38.8422 51.7569L38.4999 52.5139L38.1481 51.7569L30.0749 34.0373L29.8276 33.5139H30.4172H46.5826H47.1627L46.9249 34.0373L38.8422 51.7569Z" fill="#CCB8F4"/>
<path d="M58.2026 32.7571L42.8169 49.9627L41.1528 51.8225L42.1893 49.5608L49.0834 34.4486L49.1595 34.2804L49.3401 34.2337L57.8317 32.1496L59.0109 31.8599L58.2026 32.7571Z" fill="#A3EFE0"/>
<path d="M59.0015 30.8784L49.502 33.2055L49.1501 33.2989L49.0455 32.9532L47.3719 27.4672L47.2578 27.0933L47.6382 26.9999L51.9268 25.9532L52.2596 25.8597L54.9031 25.2148L55.1408 25.1494L55.293 25.3457L59.2012 30.2803L59.5625 30.7382L59.0015 30.8784Z" fill="#A3EFE0"/>
<path d="M54.8269 24.3178C54.7794 24.2523 54.7128 24.2056 54.6368 24.1776L54.5607 24.1495L45.8599 22.0093C45.8219 22.0093 45.7838 22 45.7458 22H31.254C31.2159 22 31.1779 22.0093 31.1399 22.0187L22.4771 24.1495C22.3345 24.1776 22.2394 24.2336 22.1728 24.3178L17.1045 30.729C16.9999 30.8598 16.9713 31.028 17.0284 31.1776C17.0379 31.215 17.0569 31.243 17.0759 31.271L17.114 31.3364L38.091 54.7944L38.1195 54.8224L38.148 54.8505C38.1766 54.8878 38.2241 54.9159 38.2907 54.9533C38.3858 54.9907 38.4428 55.0093 38.4999 55.0093C38.5569 55.0093 38.614 55 38.6805 54.972C38.7756 54.9252 38.8232 54.8972 38.8612 54.8505L59.8763 31.3364L59.8953 31.3178L59.9238 31.271C59.9428 31.243 59.9618 31.215 59.9713 31.1776C60.0284 31.028 59.9999 30.8598 59.8953 30.729L54.8269 24.3178ZM26.0525 24.2523L31.2635 22.972L31.311 22.9626H31.3586H45.6222H45.6697L45.7173 22.972L50.9567 24.2617L52.4402 24.6262L50.9567 24.9907H50.9092L50.5669 25.0841L45.7553 26.2617L45.7077 26.271H45.6602H31.3776H31.33L31.2825 26.2617L26.0525 24.972L24.5786 24.6168L26.0525 24.2523ZM47.1151 32.9159L47.2577 33.3925H46.7442H30.246H29.7325L29.8752 32.9159L31.5297 27.4953L31.6153 27.2243H31.9006H45.0992H45.3844L45.47 27.4953L47.1151 32.9159ZM18.6925 30.2804L22.6007 25.3458L22.7529 25.1495L22.9906 25.215L30.2555 27L30.6454 27.0935L30.5313 27.4673L28.8577 32.9533L28.7531 33.2991L28.3917 33.215L18.8922 30.8785L18.3311 30.7383L18.6925 30.2804ZM35.0671 49.9626L19.6909 32.757L18.8827 31.8598L20.0618 32.1495L28.5534 34.2336L28.7341 34.2804L28.8101 34.4486L35.7042 49.5701L36.7312 51.8318L35.0671 49.9626ZM38.8422 52.5981L38.4904 53.3551L38.148 52.5981L30.0653 34.8785L29.8276 34.3551H30.4172H46.5826H47.1721L46.9344 34.8785L38.8422 52.5981ZM57.3088 32.757L41.9231 49.9626L40.2591 51.8224L41.286 49.5607L48.1801 34.4393L48.2562 34.271L48.4368 34.2243L56.9284 32.1402L58.1076 31.8505L57.3088 32.757ZM58.0981 30.8785L48.5985 33.215L48.2467 33.2991L48.1421 32.9533L46.4685 27.4673L46.3544 27.0935L46.7442 27L51.0233 25.9533L51.3561 25.8598L53.9997 25.2056L54.2374 25.1495L54.3895 25.3458L58.2977 30.2804L58.6591 30.729L58.0981 30.8785Z" fill="#464860"/>
</svg>
