<svg width="50" height="41" viewBox="0 0 50 41" fill="none" xmlns="http://www.w3.org/2000/svg">
<path d="M8.06286 11.451H8.45736H8.4712C10.6513 11.5008 12.1739 12.488 13.1566 14.2351C13.1636 14.2493 13.1774 14.2635 13.1843 14.2778C13.9664 16.7707 15.9458 19.2707 15.2952 21.9198C15.1153 22.4738 14.7969 22.5874 14.3124 22.6726L12.5961 15.5704C12.5615 15.265 12.2362 15.0377 11.9455 15.1087C11.6548 15.1797 11.4679 15.5491 11.5787 15.8332L14.8454 29.3346H2.02784C2.92755 24.7749 3.8688 20.0235 4.6993 15.8189C4.78928 15.5278 4.59549 15.1797 4.30481 15.1229C4.01413 15.059 3.69577 15.2934 3.66809 15.5988C3.20439 17.9283 2.75453 20.2579 2.29083 22.5874C1.47416 22.4951 1.0243 22.0476 1.05199 21.3303C1.08659 20.5064 1.57798 19.2635 1.92402 18.0491V18.0349C2.42233 16.4439 2.94832 14.7039 3.82035 13.4113C3.82727 13.4042 3.82727 13.4042 3.83419 13.3971C4.80312 12.1471 6.28419 11.451 8.06286 11.451Z" fill="white"/>
<path d="M7.08703 10.6485H7.48152H7.49537C9.67545 10.6982 11.1981 11.6854 12.1808 13.4326C12.1877 13.4468 12.2016 13.461 12.2085 13.4752C12.9906 15.9681 14.9699 18.4681 14.3194 21.1172C14.1394 21.6712 13.8211 21.7849 13.3366 21.8701L11.6202 14.7678C11.5856 14.4624 11.2603 14.2351 10.9697 14.3062C10.679 14.3772 10.4921 14.7465 10.6029 15.0306L13.8695 28.532H1.052C1.95172 23.9724 2.89297 19.2209 3.72347 15.0164C3.81345 14.7252 3.61966 14.3772 3.32898 14.3204C3.0383 14.2565 2.71994 14.4908 2.69226 14.7962C2.22856 17.1258 1.7787 19.4553 1.315 21.7849C0.498333 21.6925 0.0484739 21.2451 0.0761575 20.5278C0.110762 19.7039 0.602146 18.461 0.948191 17.2465V17.2323C1.4465 15.6414 1.97249 13.9013 2.84452 12.6087C2.85144 12.6016 2.85144 12.6016 2.85836 12.5945C3.83421 11.3445 5.30836 10.6485 7.08703 10.6485Z" fill="#CCB8F4"/>
<path d="M41.2278 9.44824H41.7192C43.1172 9.47665 43.9823 9.67551 44.6467 10.0945C47.7196 12.836 47.8926 18.6599 47.8996 22.3105C47.2905 22.9639 46.3908 23.0278 45.5603 23.0349V16.5221C45.5672 16.2238 45.3042 15.961 45.0135 15.961C44.7229 15.961 44.4668 16.2238 44.4668 16.5221V36.5789C44.4668 37.3957 43.7816 38.0775 42.8611 38.0775H41.3662C41.4839 37.971 41.5531 37.8147 41.56 37.6585V21.7636C41.5669 21.4653 41.3039 21.2025 41.0133 21.2025C40.7226 21.2025 40.4665 21.4653 40.4665 21.7636V37.6514C40.4665 37.8076 40.5288 37.9639 40.6464 38.0704H38.9162C37.9957 38.0704 37.3106 37.3886 37.3106 36.5718V16.5221C37.3175 16.2238 37.0545 15.961 36.7638 15.961C36.4731 15.961 36.2171 16.2238 36.2171 16.5221V22.9213C35.2551 22.8502 34.7083 22.4099 34.3484 21.6784C34.1962 20.3999 34.3138 18.042 34.7429 15.8119C35.3727 13.3687 36.1202 10.2579 38.7086 9.6187C39.3938 9.46245 40.2381 9.44824 41.2278 9.44824Z" fill="white"/>
<path d="M42.1968 8.41125H42.6882C44.0862 8.43966 44.9513 8.63853 45.6157 9.05756C48.6886 11.799 48.8616 17.6229 48.8685 21.2735C48.2595 21.9269 47.3598 21.9908 46.5293 21.9979V15.4851C46.5362 15.1868 46.2732 14.924 45.9825 14.924C45.6919 14.924 45.4358 15.1868 45.4358 15.4851V35.5419C45.4358 36.3587 44.7506 37.0405 43.8301 37.0405H42.3352C42.4529 36.934 42.5221 36.7777 42.529 36.6215V20.7266C42.5359 20.4283 42.2729 20.1655 41.9822 20.1655C41.6916 20.1655 41.4355 20.4283 41.4355 20.7266V36.6144C41.4355 36.7706 41.4978 36.9269 41.6154 37.0334H39.8852C38.9647 37.0334 38.2796 36.3516 38.2796 35.5348V15.4851C38.2865 15.1868 38.0235 14.924 37.7328 14.924C37.4421 14.924 37.1861 15.1868 37.1861 15.4851V21.8843C36.2241 21.8132 35.6773 21.3729 35.3174 20.6414C35.1652 19.363 35.2828 17.005 35.7119 14.7749C36.3417 12.3317 37.0892 9.22091 39.6776 8.58171C40.3628 8.42546 41.2002 8.41125 42.1968 8.41125Z" fill="#CCB8F4"/>
<path d="M41.3732 1.11725C43.145 1.11725 44.5569 2.58742 44.5569 4.3985C44.5569 6.21668 43.1381 7.66554 41.3732 7.66554C39.6015 7.66554 38.1758 6.20958 38.1758 4.3985C38.1758 2.58742 39.6084 1.11725 41.3732 1.11725Z" fill="white"/>
<path d="M8.27738 4.4198C9.71001 4.4198 10.8658 5.60588 10.8658 7.07605C10.8658 8.54622 9.71001 9.7181 8.27738 9.7181C6.84476 9.7181 5.68896 8.54622 5.68896 7.07605C5.68896 5.60588 6.84476 4.4198 8.27738 4.4198Z" fill="white"/>
<path d="M25.0468 11.0675C26.2856 11.0675 27.2823 12.0902 27.2823 13.3615C27.2823 14.6328 26.2856 15.6556 25.0468 15.6556C23.808 15.6556 22.8252 14.6328 22.8252 13.3615C22.8321 12.0902 23.8149 11.0675 25.0468 11.0675Z" fill="white"/>
<path d="M5.99349 30.4283H7.13544V38.3261C7.13544 38.667 6.90705 38.9156 6.57485 38.9156C6.24265 38.9156 5.98657 38.667 5.98657 38.3261V30.4283H5.99349Z" fill="white"/>
<path d="M10.0907 30.4283H11.2326V38.3261C11.2326 38.667 10.9904 38.9156 10.6582 38.9156C10.326 38.9156 10.0837 38.667 10.0837 38.3261V30.4283H10.0907Z" fill="white"/>
<path d="M24.9431 17.2536C26.7494 17.2536 27.9052 17.8573 28.6873 19.2351C28.6942 19.2422 28.6942 19.2564 28.7011 19.2635C29.3586 20.8616 29.7808 24.5974 29.76 26.5718C29.3724 26.9766 28.8395 26.9766 28.2997 27.005V22.3388C28.3066 22.0405 28.0436 21.7777 27.7529 21.7777C27.4623 21.7777 27.2062 22.0405 27.2062 22.3388V37.2252C26.874 38.2905 26.2234 38.1911 25.3029 38.1911C25.3652 34.2351 25.3306 30.2152 25.3306 26.2451C25.3375 25.9468 25.0746 25.684 24.7839 25.684C24.4932 25.684 24.2371 25.9468 24.2371 26.2451V38.0277C23.5727 38.532 22.1955 38.0277 22.1678 37.2323V22.3459C22.1747 22.0476 21.9117 21.7849 21.621 21.7849C21.3303 21.7849 21.0743 22.0476 21.0743 22.3459V26.9269C20.4652 26.8843 20.2092 26.5505 19.9738 26.1314C19.87 25.2081 19.9462 23.4823 20.2576 21.8559C20.7559 18.9297 22.147 17.2678 24.9431 17.2536Z" fill="white"/>
<path d="M24.2302 17.0405C26.0365 17.0405 27.1923 17.6442 27.9744 19.0221C27.9813 19.0292 27.9813 19.0434 27.9882 19.0505C28.6457 20.6485 29.0679 24.3843 29.0471 26.3587C28.6595 26.7635 28.1266 26.7635 27.5868 26.7919V22.1258C27.5937 21.8275 27.3307 21.5647 27.0401 21.5647C26.7494 21.5647 26.4933 21.8275 26.4933 22.1258V37.0121C26.1611 38.0775 25.5105 37.978 24.5901 37.978C24.6523 34.0221 24.6177 30.0022 24.6177 26.032C24.6247 25.7337 24.3617 25.4709 24.071 25.4709C23.7803 25.4709 23.5242 25.7337 23.5242 26.032V37.8147C22.8598 38.3189 21.4826 37.8147 21.4549 37.0192V22.1258C21.4618 21.8275 21.1988 21.5647 20.9081 21.5647C20.6175 21.5647 20.3614 21.8275 20.3614 22.1258V26.7067C19.7523 26.6641 19.4963 26.3303 19.261 25.9113C19.1571 24.988 19.2333 23.2621 19.5447 21.6357C20.043 18.7096 21.4341 17.0476 24.2302 17.0405Z" fill="#A3EFE0"/>
<path d="M41.3732 0C39.0131 0 37.0822 1.98154 37.0822 4.40342C37.0822 6.2216 38.1619 7.777 39.6983 8.44461C39.2969 8.47302 38.854 8.44461 38.4733 8.52984C35.5596 9.37501 34.2516 12.9404 33.6633 15.5895C33.1996 17.9759 33.0681 20.4475 33.2688 21.946C33.8432 23.2245 35.1443 23.956 36.2102 24.098V36.5767C36.2102 38.0398 37.4421 39.1903 38.9093 39.1903H42.8612C44.3284 39.1903 45.5603 38.0398 45.5603 36.5767V24.1548C46.8338 24.1406 48.6193 23.7784 48.9931 22.5782C49 22.5355 49.0069 22.4858 49.0069 22.4361C48.5432 18.1321 49.0623 11.7116 45.2073 9.13351C44.5914 8.74999 43.8232 8.57247 42.958 8.46594C44.536 7.81963 45.6572 6.25712 45.6572 4.41053C45.6503 1.98155 43.7332 0 41.3732 0ZM41.3732 1.12217C43.1449 1.12217 44.5568 2.59234 44.5568 4.40342C44.5568 6.2216 43.138 7.67045 41.3732 7.67045C39.6014 7.67045 38.1757 6.2145 38.1757 4.40342C38.1757 2.58524 39.6083 1.12217 41.3732 1.12217ZM8.2774 3.33097C6.27034 3.33097 4.63008 5.01422 4.63008 7.07388C4.63008 8.60087 5.53672 9.90058 6.82401 10.483C5.27373 10.7528 3.93107 11.5128 2.98291 12.7344C1.9863 14.2898 1.3911 16.1293 0.899717 17.6989C0.899717 17.706 0.899717 17.706 0.899717 17.7131C0.574435 18.8565 0.0484463 20.1137 0 21.2784C0 22.7273 0.865113 23.4517 2.06935 23.6435C1.64717 25.7387 1.23192 27.9616 0.872034 29.7798C0.809746 30.0923 1.07966 30.4333 1.3911 30.4333H4.9346V38.331C4.9346 39.2543 5.68206 40.0071 6.58178 40.0071C7.4815 40.0071 8.20127 39.2543 8.20127 38.331V30.4262H9.03178V38.3239C9.03178 39.2472 9.76539 40 10.6651 40C11.5648 40 12.2984 39.2472 12.2984 38.3239V30.4262H15.5236C15.8489 30.4262 16.1188 30.0639 16.0427 29.7443L14.5823 23.75C15.4544 23.608 16.0911 22.9972 16.3126 22.2017C16.7347 19.2259 15.3852 16.4915 14.1186 13.7713C14.1117 13.7571 14.1117 13.7429 14.1048 13.7287C13.1428 12.0029 11.5856 10.8878 9.62698 10.5256C10.9696 9.9716 11.9316 8.64348 11.9316 7.07388C11.9316 5.01422 10.2845 3.33097 8.2774 3.33097ZM8.2774 4.41764C9.71003 4.41764 10.8658 5.60371 10.8658 7.07388C10.8658 8.54405 9.71003 9.7159 8.2774 9.7159C6.84477 9.7159 5.68898 8.54405 5.68898 7.07388C5.68898 5.60371 6.84477 4.41764 8.2774 4.41764ZM25.0467 9.94318C23.2196 9.94318 21.7386 11.4773 21.7386 13.3523C21.7386 14.6023 22.4306 15.6392 23.4134 16.2287C20.7627 16.6193 19.6761 19.3111 19.2055 21.6264C18.8595 23.4091 18.7556 25.2486 18.9079 26.3921C19.3578 27.4645 20.0983 27.9545 21.088 28.0966V37.223C21.614 39.8864 24.0986 39.304 26.1679 39.304C27.3237 39.304 28.3065 38.3878 28.3065 37.223V28.125C29.483 27.9049 30.5558 27.6776 30.8672 26.7259C30.9018 24.5952 30.535 20.8097 29.6976 18.7997C29.6907 18.7784 29.6768 18.7642 29.6699 18.7429C28.9225 17.3935 28.0227 16.5341 26.6593 16.2713C27.6698 15.6889 28.3757 14.6165 28.3757 13.3523C28.3757 11.4844 26.8739 9.94318 25.0467 9.94318ZM41.2278 9.44601H41.7192C43.1172 9.47442 43.9823 9.67331 44.6467 10.0923C47.7196 12.8338 47.8927 18.6577 47.8996 22.3083C47.2905 22.9617 46.3908 23.0256 45.5603 23.0327V16.5199C45.5672 16.2216 45.3042 15.9588 45.0136 15.9588C44.7229 15.9588 44.4668 16.2216 44.4668 16.5199V36.5767C44.4668 37.3935 43.7816 38.0753 42.8612 38.0753H41.3662C41.4839 37.9687 41.5531 37.8125 41.56 37.6563V21.7614C41.5669 21.4631 41.3039 21.2003 41.0133 21.2003C40.7226 21.2003 40.4665 21.4631 40.4665 21.7614V37.6492C40.4665 37.8054 40.5288 37.9617 40.6465 38.0682H38.9162C37.9958 38.0682 37.3106 37.3864 37.3106 36.5696V16.5128C37.3175 16.2145 37.0545 15.9517 36.7638 15.9517C36.4732 15.9517 36.2171 16.2145 36.2171 16.5128V22.9119C35.2551 22.8409 34.7083 22.4006 34.3484 21.669C34.1962 20.3906 34.3138 18.0327 34.7429 15.8026C35.3727 13.3594 36.1202 10.2486 38.7086 9.6094C39.3938 9.46025 40.2381 9.44601 41.2278 9.44601ZM25.0467 11.0654C26.2856 11.0654 27.2822 12.0881 27.2822 13.3594C27.2822 14.6307 26.2856 15.6534 25.0467 15.6534C23.8079 15.6534 22.8251 14.6307 22.8251 13.3594C22.8321 12.0881 23.8148 11.0654 25.0467 11.0654ZM8.06285 11.4489H8.45734H8.47119C10.6513 11.4986 12.1739 12.4858 13.1566 14.233C13.1636 14.2472 13.1774 14.2614 13.1843 14.2756C13.9664 16.7685 15.9458 19.2685 15.2952 21.9176C15.1153 22.4716 14.7969 22.5853 14.3124 22.6705L12.596 15.5682C12.5614 15.2628 12.2362 15.0355 11.9455 15.1065C11.6548 15.1776 11.4679 15.5469 11.5787 15.831L14.8453 29.3324H2.02782C2.92754 24.7727 3.86878 20.0213 4.69929 15.8168C4.78927 15.5256 4.59548 15.1776 4.3048 15.1208C4.01412 15.0568 3.69576 15.2912 3.66808 15.5966C3.20438 17.9262 2.75452 20.2557 2.29082 22.5852C1.47415 22.4929 1.02429 22.0455 1.05198 21.3281C1.08658 20.5043 1.57797 19.2614 1.92401 18.0469V18.0327C2.42232 16.4418 2.9483 14.7017 3.82034 13.4091C3.82726 13.402 3.82726 13.402 3.83418 13.3949C4.80311 12.1449 6.28418 11.4489 8.06285 11.4489ZM24.9429 17.2585C26.7493 17.2585 27.9051 17.8622 28.6871 19.2401C28.6941 19.2472 28.6941 19.2614 28.701 19.2685C29.3585 20.8665 29.7806 24.6023 29.7599 26.5767C29.3723 26.9816 28.8394 26.9816 28.2996 27.01V22.3438C28.3065 22.0455 28.0435 21.7827 27.7528 21.7827C27.4621 21.7827 27.2061 22.0455 27.2061 22.3438V37.2301C26.8739 38.2955 26.2233 38.196 25.3028 38.196C25.3651 34.2401 25.3305 30.2202 25.3305 26.25C25.3374 25.9517 25.0744 25.689 24.7838 25.689C24.4931 25.689 24.237 25.9517 24.237 26.25V38.0327C23.5726 38.5369 22.1953 38.0327 22.1677 37.2372V22.3509C22.1746 22.0526 21.9116 21.7898 21.6209 21.7898C21.3302 21.7898 21.0742 22.0526 21.0742 22.3509V26.9319C20.4651 26.8892 20.209 26.5554 19.9737 26.1364C19.8699 25.2131 19.946 23.4872 20.2575 21.8608C20.7558 18.9276 22.1469 17.2656 24.9429 17.2585ZM5.9935 30.4262H7.13545V38.3239C7.13545 38.6648 6.90706 38.9134 6.57486 38.9134C6.24265 38.9134 5.98658 38.6648 5.98658 38.3239V30.4262H5.9935ZM10.0907 30.4262H11.2326V38.3239C11.2326 38.6648 10.9904 38.9134 10.6582 38.9134C10.326 38.9134 10.0838 38.6648 10.0838 38.3239V30.4262H10.0907Z" fill="#464860"/>
</svg>
