<svg width="78" height="78" viewBox="0 0 78 78" fill="none" xmlns="http://www.w3.org/2000/svg">
<rect width="78" height="78" fill="white"/>
<path d="M32.8996 20.4907C33.5796 20.4907 34.1927 20.6432 34.7539 20.9228C35.3152 21.2024 35.8245 21.611 36.2642 22.1165C36.7038 22.6219 37.0773 23.2248 37.3634 23.8865C37.6494 24.5475 37.8467 25.2712 37.9519 26.0063C38.057 26.7413 38.07 27.4947 37.9744 28.2184C37.8788 28.9421 37.6836 29.6354 37.375 30.2661C37.0664 30.8968 36.6404 31.456 36.1092 31.9229C35.8436 32.1563 35.5582 32.3688 35.2319 32.5504C34.9055 32.7319 34.5478 32.8913 34.1545 33.0134C33.9545 33.0761 33.82 33.25 33.8213 33.4455L33.8882 35.9354L33.9551 38.4252L34.0221 40.9151L34.0999 43.3948L34.1668 45.8847L34.2337 48.3746L34.3006 50.8543L34.3784 53.3442C34.4044 54.2633 34.2542 54.968 34.0009 55.3919C33.7476 55.8157 33.4547 55.9992 32.9017 55.9992C32.3487 55.9992 32.0558 55.8163 31.8025 55.3919C31.5492 54.968 31.4106 54.2633 31.4358 53.3442L31.5028 50.8543L31.5697 48.3746L31.6332 45.8847L31.711 43.3948L31.7779 40.9151L31.8448 38.4252L31.9226 35.9354L31.9895 33.4455C31.9909 33.25 31.8564 33.0754 31.6564 33.0134C31.2638 32.8913 30.9054 32.7319 30.579 32.5504C30.2527 32.3688 29.9564 32.1563 29.6908 31.9229C29.1589 31.456 28.7445 30.8968 28.4359 30.2661C28.1273 29.6354 27.9211 28.9421 27.8248 28.2184C27.7293 27.4947 27.7422 26.7413 27.8474 26.0063C27.9525 25.2712 28.1498 24.5481 28.4359 23.8865C28.722 23.2254 29.0954 22.6219 29.5351 22.1165C29.9748 21.611 30.4834 21.203 31.0453 20.9228C31.6072 20.6425 32.2196 20.4907 32.8996 20.4907Z" fill="white"/>
<path d="M33.8337 21.425C34.5137 21.425 35.1268 21.5815 35.688 21.8685C36.2499 22.1554 36.7586 22.5748 37.1982 23.0936C37.6379 23.6123 38.0114 24.231 38.2975 24.9101C38.5835 25.5886 38.7808 26.3313 38.886 27.0857C38.9911 27.8401 39.0041 28.6134 38.9085 29.3561C38.8129 30.0988 38.6177 30.8104 38.3091 31.4577C38.0005 32.105 37.5744 32.6789 37.0433 33.158C36.7777 33.3976 36.4923 33.6157 36.1659 33.8021C35.8396 33.9884 35.4818 34.152 35.0886 34.2773C34.8885 34.3416 34.754 34.5201 34.7554 34.7207L34.8223 37.2761L34.8892 39.8315L34.9561 42.3869L35.034 44.9319L35.1009 47.4873L35.1678 50.0427L35.2347 52.5877L35.3125 55.1431C35.3385 56.0864 35.1883 56.8097 34.935 57.2447C34.6817 57.6796 34.3888 57.8679 33.8358 57.8679C33.2827 57.8679 32.9899 57.6803 32.7366 57.2447C32.4833 56.8097 32.3447 56.0864 32.3699 55.1431L32.4368 52.5877L32.5037 50.0427L32.5672 47.4873L32.6451 44.9319L32.712 42.3869L32.7789 39.8315L32.8567 37.2761L32.9236 34.7207C32.925 34.5201 32.7905 34.3409 32.5905 34.2773C32.1979 34.152 31.8394 33.9884 31.5131 33.8021C31.1867 33.6157 30.8904 33.3976 30.6249 33.158C30.093 32.6789 29.6786 32.105 29.37 31.4577C29.0614 30.8104 28.8552 30.0988 28.7589 29.3561C28.6633 28.6134 28.6763 27.8401 28.7815 27.0857C28.8866 26.3313 29.0839 25.5892 29.37 24.9101C29.656 24.2317 30.0295 23.6123 30.4692 23.0936C30.9089 22.5748 31.4175 22.1561 31.9794 21.8685C32.5413 21.5809 33.1537 21.425 33.8337 21.425Z" fill="#CCB8F4"/>
<path d="M45.5146 21.425C45.6647 22.216 45.8228 23.2027 45.9864 24.2136C46.1606 25.2882 46.3329 26.3571 46.4787 27.1474C46.5515 27.5426 46.617 27.8741 46.6794 28.1118C46.7103 28.231 46.7424 28.3202 46.7899 28.4228C46.8017 28.4483 46.8103 28.4738 46.8301 28.5057C46.84 28.5216 46.8548 28.5382 46.8702 28.5573C46.8857 28.5764 46.9283 28.6172 46.9307 28.6198C46.9332 28.6223 47.0289 28.6912 47.0314 28.6924C47.0339 28.6937 47.2 28.7339 47.2025 28.7339C47.205 28.7339 47.4014 28.7141 47.4032 28.7128C47.4057 28.7122 47.5416 28.6217 47.544 28.6198C47.5453 28.6192 47.6231 28.5178 47.6243 28.5159C47.6256 28.514 47.6478 28.4783 47.6546 28.4643C47.6675 28.4362 47.6682 28.4203 47.675 28.4018C47.6879 28.3648 47.704 28.3272 47.7151 28.2877C47.7367 28.2087 47.7565 28.1099 47.7855 27.9869C47.8436 27.7408 47.9201 27.403 48.0066 27.0021C48.1795 26.2003 48.4013 25.1461 48.6292 24.0995C48.7718 23.4449 48.9034 22.9006 49.0411 22.3161C49.0602 22.6246 49.0961 23.0153 49.1115 23.3009C49.1659 24.2907 49.2023 25.1454 49.2221 25.9339C49.2418 26.7223 49.2523 27.4425 49.2523 28.1424C49.2523 28.8384 49.2468 29.5191 49.2424 30.2368C49.2239 30.9685 48.9917 31.465 48.5692 31.8749C48.358 32.0795 48.0937 32.2548 47.7756 32.4141C47.4576 32.5735 47.0864 32.7137 46.6707 32.829C46.4743 32.8813 46.3372 33.0655 46.3391 33.2746L46.4694 38.292L46.5898 43.2993L46.7201 48.3167L46.8505 53.324C46.8739 54.2501 46.7381 54.9601 46.5089 55.3872C46.2798 55.8142 46.0148 55.9991 45.5146 55.9991C45.0143 55.9991 44.7494 55.8149 44.5202 55.3872C44.2911 54.9601 44.1657 54.2501 44.1886 53.324L44.309 48.3167L44.4393 43.2993L44.5598 38.292L44.6901 33.2746C44.6919 33.0649 44.5548 32.8813 44.3584 32.829C43.9428 32.7143 43.5716 32.5735 43.2535 32.4141C42.9355 32.2548 42.6711 32.0801 42.4599 31.8749C42.04 31.467 41.8077 30.9724 41.7867 30.247C41.7824 29.5261 41.7769 28.8422 41.7769 28.1424C41.7769 27.4432 41.7874 26.7229 41.8071 25.9339C41.8269 25.1454 41.8633 24.2901 41.9177 23.3009C41.9282 23.1116 41.9461 22.847 41.9578 22.6475C42.0665 23.1096 42.1635 23.4882 42.279 23.9848C42.5285 25.0536 42.7829 26.1429 42.9824 26.9703C43.0818 27.3839 43.1671 27.7319 43.2338 27.9862C43.2671 28.1131 43.29 28.217 43.3141 28.2973C43.3264 28.3374 43.3406 28.3648 43.3542 28.4012C43.361 28.419 43.3715 28.4369 43.3845 28.4636C43.3907 28.477 43.4036 28.5133 43.4049 28.5153C43.4061 28.5172 43.4839 28.6179 43.4851 28.6192C43.487 28.6211 43.6235 28.7116 43.626 28.7122C43.6284 28.7128 43.8248 28.7332 43.8267 28.7332C43.8291 28.7332 43.9953 28.6931 43.9978 28.6918C44.0002 28.6905 44.096 28.6217 44.0984 28.6192C44.1009 28.6166 44.1435 28.5758 44.1589 28.5567C44.1744 28.5376 44.1892 28.521 44.1991 28.5051C44.2195 28.4732 44.2275 28.4477 44.2392 28.4222C44.2868 28.3196 44.3183 28.2303 44.3498 28.1112C44.4122 27.8734 44.4776 27.5426 44.5505 27.1468C44.6963 26.3558 44.8686 25.2876 45.0427 24.2129C45.2064 23.2027 45.3645 22.216 45.5146 21.425Z" fill="white"/>
<path d="M46.4487 22.3596C46.5987 23.1506 46.7569 24.1373 46.9205 25.1482C47.0947 26.2228 47.267 27.2917 47.4127 28.082C47.4856 28.4772 47.5511 28.8086 47.6135 29.0464C47.6443 29.1656 47.6765 29.2548 47.724 29.3574C47.7358 29.3829 47.7444 29.4084 47.7642 29.4403C47.774 29.4562 47.7889 29.4728 47.8043 29.4919C47.8197 29.511 47.8624 29.5518 47.8648 29.5544C47.8673 29.5569 47.963 29.6257 47.9655 29.627C47.968 29.6283 48.1341 29.6684 48.1366 29.6684C48.139 29.6684 48.3354 29.6487 48.3373 29.6474C48.3398 29.6468 48.4756 29.5563 48.4781 29.5544C48.4793 29.5537 48.5572 29.4524 48.5584 29.4505C48.5596 29.4486 48.5819 29.4129 48.5887 29.3988C48.6016 29.3708 48.6022 29.3549 48.609 29.3364C48.622 29.2994 48.6381 29.2618 48.6492 29.2223C48.6708 29.1432 48.6906 29.0445 48.7196 28.9214C48.7776 28.6754 48.8542 28.3376 48.9407 27.9367C49.1136 27.1349 49.3353 26.0806 49.5632 25.0341C49.7059 24.3795 49.8375 23.8352 49.9752 23.2507C49.9943 23.5592 50.0301 23.9499 50.0456 24.2354C50.0999 25.2253 50.1364 26.08 50.1561 26.8684C50.1759 27.6569 50.1864 28.3771 50.1864 29.077C50.1864 29.773 50.1808 30.4537 50.1765 31.1714C50.158 31.9031 49.9258 32.3996 49.5033 32.8095C49.2921 33.0141 49.0278 33.1893 48.7097 33.3487C48.3916 33.508 48.0205 33.6482 47.6048 33.7636C47.4084 33.8159 47.2713 34.0001 47.2732 34.2091L47.4035 39.2266L47.5239 44.2338L47.6542 49.2513L47.7845 54.2585C47.808 55.1847 47.6721 55.8947 47.443 56.3217C47.2139 56.7488 46.9489 56.9336 46.4487 56.9336C45.9484 56.9336 45.6835 56.7494 45.4543 56.3217C45.2252 55.8947 45.0998 55.1847 45.1227 54.2585L45.2431 49.2513L45.3734 44.2338L45.4939 39.2266L45.6242 34.2091C45.626 33.9994 45.4889 33.8159 45.2925 33.7636C44.8769 33.6489 44.5057 33.508 44.1876 33.3487C43.8696 33.1893 43.6052 33.0147 43.394 32.8095C42.974 32.4015 42.7418 31.9069 42.7208 31.1816C42.7165 30.4607 42.7109 29.7768 42.7109 29.077C42.7109 28.3778 42.7214 27.6575 42.7412 26.8684C42.761 26.08 42.7974 25.2246 42.8518 24.2354C42.8623 24.0461 42.8802 23.7816 42.8919 23.5821C43.0006 24.0442 43.0976 24.4228 43.213 24.9193C43.4626 25.9882 43.717 27.0775 43.9165 27.9048C44.0159 28.3185 44.1012 28.6665 44.1679 28.9208C44.2012 29.0476 44.2241 29.1515 44.2482 29.2318C44.2605 29.272 44.2747 29.2994 44.2883 29.3357C44.2951 29.3536 44.3056 29.3714 44.3186 29.3982C44.3247 29.4116 44.3377 29.4479 44.3389 29.4498C44.3402 29.4517 44.418 29.5524 44.4192 29.5537C44.4211 29.5556 44.5576 29.6461 44.56 29.6468C44.5625 29.6474 44.7589 29.6678 44.7608 29.6678C44.7632 29.6678 44.9294 29.6277 44.9318 29.6264C44.9343 29.6251 45.03 29.5563 45.0325 29.5537C45.035 29.5512 45.0776 29.5104 45.093 29.4913C45.1085 29.4721 45.1233 29.4556 45.1332 29.4396C45.1536 29.4078 45.1616 29.3823 45.1733 29.3568C45.2209 29.2542 45.2524 29.1649 45.2839 29.0457C45.3462 28.808 45.4117 28.4772 45.4846 28.0814C45.6303 27.2904 45.8027 26.2221 45.9768 25.1475C46.1405 24.1373 46.2986 23.1506 46.4487 22.3596Z" fill="#A3EFE0"/>
<path d="M45.4364 20.0012C45.4333 20.0043 45.4295 20.0081 45.4264 20.0112C45.4232 20.0118 45.2973 20.0507 45.2941 20.0519C45.291 20.0532 45.2265 20.0839 45.2026 20.1027C45.1538 20.1403 45.1243 20.1735 45.1005 20.2049C45.0529 20.2669 45.0322 20.3164 45.009 20.3678C44.962 20.4712 44.9244 20.5834 44.8868 20.7144C44.8116 20.977 44.7345 21.3241 44.6524 21.734C44.4882 22.5525 44.3096 23.6216 44.1322 24.6801C43.9881 25.5424 43.8502 26.3177 43.7243 27.0146C43.5344 26.2437 43.31 25.33 43.0819 24.3849C42.8287 23.3333 42.5787 22.3049 42.3888 21.551C42.2941 21.1744 42.2133 20.8623 42.1544 20.6542C42.1249 20.5502 42.1099 20.4806 42.0829 20.4098C42.0761 20.3922 42.0635 20.3722 42.0522 20.3484C42.0466 20.3365 42.0422 20.3252 42.0316 20.3076C42.0209 20.2901 41.9814 20.2274 41.9808 20.2262C41.9802 20.2255 41.91 20.1654 41.9094 20.1648C41.9094 20.1648 41.888 20.1591 41.8786 20.1547C41.8717 20.151 41.8649 20.1478 41.8586 20.1447C41.8473 20.1391 41.8504 20.1309 41.8379 20.124C41.8153 20.1115 41.7909 20.1015 41.7665 20.0933C41.7665 20.0933 41.7571 20.0933 41.7564 20.0933C41.6831 20.0745 41.606 20.0745 41.5321 20.0933C41.5289 20.0933 41.512 20.0933 41.5114 20.0933C41.5114 20.0933 41.4945 20.1015 41.4907 20.1033C41.4205 20.1284 41.3572 20.1704 41.3071 20.2255C41.2964 20.2387 41.2858 20.2519 41.2764 20.2663C41.257 20.2882 41.24 20.312 41.2256 20.3377C41.2018 20.3891 41.188 20.4443 41.1849 20.5007C41.1843 20.5144 41.1843 20.5276 41.1849 20.5414C41.0815 21.8073 41.005 22.9047 40.9505 23.8748C40.8954 24.8562 40.8584 25.7098 40.8383 26.4944C40.8183 27.279 40.8076 27.9928 40.8076 28.686C40.8076 29.3791 40.8133 30.0478 40.8176 30.7553C40.8176 30.7584 40.8176 30.7622 40.8176 30.7653C40.8415 31.6853 41.1987 32.4555 41.7859 33.0077C42.0792 33.284 42.4276 33.5021 42.8156 33.6908C43.1013 33.8293 43.4253 33.9352 43.7531 34.0373L43.6309 38.6448L43.5087 43.5681L43.3764 48.4915L43.2442 53.4248C43.2185 54.4275 43.3457 55.2667 43.703 55.9122C44.0602 56.5577 44.7163 56.9725 45.4972 56.9725C46.2774 56.9725 46.9336 56.5577 47.2914 55.9122C47.6486 55.2667 47.7759 54.4282 47.7502 53.4248L47.6179 48.4915L47.4857 43.5681L47.3635 38.6448L47.2413 34.0373C47.5691 33.9352 47.8937 33.8293 48.1788 33.6908C48.5668 33.5027 48.9146 33.284 49.2085 33.0077C49.7957 32.4549 50.1529 31.6853 50.1767 30.7653C50.1767 30.7622 50.1767 30.7584 50.1767 30.7553C50.1811 30.0478 50.1868 29.3791 50.1868 28.686C50.1868 27.9928 50.1761 27.279 50.1561 26.4944C50.136 25.7098 50.099 24.8562 50.0439 23.8748C49.9887 22.8934 49.9154 21.786 49.8095 20.5007C49.7919 20.2907 49.6309 20.1209 49.4222 20.0927C49.4191 20.0921 49.2724 20.0921 49.2693 20.0927C49.2661 20.0933 49.1502 20.1322 49.1471 20.1334C49.1439 20.1353 49.0882 20.1673 49.0656 20.1842C49.043 20.2017 49.0199 20.2193 49.0042 20.2349C48.9421 20.2976 48.9196 20.349 48.892 20.3979C48.8375 20.4956 48.7936 20.5922 48.7491 20.7137C48.6608 20.9575 48.568 21.2834 48.464 21.672C48.2559 22.4491 48.014 23.4819 47.7809 24.5159C47.5866 25.3801 47.4092 26.1823 47.2507 26.9011C47.1297 26.2237 47.0006 25.4998 46.8634 24.6789C46.686 23.621 46.5074 22.5518 46.3432 21.7327C46.2611 21.3235 46.1841 20.9757 46.1088 20.7131C46.0712 20.5821 46.0336 20.47 45.9866 20.3665C45.9635 20.3152 45.9421 20.2657 45.8951 20.2036C45.8713 20.1723 45.8419 20.1397 45.793 20.1015C45.7685 20.0827 45.7046 20.0519 45.7015 20.0507C45.6984 20.0494 45.5724 20.0106 45.5693 20.01C45.5254 20.0012 45.4803 19.9981 45.4364 20.0012ZM45.4972 22.0806C45.6495 22.8583 45.8099 23.8284 45.976 24.8224C46.1527 25.879 46.3276 26.9299 46.4755 27.7071C46.5494 28.0956 46.6158 28.4215 46.6791 28.6552C46.7105 28.7724 46.7431 28.8602 46.7913 28.9611C46.8032 28.9861 46.812 29.0112 46.8321 29.0425C46.8421 29.0582 46.8571 29.0745 46.8728 29.0933C46.8885 29.1121 46.9317 29.1522 46.9342 29.1547C46.9367 29.1572 47.0339 29.2249 47.0364 29.2262C47.0389 29.2274 47.2074 29.2669 47.21 29.2669C47.2125 29.2669 47.4118 29.2475 47.4136 29.2462C47.4161 29.2456 47.554 29.1566 47.5565 29.1547C47.5578 29.1541 47.6367 29.0545 47.638 29.0526C47.6392 29.0507 47.6618 29.0156 47.6687 29.0018C47.6819 28.9742 47.6825 28.9586 47.6894 28.9404C47.7025 28.904 47.7188 28.8671 47.7301 28.8282C47.752 28.7505 47.7721 28.6534 47.8016 28.5324C47.8605 28.2905 47.9382 27.9584 48.0259 27.5642C48.2014 26.7758 48.4264 25.7392 48.6576 24.7102C48.8024 24.0666 48.9359 23.5314 49.0756 22.9567C49.0951 23.26 49.1314 23.6442 49.1471 23.9249C49.2022 24.8982 49.2392 25.7386 49.2593 26.5138C49.2793 27.289 49.29 27.9972 49.29 28.6853C49.29 29.3697 49.2843 30.039 49.2799 30.7447C49.2611 31.4641 49.0255 31.9523 48.5968 32.3553C48.3825 32.5564 48.1143 32.7288 47.7915 32.8854C47.4688 33.0421 47.0921 33.18 46.6704 33.2934C46.4711 33.3448 46.332 33.5259 46.3338 33.7315L46.4661 38.6648L46.5883 43.5882L46.7205 48.5215L46.8527 53.4449C46.8766 54.3555 46.7387 55.0536 46.5062 55.4735C46.2737 55.8934 46.0048 56.0751 45.4972 56.0751C44.9896 56.0751 44.7207 55.894 44.4882 55.4735C44.2557 55.0536 44.1285 54.3555 44.1517 53.4449L44.2739 48.5215L44.4061 43.5882L44.5283 38.6648L44.6606 33.7315C44.6624 33.5253 44.5233 33.3448 44.324 33.2934C43.9022 33.1806 43.5256 33.0421 43.2029 32.8854C42.8801 32.7288 42.6119 32.5571 42.3975 32.3553C41.9714 31.9542 41.7358 31.4679 41.7144 30.7547C41.7101 30.0459 41.7044 29.3734 41.7044 28.6853C41.7044 27.9978 41.7151 27.2897 41.7351 26.5138C41.7552 25.7386 41.7922 24.8976 41.8473 23.9249C41.858 23.7388 41.8761 23.4787 41.888 23.2826C41.9983 23.7369 42.0967 24.1092 42.2139 24.5974C42.4671 25.6484 42.7253 26.7194 42.9277 27.5328C43.0286 27.9396 43.1151 28.2817 43.1828 28.5318C43.2166 28.6565 43.2398 28.7586 43.2643 28.8376C43.2768 28.8771 43.2912 28.904 43.305 28.9398C43.3119 28.9573 43.3226 28.9749 43.3357 29.0012C43.342 29.0143 43.3551 29.0501 43.3564 29.0519C43.3576 29.0538 43.4366 29.1528 43.4379 29.1541C43.4397 29.156 43.5782 29.245 43.5808 29.2456C43.5833 29.2462 43.7825 29.2663 43.7844 29.2663C43.7869 29.2663 43.9555 29.2268 43.958 29.2255C43.9605 29.2243 44.0577 29.1566 44.0602 29.1541C44.0627 29.1516 44.1059 29.1115 44.1216 29.0927C44.1373 29.0739 44.1523 29.0576 44.1623 29.0419C44.183 29.0106 44.1912 28.9855 44.2031 28.9604C44.2513 28.8595 44.2833 28.7718 44.3152 28.6546C44.3785 28.4209 44.445 28.0956 44.5189 27.7064C44.6668 26.9287 44.8417 25.8783 45.0184 24.8217C45.1845 23.8284 45.3449 22.8583 45.4972 22.0806Z" fill="#464860"/>
<path d="M32.6126 20.0015C31.8392 20.0015 31.1185 20.1995 30.4824 20.5417C29.8463 20.8839 29.298 21.3683 28.8304 21.9486C28.3629 22.5289 27.9806 23.2076 27.6886 23.9365C27.3966 24.6653 27.1929 25.4399 27.087 26.2402C26.9811 27.0405 26.9692 27.8584 27.0663 28.6561C27.1641 29.4539 27.3727 30.2317 27.698 30.9499C28.0239 31.6681 28.4632 32.3267 29.0435 32.8763C29.3337 33.1514 29.6558 33.4065 30.0118 33.6202C30.2718 33.7763 30.5733 33.8891 30.8678 34.0075L30.8064 36.179L30.745 38.6457L30.6836 41.1024L30.6222 43.569L30.5507 46.0357L30.4893 48.4924L30.431 50.959L30.3696 53.4257C30.3439 54.4284 30.4605 55.2676 30.8183 55.9131C31.1755 56.5586 31.8317 56.9735 32.6126 56.9735C33.3928 56.9735 34.049 56.5586 34.4068 55.9131C34.764 55.2676 34.8912 54.4291 34.8655 53.4257L34.7935 50.959L34.7321 48.4924L34.6706 46.0357L34.6092 43.569L34.5378 41.1024L34.4764 38.6457L34.4149 36.179L34.3642 34.0075C34.6581 33.8897 34.9508 33.7763 35.2102 33.6202C35.5662 33.4065 35.8883 33.1508 36.1785 32.8763C36.7588 32.3261 37.2088 31.6681 37.534 30.9499C37.8599 30.2317 38.0579 29.4539 38.1557 28.6561C38.2535 27.8584 38.2516 27.0405 38.1457 26.2402C38.0398 25.4399 37.8361 24.6653 37.544 23.9365C37.252 23.2076 36.8697 22.5289 36.4022 21.9486C35.9347 21.3683 35.3775 20.8845 34.7408 20.5417C34.1041 20.1989 33.3859 20.0015 32.6126 20.0015ZM32.6126 20.8983C33.2368 20.8983 33.7995 21.0493 34.3147 21.3263C34.8298 21.6033 35.2973 22.0081 35.7009 22.5089C36.1045 23.0096 36.4473 23.6069 36.7099 24.2624C36.9725 24.9173 37.1536 25.6342 37.2501 26.3624C37.3466 27.0907 37.3585 27.8371 37.2708 28.554C37.1831 29.2709 37.0038 29.9578 36.7206 30.5826C36.4373 31.2074 36.0462 31.7614 35.5587 32.2239C35.3149 32.4552 35.0529 32.6658 34.7534 32.8456C34.4538 33.0255 34.1254 33.1834 33.7644 33.3044C33.5808 33.3664 33.4573 33.5387 33.4586 33.7324L33.52 36.1991L33.5814 38.6658L33.6429 41.1324L33.7143 43.5891L33.7757 46.0558L33.8371 48.5224L33.8985 50.9791L33.97 53.4458C33.9938 54.3564 33.8559 55.0545 33.6234 55.4744C33.3909 55.8943 33.1221 56.076 32.6144 56.076C32.1068 56.076 31.838 55.8949 31.6055 55.4744C31.373 55.0545 31.2457 54.3564 31.2689 53.4458L31.3303 50.9791L31.3918 48.5224L31.45 46.0558L31.5215 43.5891L31.5829 41.1324L31.6443 38.6658L31.7158 36.1991L31.7772 33.7324C31.7784 33.5387 31.655 33.3658 31.4713 33.3044C31.111 33.1834 30.782 33.0255 30.4824 32.8456C30.1829 32.6658 29.9109 32.4552 29.6671 32.2239C29.1789 31.7614 28.7985 31.2074 28.5152 30.5826C28.2319 29.9578 28.0427 29.2709 27.9543 28.554C27.8666 27.8371 27.8785 27.0907 27.975 26.3624C28.0715 25.6342 28.2526 24.9179 28.5152 24.2624C28.7778 23.6075 29.1206 23.0096 29.5242 22.5089C29.9278 22.0081 30.3947 21.6039 30.9105 21.3263C31.4262 21.0487 31.9884 20.8983 32.6126 20.8983Z" fill="#464860"/>
</svg>
