<svg width="52" height="39" viewBox="0 0 52 39" fill="none" xmlns="http://www.w3.org/2000/svg">
<path d="M10.9165 34.1764L2.01025 36.9308L5.03151 13.7539L5.41149 13.6542L5.47636 13.7629L5.60611 13.9623L5.75439 14.2069L5.88414 14.4062L6.01389 14.6146L6.1529 14.823L6.26412 14.9952L6.39386 15.1945C6.43093 15.2489 6.468 15.3032 6.49581 15.3576C6.52361 15.412 6.57922 15.4754 6.61629 15.5388L6.71823 15.6928L6.82018 15.8469C6.22705 16.1187 5.8378 16.6804 5.80073 17.3147C5.80073 18.3385 6.93139 19.1087 8.35861 19.1087C9.58194 19.1087 10.555 18.5107 10.8053 17.7315H11.6486C11.8989 17.7315 12.112 17.5321 12.112 17.2784C12.112 17.0338 11.9081 16.8254 11.6486 16.8254H10.7867C10.6199 16.3996 10.2956 16.0553 9.88778 15.8469L9.93411 15.7834L10.2121 15.3485C10.2399 15.3123 10.2585 15.2761 10.277 15.2398C10.3697 15.0948 10.4716 14.9499 10.555 14.8049C10.5829 14.7596 10.6199 14.7143 10.6385 14.669L10.9165 14.225L11.0184 14.0619L11.2965 13.6089L11.4077 13.4277L11.7228 12.9565L11.8525 12.73C11.9359 12.5941 12.0193 12.4492 12.0935 12.3042C12.1769 12.1592 12.1954 12.1411 12.2325 12.0596L12.4178 11.7424L12.6959 11.6609L10.9165 34.1764Z" fill="white"/>
<path d="M20.8329 18.4382C20.2305 18.1936 19.6188 17.9852 18.9979 17.813C18.7569 17.7496 18.5067 17.8764 18.4326 18.112V18.1211C18.3677 18.3566 18.5067 18.6103 18.7477 18.6738C19.452 18.864 20.1471 19.0996 20.8236 19.3895L20.5456 30.072L20.3325 36.9217L11.8433 34.1854L13.6041 11.6609L20.9534 13.7176L20.8329 18.4382Z" fill="white"/>
<path d="M21.2402 36.9308L21.7222 18.4563L21.8426 13.7267L29.2846 11.6699L29.4236 16.8254L29.7016 27.7524C29.5811 27.6165 29.4607 27.4897 29.3402 27.3538C29.1734 27.1635 28.8861 27.1363 28.6914 27.2903C28.4968 27.4444 28.4598 27.7252 28.6266 27.9246C28.6266 27.9336 28.6358 27.9336 28.6358 27.9427C28.9695 28.3323 29.3402 28.7038 29.7387 29.03L29.8777 34.1945L21.2402 36.9308Z" fill="white"/>
<path d="M30.7953 34.1765L30.6748 29.6553H30.7582C30.9065 29.6553 31.0548 29.5828 31.1382 29.4651C31.2587 29.2657 31.2031 29.003 31.0177 28.8671C30.888 28.7855 30.7675 28.6949 30.6563 28.6043L30.2114 11.6882L37.7553 13.7269L39.0806 30.6429C38.5801 30.6429 38.0982 30.6429 37.6441 30.6429C37.3939 30.6339 37.1807 30.8241 37.1622 31.0688C37.1529 31.3134 37.3475 31.5218 37.607 31.5399C38.0148 31.5399 38.4411 31.5399 38.886 31.5399H39.1547L39.581 36.931L30.7953 34.1765Z" fill="white"/>
<path d="M48.8673 34.1945L40.5171 36.9308L40.0908 31.5398C40.3318 31.5217 40.5171 31.3133 40.5079 31.0777C40.5079 30.8421 40.3132 30.6428 40.0723 30.6428C40.063 30.6428 40.0445 30.6428 40.0352 30.6428L38.6821 13.7086L45.8924 11.6519L46.1333 13.5002C46.1148 13.5002 46.087 13.5002 46.0685 13.5002H45.4197H45.1417L44.7525 13.5546L44.493 13.6089L44.113 13.6995L43.8813 13.7811C43.7423 13.8264 43.6218 13.8626 43.492 13.917L43.2882 14.0076C43.1584 14.062 43.0379 14.1254 42.9082 14.1888L42.7321 14.2885C42.6024 14.361 42.4819 14.4425 42.3614 14.515L42.2038 14.6328C42.0834 14.7143 41.9629 14.8049 41.8517 14.9046L41.7127 15.0224C41.5922 15.1221 41.4902 15.2217 41.379 15.3304L41.2585 15.4573C41.1566 15.566 41.0547 15.6838 40.962 15.8016L40.8508 15.9375C40.7581 16.0553 40.6747 16.1821 40.5913 16.309L40.4893 16.463C40.4059 16.5899 40.341 16.7167 40.2762 16.8526C40.2113 16.9885 40.2113 16.9704 40.1928 17.0248C40.1742 17.0791 40.0723 17.2966 40.0167 17.4325C39.9889 17.4959 39.9703 17.5593 39.9518 17.6228C39.9055 17.7587 39.8684 17.8946 39.8313 18.0396C39.7943 18.1845 39.785 18.1755 39.7757 18.2389C39.7664 18.3023 39.7201 18.5469 39.6923 18.6919C39.6923 18.7553 39.6923 18.8097 39.6923 18.8731C39.6645 19.0906 39.6552 19.308 39.6552 19.5345C39.6552 21.8087 42.4541 26.4568 44.3261 29.3018C43.8813 29.5193 43.5291 29.8908 43.3716 30.3529L42.5375 30.4344C42.2873 30.4706 42.1112 30.6972 42.1575 30.9509C42.1946 31.1592 42.3707 31.3223 42.5838 31.3314H42.6302L43.4086 31.2499C43.872 32.1378 44.8451 32.6633 45.8553 32.5818C47.2918 32.5818 48.4132 31.7754 48.4132 30.7878C48.4132 30.7878 48.4132 30.7878 48.4132 30.7425L48.8673 34.1945Z" fill="white"/>
<path d="M11.9819 35.0372L3.07568 37.7916L6.09694 14.6147L6.47692 14.515L6.54179 14.6237L6.67154 14.8231L6.81982 15.0677L6.94957 15.267L7.07932 15.4754L7.21833 15.6838L7.32955 15.856L7.45929 16.0553C7.48709 16.1278 7.5149 16.1821 7.55197 16.2365C7.57977 16.2909 7.63538 16.3543 7.67245 16.4177L7.77439 16.5717L7.87634 16.7258C7.28321 16.9976 6.89396 17.5593 6.85689 18.1936C6.85689 19.2174 7.98755 19.9876 9.41477 19.9876C10.6381 19.9876 11.6112 19.3896 11.8614 18.6104H12.7048C12.955 18.6104 13.1682 18.411 13.1682 18.1573C13.1682 17.9127 12.9643 17.7043 12.7048 17.7043H11.8429C11.6761 17.2785 11.3517 16.9342 10.9439 16.7258L10.9903 16.6624L11.2683 16.2274C11.2961 16.1912 11.3146 16.155 11.3332 16.1187C11.4259 15.9737 11.5278 15.8288 11.6112 15.6838C11.639 15.6385 11.6761 15.5932 11.6946 15.5479L11.9726 15.1039L12.0746 14.9408L12.3526 14.4878L12.4638 14.3066L12.7789 13.8355L12.9087 13.6089C12.9921 13.473 13.0755 13.3281 13.1496 13.1831C13.2331 13.0381 13.2516 13.02 13.2887 12.9385L13.474 12.6213L13.752 12.5398L11.9819 35.0372Z" fill="#CCB8F4"/>
<path d="M21.8983 19.299C21.2959 19.0544 20.6843 18.846 20.0633 18.6738C19.8224 18.6104 19.5721 18.7372 19.498 18.9728V18.9819C19.4331 19.2175 19.5721 19.4712 19.8131 19.5346C20.5174 19.7248 21.2125 19.9604 21.8891 20.2504L21.611 30.9328L21.3886 37.7916L12.8994 35.0553L14.6603 12.5308L22.0095 14.5875L21.8983 19.299Z" fill="#CCB8F4"/>
<path d="M22.3062 37.7916L22.7881 19.3171L22.9086 14.5875L30.3505 12.5308L30.4895 17.6862L30.7675 28.6133C30.6471 28.4774 30.5266 28.3505 30.4061 28.2146C30.2393 28.0243 29.952 27.9971 29.7574 28.1512C29.5627 28.3052 29.5257 28.5861 29.6925 28.7854C29.6925 28.7945 29.7018 28.7945 29.7018 28.8035C30.0354 29.1931 30.4061 29.5646 30.8046 29.8908L30.9436 35.0553L22.3062 37.7916Z" fill="#CCB8F4"/>
<path d="M31.8612 35.0462L31.7407 30.525H31.8241C31.9724 30.525 32.1207 30.4525 32.2041 30.3347C32.3246 30.1354 32.269 29.8726 32.0836 29.7367C31.9539 29.6551 31.8334 29.5645 31.7222 29.4739L31.2773 12.5579L38.8212 14.5965L40.1465 31.5126C39.6461 31.5126 39.1641 31.5126 38.71 31.5126C38.4598 31.5035 38.2466 31.6938 38.2281 31.9384C38.2188 32.183 38.4135 32.3914 38.6729 32.4096C39.0807 32.4096 39.507 32.4096 39.9519 32.4096H40.2206L40.647 37.8006L31.8612 35.0462Z" fill="#CCB8F4"/>
<path d="M49.9332 35.0553L41.583 37.7916L41.1567 32.4006C41.3977 32.3825 41.583 32.1741 41.5738 31.9385C41.5738 31.7029 41.3791 31.5036 41.1382 31.5036C41.1289 31.5036 41.1104 31.5036 41.1011 31.5036L39.7388 14.5785L46.949 12.5217L47.19 14.3701C47.1714 14.3701 47.1436 14.3701 47.1251 14.3701H46.4764H46.1983L45.8091 14.4244L45.5496 14.4788L45.1696 14.5694L44.9379 14.651C44.7989 14.6963 44.6784 14.7325 44.5487 14.7869L44.3448 14.8775C44.2151 14.9318 44.0946 14.9953 43.9648 15.0587L43.7887 15.1584C43.659 15.2308 43.5385 15.3124 43.418 15.3849L43.2605 15.5027C43.14 15.5842 43.0195 15.6748 42.9083 15.7745L42.7693 15.8923C42.6488 15.9919 42.5469 16.0916 42.4357 16.2003L42.3152 16.3272C42.2132 16.4359 42.1113 16.5537 42.0186 16.6715L41.9167 16.8074C41.824 16.9252 41.7406 17.052 41.6572 17.1789L41.5552 17.3329C41.4718 17.4597 41.4069 17.5866 41.3421 17.7225C41.2772 17.8584 41.2772 17.8403 41.2587 17.8946C41.2401 17.949 41.1382 18.1665 41.0826 18.3024C41.0548 18.3658 41.0362 18.4292 41.0177 18.4926C40.9714 18.6285 40.9343 18.7645 40.8972 18.9094C40.8602 19.0544 40.8509 19.0453 40.8416 19.1088C40.8324 19.1722 40.786 19.4168 40.7582 19.5618C40.7582 19.6252 40.7582 19.6796 40.7582 19.743C40.7304 19.9605 40.7211 20.1779 40.7211 20.4044C40.7211 22.6786 43.52 27.3267 45.3921 30.1717C44.9472 30.3892 44.595 30.7606 44.4375 31.2227L43.6034 31.3043C43.3532 31.3405 43.1771 31.567 43.2234 31.8207C43.2605 32.0291 43.4366 32.1922 43.6497 32.2013H43.6961L44.4746 32.1197C44.9379 33.0077 45.911 33.5332 46.9212 33.4516C48.3577 33.4516 49.4791 32.6452 49.4791 31.6576C49.4791 31.6576 49.4791 31.6576 49.4791 31.6123L49.9332 35.0553Z" fill="#CCB8F4"/>
<path d="M46.5781 14.4515C49.1638 14.832 51.0822 16.9975 51.1007 19.5526C51.1007 20.812 49.9794 23.349 47.9405 26.6833C47.2917 27.7524 46.7171 28.6856 46.2908 29.2836C46.1055 29.5555 45.9479 29.8001 45.8089 29.9813L45.3363 29.2836C42.2687 24.699 40.4985 21.1563 40.4985 19.5526C40.4985 19.3623 40.4985 19.1811 40.4985 18.9999C40.4985 18.9455 40.4985 18.8912 40.4985 18.8368C40.4985 18.7824 40.5356 18.5831 40.5634 18.4563C40.5912 18.3294 40.5634 18.3385 40.6097 18.2841C40.6376 18.1663 40.6746 18.0485 40.7117 17.9398C40.7302 17.8855 40.7488 17.8311 40.7766 17.7677C40.8229 17.6499 40.86 17.5502 40.9156 17.4324C40.9619 17.3146 40.9619 17.3328 40.999 17.2784C41.0268 17.2331 41.1102 17.0609 41.1751 16.9522L41.2585 16.8163C41.3234 16.7076 41.3975 16.5989 41.4716 16.4992L41.5643 16.3814C41.6385 16.2817 41.7311 16.173 41.8238 16.0733L41.9072 15.9827C42.0092 15.8831 42.1111 15.7834 42.2131 15.6928L42.3521 15.6384C42.4725 15.5388 42.593 15.4482 42.7135 15.3666L42.7784 15.3213C42.9174 15.2216 43.0657 15.1401 43.2232 15.0495C43.7144 14.7777 44.2519 14.5874 44.808 14.4787H44.9656C45.0953 14.4787 45.225 14.4334 45.3641 14.4243H45.568H45.9016C46.124 14.4334 46.3557 14.4424 46.5781 14.4515Z" fill="white"/>
<path d="M47.44 30.833C47.44 31.277 46.7634 31.7572 45.7996 31.7572C44.9191 31.7572 44.2889 31.3585 44.1777 30.9599C44.187 30.8964 44.187 30.8421 44.1777 30.7787C44.187 30.7515 44.1963 30.7243 44.187 30.6971C44.2889 30.4253 44.4928 30.2078 44.7709 30.0991L44.9933 30.4253L45.0582 30.525L45.0952 30.5884L45.1972 30.7243L45.2991 30.8602L45.3733 30.9689C45.3918 30.9961 45.4196 31.0233 45.4381 31.0595C45.5215 31.1773 45.6698 31.2498 45.8181 31.2498C45.9664 31.2498 46.1147 31.1773 46.1981 31.0595L46.2352 31.0142L46.3278 30.8783C46.3278 30.8783 46.3742 30.824 46.3927 30.7877L46.4947 30.6518L46.6615 30.4162L46.7356 30.3075L46.8561 30.1354C47.1527 30.226 47.3936 30.4978 47.44 30.833Z" fill="white"/>
<path d="M3.06641 6.08862C3.06641 3.23454 5.42966 0.915039 8.35825 0.915039C11.2776 0.915039 13.6501 3.22548 13.6501 6.08862C13.6501 7.06716 12.9921 8.77961 11.6853 11.1535C10.703 12.9475 9.60012 14.669 8.84017 15.8106C8.65481 16.0824 8.49726 16.3271 8.35825 16.5173L7.8856 15.8106C7.71878 15.566 7.47782 15.2126 7.19052 14.7505L6.67153 13.9532C6.67153 13.9079 6.61593 13.8535 6.58812 13.8082C6.40277 13.5183 6.21742 13.2102 6.02279 12.884C3.57613 8.81585 3.06641 6.97656 3.06641 6.08862Z" fill="white"/>
<path d="M9.94335 17.3237C9.94335 17.813 9.17414 18.2479 8.30298 18.2479C7.42255 18.2479 6.6626 17.813 6.6626 17.3237C6.7182 16.9794 6.9777 16.7076 7.3206 16.6079C7.66351 17.1153 7.90447 17.4505 7.96007 17.5502C8.04348 17.6771 8.19176 17.7495 8.34005 17.7495C8.48833 17.7495 8.63661 17.6771 8.72002 17.5502C8.78489 17.4505 9.01659 17.1153 9.33169 16.6079C9.64679 16.7166 9.88775 16.9975 9.94335 17.3237Z" fill="white"/>
<path d="M5.93945 6.10681C5.93945 6.09774 5.93945 6.09774 5.93945 6.08868H5.96726C5.96726 4.78396 7.04231 3.72388 8.37685 3.72388C9.7114 3.72388 10.7957 4.7749 10.7957 6.07962C10.7957 7.38435 9.72066 8.44443 8.38612 8.44443C8.38612 8.44443 8.38612 8.44443 8.37685 8.44443C7.04231 8.46255 5.94872 7.41153 5.93945 6.10681Z" fill="white"/>
<path d="M48.237 19.5525C48.237 19.7247 48.2185 19.8968 48.1814 20.069C48.0609 20.5764 47.7736 21.0294 47.3659 21.3646C46.9303 21.718 46.3835 21.9173 45.8182 21.9083C44.4836 21.9717 43.353 20.975 43.2881 19.6703C43.2232 18.3656 44.2427 17.2602 45.5772 17.1968C45.6606 17.1968 45.7348 17.1968 45.8182 17.1968C46.1796 17.1968 46.5318 17.2783 46.8561 17.4324C47.6995 17.822 48.237 18.6465 48.237 19.5525Z" fill="white"/>
<path d="M47.4771 14.9862C50.0627 15.3667 51.9811 17.5322 51.9997 20.0873C51.9997 21.3467 50.8783 23.8836 48.8394 27.2179C48.1907 28.2871 47.6161 29.2203 47.1898 29.8183C47.0044 30.0901 46.8469 30.3348 46.7078 30.516L46.2352 29.8183C43.1676 25.2337 41.3975 21.691 41.3975 20.0873C41.3975 19.897 41.3975 19.7158 41.3975 19.5346C41.3975 19.4802 41.3975 19.4258 41.3975 19.3715C41.3975 19.3171 41.4345 19.1178 41.4623 18.9909C41.4901 18.8641 41.4623 18.8731 41.5087 18.8188C41.5365 18.701 41.5735 18.5832 41.6106 18.4745C41.6292 18.4201 41.6477 18.3658 41.6755 18.3023C41.7218 18.1845 41.7589 18.0849 41.8145 17.9671C41.8608 17.8493 41.8608 17.8674 41.8979 17.8131C41.9257 17.7678 42.0091 17.5956 42.074 17.4869L42.1574 17.351C42.2223 17.2422 42.2964 17.1335 42.3706 17.0339L42.4632 16.9161C42.5374 16.8164 42.6301 16.7077 42.7227 16.608L42.8061 16.5174C42.9081 16.4177 43.01 16.3181 43.112 16.2275L43.251 16.1731C43.3715 16.0734 43.492 15.9828 43.6124 15.9013L43.6773 15.856C43.8163 15.7563 43.9646 15.6748 44.1222 15.5842C44.6133 15.3123 45.1509 15.1221 45.7069 15.0133H45.8645C45.9942 15.0133 46.124 14.968 46.263 14.959H46.4669H46.8005C47.0229 14.968 47.2546 14.9771 47.4771 14.9862Z" fill="#A3EFE0"/>
<path d="M47.44 30.833C47.44 31.277 46.7634 31.7572 45.7996 31.7572C44.9191 31.7572 44.2889 31.3585 44.1777 30.9599C44.187 30.8964 44.187 30.8421 44.1777 30.7787C44.187 30.7515 44.1963 30.7243 44.187 30.6971C44.2889 30.4253 44.4928 30.2078 44.7709 30.0991L44.9933 30.4253L45.0582 30.525L45.0952 30.5884L45.1972 30.7243L45.2991 30.8602L45.3733 30.9689C45.3918 30.9961 45.4196 31.0233 45.4381 31.0595C45.5215 31.1773 45.6698 31.2498 45.8181 31.2498C45.9664 31.2498 46.1147 31.1773 46.1981 31.0595L46.2352 31.0142L46.3278 30.8783C46.3278 30.8783 46.3742 30.824 46.3927 30.7877L46.4947 30.6518L46.6615 30.4162L46.7356 30.3075L46.8561 30.1354C47.1527 30.226 47.3936 30.4978 47.44 30.833Z" fill="white"/>
<path d="M3.96533 6.62329C3.96533 3.76921 6.32859 1.44971 9.25717 1.44971C12.1765 1.44971 14.549 3.76015 14.549 6.62329C14.549 7.60183 13.891 9.31427 12.5843 11.6881C11.6019 13.4821 10.499 15.2036 9.73909 16.3453C9.55374 16.6171 9.39619 16.8617 9.25717 17.052L8.78452 16.3453C8.6177 16.1006 8.37674 15.7473 8.08945 15.2852L7.57046 14.4788C7.57046 14.4335 7.51485 14.3791 7.48705 14.3338C7.30169 14.0439 7.11634 13.7358 6.92172 13.4096C4.47505 9.34146 3.96533 7.50216 3.96533 6.62329Z" fill="#A3EFE0"/>
<path d="M9.94335 17.3237C9.94335 17.813 9.17414 18.2479 8.30298 18.2479C7.42255 18.2479 6.6626 17.813 6.6626 17.3237C6.7182 16.9794 6.9777 16.7076 7.3206 16.6079C7.66351 17.1153 7.90447 17.4505 7.96007 17.5502C8.04348 17.6771 8.19176 17.7495 8.34005 17.7495C8.48833 17.7495 8.63661 17.6771 8.72002 17.5502C8.78489 17.4505 9.01659 17.1153 9.33169 16.6079C9.64679 16.7166 9.88775 16.9975 9.94335 17.3237Z" fill="white"/>
<path d="M5.93945 6.10681C5.93945 6.09774 5.93945 6.09774 5.93945 6.08868H5.96726C5.96726 4.78396 7.04231 3.72388 8.37685 3.72388C9.7114 3.72388 10.7957 4.7749 10.7957 6.07962C10.7957 7.38435 9.72066 8.44443 8.38612 8.44443C8.38612 8.44443 8.38612 8.44443 8.37685 8.44443C7.04231 8.46255 5.94872 7.41153 5.93945 6.10681Z" fill="white"/>
<path d="M48.237 19.5525C48.237 19.7247 48.2185 19.8968 48.1814 20.069C48.0609 20.5764 47.7736 21.0294 47.3659 21.3646C46.9303 21.718 46.3835 21.9173 45.8182 21.9083C44.4836 21.9717 43.353 20.975 43.2881 19.6703C43.2232 18.3656 44.2427 17.2602 45.5772 17.1968C45.6606 17.1968 45.7348 17.1968 45.8182 17.1968C46.1796 17.1968 46.5318 17.2783 46.8561 17.4324C47.6995 17.822 48.237 18.6465 48.237 19.5525Z" fill="white"/>
<path d="M51.9996 19.5989C51.9811 16.7267 49.9236 14.2532 47.0507 13.6643L46.7077 11.0548C46.6892 10.928 46.6151 10.8102 46.5039 10.7377C46.3926 10.6652 46.2536 10.638 46.1239 10.6743L38.1537 12.9485L29.8406 10.6562H29.5996L21.3977 12.9304L13.3071 10.6562H13.2051C13.168 10.6471 13.1217 10.6471 13.0846 10.6562H13.0012C14.0577 8.5813 14.586 7.05913 14.586 6.08059C14.586 2.72818 11.8057 0.0100098 8.37666 0.0100098C4.94762 0.0100098 2.16731 2.72818 2.16731 6.08059C2.16731 7.40343 3.11262 9.67763 4.95688 12.8216L4.48423 12.9757C4.30815 13.021 4.1784 13.175 4.1506 13.3562L0.999587 37.5026C0.981052 37.6566 1.03666 37.8107 1.15714 37.9013C1.24055 37.9647 1.34249 38.0009 1.4537 38.0009C1.50004 38.01 1.54638 38.01 1.59272 38.0009L11.3423 35.0019L20.61 38.0009C20.6563 38.01 20.7119 38.01 20.7583 38.0009C20.8046 38.01 20.8509 38.01 20.8973 38.0009L30.3318 35.0019L39.9238 38.0009C39.9701 38.01 40.0165 38.01 40.0628 38.0009C40.1092 38.01 40.1648 38.01 40.2111 38.0009L49.4603 34.9657C49.6641 34.8932 49.7939 34.6938 49.7753 34.4764L48.8115 27.0467C50.9245 23.5494 51.9996 21.0577 51.9996 19.5989ZM46.578 14.4525C49.1637 14.8331 51.0821 16.9986 51.1006 19.5536C51.1006 20.8131 49.9792 23.35 47.9403 26.6843C47.2916 27.7535 46.717 28.6867 46.2907 29.2847C46.1054 29.5565 45.9478 29.8011 45.8088 29.9824L45.3361 29.2847C42.2685 24.7 40.4984 21.1574 40.4984 19.5536C40.4984 19.3634 40.4984 19.1822 40.4984 19.0009C40.4984 18.9466 40.4984 18.8922 40.4984 18.8379C40.4984 18.7835 40.5355 18.5842 40.5633 18.4573C40.5911 18.3305 40.5633 18.3395 40.6096 18.2852C40.6374 18.1674 40.6745 18.0496 40.7116 17.9409C40.7301 17.8865 40.7486 17.8321 40.7764 17.7687C40.8228 17.6509 40.8598 17.5513 40.9155 17.4335C40.9618 17.3157 40.9618 17.3338 40.9989 17.2794C41.0267 17.2341 41.1101 17.062 41.1749 16.9533L41.2584 16.8174C41.3232 16.7086 41.3974 16.5999 41.4715 16.5002L41.5642 16.3824C41.6383 16.2828 41.731 16.1741 41.8237 16.0744L41.9071 15.9838C42.009 15.8841 42.111 15.7844 42.2129 15.6938L42.3519 15.6395C42.4724 15.5398 42.5929 15.4492 42.7134 15.3677L42.7783 15.3224C42.9173 15.2227 43.0656 15.1411 43.2231 15.0505C43.7143 14.7787 44.2518 14.5885 44.8079 14.4797H44.9654C45.0952 14.4797 45.2249 14.4344 45.3639 14.4254H45.5678H45.9015C46.1239 14.4344 46.3556 14.4435 46.578 14.4525ZM47.3658 29.3481L47.3565 29.2938L47.9682 28.2971L48.2647 30.5169C48.1442 30.0186 47.8199 29.5927 47.3658 29.3481ZM47.4399 30.834C47.4399 31.278 46.7634 31.7582 45.7995 31.7582C44.9191 31.7582 44.2889 31.3596 44.1777 30.9609C44.1869 30.8975 44.1869 30.8431 44.1777 30.7797C44.1869 30.7525 44.1962 30.7253 44.1869 30.6981C44.2889 30.4263 44.4928 30.2089 44.7708 30.1001L44.9932 30.4263L45.0581 30.526L45.0952 30.5894L45.1971 30.7253L45.2991 30.8612L45.3732 30.97C45.3917 30.9971 45.4195 31.0243 45.4381 31.0606C45.5215 31.1783 45.6698 31.2508 45.8181 31.2508C45.9663 31.2508 46.1146 31.1783 46.198 31.0606L46.2351 31.0153L46.3278 30.8793C46.3278 30.8793 46.3741 30.825 46.3926 30.7887L46.4946 30.6528L46.6614 30.4173L46.7355 30.3085L46.856 30.1364C47.1526 30.227 47.3936 30.4988 47.4399 30.834ZM3.06628 6.08965C3.06628 3.23557 5.42954 0.916066 8.35812 0.916066C11.2774 0.916066 13.65 3.22651 13.65 6.08965C13.65 7.06819 12.992 8.78063 11.6852 11.1545C10.7028 12.9485 9.59999 14.67 8.84004 15.8116C8.65469 16.0834 8.49714 16.3281 8.35812 16.5184L7.88547 15.8116C7.71865 15.567 7.47769 15.2136 7.19039 14.7515L6.6714 13.9542C6.6714 13.9089 6.6158 13.8545 6.58799 13.8092C6.40264 13.5193 6.21729 13.2112 6.02267 12.8851C3.576 8.81688 3.06628 6.97758 3.06628 6.08965ZM9.94289 17.3247C9.94289 17.814 9.17368 18.2489 8.30251 18.2489C7.42208 18.2489 6.66214 17.814 6.66214 17.3247C6.71774 16.9804 6.97724 16.7086 7.32014 16.609C7.66304 17.1164 7.904 17.4516 7.95961 17.5513C8.04302 17.6781 8.1913 17.7506 8.33958 17.7506C8.48787 17.7506 8.63615 17.6781 8.71956 17.5513C8.78443 17.4516 9.01612 17.1164 9.33123 16.609C9.64633 16.7177 9.88729 16.9986 9.94289 17.3247ZM10.916 34.1774L2.00976 36.9318L5.03102 13.7549L5.411 13.6552L5.47587 13.7639L5.60562 13.9633L5.7539 14.2079L5.88365 14.4072L6.0134 14.6156L6.15241 14.824L6.26363 14.9962L6.39337 15.1955C6.43044 15.2499 6.46751 15.3042 6.49532 15.3586C6.52312 15.413 6.57873 15.4764 6.6158 15.5398L6.71774 15.6938L6.81969 15.8479C6.22656 16.1197 5.83731 16.6814 5.80024 17.3157C5.80024 18.3395 6.9309 19.1097 8.35812 19.1097C9.58145 19.1097 10.5546 18.5117 10.8048 17.7325H11.6481C11.8984 17.7325 12.1115 17.5331 12.1115 17.2794C12.1115 17.0348 11.9076 16.8264 11.6481 16.8264H10.7863C10.6194 16.4006 10.2951 16.0563 9.88729 15.8479L9.93362 15.7844L10.2117 15.3495C10.2395 15.3133 10.258 15.2771 10.2765 15.2408C10.3692 15.0958 10.4711 14.9509 10.5546 14.8059C10.5824 14.7606 10.6194 14.7153 10.638 14.67L10.916 14.226L11.0179 14.0629L11.296 13.6099L11.4072 13.4287L11.7223 12.9576L11.852 12.731C11.9354 12.5951 12.0189 12.4502 12.093 12.3052C12.1764 12.1602 12.1949 12.1421 12.232 12.0606L12.4174 11.7434L12.6954 11.6619L10.916 34.1774ZM20.8324 18.4392C20.23 18.1946 19.6183 17.9862 18.9974 17.814C18.7564 17.7506 18.5062 17.8774 18.4321 18.113V18.1221C18.3672 18.3576 18.5062 18.6113 18.7472 18.6748C19.4515 18.865 20.1466 19.1006 20.8231 19.3906L20.5451 30.073L20.332 36.9227L11.8428 34.1865L13.6036 11.6619L20.9529 13.7186L20.8324 18.4392ZM21.2402 36.9318L21.7221 18.4573L21.8426 13.7277L29.2845 11.671L29.4235 16.8264L29.7016 27.7535C29.5811 27.6175 29.4606 27.4907 29.3401 27.3548C29.1733 27.1645 28.886 27.1373 28.6914 27.2914C28.4968 27.4454 28.4597 27.7263 28.6265 27.9256C28.6265 27.9347 28.6358 27.9347 28.6358 27.9437C28.9694 28.3333 29.3401 28.7048 29.7386 29.031L29.8777 34.1955L21.2402 36.9318ZM30.7952 34.1774L30.6747 29.6562H30.7581C30.9064 29.6562 31.0546 29.5837 31.1381 29.4659C31.2585 29.2666 31.2029 29.0038 31.0176 28.8679C30.8878 28.7864 30.7674 28.6957 30.6561 28.6051L30.2113 11.6891L37.7552 13.7277L39.0805 30.6438C38.58 30.6438 38.0981 30.6438 37.644 30.6438C37.3937 30.6347 37.1806 30.825 37.162 31.0696C37.1528 31.3143 37.3474 31.5226 37.6069 31.5408C38.0147 31.5408 38.441 31.5408 38.8858 31.5408H39.1546L39.5809 36.9318L30.7952 34.1774ZM48.8671 34.1955L40.5169 36.9318L40.0906 31.5408C40.3316 31.5226 40.5169 31.3143 40.5077 31.0787C40.5077 30.8431 40.3131 30.6438 40.0721 30.6438C40.0628 30.6438 40.0443 30.6438 40.035 30.6438L38.6819 13.7096L45.8922 11.6528L46.1332 13.5012C46.1146 13.5012 46.0868 13.5012 46.0683 13.5012H45.4195H45.1415L44.7523 13.5556L44.4928 13.6099L44.1128 13.7005L43.8811 13.7821C43.7421 13.8274 43.6216 13.8636 43.4919 13.918L43.288 14.0086C43.1582 14.0629 43.0378 14.1264 42.908 14.1898L42.7319 14.2895C42.6022 14.3619 42.4817 14.4435 42.3612 14.516L42.2037 14.6338C42.0832 14.7153 41.9627 14.8059 41.8515 14.9056L41.7125 15.0234C41.592 15.123 41.49 15.2227 41.3788 15.3314L41.2584 15.4583C41.1564 15.567 41.0545 15.6848 40.9618 15.8026L40.8506 15.9385C40.7579 16.0563 40.6745 16.1831 40.5911 16.31L40.4891 16.464C40.4057 16.5908 40.3409 16.7177 40.276 16.8536C40.2111 16.9895 40.2111 16.9714 40.1926 17.0257C40.174 17.0801 40.0721 17.2976 40.0165 17.4335C39.9887 17.4969 39.9701 17.5603 39.9516 17.6237C39.9053 17.7597 39.8682 17.8956 39.8311 18.0405C39.7941 18.1855 39.7848 18.1764 39.7755 18.2399C39.7663 18.3033 39.7199 18.5479 39.6921 18.6929C39.6921 18.7563 39.6921 18.8107 39.6921 18.8741C39.6643 19.0916 39.655 19.309 39.655 19.5355C39.655 21.8097 42.4539 26.4578 44.326 29.3028C43.8811 29.5203 43.5289 29.8917 43.3714 30.3538L42.5373 30.4354C42.2871 30.4716 42.111 30.6981 42.1573 30.9518C42.1944 31.1602 42.3705 31.3233 42.5836 31.3324H42.63L43.4085 31.2508C43.8718 32.1388 44.8449 32.6643 45.8551 32.5827C47.2916 32.5827 48.413 31.7763 48.413 30.7887C48.413 30.7887 48.413 30.7887 48.413 30.7434L48.8671 34.1955Z" fill="#464860"/>
<path d="M11.7133 6.12491C11.7133 6.11585 11.7133 6.10679 11.7133 6.09773C11.704 4.29468 10.2027 2.84499 8.3584 2.85405C6.51413 2.86311 5.0313 4.33092 5.04057 6.12491C5.04984 7.90984 6.5234 9.35047 8.34913 9.36859C10.1934 9.37765 11.704 7.92796 11.7133 6.12491ZM5.93953 6.10679C5.93953 6.09773 5.93953 6.09773 5.93953 6.08867H5.96734C5.96734 4.78395 7.04239 3.72386 8.37693 3.72386C9.71148 3.72386 10.7958 4.77489 10.7958 6.07961C10.7958 7.38433 9.72075 8.44441 8.3862 8.44441C8.3862 8.44441 8.3862 8.44441 8.37693 8.44441C7.04239 8.46253 5.9488 7.41151 5.93953 6.10679Z" fill="#464860"/>
<path d="M42.4819 19.5528C42.4819 21.3468 43.974 22.8055 45.8183 22.8055C46.0222 22.8055 46.2261 22.7874 46.43 22.7602C48.2372 22.425 49.4141 20.7125 49.0712 18.9548C48.8766 17.949 48.2001 17.0883 47.2548 16.6443C46.8099 16.4178 46.3187 16.3091 45.8183 16.3091C43.9833 16.3181 42.5005 17.7588 42.4819 19.5528ZM48.2372 19.5528C48.2372 19.7249 48.2186 19.8971 48.1816 20.0692C48.0611 20.5766 47.7738 21.0296 47.366 21.3649C46.9304 21.7182 46.3836 21.9176 45.8183 21.9085C44.4838 21.9719 43.3531 20.9753 43.2882 19.6706C43.2233 18.3658 44.2428 17.2604 45.5773 17.197C45.6607 17.197 45.7349 17.197 45.8183 17.197C46.1797 17.197 46.5319 17.2786 46.8563 17.4326C47.6996 17.8222 48.2372 18.6467 48.2372 19.5528Z" fill="#464860"/>
<path d="M35.2905 30.4071C34.5213 30.2893 33.7706 30.1081 33.0384 29.8544C32.7975 29.7728 32.538 29.8906 32.4546 30.1262C32.3712 30.3618 32.4916 30.6155 32.7326 30.697V30.6879C33.5111 30.9598 34.3174 31.1591 35.1422 31.2859H35.2163C35.4666 31.2859 35.6797 31.0866 35.6705 30.8329C35.6797 30.6336 35.5129 30.4433 35.2905 30.4071Z" fill="#464860"/>
<path d="M13.9561 17.8947C13.9839 17.8947 14.0024 17.9037 14.0302 17.9037L14.058 17.9128C14.8828 17.9762 15.6799 18.0759 16.412 18.1936H16.4861C16.7456 18.1755 16.9403 17.9581 16.9217 17.7134C16.9125 17.5141 16.7642 17.342 16.5603 17.2967C15.8003 17.1789 14.9848 17.0792 14.1136 17.0158C13.8634 16.9795 13.6224 17.1426 13.5854 17.3873C13.539 17.6228 13.7058 17.8584 13.9561 17.8947Z" fill="#464860"/>
<path d="M25.2721 21.4917C24.7253 20.8756 24.1136 20.3229 23.4463 19.8337C23.2424 19.6887 22.9551 19.7249 22.8069 19.9333C22.6586 20.1327 22.6956 20.4135 22.9088 20.5585C23.5205 21.0025 24.0858 21.5099 24.5863 22.0807C24.6789 22.1804 24.7994 22.2347 24.9384 22.2347C25.0496 22.2347 25.1516 22.1894 25.235 22.1169C25.4203 21.972 25.4389 21.682 25.2721 21.4917C25.2721 21.5008 25.2721 21.4917 25.2721 21.4917Z" fill="#464860"/>
<path d="M27.5148 24.6812C27.2646 24.2735 27.0143 23.8657 26.7456 23.4852C26.6158 23.2859 26.3378 23.2224 26.1339 23.3493C25.9393 23.4852 25.8744 23.7389 25.9949 23.9473C26.2544 24.3459 26.4953 24.7537 26.7456 25.1433C26.9124 25.4151 27.0699 25.6869 27.246 25.9497C27.3387 26.0856 27.487 26.1581 27.6538 26.149C27.7372 26.149 27.8206 26.1218 27.8948 26.0856C28.0986 25.9497 28.1635 25.696 28.043 25.4876C27.8391 25.2158 27.6723 24.9439 27.5148 24.6812Z" fill="#464860"/>
</svg>
