<svg width="78" height="78" viewBox="0 0 78 78" fill="none" xmlns="http://www.w3.org/2000/svg">
<rect width="78" height="78" fill="white"/>
<path d="M22.9165 52.1764L14.0103 54.9308L17.0315 31.7539L17.4115 31.6542L17.4764 31.7629L17.6061 31.9623L17.7544 32.2069L17.8841 32.4062L18.0139 32.6146L18.1529 32.823L18.2641 32.9952L18.3939 33.1945C18.4309 33.2489 18.468 33.3032 18.4958 33.3576C18.5236 33.412 18.5792 33.4754 18.6163 33.5388L18.7182 33.6928L18.8202 33.8469C18.227 34.1187 17.8378 34.6804 17.8007 35.3147C17.8007 36.3385 18.9314 37.1087 20.3586 37.1087C21.5819 37.1087 22.555 36.5107 22.8053 35.7315H23.6486C23.8989 35.7315 24.112 35.5321 24.112 35.2784C24.112 35.0338 23.9081 34.8254 23.6486 34.8254H22.7867C22.6199 34.3996 22.2956 34.0553 21.8878 33.8469L21.9341 33.7834L22.2121 33.3485C22.2399 33.3123 22.2585 33.2761 22.277 33.2398C22.3697 33.0948 22.4716 32.9499 22.555 32.8049C22.5829 32.7596 22.6199 32.7143 22.6385 32.669L22.9165 32.225L23.0184 32.0619L23.2965 31.6089L23.4077 31.4277L23.7228 30.9565L23.8525 30.73C23.9359 30.5941 24.0193 30.4492 24.0935 30.3042C24.1769 30.1592 24.1954 30.1411 24.2325 30.0596L24.4178 29.7424L24.6959 29.6609L22.9165 52.1764Z" fill="white"/>
<path d="M32.8329 36.4382C32.2305 36.1936 31.6188 35.9852 30.9979 35.813C30.7569 35.7496 30.5067 35.8764 30.4326 36.112V36.1211C30.3677 36.3566 30.5067 36.6103 30.7477 36.6738C31.452 36.864 32.1471 37.0996 32.8236 37.3895L32.5456 48.072L32.3325 54.9217L23.8433 52.1854L25.6041 29.6609L32.9534 31.7176L32.8329 36.4382Z" fill="white"/>
<path d="M33.2402 54.9308L33.7222 36.4563L33.8426 31.7267L41.2846 29.6699L41.4236 34.8254L41.7016 45.7524C41.5811 45.6165 41.4607 45.4897 41.3402 45.3538C41.1734 45.1635 40.8861 45.1363 40.6914 45.2903C40.4968 45.4444 40.4598 45.7252 40.6266 45.9246C40.6266 45.9336 40.6358 45.9336 40.6358 45.9427C40.9695 46.3323 41.3402 46.7038 41.7387 47.03L41.8777 52.1945L33.2402 54.9308Z" fill="white"/>
<path d="M42.7953 52.1765L42.6748 47.6553H42.7582C42.9065 47.6553 43.0548 47.5828 43.1382 47.4651C43.2587 47.2657 43.2031 47.003 43.0177 46.8671C42.888 46.7855 42.7675 46.6949 42.6563 46.6043L42.2114 29.6882L49.7553 31.7269L51.0806 48.6429C50.5801 48.6429 50.0982 48.6429 49.6441 48.6429C49.3939 48.6339 49.1807 48.8241 49.1622 49.0688C49.1529 49.3134 49.3475 49.5218 49.607 49.5399C50.0148 49.5399 50.4411 49.5399 50.886 49.5399H51.1547L51.581 54.931L42.7953 52.1765Z" fill="white"/>
<path d="M60.8673 52.1945L52.5171 54.9308L52.0908 49.5398C52.3318 49.5217 52.5171 49.3133 52.5079 49.0777C52.5079 48.8421 52.3132 48.6428 52.0723 48.6428C52.063 48.6428 52.0445 48.6428 52.0352 48.6428L50.6821 31.7086L57.8924 29.6519L58.1333 31.5002C58.1148 31.5002 58.087 31.5002 58.0685 31.5002H57.4197H57.1417L56.7525 31.5546L56.493 31.6089L56.113 31.6995L55.8813 31.7811C55.7423 31.8264 55.6218 31.8626 55.492 31.917L55.2882 32.0076C55.1584 32.062 55.0379 32.1254 54.9082 32.1888L54.7321 32.2885C54.6024 32.361 54.4819 32.4425 54.3614 32.515L54.2038 32.6328C54.0834 32.7143 53.9629 32.8049 53.8517 32.9046L53.7127 33.0224C53.5922 33.1221 53.4902 33.2217 53.379 33.3304L53.2585 33.4573C53.1566 33.566 53.0547 33.6838 52.962 33.8016L52.8508 33.9375C52.7581 34.0553 52.6747 34.1821 52.5913 34.309L52.4893 34.463C52.4059 34.5899 52.341 34.7167 52.2762 34.8526C52.2113 34.9885 52.2113 34.9704 52.1928 35.0248C52.1742 35.0791 52.0723 35.2966 52.0167 35.4325C51.9889 35.4959 51.9703 35.5593 51.9518 35.6228C51.9055 35.7587 51.8684 35.8946 51.8313 36.0396C51.7943 36.1845 51.785 36.1755 51.7757 36.2389C51.7664 36.3023 51.7201 36.5469 51.6923 36.6919C51.6923 36.7553 51.6923 36.8097 51.6923 36.8731C51.6645 37.0906 51.6552 37.308 51.6552 37.5345C51.6552 39.8087 54.4541 44.4568 56.3261 47.3018C55.8813 47.5193 55.5291 47.8908 55.3716 48.3529L54.5375 48.4344C54.2873 48.4706 54.1112 48.6972 54.1575 48.9509C54.1946 49.1592 54.3707 49.3223 54.5838 49.3314H54.6302L55.4086 49.2499C55.872 50.1378 56.8451 50.6633 57.8553 50.5818C59.2918 50.5818 60.4132 49.7754 60.4132 48.7878C60.4132 48.7878 60.4132 48.7878 60.4132 48.7425L60.8673 52.1945Z" fill="white"/>
<path d="M23.9819 53.0372L15.0757 55.7916L18.0969 32.6147L18.4769 32.515L18.5418 32.6237L18.6715 32.8231L18.8198 33.0677L18.9496 33.267L19.0793 33.4754L19.2183 33.6838L19.3295 33.856L19.4593 34.0553C19.4871 34.1278 19.5149 34.1821 19.552 34.2365C19.5798 34.2909 19.6354 34.3543 19.6724 34.4177L19.7744 34.5717L19.8763 34.7258C19.2832 34.9976 18.894 35.5593 18.8569 36.1936C18.8569 37.2174 19.9875 37.9876 21.4148 37.9876C22.6381 37.9876 23.6112 37.3896 23.8614 36.6104H24.7048C24.955 36.6104 25.1682 36.411 25.1682 36.1573C25.1682 35.9127 24.9643 35.7043 24.7048 35.7043H23.8429C23.6761 35.2785 23.3517 34.9342 22.9439 34.7258L22.9903 34.6624L23.2683 34.2274C23.2961 34.1912 23.3146 34.155 23.3332 34.1187C23.4259 33.9737 23.5278 33.8288 23.6112 33.6838C23.639 33.6385 23.6761 33.5932 23.6946 33.5479L23.9726 33.1039L24.0746 32.9408L24.3526 32.4878L24.4638 32.3066L24.7789 31.8355L24.9087 31.6089C24.9921 31.473 25.0755 31.3281 25.1496 31.1831C25.2331 31.0381 25.2516 31.02 25.2887 30.9385L25.474 30.6213L25.752 30.5398L23.9819 53.0372Z" fill="#CCB8F4"/>
<path d="M33.8983 37.299C33.2959 37.0544 32.6843 36.846 32.0633 36.6738C31.8224 36.6104 31.5721 36.7372 31.498 36.9728V36.9819C31.4331 37.2175 31.5721 37.4712 31.8131 37.5346C32.5174 37.7248 33.2125 37.9604 33.8891 38.2504L33.611 48.9328L33.3886 55.7916L24.8994 53.0553L26.6603 30.5308L34.0095 32.5875L33.8983 37.299Z" fill="#CCB8F4"/>
<path d="M34.3062 55.7916L34.7881 37.3171L34.9086 32.5875L42.3505 30.5308L42.4895 35.6862L42.7675 46.6133C42.6471 46.4774 42.5266 46.3505 42.4061 46.2146C42.2393 46.0243 41.952 45.9971 41.7574 46.1512C41.5627 46.3052 41.5257 46.5861 41.6925 46.7854C41.6925 46.7945 41.7018 46.7945 41.7018 46.8035C42.0354 47.1931 42.4061 47.5646 42.8046 47.8908L42.9436 53.0553L34.3062 55.7916Z" fill="#CCB8F4"/>
<path d="M43.8612 53.0462L43.7407 48.525H43.8241C43.9724 48.525 44.1207 48.4525 44.2041 48.3347C44.3246 48.1354 44.269 47.8726 44.0836 47.7367C43.9539 47.6551 43.8334 47.5645 43.7222 47.4739L43.2773 30.5579L50.8212 32.5965L52.1465 49.5126C51.6461 49.5126 51.1641 49.5126 50.71 49.5126C50.4598 49.5035 50.2466 49.6938 50.2281 49.9384C50.2188 50.183 50.4135 50.3914 50.6729 50.4096C51.0807 50.4096 51.507 50.4096 51.9519 50.4096H52.2206L52.647 55.8006L43.8612 53.0462Z" fill="#CCB8F4"/>
<path d="M61.9332 53.0553L53.583 55.7916L53.1567 50.4006C53.3977 50.3825 53.583 50.1741 53.5738 49.9385C53.5738 49.7029 53.3791 49.5036 53.1382 49.5036C53.1289 49.5036 53.1104 49.5036 53.1011 49.5036L51.7388 32.5785L58.949 30.5217L59.19 32.3701C59.1714 32.3701 59.1436 32.3701 59.1251 32.3701H58.4764H58.1983L57.8091 32.4244L57.5496 32.4788L57.1696 32.5694L56.9379 32.651C56.7989 32.6963 56.6784 32.7325 56.5487 32.7869L56.3448 32.8775C56.2151 32.9318 56.0946 32.9953 55.9648 33.0587L55.7887 33.1584C55.659 33.2308 55.5385 33.3124 55.418 33.3849L55.2605 33.5027C55.14 33.5842 55.0195 33.6748 54.9083 33.7745L54.7693 33.8923C54.6488 33.9919 54.5469 34.0916 54.4357 34.2003L54.3152 34.3272C54.2132 34.4359 54.1113 34.5537 54.0186 34.6715L53.9167 34.8074C53.824 34.9252 53.7406 35.052 53.6572 35.1789L53.5552 35.3329C53.4718 35.4597 53.4069 35.5866 53.3421 35.7225C53.2772 35.8584 53.2772 35.8403 53.2587 35.8946C53.2401 35.949 53.1382 36.1665 53.0826 36.3024C53.0548 36.3658 53.0362 36.4292 53.0177 36.4926C52.9714 36.6285 52.9343 36.7645 52.8972 36.9094C52.8602 37.0544 52.8509 37.0453 52.8416 37.1088C52.8324 37.1722 52.786 37.4168 52.7582 37.5618C52.7582 37.6252 52.7582 37.6796 52.7582 37.743C52.7304 37.9605 52.7211 38.1779 52.7211 38.4044C52.7211 40.6786 55.52 45.3267 57.3921 48.1717C56.9472 48.3892 56.595 48.7606 56.4375 49.2227L55.6034 49.3043C55.3532 49.3405 55.1771 49.567 55.2234 49.8207C55.2605 50.0291 55.4366 50.1922 55.6497 50.2013H55.6961L56.4746 50.1197C56.9379 51.0077 57.911 51.5332 58.9212 51.4516C60.3577 51.4516 61.4791 50.6452 61.4791 49.6576C61.4791 49.6576 61.4791 49.6576 61.4791 49.6123L61.9332 53.0553Z" fill="#CCB8F4"/>
<path d="M58.5781 32.4515C61.1638 32.832 63.0822 34.9975 63.1007 37.5526C63.1007 38.812 61.9794 41.349 59.9405 44.6833C59.2917 45.7524 58.7171 46.6856 58.2908 47.2836C58.1055 47.5555 57.9479 47.8001 57.8089 47.9813L57.3363 47.2836C54.2687 42.699 52.4985 39.1563 52.4985 37.5526C52.4985 37.3623 52.4985 37.1811 52.4985 36.9999C52.4985 36.9455 52.4985 36.8912 52.4985 36.8368C52.4985 36.7824 52.5356 36.5831 52.5634 36.4563C52.5912 36.3294 52.5634 36.3385 52.6097 36.2841C52.6376 36.1663 52.6746 36.0485 52.7117 35.9398C52.7302 35.8855 52.7488 35.8311 52.7766 35.7677C52.8229 35.6499 52.86 35.5502 52.9156 35.4324C52.9619 35.3146 52.9619 35.3328 52.999 35.2784C53.0268 35.2331 53.1102 35.0609 53.1751 34.9522L53.2585 34.8163C53.3234 34.7076 53.3975 34.5989 53.4716 34.4992L53.5643 34.3814C53.6385 34.2817 53.7311 34.173 53.8238 34.0733L53.9072 33.9827C54.0092 33.8831 54.1111 33.7834 54.2131 33.6928L54.3521 33.6384C54.4725 33.5388 54.593 33.4482 54.7135 33.3666L54.7784 33.3213C54.9174 33.2216 55.0657 33.1401 55.2232 33.0495C55.7144 32.7777 56.2519 32.5874 56.808 32.4787H56.9656C57.0953 32.4787 57.225 32.4334 57.3641 32.4243H57.568H57.9016C58.124 32.4334 58.3557 32.4424 58.5781 32.4515Z" fill="white"/>
<path d="M59.44 48.833C59.44 49.277 58.7634 49.7572 57.7996 49.7572C56.9191 49.7572 56.2889 49.3585 56.1777 48.9599C56.187 48.8964 56.187 48.8421 56.1777 48.7787C56.187 48.7515 56.1963 48.7243 56.187 48.6971C56.2889 48.4253 56.4928 48.2078 56.7709 48.0991L56.9933 48.4253L57.0582 48.525L57.0952 48.5884L57.1972 48.7243L57.2991 48.8602L57.3733 48.9689C57.3918 48.9961 57.4196 49.0233 57.4381 49.0595C57.5215 49.1773 57.6698 49.2498 57.8181 49.2498C57.9664 49.2498 58.1147 49.1773 58.1981 49.0595L58.2352 49.0142L58.3278 48.8783C58.3278 48.8783 58.3742 48.824 58.3927 48.7877L58.4947 48.6518L58.6615 48.4162L58.7356 48.3075L58.8561 48.1354C59.1527 48.226 59.3936 48.4978 59.44 48.833Z" fill="white"/>
<path d="M15.0664 24.0886C15.0664 21.2345 17.4297 18.915 20.3582 18.915C23.2776 18.915 25.6501 21.2255 25.6501 24.0886C25.6501 25.0672 24.9921 26.7796 23.6853 29.1535C22.703 30.9475 21.6001 32.669 20.8402 33.8106C20.6548 34.0824 20.4973 34.3271 20.3582 34.5173L19.8856 33.8106C19.7188 33.566 19.4778 33.2126 19.1905 32.7505L18.6715 31.9532C18.6715 31.9079 18.6159 31.8535 18.5881 31.8082C18.4028 31.5183 18.2174 31.2102 18.0228 30.884C15.5761 26.8159 15.0664 24.9766 15.0664 24.0886Z" fill="white"/>
<path d="M21.9434 35.3237C21.9434 35.813 21.1741 36.2479 20.303 36.2479C19.4225 36.2479 18.6626 35.813 18.6626 35.3237C18.7182 34.9794 18.9777 34.7076 19.3206 34.6079C19.6635 35.1153 19.9045 35.4505 19.9601 35.5502C20.0435 35.6771 20.1918 35.7495 20.34 35.7495C20.4883 35.7495 20.6366 35.6771 20.72 35.5502C20.7849 35.4505 21.0166 35.1153 21.3317 34.6079C21.6468 34.7166 21.8877 34.9975 21.9434 35.3237Z" fill="white"/>
<path d="M17.9395 24.1068C17.9395 24.0977 17.9395 24.0977 17.9395 24.0887H17.9673C17.9673 22.784 19.0423 21.7239 20.3769 21.7239C21.7114 21.7239 22.7957 22.7749 22.7957 24.0796C22.7957 25.3843 21.7207 26.4444 20.3861 26.4444C20.3861 26.4444 20.3861 26.4444 20.3769 26.4444C19.0423 26.4626 17.9487 25.4115 17.9395 24.1068Z" fill="white"/>
<path d="M60.237 37.5525C60.237 37.7247 60.2185 37.8968 60.1814 38.069C60.0609 38.5764 59.7736 39.0294 59.3659 39.3646C58.9303 39.718 58.3835 39.9173 57.8182 39.9083C56.4836 39.9717 55.353 38.975 55.2881 37.6703C55.2232 36.3656 56.2427 35.2602 57.5772 35.1968C57.6606 35.1968 57.7348 35.1968 57.8182 35.1968C58.1796 35.1968 58.5318 35.2783 58.8561 35.4324C59.6995 35.822 60.237 36.6465 60.237 37.5525Z" fill="white"/>
<path d="M59.4771 32.9862C62.0627 33.3667 63.9811 35.5322 63.9997 38.0873C63.9997 39.3467 62.8783 41.8836 60.8394 45.2179C60.1907 46.2871 59.6161 47.2203 59.1898 47.8183C59.0044 48.0901 58.8469 48.3348 58.7078 48.516L58.2352 47.8183C55.1676 43.2337 53.3975 39.691 53.3975 38.0873C53.3975 37.897 53.3975 37.7158 53.3975 37.5346C53.3975 37.4802 53.3975 37.4258 53.3975 37.3715C53.3975 37.3171 53.4345 37.1178 53.4623 36.9909C53.4901 36.8641 53.4623 36.8731 53.5087 36.8188C53.5365 36.701 53.5735 36.5832 53.6106 36.4745C53.6292 36.4201 53.6477 36.3658 53.6755 36.3023C53.7218 36.1845 53.7589 36.0849 53.8145 35.9671C53.8608 35.8493 53.8608 35.8674 53.8979 35.8131C53.9257 35.7678 54.0091 35.5956 54.074 35.4869L54.1574 35.351C54.2223 35.2422 54.2964 35.1335 54.3706 35.0339L54.4632 34.9161C54.5374 34.8164 54.6301 34.7077 54.7227 34.608L54.8061 34.5174C54.9081 34.4177 55.01 34.3181 55.112 34.2275L55.251 34.1731C55.3715 34.0734 55.492 33.9828 55.6124 33.9013L55.6773 33.856C55.8163 33.7563 55.9646 33.6748 56.1222 33.5842C56.6133 33.3123 57.1509 33.1221 57.7069 33.0133H57.8645C57.9942 33.0133 58.124 32.968 58.263 32.959H58.4669H58.8005C59.0229 32.968 59.2546 32.9771 59.4771 32.9862Z" fill="#A3EFE0"/>
<path d="M59.44 48.833C59.44 49.277 58.7634 49.7572 57.7996 49.7572C56.9191 49.7572 56.2889 49.3585 56.1777 48.9599C56.187 48.8964 56.187 48.8421 56.1777 48.7787C56.187 48.7515 56.1963 48.7243 56.187 48.6971C56.2889 48.4253 56.4928 48.2078 56.7709 48.0991L56.9933 48.4253L57.0582 48.525L57.0952 48.5884L57.1972 48.7243L57.2991 48.8602L57.3733 48.9689C57.3918 48.9961 57.4196 49.0233 57.4381 49.0595C57.5215 49.1773 57.6698 49.2498 57.8181 49.2498C57.9664 49.2498 58.1147 49.1773 58.1981 49.0595L58.2352 49.0142L58.3278 48.8783C58.3278 48.8783 58.3742 48.824 58.3927 48.7877L58.4947 48.6518L58.6615 48.4162L58.7356 48.3075L58.8561 48.1354C59.1527 48.226 59.3936 48.4978 59.44 48.833Z" fill="white"/>
<path d="M15.9653 24.6233C15.9653 21.7692 18.3286 19.4497 21.2572 19.4497C24.1765 19.4497 26.549 21.7602 26.549 24.6233C26.549 25.6018 25.891 27.3143 24.5843 29.6881C23.6019 31.4821 22.499 33.2036 21.7391 34.3453C21.5537 34.6171 21.3962 34.8617 21.2572 35.052L20.7845 34.3453C20.6177 34.1006 20.3767 33.7473 20.0894 33.2852L19.5705 32.4788C19.5705 32.4335 19.5149 32.3791 19.487 32.3338C19.3017 32.0439 19.1163 31.7358 18.9217 31.4096C16.4751 27.3415 15.9653 25.5022 15.9653 24.6233Z" fill="#A3EFE0"/>
<path d="M21.9434 35.3237C21.9434 35.813 21.1741 36.2479 20.303 36.2479C19.4225 36.2479 18.6626 35.813 18.6626 35.3237C18.7182 34.9794 18.9777 34.7076 19.3206 34.6079C19.6635 35.1153 19.9045 35.4505 19.9601 35.5502C20.0435 35.6771 20.1918 35.7495 20.34 35.7495C20.4883 35.7495 20.6366 35.6771 20.72 35.5502C20.7849 35.4505 21.0166 35.1153 21.3317 34.6079C21.6468 34.7166 21.8877 34.9975 21.9434 35.3237Z" fill="white"/>
<path d="M17.9395 24.1068C17.9395 24.0977 17.9395 24.0977 17.9395 24.0887H17.9673C17.9673 22.784 19.0423 21.7239 20.3769 21.7239C21.7114 21.7239 22.7957 22.7749 22.7957 24.0796C22.7957 25.3843 21.7207 26.4444 20.3861 26.4444C20.3861 26.4444 20.3861 26.4444 20.3769 26.4444C19.0423 26.4626 17.9487 25.4115 17.9395 24.1068Z" fill="white"/>
<path d="M60.237 37.5525C60.237 37.7247 60.2185 37.8968 60.1814 38.069C60.0609 38.5764 59.7736 39.0294 59.3659 39.3646C58.9303 39.718 58.3835 39.9173 57.8182 39.9083C56.4836 39.9717 55.353 38.975 55.2881 37.6703C55.2232 36.3656 56.2427 35.2602 57.5772 35.1968C57.6606 35.1968 57.7348 35.1968 57.8182 35.1968C58.1796 35.1968 58.5318 35.2783 58.8561 35.4324C59.6995 35.822 60.237 36.6465 60.237 37.5525Z" fill="white"/>
<path d="M63.9996 37.5989C63.9811 34.7267 61.9236 32.2532 59.0507 31.6643L58.7077 29.0548C58.6892 28.928 58.6151 28.8102 58.5039 28.7377C58.3926 28.6652 58.2536 28.638 58.1239 28.6743L50.1537 30.9485L41.8406 28.6562H41.5996L33.3977 30.9304L25.3071 28.6562H25.2051C25.168 28.6471 25.1217 28.6471 25.0846 28.6562H25.0012C26.0577 26.5813 26.586 25.0591 26.586 24.0806C26.586 20.7282 23.8057 18.01 20.3767 18.01C16.9476 18.01 14.1673 20.7282 14.1673 24.0806C14.1673 25.4034 15.1126 27.6776 16.9569 30.8216L16.4842 30.9757C16.3081 31.021 16.1784 31.175 16.1506 31.3562L12.9996 55.5026C12.9811 55.6566 13.0367 55.8107 13.1571 55.9013C13.2405 55.9647 13.3425 56.0009 13.4537 56.0009C13.5 56.01 13.5464 56.01 13.5927 56.0009L23.3423 53.0019L32.61 56.0009C32.6563 56.01 32.7119 56.01 32.7583 56.0009C32.8046 56.01 32.8509 56.01 32.8973 56.0009L42.3318 53.0019L51.9238 56.0009C51.9701 56.01 52.0165 56.01 52.0628 56.0009C52.1092 56.01 52.1648 56.01 52.2111 56.0009L61.4603 52.9657C61.6641 52.8932 61.7939 52.6938 61.7753 52.4764L60.8115 45.0467C62.9245 41.5494 63.9996 39.0577 63.9996 37.5989ZM58.578 32.4525C61.1637 32.8331 63.0821 34.9986 63.1006 37.5536C63.1006 38.8131 61.9792 41.35 59.9403 44.6843C59.2916 45.7535 58.717 46.6867 58.2907 47.2847C58.1054 47.5565 57.9478 47.8011 57.8088 47.9824L57.3361 47.2847C54.2685 42.7 52.4984 39.1574 52.4984 37.5536C52.4984 37.3634 52.4984 37.1822 52.4984 37.0009C52.4984 36.9466 52.4984 36.8922 52.4984 36.8379C52.4984 36.7835 52.5355 36.5842 52.5633 36.4573C52.5911 36.3305 52.5633 36.3395 52.6096 36.2852C52.6374 36.1674 52.6745 36.0496 52.7116 35.9409C52.7301 35.8865 52.7486 35.8321 52.7764 35.7687C52.8228 35.6509 52.8598 35.5513 52.9155 35.4335C52.9618 35.3157 52.9618 35.3338 52.9989 35.2794C53.0267 35.2341 53.1101 35.062 53.1749 34.9533L53.2584 34.8174C53.3232 34.7086 53.3974 34.5999 53.4715 34.5002L53.5642 34.3824C53.6383 34.2828 53.731 34.1741 53.8237 34.0744L53.9071 33.9838C54.009 33.8841 54.111 33.7844 54.2129 33.6938L54.3519 33.6395C54.4724 33.5398 54.5929 33.4492 54.7134 33.3677L54.7783 33.3224C54.9173 33.2227 55.0656 33.1411 55.2231 33.0505C55.7143 32.7787 56.2518 32.5885 56.8079 32.4797H56.9654C57.0952 32.4797 57.2249 32.4344 57.3639 32.4254H57.5678H57.9015C58.1239 32.4344 58.3556 32.4435 58.578 32.4525ZM59.3658 47.3481L59.3565 47.2938L59.9682 46.2971L60.2647 48.5169C60.1442 48.0186 59.8199 47.5927 59.3658 47.3481ZM59.4399 48.834C59.4399 49.278 58.7634 49.7582 57.7995 49.7582C56.9191 49.7582 56.2889 49.3596 56.1777 48.9609C56.1869 48.8975 56.1869 48.8431 56.1777 48.7797C56.1869 48.7525 56.1962 48.7253 56.1869 48.6981C56.2889 48.4263 56.4928 48.2089 56.7708 48.1001L56.9932 48.4263L57.0581 48.526L57.0952 48.5894L57.1971 48.7253L57.2991 48.8612L57.3732 48.97C57.3917 48.9971 57.4195 49.0243 57.4381 49.0606C57.5215 49.1783 57.6698 49.2508 57.8181 49.2508C57.9663 49.2508 58.1146 49.1783 58.198 49.0606L58.2351 49.0153L58.3278 48.8793C58.3278 48.8793 58.3741 48.825 58.3926 48.7887L58.4946 48.6528L58.6614 48.4173L58.7355 48.3085L58.856 48.1364C59.1526 48.227 59.3936 48.4988 59.4399 48.834ZM15.0663 24.0896C15.0663 21.2356 17.4295 18.9161 20.3581 18.9161C23.2774 18.9161 25.65 21.2265 25.65 24.0896C25.65 25.0682 24.992 26.7806 23.6852 29.1545C22.7028 30.9485 21.6 32.67 20.84 33.8116C20.6547 34.0834 20.4971 34.3281 20.3581 34.5184L19.8855 33.8116C19.7187 33.567 19.4777 33.2136 19.1904 32.7515L18.6714 31.9542C18.6714 31.9089 18.6158 31.8545 18.588 31.8092C18.4026 31.5193 18.2173 31.2112 18.0227 30.8851C15.576 26.8169 15.0663 24.9776 15.0663 24.0896ZM21.9429 35.3247C21.9429 35.814 21.1737 36.2489 20.3025 36.2489C19.4221 36.2489 18.6621 35.814 18.6621 35.3247C18.7177 34.9804 18.9772 34.7086 19.3201 34.609C19.663 35.1164 19.904 35.4516 19.9596 35.5513C20.043 35.6781 20.1913 35.7506 20.3396 35.7506C20.4879 35.7506 20.6361 35.6781 20.7196 35.5513C20.7844 35.4516 21.0161 35.1164 21.3312 34.609C21.6463 34.7177 21.8873 34.9986 21.9429 35.3247ZM22.916 52.1774L14.0098 54.9318L17.031 31.7549L17.411 31.6552L17.4759 31.7639L17.6056 31.9633L17.7539 32.2079L17.8837 32.4072L18.0134 32.6156L18.1524 32.824L18.2636 32.9962L18.3934 33.1955C18.4304 33.2499 18.4675 33.3042 18.4953 33.3586C18.5231 33.413 18.5787 33.4764 18.6158 33.5398L18.7177 33.6938L18.8197 33.8479C18.2266 34.1197 17.8373 34.6814 17.8002 35.3157C17.8002 36.3395 18.9309 37.1097 20.3581 37.1097C21.5815 37.1097 22.5546 36.5117 22.8048 35.7325H23.6481C23.8984 35.7325 24.1115 35.5331 24.1115 35.2794C24.1115 35.0348 23.9076 34.8264 23.6481 34.8264H22.7863C22.6194 34.4006 22.2951 34.0563 21.8873 33.8479L21.9336 33.7844L22.2117 33.3495C22.2395 33.3133 22.258 33.2771 22.2765 33.2408C22.3692 33.0958 22.4711 32.9509 22.5546 32.8059C22.5824 32.7606 22.6194 32.7153 22.638 32.67L22.916 32.226L23.0179 32.0629L23.296 31.6099L23.4072 31.4287L23.7223 30.9576L23.852 30.731C23.9354 30.5951 24.0189 30.4502 24.093 30.3052C24.1764 30.1602 24.1949 30.1421 24.232 30.0606L24.4174 29.7434L24.6954 29.6619L22.916 52.1774ZM32.8324 36.4392C32.23 36.1946 31.6183 35.9862 30.9974 35.814C30.7564 35.7506 30.5062 35.8774 30.4321 36.113V36.1221C30.3672 36.3576 30.5062 36.6113 30.7472 36.6748C31.4515 36.865 32.1466 37.1006 32.8231 37.3906L32.5451 48.073L32.332 54.9227L23.8428 52.1865L25.6036 29.6619L32.9529 31.7186L32.8324 36.4392ZM33.2402 54.9318L33.7221 36.4573L33.8426 31.7277L41.2845 29.671L41.4235 34.8264L41.7016 45.7535C41.5811 45.6175 41.4606 45.4907 41.3401 45.3548C41.1733 45.1645 40.886 45.1373 40.6914 45.2914C40.4968 45.4454 40.4597 45.7263 40.6265 45.9256C40.6265 45.9347 40.6358 45.9347 40.6358 45.9437C40.9694 46.3333 41.3401 46.7048 41.7386 47.031L41.8777 52.1955L33.2402 54.9318ZM42.7952 52.1774L42.6747 47.6562H42.7581C42.9064 47.6562 43.0546 47.5837 43.1381 47.4659C43.2585 47.2666 43.2029 47.0038 43.0176 46.8679C42.8878 46.7864 42.7674 46.6957 42.6561 46.6051L42.2113 29.6891L49.7552 31.7277L51.0805 48.6438C50.58 48.6438 50.0981 48.6438 49.644 48.6438C49.3937 48.6347 49.1806 48.825 49.162 49.0696C49.1528 49.3143 49.3474 49.5226 49.6069 49.5408C50.0147 49.5408 50.441 49.5408 50.8858 49.5408H51.1546L51.5809 54.9318L42.7952 52.1774ZM60.8671 52.1955L52.5169 54.9318L52.0906 49.5408C52.3316 49.5226 52.5169 49.3143 52.5077 49.0787C52.5077 48.8431 52.3131 48.6438 52.0721 48.6438C52.0628 48.6438 52.0443 48.6438 52.035 48.6438L50.6819 31.7096L57.8922 29.6528L58.1332 31.5012C58.1146 31.5012 58.0868 31.5012 58.0683 31.5012H57.4195H57.1415L56.7523 31.5556L56.4928 31.6099L56.1128 31.7005L55.8811 31.7821C55.7421 31.8274 55.6216 31.8636 55.4919 31.918L55.288 32.0086C55.1582 32.0629 55.0378 32.1264 54.908 32.1898L54.7319 32.2895C54.6022 32.3619 54.4817 32.4435 54.3612 32.516L54.2037 32.6338C54.0832 32.7153 53.9627 32.8059 53.8515 32.9056L53.7125 33.0234C53.592 33.123 53.49 33.2227 53.3788 33.3314L53.2584 33.4583C53.1564 33.567 53.0545 33.6848 52.9618 33.8026L52.8506 33.9385C52.7579 34.0563 52.6745 34.1831 52.5911 34.31L52.4891 34.464C52.4057 34.5908 52.3409 34.7177 52.276 34.8536C52.2111 34.9895 52.2111 34.9714 52.1926 35.0257C52.174 35.0801 52.0721 35.2976 52.0165 35.4335C51.9887 35.4969 51.9701 35.5603 51.9516 35.6237C51.9053 35.7597 51.8682 35.8956 51.8311 36.0405C51.7941 36.1855 51.7848 36.1764 51.7755 36.2399C51.7663 36.3033 51.7199 36.5479 51.6921 36.6929C51.6921 36.7563 51.6921 36.8107 51.6921 36.8741C51.6643 37.0916 51.655 37.309 51.655 37.5355C51.655 39.8097 54.4539 44.4578 56.326 47.3028C55.8811 47.5203 55.5289 47.8917 55.3714 48.3538L54.5373 48.4354C54.2871 48.4716 54.111 48.6981 54.1573 48.9518C54.1944 49.1602 54.3705 49.3233 54.5836 49.3324H54.63L55.4085 49.2508C55.8718 50.1388 56.8449 50.6643 57.8551 50.5827C59.2916 50.5827 60.413 49.7763 60.413 48.7887C60.413 48.7887 60.413 48.7887 60.413 48.7434L60.8671 52.1955Z" fill="#464860"/>
<path d="M23.7133 24.1249C23.7133 24.1158 23.7133 24.1068 23.7133 24.0977C23.704 22.2947 22.2027 20.845 20.3584 20.854C18.5141 20.8631 17.0313 22.3309 17.0406 24.1249C17.0498 25.9098 18.5234 27.3505 20.3491 27.3686C22.1934 27.3777 23.704 25.928 23.7133 24.1249ZM17.9395 24.1068C17.9395 24.0977 17.9395 24.0977 17.9395 24.0887H17.9673C17.9673 22.7839 19.0424 21.7239 20.3769 21.7239C21.7115 21.7239 22.7958 22.7749 22.7958 24.0796C22.7958 25.3843 21.7207 26.4444 20.3862 26.4444C20.3862 26.4444 20.3862 26.4444 20.3769 26.4444C19.0424 26.4625 17.9488 25.4115 17.9395 24.1068Z" fill="#464860"/>
<path d="M54.4819 37.5528C54.4819 39.3468 55.974 40.8055 57.8183 40.8055C58.0222 40.8055 58.2261 40.7874 58.43 40.7602C60.2372 40.425 61.4141 38.7125 61.0712 36.9548C60.8766 35.949 60.2001 35.0883 59.2548 34.6443C58.8099 34.4178 58.3187 34.3091 57.8183 34.3091C55.9833 34.3181 54.5005 35.7588 54.4819 37.5528ZM60.2372 37.5528C60.2372 37.7249 60.2186 37.8971 60.1816 38.0692C60.0611 38.5766 59.7738 39.0296 59.366 39.3649C58.9304 39.7182 58.3836 39.9176 57.8183 39.9085C56.4838 39.9719 55.3531 38.9753 55.2882 37.6706C55.2233 36.3658 56.2428 35.2604 57.5773 35.197C57.6607 35.197 57.7349 35.197 57.8183 35.197C58.1797 35.197 58.5319 35.2786 58.8563 35.4326C59.6996 35.8222 60.2372 36.6467 60.2372 37.5528Z" fill="#464860"/>
<path d="M47.2905 48.4071C46.5213 48.2893 45.7706 48.1081 45.0384 47.8544C44.7975 47.7728 44.538 47.8906 44.4546 48.1262C44.3712 48.3618 44.4916 48.6155 44.7326 48.697V48.6879C45.5111 48.9598 46.3174 49.1591 47.1422 49.2859H47.2163C47.4666 49.2859 47.6797 49.0866 47.6705 48.8329C47.6797 48.6336 47.5129 48.4433 47.2905 48.4071Z" fill="#464860"/>
<path d="M25.9561 35.8947C25.9839 35.8947 26.0024 35.9037 26.0302 35.9037L26.058 35.9128C26.8828 35.9762 27.6799 36.0759 28.412 36.1936H28.4861C28.7456 36.1755 28.9403 35.9581 28.9217 35.7134C28.9125 35.5141 28.7642 35.342 28.5603 35.2967C27.8003 35.1789 26.9848 35.0792 26.1136 35.0158C25.8634 34.9795 25.6224 35.1426 25.5854 35.3873C25.539 35.6228 25.7058 35.8584 25.9561 35.8947Z" fill="#464860"/>
<path d="M37.2721 39.4917C36.7253 38.8756 36.1136 38.3229 35.4463 37.8337C35.2424 37.6887 34.9551 37.7249 34.8069 37.9333C34.6586 38.1327 34.6956 38.4135 34.9088 38.5585C35.5205 39.0025 36.0858 39.5099 36.5863 40.0807C36.6789 40.1804 36.7994 40.2347 36.9384 40.2347C37.0496 40.2347 37.1516 40.1894 37.235 40.1169C37.4203 39.972 37.4389 39.682 37.2721 39.4917C37.2721 39.5008 37.2721 39.4917 37.2721 39.4917Z" fill="#464860"/>
<path d="M39.5148 42.6812C39.2646 42.2735 39.0143 41.8657 38.7456 41.4852C38.6158 41.2859 38.3378 41.2224 38.1339 41.3493C37.9393 41.4852 37.8744 41.7389 37.9949 41.9473C38.2544 42.3459 38.4953 42.7537 38.7456 43.1433C38.9124 43.4151 39.0699 43.6869 39.246 43.9497C39.3387 44.0856 39.487 44.1581 39.6538 44.149C39.7372 44.149 39.8206 44.1218 39.8948 44.0856C40.0986 43.9497 40.1635 43.696 40.043 43.4876C39.8391 43.2158 39.6723 42.9439 39.5148 42.6812Z" fill="#464860"/>
</svg>
