<svg width="78" height="78" viewBox="0 0 78 78" fill="none" xmlns="http://www.w3.org/2000/svg">
<rect width="78" height="78" fill="white"/>
<path d="M19.8695 44.23C19.2295 45.4 19.0895 46.82 19.4795 48.1L19.5995 48.49H19.1995H18.5795C17.2795 48.49 16.2295 47.43 16.2295 46.14C16.2295 44.85 17.2895 43.79 18.5795 43.79H19.6195H20.1295L19.8695 44.23Z" fill="white"/>
<path d="M24.3098 50.4401H24.2398C22.2098 50.4401 20.5198 48.7801 20.4898 46.7501V46.6201C20.4798 44.6001 22.1198 42.9101 24.1498 42.8601H24.2498C26.2998 42.8601 27.9498 44.4701 27.9998 46.5201V46.6301C28.0398 48.6901 26.3798 50.4001 24.3098 50.4401Z" fill="white"/>
<path d="M50.1699 44.23C49.5199 45.41 49.3799 46.82 49.7799 48.1L49.8999 48.49H49.4899H29.2899H28.8899L29.0099 48.1C29.4099 46.82 29.2599 45.41 28.6199 44.23L28.3799 43.79H28.8899H49.9199H50.4299L50.1699 44.23Z" fill="white"/>
<path d="M54.6096 50.4401H54.5396C52.5096 50.4401 50.8196 48.7801 50.7896 46.7501V46.6201C50.7796 44.6001 52.4196 42.9101 54.4496 42.8601H54.5496C56.5996 42.8601 58.2496 44.4701 58.2996 46.5201V46.6301C58.3296 48.6901 56.6796 50.4001 54.6096 50.4401Z" fill="white"/>
<path d="M57.5098 42.5499H57.4198L57.3398 42.4999C56.5098 41.9399 55.5398 41.6399 54.5398 41.6399C53.5398 41.6399 52.5698 41.9399 51.7398 42.4999L51.6598 42.5499H51.5698H27.2198H27.1298L27.0498 42.4999C26.2198 41.9399 25.2498 41.6399 24.2498 41.6399C23.2498 41.6399 22.2798 41.9399 21.4498 42.4999L21.3698 42.5499H21.2698H19.1198H18.8198V42.2499V35.5599C18.8198 35.3899 18.8798 35.2399 18.9998 35.1199C19.1198 34.9999 19.2798 34.9399 19.4398 34.9399H19.6898H25.6298C25.8098 34.9399 25.9898 34.9999 26.1398 35.1099C29.3698 37.5899 33.3998 38.9499 37.4698 38.9499C41.4898 38.9499 45.3098 37.6899 48.5398 35.2999C48.6898 35.1899 48.8598 35.1399 49.0398 35.1399C49.1198 35.1399 49.1898 35.1499 49.2698 35.1699C53.1798 36.2599 56.5798 38.5199 59.0998 41.7099C59.1898 41.8199 59.2198 41.9499 59.2098 42.0899C59.1898 42.2299 59.1298 42.3499 59.0198 42.4299C58.9298 42.4999 58.8198 42.5399 58.6998 42.5399H57.5098V42.5499Z" fill="white"/>
<path d="M59.7494 48.49H59.5894H59.1794L59.2994 48.1C59.6994 46.82 59.5494 45.41 58.9094 44.23L58.6694 43.79H59.1794H59.7494C61.0494 43.79 62.0994 44.85 62.0994 46.14C62.0994 47.43 61.0394 48.49 59.7494 48.49Z" fill="white"/>
<path d="M20.5299 45.0601C19.8799 46.2401 19.7399 47.6501 20.1399 48.9301L20.2599 49.3201H19.8499H19.2299C17.9299 49.3201 16.8799 48.2601 16.8799 46.9701C16.8799 45.6801 17.9399 44.6201 19.2299 44.6201H20.2699H20.7799L20.5299 45.0601Z" fill="#A3EFE0"/>
<path d="M24.3098 50.4401H24.2398C22.2098 50.4401 20.5198 48.7801 20.4898 46.7501V46.6201C20.4798 44.6001 22.1198 42.9101 24.1498 42.8601H24.2498C26.2998 42.8601 27.9498 44.4701 27.9998 46.5201V46.6301C28.0398 48.6901 26.3798 50.4001 24.3098 50.4401Z" fill="white"/>
<path d="M50.9299 44.74C50.2799 45.92 50.1399 47.3301 50.5399 48.6101L50.6599 49H50.2499H30.0499H29.6399L29.7599 48.6101C30.1599 47.3301 30.0099 45.92 29.3699 44.74L29.1299 44.3H29.6399H50.6699H51.1799L50.9299 44.74Z" fill="#A3EFE0"/>
<path d="M54.6096 50.4401H54.5396C52.5096 50.4401 50.8196 48.7801 50.7896 46.7501V46.6201C50.7796 44.6001 52.4196 42.9101 54.4496 42.8601H54.5496C56.5996 42.8601 58.2496 44.4701 58.2996 46.5201V46.6301C58.3296 48.6901 56.6796 50.4001 54.6096 50.4401Z" fill="white"/>
<path d="M58.0196 43.7799H57.9296L57.8496 43.7299C57.0196 43.1699 56.0496 42.8699 55.0496 42.8699C54.0496 42.8699 53.0796 43.1699 52.2496 43.7299L52.1696 43.7799H52.0796H27.7196H27.6296L27.5496 43.7299C26.7196 43.1699 25.7496 42.8699 24.7496 42.8699C23.7496 42.8699 22.7796 43.1699 21.9496 43.7299L21.8696 43.7799H21.7796H19.6296H19.3296V43.4799V36.7899C19.3296 36.6199 19.3896 36.4699 19.5096 36.3499C19.6296 36.2399 19.7896 36.1699 19.9496 36.1699H20.1996H26.1396C26.3196 36.1699 26.4996 36.2299 26.6496 36.3399C29.8796 38.8199 33.9096 40.1799 37.9796 40.1799C41.9996 40.1799 45.8196 38.9199 49.0496 36.5299C49.1996 36.4199 49.3696 36.3699 49.5496 36.3699C49.6296 36.3699 49.6996 36.3799 49.7796 36.3999C53.6896 37.4899 57.0896 39.7499 59.6096 42.9399C59.6996 43.0499 59.7296 43.1799 59.7196 43.3199C59.6996 43.4599 59.6396 43.5799 59.5296 43.6599C59.4396 43.7299 59.3296 43.7699 59.2096 43.7699H58.0196V43.7799Z" fill="#CCB8F4"/>
<path d="M60.5395 49H60.3795H59.9695L60.0895 48.6101C60.4895 47.3301 60.3395 45.92 59.6995 44.74L59.4595 44.3H59.9695H60.5395C61.8395 44.3 62.8895 45.36 62.8895 46.65C62.8895 47.94 61.8295 49 60.5395 49Z" fill="#A3EFE0"/>
<path d="M61.5297 43.03L61.4597 42.99L61.4197 42.92C58.6097 38.32 54.1697 35.08 48.9297 33.81C48.8697 33.8 48.8097 33.8 48.7497 33.8C48.5797 33.8 48.3997 33.86 48.2697 33.97C48.0297 34.16 47.7897 34.34 47.5497 34.51L47.3497 34.65L47.1697 34.48L43.0997 30.57L42.8797 30.36L43.0897 30.14L45.1097 28.04C45.2197 27.92 45.2797 27.77 45.2797 27.6C45.2797 27.44 45.2097 27.28 45.0897 27.17C44.9697 27.06 44.8197 27 44.6597 27H44.6197H44.5897C44.4497 27.02 44.3197 27.08 44.2197 27.19L38.8797 32.75C38.6397 33 38.6497 33.39 38.8997 33.62C39.0197 33.73 39.1697 33.79 39.3297 33.79C39.4997 33.79 39.6597 33.72 39.7697 33.6L41.8197 31.46L42.0297 31.24L42.2497 31.45L45.9897 35.05L46.2797 35.33L45.9297 35.53C43.3497 36.97 40.4197 37.73 37.4697 37.73C33.8997 37.73 30.4697 36.65 27.5397 34.62L27.4097 34.53V34.37V30.21C27.4097 29.61 26.9097 29.12 26.3097 29.12C25.6997 29.12 25.2097 29.61 25.2097 30.21V33.41V33.71H24.9097H19.4497C18.4297 33.71 17.5997 34.54 17.5997 35.56V42.47V42.68L17.3997 42.75C15.5397 43.4 14.5497 45.45 15.1997 47.31C15.6997 48.75 17.0597 49.71 18.5797 49.71H20.1897H20.3297L20.4197 49.82C21.3697 50.96 22.7597 51.61 24.2497 51.61C25.4197 51.61 26.5497 51.2 27.4497 50.45C27.6797 50.26 27.8897 50.05 28.0697 49.83L28.1597 49.72H28.2997H50.4897H50.6297L50.7197 49.83C51.6697 50.97 53.0597 51.62 54.5497 51.62C55.7197 51.62 56.8497 51.21 57.7497 50.46C57.9797 50.27 58.1897 50.06 58.3697 49.84L58.4597 49.73H58.5997H59.7497C61.7297 49.73 63.3297 48.12 63.3297 46.15C63.3297 44.86 62.6397 43.67 61.5297 43.03ZM19.8697 44.23C19.2297 45.4 19.0897 46.82 19.4797 48.1L19.5997 48.49H19.1997H18.5797C17.2797 48.49 16.2297 47.43 16.2297 46.14C16.2297 44.85 17.2897 43.79 18.5797 43.79H19.6197H20.1297L19.8697 44.23ZM24.3097 50.44H24.2397C22.2097 50.44 20.5197 48.78 20.4897 46.75V46.62C20.4797 44.6 22.1197 42.91 24.1497 42.86H24.2497C26.2997 42.86 27.9497 44.47 27.9997 46.52V46.63C28.0397 48.69 26.3797 50.4 24.3097 50.44ZM50.1697 44.23C49.5197 45.41 49.3797 46.82 49.7797 48.1L49.8997 48.49H49.4897H29.2897H28.8897L29.0097 48.1C29.4097 46.82 29.2597 45.41 28.6197 44.23L28.3797 43.79H28.8897H49.9197H50.4297L50.1697 44.23ZM54.6097 50.44H54.5397C52.5097 50.44 50.8197 48.78 50.7897 46.75V46.62C50.7797 44.6 52.4197 42.91 54.4497 42.86H54.5497C56.5997 42.86 58.2497 44.47 58.2997 46.52V46.63C58.3297 48.69 56.6797 50.4 54.6097 50.44ZM57.5097 42.55H57.4197L57.3397 42.5C56.5097 41.94 55.5397 41.64 54.5397 41.64C53.5397 41.64 52.5697 41.94 51.7397 42.5L51.6597 42.55H51.5697H27.2197H27.1297L27.0497 42.5C26.2197 41.94 25.2497 41.64 24.2497 41.64C23.2497 41.64 22.2797 41.94 21.4497 42.5L21.3697 42.55H21.2697H19.1197H18.8197V42.25V35.56C18.8197 35.39 18.8797 35.24 18.9997 35.12C19.1197 35 19.2797 34.94 19.4397 34.94H19.6897H25.6297C25.8097 34.94 25.9897 35 26.1397 35.11C29.3697 37.59 33.3997 38.95 37.4697 38.95C41.4897 38.95 45.3097 37.69 48.5397 35.3C48.6897 35.19 48.8597 35.14 49.0397 35.14C49.1197 35.14 49.1897 35.15 49.2697 35.17C53.1797 36.26 56.5797 38.52 59.0997 41.71C59.1897 41.82 59.2197 41.95 59.2097 42.09C59.1897 42.23 59.1297 42.35 59.0197 42.43C58.9297 42.5 58.8197 42.54 58.6997 42.54H57.5097V42.55ZM59.7497 48.49H59.5897H59.1797L59.2997 48.1C59.6997 46.82 59.5497 45.41 58.9097 44.23L58.6697 43.79H59.1797H59.7497C61.0497 43.79 62.0997 44.85 62.0997 46.14C62.0997 47.43 61.0397 48.49 59.7497 48.49Z" fill="#464860"/>
</svg>
