<svg xmlns="http://www.w3.org/2000/svg" viewBox="0 0 1010 1044" width="1010" height="1044"><defs><clipPath clipPathUnits="userSpaceOnUse" id="cp1"><path d="M0 0h1010v1044H0z"/></clipPath></defs><style>.shp0{fill:#fff}.shp3{fill:#464860}</style><g id="Page 1" clip-path="url(#cp1)"><path id="Path 1" class="shp0" d="M818.05 574.06c48.85 0 91.76 28.61 111.06 71.81 31.96-22.22 41.95-48.51 45.05-63.28-34.15-12.29-120.9-50.29-163.91-131.67-13.92-26.36-40.81-42.94-70.19-43.29-33.56-.37-81.31 5.32-126.58 33.57 19.58 22.13 30.52 50.6 30.52 80.64v1.27c5.76-.83 11.57-1.27 17.4-1.27 44.75 0 85.41 24.63 106.57 62.97 15.63-7.08 32.64-10.75 50.08-10.75zM522.16 400c22.15 0 43.49 5.94 62.36 17.27 38.45-41.23 52.72-90.09 57.86-124.47 4.35-29.06-7.73-58.27-31.51-76.23-71.69-54.15-95.92-142.81-103.21-180.21-22.3 4.59-65.79 20.52-99.52 75.5 47.01 17.4 79.21 62.29 79.21 114.09 0 15.68-3.08 31.26-8.98 45.78 27.65 23.02 43.79 56.95 43.79 93.46 0 11.94-1.73 23.67-5.08 34.92 1.68-.07 3.39-.11 5.08-.11zm155.58-124.91c.47 7.78.16 15.42-.94 22.87-3.69 24.66-11.69 56.58-28.84 89.04 34.83-11.73 67.73-14.44 92.53-14.2 3.38.03 6.79.28 10.39.7l1.05-1.38c.73-.96 1.54-1.84 2.45-2.63C864.66 273 871.59 104.41 870.89 51.88h-35.78c-7.12 168.87-117.28 212.8-157.37 223.21z"/><path id="Path 2" d="M838.05 616.06c48.85 0 80.01 11.9 99.31 55.1 31.96-22.22 58.49-75.7 61.59-90.48-34.15-12.29-111.99-12.26-155-93.65-13.93-26.35-54.51-37.05-83.89-37.4-33.56-.37-108.24 9.15-153.51 37.4C626.13 509.15 664 533.8 664 563.84v1.27c5.76-.83 11.57-1.27 17.4-1.27 44.75 0 85.41 24.63 106.57 62.97 15.63-7.08 32.64-10.75 50.08-10.75zM542.16 442c22.15 0 43.49 5.94 62.36 17.27 38.45-41.23 52.72-90.09 57.86-124.47 4.35-29.06 2.84-73.48-20.93-91.44l-1-8.14c-71.7-54.15-105.5-119.46-112.79-156.86-22.3 4.59-65.79 20.52-99.52 75.5 47.01 17.4 50.23 66.07 50.23 117.87 0 15.68 25.9 27.48 20 42 27.65 23.02 9.08 52.48 9.08 88.99 0 11.94 32.98 28.14 29.63 39.39 1.68-.07 3.39-.11 5.08-.11zm119.59-110.66c.47 7.78.15 15.42-.94 22.87l-27.33 28.39c-3.69 24.66 61.74-7.52 44.59 24.94 34.83-11.73 49.58-7.78 74.38-7.53 3.37.03 7.39-.42 11 0l8.82 2.9c.73-.95-9.73-2.12-8.82-2.9 110.28-96.5 128.14-253.6 127.44-306.13h-35.78c-7.12 168.87-153.28 227.05-193.36 237.46z" fill="#a3efe0"/><path id="Path 3" class="shp0" d="M365.51 138.93c-47.99 0-87.03 39.04-87.03 87.02 0 24.09 9.85 46.63 26.96 62.89 22.93-28.44 57.76-45.48 94.88-45.48 16.52 0 32.74 3.36 47.81 9.81a86.538 86.538 0 004.41-27.22c0-47.98-39.04-87.02-87.03-87.02zM261.08 295.57c-47.99 0-87.03 39.04-87.03 87.03 0 47.98 39.04 87.03 87.03 87.03 19.42 0 38.08-6.51 53.23-18.26-22.72-22.68-35.82-53.66-35.82-86.18 0-15.7 3.09-31.26 9.03-45.79-8.16-6.86-15.47-14.85-21.67-23.65-1.57-.13-3.17-.18-4.77-.18zm139.24-17.4c-47.98 0-87.02 39.04-87.02 87.02 0 47.99 39.04 87.03 87.02 87.03 8.2 0 16.4-1.2 24.46-3.6 12.95-17.15 30.54-30.79 50.44-39.11 7.95-13.4 12.11-28.62 12.11-44.32.02-47.98-39.02-87.02-87.01-87.02zm174.98 353.2c-.63 4.18-.94 8.29-.94 12.31 0 47.98 39.04 87.02 87.02 87.02 47.99 0 87.03-39.04 87.03-87.02 0-47.99-39.04-87.03-87.03-87.03-7.97 0-15.89 1.12-23.62 3.33a121.708 121.708 0 01-62.46 71.39zM348.11 487.03c-47.99 0-87.03 39.04-87.03 87.03 0 47.98 39.04 87.02 87.03 87.02 37.87 0 70.57-23.88 82.38-59.09-19.53-22.21-30.17-50.3-30.17-80.15 0-5.43.38-10.91 1.15-16.43-15.25-11.9-33.89-18.38-53.36-18.38zM740.91 736c14.81 28.49 44.45 46.92 77.14 46.92 47.98 0 87.02-39.04 87.02-87.03 0-47.98-39.04-87.02-87.02-87.02-13.2 0-26.02 2.94-37.72 8.58 1.93 8.67 2.91 17.44 2.91 26.23 0 35.73-15.6 69.29-42.33 92.32zm-198.6 68.66c9.68 37.98 43.97 65.29 84.28 65.29 47.99 0 87.03-39.04 87.03-87.03 0-9.26-1.5-18.47-4.41-27.22-35.85 15.39-78.74 12.06-111.49-8.22-11.48 24.68-30.86 44.8-55.41 57.18zm-302.95 51.36c-19.27 16.45-30.5 40.49-30.5 66.14 0 47.99 39.04 87.03 87.03 87.03 32.69 0 62.35-18.43 77.14-46.93-26.73-23.01-42.33-56.56-42.33-92.31 0-1.71.04-3.4.11-5.1-29.98 8.96-63.6 5.81-91.45-8.83zm129.88-10.63c-2.48 8.18-3.73 16.41-3.73 24.56 0 47.98 39.04 87.02 87.03 87.02 47.98 0 87.02-39.04 87.02-87.02 0-.61 0-1.22-.01-1.83-14.43-14.73-24.81-32.76-30.29-52.39-33.73 6.2-68.92-2.42-95.95-23.2-1.74.92-3.52 1.93-5.31 3.04-8.39 19.86-21.65 36.9-38.76 49.82zm48.49-97.35c16.43 21.95 42.06 34.88 69.62 34.88 37.87 0 70.58-23.88 82.38-59.09-19.53-22.21-30.17-50.3-30.17-80.15v-1.29c-28.3 4.21-57.3-2.04-81.24-16.87-11.7 25.03-31.72 45.52-56.8 57.81-.15 1.11-.31 2.26-.43 3.41 10.89 18.59 16.62 39.63 16.64 61.3zM176.61 470.25c-50.8 5.07-89.58 47.29-89.58 99.16 0 55.04 44.76 99.78 99.78 99.78 23.08 0 45.43-8.19 63.22-22.85-15.42-20.83-23.76-45.95-23.76-72.28 0-25.28 7.97-49.82 22.43-70.25-.1-.02-.22-.05-.33-.09-27.06-2.82-52.19-14.58-71.76-33.47zM93.29 666.06c-34.86 11.96-58.48 44.46-58.48 82.05 0 47.99 39.04 87.03 87.03 87.03 25.65 0 49.67-11.25 66.14-30.5-9.14-17.39-13.93-36.69-13.93-56.53 0-15.12 2.91-30.06 8.53-44.17-33.43-1.05-65.25-14.61-89.29-37.88zm131.19 32.45c-10.24 14.6-15.62 31.64-15.62 49.6 0 47.99 39.04 87.03 87.03 87.03s87.03-39.04 87.03-87.03c0-19.55-6.51-38.24-18.47-53.5-5.73.87-11.05 1.29-16.34 1.29-26.95 0-52.46-8.67-73.52-24.74a133.886 133.886 0 01-50.11 27.35zM54.62 849.64c-12.73 15.47-19.83 34.93-19.83 55.12 0 47.98 39.04 87.02 87.03 87.02 22.94 0 44.59-8.92 60.78-24.81-5.69-14.28-8.56-29.3-8.56-44.81 0-23.77 6.78-46.42 19.75-66.19-1.5-2.19-3.08-4.32-4.77-6.37-39.73 26.44-94.67 26.4-134.4.04zm467.54-414.82c-47.99 0-87.03 39.04-87.03 87.02 0 47.99 39.04 87.03 87.03 87.03 47.98 0 87.02-39.04 87.02-87.03 0-47.98-39.04-87.02-87.02-87.02z"/><path id="Path 4" d="M389.51 156.93c-47.99 0-87.03 39.04-87.03 87.02 0 24.09 9.85 46.63 26.96 62.89 22.93-28.44 57.76-45.48 94.88-45.48 16.52 0 32.74 3.36 47.81 9.81a86.538 86.538 0 004.41-27.22c0-47.98-39.04-87.02-87.03-87.02zM285.08 313.57c-47.99 0-87.03 39.04-87.03 87.03 0 47.98 39.04 87.03 87.03 87.03 19.42 0 38.08-6.51 53.23-18.26-22.72-22.68-35.82-53.66-35.82-86.18 0-15.7 3.09-31.26 9.03-45.79-8.16-6.86-15.47-14.85-21.67-23.65-1.57-.13-3.17-.18-4.77-.18zm139.24-17.4c-47.98 0-87.02 39.04-87.02 87.02 0 47.99 39.04 87.03 87.02 87.03 8.2 0 16.4-1.2 24.46-3.6 12.95-17.15 30.54-30.79 50.44-39.11 7.95-13.4 12.11-28.62 12.11-44.32.02-47.98-39.02-87.02-87.01-87.02zm174.98 353.2c-.63 4.18-.94 8.29-.94 12.31 0 47.98 39.04 87.02 87.02 87.02 47.99 0 87.03-39.04 87.03-87.02 0-47.99-39.04-87.03-87.03-87.03-7.97 0-15.89 1.12-23.62 3.33a121.708 121.708 0 01-62.46 71.39zM372.11 505.03c-47.99 0-87.03 39.04-87.03 87.03 0 47.98 39.04 87.02 87.03 87.02 37.87 0 70.57-23.88 82.38-59.09-19.53-22.21-30.17-50.3-30.17-80.15 0-5.43.38-10.91 1.15-16.43-15.25-11.9-33.89-18.38-53.36-18.38zM764.91 754c14.81 28.49 44.45 46.92 77.14 46.92 47.98 0 87.02-39.04 87.02-87.03 0-47.98-39.04-87.02-87.02-87.02-13.2 0-26.02 2.94-37.72 8.58 1.93 8.67 2.91 17.44 2.91 26.23 0 35.73-15.6 69.29-42.33 92.32zm-198.6 68.66c9.68 37.98 43.97 65.29 84.28 65.29 47.99 0 87.03-39.04 87.03-87.03 0-9.26-1.5-18.47-4.41-27.22-35.85 15.39-78.74 12.06-111.49-8.22-11.48 24.68-30.86 44.8-55.41 57.18zm-302.95 51.36c-19.27 16.45-30.5 40.49-30.5 66.14 0 47.99 39.04 87.03 87.03 87.03 32.69 0 62.35-18.43 77.14-46.93-26.73-23.01-42.33-56.56-42.33-92.31 0-1.71.04-3.4.11-5.1-29.98 8.96-63.6 5.81-91.45-8.83zm129.88-10.63c-2.48 8.18-3.73 16.41-3.73 24.56 0 47.98 39.04 87.02 87.03 87.02 47.98 0 87.02-39.04 87.02-87.02 0-.61 0-1.22-.01-1.83-14.43-14.73-24.81-32.76-30.29-52.39-33.73 6.2-68.92-2.42-95.95-23.2-1.74.92-3.52 1.93-5.31 3.04-8.39 19.86-21.65 36.9-38.76 49.82zm48.49-97.35c16.43 21.95 42.06 34.88 69.62 34.88 37.87 0 70.58-23.88 82.38-59.09-19.53-22.21-30.17-50.3-30.17-80.15v-1.29c-28.3 4.21-57.3-2.04-81.24-16.87-11.7 25.03-31.72 45.52-56.8 57.81-.15 1.11-.31 2.26-.43 3.41 10.89 18.59 16.62 39.63 16.64 61.3zM200.61 488.25c-50.8 5.07-89.58 47.29-89.58 99.16 0 55.04 44.76 99.78 99.78 99.78 23.08 0 45.43-8.19 63.22-22.85-15.42-20.83-23.76-45.95-23.76-72.28 0-25.28 7.97-49.82 22.43-70.25-.1-.02-.22-.05-.33-.09-27.06-2.82-52.19-14.58-71.76-33.47zm-83.32 195.81c-34.86 11.96-58.48 44.46-58.48 82.05 0 47.99 39.04 87.03 87.03 87.03 25.65 0 49.67-11.25 66.14-30.5-9.14-17.39-13.93-36.69-13.93-56.53 0-15.12 2.91-30.06 8.53-44.17-33.43-1.05-65.25-14.61-89.29-37.88zm131.19 32.45c-10.24 14.6-15.62 31.64-15.62 49.6 0 47.99 39.04 87.03 87.03 87.03s87.03-39.04 87.03-87.03c0-19.55-6.51-38.24-18.47-53.5-5.73.87-11.05 1.29-16.34 1.29-26.95 0-52.46-8.67-73.52-24.74a133.886 133.886 0 01-50.11 27.35zM78.62 867.64c-12.73 15.47-19.83 34.93-19.83 55.12 0 47.98 39.04 87.02 87.03 87.02 22.94 0 44.59-8.92 60.78-24.81-5.69-14.28-8.56-29.3-8.56-44.81 0-23.77 6.78-46.42 19.75-66.19-1.5-2.19-3.08-4.32-4.77-6.37-39.73 26.44-94.67 26.4-134.4.04zm467.54-414.82c-47.99 0-87.03 39.04-87.03 87.02 0 47.99 39.04 87.03 87.03 87.03 47.98 0 87.02-39.04 87.02-87.03 0-47.98-39.04-87.02-87.02-87.02z" fill="#ccb8f4"/><path id="Path 5" fill-rule="evenodd" class="shp3" d="M522.16 643.68c-67.19 0-121.84-54.65-121.84-121.84 0-67.18 54.65-121.83 121.84-121.83 67.18 0 121.83 54.65 121.83 121.83 0 67.19-54.65 121.84-121.83 121.84zm0-208.86c-47.99 0-87.03 39.04-87.03 87.02 0 47.99 39.04 87.03 87.03 87.03 47.98 0 87.02-39.04 87.02-87.03 0-47.98-39.04-87.02-87.02-87.02zM309.4 331.34c-3.29 0-6.55-.94-9.39-2.73-35.28-22.56-56.34-60.92-56.34-102.64 0-67.18 54.66-121.84 121.84-121.84s121.84 54.66 121.84 121.84c0 20.89-5.45 41.58-15.75 59.82a17.475 17.475 0 01-10.95 8.34c-4.63 1.18-9.56.35-13.58-2.21-14.04-8.98-30.2-13.72-46.75-13.72-31.29 0-60.33 16.99-75.78 44.33a17.37 17.37 0 01-10.95 8.32c-1.39.32-2.8.49-4.19.49zm56.11-192.41c-47.99 0-87.03 39.04-87.03 87.02 0 24.09 9.85 46.63 26.96 62.89 22.93-28.44 57.76-45.48 94.88-45.48 16.52 0 32.74 3.36 47.81 9.81a86.538 86.538 0 004.41-27.22c0-47.98-39.04-87.02-87.03-87.02z"/><path id="Path 6" fill-rule="evenodd" class="shp3" d="M261.08 504.44c-67.18 0-121.84-54.66-121.84-121.84 0-67.19 54.66-121.84 121.84-121.84 5.41 0 11.1.44 17.37 1.36 5.17.75 9.75 3.79 12.43 8.28 6.09 10.17 14.15 19.03 23.51 25.89 1.71.43 3.38 1.13 4.93 2.14 7.88 5.03 10.55 15.1 5.83 23.18-7.76 13.3-11.87 28.37-11.87 43.62 0 28.21 13.84 54.79 37 71.14 4.01 2.81 6.63 7.22 7.24 12.07.61 4.88-.87 9.78-4.05 13.49-23.22 27-56.9 42.51-92.39 42.51zm0-208.87c-47.99 0-87.03 39.04-87.03 87.03 0 47.98 39.04 87.03 87.03 87.03 19.42 0 38.08-6.51 53.23-18.26-22.72-22.68-35.82-53.66-35.82-86.18 0-15.7 3.09-31.26 9.03-45.79-8.16-6.86-15.47-14.85-21.67-23.65-1.57-.13-3.17-.18-4.77-.18z"/><path id="Path 7" fill-rule="evenodd" class="shp3" d="M400.32 487.03c-67.18 0-121.83-54.65-121.83-121.84 0-67.18 54.65-121.83 121.83-121.83 67.19 0 121.84 54.65 121.84 121.83 0 24.44-7.22 48.03-20.89 68.22a17.362 17.362 0 01-8.53 6.61c-17.31 6.23-32.49 17.98-42.73 33.1a17.318 17.318 0 01-8.52 6.62c-13.41 4.84-27.26 7.29-41.17 7.29zm0-208.86c-47.98 0-87.02 39.04-87.02 87.02 0 47.99 39.04 87.03 87.02 87.03 8.2 0 16.4-1.2 24.46-3.6 12.95-17.15 30.54-30.79 50.44-39.11 7.95-13.4 12.11-28.62 12.11-44.32.02-47.98-39.02-87.02-87.01-87.02zM661.4 765.51c-67.18 0-121.84-54.65-121.84-121.83 0-9.37 1.19-19.01 3.52-28.67 1.34-5.53 5.29-10.08 10.6-12.13 26.49-10.32 46.28-32.95 52.95-60.54a17.413 17.413 0 0110.6-12.13c14.23-5.55 29.1-8.37 44.17-8.37 67.18 0 121.84 54.65 121.84 121.84 0 67.18-54.66 121.83-121.84 121.83zm-86.1-134.14c-.63 4.18-.94 8.29-.94 12.31 0 47.98 39.04 87.02 87.02 87.02 47.99 0 87.03-39.04 87.03-87.02 0-47.99-39.04-87.03-87.03-87.03-7.97 0-15.89 1.12-23.62 3.33a121.708 121.708 0 01-62.46 71.39z"/><path id="Path 8" fill-rule="evenodd" class="shp3" d="M348.11 695.9c-67.19 0-121.84-54.66-121.84-121.84 0-67.19 54.65-121.84 121.84-121.84 31.53 0 61.47 12.08 84.31 34.01 4.4 4.23 6.26 10.44 4.92 16.4-1.46 6.49-2.21 12.95-2.21 19.21 0 23.85 9.52 46.13 26.82 62.73a17.384 17.384 0 014.93 16.38c-12.64 55.91-61.48 94.95-118.77 94.95zm0-208.87c-47.99 0-87.03 39.04-87.03 87.03 0 47.98 39.04 87.02 87.03 87.02 37.87 0 70.57-23.88 82.38-59.09-19.53-22.21-30.17-50.3-30.17-80.15 0-5.43.38-10.91 1.15-16.43-15.25-11.9-33.89-18.38-53.36-18.38zm469.94 330.7c-51.63 0-97.8-32.77-114.91-81.56-2.61-7.48.14-15.79 6.72-20.21 24.16-16.24 38.57-43.27 38.57-72.28 0-9.66-1.67-19.32-4.98-28.76-2.61-7.48.14-15.78 6.72-20.2 20.1-13.51 43.58-20.66 67.88-20.66 67.18 0 121.84 54.65 121.84 121.83 0 67.19-54.66 121.84-121.84 121.84zM740.91 736c14.81 28.49 44.45 46.92 77.14 46.92 47.98 0 87.02-39.04 87.02-87.03 0-47.98-39.04-87.02-87.02-87.02-13.2 0-26.02 2.94-37.72 8.58 1.93 8.67 2.91 17.44 2.91 26.23 0 35.73-15.6 69.29-42.33 92.32z"/><path id="Path 9" fill-rule="evenodd" class="shp3" d="M626.59 904.76c-62.41 0-114.47-46.77-121.11-108.77-.85-7.97 3.85-15.51 11.39-18.22 25.91-9.37 46.14-31.05 53.9-57.32-.83-5.27.77-10.86 4.81-14.95 6.54-6.65 17.14-6.91 24.01-.73 0 0 .04.02.04.04.02 0 .03.01.05.03 0 0 .04.02.04.04l.03.03c.09.09.19.17.28.26 0 0 0 .02.03.04.02 0 .02.01.04.03.03.02.05.05.09.09 16.44 16.32 38.17 25.32 61.18 25.32 16.53 0 32.7-4.73 46.75-13.71 4.02-2.58 8.94-3.4 13.57-2.21 4.65 1.15 8.6 4.16 10.95 8.33 10.3 18.24 15.75 38.94 15.75 59.83.04 67.22-54.62 121.87-121.8 121.87zm-84.28-100.1c9.68 37.98 43.97 65.29 84.28 65.29 47.99 0 87.03-39.04 87.03-87.03 0-9.26-1.5-18.47-4.41-27.22-35.85 15.39-78.74 12.06-111.49-8.22-11.48 24.68-30.86 44.8-55.41 57.18zM295.89 1044c-67.18 0-121.84-54.65-121.84-121.84 0-40.9 20.38-78.84 54.53-101.52a17.373 17.373 0 0119.25 0c28.55 18.95 67.52 18.97 96.1 0a17.422 17.422 0 0119.28.01c6.62 4.41 9.98 13.08 7.33 20.59-3.34 9.47-5.03 19.13-5.03 28.71 0 29.03 14.41 56.04 38.57 72.28a17.449 17.449 0 016.72 20.21c-17.13 48.78-63.29 81.56-114.91 81.56zm-56.53-187.98c-19.27 16.45-30.5 40.49-30.5 66.14 0 47.99 39.04 87.03 87.03 87.03 32.69 0 62.35-18.43 77.14-46.93-26.73-23.01-42.33-56.56-42.33-92.31 0-1.71.04-3.4.11-5.1-29.98 8.96-63.6 5.81-91.45-8.83z"/><path id="Path 10" fill-rule="evenodd" class="shp3" d="M452.54 991.78c-67.19 0-121.84-54.65-121.84-121.83 0-13.82 2.51-27.75 7.45-41.34a17.5 17.5 0 016.56-8.46c15.11-10.27 26.46-24.84 32.79-42.12 1.26-3.39 3.54-6.34 6.53-8.37 8.89-6.08 17.41-10.58 26.06-13.8 6.19-2.32 13.12-.91 17.96 3.58 23.79 22.21 58.76 29.47 89.62 17.96 8.81-3.29 18.62 1.01 22.19 9.72 1.37 3.35 1.64 6.91.92 10.21 3.21 19.2 12.81 36.81 27.38 50.04 3.22 2.93 5.22 6.95 5.62 11.26.35 3.73.59 7.49.59 11.3 0 67.2-54.65 121.85-121.83 121.85zm-83.3-146.39c-2.48 8.18-3.73 16.41-3.73 24.56 0 47.98 39.04 87.02 87.03 87.02 47.98 0 87.02-39.04 87.02-87.02 0-.61 0-1.22-.01-1.83-14.43-14.73-24.81-32.76-30.29-52.39-33.73 6.2-68.92-2.42-95.95-23.2-1.74.92-3.52 1.93-5.31 3.04-8.39 19.86-21.65 36.9-38.76 49.82z"/><path id="Path 11" fill-rule="evenodd" class="shp3" d="M487.35 817.73c-41.11 0-79.18-20.57-101.82-55.02a17.473 17.473 0 01-2.86-10.35l.25-4.27c0-16.95-4.91-33.38-14.21-47.53a17.43 17.43 0 01-2.82-10.57c.46-7.97 1.62-15.73 3.41-23.06a17.42 17.42 0 0110.52-12.04c26.26-10.36 45.93-32.85 52.61-60.17 1.34-5.49 5.26-9.99 10.52-12.06.15-.14 1.02-.54 1.93-.88 6.16-2.31 13.12-.92 17.96 3.59 23.74 22.16 58.36 29.55 89.6 17.95 6.27-2.32 13.3-.88 18.12 3.74.26.24 1.08 1.08 1.31 1.34 3.9 4.21 6.04 10.67 4.78 16.27-1.53 6.79-2.28 13.02-2.28 19.03 0 23.84 9.52 46.12 26.83 62.72a17.41 17.41 0 014.92 16.38c-12.64 55.89-61.47 94.93-118.77 94.93zm-69.62-69.69c16.43 21.95 42.06 34.88 69.62 34.88 37.87 0 70.58-23.88 82.38-59.09-19.53-22.21-30.17-50.3-30.17-80.15v-1.29c-28.3 4.21-57.3-2.04-81.24-16.87-11.7 25.03-31.72 45.52-56.8 57.81-.15 1.11-.31 2.26-.43 3.41 10.89 18.59 16.62 39.63 16.64 61.3zM186.81 704c-74.21 0-134.59-60.37-134.59-134.59 0-73.35 57.47-132.38 130.85-134.42 5.01-.38 10.01 1.95 13.42 5.76 14.78 16.4 34.9 26.51 56.71 28.48 1.11.1 2.22.31 3.32.62a99.196 99.196 0 0018.59 3.55c4.33.4 8.34 2.4 11.26 5.62 1.57 1.73 2.96 3.57 4.33 5.43l1.22 1.64c5.54 7.19 4.61 17.42-2.1 23.53-18.24 16.54-28.72 40.02-28.72 64.45 0 23.05 8.94 44.79 25.18 61.2 6.48 6.55 6.74 17.02.58 23.88C261.25 687.64 224.79 704 186.81 704zm-10.2-233.75c-50.8 5.07-89.58 47.29-89.58 99.16 0 55.04 44.76 99.78 99.78 99.78 23.08 0 45.43-8.19 63.22-22.85-15.42-20.83-23.76-45.95-23.76-72.28 0-25.28 7.97-49.82 22.43-70.25-.1-.02-.22-.05-.33-.09-27.06-2.82-52.19-14.58-71.76-33.47z"/><path id="Path 12" fill-rule="evenodd" class="shp3" d="M121.84 869.95C54.65 869.95 0 815.29 0 748.11c0-57.19 38.99-105.96 94.82-118.6 6.27-1.43 12.74.71 16.96 5.5 19 21.74 46.36 34.19 75.05 34.19 4.42 0 9.14-.41 14.86-1.28 6.27-.9 12.59 1.61 16.45 6.65l1.25 1.48c1.47 1.67 2.88 3.38 4.11 5.26a17.369 17.369 0 010 19.18c-9.55 14.48-14.62 30.93-14.62 47.62 0 17.16 5.01 33.77 14.5 48.06a17.373 17.373 0 010 19.25c-22.7 34.15-60.66 54.53-101.54 54.53zM93.29 666.06c-34.86 11.96-58.48 44.46-58.48 82.05 0 47.99 39.04 87.03 87.03 87.03 25.65 0 49.67-11.25 66.14-30.5-9.14-17.39-13.93-36.69-13.93-56.53 0-15.12 2.91-30.06 8.53-44.17-33.43-1.05-65.25-14.61-89.29-37.88z"/><path id="Path 13" fill-rule="evenodd" class="shp3" d="M295.89 869.95c-67.18 0-121.84-54.65-121.84-121.84 0-27.74 9.16-53.92 26.49-75.69a17.43 17.43 0 019.52-6.08c17.6-4.25 33.54-13.14 46.46-25.85.87-2.42 2.3-4.68 4.26-6.59 6.63-6.44 17.15-6.53 23.88-.33l.02.01.02.02c.26.23.49.47.73.73 16.6 17.25 38.85 26.75 62.66 26.75 5.72 0 11.78-.76 19.07-2.4 5.96-1.35 12.14.51 16.35 4.89 22.05 22.86 34.2 52.9 34.2 84.54.02 67.19-54.64 121.84-121.82 121.84zm-71.41-171.44c-10.24 14.6-15.62 31.64-15.62 49.6 0 47.99 39.04 87.03 87.03 87.03s87.03-39.04 87.03-87.03c0-19.55-6.51-38.24-18.47-53.5-5.73.87-11.05 1.29-16.34 1.29-26.95 0-52.46-8.67-73.52-24.74a133.886 133.886 0 01-50.11 27.35zm695.09-9.25c-2.47 0-4.96-.52-7.25-1.58-4.88-2.23-8.45-6.6-9.68-11.82-9.31-39.44-44.09-66.97-84.59-66.97-17.37 0-34.12 5.1-48.46 14.74-4.47 2.99-10.09 3.78-15.21 2.07-5.12-1.71-9.16-5.67-10.93-10.76-12.2-34.84-45.19-58.27-82.05-58.27-10.72 0-21.32 2.02-31.52 5.99a17.365 17.365 0 01-17.77-3.12c-4.89-4.26-7-10.88-5.47-17.19 1.69-7 2.54-13.89 2.54-20.51 0-26.23-11.67-50.82-32.07-67.44-6.7-5.47-8.38-15.04-3.92-22.46l3.66-6.09c1.21-2.02 2.82-3.77 4.73-5.15 56.2-40.52 117.1-48.49 158.89-47.88 42.12.52 80.66 24.21 100.55 61.84 46.01 87.08 155.52 118.72 156.62 119.03 7.31 2.06 12.46 8.62 12.7 16.21.09 2.99 1.36 73.87-82.76 117.43a17.77 17.77 0 01-8.01 1.93zm-101.52-115.2c48.85 0 91.76 28.61 111.06 71.81 31.96-22.22 41.95-48.51 45.05-63.28-34.15-12.29-120.9-50.29-163.91-131.67-13.92-26.36-40.81-42.94-70.19-43.29-33.56-.37-81.31 5.32-126.58 33.57 19.58 22.13 30.52 50.6 30.52 80.64v1.27c5.76-.83 11.57-1.27 17.4-1.27 44.75 0 85.41 24.63 106.57 62.97 15.63-7.08 32.64-10.75 50.08-10.75z"/><path id="Path 14" fill-rule="evenodd" class="shp3" d="M584.09 455.3c-3.66 0-7.3-1.15-10.34-3.41-23.13-17.09-53.18-21.84-80.99-11.85-7.08 2.55-15 .24-19.63-5.7-4.63-5.95-4.89-14.18-.68-20.43 9.75-14.41 14.9-31.24 14.9-48.7 0-29.78-15.08-57.19-40.31-73.33-7.8-4.99-10.34-15.21-5.76-23.25 7.36-13 11.26-27.75 11.26-42.66 0-42.59-30.5-78.64-72.51-85.7-8.38-1.41-14.52-8.67-14.52-17.17 0-2.69.63-6.92 1.83-9.34C423.71 1.01 518.15-.3 522.16-.3c8.86 0 16.31 6.67 17.3 15.46.12 1.13 13.82 114.3 92.4 173.67 33.96 25.63 51.17 67.46 44.96 109.14-6.14 41.01-23.74 100.17-72.72 149.17a17.661 17.661 0 01-5.83 3.86l-7.69 3.08c-2.13.8-4.32 1.22-6.49 1.22zM522.16 400c22.15 0 43.49 5.94 62.36 17.27 38.45-41.23 52.72-90.09 57.86-124.47 4.35-29.06-7.73-58.27-31.51-76.23-71.69-54.15-95.92-142.81-103.21-180.21-22.3 4.59-65.79 20.52-99.52 75.5 47.01 17.4 79.21 62.29 79.21 114.09 0 15.68-3.08 31.26-8.98 45.78 27.65 23.02 43.79 56.95 43.79 93.46 0 11.94-1.73 23.67-5.08 34.92 1.68-.07 3.39-.11 5.08-.11z"/><path id="Path 15" fill-rule="evenodd" class="shp3" d="M600.46 446.58c-3.22 0-6.44-.89-9.27-2.68l-2.37-1.48a17.434 17.434 0 01-7.92-12.41c-.66-5.1.96-10.25 4.44-14.05 38.08-41.44 52.02-89.84 57-123.14 1.27-8.46 1.01-17.46-.78-26.72a17.383 17.383 0 016.66-17.23l2.74-2.03a17.35 17.35 0 018.49-3.36c5.69-.7 141.16-19.08 141.16-208.97 0-9.61 7.8-17.41 17.4-17.41h69.62c9.09 0 16.66 7 17.36 16.07.73 9.56 16.31 234.97-126.37 361.33l-6.35 8.41c-4.05 5.33-10.82 7.88-17.35 6.53-5.8-1.19-10.53-1.76-14.9-1.81-33.45-.65-83.18 5.5-130.07 36.13-2.85 1.88-6.16 2.82-9.49 2.82zm77.28-171.49c.47 7.78.16 15.42-.94 22.87-3.69 24.66-11.69 56.58-28.84 89.04 34.83-11.73 67.73-14.44 92.53-14.2 3.38.03 6.79.28 10.39.7l1.05-1.38c.73-.96 1.54-1.84 2.45-2.63C864.66 273 871.59 104.41 870.89 51.88h-35.78c-7.12 168.87-117.28 212.8-157.37 223.21zm-555.9 751.51C54.65 1026.6 0 971.94 0 904.76c0-34.9 15.09-68.2 41.41-91.38a17.39 17.39 0 0123.01 0c31.88 28.06 82.9 28.09 114.8-.02 6.56-5.78 16.42-5.79 23.01 0 11.51 10.13 20.89 22.13 27.85 35.6a17.391 17.391 0 01-1.9 18.9c-12.63 15.7-19.3 34.48-19.3 54.32 0 14 3.29 27.45 9.78 39.98a17.381 17.381 0 01-1.88 18.92c-23.3 28.91-57.9 45.52-94.94 45.52zM54.62 849.64c-12.73 15.47-19.83 34.93-19.83 55.12 0 47.98 39.04 87.02 87.03 87.02 22.94 0 44.59-8.92 60.78-24.81-5.69-14.28-8.56-29.3-8.56-44.81 0-23.77 6.78-46.42 19.75-66.19-1.5-2.19-3.08-4.32-4.77-6.37-39.73 26.44-94.67 26.4-134.4.04z"/></g></svg>