<svg width="78" height="78" viewBox="0 0 78 78" fill="none" xmlns="http://www.w3.org/2000/svg">
<rect width="78" height="78" fill="white"/>
<path d="M57.6182 27.4701C57.6982 27.6801 57.8982 27.8201 58.1182 27.8201C58.1482 27.8201 58.1882 27.8201 58.2282 27.8101C58.4482 27.7701 58.6682 27.7401 58.8782 27.7401C60.1982 27.7401 61.4982 28.5201 62.5482 29.9401L62.8082 30.2901L62.4282 30.0901C60.7482 29.2101 58.7182 28.6901 57.0082 28.6901C56.3182 28.6901 55.7082 28.7701 55.1882 28.9401C53.2482 29.4101 50.9182 31.4301 49.5182 33.8501L49.2982 34.2201L49.3282 33.7901C49.4782 31.7001 50.4082 30.1901 51.8782 29.6601C52.1282 29.5701 52.2682 29.3101 52.2182 29.0501C52.1682 28.8101 51.9482 28.6301 51.6982 28.6301C49.1982 28.8001 46.7282 29.6901 44.9082 31.0601L44.6382 31.2601L44.7482 30.9401C45.3282 29.3101 46.2682 28.1101 47.4682 27.4601C47.6982 27.3401 47.8082 27.0601 47.7182 26.8201C47.6382 26.6101 47.4382 26.4701 47.2182 26.4701C47.1882 26.4701 47.1482 26.4701 47.1182 26.4801C46.5382 26.5901 45.9582 26.7701 45.3882 27.0101L45.1182 27.1201L45.2582 26.8701C46.4882 24.6901 47.7482 23.5801 49.0082 23.5801H49.0882C49.3482 23.5801 49.5582 23.4201 49.6182 23.1801C49.6782 22.9401 49.5682 22.6901 49.3382 22.5801C48.8282 22.3201 48.3282 22.1501 47.8482 22.0501L47.6282 22.0101L47.7982 21.8801C48.5682 21.2801 49.1882 21.0101 49.8082 21.0101C50.7782 21.0101 51.7182 21.7101 52.8382 22.7601C52.9382 22.8501 53.0682 22.9001 53.1982 22.9001C53.2582 22.9001 53.3082 22.8901 53.3582 22.8701C53.5382 22.8101 53.6782 22.6601 53.7182 22.4701C53.9982 21.0001 54.5182 20.0401 55.3082 19.5401C55.8082 19.2201 56.4182 19.0601 57.1782 19.0601C57.2782 19.0601 57.3882 19.0601 57.4882 19.0701L57.7182 19.0801L57.5482 19.2401C57.1982 19.5801 56.8682 19.9901 56.5782 20.4801C56.4482 20.6901 56.4882 20.9701 56.6682 21.1401C56.7682 21.2301 56.8982 21.2801 57.0282 21.2801C57.1382 21.2801 57.2382 21.2501 57.3282 21.1901C57.7282 20.9201 58.2182 20.7801 58.7782 20.7801C59.7182 20.7801 60.9182 21.1601 62.3182 21.9201L62.5782 22.0601L62.3082 22.1001C61.6982 22.2001 61.1182 22.3601 60.5682 22.5801C60.3182 22.6801 60.1882 22.9301 60.2382 23.1901C60.2882 23.4301 60.5082 23.6001 60.7582 23.6001C60.8982 23.5901 61.0082 23.5901 61.1282 23.5901C62.3782 23.5901 63.6982 24.1101 64.9482 25.0801L65.2082 25.2901L64.8782 25.2601C64.5982 25.2401 64.3182 25.2301 64.0282 25.2301C61.9882 25.2301 59.7382 25.8101 57.8582 26.8301C57.6282 26.9501 57.5282 27.2301 57.6182 27.4701Z" fill="white"/>
<path d="M15.6578 30.2901L15.9178 29.9401C16.9678 28.5201 18.2678 27.7401 19.5878 27.7401C19.8078 27.7401 20.0278 27.7601 20.2478 27.8101C20.2778 27.8201 20.3178 27.8201 20.3578 27.8201C20.5778 27.8201 20.7778 27.6801 20.8578 27.4701C20.9278 27.2301 20.8278 26.9501 20.5978 26.8301C18.6878 25.8001 16.4978 25.2301 14.4278 25.2201C14.1378 25.2201 13.8478 25.2301 13.5778 25.2501L13.2378 25.2801L13.4978 25.0801C14.7478 24.1001 16.0778 23.5901 17.3278 23.5901C17.4378 23.5901 17.5478 23.5901 17.6578 23.6001C17.9378 23.6001 18.1578 23.4301 18.2078 23.1901C18.2678 22.9401 18.1278 22.6701 17.8778 22.5801C17.3478 22.3701 16.7578 22.2101 16.1478 22.1001L15.8578 22.0501L16.1178 21.9101C17.5278 21.1601 18.7178 20.7701 19.6578 20.7701C20.2278 20.7701 20.7178 20.9101 21.1078 21.1801C21.1978 21.2401 21.2978 21.2701 21.4078 21.2701C21.5478 21.2701 21.6778 21.2201 21.7678 21.1301C21.9478 20.9601 21.9878 20.6801 21.8578 20.4701C21.5678 19.9801 21.2378 19.5701 20.8878 19.2301L20.7278 19.0801L20.9578 19.0701C21.0678 19.0601 21.1678 19.0601 21.2678 19.0601C22.0178 19.0601 22.6478 19.2201 23.1378 19.5401C23.9178 20.0401 24.4378 21.0001 24.7278 22.4801C24.7678 22.6701 24.8978 22.8201 25.0878 22.8801C25.1378 22.9001 25.1978 22.9101 25.2478 22.9101C25.3878 22.9101 25.5078 22.8601 25.6078 22.7701C26.7278 21.7201 27.6678 21.0201 28.6378 21.0201C29.2578 21.0201 29.8778 21.2901 30.6478 21.8901L30.8178 22.0201L30.5978 22.0601C30.1178 22.1601 29.6178 22.3301 29.1078 22.5901C28.8878 22.7001 28.7678 22.9501 28.8278 23.1901C28.8878 23.4201 29.0978 23.5901 29.3378 23.5901H29.4278C30.6878 23.5901 31.9478 24.7001 33.1778 26.8801L33.3178 27.1301L33.0478 27.0201C32.4778 26.7801 31.8978 26.6001 31.3178 26.4901C31.2778 26.4801 31.2478 26.4801 31.2078 26.4801C30.9878 26.4801 30.7878 26.6201 30.7078 26.8301C30.6578 27.0701 30.7678 27.3501 30.9978 27.4701C32.1978 28.1101 33.1378 29.3101 33.7178 30.9401L33.8278 31.2601L33.5578 31.0601C31.7378 29.6901 29.2778 28.8001 26.8078 28.6301C26.5278 28.6301 26.3078 28.8001 26.2578 29.0501C26.2078 29.3101 26.3478 29.5701 26.5978 29.6601C28.0678 30.2001 28.9978 31.7001 29.1478 33.7901L29.1778 34.2201L28.9578 33.8501C27.5578 31.4301 25.2278 29.4201 23.2878 28.9501C22.7678 28.7801 22.1478 28.7001 21.4578 28.7001C19.7478 28.7001 17.7178 29.2201 16.0378 30.1001L15.6578 30.2901Z" fill="white"/>
<path d="M55.9779 58.31C57.5079 50.74 57.8179 38.27 55.3879 30.08L55.3579 29.98L55.4579 29.95C55.7079 29.87 55.9779 29.81 56.2979 29.78L56.3779 29.77L56.4079 29.84L56.4179 29.88C59.8179 36.87 59.8879 49.6 59.9379 58.02V58.32V58.42H59.8379H56.0979H55.9779V58.31Z" fill="white"/>
<path d="M53.9181 42.9502L53.5281 43.5102C48.7381 50.4502 43.9181 53.9702 39.2181 53.9702C34.5181 53.9702 29.7081 50.4502 24.9081 43.5102L24.5181 42.9502L25.0481 43.3802C29.7281 47.1302 34.4981 49.0302 39.2081 49.0302C43.9181 49.0302 48.6881 47.1302 53.3681 43.3802L53.9181 42.9502Z" fill="white"/>
<path d="M22.0578 29.88L22.0978 29.79H22.1878C22.4878 29.83 22.7578 29.88 22.9878 29.96L23.1078 29.98L23.0778 30.09C20.6478 38.28 20.9578 50.75 22.4878 58.32L22.5078 58.44H22.3878H18.6278H18.5278V58.34V58.04C18.5778 49.61 18.6478 36.88 22.0578 29.88Z" fill="white"/>
<path d="M58.3882 27.4701C58.4682 27.6801 58.6682 27.8201 58.8882 27.8201C58.9182 27.8201 58.9582 27.8201 58.9982 27.8101C59.2182 27.7701 59.4382 27.7401 59.6482 27.7401C60.9682 27.7401 62.2682 28.5201 63.3182 29.9401L63.5782 30.2901L63.1982 30.0901C61.5182 29.2101 59.4882 28.6901 57.7782 28.6901C57.0882 28.6901 56.4782 28.7701 55.9582 28.9401C54.0182 29.4101 51.6882 31.4301 50.2882 33.8501L50.0682 34.2201L50.0982 33.7901C50.2482 31.7001 51.1782 30.1901 52.6482 29.6601C52.8982 29.5701 53.0382 29.3101 52.9882 29.0501C52.9382 28.8101 52.7182 28.6301 52.4682 28.6301C49.9682 28.8001 47.4982 29.6901 45.6782 31.0601L45.4082 31.2601L45.5182 30.9401C46.0982 29.3101 47.0382 28.1101 48.2382 27.4601C48.4682 27.3401 48.5782 27.0601 48.4882 26.8201C48.4082 26.6101 48.2082 26.4701 47.9882 26.4701C47.9582 26.4701 47.9182 26.4701 47.8882 26.4801C47.3082 26.5901 46.7282 26.7701 46.1582 27.0101L45.8882 27.1201L46.0282 26.8701C47.2582 24.6901 48.5182 23.5801 49.7782 23.5801H49.8582C50.1182 23.5801 50.3282 23.4201 50.3882 23.1801C50.4482 22.9401 50.3382 22.6901 50.1082 22.5801C49.5982 22.3201 49.0982 22.1501 48.6182 22.0501L48.3982 22.0101L48.5682 21.8801C49.3382 21.2801 49.9582 21.0101 50.5782 21.0101C51.5482 21.0101 52.4882 21.7101 53.6082 22.7601C53.7082 22.8501 53.8382 22.9001 53.9682 22.9001C54.0282 22.9001 54.0782 22.8901 54.1282 22.8701C54.3082 22.8101 54.4482 22.6601 54.4882 22.4701C54.7682 21.0001 55.2882 20.0401 56.0782 19.5401C56.5782 19.2201 57.1882 19.0601 57.9482 19.0601C58.0482 19.0601 58.1582 19.0601 58.2582 19.0701L58.4882 19.0801L58.3182 19.2401C57.9682 19.5801 57.6382 19.9901 57.3482 20.4801C57.2182 20.6901 57.2582 20.9701 57.4382 21.1401C57.5382 21.2301 57.6682 21.2801 57.7982 21.2801C57.9082 21.2801 58.0082 21.2501 58.0982 21.1901C58.4982 20.9201 58.9882 20.7801 59.5482 20.7801C60.4882 20.7801 61.6882 21.1601 63.0882 21.9201L63.3482 22.0601L63.0582 22.1101C62.4482 22.2101 61.8682 22.3701 61.3182 22.5901C61.0682 22.6901 60.9382 22.9401 60.9882 23.2001C61.0382 23.4401 61.2582 23.6101 61.5082 23.6101C61.6482 23.6001 61.7582 23.6001 61.8782 23.6001C63.1282 23.6001 64.4482 24.1201 65.6982 25.0901L65.9582 25.3001L65.6282 25.2701C65.3482 25.2501 65.0682 25.2401 64.7782 25.2401C62.7382 25.2401 60.4882 25.8201 58.6082 26.8401C58.4082 26.9501 58.2982 27.2301 58.3882 27.4701Z" fill="#A3EFE0"/>
<path d="M14.848 30.2901L15.108 29.9401C16.158 28.5201 17.458 27.7401 18.778 27.7401C18.998 27.7401 19.218 27.7601 19.438 27.8101C19.468 27.8201 19.508 27.8201 19.548 27.8201C19.768 27.8201 19.968 27.6801 20.048 27.4701C20.128 27.2301 20.018 26.9501 19.798 26.8301C17.888 25.8001 15.698 25.2301 13.628 25.2201C13.338 25.2201 13.048 25.2301 12.778 25.2501L12.438 25.2801L12.698 25.0801C13.948 24.1001 15.268 23.5901 16.528 23.5901C16.638 23.5901 16.748 23.5901 16.858 23.6001C17.138 23.6001 17.358 23.4301 17.408 23.1901C17.468 22.9401 17.328 22.6701 17.078 22.5801C16.538 22.3701 15.958 22.2101 15.348 22.1001L15.058 22.0501L15.318 21.9101C16.728 21.1601 17.918 20.7701 18.858 20.7701C19.428 20.7701 19.918 20.9101 20.308 21.1801C20.398 21.2501 20.498 21.2801 20.608 21.2801C20.748 21.2801 20.878 21.2301 20.968 21.1401C21.148 20.9701 21.188 20.6901 21.058 20.4801C20.768 19.9901 20.438 19.5801 20.088 19.2401L19.928 19.0801L20.158 19.0701C20.268 19.0601 20.368 19.0601 20.468 19.0601C21.218 19.0601 21.848 19.2201 22.338 19.5401C23.118 20.0401 23.638 21.0001 23.928 22.4801C23.968 22.6701 24.098 22.8201 24.288 22.8801C24.338 22.9001 24.398 22.9101 24.448 22.9101C24.588 22.9101 24.708 22.8601 24.808 22.7701C25.928 21.7201 26.868 21.0201 27.838 21.0201C28.458 21.0201 29.078 21.2901 29.848 21.8901L30.018 22.0201L29.798 22.0601C29.318 22.1601 28.818 22.3301 28.308 22.5901C28.088 22.7001 27.968 22.9501 28.028 23.1901C28.088 23.4201 28.298 23.5901 28.538 23.5901H28.628C29.888 23.5901 31.148 24.7001 32.378 26.8801L32.518 27.1301L32.248 27.0201C31.678 26.7801 31.098 26.6001 30.518 26.4901C30.478 26.4801 30.448 26.4801 30.408 26.4801C30.188 26.4801 29.988 26.6201 29.908 26.8301C29.818 27.0801 29.928 27.3501 30.158 27.4701C31.358 28.1101 32.298 29.3101 32.878 30.9401L32.988 31.2601L32.718 31.0601C30.898 29.6901 28.438 28.8001 25.968 28.6301C25.688 28.6301 25.468 28.8001 25.418 29.0501C25.368 29.3101 25.508 29.5701 25.758 29.6601C27.228 30.2001 28.158 31.7001 28.308 33.7901L28.338 34.2201L28.118 33.8501C26.718 31.4301 24.388 29.4201 22.448 28.9501C21.928 28.7801 21.308 28.7001 20.618 28.7001C18.908 28.7001 16.878 29.2201 15.198 30.1001L14.848 30.2901Z" fill="#A3EFE0"/>
<path d="M56.7582 58.31C58.2882 50.74 58.5982 38.27 56.1682 30.08L56.1382 29.98L56.2382 29.95C56.4882 29.87 56.7582 29.81 57.0782 29.78L57.1582 29.77L57.1882 29.84L57.1982 29.88C60.5982 36.87 60.6682 49.6 60.7182 58.02V58.32V58.42H60.6182H56.8782H56.7582V58.31Z" fill="#CCB8F4"/>
<path d="M53.9181 44.1001L53.5281 44.6601C48.7381 51.6001 43.9181 55.1201 39.2181 55.1201C34.5181 55.1201 29.7081 51.6001 24.9081 44.6601L24.5181 44.1001L25.0481 44.5301C29.7281 48.2801 34.4981 50.1801 39.2081 50.1801C43.9181 50.1801 48.6881 48.2801 53.3681 44.5301L53.9181 44.1001Z" fill="#A3EFE0"/>
<path d="M21.248 29.88L21.288 29.79H21.378C21.678 29.83 21.948 29.88 22.178 29.96L22.298 29.98L22.268 30.09C19.838 38.28 20.148 50.75 21.678 58.32L21.698 58.44H21.578H17.828H17.728V58.34V58.04C17.778 49.61 17.848 36.88 21.248 29.88Z" fill="#CCB8F4"/>
<path d="M67.328 25.9C66.278 24.68 65.138 23.78 63.948 23.2L63.568 23.02L63.998 23.01H64.088H64.318C64.568 23 64.768 22.86 64.838 22.64C64.908 22.42 64.818 22.17 64.628 22.04C62.338 20.53 60.498 19.77 58.988 19.72L58.638 19.71L58.938 19.54C59.098 19.45 59.268 19.37 59.438 19.32C59.658 19.25 59.818 19.03 59.808 18.8C59.798 18.56 59.638 18.36 59.408 18.3C58.578 18.1 57.838 18 57.178 18C56.208 18 55.408 18.21 54.738 18.64C53.908 19.17 53.318 20.02 52.938 21.24L52.898 21.38L52.788 21.29C51.668 20.37 50.718 19.94 49.818 19.94C48.668 19.94 47.468 20.62 45.828 22.22C45.658 22.39 45.618 22.65 45.738 22.86C45.828 23.03 46.008 23.13 46.198 23.13C46.248 23.13 46.288 23.12 46.328 23.11C46.498 23.07 46.678 23.04 46.868 23.03L47.218 23.01L46.928 23.21C45.688 24.07 44.528 25.7 43.408 28.2C43.308 28.41 43.368 28.67 43.548 28.82C43.648 28.9 43.768 28.95 43.888 28.95C43.988 28.95 44.098 28.92 44.178 28.86C44.268 28.8 44.358 28.74 44.438 28.69L44.798 28.46L44.568 28.82C43.868 29.94 43.398 31.32 43.158 32.91C43.118 33.15 43.258 33.39 43.478 33.48C43.538 33.51 43.608 33.52 43.678 33.52C43.848 33.52 44.008 33.44 44.108 33.3C45.108 31.92 47.048 30.72 49.288 30.1L49.558 30.02L49.388 30.25C48.268 31.79 47.938 34.12 48.458 36.63C48.508 36.87 48.728 37.05 48.978 37.05C49.228 37.05 49.448 36.87 49.498 36.62C49.928 34.42 52.058 31.65 54.248 30.44L54.358 30.38L54.398 30.5C55.138 33.04 55.648 36.12 55.908 39.64V39.69L55.878 39.72C50.338 45.21 44.728 48 39.228 48C33.728 48 28.118 45.22 22.568 39.73L22.538 39.7V39.65C22.798 36.12 23.308 33.05 24.048 30.51L24.088 30.39L24.198 30.45C26.388 31.66 28.518 34.44 28.948 36.63C28.998 36.88 29.218 37.06 29.468 37.06C29.718 37.06 29.938 36.88 29.988 36.64C30.508 34.13 30.168 31.81 29.058 30.26L28.888 30.03L29.158 30.11C31.398 30.73 33.338 31.93 34.338 33.31C34.438 33.45 34.598 33.53 34.768 33.53C34.838 33.53 34.908 33.52 34.968 33.49C35.198 33.4 35.328 33.16 35.288 32.92C35.048 31.33 34.578 29.96 33.878 28.83L33.648 28.47L34.018 28.7C34.108 28.75 34.198 28.81 34.278 28.87C34.368 28.93 34.468 28.96 34.568 28.96C34.698 28.96 34.818 28.92 34.908 28.83C35.088 28.68 35.148 28.42 35.048 28.21C33.918 25.71 32.768 24.08 31.528 23.22L31.238 23.02L31.588 23.04C31.768 23.05 31.958 23.08 32.128 23.12C32.168 23.13 32.218 23.14 32.258 23.14C32.448 23.14 32.628 23.04 32.718 22.87C32.838 22.66 32.798 22.4 32.628 22.23C30.978 20.63 29.788 19.95 28.638 19.95C27.738 19.95 26.798 20.38 25.668 21.3L25.558 21.39L25.518 21.25C25.138 20.03 24.548 19.18 23.718 18.65C23.038 18.21 22.238 18 21.268 18C20.618 18 19.878 18.1 19.068 18.3C18.838 18.36 18.668 18.56 18.668 18.8C18.658 19.03 18.808 19.24 19.038 19.31C19.208 19.37 19.378 19.44 19.538 19.53L19.838 19.7L19.488 19.72C17.978 19.78 16.138 20.54 13.848 22.05C13.648 22.18 13.568 22.43 13.638 22.65C13.708 22.87 13.898 23.01 14.158 23.02H14.378H14.468L14.898 23.03L14.508 23.21C13.318 23.78 12.178 24.69 11.128 25.9C10.968 26.09 10.958 26.36 11.098 26.56C11.198 26.7 11.358 26.78 11.528 26.78C11.598 26.78 11.658 26.77 11.728 26.74C12.488 26.44 13.388 26.28 14.418 26.28C15.528 26.28 16.728 26.47 17.888 26.83L18.158 26.91L17.898 27.01C16.128 27.72 14.598 29.5 13.698 31.89C13.608 32.12 13.698 32.39 13.918 32.52C13.998 32.57 14.098 32.6 14.198 32.6C14.348 32.6 14.488 32.54 14.578 32.43C15.898 31.03 18.458 29.93 20.808 29.74L20.978 29.73L20.908 29.88C17.608 37.2 17.538 49.72 17.498 58V58.31V58.41H17.398H13.938C13.648 58.41 13.408 58.65 13.408 58.94C13.408 59.23 13.648 59.47 13.938 59.47H17.998H60.458H64.518C64.808 59.47 65.048 59.23 65.048 58.94C65.048 58.65 64.808 58.41 64.518 58.41H61.088H60.988V58.31V58C60.938 49.72 60.868 37.2 57.578 29.88L57.508 29.73L57.678 29.74C60.018 29.93 62.578 31.03 63.908 32.43C64.008 32.54 64.148 32.6 64.288 32.6C64.388 32.6 64.488 32.57 64.568 32.52C64.778 32.39 64.868 32.12 64.788 31.88C63.888 29.48 62.358 27.7 60.588 27L60.328 26.9L60.598 26.82C61.758 26.46 62.948 26.27 64.068 26.27C65.088 26.27 65.998 26.42 66.758 26.73C66.818 26.75 66.888 26.77 66.958 26.77C67.128 26.77 67.288 26.69 67.388 26.55C67.498 26.36 67.488 26.09 67.328 25.9ZM57.618 27.47C57.698 27.68 57.898 27.82 58.118 27.82C58.148 27.82 58.188 27.82 58.228 27.81C58.448 27.77 58.668 27.74 58.878 27.74C60.198 27.74 61.498 28.52 62.548 29.94L62.808 30.29L62.428 30.09C60.748 29.21 58.718 28.69 57.008 28.69C56.318 28.69 55.708 28.77 55.188 28.94C53.248 29.41 50.918 31.43 49.518 33.85L49.298 34.22L49.328 33.79C49.478 31.7 50.408 30.19 51.878 29.66C52.128 29.57 52.268 29.31 52.218 29.05C52.168 28.81 51.948 28.63 51.698 28.63C49.198 28.8 46.728 29.69 44.908 31.06L44.638 31.26L44.748 30.94C45.328 29.31 46.268 28.11 47.468 27.46C47.698 27.34 47.808 27.06 47.718 26.82C47.638 26.61 47.438 26.47 47.218 26.47C47.188 26.47 47.148 26.47 47.118 26.48C46.538 26.59 45.958 26.77 45.388 27.01L45.118 27.12L45.258 26.87C46.488 24.69 47.748 23.58 49.008 23.58H49.088C49.348 23.58 49.558 23.42 49.618 23.18C49.678 22.94 49.568 22.69 49.338 22.58C48.828 22.32 48.328 22.15 47.848 22.05L47.628 22.01L47.798 21.88C48.568 21.28 49.188 21.01 49.808 21.01C50.778 21.01 51.718 21.71 52.838 22.76C52.938 22.85 53.068 22.9 53.198 22.9C53.258 22.9 53.308 22.89 53.358 22.87C53.538 22.81 53.678 22.66 53.718 22.47C53.998 21 54.518 20.04 55.308 19.54C55.808 19.22 56.418 19.06 57.178 19.06C57.278 19.06 57.388 19.06 57.488 19.07L57.718 19.08L57.548 19.24C57.198 19.58 56.868 19.99 56.578 20.48C56.448 20.69 56.488 20.97 56.668 21.14C56.768 21.23 56.898 21.28 57.028 21.28C57.138 21.28 57.238 21.25 57.328 21.19C57.728 20.92 58.218 20.78 58.778 20.78C59.718 20.78 60.918 21.16 62.318 21.92L62.578 22.06L62.308 22.1C61.698 22.2 61.118 22.36 60.568 22.58C60.318 22.68 60.188 22.93 60.238 23.19C60.288 23.43 60.508 23.6 60.758 23.6C60.898 23.59 61.008 23.59 61.128 23.59C62.378 23.59 63.698 24.11 64.948 25.08L65.208 25.29L64.878 25.26C64.598 25.24 64.318 25.23 64.028 25.23C61.988 25.23 59.738 25.81 57.858 26.83C57.628 26.95 57.528 27.23 57.618 27.47ZM15.658 30.29L15.918 29.94C16.968 28.52 18.268 27.74 19.588 27.74C19.808 27.74 20.028 27.76 20.248 27.81C20.278 27.82 20.318 27.82 20.358 27.82C20.578 27.82 20.778 27.68 20.858 27.47C20.928 27.23 20.828 26.95 20.598 26.83C18.688 25.8 16.498 25.23 14.428 25.22C14.138 25.22 13.848 25.23 13.578 25.25L13.238 25.28L13.498 25.08C14.748 24.1 16.078 23.59 17.328 23.59C17.438 23.59 17.548 23.59 17.658 23.6C17.938 23.6 18.158 23.43 18.208 23.19C18.268 22.94 18.128 22.67 17.878 22.58C17.348 22.37 16.758 22.21 16.148 22.1L15.858 22.05L16.118 21.91C17.528 21.16 18.718 20.77 19.658 20.77C20.228 20.77 20.718 20.91 21.108 21.18C21.198 21.24 21.298 21.27 21.408 21.27C21.548 21.27 21.678 21.22 21.768 21.13C21.948 20.96 21.988 20.68 21.858 20.47C21.568 19.98 21.238 19.57 20.888 19.23L20.728 19.08L20.958 19.07C21.068 19.06 21.168 19.06 21.268 19.06C22.018 19.06 22.648 19.22 23.138 19.54C23.918 20.04 24.438 21 24.728 22.48C24.768 22.67 24.898 22.82 25.088 22.88C25.138 22.9 25.198 22.91 25.248 22.91C25.388 22.91 25.508 22.86 25.608 22.77C26.728 21.72 27.668 21.02 28.638 21.02C29.258 21.02 29.878 21.29 30.648 21.89L30.818 22.02L30.598 22.06C30.118 22.16 29.618 22.33 29.108 22.59C28.888 22.7 28.768 22.95 28.828 23.19C28.888 23.42 29.098 23.59 29.338 23.59H29.428C30.688 23.59 31.948 24.7 33.178 26.88L33.318 27.13L33.048 27.02C32.478 26.78 31.898 26.6 31.318 26.49C31.278 26.48 31.248 26.48 31.208 26.48C30.988 26.48 30.788 26.62 30.708 26.83C30.658 27.07 30.768 27.35 30.998 27.47C32.198 28.11 33.138 29.31 33.718 30.94L33.828 31.26L33.558 31.06C31.738 29.69 29.278 28.8 26.808 28.63C26.528 28.63 26.308 28.8 26.258 29.05C26.208 29.31 26.348 29.57 26.598 29.66C28.068 30.2 28.998 31.7 29.148 33.79L29.178 34.22L28.958 33.85C27.558 31.43 25.228 29.42 23.288 28.95C22.768 28.78 22.148 28.7 21.458 28.7C19.748 28.7 17.718 29.22 16.038 30.1L15.658 30.29ZM55.978 58.31C57.508 50.74 57.818 38.27 55.388 30.08L55.358 29.98L55.458 29.95C55.708 29.87 55.978 29.81 56.298 29.78L56.378 29.77L56.408 29.84L56.418 29.88C59.818 36.87 59.888 49.6 59.938 58.02V58.32V58.42H59.838H56.098H55.978V58.31ZM55.868 41.9L56.038 41.63L56.048 41.95C56.278 47.66 55.848 53.79 54.888 58.36L54.868 58.44H54.798H23.658H23.578L23.558 58.36C22.608 53.79 22.168 47.66 22.398 41.95L22.408 41.63L22.578 41.9C28.058 50.62 33.658 55.04 39.218 55.04C44.788 55.03 50.378 50.61 55.868 41.9ZM53.918 42.95L53.528 43.51C48.738 50.45 43.918 53.97 39.218 53.97C34.518 53.97 29.708 50.45 24.908 43.51L24.518 42.95L25.048 43.38C29.728 47.13 34.498 49.03 39.208 49.03C43.918 49.03 48.688 47.13 53.368 43.38L53.918 42.95ZM22.058 29.88L22.098 29.79H22.188C22.488 29.83 22.758 29.88 22.988 29.96L23.108 29.98L23.078 30.09C20.648 38.28 20.958 50.75 22.488 58.32L22.508 58.44H22.388H18.628H18.528V58.34V58.04C18.578 49.61 18.648 36.88 22.058 29.88Z" fill="#464860"/>
</svg>
