<svg width="51" height="53" viewBox="0 0 51 53" fill="none" xmlns="http://www.w3.org/2000/svg">
<path d="M32.7011 0.982666C32.3453 0.982666 32.0488 1.27915 32.0488 1.63493V4.54046C32.0488 4.89624 32.3453 5.19272 32.7011 5.19272C33.0569 5.19272 33.3533 4.89624 33.3533 4.54046V1.63493C33.3533 1.27915 33.0687 0.982666 32.7011 0.982666Z" fill="#464860"/>
<path d="M23.0832 1.31473C22.9646 1.11312 22.7393 0.982666 22.514 0.982666C22.3954 0.982666 22.2886 1.01824 22.1819 1.06568C22.0277 1.1487 21.921 1.29101 21.8736 1.4689C21.8261 1.64679 21.8499 1.81282 21.9447 1.96699L23.4034 4.49302C23.522 4.69463 23.7355 4.82508 23.9727 4.82508C24.0913 4.82508 24.198 4.7895 24.3047 4.74207C24.4589 4.65905 24.5656 4.51674 24.6131 4.33885C24.6605 4.16096 24.6368 3.99493 24.5419 3.84076L23.0832 1.31473Z" fill="#464860"/>
<path d="M15.2324 18.6293H12.3268C11.971 18.6293 11.6746 18.9258 11.6746 19.2816C11.6746 19.6373 11.971 19.9338 12.3268 19.9338H15.2324C15.5881 19.9338 15.8846 19.6373 15.8846 19.2816C15.8846 18.9258 15.5881 18.6293 15.2324 18.6293Z" fill="#464860"/>
<path d="M41.9987 34.0938C41.8802 33.8922 41.6667 33.7618 41.4295 33.7618C41.3109 33.7618 41.2042 33.7974 41.0974 33.8448C40.9433 33.9278 40.8365 34.0701 40.7891 34.248C40.7417 34.4259 40.7654 34.5919 40.8603 34.7461L42.3189 37.2721C42.4375 37.4737 42.651 37.6042 42.8882 37.6042C43.0068 37.6042 43.1135 37.5686 43.2203 37.5212C43.5286 37.3433 43.6353 36.9401 43.4574 36.6317L41.9987 34.0938Z" fill="#464860"/>
<path d="M50.3477 18.6293H47.3592C47.0034 18.6293 46.7069 18.9258 46.7069 19.2816C46.7069 19.6373 47.0034 19.9338 47.3592 19.9338H50.3477C50.7035 19.9338 51 19.6373 51 19.2816C51 18.9258 50.7154 18.6293 50.3477 18.6293Z" fill="#464860"/>
<path d="M43.5287 1.4689C43.4812 1.30287 43.3745 1.16056 43.2203 1.06568C43.1255 1.01824 43.0069 0.982666 42.8883 0.982666C42.6511 0.982666 42.4376 1.11312 42.319 1.31473L40.8722 3.8289C40.7892 3.98307 40.7655 4.16096 40.801 4.32699C40.8485 4.49302 40.9552 4.63533 41.1094 4.73021C41.2043 4.7895 41.3229 4.81322 41.4414 4.81322C41.6786 4.81322 41.8921 4.68277 42.0107 4.48116L43.4694 1.95513C43.5524 1.81282 43.5761 1.63493 43.5287 1.4689Z" fill="#464860"/>
<path d="M19.6084 12.4862C19.7033 12.5455 19.8219 12.5692 19.9405 12.5692C20.1777 12.5692 20.3911 12.4388 20.5097 12.2372C20.5928 12.083 20.6165 11.9051 20.5809 11.7391C20.5335 11.573 20.4267 11.4307 20.2726 11.3358L18.4581 10.2922C18.3632 10.2329 18.2446 10.2092 18.126 10.2092C17.8888 10.2092 17.6754 10.3397 17.5568 10.5413C17.4738 10.6954 17.45 10.8733 17.4856 11.0394C17.5331 11.2054 17.6398 11.3477 17.794 11.4426L19.6084 12.4862Z" fill="#464860"/>
<path d="M32.7011 33.3704C32.3453 33.3704 32.0488 33.6669 32.0488 34.0227V36.9282C32.0488 37.284 32.3453 37.5805 32.7011 37.5805C33.0569 37.5805 33.3533 37.284 33.3533 36.9282V34.0227C33.3533 33.6669 33.0687 33.3704 32.7011 33.3704Z" fill="#464860"/>
<path d="M47.3355 26.9783L45.7938 26.0888C45.6989 26.0295 45.5803 26.0058 45.4618 26.0058C45.2246 26.0058 45.0111 26.1362 44.8925 26.3379C44.7146 26.6462 44.8214 27.0494 45.1297 27.2273L46.6714 28.1168C46.7663 28.176 46.8849 28.1998 47.0035 28.1998C47.2406 28.1998 47.4541 28.0693 47.5727 27.8677C47.7625 27.5594 47.6557 27.168 47.3355 26.9783Z" fill="#464860"/>
<path d="M48.4977 9.50951C48.3791 9.50951 48.2724 9.54508 48.1656 9.59252L45.1415 11.3358C44.9873 11.4189 44.8806 11.5612 44.8332 11.7391C44.7857 11.9051 44.8094 12.083 44.9043 12.2371C45.0229 12.4388 45.2364 12.5692 45.4736 12.5692C45.5922 12.5692 45.6989 12.5336 45.8056 12.4862L48.8298 10.7429C48.9839 10.6599 49.0907 10.5175 49.1381 10.3397C49.1855 10.1618 49.1618 9.99574 49.0669 9.84157C48.9483 9.63996 48.7349 9.50951 48.4977 9.50951Z" fill="#464860"/>
<path d="M32.7011 39.2645C32.3453 39.2645 32.0488 39.561 32.0488 39.9168C32.0488 40.32 32.3453 40.6165 32.7011 40.6165C33.0569 40.6165 33.3533 40.32 33.3533 39.9642C33.3533 39.5491 33.0687 39.2645 32.7011 39.2645Z" fill="#464860"/>
<path d="M39.9352 5.98729C39.5794 5.98729 39.283 6.28377 39.283 6.63955C39.283 7.04277 39.5794 7.33925 39.9352 7.33925C40.291 7.33925 40.5875 7.04277 40.5875 6.68699C40.5993 6.28377 40.3029 5.98729 39.9352 5.98729Z" fill="#464860"/>
<path d="M28.5029 25.9228L4.01346 50.4122C3.83557 50.5901 3.5628 50.6969 3.26632 50.6969C2.80381 50.6969 2.30572 50.4715 1.92622 50.0802C1.59416 49.7481 1.36883 49.3093 1.32139 48.8942C1.28582 48.5266 1.38069 48.1945 1.59416 47.9811L26.0836 23.4916L26.2259 23.3493L26.4275 23.3967L27.9455 23.8L28.1471 23.8474L28.1946 24.049L28.5978 25.5789L28.6452 25.7805L28.5029 25.9228Z" fill="white"/>
<path d="M41.6193 23.7881C41.3228 24.0372 41.0026 24.0846 40.801 24.0846C40.7536 24.0846 40.718 24.0846 40.6706 24.0727L36.0217 23.8118C35.7608 23.8118 35.5592 23.9186 35.4406 24.1083L32.879 28.0812C32.6418 28.4607 32.2267 28.6741 31.7761 28.6741C31.527 28.6741 31.278 28.603 31.0764 28.4607C30.7799 28.2709 30.5783 27.9744 30.5071 27.6305L29.3212 23.1358C29.2619 22.9105 29.084 22.7326 28.8587 22.6733L24.2929 21.4637C23.9608 21.3688 23.6762 21.1553 23.4983 20.8589C23.3204 20.5624 23.273 20.2066 23.3678 19.8745C23.4508 19.5662 23.6525 19.2934 23.9252 19.1155L23.9371 19.1037L23.9845 19.0681L27.8981 16.5539C28.0997 16.4235 28.2064 16.1982 28.1946 15.9728L27.9337 11.2647C27.9099 10.9208 28.0285 10.5887 28.2657 10.3278C28.4911 10.0669 28.8113 9.91272 29.167 9.90086H29.1789H29.2382C29.6414 9.90086 29.926 10.0906 30.0565 10.1973L30.0683 10.2092L30.1158 10.2448L33.721 13.1859C33.8396 13.2808 33.9819 13.3282 34.1361 13.3282C34.2191 13.3282 34.3021 13.3163 34.3733 13.2808L38.7731 11.573C38.9272 11.5137 39.0814 11.4782 39.2474 11.4782C39.793 11.4782 40.2673 11.8102 40.469 12.3083C40.5875 12.6166 40.5875 12.9487 40.469 13.257L38.7612 17.6568C38.6782 17.8703 38.7138 18.1194 38.8679 18.3091L41.8446 21.9618C42.07 22.2345 42.1648 22.5666 42.1293 22.9105C42.0937 23.2544 41.8921 23.5628 41.6193 23.7881Z" fill="white"/>
<path d="M29.6295 26.1481L5.14004 50.6494C4.96215 50.8273 4.68939 50.934 4.39291 50.934C3.93039 50.934 3.4323 50.7087 3.05281 50.3174C2.72075 49.9853 2.49542 49.5465 2.44798 49.1314C2.4124 48.7638 2.50728 48.4317 2.72075 48.2183L27.2102 23.7288L27.3525 23.5865L27.5541 23.6339L29.0721 24.0371L29.2737 24.0846L29.3212 24.2862L29.7244 25.816L29.7718 26.0176L29.6295 26.1481Z" fill="#CCB8F4"/>
<path d="M42.1648 24.808C41.8684 25.0571 41.5481 25.1045 41.3465 25.1045C41.2991 25.1045 41.2635 25.1045 41.2161 25.0926L36.5672 24.8317C36.3063 24.8317 36.1047 24.9385 35.9861 25.1282L33.4245 29.1011C33.1873 29.4806 32.7723 29.694 32.3216 29.694C32.0726 29.694 31.8235 29.6229 31.6219 29.4806C31.3254 29.2908 31.1238 28.9943 31.0527 28.6504L29.8667 24.1557C29.8074 23.9304 29.6295 23.7525 29.4042 23.6932L24.8384 22.4836C24.5063 22.3887 24.2217 22.1752 24.0438 21.8788C23.8659 21.5823 23.8185 21.2265 23.9134 20.8944C23.9964 20.5861 24.198 20.3133 24.4708 20.1354L24.4826 20.1236L24.53 20.088L28.4436 17.5738C28.6452 17.4434 28.752 17.2181 28.7401 16.9927L28.4555 12.2846C28.4318 11.9407 28.5504 11.6086 28.7875 11.3477C29.0129 11.0868 29.3331 10.9326 29.6888 10.9208H29.7007H29.76C30.1632 10.9208 30.4478 11.1105 30.5783 11.2172L30.5902 11.2291L30.6376 11.2647L34.2428 14.2058C34.3614 14.3007 34.5037 14.3481 34.6579 14.3481C34.7409 14.3481 34.8239 14.3362 34.8951 14.3007L39.2949 12.5929C39.4491 12.5336 39.6032 12.498 39.7693 12.498C40.3148 12.498 40.7892 12.8301 40.9908 13.3282C41.1094 13.6365 41.1094 13.9686 40.9908 14.2769L39.283 18.6767C39.2 18.8902 39.2356 19.1393 39.3898 19.329L42.3664 22.9817C42.5918 23.2544 42.6866 23.5865 42.6511 23.9304C42.6155 24.2743 42.4376 24.5945 42.1648 24.808Z" fill="#A3EFE0"/>
<path d="M43.3982 23.041C43.4693 22.3413 43.2677 21.6653 42.8171 21.1316L40.208 17.9296L40.0776 17.7636L40.1487 17.5738L41.643 13.7196C41.8802 13.1147 41.8802 12.4388 41.643 11.8221C41.2516 10.814 40.291 10.1499 39.2118 10.1499C38.8916 10.1499 38.5714 10.2092 38.2631 10.3278L34.4088 11.8221L34.2191 11.8932L34.0531 11.7746L30.851 9.16559H30.8392L30.7917 9.13002C30.3411 8.77424 29.7718 8.58449 29.1907 8.58449C29.1433 8.58449 29.0959 8.58449 29.0484 8.58449C28.3724 8.62007 27.732 8.92841 27.2695 9.45022C26.807 9.97203 26.5698 10.6361 26.6054 11.3358L26.8307 15.4629L26.8426 15.6645L26.6647 15.7712L23.1899 18.0126L23.1425 18.0482C22.6088 18.4159 22.2412 18.9377 22.087 19.5425C21.7194 20.93 22.5495 22.365 23.9371 22.7326L24.1505 22.7919L24.7435 22.9461L24.3047 23.3849L0.657253 47.0561C0.159162 47.5542 -0.0661646 48.2657 0.0168505 49.0366C0.0998656 49.76 0.443785 50.4597 0.989313 51.0052C1.61786 51.6338 2.44801 52.0014 3.2663 52.0014C3.91856 52.0014 4.51153 51.7642 4.93846 51.3373L28.5978 27.678L29.0366 27.2392L29.1907 27.8321L29.2145 27.927C29.3686 28.6267 29.7718 29.2078 30.353 29.5755C30.7799 29.8482 31.2661 29.9905 31.7642 29.9905C32.6537 29.9905 33.4838 29.5399 33.9582 28.7927L36.1996 25.318L36.3063 25.1401L36.5079 25.1519L40.5164 25.3773C40.6112 25.3891 40.6824 25.3891 40.7654 25.3891C41.3702 25.3891 41.9632 25.1757 42.4257 24.7962C42.995 24.3574 43.327 23.7288 43.3982 23.041ZM28.5029 25.9228L4.01344 50.4123C3.83555 50.5901 3.56278 50.6969 3.2663 50.6969C2.80379 50.6969 2.3057 50.4715 1.9262 50.0802C1.59414 49.7481 1.36881 49.3093 1.32137 48.8943C1.2858 48.5266 1.38067 48.1946 1.59414 47.9811L26.0836 23.4916L26.2259 23.3493L26.4275 23.3968L27.9455 23.8L28.1471 23.8474L28.1946 24.049L28.5978 25.5789L28.6452 25.7805L28.5029 25.9228ZM41.6193 23.7881C41.3228 24.0372 41.0026 24.0846 40.801 24.0846C40.7536 24.0846 40.718 24.0846 40.6705 24.0727L36.0217 23.8118C35.7608 23.8118 35.5592 23.9186 35.4406 24.1083L32.879 28.0812C32.6418 28.4607 32.2267 28.6741 31.7761 28.6741C31.527 28.6741 31.278 28.603 31.0764 28.4607C30.7799 28.2709 30.5783 27.9744 30.5071 27.6305L29.3212 23.1359C29.2619 22.9105 29.084 22.7326 28.8587 22.6733L24.2928 21.4637C23.9608 21.3688 23.6762 21.1554 23.4983 20.8589C23.3204 20.5624 23.2729 20.2066 23.3678 19.8745C23.4508 19.5662 23.6524 19.2934 23.9252 19.1156L23.9371 19.1037L23.9845 19.0681L27.8981 16.5539C28.0997 16.4235 28.2064 16.1982 28.1946 15.9728L27.9337 11.2647C27.9099 10.9208 28.0285 10.5887 28.2657 10.3278C28.491 10.0669 28.8112 9.91273 29.167 9.90087H29.1789H29.2382C29.6414 9.90087 29.926 10.0906 30.0565 10.1974L30.0683 10.2092L30.1158 10.2448L33.721 13.1859C33.8396 13.2808 33.9819 13.3282 34.1361 13.3282C34.2191 13.3282 34.3021 13.3163 34.3733 13.2808L38.7731 11.573C38.9272 11.5137 39.0814 11.4782 39.2474 11.4782C39.793 11.4782 40.2673 11.8102 40.4689 12.3083C40.5875 12.6167 40.5875 12.9487 40.4689 13.2571L38.7612 17.6569C38.6782 17.8703 38.7138 18.1194 38.8679 18.3091L41.8446 21.9618C42.0699 22.2345 42.1648 22.5666 42.1292 22.9105C42.0937 23.2544 41.8921 23.5628 41.6193 23.7881Z" fill="#464860"/>
</svg>
