<svg width="44" height="51" viewBox="0 0 44 51" fill="none" xmlns="http://www.w3.org/2000/svg">
<path d="M11.2648 8.58061C12.8591 4.28651 16.8506 1.36558 21.424 1.14448C24.5195 0.993196 27.6033 2.13364 29.861 4.28651C32.1186 6.43938 33.4103 9.45339 33.4103 12.5605C33.4219 15.7142 32.1069 18.7515 29.7911 20.8927C27.7081 22.9059 26.5211 25.7337 26.556 28.643V29.9929H17.4092V28.7943C17.4441 25.8152 16.2455 22.9292 14.1275 20.8462C10.7993 17.6925 9.67052 12.8747 11.2648 8.58061Z" fill="white"/>
<path d="M26.556 31.1101V33.9728C26.556 35.0784 25.6599 35.9744 24.5544 35.9744H19.4108C18.3052 35.9744 17.4092 35.0784 17.4092 33.9728V31.1101H26.556Z" fill="white"/>
<path d="M1.12878 13.41C1.12878 11.8274 2.40887 10.5473 3.99152 10.5473H9.58898L9.51916 11.071C9.50752 11.1757 9.48425 11.2921 9.47261 11.3968C9.11186 15.2603 10.52 18.9958 13.3478 21.6608C15.2446 23.5227 16.3152 26.1178 16.2803 28.7827V33.9728C16.2803 35.3926 17.2579 36.6377 18.631 36.9985L18.8521 37.0567V38.2553C18.8521 38.5695 19.1082 38.8255 19.4224 38.8255C19.7366 38.8255 19.9926 38.5695 19.9926 38.2553V37.1149H23.9958V38.2669C23.9958 38.5812 24.2518 38.8372 24.566 38.8372C24.8802 38.8372 25.1362 38.5812 25.1362 38.2669V37.0683L25.3573 37.0101C26.7421 36.6494 27.708 35.4042 27.708 33.9845V28.643C27.6731 26.048 28.7204 23.5343 30.5824 21.7189C33.1309 19.3566 34.5739 16.0167 34.5623 12.5605C34.5623 12.0019 34.5157 11.4433 34.4343 10.8848L34.3877 10.5589H39.9852C41.5678 10.5589 42.8479 11.839 42.8479 13.4217V36.5563C42.8479 38.1389 41.5678 39.419 39.9852 39.419H31.4203C30.7104 39.419 30.0238 39.7681 29.5932 40.3384L22.8902 49.2873C22.6342 49.555 22.3084 49.683 21.9825 49.683C21.6916 49.683 21.389 49.5782 21.1563 49.3571L14.3835 40.3384C13.9529 39.7681 13.2663 39.4307 12.5565 39.4307H3.99152C2.40887 39.4307 1.12878 38.1506 1.12878 36.5679V13.41Z" fill="white"/>
<path d="M12.4168 9.73269C14.0111 5.43859 18.0026 2.51767 22.576 2.29656C25.6715 2.14528 28.7553 3.28572 31.013 5.43859C33.2706 7.59146 34.5623 10.6055 34.5623 13.7126C34.5739 16.8663 33.2589 19.9036 30.9431 22.0448C28.8601 24.058 27.6731 26.8858 27.708 29.7951V31.145H18.5612V29.9464C18.5961 26.9673 17.3975 24.0813 15.2795 21.9982C11.9397 18.8446 10.8225 14.0268 12.4168 9.73269Z" fill="#A3EFE0"/>
<path d="M26.556 31.1101V33.9728C26.556 35.0784 25.6599 35.9744 24.5544 35.9744H19.4108C18.3052 35.9744 17.4092 35.0784 17.4092 33.9728V31.1101H26.556Z" fill="white"/>
<path d="M2.28088 14.5737C2.28088 12.9911 3.56097 11.711 5.14362 11.711H10.7411L10.6713 12.2347C10.6596 12.3394 10.6363 12.4558 10.6247 12.5722C10.264 16.4357 11.6721 20.1712 14.4999 22.8361C16.3967 24.698 17.4673 27.2931 17.4324 29.958V35.1482C17.4324 36.5679 18.41 37.8131 19.7831 38.1739L20.0042 38.232V39.4307C20.0042 39.7449 20.2603 40.0009 20.5745 40.0009C20.8887 40.0009 21.1447 39.7449 21.1447 39.4307V38.2786H25.1479V39.4307C25.1479 39.7449 25.4039 40.0009 25.7181 40.0009C26.0323 40.0009 26.2883 39.7449 26.2883 39.4307V38.232L26.5094 38.1739C27.8942 37.8131 28.8601 36.5796 28.8601 35.1482V29.8068C28.8252 27.2117 29.8725 24.698 31.7345 22.8827C34.283 20.5203 35.726 17.1805 35.7144 13.7242C35.7144 13.1656 35.6678 12.6071 35.5864 12.0485L35.5398 11.7226H41.1373C42.7199 11.7226 44 13.0027 44 14.5854V37.6967C44 39.2794 42.7199 40.5595 41.1373 40.5595H32.5723C31.8625 40.5595 31.1759 40.9086 30.7453 41.4788L24.0423 50.4278C23.7863 50.6954 23.4605 50.8234 23.1346 50.8234C22.8437 50.8234 22.5411 50.7187 22.3084 50.4976L15.5356 41.4788C15.105 40.9086 14.4184 40.5711 13.7086 40.5711H5.14362C3.56097 40.5711 2.28088 39.291 2.28088 37.7084V14.5737Z" fill="#CCB8F4"/>
<path d="M3.99154 40.5362H12.5565C12.9172 40.5362 13.2547 40.7108 13.4758 40.99L20.237 50.0088C20.6676 50.5209 21.3076 50.8234 21.9826 50.8234H21.9942C22.6808 50.8234 23.3208 50.5092 23.7514 49.9739L30.4777 41.0017C30.6988 40.7108 31.0362 40.5478 31.397 40.5478H39.9619C42.1613 40.5478 43.9535 38.7557 43.9535 36.5563V13.41C43.9535 11.2106 42.1613 9.41849 39.9619 9.41849H34.1317L34.0735 9.20902C32.5025 3.50683 27.3007 -0.275243 21.3658 0.0156849C15.9429 0.283339 11.3229 3.98395 9.86829 9.20902L9.82174 9.41849H4.00318C1.79212 9.41849 0 11.2106 0 13.41V36.5447C0 38.7441 1.79212 40.5362 3.99154 40.5362ZM11.2647 8.58062C12.859 4.28651 16.8506 1.36559 21.424 1.14449C24.5194 0.993204 27.6033 2.13364 29.8609 4.28651C32.1185 6.43938 33.4102 9.4534 33.4102 12.5605C33.4219 15.7142 32.1069 18.7515 29.7911 20.8927C27.708 22.9059 26.521 25.7338 26.5559 28.643V29.993H17.4092V28.7943C17.4441 25.8152 16.2454 22.9292 14.1275 20.8462C10.7993 17.6925 9.67046 12.8747 11.2647 8.58062ZM26.5559 31.1101V33.9729C26.5559 35.0784 25.6599 35.9744 24.5544 35.9744H19.4107C18.3052 35.9744 17.4092 35.0784 17.4092 33.9729V31.1101H26.5559ZM1.1288 13.41C1.1288 11.8274 2.40889 10.5473 3.99154 10.5473H9.589L9.51918 11.071C9.50754 11.1757 9.48427 11.2921 9.47263 11.3968C9.11188 15.2603 10.52 18.9959 13.3478 21.6608C15.2446 23.5227 16.3153 26.1178 16.2804 28.7827V33.9729C16.2804 35.3926 17.2579 36.6378 18.6311 36.9985L18.8522 37.0567V38.2553C18.8522 38.5695 19.1082 38.8255 19.4224 38.8255C19.7366 38.8255 19.9926 38.5695 19.9926 38.2553V37.1149H23.9958V38.267C23.9958 38.5812 24.2518 38.8372 24.566 38.8372C24.8802 38.8372 25.1362 38.5812 25.1362 38.267V37.0683L25.3573 37.0101C26.7421 36.6494 27.708 35.4042 27.708 33.9845V28.643C27.6731 26.048 28.7205 23.5343 30.5824 21.7189C33.1309 19.3566 34.5739 16.0167 34.5623 12.5605C34.5623 12.0019 34.5157 11.4434 34.4343 10.8848L34.3877 10.5589H39.9852C41.5679 10.5589 42.8479 11.839 42.8479 13.4217V36.5563C42.8479 38.1389 41.5679 39.419 39.9852 39.419H31.4203C30.7104 39.419 30.0238 39.7681 29.5932 40.3384L22.8902 49.2873C22.6342 49.555 22.3084 49.683 21.9826 49.683C21.6916 49.683 21.3891 49.5782 21.1563 49.3571L14.3835 40.3384C13.9529 39.7681 13.2663 39.4307 12.5565 39.4307H3.99154C2.40889 39.4307 1.1288 38.1506 1.1288 36.5679V13.41Z" fill="#464860"/>
<path d="M20.8421 27.1186V24.5468C20.8421 24.2326 20.5861 23.9766 20.2719 23.9766C19.9577 23.9766 19.7017 24.2326 19.7017 24.5468V27.1186C19.7017 27.4328 19.9577 27.6888 20.2719 27.6888C20.5861 27.6888 20.8421 27.4328 20.8421 27.1186Z" fill="#464860"/>
<path d="M20.8421 20.2643V19.4031C20.8421 19.0889 20.5861 18.8329 20.2719 18.8329C19.9577 18.8329 19.7017 19.0889 19.7017 19.4031V20.2643C19.7017 20.5785 19.9577 20.8345 20.2719 20.8345C20.5861 20.8345 20.8421 20.5785 20.8421 20.2643Z" fill="#464860"/>
<path d="M23.6931 23.9882C23.3789 23.9882 23.1229 24.2442 23.1229 24.5584V27.1302C23.1229 27.4444 23.3789 27.7004 23.6931 27.7004C24.0073 27.7004 24.2634 27.4444 24.2634 27.1302V24.5468C24.2634 24.2326 24.0073 23.9882 23.6931 23.9882Z" fill="#464860"/>
<path d="M23.6931 18.8446C23.3789 18.8446 23.1229 19.1006 23.1229 19.4148V20.2759C23.1229 20.5901 23.3789 20.8462 23.6931 20.8462C24.0073 20.8462 24.2634 20.5901 24.2634 20.2759V19.4148C24.2634 19.1006 24.0073 18.8446 23.6931 18.8446Z" fill="#464860"/>
<path d="M8.80928 5.0313C8.89074 4.81019 8.82092 4.55418 8.62309 4.40289L4.34062 0.969939C4.23589 0.888479 4.11952 0.84193 3.99151 0.84193C3.96823 0.84193 3.94496 0.84193 3.93332 0.84193C3.78204 0.865205 3.64239 0.946665 3.5493 1.06304C3.35146 1.30742 3.39801 1.66817 3.64239 1.85436L7.92486 5.28732C8.20415 5.52006 8.69291 5.38041 8.80928 5.0313Z" fill="#464860"/>
<path d="M35.1325 4.92655C35.1674 5.12438 35.2954 5.29894 35.4816 5.36876C35.6678 5.43859 35.8889 5.40367 36.0402 5.2873L40.3227 1.85435C40.567 1.65652 40.6019 1.3074 40.4157 1.06302C40.2994 0.923377 40.1365 0.853554 39.9735 0.853554C39.8455 0.853554 39.7292 0.888465 39.6244 0.981562L35.342 4.40288C35.179 4.53089 35.0976 4.72872 35.1325 4.92655Z" fill="#464860"/>
<path d="M3.43295 29.6322C3.42131 29.7835 3.45622 29.9231 3.54932 30.0511C3.64241 30.1675 3.78206 30.249 3.93334 30.2606C4.08463 30.2839 4.23591 30.2373 4.35228 30.1442L8.63475 26.7229C8.75112 26.6298 8.83258 26.4902 8.84421 26.3389C8.85585 26.1876 8.82094 26.0363 8.72784 25.9199C8.63475 25.8036 8.4951 25.7221 8.34382 25.7105C8.32054 25.7105 8.29727 25.7105 8.28563 25.7105C8.15762 25.7105 8.02961 25.757 7.93652 25.8385L3.65405 29.2598C3.52604 29.3413 3.44458 29.4809 3.43295 29.6322Z" fill="#464860"/>
<path d="M35.1325 26.3273C35.1442 26.4785 35.2256 26.6182 35.342 26.7113L39.6245 30.1326C39.8688 30.3304 40.2296 30.2839 40.4158 30.0395C40.6136 29.7951 40.5671 29.4344 40.3227 29.2482L36.0402 25.8269C35.9355 25.7454 35.8075 25.6989 35.6911 25.6989C35.5282 25.6989 35.3653 25.7687 35.2489 25.9083C35.1558 26.0247 35.1092 26.176 35.1325 26.3273Z" fill="#464860"/>
<path d="M14.8257 10.0934C15.4658 6.81177 18.6311 5.42695 18.7707 5.36877C18.9104 5.31058 19.0267 5.20585 19.0849 5.0662C19.1431 4.92656 19.1431 4.77527 19.0849 4.63563C18.9918 4.41452 18.7823 4.28651 18.5612 4.28651C18.4914 4.28651 18.4216 4.29815 18.3518 4.33306C18.1889 4.40289 14.4882 5.96226 13.7318 9.89561C13.6736 10.1982 13.8715 10.5007 14.174 10.5589C14.465 10.5938 14.7675 10.396 14.8257 10.0934Z" fill="#464860"/>
<path d="M6.56329 13.701H3.99148C3.67728 13.701 3.42126 13.957 3.42126 14.2712C3.42126 14.5854 3.67728 14.8414 3.99148 14.8414H6.56329C6.87749 14.8414 7.13351 14.5854 7.13351 14.2712C7.13351 13.957 6.87749 13.701 6.56329 13.701Z" fill="#464860"/>
<path d="M39.9736 13.701H37.4018C37.0876 13.701 36.8315 13.957 36.8315 14.2712C36.8315 14.5854 37.0876 14.8414 37.4018 14.8414H39.9736C40.2878 14.8414 40.5438 14.5854 40.5438 14.2712C40.5438 13.957 40.2878 13.701 39.9736 13.701Z" fill="#464860"/>
</svg>
