<svg width="60" height="56" viewBox="0 0 60 56" fill="none" xmlns="http://www.w3.org/2000/svg">
<path d="M31.0611 45.393C30.9865 45.2132 30.8376 45.0742 30.6522 45.0115C22.1491 42.1663 16.8561 33.6468 18.0688 24.7535C19.4618 14.5377 28.9249 7.36236 39.1635 8.75848C49.3986 10.1541 56.5916 19.6006 55.1985 29.8165C53.986 38.7091 46.6059 45.5012 37.6501 45.9657C37.4553 45.9766 37.2747 46.07 37.1562 46.2227L33.3967 51.0448L31.0611 45.393Z" fill="white"/>
<path d="M33.5868 46.904C33.5144 46.7299 33.3701 46.5952 33.1903 46.5344C24.9457 43.7778 19.8127 35.5263 20.9871 26.9139C22.3361 17.0207 31.5098 10.0733 41.4368 11.427C51.3604 12.7801 58.3357 21.9296 56.9867 31.8228C55.8124 40.4345 48.6581 47.0112 39.9752 47.4596C39.7863 47.4701 39.6113 47.5605 39.4964 47.7085L35.8521 52.3777L33.5868 46.904Z" fill="#CCB8F4"/>
<path d="M34.0959 51.5889L38.0237 46.1074L38.2324 46.0822C42.609 45.561 46.7214 43.5337 49.8117 40.3746C52.9081 37.21 54.8428 33.0447 55.2603 28.6476C56.2715 17.9946 48.4013 8.50336 37.717 7.48915C27.0286 6.47455 17.5105 14.3152 16.4993 24.9682C16.0817 29.3667 17.1983 33.8216 19.6432 37.5122C22.0839 41.1964 25.7421 43.9606 29.9425 45.296L30.1428 45.3593L32.9751 51.4832C33.0721 51.6927 33.2751 51.836 33.5053 51.8578C33.7355 51.8797 33.9613 51.7764 34.0959 51.5889ZM31.2009 44.5489C31.1215 44.3779 30.9718 44.2492 30.7896 44.1958C22.4393 41.7785 16.9733 33.7437 17.7947 25.0905C18.7383 15.1504 27.6204 7.8339 37.5944 8.78068C47.565 9.72714 54.9085 18.5839 53.9649 28.5239C53.1436 37.1765 46.264 44.04 37.6067 44.8429C37.4184 44.8612 37.2472 44.9587 37.1384 45.1112L33.688 49.9255L31.2009 44.5489Z" fill="#464860"/>
<path d="M18.9926 41.7793C18.949 41.5959 18.8281 41.4398 18.6604 41.351C10.9641 37.3089 7.21961 28.3415 9.75888 20.0286C12.6758 10.4794 22.8442 5.09177 32.426 8.01861C42.0045 10.9445 47.4236 21.0934 44.5067 30.6426C41.9676 38.9549 33.852 44.3002 25.2093 43.3514C25.0212 43.3315 24.834 43.3928 24.6969 43.5204L20.3515 47.5453L18.9926 41.7793Z" fill="white"/>
<path d="M16.0886 42.6676C16.0451 42.4841 15.9242 42.328 15.7565 42.2392C8.06017 38.1971 4.3157 29.2297 6.85496 20.9168C9.77184 11.3676 19.9403 5.98 29.522 8.90684C39.1006 11.8327 44.5197 21.9817 41.6028 31.5308C39.0637 39.8431 30.948 45.1884 22.3054 44.2396C22.1173 44.2198 21.9301 44.281 21.7929 44.4086L17.4475 48.4336L16.0886 42.6676Z" fill="#A3EFE0"/>
<path d="M20.4175 49.2568L25.3644 44.6738L25.5739 44.691C29.9662 45.0576 34.4014 43.8958 38.0623 41.4203C41.7301 38.9406 44.4606 35.2477 45.7509 31.0234C48.877 20.7893 43.0691 9.91318 32.8049 6.77789C22.5368 3.64141 11.6402 9.41503 8.51415 19.6491C7.22341 23.8747 7.4243 28.4629 9.0798 32.5688C10.7325 36.6674 13.7624 40.1088 17.6098 42.259L17.7934 42.3612L19.3407 48.9286C19.3937 49.1532 19.5639 49.3343 19.785 49.4018C20.0062 49.4694 20.2481 49.4135 20.4175 49.2568ZM18.9925 41.7794C18.949 41.5959 18.8281 41.4398 18.6603 41.351C10.964 37.3089 7.21956 28.3416 9.75882 20.0286C12.6757 10.4794 22.8441 5.0918 32.4259 8.01864C42.0044 10.9445 47.4235 21.0935 44.5066 30.6426C41.9676 38.9549 33.8519 44.3002 25.2093 43.3515C25.0212 43.3316 24.8339 43.3928 24.6968 43.5204L20.3514 47.5454L18.9925 41.7794Z" fill="#464860"/>
<path d="M32.9727 23.1071L32.9726 23.1071C33.1735 23.2849 33.3301 23.513 33.4186 23.7776C33.5061 24.0392 33.5223 24.3199 33.4582 24.5931C33.3925 24.8858 33.239 25.1489 33.0263 25.3522L33.0258 25.3528L30.6388 27.6285L31.2053 30.8379L32.9727 23.1071ZM32.9727 23.1071L32.9699 23.1046C32.7425 22.9063 32.4642 22.7836 32.1721 22.7414L32.1709 22.7413L28.8618 22.2714M32.9727 23.1071L28.8618 22.2714M28.8618 22.2714L27.3863 19.3458C27.2521 19.0747 27.0403 18.8544 26.783 18.7069C26.3055 18.4309 25.6903 18.4309 25.2128 18.7069C24.9507 18.8572 24.7459 19.0788 24.6116 19.3416L24.6105 19.3439L23.1326 22.2719L19.8244 22.7446L19.8237 22.7447C19.5319 22.7868 19.2539 22.9093 19.0267 23.1072C18.8213 23.285 18.6622 23.5148 18.5762 23.7835C18.4869 24.0492 18.4792 24.3313 18.5369 24.5901L18.821 24.5268C18.8731 24.7564 18.9912 24.9704 19.1664 25.1418L19.1663 25.1419L19.1668 25.1423L19.1688 25.1442L19.1713 25.1466L21.5262 27.3888L21.403 27.3678L21.3704 27.5587L21.37 27.5613L21.358 27.6297M28.8618 22.2714L18.8513 23.8762C18.781 24.0921 18.7732 24.3158 18.8209 24.5265L18.5368 24.5894C18.6026 24.8868 18.7579 25.1453 18.9653 25.3482L18.9653 25.3483L18.9699 25.3527L21.358 27.6297M21.358 27.6297L20.7936 30.8388L20.7936 30.8388C20.7145 31.2886 20.8437 31.7432 21.1384 32.0844L21.1388 32.0848C21.4342 32.4261 21.8652 32.6252 22.3211 32.6252C22.5716 32.6252 22.8173 32.563 23.0362 32.4512L23.0376 32.4505L26.0007 30.9259L28.9613 32.4504L28.9628 32.4512C29.1817 32.563 29.4274 32.6252 29.678 32.6252C30.1307 32.6252 30.5642 32.4315 30.8625 32.0822L30.8629 32.0817C31.154 31.74 31.2849 31.2871 31.2054 30.8385L21.358 27.6297ZM19.2159 23.3256C19.0521 23.468 18.9253 23.6533 18.8537 23.8688C18.8534 23.8698 18.853 23.8708 18.8527 23.8718L19.2159 23.3256ZM20.0103 24.0181L23.7296 23.4894L23.9882 23.4527L24.1058 23.2194L25.7669 19.9234C25.809 19.84 25.895 19.7853 25.9962 19.7853C26.0996 19.7853 26.1829 19.8389 26.2255 19.9234C26.2255 19.9234 26.2255 19.9234 26.2255 19.9234L27.8901 23.2229L28.0078 23.4561L28.2665 23.4927L31.9822 24.0181C31.9825 24.0182 31.9828 24.0182 31.983 24.0182C32.0907 24.0343 32.1623 24.1004 32.1893 24.1826L32.1892 24.1826L32.1916 24.1895C32.217 24.2631 32.2015 24.3514 32.127 24.4236C32.1268 24.4238 32.1265 24.4241 32.1263 24.4243L29.4352 26.9899L29.2414 27.1746L29.2877 27.4383L29.9232 31.0565C29.9233 31.057 29.9234 31.0574 29.9235 31.0579C29.9347 31.1274 29.9169 31.1939 29.8715 31.2488C29.821 31.3059 29.7487 31.3382 29.6747 31.3382C29.6345 31.3382 29.5946 31.3292 29.552 31.3071L29.5507 31.3065L26.2217 29.5938L25.9928 29.4761L25.764 29.5939L22.4406 31.3054C22.394 31.3285 22.3493 31.3382 22.3145 31.3382C22.2341 31.3382 22.1641 31.3037 22.1195 31.251L22.1196 31.251L22.1164 31.2473C22.0706 31.1942 22.0531 31.127 22.0647 31.0638L22.0653 31.0602L22.7015 27.435L22.7478 27.1712L22.5538 26.9865L19.8639 24.4253C19.7944 24.356 19.7756 24.2655 19.8026 24.1842C19.8302 24.1015 19.9044 24.0339 20.0096 24.0182C20.0098 24.0182 20.01 24.0181 20.0103 24.0181Z" fill="#464860" stroke="#464860"/>
<path d="M32.4725 24.7851L29.7796 27.3524L30.4157 30.9744C30.452 31.1905 30.3927 31.4066 30.2509 31.5744C30.1059 31.7421 29.895 31.8388 29.6741 31.8388C29.5522 31.8388 29.4335 31.8098 29.3214 31.7517L25.9923 30.0391L22.6666 31.7517C22.5578 31.8066 22.4358 31.8388 22.3139 31.8388C22.0897 31.8388 21.8788 31.7421 21.7371 31.5744C21.5953 31.4099 21.5327 31.1905 21.5722 30.9744L22.2084 27.3492L19.5155 24.7851C19.3111 24.5851 19.2386 24.2949 19.3276 24.0272C19.4166 23.7595 19.6506 23.5659 19.9374 23.524L23.6587 22.9951L25.3199 19.6988C25.4485 19.444 25.7089 19.286 25.9956 19.286C26.2857 19.286 26.5428 19.444 26.6713 19.6988L28.3359 22.9983L32.0539 23.524C32.3407 23.5659 32.5747 23.7562 32.6637 24.0272C32.756 24.2949 32.6802 24.5851 32.4725 24.7851Z" fill="white"/>
</svg>
