<svg width="37" height="51" viewBox="0 0 37 51" fill="none" xmlns="http://www.w3.org/2000/svg">
<path d="M24.3157 46.729C24.0847 47.5739 23.1533 48.1011 22.2951 47.8736L2.47805 42.6127C1.61995 42.3853 1.08455 41.4682 1.31558 40.6232L11.7669 2.43982C11.9979 1.59491 12.9293 1.06774 13.7874 1.29522L33.6082 6.55604C34.4663 6.78352 35.0017 7.70064 34.7707 8.54555L24.3157 46.729Z" fill="white"/>
<path d="M26.4903 48.8554C26.2593 49.7004 25.3278 50.2275 24.4697 50L4.64895 44.7392C3.79085 44.5117 3.25545 43.5946 3.48648 42.7497L13.9414 4.56628C14.1725 3.72137 15.1039 3.19421 15.962 3.42168L35.7828 8.68251C36.6409 8.90999 37.1763 9.82711 36.9452 10.672L26.4903 48.8554Z" fill="#CCB8F4"/>
<path d="M33.8871 5.53035L14.07 0.26952C12.6619 -0.102385 11.1253 0.71725 10.7293 2.16154L0.274333 40.3486C-0.10338 41.7351 0.729055 43.248 2.1959 43.6379L22.0167 48.8988C23.4248 49.2707 24.9614 48.451 25.3574 47.0068L35.8087 8.81972C36.1424 7.35737 35.2953 5.90586 33.8871 5.53035ZM24.3159 46.7287C24.0849 47.5736 23.1535 48.1008 22.2954 47.8733L2.47827 42.6125C1.62016 42.385 1.08477 41.4679 1.31579 40.623L11.7671 2.43957C11.9981 1.59466 12.9296 1.06749 13.7877 1.29497L33.6084 6.55579C34.4665 6.78327 35.0019 7.70039 34.7709 8.5453L24.3159 46.7287Z" fill="#464860"/>
<path d="M22.7137 49.1704C22.4643 49.1704 22.215 49.138 21.9693 49.073L2.14852 43.8121C1.39676 43.6135 0.769687 43.1297 0.38464 42.4545C0.00325964 41.7901 -0.0994196 41.0247 0.0986047 40.3025L10.5536 2.11548C10.7552 1.37529 11.2466 0.757851 11.9324 0.378725C12.6071 0.00320952 13.3846 -0.0978908 14.118 0.0970884L33.9388 5.35791C35.4459 5.75871 36.348 7.29687 35.9923 8.86032L25.5337 47.0546C25.332 47.7948 24.8406 48.4122 24.1549 48.7913C23.7038 49.0405 23.2124 49.1704 22.7137 49.1704ZM13.3809 0.364282C12.9408 0.364282 12.5008 0.476214 12.1084 0.692858C11.5107 1.02504 11.0816 1.56665 10.9056 2.20936L0.450648 40.3964C0.28196 41.0174 0.373638 41.7035 0.700012 42.2776C1.03739 42.8661 1.58745 43.2886 2.2402 43.4619L22.061 48.7227C22.6917 48.8888 23.3885 48.7985 23.9715 48.4772C24.5693 48.145 24.9983 47.6034 25.1743 46.9607L35.633 8.77366C35.9447 7.40519 35.1599 6.05478 33.8397 5.70815L14.0226 0.447329C13.8136 0.389557 13.5973 0.364282 13.3809 0.364282ZM22.71 48.1089C22.556 48.1089 22.402 48.0908 22.2517 48.0475L2.43089 42.7867C1.97617 42.6675 1.57645 42.357 1.33076 41.9382C1.08506 41.5193 1.01538 41.0247 1.14007 40.5769L11.5913 2.39351C11.7124 1.94578 12.0277 1.55221 12.4531 1.31029C12.8785 1.06837 13.3809 0.99977 13.8356 1.12253L33.6564 6.38336C34.1111 6.50251 34.5108 6.81304 34.7565 7.23188C35.0022 7.65072 35.0719 8.14539 34.9472 8.59312L24.4923 46.7765C24.2759 47.5709 23.5131 48.1089 22.71 48.1089ZM13.3846 1.42222C13.1279 1.42222 12.8675 1.49083 12.6365 1.62081C12.2954 1.81218 12.0461 2.12993 11.9471 2.48378L1.49211 40.6744C1.3931 41.0319 1.45177 41.4254 1.64613 41.7612C1.84048 42.097 2.16319 42.3426 2.52257 42.4401L22.3433 47.7009C23.0988 47.8995 23.9349 47.4265 24.1366 46.6827L34.5915 8.49563C34.6905 8.13817 34.6318 7.7446 34.4375 7.40881C34.2431 7.07301 33.9204 6.82748 33.561 6.72999L13.7403 1.46916C13.6229 1.44028 13.5056 1.42222 13.3846 1.42222Z" fill="#464860"/>
<path d="M13.3586 43.2481C14.2335 43.2481 14.9428 42.5497 14.9428 41.6883C14.9428 40.8268 14.2335 40.1284 13.3586 40.1284C12.4837 40.1284 11.7744 40.8268 11.7744 41.6883C11.7744 42.5497 12.4837 43.2481 13.3586 43.2481Z" fill="#A3EFE0"/>
<path d="M14.0522 39.1608C12.644 38.7889 11.1698 39.623 10.7921 41.0095C10.4144 42.3961 11.2615 43.8476 12.6697 44.2195C14.0778 44.5914 15.552 43.7573 15.9297 42.3708C16.3075 40.9879 15.4604 39.5327 14.0522 39.1608ZM12.9484 43.194C12.0903 42.9665 11.5989 42.1252 11.8299 41.2839C12.0609 40.439 12.9154 39.9552 13.7698 40.1827C14.6242 40.4102 15.1193 41.2515 14.8883 42.0928C14.6573 42.9377 13.8028 43.4215 12.9484 43.194Z" fill="#464860"/>
<path d="M13.3583 44.49C13.1126 44.49 12.8669 44.4575 12.6176 44.3925C11.103 43.9918 10.2046 42.45 10.6116 40.9587C11.0187 39.4675 12.5846 38.5829 14.0991 38.9837C15.6136 39.3845 16.512 40.9262 16.105 42.4175C15.7639 43.6668 14.6125 44.49 13.3583 44.49ZM13.3657 39.2509C12.9366 39.2509 12.5112 39.3628 12.1262 39.5794C11.5504 39.908 11.136 40.4316 10.9674 41.0526C10.7987 41.6773 10.8867 42.3308 11.2167 42.9013C11.5504 43.4682 12.0822 43.8762 12.7129 44.0423C14.0331 44.3889 15.3936 43.6199 15.7493 42.3236C16.105 41.0237 15.3202 39.6842 14.0037 39.3339C13.7947 39.2798 13.5783 39.2509 13.3657 39.2509ZM13.373 43.4321C13.2153 43.4321 13.0576 43.4104 12.8999 43.3707C12.4379 43.2479 12.0565 42.9627 11.8218 42.5619C11.5871 42.1611 11.5284 41.6917 11.6531 41.2368C11.9098 40.2944 12.8633 39.7564 13.8204 40.0091C14.7775 40.2619 15.3239 41.2007 15.0672 42.1431C14.9425 42.598 14.6528 42.9735 14.2458 43.2046C13.9781 43.3563 13.6774 43.4321 13.373 43.4321ZM13.3473 40.3088C12.7276 40.3088 12.1775 40.7096 12.0052 41.3306C11.9061 41.6917 11.9538 42.0636 12.1372 42.3814C12.3205 42.6991 12.6249 42.923 12.9916 43.0205C13.3583 43.118 13.736 43.071 14.0587 42.8905C14.3814 42.7099 14.6088 42.4103 14.7078 42.0492C14.9132 41.3018 14.4768 40.5616 13.7214 40.3594C13.5967 40.3233 13.472 40.3088 13.3473 40.3088Z" fill="#464860"/>
<path d="M4.31445 35.4128L24.4396 40.753L32.6833 10.636L12.5581 5.29932L4.31445 35.4128ZM13.2402 6.64251L31.2861 11.4303L23.6035 39.5001L5.55761 34.7087L13.2402 6.64251Z" fill="#464860"/>
<path d="M24.5717 40.9771L24.3956 40.9302L4.09082 35.5394L4.13849 35.3661L12.4298 5.07568L12.6059 5.12262L32.907 10.5098L32.8594 10.6831L24.5717 40.9771ZM4.54188 35.2866L24.315 40.533L32.4633 10.7662L12.6902 5.5198L4.54188 35.2866ZM23.7319 39.7206L23.5559 39.6737L5.33397 34.8353L5.38165 34.662L13.1119 6.41887L13.2879 6.46581L31.5099 11.3006L31.4622 11.4739L23.7319 39.7206ZM5.78136 34.5825L23.4715 39.2765L31.0588 11.5569L13.3686 6.86299L5.78136 34.5825Z" fill="#464860"/>
<path d="M20.4458 5.9709L25.4624 7.30325C25.7668 7.38269 26.0161 7.19132 26.0821 6.95301C26.1481 6.7111 25.9685 6.40779 25.7264 6.3428L20.7098 5.01044C20.4054 4.93101 20.1561 5.12238 20.0901 5.36068C20.0241 5.59899 20.1414 5.88785 20.4458 5.9709Z" fill="#464860"/>
<path d="M25.606 7.50165C25.5437 7.50165 25.4813 7.49443 25.4153 7.47637L20.3987 6.14401C20.208 6.09346 20.054 5.97431 19.966 5.80822C19.8853 5.65657 19.867 5.47603 19.911 5.31355C19.999 4.99219 20.3364 4.72139 20.7581 4.83332L25.7747 6.16568C26.1158 6.25595 26.3541 6.66035 26.2624 6.99976C26.1854 7.26695 25.9324 7.50165 25.606 7.50165ZM20.5711 5.16912C20.4134 5.16912 20.2997 5.28105 20.2667 5.40743C20.2447 5.48686 20.2557 5.57352 20.2924 5.64212C20.3217 5.69628 20.3804 5.76489 20.4941 5.79738L25.5107 7.12974C25.716 7.1839 25.8664 7.05392 25.9067 6.90588C25.9471 6.76145 25.8224 6.55564 25.6794 6.51592L20.6628 5.18356C20.6297 5.17273 20.6004 5.16912 20.5711 5.16912Z" fill="#464860"/>
<path d="M28.2767 8.04719C28.3977 8.07969 28.537 8.0508 28.6764 8.02552C28.8304 7.93887 28.8634 7.8161 28.8964 7.69695C28.9294 7.57779 28.9001 7.44059 28.8744 7.30338C28.7864 7.15173 28.6617 7.11923 28.5407 7.08674C28.4197 7.05424 28.2803 7.08313 28.141 7.1084C27.987 7.19506 27.954 7.31782 27.9209 7.43698C27.8879 7.55613 27.9173 7.69334 27.9429 7.83055C28.0493 7.92081 28.1556 8.01469 28.2767 8.04719Z" fill="#464860"/>
<path d="M28.4007 8.24207C28.342 8.24207 28.287 8.23484 28.232 8.2204C28.067 8.17707 27.9386 8.06514 27.8249 7.96404L27.7809 7.92432L27.7699 7.86655C27.7406 7.71851 27.7039 7.55242 27.7479 7.38993C27.7846 7.25634 27.8323 7.0758 28.056 6.95304L28.111 6.93137C28.2613 6.90249 28.43 6.86638 28.595 6.90971C28.7307 6.94582 28.9141 6.99275 29.0387 7.21301L29.0607 7.26717C29.0901 7.41521 29.1267 7.5813 29.0827 7.74379C29.0461 7.87738 28.9984 8.05792 28.7747 8.18068L28.7197 8.20235C28.617 8.2204 28.507 8.24207 28.4007 8.24207ZM28.3236 7.87377C28.397 7.89183 28.5033 7.87377 28.606 7.85572C28.672 7.80878 28.6904 7.75462 28.7197 7.64991C28.738 7.57769 28.7234 7.47659 28.7014 7.37188C28.6537 7.30689 28.5987 7.28883 28.4923 7.25995C28.419 7.2419 28.3163 7.25634 28.21 7.278C28.144 7.32133 28.1256 7.37549 28.0963 7.48381C28.078 7.54881 28.0926 7.63907 28.111 7.73656C28.188 7.79795 28.2576 7.85572 28.3236 7.87377Z" fill="#464860"/>
<path d="M13.2427 6.64195L5.55762 34.709L23.6041 39.4995L31.2891 11.4325L13.2427 6.64195Z" fill="white"/>
<path d="M29.8863 12.4807L10.2378 23.6089C10.0838 23.6956 10.0508 23.8183 10.1388 23.97C10.1828 24.0458 10.2452 24.0639 10.3075 24.0783C10.3699 24.0928 10.4285 24.1108 10.5092 24.0675L30.1576 12.9356C30.3116 12.849 30.3446 12.7262 30.2566 12.5746C30.1466 12.4843 29.9633 12.4373 29.8863 12.4807Z" fill="#464860"/>
<path d="M10.4028 24.2771C10.3442 24.2771 10.2928 24.2627 10.2561 24.2555C10.1828 24.2374 10.0581 24.2049 9.97744 24.0605C9.83809 23.8222 9.90043 23.5911 10.1425 23.4539L29.7909 12.322C29.9522 12.2318 30.2199 12.3076 30.3703 12.4412L30.4069 12.4845C30.5463 12.7228 30.484 12.9539 30.2419 13.0911L10.5972 24.2266C10.5275 24.2663 10.4615 24.2771 10.4028 24.2771ZM29.9632 12.6434L10.3295 23.768C10.2891 23.7933 10.2745 23.8114 10.2745 23.815C10.2745 23.8186 10.2745 23.8403 10.3001 23.8836C10.3075 23.8944 10.3075 23.8944 10.3552 23.9089C10.4065 23.9233 10.4065 23.9197 10.4175 23.9161L30.0622 12.7806C30.1026 12.7553 30.1172 12.7373 30.1172 12.7337C30.1172 12.73 30.1172 12.7156 30.1062 12.6939C30.0586 12.6614 29.9926 12.6434 29.9632 12.6434Z" fill="#464860"/>
<path d="M11.5106 19.6846C11.573 19.6991 11.6317 19.7171 11.7123 19.6738L25.6144 11.7988C25.7684 11.7121 25.8014 11.5894 25.7134 11.4377C25.6254 11.2861 25.5007 11.2536 25.3467 11.3402L11.441 19.2152C11.2869 19.3019 11.2539 19.4247 11.342 19.5763C11.4043 19.5907 11.4483 19.6666 11.5106 19.6846Z" fill="#464860"/>
<path d="M11.6098 19.8832C11.5511 19.8832 11.4997 19.8688 11.4631 19.8579C11.3897 19.8399 11.3421 19.7965 11.3054 19.764L11.232 19.746L11.1844 19.6666C11.1147 19.5474 11.0927 19.4319 11.122 19.3235C11.1514 19.2152 11.2284 19.1249 11.3494 19.0563L25.2514 11.1814C25.3724 11.1127 25.4898 11.0947 25.5998 11.1236C25.7098 11.1525 25.8015 11.2283 25.8712 11.3474C25.9409 11.4666 25.9629 11.5821 25.9335 11.6905C25.9042 11.7988 25.8272 11.8891 25.7062 11.9577L11.8005 19.829C11.7308 19.8688 11.6648 19.8832 11.6098 19.8832ZM11.4814 19.4427C11.5071 19.4607 11.5291 19.4788 11.5474 19.4932L11.5584 19.5077C11.6061 19.5221 11.6098 19.5185 11.6171 19.5149L25.5191 11.6399C25.5595 11.6146 25.5741 11.5966 25.5741 11.593C25.5741 11.5894 25.5741 11.5641 25.5485 11.5244C25.5081 11.4558 25.4971 11.4558 25.4311 11.4919L11.5328 19.3705C11.4924 19.3958 11.4777 19.4138 11.4777 19.4174C11.4777 19.421 11.4777 19.4282 11.4814 19.4427Z" fill="#464860"/>
<path d="M12.7304 15.2286C12.7927 15.243 12.8514 15.2611 12.9321 15.2178L21.1647 10.5527C21.3188 10.466 21.3518 10.3433 21.2637 10.1916C21.1757 10.04 21.0511 10.0075 20.897 10.0941L12.6607 14.7556C12.5067 14.8422 12.4737 14.965 12.5617 15.1167C12.6057 15.1961 12.668 15.2105 12.7304 15.2286Z" fill="#464860"/>
<path d="M12.8266 15.4237C12.7679 15.4237 12.7165 15.4093 12.6799 15.402C12.6065 15.384 12.4855 15.3515 12.4012 15.2107C12.3315 15.0915 12.3095 14.976 12.3388 14.8677C12.3682 14.7593 12.4452 14.6691 12.5662 14.6005L20.7989 9.93541C21.0409 9.7982 21.2756 9.8632 21.4149 10.0979C21.5543 10.3362 21.4883 10.5673 21.2499 10.7045L13.0209 15.3732C12.9512 15.4129 12.8852 15.4237 12.8266 15.4237ZM21.0446 10.2243C21.0299 10.2243 21.0116 10.2351 20.9822 10.2495L12.7532 14.9146C12.7129 14.9399 12.6982 14.9579 12.6982 14.9615C12.6982 14.9652 12.6982 14.9868 12.7239 15.0301C12.7312 15.041 12.7312 15.041 12.7789 15.0554C12.8266 15.0663 12.8302 15.0699 12.8412 15.0626L21.0739 10.3976C21.1399 10.3579 21.1436 10.3506 21.1069 10.282C21.0776 10.2423 21.0666 10.2243 21.0446 10.2243Z" fill="#464860"/>
<path d="M13.9337 10.8311C13.9961 10.8455 14.0547 10.8636 14.1354 10.8203L16.6217 9.41208C16.7757 9.32542 16.8087 9.20266 16.7207 9.05101C16.6327 8.89936 16.508 8.86686 16.354 8.95352L13.8677 10.3617C13.7137 10.4484 13.6807 10.5711 13.7687 10.7228C13.8274 10.7372 13.8714 10.813 13.9337 10.8311Z" fill="#464860"/>
<path d="M14.0287 11.0296C13.97 11.0296 13.9187 11.0152 13.882 11.008C13.8087 10.9899 13.761 10.9466 13.7243 10.9141L13.651 10.896L13.6033 10.8166C13.5336 10.6974 13.5116 10.5819 13.541 10.4736C13.5703 10.3653 13.6473 10.275 13.7683 10.2064L16.2546 8.7982C16.4967 8.661 16.7314 8.72599 16.8707 8.96069C16.9404 9.07984 16.9624 9.19538 16.9331 9.30371C16.9037 9.41203 16.8267 9.50229 16.7057 9.5709L14.2194 10.9791C14.1534 11.0152 14.0874 11.0296 14.0287 11.0296ZM13.904 10.5891C13.9297 10.6072 13.9517 10.6252 13.97 10.6433L13.9774 10.6577C14.025 10.6722 14.0287 10.6722 14.0397 10.6649L16.526 9.25677C16.5664 9.2351 16.581 9.21344 16.581 9.20983C16.581 9.20622 16.581 9.18094 16.5553 9.14122C16.5187 9.07623 16.5077 9.07262 16.438 9.10873L13.9517 10.5169C13.9114 10.5422 13.8967 10.5602 13.8967 10.5638C13.9004 10.5675 13.9004 10.5747 13.904 10.5891Z" fill="#464860"/>
</svg>
