<svg width="37" height="34" viewBox="0 0 37 34" fill="none" xmlns="http://www.w3.org/2000/svg">
<path fill-rule="evenodd" clip-rule="evenodd" d="M20.2698 16.85C20.2598 16.84 20.2598 16.84 20.2498 16.84C20.2498 16.83 20.2298 16.83 20.2298 16.82C19.8498 16.53 19.5098 16.17 19.2298 15.76C19.1698 15.67 19.1098 15.57 19.0498 15.48C18.9498 15.32 18.8598 15.15 18.7898 14.96C18.7798 14.93 18.7698 14.91 18.7598 14.88C18.6798 14.7 18.6098 14.52 18.5498 14.32C18.4398 13.98 18.3398 13.64 18.2498 13.32C18.1598 13 18.0798 12.69 17.9998 12.39C17.9898 12.35 17.9698 12.31 17.9498 12.27C17.9398 12.26 17.9398 12.26 17.9398 12.25C17.9198 12.22 17.8998 12.19 17.8698 12.16C17.8598 12.15 17.8498 12.15 17.8498 12.14C17.8198 12.12 17.7998 12.1 17.7698 12.08C17.7598 12.07 17.7498 12.07 17.7398 12.06C17.7198 12.05 17.6898 12.04 17.6698 12.03C17.6498 12.02 17.6398 12.01 17.6198 12.01C17.5498 11.98 17.4898 11.95 17.4298 11.91C17.4198 11.9 17.4098 11.9 17.3998 11.89C17.3398 11.84 17.2898 11.78 17.2398 11.72C17.1398 11.58 17.0698 11.42 17.0398 11.23C17.0298 11.17 17.0298 11.12 17.0298 11.06C17.0298 10.98 17.0398 10.91 17.0498 10.83C17.0598 10.78 17.0798 10.74 17.0898 10.7C17.0998 10.67 17.1098 10.65 17.1098 10.62C17.1198 10.6 17.1298 10.58 17.1398 10.56C17.3498 10.57 17.5498 10.44 17.6098 10.23C17.9498 8.92 19.3798 8.55 20.9398 8.14C22.6498 7.7 24.4798 7.21 25.5598 5.56C28.1398 6.88 28.7998 8.88 29.2398 10.22C29.2998 10.4 29.3598 10.57 29.4098 10.72C29.4698 10.89 29.6198 11 29.7998 11.02C29.8198 11.02 29.8298 11.02 29.8398 11.02C29.8998 11.02 29.9498 11 29.9998 10.99C29.9998 11.01 29.9998 11.03 29.9998 11.06C29.9998 11.17 29.9798 11.28 29.9498 11.38C29.9298 11.45 29.8998 11.5 29.8698 11.56C29.8498 11.59 29.8398 11.63 29.8198 11.66C29.7798 11.73 29.7198 11.79 29.6698 11.84C29.6598 11.85 29.6498 11.87 29.6298 11.88C29.5598 11.94 29.4798 11.99 29.3998 12.02C29.3698 12.04 29.3398 12.06 29.2998 12.08C29.2898 12.08 29.2898 12.09 29.2898 12.09C29.2598 12.11 29.2298 12.14 29.2098 12.16C29.1998 12.17 29.1998 12.18 29.1898 12.18C29.1698 12.21 29.1498 12.23 29.1398 12.26C29.1298 12.27 29.1298 12.28 29.1298 12.29C29.1198 12.31 29.1098 12.33 29.0998 12.35C28.9298 13.02 28.7198 13.66 28.4698 14.27C28.4598 14.28 28.4598 14.3 28.4498 14.31C28.3598 14.52 28.2598 14.73 28.1598 14.93C28.1198 15 28.0898 15.06 28.0498 15.12C27.9398 15.32 27.8198 15.52 27.6898 15.71C27.4198 16.1 27.0998 16.44 26.7498 16.73C24.7498 18.34 22.9398 18.89 20.2698 16.85Z" fill="white"/>
<path fill-rule="evenodd" clip-rule="evenodd" d="M19.6698 2.91C20.2698 2.51 20.9398 2.22 21.6398 2.06C22.9698 1.76 24.3998 1.92 25.6398 2.72C25.6298 2.78 25.6198 2.83 25.6098 2.88C25.5998 2.91 25.5998 2.94 25.5898 2.97C25.5598 3.08 25.5298 3.18 25.4898 3.3C25.4398 3.45 25.3898 3.61 25.3498 3.78C25.2998 3.95 25.2498 4.11 25.1998 4.28C25.1798 4.33 25.1598 4.38 25.1398 4.43C25.0998 4.52 25.0598 4.61 25.0198 4.7C24.1698 6.41 22.3798 6.88 20.7198 7.31C19.2998 7.68 17.9598 8.02 17.2198 9.02L17.1998 8.96C17.1998 8.95 17.1998 8.93 17.1998 8.92C17.1598 8.75 17.1298 8.57 17.1098 8.4C17.0998 8.33 17.0898 8.27 17.0898 8.21C17.0698 8.07 17.0698 7.94 17.0598 7.8C17.0598 7.74 17.0498 7.69 17.0498 7.64C17.0598 6.42 17.4498 5.32 18.0898 4.42C18.5298 3.82 19.0598 3.31 19.6698 2.91Z" fill="white"/>
<path fill-rule="evenodd" clip-rule="evenodd" d="M35.7798 30.82C33.9098 31.25 31.9598 31.58 29.9598 31.81C27.8798 32.05 25.7298 32.17 23.5298 32.17C21.3298 32.17 19.1798 32.04 17.0998 31.81C15.0898 31.58 13.1498 31.25 11.2798 30.82V29.72V25.25C11.2798 24.59 11.5198 23.98 11.9398 23.5C12.2298 23.17 12.6098 22.9 13.0398 22.7C13.2598 22.6 13.4798 22.51 13.7298 22.45L17.9398 21.43C18.1198 21.39 18.2798 21.34 18.4498 21.28C18.4598 21.28 18.4598 21.27 18.4698 21.27C18.5998 21.22 18.7198 21.18 18.8398 21.13C18.8498 21.13 18.8598 21.11 18.8698 21.11C19.1998 20.96 19.5098 20.78 19.7598 20.56C20.1898 20.17 20.4698 19.67 20.4698 19.03V18.09C21.5998 18.8 22.6098 19.1 23.5298 19.1C24.6798 19.1 25.6798 18.66 26.6198 18.04V18.99C26.6198 19.62 26.8898 20.13 27.3298 20.52C27.5998 20.76 27.9398 20.95 28.3198 21.11C28.3398 21.12 28.3498 21.13 28.3698 21.14C28.4498 21.17 28.5298 21.2 28.6098 21.23C28.6298 21.23 28.6498 21.25 28.6698 21.25C28.8298 21.3 28.9898 21.35 29.1598 21.39L33.3698 22.41C33.6098 22.47 33.8398 22.55 34.0498 22.65C34.4998 22.85 34.8798 23.13 35.1698 23.46C35.5798 23.95 35.8298 24.55 35.8298 25.21V29.74L35.7798 30.82Z" fill="white"/>
<path fill-rule="evenodd" clip-rule="evenodd" d="M29.7 4.95C29.94 5.37 30.1 5.86 30.2 6.36C30.19 6.4 30.19 6.44 30.19 6.47C30.2 6.71 30.24 6.9 30.29 7.08C30.3 7.29 30.3 7.5 30.28 7.72C30.27 7.79 30.26 7.85 30.26 7.92C30.24 8.08 30.22 8.23 30.19 8.39C30.17 8.47 30.16 8.55 30.14 8.63C30.11 8.78 30.07 8.92 30.02 9.07C30 9.13 29.98 9.21 29.96 9.28C29.95 9.31 29.93 9.34 29.92 9.37C29.42 7.97 28.52 6.08 26 4.78C26.01 4.76 26.01 4.74 26.02 4.72C26.1 4.51 26.18 4.29 26.24 4.04C26.25 4.02 26.25 4.01 26.26 4C26.3 3.84 26.34 3.71 26.39 3.57C26.4 3.56 26.4 3.55 26.4 3.54C26.45 3.39 26.5 3.24 26.53 3.08C26.53 3.07 26.53 3.07 26.53 3.07C28.32 3.19 29.24 4.14 29.7 4.95Z" fill="white"/>
<path fill-rule="evenodd" clip-rule="evenodd" d="M36.6602 31.82C34.7902 32.25 32.8402 32.58 30.8402 32.81C28.7602 33.05 26.6102 33.17 24.4102 33.17C22.2102 33.17 20.0602 33.04 17.9802 32.81C15.9702 32.58 14.0302 32.25 12.1602 31.82V30.72V26.25C12.1602 25.59 12.4002 24.98 12.8202 24.5C13.1102 24.17 13.4902 23.9 13.9202 23.7C14.1402 23.6 14.3602 23.51 14.6102 23.45L18.8202 22.43C19.0002 22.39 19.1602 22.34 19.3302 22.28C19.3402 22.28 19.3402 22.28 19.3502 22.28C19.4802 22.23 19.6002 22.19 19.7202 22.14C19.7302 22.13 19.7402 22.12 19.7502 22.12C20.0802 21.97 20.3902 21.79 20.6402 21.57C21.0702 21.18 21.3502 20.68 21.3502 20.04V19.1C22.4802 19.81 23.4902 20.11 24.4102 20.11C25.5602 20.11 26.5602 19.67 27.5002 19.05V20C27.5002 20.63 27.7702 21.14 28.2102 21.53C28.4802 21.77 28.8202 21.96 29.2002 22.12C29.2202 22.13 29.2302 22.14 29.2502 22.15C29.3302 22.18 29.4102 22.21 29.4902 22.24C29.5102 22.25 29.5302 22.26 29.5502 22.26C29.7102 22.31 29.8702 22.36 30.0402 22.4L34.2502 23.42C34.4902 23.48 34.7202 23.56 34.9302 23.66C35.3702 23.86 35.7602 24.14 36.0502 24.47C36.4602 24.96 36.7102 25.56 36.7102 26.22V30.75L36.6602 31.82Z" fill="#A3EFE0"/>
<path fill-rule="evenodd" clip-rule="evenodd" d="M20.3998 3.72C20.9998 3.32 21.6698 3.03 22.3698 2.87C23.6998 2.57 25.1298 2.73 26.3698 3.53C26.3598 3.58 26.3498 3.64 26.3398 3.69C26.3298 3.72 26.3298 3.75 26.3198 3.78C26.2998 3.9 26.2698 4 26.2298 4.12C26.1798 4.27 26.1298 4.43 26.0898 4.6C26.0398 4.77 25.9898 4.93 25.9398 5.1C25.9198 5.15 25.8998 5.2 25.8798 5.25C25.8398 5.34 25.7998 5.43 25.7598 5.52C24.9098 7.23 23.1198 7.7 21.4598 8.13C20.0398 8.5 18.6998 8.84 17.9598 9.84L17.9398 9.78C17.9298 9.76 17.9298 9.74 17.9298 9.73C17.8898 9.56 17.8598 9.38 17.8398 9.21C17.8298 9.14 17.8198 9.08 17.8198 9.02C17.7998 8.88 17.7998 8.75 17.7898 8.61C17.7898 8.55 17.7798 8.5 17.7798 8.45C17.7898 7.23 18.1798 6.13 18.8198 5.23C19.2598 4.63 19.7998 4.12 20.3998 3.72Z" fill="#CCB8F4"/>
<path fill-rule="evenodd" clip-rule="evenodd" d="M31.0102 8.53C31.0002 8.6 30.9902 8.66 30.9902 8.73C30.9702 8.89 30.9502 9.04 30.9202 9.2C30.9002 9.28 30.8902 9.36 30.8702 9.44C30.8402 9.59 30.8002 9.73 30.7502 9.88C30.7302 9.95 30.7102 10.03 30.6802 10.1C30.6702 10.13 30.6502 10.16 30.6402 10.19C30.1402 8.79 29.2402 6.9 26.7202 5.6C26.7302 5.58 26.7302 5.56 26.7402 5.54C26.8202 5.33 26.9002 5.11 26.9602 4.86C26.9702 4.84 26.9702 4.83 26.9802 4.82C27.0202 4.66 27.0602 4.53 27.1102 4.39C27.1102 4.38 27.1102 4.37 27.1202 4.36C27.1702 4.21 27.2202 4.06 27.2502 3.9C27.2502 3.89 27.2502 3.89 27.2502 3.89C29.0402 4.02 29.9702 4.97 30.4302 5.78" fill="#CCB8F4"/>
<path fill-rule="evenodd" clip-rule="evenodd" d="M36.7198 30.12C36.7198 29.82 36.7098 29.52 36.7098 29.22H36.6998V25.2C36.6998 25.09 36.6898 24.98 36.6798 24.87C36.6098 24.11 36.3098 23.41 35.8098 22.84C35.7998 22.83 35.7798 22.82 35.7698 22.8C35.6398 22.66 35.5098 22.52 35.3598 22.4C35.3498 22.39 35.3298 22.38 35.3198 22.37C35.1598 22.24 34.9998 22.12 34.8098 22.01C34.7998 22.01 34.7998 22 34.7998 22C34.4198 21.77 33.9898 21.6 33.5298 21.48L29.7398 20.56L29.7498 20.55C29.4598 20.55 29.2098 20.47 29.0098 20.35C28.9998 20.35 28.9998 20.35 28.9898 20.34C28.8098 20.32 28.6598 20.27 28.5198 20.19C28.2898 20.08 28.0798 19.96 27.9098 19.81C27.6598 19.59 27.5098 19.31 27.5098 18.97V17.35C27.7998 17.1 28.0598 16.8 28.2898 16.49C28.2898 16.5 28.2998 16.5 28.2998 16.51C28.3598 16.38 28.4398 16.26 28.5398 16.16C28.5498 16.15 28.5598 16.14 28.5698 16.13C28.6298 16.02 28.6998 15.93 28.7798 15.84C28.8098 15.8 28.8298 15.75 28.8598 15.71C28.8698 15.68 28.8798 15.64 28.8998 15.61C28.8998 15.61 28.8998 15.6 28.8898 15.6C28.9098 15.57 28.9198 15.54 28.9398 15.5C28.9598 15.47 28.9698 15.44 28.9798 15.42C29.1098 15.17 29.2398 14.91 29.3498 14.64C29.4798 14.33 29.5898 14.01 29.6998 13.69C29.7098 13.67 29.7098 13.66 29.7198 13.64C29.7798 13.46 29.8298 13.27 29.8898 13.08C29.9198 12.99 29.9498 12.91 29.9698 12.82C30.0998 12.75 30.2098 12.66 30.3198 12.56C30.3298 12.55 30.3298 12.55 30.3298 12.55C30.4298 12.45 30.5198 12.34 30.5998 12.22C30.6098 12.21 30.6098 12.21 30.6098 12.2C30.6198 12.19 30.6198 12.18 30.6198 12.18C30.6598 12.12 30.6898 12.05 30.7298 11.99C30.7398 11.97 30.7498 11.95 30.7598 11.93C30.7898 11.86 30.8198 11.8 30.8398 11.73C30.8498 11.71 30.8598 11.69 30.8598 11.66C30.8798 11.59 30.8998 11.52 30.9098 11.45C30.9198 11.42 30.9198 11.4 30.9198 11.38C30.9398 11.28 30.9398 11.19 30.9398 11.09C30.9398 10.97 30.9198 10.85 30.8998 10.74C30.8898 10.71 30.8898 10.68 30.8798 10.65C30.8598 10.55 30.8298 10.46 30.7998 10.37C30.7898 10.36 30.7898 10.34 30.7898 10.33C30.7898 10.32 30.7798 10.32 30.7798 10.31C30.7598 10.25 30.7298 10.2 30.6998 10.15C30.6798 10.12 30.6698 10.09 30.6598 10.07C30.6498 10.06 30.6498 10.04 30.6398 10.03C30.6498 10 30.6598 9.98 30.6698 9.95C30.7198 9.83 30.7698 9.71 30.8098 9.58C30.8398 9.5 30.8598 9.43 30.8898 9.35C30.9098 9.27 30.9398 9.2 30.9598 9.13C30.9798 9.07 30.9998 9.01 31.0098 8.95C31.0198 8.86 31.2598 8.13 31.2498 6.88L30.9998 5.7C30.8798 5.27 30.7198 4.86 30.4998 4.48C29.6798 3.05 28.2598 2.24 26.4298 2.15C26.4198 2.14 26.4098 2.12 26.3898 2.12C24.8698 1.02 23.0798 0.780001 21.4298 1.15C20.6298 1.33 19.8498 1.67 19.1498 2.13C18.4598 2.59 17.8398 3.17 17.3498 3.86C16.9198 4.45 16.2298 6.22 16.1698 6.99L16.2098 8.77C16.2398 8.91 16.2598 9.05 16.2898 9.18C16.2998 9.2 16.2998 9.23 16.3098 9.25L16.5398 9.83C16.5098 9.87 16.4898 9.91 16.4598 9.95C16.4298 9.99 16.4098 10.03 16.3798 10.07C16.3498 10.12 16.3298 10.17 16.2998 10.22C16.2798 10.25 16.2598 10.29 16.2498 10.32C16.2398 10.34 16.2398 10.35 16.2298 10.37C16.1998 10.45 16.1798 10.53 16.1598 10.61C16.1498 10.65 16.1398 10.69 16.1298 10.73C16.1098 10.86 16.0898 10.98 16.0898 11.11C16.0898 11.21 16.0998 11.31 16.1098 11.41C16.1198 11.44 16.1198 11.47 16.1298 11.5C16.1498 11.57 16.1598 11.64 16.1798 11.71C16.1898 11.74 16.1998 11.77 16.2098 11.8C16.2298 11.87 16.2598 11.93 16.2898 11.99C16.2998 12.02 16.3198 12.04 16.3298 12.07C16.3598 12.13 16.3998 12.19 16.4298 12.24C16.4398 12.25 16.4398 12.27 16.4498 12.28C16.4598 12.3 16.4798 12.31 16.4898 12.33C16.5198 12.37 16.5498 12.41 16.5798 12.45C16.5998 12.48 16.6198 12.5 16.6498 12.52C16.6898 12.56 16.7198 12.6 16.7598 12.63C16.7798 12.65 16.7998 12.66 16.8198 12.68C16.8698 12.72 16.9098 12.75 16.9498 12.78C16.9498 12.79 16.9598 12.79 16.9598 12.79C17.0198 12.83 17.0798 12.87 17.1498 12.9C17.1898 13.03 17.2198 13.16 17.2598 13.29C17.2998 13.41 17.3298 13.54 17.3598 13.66C17.3698 13.67 17.3698 13.68 17.3698 13.69C17.3898 13.76 17.4098 13.83 17.4298 13.9C17.4798 14.06 17.5298 14.23 17.5798 14.4C17.6098 14.48 17.6298 14.56 17.6498 14.64C17.6598 14.68 17.6798 14.71 17.6898 14.75C17.7398 14.89 17.7898 15.02 17.8398 15.15C17.8698 15.22 17.8998 15.29 17.9298 15.35C17.9798 15.46 18.0298 15.56 18.0798 15.67C18.0998 15.71 18.1198 15.75 18.1398 15.79V15.8C18.1898 15.86 18.2398 15.93 18.2798 16C18.4198 16.13 18.5198 16.28 18.5998 16.45C18.6598 16.52 18.7098 16.59 18.7598 16.67C18.7598 16.67 18.7598 16.67 18.7598 16.66C18.9898 16.95 19.2498 17.23 19.5298 17.46V19.06C19.5298 19.4 19.3798 19.68 19.1298 19.9C18.9798 20.03 18.7998 20.14 18.5998 20.23C18.5898 20.23 18.5798 20.22 18.5698 20.22C18.3398 20.39 18.0498 20.49 17.6998 20.49C17.6798 20.49 17.6698 20.49 17.6498 20.49C17.5298 20.55 17.3898 20.59 17.2298 20.61L13.4698 21.52C13.0198 21.6 12.5898 21.77 12.2098 22C12.1998 22 12.1998 22.01 12.1998 22.01C12.0198 22.12 11.8498 22.24 11.6898 22.37C11.6698 22.38 11.6598 22.39 11.6498 22.4C11.4998 22.53 11.3598 22.66 11.2398 22.8C11.2298 22.82 11.2098 22.83 11.1998 22.84C10.6998 23.41 10.3998 24.1 10.3298 24.87C10.3198 24.98 10.3098 25.09 10.3098 25.2V29.04C10.3198 29.1 10.3198 29.16 10.3198 29.23C10.3198 29.29 10.2998 29.36 10.2998 29.42C10.3298 29.52 10.3398 29.63 10.3398 29.74C10.3598 29.89 10.3498 30.04 10.3498 30.2C10.3498 30.22 10.3398 30.24 10.3398 30.27V31.19C10.3398 31.4 10.4798 31.59 10.6898 31.64C12.6998 32.12 14.8098 32.48 16.9798 32.73C19.0998 32.97 21.2898 33.1 23.5098 33.1C25.7398 33.1 27.9198 32.97 30.0398 32.73C32.2098 32.48 34.2998 32.12 36.3098 31.64C36.5298 31.6 36.6898 31.41 36.6898 31.18V30.13C36.7098 30.13 36.7098 30.13 36.7198 30.12ZM26.0198 4.72C26.0998 4.51 26.1798 4.29 26.2398 4.04C26.2498 4.02 26.2498 4.01 26.2598 4C26.2998 3.84 26.3398 3.71 26.3898 3.57C26.3998 3.56 26.3998 3.55 26.3998 3.54C26.4498 3.39 26.4998 3.24 26.5298 3.08C26.5298 3.07 26.5298 3.07 26.5298 3.07C28.3198 3.2 29.2498 4.15 29.7098 4.96C29.9498 5.38 30.1098 5.87 30.2098 6.37C30.1998 6.41 30.1998 6.45 30.1998 6.48C30.2098 6.72 30.2498 6.91 30.2998 7.09C30.3098 7.3 30.3098 7.51 30.2898 7.73C30.2798 7.8 30.2698 7.86 30.2698 7.93C30.2498 8.09 30.2298 8.24 30.1998 8.4C30.1798 8.48 30.1698 8.56 30.1498 8.64C30.1198 8.79 30.0798 8.93 30.0298 9.08C29.9998 9.13 29.9798 9.21 29.9598 9.28C29.9498 9.31 29.9298 9.34 29.9198 9.37C29.4198 7.97 28.5198 6.08 25.9998 4.78C26.0098 4.76 26.0098 4.74 26.0198 4.72ZM18.0998 4.42C18.5198 3.82 19.0598 3.31 19.6698 2.91C20.2698 2.51 20.9398 2.22 21.6398 2.06C22.9698 1.76 24.3998 1.92 25.6398 2.72C25.6298 2.78 25.6198 2.83 25.6098 2.88C25.6098 2.91 25.5998 2.94 25.5898 2.97C25.5598 3.08 25.5298 3.18 25.4898 3.3C25.4398 3.45 25.3898 3.61 25.3498 3.78C25.2998 3.95 25.2498 4.11 25.1998 4.28C25.1798 4.33 25.1598 4.38 25.1398 4.43C25.0998 4.52 25.0598 4.61 25.0198 4.7C24.1698 6.41 22.3798 6.88 20.7198 7.31C19.2998 7.68 17.9598 8.02 17.2198 9.02L17.1998 8.96C17.1998 8.95 17.1998 8.93 17.1998 8.92C17.1598 8.75 17.1298 8.57 17.1098 8.4C17.0998 8.33 17.0898 8.27 17.0898 8.21C17.0698 8.07 17.0698 7.94 17.0598 7.8C17.0598 7.74 17.0498 7.69 17.0498 7.64C17.0698 6.41 17.4598 5.32 18.0998 4.42ZM19.2398 15.76C19.1798 15.67 19.1198 15.57 19.0598 15.48C18.9598 15.32 18.8698 15.15 18.7998 14.96C18.7898 14.93 18.7798 14.91 18.7698 14.88C18.6898 14.7 18.6198 14.52 18.5598 14.32C18.4498 13.98 18.3498 13.64 18.2598 13.32C18.1698 13 18.0898 12.69 18.0098 12.39C17.9998 12.35 17.9798 12.31 17.9598 12.27C17.9498 12.26 17.9498 12.26 17.9498 12.25C17.9298 12.22 17.9098 12.19 17.8798 12.16C17.8698 12.15 17.8598 12.15 17.8598 12.14C17.8298 12.12 17.8098 12.1 17.7798 12.08C17.7698 12.07 17.7598 12.07 17.7498 12.06C17.7298 12.05 17.6998 12.04 17.6798 12.03C17.6598 12.02 17.6498 12.01 17.6298 12.01C17.5598 11.98 17.4998 11.95 17.4398 11.91C17.4298 11.9 17.4198 11.9 17.4098 11.89C17.3498 11.84 17.2998 11.78 17.2498 11.72C17.1498 11.58 17.0798 11.42 17.0498 11.23C17.0398 11.17 17.0398 11.12 17.0398 11.06C17.0398 10.98 17.0498 10.91 17.0598 10.83C17.0698 10.78 17.0898 10.74 17.0998 10.7C17.1098 10.67 17.1198 10.65 17.1198 10.62C17.1298 10.6 17.1398 10.58 17.1498 10.56C17.3598 10.57 17.5598 10.44 17.6198 10.23C17.9598 8.92 19.3898 8.55 20.9498 8.14C22.6598 7.7 24.4898 7.21 25.5698 5.56C28.1498 6.88 28.8098 8.88 29.2498 10.22C29.3098 10.4 29.3698 10.57 29.4198 10.72C29.4798 10.89 29.6298 11 29.8098 11.02H29.8498C29.9098 11.02 29.9598 11 30.0098 10.99C30.0098 11.01 30.0198 11.03 30.0198 11.06C30.0198 11.17 29.9998 11.28 29.9698 11.38C29.9498 11.45 29.9198 11.5 29.8898 11.56C29.8698 11.59 29.8598 11.63 29.8398 11.66C29.7998 11.73 29.7398 11.79 29.6898 11.84C29.6798 11.85 29.6698 11.87 29.6498 11.88C29.5798 11.94 29.4998 11.99 29.4198 12.02C29.3898 12.04 29.3598 12.06 29.3198 12.08C29.3098 12.08 29.3098 12.09 29.3098 12.09C29.2798 12.11 29.2498 12.14 29.2298 12.16C29.2198 12.17 29.2198 12.18 29.2098 12.18C29.1898 12.21 29.1698 12.23 29.1598 12.26C29.1498 12.27 29.1498 12.28 29.1498 12.29C29.1398 12.31 29.1298 12.33 29.1198 12.35C28.9498 13.02 28.7398 13.66 28.4898 14.27C28.4798 14.28 28.4798 14.3 28.4698 14.31C28.3798 14.52 28.2798 14.73 28.1798 14.93C28.1398 15 28.1098 15.06 28.0698 15.12C27.9598 15.32 27.8398 15.52 27.7098 15.71C27.4398 16.1 27.1198 16.44 26.7698 16.73C24.7198 18.3 22.9098 18.86 20.2398 16.81C20.2298 16.8 20.2298 16.8 20.2198 16.8C20.2098 16.79 20.1998 16.79 20.1998 16.78C19.8498 16.53 19.5098 16.17 19.2398 15.76ZM35.7898 29.72L35.7798 30.82C33.9098 31.25 31.9598 31.58 29.9598 31.81C27.8798 32.05 25.7298 32.17 23.5298 32.17C21.3298 32.17 19.1798 32.04 17.0998 31.81C15.0898 31.58 13.1498 31.25 11.2798 30.82V25.24C11.2798 24.58 11.5198 23.97 11.9398 23.49C12.2298 23.16 12.6098 22.89 13.0398 22.69C13.2598 22.59 13.4798 22.5 13.7298 22.44L17.9398 21.42C18.1198 21.38 18.2798 21.33 18.4498 21.27C18.4598 21.27 18.4598 21.26 18.4698 21.26C18.5998 21.21 18.7198 21.17 18.8398 21.12C18.8498 21.11 18.8598 21.1 18.8698 21.1C19.1998 20.95 19.5098 20.77 19.7598 20.55C20.1898 20.16 20.4698 19.65 20.4698 19.02V18.08C21.5998 18.79 22.6098 19.09 23.5298 19.09C24.6798 19.09 25.6798 18.64 26.6198 18.03V18.98C26.6198 19.61 26.8898 20.12 27.3298 20.51C27.5998 20.75 27.9398 20.94 28.3198 21.1C28.3398 21.11 28.3498 21.12 28.3698 21.13C28.4498 21.16 28.5298 21.19 28.6098 21.22C28.6298 21.23 28.6498 21.24 28.6698 21.24C28.8298 21.29 28.9898 21.34 29.1598 21.38L33.3698 22.4C33.6098 22.46 33.8398 22.54 34.0498 22.64C34.4998 22.84 34.8798 23.12 35.1698 23.45C35.5798 23.94 35.8298 24.54 35.8298 25.2V29.72H35.7898Z" fill="#464860"/>
<path d="M10.6802 12.13C10.5402 12.23 10.3602 12.29 10.1202 12.29H7.43016V15.05C7.43016 15.34 7.36016 15.53 7.23016 15.64C7.09016 15.74 6.84016 15.8 6.47016 15.8H5.24016C4.84016 15.8 4.59016 15.73 4.48016 15.6C4.37016 15.47 4.32016 15.28 4.32016 15.04V12.3H1.67016C1.43016 12.3 1.24016 12.25 1.11016 12.14C0.970156 12.04 0.910156 11.78 0.910156 11.38V10.15C0.910156 9.78001 0.960156 9.53001 1.07016 9.39001C1.17016 9.25001 1.37016 9.19001 1.66016 9.19001H4.35016V6.58001C4.35016 6.34001 4.40016 6.15001 4.51016 6.02001C4.61016 5.88001 4.87016 5.82001 5.27016 5.82001H6.49016C6.86016 5.82001 7.11016 5.87001 7.25016 5.98001C7.39016 6.08001 7.45016 6.28001 7.45016 6.57001V9.21001H10.1602C10.4502 9.21001 10.6402 9.28001 10.7502 9.41001C10.8502 9.55001 10.9102 9.80001 10.9102 10.17V11.39C10.8802 11.78 10.8202 12.03 10.6802 12.13Z" fill="white"/>
<path d="M11.4101 12.61C11.2701 12.71 11.0901 12.77 10.8501 12.77H8.16014V15.53C8.16014 15.82 8.09014 16.01 7.96014 16.12C7.82014 16.22 7.57014 16.28 7.20014 16.28H5.97014C5.57014 16.28 5.32014 16.21 5.21014 16.08C5.10014 15.95 5.05014 15.76 5.05014 15.52V12.78H2.40014C2.16014 12.78 1.97014 12.73 1.84014 12.62C1.70014 12.52 1.64014 12.26 1.64014 11.86V10.63C1.64014 10.26 1.69014 10.01 1.80014 9.87C1.90014 9.73 2.10014 9.67 2.39014 9.67H5.08014V7.05C5.08014 6.81 5.13014 6.62 5.24014 6.49C5.34014 6.35 5.60014 6.29 6.00014 6.29H7.20014C7.57014 6.29 7.82014 6.34 7.96014 6.45C8.10014 6.55 8.16014 6.75 8.16014 7.04V9.68H10.8701C11.1601 9.68 11.3501 9.75 11.4601 9.88C11.5601 10.02 11.6201 10.27 11.6201 10.64V11.86C11.6101 12.25 11.5401 12.51 11.4101 12.61Z" fill="#CCB8F4"/>
<path d="M6.47 5.81C6.84 5.81 7.09 5.86 7.23 5.97C7.37 6.07 7.43 6.27 7.43 6.56V9.2H10.14C10.43 9.2 10.62 9.27 10.73 9.4C10.83 9.54 10.89 9.79 10.89 10.16V11.38C10.89 11.78 10.82 12.03 10.69 12.14C10.55 12.24 10.37 12.3 10.13 12.3H7.43V15.06C7.43 15.35 7.36 15.54 7.23 15.65C7.09 15.75 6.84 15.81 6.47 15.81H5.24C4.84 15.81 4.59 15.74 4.48 15.61C4.38 15.47 4.32 15.29 4.32 15.05V12.31H1.67C1.43 12.31 1.24 12.26 1.11 12.15C0.97 12.05 0.91 11.79 0.91 11.39V10.15C0.91 9.78 0.96 9.53 1.07 9.39C1.17 9.25 1.37 9.19 1.66 9.19H4.35V6.58C4.35 6.34 4.4 6.15 4.51 6.02C4.61 5.88 4.87 5.82 5.27 5.82H6.47V5.81ZM6.47 4.91H5.24C4.79 4.91 4.15 4.97 3.77 5.47C3.54 5.77 3.43 6.14 3.43 6.58V8.3H1.64C0.91 8.3 0.53 8.6 0.34 8.86C0.11 9.15 0 9.57 0 10.15V11.37C0 11.82 0.06 12.46 0.56 12.84C0.85 13.07 1.23 13.18 1.67 13.18H3.43V15.02C3.43 15.46 3.54 15.84 3.77 16.13C4.15 16.63 4.79 16.69 5.24 16.69H6.46C7.04 16.69 7.46 16.58 7.76 16.35C8.01 16.15 8.32 15.77 8.32 15.05V13.19H10.11C10.55 13.19 10.92 13.08 11.22 12.85C11.72 12.47 11.78 11.83 11.78 11.38V10.15C11.78 9.57 11.67 9.15 11.44 8.85C11.24 8.59 10.86 8.29 10.14 8.29H8.33V6.55C8.33 5.83 8.03 5.44 7.77 5.25C7.47 5.02 7.05 4.91 6.47 4.91Z" fill="#464860"/>
</svg>
