<svg width="39" height="34" viewBox="0 0 39 34" fill="none" xmlns="http://www.w3.org/2000/svg">
<path fill-rule="evenodd" clip-rule="evenodd" d="M33.1704 13.7183C33.0086 13.7638 32.8872 13.8902 32.8468 14.047C32.7254 14.5222 32.5889 15.0076 32.4221 15.5385C32.1794 16.3273 31.7294 16.9846 31.1328 17.4346C31.1328 17.4346 31.1328 17.4346 31.1277 17.4346C29.1002 18.9868 27.7755 18.5924 26.1879 17.3739C25.657 16.9391 25.2222 16.3172 24.8936 15.5183C24.9087 15.488 24.9239 15.4576 24.9441 15.4222C24.9593 15.397 24.9694 15.3666 24.9846 15.3413C25.116 15.0885 25.2424 14.8307 25.3537 14.5576C25.4801 14.2492 25.5964 13.9307 25.7025 13.6071C25.7076 13.5919 25.7126 13.5768 25.7177 13.5616C25.7784 13.3846 25.8289 13.1925 25.8845 13.0004C25.9098 12.9144 25.9402 12.8285 25.9654 12.7425C26.0918 12.6717 26.2081 12.5858 26.3143 12.4846C26.3194 12.4796 26.3244 12.4796 26.3244 12.4745C26.4256 12.3785 26.5166 12.2672 26.5975 12.1459C26.6025 12.1408 26.6076 12.1358 26.6076 12.1307C26.6126 12.1257 26.6177 12.1155 26.6177 12.1105C26.6531 12.0498 26.6885 11.9841 26.7239 11.9184C26.734 11.8981 26.7441 11.883 26.7491 11.8627C26.7795 11.797 26.8048 11.7313 26.825 11.6605C26.83 11.6403 26.8402 11.62 26.8452 11.5948C26.8654 11.524 26.8806 11.4532 26.8907 11.3824C26.8958 11.3571 26.9008 11.3369 26.9008 11.3116C26.916 11.2156 26.921 11.1195 26.921 11.0184C26.921 10.897 26.9059 10.7807 26.8857 10.6644C26.8806 10.6341 26.8755 10.6038 26.8705 10.5785C26.8503 10.4824 26.825 10.3864 26.7896 10.2954C26.7845 10.2852 26.7845 10.2701 26.7795 10.2549C26.7795 10.2498 26.7744 10.2448 26.7694 10.2397C26.7491 10.1841 26.7188 10.1285 26.6935 10.0779C26.6784 10.0527 26.6682 10.0223 26.6531 9.99704C26.648 9.98693 26.643 9.97176 26.6379 9.96165C26.648 9.93637 26.6581 9.91109 26.6682 9.88075C26.7188 9.7594 26.7643 9.63806 26.8098 9.51166C26.8351 9.43581 26.8604 9.35997 26.8857 9.27908C26.9059 9.20323 26.9312 9.13245 26.9514 9.05661C26.9666 8.99593 26.9868 8.93526 27.0019 8.87964C27.73 9.98187 28.8879 10.4218 30.0457 10.7403C30.2429 10.7959 30.435 10.8465 30.6221 10.897C30.971 10.988 31.2845 11.0689 31.5676 11.1599C31.5777 11.165 31.5929 11.1701 31.608 11.1751C31.7142 11.2105 31.8153 11.2459 31.9165 11.2863C32.0226 11.3268 32.1238 11.3723 32.2198 11.4178C32.2249 11.4229 32.2299 11.4229 32.235 11.4279C32.5687 11.5948 32.8367 11.8122 33.0035 12.1054C33.0086 12.1105 33.0086 12.1105 33.0136 12.1155C33.049 12.1813 33.0743 12.2622 33.0996 12.338C33.1097 12.3734 33.1299 12.4088 33.14 12.4442C33.1552 12.4998 33.1856 12.5504 33.2159 12.5959C33.2209 12.606 33.226 12.611 33.2361 12.6161C33.2664 12.6515 33.3018 12.6818 33.3423 12.7071C33.3524 12.7122 33.3575 12.7172 33.3676 12.7223C33.4131 12.7476 33.4586 12.7627 33.5091 12.7728C33.5142 12.7728 33.5193 12.7779 33.5243 12.7779C33.5294 12.7779 33.5344 12.7829 33.5445 12.7829C33.5749 12.8689 33.59 12.9599 33.59 13.056C33.585 13.3796 33.408 13.6526 33.1704 13.7183Z" fill="white"/>
<path fill-rule="evenodd" clip-rule="evenodd" d="M16.2576 16.7621C16.2526 16.757 16.2475 16.757 16.2424 16.757C16.2374 16.752 16.2273 16.7469 16.2222 16.7368C15.838 16.4436 15.5043 16.0846 15.2262 15.6801C15.1655 15.5891 15.1048 15.493 15.0492 15.397C14.9531 15.2352 14.8621 15.0632 14.7863 14.8812C14.7762 14.8559 14.7661 14.8307 14.756 14.8054C14.6751 14.6234 14.6043 14.4413 14.5487 14.2492C14.4425 13.9054 14.3414 13.5717 14.2503 13.2532C14.1593 12.9346 14.0784 12.6262 13.9975 12.3228C13.9874 12.2824 13.9723 12.2419 13.947 12.2066C13.9419 12.2015 13.9419 12.1964 13.9369 12.1914C13.9166 12.161 13.8964 12.1307 13.8711 12.1054C13.8661 12.1004 13.856 12.0953 13.8509 12.0903C13.8256 12.07 13.8054 12.0498 13.7751 12.0346C13.765 12.0296 13.7549 12.0245 13.7447 12.0195C13.7245 12.0094 13.6992 11.9993 13.674 11.9891C13.6588 11.9841 13.6436 11.974 13.6284 11.9689C13.5627 11.9436 13.497 11.9133 13.4363 11.8678C13.4262 11.8627 13.4211 11.8577 13.411 11.8476C13.3554 11.8021 13.2998 11.7414 13.2543 11.6807C13.1532 11.5442 13.0824 11.3774 13.0571 11.1903C13.047 11.1347 13.047 11.079 13.047 11.0184C13.047 10.9375 13.0571 10.8667 13.0672 10.7908C13.0773 10.7453 13.0925 10.6998 13.1077 10.6594C13.1178 10.6341 13.1228 10.6088 13.1279 10.5835C13.138 10.5633 13.1481 10.5482 13.1582 10.5279C13.3706 10.538 13.5678 10.4066 13.6234 10.1942C13.9622 8.87964 15.393 8.51055 16.9503 8.10606C18.6593 7.66112 20.4946 7.1808 21.5665 5.5224C24.1451 6.84204 24.8024 8.8392 25.2423 10.1841C25.303 10.3661 25.3586 10.538 25.4142 10.6847C25.4749 10.8515 25.6266 10.9678 25.8035 10.988C25.8187 10.988 25.8339 10.988 25.844 10.988C25.8996 10.988 25.9502 10.9729 26.0007 10.9577C26.0007 10.9779 26.0058 10.9981 26.0058 11.0234C26.0058 11.1347 25.9906 11.2459 25.9603 11.342C25.94 11.4077 25.9097 11.4633 25.8794 11.524C25.8642 11.5543 25.8541 11.5948 25.8339 11.6251C25.7934 11.6908 25.7378 11.7515 25.6822 11.8021C25.6721 11.8122 25.662 11.8324 25.6468 11.8425C25.576 11.9032 25.5002 11.9487 25.4142 11.979C25.3889 11.9993 25.3535 12.0144 25.3181 12.0397C25.3131 12.0397 25.3131 12.0448 25.3131 12.0448C25.2827 12.065 25.2575 12.0903 25.2372 12.1155C25.2322 12.1206 25.2271 12.1307 25.2221 12.1358C25.2018 12.1611 25.1867 12.1813 25.1715 12.2116C25.1665 12.2217 25.1665 12.2318 25.1614 12.2419C25.1513 12.2622 25.1412 12.2824 25.1361 12.3026C24.9642 12.97 24.7519 13.6121 24.5041 14.2189C24.4991 14.229 24.494 14.2442 24.4889 14.2543C24.403 14.4666 24.3019 14.6739 24.1957 14.8762C24.1603 14.9419 24.1249 15.0076 24.0895 15.0683C23.9783 15.2705 23.8569 15.4728 23.7255 15.6599C23.4524 16.0492 23.139 16.393 22.7901 16.6812C20.7424 18.2536 18.9323 18.8098 16.2576 16.7621Z" fill="white"/>
<path fill-rule="evenodd" clip-rule="evenodd" d="M30.1013 6.13924C30.6322 6.26059 31.1428 6.48306 31.5979 6.78642C32.058 7.08979 32.4675 7.47405 32.7911 7.92404C33.4282 8.80886 33.7417 9.94648 33.504 11.2156C33.1602 10.8364 32.7001 10.5886 32.1793 10.4015C32.1692 10.3965 32.1591 10.3914 32.149 10.3914C32.0378 10.351 31.9265 10.3156 31.8153 10.2802C31.7698 10.265 31.7192 10.2498 31.6737 10.2347C31.6181 10.2195 31.5625 10.2043 31.5069 10.1892C31.2945 10.1285 31.0771 10.0678 30.8597 10.0122C30.5766 9.93637 30.2934 9.86559 30.0254 9.78469C28.9333 9.45604 27.8918 8.95549 27.4418 7.69652C27.4418 7.69146 27.4418 7.69146 27.4367 7.68641C27.4317 7.6763 27.4317 7.66618 27.4266 7.65607C27.3912 7.56001 27.3609 7.45888 27.3356 7.35271C27.3305 7.33248 27.3255 7.31226 27.3154 7.29203C27.2901 7.18585 27.2598 7.09484 27.2345 7.00889C27.2294 6.99878 27.2294 6.98361 27.2244 6.9735L27.2193 6.95327C27.2041 6.90777 27.194 6.86732 27.1839 6.82182C27.1789 6.74092 27.1738 6.66508 27.1637 6.58924C28.0839 6.03306 29.1255 5.91677 30.1013 6.13924Z" fill="white"/>
<path fill-rule="evenodd" clip-rule="evenodd" d="M15.6611 2.8275C16.2627 2.42807 16.9352 2.13987 17.6329 1.97808C18.9627 1.67471 20.3936 1.84157 21.6323 2.64043C21.6222 2.69605 21.6172 2.75166 21.607 2.80222C21.602 2.83256 21.5969 2.8629 21.5868 2.89323C21.5615 2.99941 21.5261 3.10053 21.4907 3.22188C21.4452 3.37356 21.3947 3.5303 21.3542 3.70221C21.3087 3.87412 21.2582 4.03591 21.2026 4.19771C21.1823 4.24827 21.1621 4.29377 21.1419 4.34433C21.1065 4.43534 21.061 4.52635 21.0205 4.61736C20.1661 6.33138 18.3762 6.79654 16.7228 7.22631C15.3021 7.5954 13.9673 7.93922 13.219 8.94032L13.1988 8.88471C13.1937 8.86954 13.1937 8.84931 13.1886 8.83415C13.1532 8.66224 13.1229 8.48528 13.1027 8.31842C13.0926 8.25269 13.0875 8.19202 13.0825 8.12629C13.0673 7.98978 13.0622 7.85326 13.0572 7.71675C13.0572 7.66113 13.0521 7.60551 13.0521 7.55495C13.0572 6.33138 13.4516 5.23421 14.0937 4.33422C14.5184 3.7376 15.0543 3.22694 15.6611 2.8275Z" fill="white"/>
<path fill-rule="evenodd" clip-rule="evenodd" d="M6.31738 7.92403C6.64097 7.47404 7.04545 7.08978 7.51062 6.78641C7.97072 6.48305 8.48139 6.26058 9.00722 6.13923C9.99821 5.91171 11.06 6.03306 11.9853 6.60945C11.965 6.72574 11.9296 6.83697 11.8892 6.95326L11.8841 6.97349C11.8791 6.9836 11.8791 6.99877 11.874 7.01394C11.8487 7.09989 11.8184 7.1909 11.7931 7.29708C11.7881 7.3173 11.783 7.33247 11.778 7.35775C11.7527 7.45887 11.7223 7.56 11.692 7.65101C11.687 7.66112 11.687 7.67629 11.6819 7.69145C11.2319 8.95548 10.1903 9.45603 9.09317 9.78468C8.82014 9.86558 8.54206 9.93636 8.25892 10.0122C8.04656 10.0678 7.82915 10.1234 7.62185 10.1841C7.56623 10.1993 7.50556 10.2195 7.44994 10.2347C7.40444 10.2498 7.35893 10.265 7.31343 10.2751C7.19714 10.3105 7.0859 10.351 6.97467 10.3914C6.96456 10.3965 6.95445 10.3965 6.94433 10.4015C6.42356 10.5937 5.96345 10.8363 5.61964 11.2156C5.36683 9.94647 5.68536 8.80885 6.31738 7.92403Z" fill="white"/>
<path fill-rule="evenodd" clip-rule="evenodd" d="M6.68658 15.5436C6.51973 15.0076 6.38322 14.5222 6.26187 14.052C6.22142 13.8902 6.10008 13.7638 5.93828 13.7234C5.70064 13.6576 5.52368 13.3846 5.52368 13.0711C5.52368 12.9751 5.53885 12.8841 5.56919 12.7981C5.57424 12.7981 5.5793 12.7931 5.58941 12.7931C5.59447 12.7931 5.59952 12.7931 5.59952 12.788C5.65008 12.7779 5.70065 12.7627 5.74109 12.7374C5.75121 12.7324 5.75626 12.7273 5.76637 12.7223C5.80682 12.697 5.84222 12.6667 5.87255 12.6313C5.87761 12.6262 5.88266 12.6161 5.89278 12.611C5.92817 12.5655 5.95345 12.515 5.96862 12.4594C5.97873 12.4189 5.99895 12.3886 6.00907 12.3532C6.03435 12.2773 6.05963 12.2015 6.09502 12.1307C6.09502 12.1257 6.10008 12.1257 6.10008 12.1206C6.26693 11.8273 6.5349 11.6099 6.8686 11.4431C6.87366 11.438 6.87872 11.438 6.88377 11.433C6.97984 11.3875 7.08096 11.342 7.18714 11.3015C7.2832 11.2661 7.38432 11.2257 7.49556 11.1903C7.51073 11.1852 7.52084 11.1802 7.53601 11.1751C7.81915 11.0841 8.13263 11.0032 8.47644 10.9122C8.66857 10.8616 8.86071 10.8111 9.05789 10.7554C10.2764 10.4217 11.5 9.95659 12.2129 8.71279C12.2382 8.8493 12.2635 8.99087 12.2938 9.12739C12.2989 9.14761 12.3039 9.17289 12.314 9.19312L12.5415 9.76951C12.5112 9.8049 12.491 9.84535 12.4657 9.8858C12.4404 9.92625 12.4151 9.96164 12.3899 10.0021C12.3595 10.0476 12.3393 10.1032 12.314 10.1487C12.2988 10.1791 12.2786 10.2144 12.2635 10.2448C12.2584 10.26 12.2533 10.2751 12.2483 10.2903C12.218 10.3661 12.1977 10.447 12.1775 10.5279C12.1674 10.5684 12.1573 10.6038 12.1472 10.6442C12.1269 10.7706 12.1118 10.897 12.1118 11.0234C12.1118 11.1245 12.1219 11.2257 12.132 11.3268C12.1371 11.3571 12.1421 11.3824 12.1472 11.4127C12.1623 11.4835 12.1724 11.5543 12.1927 11.62C12.2028 11.6504 12.2129 11.6757 12.223 11.706C12.2432 11.7717 12.2685 11.8324 12.2989 11.8931C12.309 11.9184 12.3241 11.9436 12.3393 11.974C12.3696 12.0346 12.405 12.0903 12.4404 12.1459C12.4455 12.156 12.4505 12.1712 12.4606 12.1813C12.4708 12.1964 12.4859 12.2116 12.496 12.2268C12.5264 12.2672 12.5517 12.3026 12.587 12.3431C12.6073 12.3683 12.6275 12.3886 12.6528 12.4138C12.6882 12.4492 12.7236 12.4897 12.759 12.52C12.7792 12.5352 12.7994 12.5504 12.8196 12.5655C12.8651 12.6009 12.9056 12.6363 12.9511 12.6667C12.9561 12.6717 12.9612 12.6717 12.9612 12.6717C13.0219 12.7122 13.0825 12.7476 13.1483 12.7779C13.1837 12.9043 13.2191 13.0408 13.2545 13.1723C13.2898 13.2936 13.3202 13.42 13.3556 13.5414C13.3606 13.5515 13.3606 13.5616 13.3657 13.5717C13.3859 13.6425 13.4061 13.7133 13.4264 13.7841C13.4719 13.9458 13.5224 14.1127 13.578 14.2846C13.6033 14.3655 13.6235 14.4413 13.6488 14.5273C13.6589 14.5627 13.6741 14.5981 13.6893 14.6335C13.7348 14.77 13.7853 14.9065 13.8359 15.038C13.8612 15.1037 13.8915 15.1745 13.9219 15.2402C13.9674 15.3464 14.023 15.4526 14.0735 15.5587C14.0938 15.5992 14.1089 15.6396 14.1292 15.6801C13.8106 16.4031 13.396 16.9744 12.9005 17.3789C11.3129 18.5975 9.98821 18.9918 7.96072 17.4396C7.37927 16.9896 6.92928 16.3323 6.68658 15.5436Z" fill="white"/>
<path fill-rule="evenodd" clip-rule="evenodd" d="M1.02869 28.29V24.0378C1.02869 23.0418 1.74665 22.2277 2.85394 21.9598L6.12018 21.171C7.43476 20.8525 8.15778 20.1598 8.15778 19.2143V18.6733C8.99204 19.1688 9.74034 19.3761 10.433 19.3761C11.2774 19.3761 12.0308 19.0677 12.7285 18.6329V19.1789C12.7285 19.7047 12.9611 20.1598 13.3908 20.5137L9.49259 21.4542C9.02743 21.5654 8.60272 21.7424 8.22351 21.9648C8.21845 21.9699 8.2134 21.9699 8.20834 21.9749C8.03138 22.0811 7.86453 22.2025 7.70779 22.3289C7.69262 22.339 7.67745 22.3491 7.66228 22.3643C7.51566 22.4907 7.37914 22.6221 7.25274 22.7637C7.24263 22.7789 7.22746 22.789 7.21735 22.7991C6.72691 23.3704 6.41848 24.0631 6.3477 24.8266C6.33759 24.9328 6.33253 25.044 6.33253 25.1552V29.1243C4.52245 28.9574 2.7427 28.6793 1.02869 28.29Z" fill="white"/>
<path fill-rule="evenodd" clip-rule="evenodd" d="M31.7698 30.7371C29.899 31.1669 27.9474 31.5006 25.9451 31.7281C23.8671 31.9658 21.7132 32.0871 19.5138 32.0871C17.3144 32.0871 15.1605 31.9607 13.0824 31.7281C11.0752 31.5006 9.12857 31.1669 7.25781 30.7371V29.6349V25.1603C7.25781 24.4979 7.49545 23.8912 7.9151 23.4058C8.2033 23.0721 8.58251 22.8041 9.01733 22.6019C9.23475 22.5008 9.46227 22.4148 9.71002 22.3541L13.9167 21.3379C14.0937 21.2974 14.2605 21.2469 14.4223 21.1912C14.4274 21.1912 14.4324 21.1862 14.4425 21.1862C14.5689 21.1407 14.6953 21.1002 14.8116 21.0497C14.8217 21.0446 14.8318 21.0345 14.842 21.0294C15.1757 20.8828 15.4841 20.7008 15.7318 20.4783C16.1667 20.089 16.4397 19.5834 16.4397 18.9514V18.011C17.5672 18.7239 18.5784 19.0171 19.4986 19.0171C20.6464 19.0171 21.6525 18.5722 22.5879 17.9553V18.9008C22.5879 19.5328 22.8609 20.0384 23.2958 20.4278C23.5688 20.6705 23.9075 20.8626 24.2817 21.0143C24.2969 21.0244 24.312 21.0345 24.3272 21.0396C24.403 21.0699 24.4839 21.0952 24.5648 21.1255C24.5851 21.1306 24.6053 21.1407 24.6255 21.1457C24.7822 21.1963 24.944 21.2469 25.1159 21.2873L29.3226 22.3036C29.5653 22.3643 29.7878 22.4452 30.0001 22.5412C30.4451 22.7435 30.8293 23.0165 31.1226 23.3552C31.5372 23.8406 31.7799 24.4423 31.7799 25.1097V29.6349L31.7698 30.7371Z" fill="white"/>
<path fill-rule="evenodd" clip-rule="evenodd" d="M38.0798 28.29C36.3405 28.6844 34.5304 28.9675 32.69 29.1344V25.1097C32.69 24.9985 32.6849 24.8923 32.6748 24.7811C32.604 24.0176 32.3007 23.3249 31.8052 22.7536C31.795 22.7435 31.7799 22.7333 31.7698 22.7182C31.6434 22.5766 31.5068 22.4401 31.3552 22.3137C31.3451 22.3036 31.3299 22.2935 31.3147 22.2833C31.158 22.1519 30.9911 22.0356 30.8091 21.9244C30.8041 21.9244 30.8041 21.9193 30.799 21.9193C30.4198 21.6918 29.99 21.5199 29.5249 21.4036L25.7328 20.4884C26.1524 20.1396 26.3749 19.6946 26.3749 19.1738V18.6278C27.0727 19.0626 27.826 19.371 28.6704 19.371C29.358 19.371 30.1114 19.1637 30.9456 18.6682V19.2092C30.9456 20.1547 31.6686 20.8474 32.9832 21.1659L36.2495 21.9547C37.3618 22.2227 38.0798 23.0367 38.0798 24.0328V28.29Z" fill="white"/>
<path fill-rule="evenodd" clip-rule="evenodd" d="M25.6924 4.87016C25.9351 5.29487 26.0969 5.7752 26.1929 6.28081C26.1828 6.3162 26.1828 6.35665 26.1828 6.39204C26.1879 6.63473 26.2283 6.82181 26.2789 6.99877C26.289 7.21113 26.284 7.42348 26.2688 7.63584C26.2637 7.70157 26.2536 7.7673 26.2486 7.83303C26.2334 7.98977 26.2132 8.14651 26.1828 8.29819C26.1677 8.37909 26.1525 8.45998 26.1323 8.54088C26.1019 8.68751 26.0615 8.83413 26.016 8.98076C25.9958 9.05155 25.9755 9.12739 25.9503 9.19817C25.9401 9.22851 25.925 9.25379 25.9149 9.28413C25.4194 7.88864 24.5143 5.99261 21.9913 4.69825C22.0014 4.67802 22.0014 4.6578 22.0116 4.63758C22.0925 4.42522 22.1683 4.20275 22.234 3.955C22.2391 3.93983 22.2441 3.92972 22.2492 3.91455C22.2896 3.75781 22.3301 3.6213 22.3756 3.48479C22.3807 3.47467 22.3807 3.46456 22.3857 3.45445C22.4312 3.30277 22.4818 3.15108 22.5172 2.99434C22.5172 2.98929 22.5172 2.98929 22.5172 2.98423C24.307 3.11063 25.2323 4.06118 25.6924 4.87016Z" fill="white"/>
<path fill-rule="evenodd" clip-rule="evenodd" d="M32.6547 31.7332C30.7839 32.163 28.8322 32.4967 26.83 32.7242C24.752 32.9618 22.5981 33.0832 20.3987 33.0832C18.1993 33.0832 16.0454 32.9568 13.9673 32.7242C11.9601 32.4967 10.0135 32.163 8.1427 31.7332V30.631V26.1563C8.1427 25.494 8.38034 24.8872 8.79999 24.4019C9.08819 24.0682 9.4674 23.8002 9.90222 23.5979C10.1196 23.4968 10.3472 23.4109 10.5949 23.3502L14.8016 22.3339C14.9785 22.2935 15.1454 22.2429 15.3072 22.1873C15.3122 22.1873 15.3173 22.1822 15.3274 22.1822C15.4538 22.1367 15.5802 22.0963 15.6965 22.0457C15.7066 22.0407 15.7167 22.0305 15.7268 22.0255C16.0605 21.8789 16.369 21.6968 16.6167 21.4744C17.0515 21.0851 17.3246 20.5794 17.3246 19.9474V19.007C18.4521 19.7199 19.4633 20.0132 20.3835 20.0132C21.5312 20.0132 22.5374 19.5682 23.4728 18.9514V19.8969C23.4728 20.5289 23.7458 21.0345 24.1806 21.4238C24.4537 21.6665 24.7924 21.8586 25.1666 22.0103C25.1817 22.0204 25.1969 22.0305 25.2121 22.0356C25.2879 22.0659 25.3688 22.0912 25.4497 22.1216C25.4699 22.1266 25.4902 22.1367 25.5104 22.1418C25.6671 22.1923 25.8289 22.2429 26.0008 22.2834L30.2075 23.2996C30.4502 23.3603 30.6727 23.4412 30.885 23.5373C31.33 23.7395 31.7142 24.0125 32.0075 24.3513C32.4221 24.8367 32.6648 25.4384 32.6648 26.1058V30.631L32.6547 31.7332Z" fill="#CCB8F4"/>
<path fill-rule="evenodd" clip-rule="evenodd" d="M16.3942 3.64153C16.9959 3.2421 17.6684 2.9539 18.3661 2.7921C19.6959 2.48874 21.1267 2.65559 22.3655 3.45445C22.3554 3.50501 22.3503 3.56063 22.3402 3.61625C22.3351 3.64658 22.3301 3.67692 22.32 3.70726C22.2947 3.81344 22.2593 3.91456 22.2239 4.0359C22.1784 4.18759 22.1278 4.34433 22.0874 4.51623C22.0419 4.68814 21.9913 4.84993 21.9357 5.01173C21.9155 5.06229 21.8953 5.1078 21.875 5.15836C21.8396 5.24937 21.7941 5.34038 21.7537 5.43139C20.8992 7.1454 19.1093 7.61056 17.456 8.04033C16.0352 8.40943 14.7004 8.75324 13.9521 9.75435L13.9319 9.69873C13.9268 9.68356 13.9268 9.66334 13.9218 9.64817C13.8864 9.47626 13.8561 9.2993 13.8358 9.13245C13.8257 9.06672 13.8207 9.00604 13.8156 8.94032C13.8004 8.8038 13.7954 8.66729 13.7903 8.53077C13.7903 8.47516 13.7853 8.41954 13.7853 8.36898C13.7903 7.1454 14.1847 6.04823 14.8268 5.14824C15.2515 4.54657 15.7875 4.04096 16.3942 3.64153Z" fill="#A3EFE0"/>
<path fill-rule="evenodd" clip-rule="evenodd" d="M26.4255 5.67913C26.6682 6.10384 26.83 6.58417 26.9261 7.08978C26.916 7.12517 26.916 7.16562 26.916 7.20101C26.921 7.4437 26.9615 7.63078 27.0121 7.80774C27.0222 8.0201 27.0171 8.23246 27.0019 8.44481C26.9969 8.51054 26.9868 8.57627 26.9817 8.642C26.9666 8.79874 26.9463 8.95548 26.916 9.10716C26.9008 9.18806 26.8857 9.26895 26.8654 9.34985C26.8351 9.49648 26.7946 9.64311 26.7491 9.78973C26.7289 9.86052 26.7087 9.93636 26.6834 10.0071C26.6733 10.0375 26.6581 10.0628 26.648 10.0931C26.1525 8.69762 25.2475 6.80158 22.7245 5.50722C22.7346 5.487 22.7346 5.46677 22.7447 5.44655C22.8256 5.23419 22.9015 5.01172 22.9672 4.76397C22.9722 4.74881 22.9773 4.73869 22.9823 4.72353C23.0228 4.56679 23.0632 4.43027 23.1088 4.29376C23.1138 4.28364 23.1138 4.27353 23.1189 4.26342C23.1644 4.11174 23.2149 3.96005 23.2503 3.80332C23.2503 3.79826 23.2503 3.79826 23.2503 3.7932C25.0452 3.91961 25.9654 4.87521 26.4255 5.67913Z" fill="#A3EFE0"/>
<path fill-rule="evenodd" clip-rule="evenodd" d="M1.92371 28.9018V24.6496C1.92371 23.6535 2.64167 22.8395 3.74896 22.5715L7.01519 21.7828C8.32978 21.4643 9.0528 20.7716 9.0528 19.8261V19.2851C9.88706 19.7806 10.6354 19.9879 11.328 19.9879C12.1724 19.9879 12.9258 19.6795 13.6235 19.2446V19.7907C13.6235 20.3165 13.8561 20.7716 14.2859 21.1255L10.3876 22.0659C9.92245 22.1772 9.49774 22.3541 9.11853 22.5766C9.11347 22.5817 9.10842 22.5817 9.10336 22.5867C8.9264 22.6929 8.75955 22.8142 8.60281 22.9406C8.58764 22.9508 8.57247 22.9609 8.5573 22.976C8.41068 23.1024 8.27416 23.2339 8.14776 23.3755C8.13765 23.3906 8.12248 23.4007 8.11237 23.4109C7.62193 23.9822 7.3135 24.6749 7.24272 25.4384C7.23261 25.5445 7.22755 25.6558 7.22755 25.767V29.736C5.41747 29.5692 3.63772 29.286 1.92371 28.9018Z" fill="#A3EFE0"/>
<path fill-rule="evenodd" clip-rule="evenodd" d="M6.88869 8.49032C7.21228 8.04033 7.61677 7.65607 8.08193 7.3527C8.54204 7.04934 9.0527 6.82687 9.57854 6.70552C10.5695 6.478 11.6313 6.59935 12.5566 7.17574C12.5364 7.29203 12.501 7.40326 12.4605 7.51955L12.4555 7.53978C12.4504 7.54989 12.4504 7.56506 12.4453 7.58023C12.4201 7.66618 12.3897 7.75719 12.3644 7.86337C12.3594 7.88359 12.3543 7.89876 12.3493 7.92404C12.324 8.02516 12.2937 8.12629 12.2633 8.2173C12.2583 8.22741 12.2583 8.24258 12.2532 8.25774C11.8032 9.52177 10.7617 10.0223 9.66449 10.351C9.39146 10.4319 9.11338 10.5027 8.83023 10.5785C8.61788 10.6341 8.40047 10.6897 8.19317 10.7504C8.13755 10.7656 8.07688 10.7858 8.02126 10.801C7.97575 10.8161 7.93025 10.8313 7.88474 10.8414C7.76845 10.8768 7.65722 10.9173 7.54599 10.9577C7.53587 10.9628 7.52576 10.9628 7.51565 10.9678C6.99487 11.1599 6.53477 11.4026 6.19095 11.7818C5.93815 10.5128 6.25162 9.37009 6.88869 8.49032Z" fill="#CCB8F4"/>
<path fill-rule="evenodd" clip-rule="evenodd" d="M37.5135 28.8967C35.7742 29.2911 33.9641 29.5742 32.1237 29.7411V25.7164C32.1237 25.6052 32.1186 25.499 32.1085 25.3878C32.0428 24.6243 31.7344 23.9316 31.2389 23.3603C31.2288 23.3502 31.2136 23.3401 31.2035 23.3249C31.0771 23.1833 30.9406 23.0468 30.7889 22.9204C30.7788 22.9103 30.7636 22.9002 30.7484 22.8901C30.5917 22.7586 30.4248 22.6423 30.2428 22.5311C30.2378 22.5311 30.2378 22.526 30.2327 22.526C29.8535 22.2985 29.4237 22.1266 28.9586 22.0103L25.1665 21.0952C25.5862 20.7463 25.8086 20.3014 25.8086 19.7806V19.2345C26.5064 19.6694 27.2597 19.9778 28.1041 19.9778C28.7917 19.9778 29.5451 19.7705 30.3793 19.275V19.816C30.3793 20.7615 31.1024 21.4542 32.4169 21.7727L35.6832 22.5614C36.7955 22.8294 37.5135 23.6434 37.5135 24.6395V28.8967Z" fill="#A3EFE0"/>
<path fill-rule="evenodd" clip-rule="evenodd" d="M29.6311 6.70552C30.162 6.82687 30.6726 7.04934 31.1277 7.3527C31.5878 7.65607 31.9973 8.04033 32.3209 8.49032C32.958 9.37514 33.2715 10.5128 33.0338 11.7818C32.69 11.4026 32.2299 11.1549 31.7091 10.9678C31.699 10.9628 31.6889 10.9577 31.6788 10.9577C31.5676 10.9173 31.4563 10.8819 31.3451 10.8465C31.2996 10.8313 31.249 10.8161 31.2035 10.801C31.1479 10.7858 31.0923 10.7706 31.0367 10.7555C30.8243 10.6948 30.6069 10.6341 30.3895 10.5785C30.1063 10.5027 29.8232 10.4319 29.5552 10.351C28.4631 10.0223 27.4216 9.52177 26.9716 8.2628C26.9716 8.25774 26.9716 8.25774 26.9665 8.25269C26.9615 8.24258 26.9615 8.23246 26.9564 8.22235C26.921 8.12629 26.8907 8.02516 26.8654 7.91899C26.8603 7.89876 26.8553 7.87854 26.8452 7.85831C26.8199 7.75213 26.7895 7.66112 26.7643 7.57517C26.7592 7.56506 26.7592 7.54989 26.7542 7.53978L26.7491 7.51955C26.7339 7.47405 26.7238 7.4336 26.7137 7.3881C26.7086 7.3072 26.7036 7.23136 26.6935 7.15552C27.6086 6.59429 28.6552 6.48305 29.6311 6.70552Z" fill="#CCB8F4"/>
<path fill-rule="evenodd" clip-rule="evenodd" d="M36.4669 21.0648L33.2007 20.2761C32.7052 20.1547 31.8709 19.8615 31.8709 19.2143V18.0261C32.5333 17.47 33.0288 16.7115 33.3068 15.8116C33.4535 15.3514 33.5748 14.9166 33.6861 14.497C34.1816 14.2391 34.5102 13.6829 34.5102 13.061C34.5102 12.697 34.3939 12.3481 34.1866 12.07L34.3484 11.6656C34.3585 11.6403 34.3686 11.6099 34.3737 11.5847C34.7377 9.9667 34.3535 8.50549 33.5445 7.38304C33.1552 6.84204 32.6647 6.37687 32.1136 6.01284C31.5625 5.6488 30.9507 5.38588 30.3136 5.23925C29.2215 4.98645 28.0536 5.09263 26.9968 5.63363C26.8805 5.1988 26.7137 4.78926 26.4963 4.41005C25.6772 2.97918 24.2514 2.16515 22.4261 2.07919C22.416 2.06908 22.4059 2.05391 22.3907 2.04886C20.8688 0.951684 19.084 0.703935 17.4307 1.08314C16.6268 1.26516 15.8481 1.60392 15.1555 2.06402C14.4628 2.52413 13.8459 3.10558 13.3504 3.79321C12.9207 4.38477 12.5971 5.05723 12.3847 5.78531C11.2623 5.11791 9.98813 4.97634 8.80501 5.24937C8.16794 5.39599 7.55615 5.65891 7.00504 6.02295C6.45392 6.38699 5.96854 6.84709 5.57416 7.39315C4.76518 8.5156 4.38092 9.97682 4.74496 11.5948C4.75002 11.62 4.76013 11.6504 4.77024 11.6757L4.92698 12.0802C4.72474 12.3582 4.60339 12.7071 4.60339 13.0711C4.60339 13.693 4.93204 14.2492 5.42753 14.5071C5.53877 14.9217 5.66011 15.3514 5.80674 15.8217C6.08483 16.7166 6.58032 17.4801 7.24267 18.0362V19.2244C7.24267 19.8665 6.40842 20.1649 5.91292 20.2862L2.64668 21.0749C1.1248 21.4289 0.108521 22.6272 0.108521 24.0378V28.654C0.108521 28.8664 0.255147 29.0535 0.462447 29.104C2.35343 29.549 4.3253 29.8624 6.33257 30.0445V31.0961C6.33257 31.3085 6.47414 31.4956 6.6865 31.5461C8.69883 32.0214 10.8022 32.3905 12.9763 32.6332C15.0998 32.8759 17.2841 33.0023 19.5088 33.0023C21.7385 33.0023 23.9177 32.8759 26.0412 32.6332C28.2103 32.3854 30.3035 32.0214 32.3108 31.5461C32.5282 31.5057 32.69 31.3186 32.69 31.0911V30.0445C34.7276 29.8624 36.7298 29.549 38.6461 29.0939C38.8534 29.0434 39 28.8613 39 28.6439V24.0277C39 22.6272 37.9837 21.4289 36.4669 21.0648ZM33.1703 13.7183C33.0085 13.7638 32.8872 13.8902 32.8467 14.047C32.7254 14.5222 32.5889 15.0076 32.422 15.5385C32.1793 16.3273 31.7293 16.9846 31.1327 17.4346C31.1327 17.4346 31.1327 17.4346 31.1277 17.4346C29.1002 18.9868 27.7755 18.5924 26.1879 17.3739C25.657 16.9391 25.2221 16.3172 24.8935 15.5183C24.9087 15.488 24.9238 15.4576 24.9441 15.4222C24.9592 15.397 24.9693 15.3666 24.9845 15.3413C25.116 15.0885 25.2424 14.8307 25.3536 14.5576C25.48 14.2492 25.5963 13.9307 25.7025 13.6071C25.7075 13.5919 25.7126 13.5768 25.7176 13.5616C25.7783 13.3846 25.8289 13.1925 25.8845 13.0004C25.9098 12.9144 25.9401 12.8285 25.9654 12.7425C26.0918 12.6717 26.2081 12.5858 26.3143 12.4846C26.3193 12.4796 26.3244 12.4796 26.3244 12.4745C26.4255 12.3785 26.5165 12.2672 26.5974 12.1459C26.6025 12.1408 26.6075 12.1358 26.6075 12.1307C26.6126 12.1257 26.6176 12.1155 26.6176 12.1105C26.653 12.0498 26.6884 11.9841 26.7238 11.9184C26.7339 11.8981 26.744 11.883 26.7491 11.8627C26.7794 11.797 26.8047 11.7313 26.8249 11.6605C26.83 11.6403 26.8401 11.62 26.8452 11.5948C26.8654 11.524 26.8805 11.4532 26.8907 11.3824C26.8957 11.3571 26.9008 11.3369 26.9008 11.3116C26.9159 11.2156 26.921 11.1195 26.921 11.0184C26.921 10.897 26.9058 10.7807 26.8856 10.6644C26.8805 10.6341 26.8755 10.6038 26.8704 10.5785C26.8502 10.4824 26.8249 10.3864 26.7895 10.2953C26.7845 10.2852 26.7845 10.2701 26.7794 10.2549C26.7794 10.2498 26.7744 10.2448 26.7693 10.2397C26.7491 10.1841 26.7188 10.1285 26.6935 10.0779C26.6783 10.0527 26.6682 10.0223 26.653 9.99704C26.648 9.98693 26.6429 9.97176 26.6379 9.96165C26.648 9.93637 26.6581 9.91109 26.6682 9.88075C26.7188 9.7594 26.7643 9.63806 26.8098 9.51165C26.835 9.43581 26.8603 9.35997 26.8856 9.27907C26.9058 9.20323 26.9311 9.13245 26.9513 9.05661C26.9665 8.99593 26.9867 8.93526 27.0019 8.87964C27.73 9.98187 28.8878 10.4218 30.0457 10.7403C30.2429 10.7959 30.435 10.8465 30.6221 10.897C30.9709 10.988 31.2844 11.0689 31.5675 11.1599C31.5777 11.165 31.5928 11.1701 31.608 11.1751C31.7142 11.2105 31.8153 11.2459 31.9164 11.2863C32.0226 11.3268 32.1237 11.3723 32.2198 11.4178C32.2248 11.4229 32.2299 11.4229 32.235 11.4279C32.5687 11.5948 32.8366 11.8122 33.0035 12.1054C33.0085 12.1105 33.0085 12.1105 33.0136 12.1155C33.049 12.1813 33.0743 12.2622 33.0995 12.338C33.1097 12.3734 33.1299 12.4088 33.14 12.4442C33.1552 12.4998 33.1855 12.5504 33.2158 12.5959C33.2209 12.606 33.2259 12.611 33.2361 12.6161C33.2664 12.6515 33.3018 12.6818 33.3422 12.7071C33.3524 12.7122 33.3574 12.7172 33.3675 12.7223C33.413 12.7476 33.4585 12.7627 33.5091 12.7728C33.5141 12.7728 33.5192 12.7779 33.5243 12.7779C33.5293 12.7779 33.5344 12.7829 33.5445 12.7829C33.5748 12.8689 33.59 12.9599 33.59 13.056C33.5849 13.3796 33.408 13.6526 33.1703 13.7183ZM23.9076 19.7452C23.6598 19.5227 23.5081 19.2446 23.5081 18.9008V17.2778C23.7963 17.025 24.0542 16.7318 24.2918 16.4183C24.6104 17.0402 24.9997 17.561 25.4547 17.9655V19.1789C25.4547 19.6694 24.9744 19.9576 24.5143 20.1244C24.2817 20.0182 24.0744 19.8918 23.9076 19.7452ZM16.2577 16.7621C16.2526 16.757 16.2476 16.757 16.2425 16.757C16.2375 16.752 16.2274 16.7469 16.2223 16.7368C15.838 16.4436 15.5043 16.0846 15.2262 15.6801C15.1656 15.5891 15.1049 15.493 15.0493 15.397C14.9532 15.2352 14.8622 15.0632 14.7864 14.8812C14.7763 14.8559 14.7661 14.8307 14.756 14.8054C14.6751 14.6234 14.6043 14.4413 14.5487 14.2492C14.4426 13.9054 14.3414 13.5717 14.2504 13.2532C14.1594 12.9346 14.0785 12.6262 13.9976 12.3228C13.9875 12.2824 13.9723 12.2419 13.9471 12.2066C13.942 12.2015 13.942 12.1964 13.9369 12.1914C13.9167 12.161 13.8965 12.1307 13.8712 12.1054C13.8662 12.1004 13.856 12.0953 13.851 12.0903C13.8257 12.07 13.8055 12.0498 13.7751 12.0346C13.765 12.0296 13.7549 12.0245 13.7448 12.0195C13.7246 12.0094 13.6993 11.9993 13.674 11.9891C13.6589 11.9841 13.6437 11.974 13.6285 11.9689C13.5628 11.9436 13.4971 11.9133 13.4364 11.8678C13.4263 11.8627 13.4212 11.8577 13.4111 11.8476C13.3555 11.8021 13.2999 11.7414 13.2544 11.6807C13.1532 11.5442 13.0825 11.3774 13.0572 11.1903C13.0471 11.1347 13.0471 11.079 13.0471 11.0184C13.0471 10.9375 13.0572 10.8667 13.0673 10.7908C13.0774 10.7453 13.0926 10.6998 13.1077 10.6594C13.1179 10.6341 13.1229 10.6088 13.128 10.5835C13.1381 10.5633 13.1482 10.5482 13.1583 10.5279C13.3707 10.538 13.5678 10.4066 13.6235 10.1942C13.9622 8.87964 15.3931 8.51055 16.9504 8.10606C18.6593 7.66112 20.4947 7.18079 21.5666 5.52239C24.1452 6.84204 24.8025 8.83919 25.2424 10.1841C25.303 10.3661 25.3587 10.538 25.4143 10.6847C25.475 10.8515 25.6266 10.9678 25.8036 10.988C25.8188 10.988 25.8339 10.988 25.844 10.988C25.8997 10.988 25.9502 10.9729 26.0008 10.9577C26.0008 10.9779 26.0058 10.9981 26.0058 11.0234C26.0058 11.1347 25.9907 11.2459 25.9603 11.342C25.9401 11.4077 25.9098 11.4633 25.8794 11.524C25.8643 11.5543 25.8542 11.5948 25.8339 11.6251C25.7935 11.6908 25.7379 11.7515 25.6823 11.8021C25.6721 11.8122 25.662 11.8324 25.6469 11.8425C25.5761 11.9032 25.5002 11.9487 25.4143 11.979C25.389 11.9993 25.3536 12.0144 25.3182 12.0397C25.3132 12.0397 25.3132 12.0448 25.3132 12.0448C25.2828 12.065 25.2575 12.0903 25.2373 12.1155C25.2323 12.1206 25.2272 12.1307 25.2221 12.1358C25.2019 12.161 25.1868 12.1813 25.1716 12.2116C25.1665 12.2217 25.1665 12.2318 25.1615 12.2419C25.1514 12.2622 25.1413 12.2824 25.1362 12.3026C24.9643 12.97 24.7519 13.6121 24.5042 14.2189C24.4991 14.229 24.4941 14.2442 24.489 14.2543C24.4031 14.4666 24.3019 14.6739 24.1958 14.8762C24.1604 14.9419 24.125 15.0076 24.0896 15.0683C23.9783 15.2705 23.857 15.4728 23.7255 15.6599C23.4525 16.0492 23.139 16.393 22.7902 16.6812C20.7424 18.2536 18.9324 18.8098 16.2577 16.7621ZM14.5942 20.1244C14.1341 19.9576 13.6538 19.6694 13.6538 19.1789V17.9655C14.0735 17.5913 14.4375 17.116 14.7459 16.5447C14.9785 16.8329 15.2313 17.111 15.5195 17.3486V18.9463C15.5195 19.2901 15.3678 19.5682 15.1201 19.7907C14.9734 19.9222 14.7914 20.0283 14.5942 20.1244ZM30.1013 6.13924C30.6322 6.26058 31.1428 6.48305 31.5979 6.78642C32.058 7.08978 32.4675 7.47405 32.7911 7.92404C33.4282 8.80886 33.7417 9.94648 33.504 11.2156C33.1602 10.8364 32.7001 10.5886 32.1793 10.4015C32.1692 10.3965 32.1591 10.3914 32.149 10.3914C32.0378 10.351 31.9265 10.3156 31.8153 10.2802C31.7698 10.265 31.7192 10.2498 31.6737 10.2347C31.6181 10.2195 31.5625 10.2043 31.5069 10.1892C31.2945 10.1285 31.0771 10.0678 30.8597 10.0122C30.5766 9.93637 30.2934 9.86558 30.0254 9.78468C28.9333 9.45604 27.8918 8.95548 27.4418 7.69652C27.4418 7.69146 27.4418 7.69146 27.4367 7.6864C27.4317 7.67629 27.4317 7.66618 27.4266 7.65607C27.3912 7.56 27.3609 7.45888 27.3356 7.3527C27.3305 7.33248 27.3255 7.31225 27.3154 7.29203C27.2901 7.18585 27.2598 7.09484 27.2345 7.00889C27.2294 6.99878 27.2294 6.98361 27.2244 6.97349L27.2193 6.95327C27.2041 6.90776 27.194 6.86732 27.1839 6.82181C27.1789 6.74091 27.1738 6.66507 27.1637 6.58923C28.0839 6.03306 29.1255 5.91677 30.1013 6.13924ZM25.6924 4.87016C25.9351 5.29487 26.0969 5.7752 26.1929 6.28081C26.1828 6.3162 26.1828 6.35665 26.1828 6.39204C26.1879 6.63474 26.2283 6.82181 26.2789 6.99877C26.289 7.21113 26.2839 7.42349 26.2688 7.63584C26.2637 7.70157 26.2536 7.7673 26.2485 7.83303C26.2334 7.98977 26.2131 8.14651 26.1828 8.29819C26.1676 8.37909 26.1525 8.45999 26.1322 8.54088C26.1019 8.68751 26.0615 8.83414 26.016 8.98076C25.9957 9.05155 25.9755 9.12739 25.9502 9.19818C25.9401 9.22851 25.9249 9.25379 25.9148 9.28413C25.4193 7.88865 24.5143 5.99261 21.9913 4.69825C22.0014 4.67803 22.0014 4.6578 22.0115 4.63758C22.0924 4.42522 22.1683 4.20275 22.234 3.95501C22.239 3.93984 22.2441 3.92972 22.2492 3.91456C22.2896 3.75782 22.3301 3.6213 22.3756 3.48479C22.3806 3.47468 22.3806 3.46456 22.3857 3.45445C22.4312 3.30277 22.4817 3.15109 22.5171 2.99435C22.5171 2.98929 22.5171 2.98929 22.5171 2.98423C24.307 3.11064 25.2323 4.06118 25.6924 4.87016ZM15.6611 2.8275C16.2627 2.42806 16.9352 2.13987 17.6329 1.97807C18.9627 1.67471 20.3936 1.84156 21.6323 2.64042C21.6222 2.69604 21.6172 2.75165 21.607 2.80222C21.602 2.83255 21.5969 2.86289 21.5868 2.89322C21.5615 2.9994 21.5261 3.10052 21.4907 3.22187C21.4452 3.37355 21.3947 3.53029 21.3542 3.7022C21.3087 3.87411 21.2582 4.0359 21.2026 4.1977C21.1823 4.24826 21.1621 4.29376 21.1419 4.34432C21.1065 4.43533 21.061 4.52634 21.0205 4.61735C20.1661 6.33137 18.3762 6.79653 16.7229 7.2263C15.3021 7.59539 13.9673 7.93921 13.219 8.94032L13.1988 8.8847C13.1937 8.86953 13.1937 8.84931 13.1886 8.83414C13.1532 8.66223 13.1229 8.48527 13.1027 8.31842C13.0926 8.25269 13.0875 8.19201 13.0825 8.12628C13.0673 7.98977 13.0622 7.85326 13.0572 7.71674C13.0572 7.66112 13.0521 7.60551 13.0521 7.55495C13.0572 6.33137 13.4516 5.2342 14.0937 4.33421C14.5184 3.73759 15.0543 3.22693 15.6611 2.8275ZM6.31741 7.92404C6.641 7.47405 7.04548 7.08978 7.51064 6.78642C7.97075 6.48305 8.48141 6.26058 9.00725 6.13924C9.99824 5.91171 11.06 6.03306 11.9853 6.60946C11.9651 6.72575 11.9297 6.83698 11.8892 6.95327L11.8842 6.97349C11.8791 6.98361 11.8791 6.99878 11.8741 7.01394C11.8488 7.0999 11.8184 7.19091 11.7932 7.29708C11.7881 7.31731 11.783 7.33248 11.778 7.35776C11.7527 7.45888 11.7224 7.56 11.692 7.65101C11.687 7.66112 11.687 7.67629 11.6819 7.69146C11.2319 8.95548 10.1904 9.45604 9.0932 9.78468C8.82017 9.86558 8.54209 9.93637 8.25895 10.0122C8.04659 10.0678 7.82918 10.1234 7.62188 10.1841C7.56626 10.1993 7.50559 10.2195 7.44997 10.2347C7.40447 10.2498 7.35896 10.265 7.31346 10.2751C7.19717 10.3105 7.08593 10.351 6.9747 10.3914C6.96459 10.3965 6.95447 10.3965 6.94436 10.4015C6.42358 10.5937 5.96348 10.8364 5.61966 11.2156C5.36686 9.94648 5.68539 8.80886 6.31741 7.92404ZM6.6865 15.5436C6.51965 15.0076 6.38314 14.5222 6.26179 14.052C6.22134 13.8902 6.09999 13.7638 5.9382 13.7234C5.70056 13.6577 5.5236 13.3846 5.5236 13.0711C5.5236 12.9751 5.53877 12.8841 5.5691 12.7981C5.57416 12.7981 5.57922 12.7931 5.58933 12.7931C5.59438 12.7931 5.59944 12.7931 5.59944 12.788C5.65 12.7779 5.70056 12.7627 5.74101 12.7374C5.75112 12.7324 5.75618 12.7273 5.76629 12.7223C5.80674 12.697 5.84213 12.6667 5.87247 12.6313C5.87753 12.6262 5.88258 12.6161 5.89269 12.611C5.92809 12.5655 5.95337 12.515 5.96854 12.4594C5.97865 12.4189 5.99887 12.3886 6.00898 12.3532C6.03426 12.2773 6.05955 12.2015 6.09494 12.1307C6.09494 12.1257 6.09999 12.1257 6.09999 12.1206C6.26685 11.8273 6.53482 11.6099 6.86852 11.4431C6.87358 11.438 6.87863 11.438 6.88369 11.433C6.97975 11.3875 7.08088 11.342 7.18705 11.3015C7.28312 11.2661 7.38424 11.2257 7.49548 11.1903C7.51064 11.1852 7.52076 11.1802 7.53592 11.1751C7.81907 11.0841 8.13254 11.0032 8.47636 10.9122C8.66849 10.8616 8.86062 10.8111 9.05781 10.7555C10.2763 10.4218 11.4999 9.95659 12.2128 8.71279C12.2381 8.84931 12.2634 8.99088 12.2937 9.12739C12.2988 9.14762 12.3038 9.1729 12.3139 9.19312L12.5415 9.76952C12.5111 9.80491 12.4909 9.84536 12.4656 9.88581C12.4403 9.92625 12.4151 9.96165 12.3898 10.0021C12.3594 10.0476 12.3392 10.1032 12.3139 10.1487C12.2988 10.1791 12.2785 10.2145 12.2634 10.2448C12.2583 10.26 12.2533 10.2751 12.2482 10.2903C12.2179 10.3661 12.1976 10.447 12.1774 10.5279C12.1673 10.5684 12.1572 10.6038 12.1471 10.6442C12.1269 10.7706 12.1117 10.897 12.1117 11.0234C12.1117 11.1245 12.1218 11.2257 12.1319 11.3268C12.137 11.3571 12.142 11.3824 12.1471 11.4127C12.1623 11.4835 12.1724 11.5543 12.1926 11.62C12.2027 11.6504 12.2128 11.6757 12.2229 11.706C12.2431 11.7717 12.2684 11.8324 12.2988 11.8931C12.3089 11.9184 12.324 11.9436 12.3392 11.974C12.3696 12.0346 12.4049 12.0903 12.4403 12.1459C12.4454 12.156 12.4504 12.1712 12.4606 12.1813C12.4707 12.1964 12.4858 12.2116 12.496 12.2268C12.5263 12.2672 12.5516 12.3026 12.587 12.3431C12.6072 12.3683 12.6274 12.3886 12.6527 12.4139C12.6881 12.4492 12.7235 12.4897 12.7589 12.52C12.7791 12.5352 12.7993 12.5504 12.8195 12.5655C12.865 12.6009 12.9055 12.6363 12.951 12.6667C12.9561 12.6717 12.9611 12.6717 12.9611 12.6717C13.0218 12.7122 13.0825 12.7476 13.1482 12.7779C13.1836 12.9043 13.219 13.0408 13.2544 13.1723C13.2898 13.2936 13.3201 13.42 13.3555 13.5414C13.3605 13.5515 13.3605 13.5616 13.3656 13.5717C13.3858 13.6425 13.4061 13.7133 13.4263 13.7841C13.4718 13.9459 13.5223 14.1127 13.578 14.2846C13.6032 14.3655 13.6235 14.4413 13.6487 14.5273C13.6589 14.5627 13.674 14.5981 13.6892 14.6335C13.7347 14.77 13.7853 14.9065 13.8358 15.038C13.8611 15.1037 13.8914 15.1745 13.9218 15.2402C13.9673 15.3464 14.0229 15.4526 14.0735 15.5587C14.0937 15.5992 14.1088 15.6396 14.1291 15.6801C13.8105 16.4031 13.3959 16.9745 12.9004 17.3789C11.3128 18.5975 9.98813 18.9918 7.96064 17.4396C7.37919 16.9896 6.92919 16.3323 6.6865 15.5436ZM1.02873 28.29V24.0378C1.02873 23.0418 1.7467 22.2277 2.85398 21.9598L6.12022 21.171C7.4348 20.8525 8.15782 20.1598 8.15782 19.2143V18.6733C8.99208 19.1688 9.74038 19.3761 10.4331 19.3761C11.2774 19.3761 12.0308 19.0677 12.7285 18.6329V19.1789C12.7285 19.7047 12.9611 20.1598 13.3909 20.5137L9.49263 21.4542C9.02747 21.5654 8.60276 21.7424 8.22355 21.9648C8.2185 21.9699 8.21344 21.9699 8.20839 21.9749C8.03142 22.0811 7.86457 22.2025 7.70783 22.3289C7.69266 22.339 7.6775 22.3491 7.66233 22.3643C7.5157 22.4907 7.37919 22.6221 7.25278 22.7637C7.24267 22.7789 7.2275 22.789 7.21739 22.7991C6.72695 23.3704 6.41853 24.0631 6.34774 24.8266C6.33763 24.9328 6.33257 25.044 6.33257 25.1552V29.1243C4.52249 28.9574 2.74275 28.6793 1.02873 28.29ZM31.7698 30.7371C29.899 31.1669 27.9474 31.5006 25.9452 31.7281C23.8671 31.9658 21.7132 32.0871 19.5138 32.0871C17.3144 32.0871 15.1605 31.9607 13.0825 31.7281C11.0752 31.5006 9.1286 31.1669 7.25784 30.7371V29.6349V25.1603C7.25784 24.4979 7.49548 23.8912 7.91513 23.4058C8.20333 23.0721 8.58254 22.8041 9.01736 22.6019C9.23477 22.5008 9.4623 22.4148 9.71005 22.3541L13.9167 21.3379C14.0937 21.2974 14.2605 21.2469 14.4223 21.1912C14.4274 21.1912 14.4324 21.1862 14.4426 21.1862C14.569 21.1407 14.6954 21.1002 14.8116 21.0497C14.8218 21.0446 14.8319 21.0345 14.842 21.0294C15.1757 20.8828 15.4841 20.7008 15.7319 20.4783C16.1667 20.089 16.4397 19.5834 16.4397 18.9514V18.011C17.5672 18.7239 18.5784 19.0171 19.4986 19.0171C20.6464 19.0171 21.6525 18.5722 22.5879 17.9553V18.9008C22.5879 19.5328 22.861 20.0384 23.2958 20.4278C23.5688 20.6705 23.9076 20.8626 24.2817 21.0143C24.2969 21.0244 24.3121 21.0345 24.3272 21.0396C24.4031 21.0699 24.484 21.0952 24.5649 21.1255C24.5851 21.1306 24.6053 21.1407 24.6255 21.1457C24.7823 21.1963 24.9441 21.2469 25.116 21.2873L29.3226 22.3036C29.5653 22.3643 29.7878 22.4452 30.0002 22.5412C30.4451 22.7435 30.8294 23.0165 31.1226 23.3552C31.5372 23.8406 31.7799 24.4423 31.7799 25.1097V29.6349L31.7698 30.7371ZM38.0798 28.29C36.3405 28.6844 34.5304 28.9675 32.69 29.1344V25.1097C32.69 24.9985 32.6849 24.8923 32.6748 24.7811C32.604 24.0176 32.3007 23.3249 31.8052 22.7536C31.7951 22.7435 31.7799 22.7333 31.7698 22.7182C31.6434 22.5766 31.5069 22.4401 31.3552 22.3137C31.3451 22.3036 31.3299 22.2935 31.3147 22.2834C31.158 22.1519 30.9912 22.0356 30.8091 21.9244C30.8041 21.9244 30.8041 21.9193 30.799 21.9193C30.4198 21.6918 29.99 21.5199 29.5249 21.4036L25.7328 20.4884C26.1525 20.1396 26.3749 19.6946 26.3749 19.1739V18.6278C27.0727 19.0626 27.826 19.371 28.6704 19.371C29.358 19.371 30.1114 19.1637 30.9457 18.6682V19.2092C30.9457 20.1547 31.6687 20.8474 32.9833 21.166L36.2495 21.9547C37.3618 22.2227 38.0798 23.0367 38.0798 24.0328V28.29Z" fill="#464860"/>
</svg>
