<svg width="46" height="47" viewBox="0 0 46 47" fill="none" xmlns="http://www.w3.org/2000/svg">
<path d="M17.1942 27.4086H16.7779H14.9447C14.7574 27.4086 14.5767 27.488 14.4502 27.6276L8.22866 34.4585L7.50519 35.2528V34.1768V28.0816C7.50519 27.7112 7.20631 27.4103 6.83833 27.4086C6.80086 27.4094 6.7634 27.4094 6.72594 27.4094C5.31146 27.4094 3.97525 26.8618 2.96206 25.8677C1.94803 24.8719 1.37275 23.54 1.34195 22.1153C1.34112 22.0768 1.34112 22.0384 1.34112 21.9999V7.55972C1.32613 6.10157 1.87727 4.72536 2.89213 3.68276C3.90781 2.64015 5.26817 2.05739 6.72011 2.0415C6.74009 2.0415 6.75924 2.0415 6.77922 2.0415C6.79837 2.0415 6.81668 2.0415 6.83583 2.0415H29.5415H29.544H29.5465C32.5411 2.07746 34.9546 4.55396 34.9263 7.56139V17.2166V17.6346H34.51H22.6248C19.606 17.6673 17.1701 20.1596 17.1942 23.1922V26.9905V27.4086Z" fill="white"/>
<path d="M40.5143 38.7034C40.4969 38.7034 40.4794 38.7034 40.4619 38.7034C40.0931 38.705 39.7942 39.006 39.7942 39.3764V43.5335V44.6037L39.0716 43.8169L34.5767 38.9207C34.4502 38.7828 34.2704 38.7042 34.083 38.7034H22.6224H22.6199H22.6174C21.5326 38.6891 20.5136 38.2569 19.7468 37.4868C18.9801 36.7168 18.5497 35.6926 18.5355 34.604V34.6015V34.599V23.1988C18.5064 20.9096 20.3371 19.0184 22.6166 18.9824H22.6199H22.6232H40.4636C40.4777 18.9824 40.4919 18.9824 40.506 18.9824C41.6066 18.9824 42.644 19.4105 43.4274 20.1881C44.2108 20.9665 44.6495 22.0049 44.6612 23.1111C44.6612 23.1403 44.6612 23.1696 44.6612 23.198V34.5973V34.6007V34.604C44.6437 35.7043 44.2041 36.7352 43.4232 37.5077C42.6406 38.2786 41.6083 38.7034 40.5143 38.7034Z" fill="white"/>
<path d="M18.5234 28.3944H18.1072H16.2748C16.0875 28.3944 15.9068 28.4739 15.7802 28.6135L9.55873 35.4444L8.83526 36.2387V35.1626V29.0675C8.83526 28.6971 8.53639 28.3961 8.16841 28.3944C8.13094 28.3953 8.09348 28.3953 8.05601 28.3953C6.64154 28.3953 5.30533 27.8476 4.29214 26.8535C3.27811 25.8585 2.70283 24.5258 2.67203 23.1019C2.6712 23.0635 2.6712 23.025 2.6712 22.9866V8.54556C2.65621 7.08741 3.20735 5.7112 4.2222 4.6686C5.23789 3.62599 6.59825 3.04323 8.05019 3.02734C8.07017 3.02734 8.08932 3.02734 8.1093 3.02734C8.12844 3.02734 8.14676 3.02734 8.16591 3.02734H30.8716H30.8741H30.8766C33.8712 3.0633 36.2847 5.5398 36.2564 8.54723V18.2024V18.6205H35.8401H23.954C20.9353 18.6531 18.4993 21.1455 18.5234 24.178V27.9764V28.3944Z" fill="#CCB8F4"/>
<path d="M41.8435 39.6891C41.826 39.6891 41.8085 39.6891 41.791 39.6891C41.4222 39.6907 41.1233 39.9917 41.1233 40.3621V44.5192V45.5894L40.4007 44.8026L35.9058 39.9064C35.7793 39.7685 35.5995 39.6899 35.4121 39.6891H23.9515H23.949H23.9465C22.8617 39.6748 21.8427 39.2426 21.0759 38.4725C20.3092 37.7025 19.8788 36.6783 19.8646 35.5897V35.5872V35.5847V24.1837C19.8355 21.8945 21.6662 20.0032 23.9457 19.9673H23.949H23.9523H41.7927C41.8068 19.9673 41.821 19.9673 41.8351 19.9673C42.9357 19.9673 43.9731 20.3954 44.7565 21.1729C45.5399 21.9513 45.9786 22.9898 45.9903 24.0959C45.9903 24.1252 45.9903 24.1544 45.9903 24.1829V35.5822V35.5855V35.5889C45.9728 36.6892 45.5332 37.7201 44.7523 38.4926C43.9706 39.2643 42.9374 39.6891 41.8435 39.6891Z" fill="#A3EFE0"/>
<path d="M46 34.5939V23.1954C45.9967 20.1337 43.5124 17.6388 40.4637 17.6346H36.684H36.2677V17.2165V7.55797C36.2794 5.73779 35.5858 4.02297 34.3154 2.72786C33.045 1.43275 31.3483 0.710363 29.5383 0.695313H6.83436H6.83186H6.82936C6.80439 0.695313 6.77941 0.695313 6.75443 0.695313C4.96615 0.694477 3.27944 1.39011 2.0065 2.65428C0.731896 3.91929 0.020081 5.60653 0.000100217 7.4058C0.000100217 7.45513 0.000100217 7.50446 0.000100217 7.55295V7.55546V7.55797V22.0015C-0.0182155 25.3718 2.47605 28.2429 5.80202 28.6827L6.16417 28.7304V29.0974V36.9876C6.16417 37.2677 6.33234 37.5144 6.59209 37.6155C6.66868 37.6448 6.7511 37.6607 6.83519 37.6607C7.02168 37.6607 7.20234 37.5813 7.32888 37.4416L15.1156 28.8917L15.2396 28.7555H15.4228H16.7773H17.1936V29.1735V34.5981C17.1969 37.6005 19.632 40.0461 22.6217 40.0502H33.6069H33.7892L33.9133 40.1849L39.97 46.7825C40.0982 46.9229 40.2738 46.9999 40.4637 46.9999C40.6318 46.9999 40.7933 46.9363 40.9174 46.8218C41.0548 46.6947 41.1338 46.5141 41.1338 46.3268V40.3705V40.0193L41.4777 39.9583C44.0768 39.4993 45.9784 37.2435 46 34.5939ZM17.1936 27.4085H16.7773H14.9441C14.7567 27.4085 14.5761 27.4879 14.4495 27.6276L8.22802 34.4585L7.50454 35.2527V34.1767V28.0816C7.50454 27.7112 7.20567 27.4102 6.83769 27.4085C6.80022 27.4093 6.76276 27.4093 6.72529 27.4093C5.31082 27.4093 3.97461 26.8617 2.96142 25.8676C1.94739 24.8718 1.37211 23.5399 1.34131 22.1152C1.34048 22.0767 1.34048 22.0383 1.34048 21.9998V7.55964C1.32549 6.10149 1.87663 4.72529 2.89148 3.68268C3.90717 2.64007 5.26753 2.05731 6.71947 2.04142C6.73945 2.04142 6.7586 2.04142 6.77858 2.04142C6.79773 2.04142 6.81604 2.04142 6.83519 2.04142H29.5408H29.5433H29.5458C32.5405 2.07738 34.954 4.55389 34.9257 7.56131V17.2165V17.6346H34.5094H22.6242C19.6054 17.6672 17.1694 20.1596 17.1936 23.1921V26.9905V27.4085ZM40.5136 38.7033C40.4961 38.7033 40.4786 38.7033 40.4612 38.7033C40.0924 38.705 39.7935 39.006 39.7935 39.3764V43.5334V44.6036L39.0708 43.8168L34.576 38.9207C34.4494 38.7827 34.2696 38.7041 34.0823 38.7033H22.6217H22.6192H22.6167C21.5319 38.6891 20.5129 38.2568 19.7461 37.4868C18.9793 36.7167 18.5489 35.6925 18.5348 34.6039V34.6014V34.5989V23.1988C18.5056 20.9096 20.3364 19.0183 22.6158 18.9824H22.6192H22.6225H40.4628C40.477 18.9824 40.4911 18.9824 40.5053 18.9824C41.6059 18.9824 42.6432 19.4104 43.4266 20.188C44.2101 20.9664 44.6488 22.0048 44.6605 23.111C44.6605 23.1402 44.6605 23.1695 44.6605 23.1979V34.5972V34.6006V34.6039C44.643 35.7042 44.2034 36.7351 43.4225 37.5077C42.6399 38.2786 41.6076 38.7033 40.5136 38.7033Z" fill="#464860"/>
<path d="M39.7631 25.3783H23.4314C23.0909 25.3783 22.8145 25.1007 22.8145 24.7587C22.8145 24.4167 23.0909 24.1392 23.4314 24.1392H39.7631C40.1036 24.1392 40.38 24.4167 40.38 24.7587C40.38 25.1015 40.1036 25.3783 39.7631 25.3783Z" fill="#464860"/>
<path d="M39.7631 29.4378H23.4314C23.0909 29.4378 22.8145 29.1602 22.8145 28.8183C22.8145 28.4763 23.0909 28.1987 23.4314 28.1987H39.7631C40.1036 28.1987 40.38 28.4763 40.38 28.8183C40.38 29.1611 40.1036 29.4378 39.7631 29.4378Z" fill="#464860"/>
<path d="M39.7631 33.4979H23.4314C23.0909 33.4979 22.8145 33.2203 22.8145 32.8783C22.8145 32.5364 23.0909 32.2588 23.4314 32.2588H39.7631C40.1036 32.2588 40.38 32.5364 40.38 32.8783C40.38 33.2203 40.1036 33.4979 39.7631 33.4979Z" fill="#464860"/>
</svg>
