<svg width="22" height="22" viewBox="0 0 22 22" fill="none" xmlns="http://www.w3.org/2000/svg">
<path d="M18.8751 3.1248C16.86 1.10963 14.1813 0 11.3313 0C11.3311 0 11.3304 0 11.3303 0C9.92068 0.000167847 8.54702 0.273086 7.24772 0.81137C5.94826 1.34965 4.78407 2.12796 3.78723 3.1248C1.77223 5.1398 0.6626 7.81896 0.6626 10.6687C0.6626 12.3681 1.07265 14.057 1.84961 15.5617L0.0563379 20.6847C-0.0700505 21.0461 0.0194117 21.4389 0.290316 21.7096C0.479815 21.8993 0.729235 22 0.985704 22C1.09564 22 1.20676 21.9815 1.31519 21.9436L6.4382 20.1505C7.94294 20.9274 9.63182 21.3375 11.3313 21.3375C14.181 21.3375 16.86 20.2277 18.8751 18.2127C20.8901 16.1977 21.9999 13.5185 21.9999 10.6688C21.9999 7.81896 20.8903 5.1398 18.8751 3.1248ZM17.9627 17.3003C16.1914 19.0717 13.8362 20.0471 11.3313 20.0471C9.79882 20.0471 8.27646 19.6681 6.92865 18.9507C6.68426 18.8208 6.3954 18.7985 6.13608 18.8893L1.48169 20.5182L3.11081 15.8638C3.20161 15.6042 3.17912 15.3153 3.04921 15.0711C2.332 13.7236 1.95284 12.2013 1.95284 10.6687C1.95284 8.16372 2.92836 5.8085 4.69965 4.03721C6.47076 2.2661 8.82565 1.29057 11.3304 1.29024H11.3313C13.8364 1.29024 16.1914 2.26576 17.9627 4.03721C19.7342 5.8085 20.7097 8.16355 20.7097 10.6687C20.7097 13.1738 19.7342 15.529 17.9627 17.3003Z" fill="#40D8C2"/>
<path d="M15.2962 11.6217C14.8054 11.1309 14.0068 11.1309 13.516 11.6217L12.9793 12.1585C11.6464 11.4322 10.5678 10.3536 9.84137 9.02076L10.3781 8.48399C10.8691 7.99321 10.8691 7.19459 10.3781 6.70381L8.93164 5.25731C8.44086 4.76653 7.64225 4.76653 7.15146 5.25731L5.99433 6.41444C5.3315 7.07727 5.29844 8.21678 5.90117 9.62317C6.42452 10.8442 7.38225 12.1863 8.59796 13.4021C9.81368 14.6178 11.1558 15.5755 12.3769 16.0989C13.0451 16.3852 13.6528 16.528 14.178 16.528C14.7583 16.528 15.2376 16.3536 15.5856 16.0057L16.7427 14.8484V14.8486C16.9806 14.6107 17.1115 14.2947 17.1115 13.9585C17.1115 13.6221 16.9806 13.3061 16.7427 13.0684L15.2962 11.6217ZM14.6732 15.0933C14.484 15.2824 13.9023 15.3487 12.8853 14.913C11.8114 14.4528 10.6128 13.5921 9.51038 12.4896C8.40796 11.3872 7.54741 10.1888 7.08718 9.11493C6.65128 8.09794 6.71758 7.51602 6.90674 7.32686L8.04172 6.19188L9.44358 7.5939L8.77169 8.26596C8.46788 8.56976 8.39453 9.0305 8.5894 9.41252C9.47278 11.1447 10.8553 12.5272 12.5875 13.4106C12.9697 13.6055 13.4304 13.5323 13.7342 13.2283L14.4061 12.5565L15.8081 13.9585L14.6732 15.0933Z" fill="#40D8C2"/>
</svg>
