<svg width="35" height="26" viewBox="0 0 35 26" fill="none" xmlns="http://www.w3.org/2000/svg">
<path d="M33.042 20.3209C33.042 20.8917 32.5838 21.35 32.013 21.35H19.0374C18.8927 21.35 18.756 21.4304 18.6836 21.559L16.931 24.5899L15.1785 21.559C15.1061 21.4304 14.9694 21.35 14.8247 21.35H1.85717C1.28637 21.35 0.828125 20.8917 0.828125 20.3209V1.9911C0.828125 1.4203 1.28637 0.962059 1.85717 0.962059H32.013C32.5838 0.962059 33.042 1.4203 33.042 1.9911V20.3209Z" fill="white"/>
<path d="M34.2058 21.3589C34.2058 21.9297 33.7476 22.3879 33.1768 22.3879H20.2092C20.0645 22.3879 19.9279 22.4683 19.8555 22.5969L18.1029 25.6278L16.3503 22.5969C16.278 22.4683 16.1413 22.3879 15.9966 22.3879H3.02904C2.45825 22.3879 2 21.9297 2 21.3589V3.02904C2 2.45825 2.45825 2 3.02904 2H33.1848C33.7556 2 34.2139 2.45825 34.2139 3.02904V21.3589H34.2058Z" fill="#CCB8F4"/>
<path d="M32.0049 0.134003H1.8571C0.836098 0.134003 0 0.9701 0 1.9911V20.329C0 21.35 0.836098 22.1861 1.8571 22.1861H14.5915L16.5772 25.6269C16.6496 25.7556 16.7863 25.836 16.931 25.836C17.0757 25.836 17.2124 25.7556 17.2847 25.6269L19.2704 22.1861H32.0049C33.0259 22.1861 33.862 21.35 33.862 20.329V1.9911C33.862 0.9701 33.0339 0.134003 32.0049 0.134003ZM33.0419 20.3209C33.0419 20.8917 32.5837 21.35 32.0129 21.35H19.0373C18.8926 21.35 18.7559 21.4304 18.6836 21.559L16.931 24.5899L15.1784 21.559C15.106 21.4304 14.9694 21.35 14.8247 21.35H1.8571C1.2863 21.35 0.828058 20.8917 0.828058 20.3209V1.9911C0.828058 1.42031 1.2863 0.962061 1.8571 0.962061H32.0129C32.5837 0.962061 33.0419 1.42031 33.0419 1.9911V20.3209Z" fill="#464860"/>
<path d="M10.234 6.86301L11.8982 5.24709C12.0348 5.11042 12.0429 4.89336 11.9062 4.75669L10.6521 3.46235C10.5877 3.39803 10.4993 3.35783 10.4109 3.35783C10.3224 3.36587 10.234 3.38999 10.1617 3.45431L8.36083 5.2069L6.48764 3.54274C6.34294 3.41411 6.12587 3.43019 5.99724 3.5749L4.79937 4.91748C4.73506 4.98983 4.71094 5.07827 4.71094 5.1667C4.71898 5.25513 4.75917 5.34357 4.82349 5.40788L6.56 6.94341L4.96016 8.49501C4.82349 8.63168 4.82349 8.84875 4.95212 8.98541L6.20627 10.2798C6.27058 10.3521 6.36705 10.3843 6.45549 10.3843C6.54392 10.3843 6.63235 10.3521 6.69667 10.2878L8.43318 8.59952L10.242 10.2074C10.3868 10.336 10.6038 10.32 10.7324 10.1752L11.9303 8.82463C11.9946 8.75227 12.0188 8.66384 12.0188 8.57541C12.0107 8.48697 11.9705 8.39854 11.9062 8.33422L10.234 6.86301Z" fill="white"/>
<path d="M10.8942 7.50519L12.5583 5.88927C12.695 5.7526 12.703 5.53553 12.5664 5.39886L11.3122 4.10452C11.2479 4.0402 11.1595 4.00001 11.071 4.00001C10.9826 4.00805 10.8942 4.03217 10.8218 4.09648L9.02098 5.84907L7.1478 4.18491C7.00309 4.05628 6.78603 4.07236 6.6574 4.21707L5.45953 5.55965C5.39521 5.63201 5.37109 5.72044 5.37109 5.80887C5.37913 5.89731 5.41933 5.98574 5.48365 6.05005L7.22016 7.58558L5.62032 9.13719C5.48365 9.27385 5.48365 9.49092 5.61228 9.62759L6.86642 10.9219C6.93074 10.9943 7.02721 11.0264 7.11564 11.0264C7.20408 11.0264 7.29251 10.9943 7.35683 10.93L9.09334 9.2417L10.9022 10.8496C11.0469 10.9782 11.264 10.9621 11.3926 10.8174L12.5905 9.4668C12.6548 9.39445 12.6789 9.30601 12.6789 9.21758C12.6709 9.12915 12.6307 9.04071 12.5664 8.9764L10.8942 7.50519Z" fill="#A3EFE0"/>
<path d="M6.45563 10.7541C6.26268 10.7541 6.08582 10.6737 5.94915 10.537L4.695 9.24266C4.42166 8.96128 4.4297 8.51107 4.71108 8.23773L6.02954 6.95947L4.59049 5.6812C4.44578 5.55257 4.36538 5.38374 4.34931 5.1908C4.34127 5.00589 4.40558 4.82098 4.52617 4.68431L5.72404 3.3337C5.9813 3.03624 6.43151 3.01212 6.72093 3.26938L8.34489 4.70843L9.90453 3.19703C10.0332 3.07643 10.194 3.00408 10.3869 2.99604C10.604 2.99604 10.7808 3.07643 10.9095 3.2131L12.1636 4.50745C12.2922 4.64412 12.3646 4.82098 12.3646 5.01393C12.3646 5.20688 12.2842 5.38374 12.1475 5.51237L10.7647 6.85495L12.1395 8.07694C12.2842 8.20557 12.3646 8.3744 12.3807 8.56735C12.3967 8.76029 12.3324 8.93716 12.2038 9.08187L11.0059 10.4325C10.7487 10.7219 10.2985 10.7541 10.009 10.4968L8.4494 9.11402L6.95407 10.5692C6.8174 10.6817 6.64053 10.7541 6.45563 10.7541ZM6.2466 3.81606L5.07285 5.15864L7.09878 6.93535L5.21756 8.76029L6.47171 10.0305L8.42528 8.1091L10.4834 9.93404L11.6571 8.58342L9.69551 6.86299L11.641 4.98177L10.3869 3.71155L8.36901 5.68924L6.2466 3.81606Z" fill="#464860"/>
<path d="M10.604 12.6192C10.4593 12.4745 10.2262 12.4825 10.0895 12.6192L7.25965 15.4892L6.4316 14.4361C6.37532 14.3637 6.28689 14.3075 6.19041 14.2994C6.09394 14.2914 5.99747 14.3155 5.92511 14.3718L4.47802 15.5053C4.40567 15.5616 4.34939 15.65 4.34135 15.7465C4.33331 15.843 4.35743 15.9395 4.41371 16.0118L6.78533 19.0266C6.84964 19.107 6.94612 19.1633 7.05063 19.1633C7.05867 19.1633 7.06671 19.1633 7.07475 19.1633C7.17122 19.1633 7.26769 19.1231 7.33201 19.0507L11.9145 14.4039C11.9788 14.3316 12.019 14.2431 12.019 14.1467C12.019 14.0502 11.9788 13.9537 11.9064 13.8894L10.604 12.6192Z" fill="white"/>
<path d="M11.2642 13.2614C11.1195 13.1167 10.8863 13.1247 10.7497 13.2614L7.91981 16.1314L7.09175 15.0783C7.03548 15.0059 6.94704 14.9497 6.85057 14.9416C6.7541 14.9336 6.65762 14.9577 6.58527 15.014L5.13818 16.1475C5.06582 16.2038 5.00955 16.2922 5.00151 16.3887C4.99347 16.4852 5.01759 16.5816 5.07386 16.654L7.44548 19.6688C7.5098 19.7492 7.60627 19.8054 7.71079 19.8054C7.71883 19.8054 7.72686 19.8054 7.7349 19.8054C7.83138 19.8054 7.92785 19.7653 7.99216 19.6929L12.5746 15.0461C12.6389 14.9738 12.6791 14.8853 12.6791 14.7889C12.6791 14.6924 12.6389 14.5959 12.5666 14.5316L11.2642 13.2614Z" fill="#A3EFE0"/>
<path d="M7.07473 19.5411C6.82551 19.5251 6.63256 19.4286 6.50393 19.2598L4.13231 16.245C4.01172 16.0922 3.96348 15.9073 3.97956 15.7063C4.00368 15.5134 4.10015 15.3446 4.2529 15.224L5.69999 14.0904C5.85274 13.9698 6.03765 13.9216 6.23059 13.9377C6.42354 13.9618 6.60041 14.0583 6.71296 14.211L7.28376 14.9426L9.82421 12.3619C9.96088 12.2253 10.1458 12.1449 10.3387 12.1449C10.3387 12.1449 10.3387 12.1449 10.3468 12.1449C10.5397 12.1449 10.7166 12.2172 10.8533 12.3539L12.1637 13.6402C12.3003 13.7769 12.3807 13.9618 12.3807 14.1547C12.3807 14.3477 12.3084 14.5326 12.1717 14.6693L7.58925 19.316C7.46062 19.4607 7.26768 19.5411 7.07473 19.5411ZM6.1502 14.6612L4.70311 15.7948L7.07473 18.8176L11.6572 14.1708L10.3468 12.8765L7.23552 16.036L6.1502 14.6612Z" fill="#464860"/>
<path d="M14.4633 6.1073H24.191C24.4563 6.1073 24.6734 5.92239 24.6734 5.69729C24.6734 5.47218 24.4563 5.28728 24.191 5.28728H14.4633C14.198 5.28728 13.981 5.47218 13.981 5.69729C13.981 5.92239 14.198 6.1073 14.4633 6.1073Z" fill="#464860"/>
<path d="M27.6801 15.433H14.4633C14.198 15.433 13.981 15.6179 13.981 15.843C13.981 16.0681 14.198 16.253 14.4633 16.253H27.6801C27.9454 16.253 28.1625 16.0681 28.1625 15.843C28.1625 15.6179 27.9454 15.433 27.6801 15.433Z" fill="#464860"/>
<path d="M29.0704 8.72813H14.3905C14.1654 8.72813 13.9805 8.54322 13.9805 8.31812C13.9805 8.09302 14.1654 7.90811 14.3905 7.90811H29.0704C29.2955 7.90811 29.4804 8.09302 29.4804 8.31812C29.4885 8.54322 29.3036 8.72813 29.0704 8.72813Z" fill="#464860"/>
<path d="M30.7586 6.10728H26.4012C26.1761 6.10728 25.9912 5.92237 25.9912 5.69727C25.9912 5.47217 26.1761 5.28726 26.4012 5.28726H30.7586C30.9837 5.28726 31.1686 5.47217 31.1686 5.69727C31.1686 5.92237 30.9837 6.10728 30.7586 6.10728Z" fill="#464860"/>
</svg>
