<svg width="29" height="19" viewBox="0 0 29 19" fill="none" xmlns="http://www.w3.org/2000/svg">
<path d="M9.239 6.07123L7.1839 9.30922L7.92596 10.0393L8.92439 9.05964L9.239 6.07123ZM9.239 6.07123L11.2968 9.30926L10.5549 10.0392L9.55919 9.05964C9.38388 8.88717 9.09983 8.88714 8.92448 9.05954L9.239 6.07123ZM16.7304 0.979794L16.7301 0.979277L16.7213 0.985586C16.6616 1.02794 16.6073 1.08098 16.5657 1.14242L16.5656 1.1424L16.564 1.14492L11.8708 8.53616L9.80653 5.28586L9.80664 5.28579L9.80363 5.28156C9.58702 4.97667 9.15876 4.90201 8.84976 5.11447L8.8497 5.11451C8.78329 5.16024 8.72658 5.21601 8.67998 5.2815L8.67987 5.28142L8.67706 5.28585L0.969138 17.4179L0.96897 17.4182C0.837129 17.6272 0.899401 17.9022 1.11227 18.0322L1.11355 18.033C1.18381 18.0745 1.2637 18.1 1.35197 18.1H27.6504C27.8974 18.1 28.1 17.903 28.1 17.6561C28.1 17.5744 28.0784 17.4908 28.0299 17.4172C28.0298 17.4169 28.0296 17.4167 28.0294 17.4164L17.6935 1.14769L17.6932 1.14729C17.6512 1.08178 17.5955 1.02715 17.5332 0.986281L17.5267 0.982043L17.5197 0.978847L17.4827 0.962071L17.4713 0.956893L17.459 0.954687C17.4081 0.945583 17.3719 0.939545 17.3382 0.933937C17.3043 0.928287 17.273 0.923074 17.232 0.9156L17.2231 0.91398H17.2185L17.2137 0.913304L17.2116 0.912992C17.2048 0.911987 17.1951 0.910555 17.1836 0.909136C17.1578 0.905963 17.1472 0.90563 17.1264 0.905596C17.0779 0.899987 17.0144 0.899995 16.9731 0.9L16.9696 0.9C16.9573 0.9 16.9455 0.900941 16.9375 0.90157L16.9358 0.901706C16.9268 0.902415 16.9212 0.902796 16.9156 0.902796H16.8996L16.8881 0.906578L16.8865 0.906795C16.8823 0.90737 16.8741 0.908478 16.865 0.910269L16.8495 0.913335L16.8356 0.921077L16.7304 0.979794ZM10.2374 10.9832L10.2375 10.9833C10.2536 10.9992 10.2709 11.0133 10.2887 11.026L8.8602 13.2778C8.71851 13.4805 8.7712 13.7572 8.97495 13.8968C9.17901 14.0366 9.45941 13.9867 9.60194 13.7854L9.60195 13.7854L9.6031 13.7837L9.62015 13.7586L9.62019 13.7586L9.62178 13.7561L12.2507 9.61798L12.2508 9.61793L13.7049 7.33169L15.0578 8.66257C15.2331 8.83506 15.5172 8.83506 15.6926 8.66257L17.1288 7.24965L18.565 8.66257C18.7403 8.83506 19.0244 8.83506 19.1998 8.66257L20.5525 7.33173L26.8318 17.215H2.1614L6.69338 10.083L7.60847 10.9833C7.78381 11.1558 8.06793 11.1558 8.24327 10.9833L9.24169 10.0011L10.2374 10.9832ZM14.1955 6.54955L17.1288 1.93301L20.062 6.54955L18.8824 7.71005L17.4462 6.29713C17.2708 6.12464 16.9867 6.12464 16.8114 6.29713L15.3752 7.71005L14.1955 6.54955Z" fill="white" stroke="white" stroke-width="0.2"/>
</svg>