<svg width="32" height="32" viewBox="0 0 32 32" fill="none" xmlns="http://www.w3.org/2000/svg">
<path d="M27.0628 5.20373L25.4592 6.28381L22.7863 5.74406L21.1826 5.2043L19.0441 5.74406L17.4404 5.2043L18.5097 3.04413H20.6483L22.7436 1.98586C24.3598 2.7932 25.8219 3.88247 27.0628 5.20373Z" fill="white"/>
<path d="M14.7682 3.04414L14.2339 4.66398L12.6302 5.20374L11.0266 7.90367L8.35368 9.52351L4.61147 10.0633V11.6831L5.68075 12.7632V14.9234L4.07711 13.8433L2.47347 12.7638L1.54346 9.93981C3.14426 6.08572 6.20488 3.03954 10.0432 1.47827L11.5615 2.50438L14.7682 3.04414Z" fill="white"/>
<path d="M15.8379 18.163L15.3035 20.863L13.1649 23.0231V24.643L11.0269 26.2628V28.9628L9.4233 28.423L8.35402 25.7231V20.3232L5.6811 19.7835L4.61182 17.6233V16.0034L5.6811 14.9234L7.28474 13.3035L8.35402 15.4631H12.0962L13.6999 18.163H15.8379Z" fill="white"/>
<path d="M29.3625 8.35212C32.2809 13.6107 31.9484 20.0953 28.5069 25.0208L27.0636 23.5629V21.4027L25.9943 19.2426L24.925 17.0824V14.9222L23.3214 13.8421L21.1828 14.3819L17.4406 12.762L16.9062 8.98203L18.5099 7.36219H21.7172L22.7864 8.98203L25.9937 9.52179L29.201 8.4417L29.3625 8.35212Z" fill="white"/>
<path d="M19.045 5.74405L21.1835 5.2043L22.7872 5.74405L25.4601 6.28381L27.0637 5.20372C27.9591 6.15059 28.7316 7.20829 29.3626 8.35154L29.2023 8.44341L25.995 9.5235L22.7877 8.98374L21.7185 7.3639H18.5112L16.9075 8.98374L17.4419 12.7638L21.1841 14.3836L23.3227 13.8438L24.9263 14.9239V17.0841L25.9956 19.2443L27.0649 21.4044V23.5646L28.5082 25.0225C23.5717 32.0888 13.8981 33.7741 6.90367 28.7871C0.96093 24.55 -1.26746 16.7132 1.54304 9.93922L2.47305 12.7632L4.07669 13.8433L5.68033 14.9234L4.61105 16.0034V17.6233L5.68033 19.7835L8.35326 20.3232V25.7231L9.42254 28.423L11.0262 28.9628V26.2628L13.1648 24.643V23.0231L15.3033 20.863L15.8377 18.163H13.6991L12.0955 15.4631H8.35326L7.28398 13.3029L5.68033 14.9228V12.7626L4.61105 11.6825V10.0627L8.35326 9.52292L11.0262 7.90308L12.6298 5.20315L14.2335 4.66339L14.7678 3.04355L11.5605 2.5038L10.0422 1.47768C14.1533 -0.194411 18.7766 -0.00951588 22.744 1.98586L20.6486 3.04413H18.51L17.4408 5.20372L19.045 5.74405Z" fill="white"/>
<path d="M28.0628 5.98179L26.4592 7.06188L23.7863 6.52212L22.1826 5.98237L20.0441 6.52212L18.4404 5.98237L19.5097 3.82219H21.6483L23.7436 2.76393C25.3592 3.57069 26.8213 4.66054 28.0628 5.98179Z" fill="#A3EFE0"/>
<path d="M15.7682 3.82162L15.2339 5.44146L13.6302 5.98122L12.0266 8.68115L9.35367 10.301L5.61146 10.8407V12.4606L6.68074 13.5407V15.7008L5.07711 14.6208L3.47347 13.5407L2.54346 10.7167C4.14425 6.86263 7.20487 3.81645 11.0431 2.25518L12.5615 3.28129L15.7682 3.82162Z" fill="#A3EFE0"/>
<path d="M16.8379 18.9411L16.303 21.641L14.165 23.8012V25.421L12.0264 27.0409V29.7408L10.4227 29.2005L9.35346 26.5006V21.1013L6.68053 20.5609L5.61182 18.4013V16.7815L6.68053 15.7014L8.28474 14.0816L9.35346 16.2412H13.0957L14.6993 18.9411H16.8379Z" fill="#A3EFE0"/>
<path d="M30.0216 9.03542C32.9401 14.294 32.6076 20.7786 29.1661 25.7041L27.7228 24.2462V22.086L26.6535 19.9259L25.5842 17.7657V15.6055L23.9806 14.5254L21.842 15.0652L18.0998 13.4453L17.5654 9.66533L19.1691 8.04548H22.3764L23.4456 9.66533L26.6529 10.2051L29.8602 9.125L30.0216 9.03542Z" fill="#A3EFE0"/>
<path d="M19.045 5.74405L21.1835 5.2043L22.7872 5.74405L25.4601 6.28381L27.0637 5.20372C27.9591 6.15059 28.7316 7.20829 29.3626 8.35154L29.2023 8.44341L25.995 9.5235L22.7877 8.98374L21.7185 7.3639H18.5112L16.9075 8.98374L17.4419 12.7638L21.1841 14.3836L23.3227 13.8438L24.9263 14.9239V17.0841L25.9956 19.2443L27.0649 21.4044V23.5646L28.5082 25.0225C23.5717 32.0888 13.8981 33.7741 6.90367 28.7871C0.96093 24.55 -1.26746 16.7132 1.54304 9.93922L2.47305 12.7632L4.07669 13.8433L5.68033 14.9234L4.61105 16.0034V17.6233L5.68033 19.7835L8.35326 20.3232V25.7231L9.42254 28.423L11.0262 28.9628V26.2628L13.1648 24.643V23.0231L15.3033 20.863L15.8377 18.163H13.6991L12.0955 15.4631H8.35326L7.28398 13.3029L5.68033 14.9228V12.7626L4.61105 11.6825V10.0627L8.35326 9.52292L11.0262 7.90308L12.6298 5.20315L14.2335 4.66339L14.7678 3.04355L11.5605 2.5038L10.0422 1.47768C14.1533 -0.194411 18.7766 -0.00951588 22.744 1.98586L20.6486 3.04413H18.51L17.4408 5.20372L19.045 5.74405Z" fill="#CCB8F4"/>
<path d="M25.5313 6.64959L22.6787 6.07079L21.1694 5.56261L19.0309 6.10237L16.96 5.40528L18.2993 2.69961H20.568L22.7435 1.60115L22.8953 1.67694C24.5518 2.50438 26.0378 3.61145 27.3111 4.96716L27.5903 5.26402L25.5313 6.64959ZM22.8743 5.41045L25.388 5.91805L26.5323 5.14746C25.4193 4.02431 24.1465 3.09179 22.7435 2.37116L20.7289 3.38866H18.7211L17.9218 5.00276L19.0582 5.38518L21.1967 4.84542L22.8743 5.41045Z" fill="#464860"/>
<path d="M6.02188 15.567L2.18701 12.9843L1.17969 9.92487L1.22914 9.80543C2.04319 7.84509 3.2165 6.0949 4.71498 4.60311C6.21402 3.11131 7.96376 1.95199 9.91587 1.15786L10.083 1.0901L11.6901 2.17593L15.2185 2.76966L14.504 4.93557L12.8582 5.48968L11.2756 8.15401L8.47083 9.85424L4.95373 10.3618V11.5401L6.02302 12.6202V15.567H6.02188ZM2.76002 12.5427L5.33972 14.2797V12.9062L4.27044 11.8261V9.76466L8.23719 9.19218L10.7777 7.65215L12.4023 4.91662L13.9639 4.39065L14.3181 3.31688L11.4325 2.83167L10.004 1.86643C8.20251 2.62381 6.58523 3.70906 5.19362 5.09463C3.78951 6.49225 2.68442 8.12702 1.90789 9.95473L2.76002 12.5427Z" fill="#464860"/>
<path d="M11.3677 29.4405L9.16491 28.6986L8.01263 25.7885V20.6052L5.45056 20.0878L4.271 17.7043V15.8605L7.37822 12.7218L8.56461 15.1186H12.2886L13.8923 17.8185H16.2537L15.6175 21.0329L13.5063 23.1656V24.8153L11.3677 26.4351V29.4405ZM9.68107 28.1462L10.6855 28.4845V26.0906L12.8241 24.4707V22.8802L14.9894 20.693L15.422 18.5076H13.5068L11.9032 15.8076H8.14337L7.19177 13.8846L4.95315 16.1459V17.5418L5.91158 19.478L8.69478 20.0401V25.6559L9.68107 28.1462Z" fill="#464860"/>
<path d="M28.552 25.5537L26.7221 23.7053V21.4843L24.5841 17.1645V15.1077L23.2578 14.2148L21.1545 14.7459L17.1309 13.0038L16.5454 8.86201L18.3696 7.01938H21.9009L22.9895 8.6685L25.9677 9.16979L29.0636 8.1276L29.4933 7.88184L29.661 8.18387C31.1243 10.8212 31.8161 13.8105 31.6615 16.8297C31.5069 19.8489 30.5126 22.7504 28.7873 25.2201L28.552 25.5537ZM27.4042 23.4205L28.4576 24.4845C29.9674 22.1963 30.8372 19.5463 30.9782 16.7941C31.1209 14.0121 30.5126 11.2559 29.2165 8.8023L26.0212 9.87779L22.5842 9.29899L21.5343 7.70843H18.6516L17.2685 9.10548L17.7517 12.5232L21.2119 14.0213L23.3852 13.4723L25.2662 14.739V17.002L27.4042 21.3218V23.4205Z" fill="#464860"/>
<path d="M15.8067 31.999C12.5648 31.999 9.4081 30.9935 6.70504 29.0665C3.76835 26.9729 1.60477 23.898 0.6128 20.4091C-0.379741 16.9197 -0.160881 13.154 1.22788 9.80579L1.57919 8.95884L2.75933 12.5419L5.33902 14.2789V12.9054L4.26974 11.8253V9.76388L8.23649 9.19139L10.777 7.65136L12.4016 4.91583L13.9632 4.38986L14.3174 3.31609L11.4318 2.83088L9.316 1.4011L9.9146 1.15764C14.1127 -0.550058 18.8441 -0.361143 22.8955 1.67615L23.5077 1.98392L20.7285 3.38786H18.7207L17.9214 5.00196L19.0578 5.38439L21.1964 4.84463L22.8745 5.40965L25.3882 5.91725L27.1124 4.7562L27.3102 4.96522C28.2254 5.93276 29.0162 7.01514 29.6602 8.18365L29.8251 8.48224L29.3413 8.75901L26.0221 9.87642L22.5851 9.29762L21.5352 7.70706H18.6513L17.2683 9.10411L17.7515 12.5218L21.2117 14.0199L23.385 13.471L25.266 14.7377V17.0006L27.404 21.3204V23.4191L28.9508 24.9816L28.7854 25.2187C26.3455 28.7116 22.7045 31.0349 18.5342 31.7618C17.6241 31.9203 16.7117 31.999 15.8067 31.999ZM1.52007 10.9617C0.499107 13.9338 0.405878 17.1849 1.26824 20.2185C2.21758 23.5575 4.2885 26.4998 7.09842 28.5032C10.4069 30.862 14.4271 31.7779 18.4177 31.0825C22.3145 30.4038 25.7276 28.2677 28.06 25.0562L26.7218 23.7045V21.4835L24.5838 17.1637V15.1069L23.2576 14.214L21.1543 14.7451L17.1307 13.003L16.5452 8.86122L18.3694 7.01859H21.9007L22.9893 8.66771L25.9675 9.169L28.8775 8.1894C28.3459 7.28042 27.7206 6.42945 27.0129 5.65197L25.532 6.64937L22.6795 6.07057L21.1702 5.56239L19.0316 6.10215L16.9607 5.40506L18.2989 2.69881H20.5676L21.9615 1.99483C18.4291 0.418632 14.4248 0.263596 10.7826 1.56303L11.6893 2.17571L15.2178 2.76944L14.5033 4.93536L12.8575 5.48947L11.2744 8.1538L8.46956 9.85403L4.95246 10.3616V11.5399L6.02175 12.62V14.0911L7.37811 12.7211L8.56449 15.1178H12.2891L13.8927 17.8177H16.2541L15.618 21.0321L13.5067 23.1648V24.8145L11.3682 26.4343V29.4397L9.16536 28.6978L8.01308 25.7877V20.6044L5.45101 20.087L4.27144 17.7035V15.8597L5.14631 14.976L2.18745 12.9835L1.52007 10.9617ZM9.67982 28.1454L10.6843 28.4836V26.0898L12.8229 24.4699V22.8794L14.9882 20.6922L15.4208 18.5068H13.5056L11.902 15.8068H8.14212L7.19051 13.8838L6.21559 14.8686L4.9519 16.1451V17.541L5.91033 19.4772L8.69353 20.0393V25.6551L9.67982 28.1454Z" fill="#464860"/>
</svg>
