<svg width="46" height="47" viewBox="0 0 46 47" fill="none" xmlns="http://www.w3.org/2000/svg">
<path d="M44.8484 44.8475H24.1182V23.7482C24.1182 23.1757 24.1742 22.6041 24.2751 22.0444C26.1102 21.6249 27.7523 20.6321 28.9821 19.1565C30.0886 17.8283 30.7115 16.2398 30.878 14.6057C30.8876 14.6033 30.8964 14.6057 30.906 14.6033C31.7923 14.3375 32.7147 14.2021 33.649 14.2021H35.3167C35.5073 14.2021 35.6939 14.2198 35.882 14.231C35.7115 15.0805 35.4545 15.8603 35.1838 16.5248C34.9581 16.4736 34.7243 16.4439 34.4833 16.4439C32.7483 16.4439 31.3368 17.8499 31.3368 19.5785C31.3368 21.3062 32.7483 22.713 34.4833 22.713C36.2183 22.713 37.6298 21.307 37.6298 19.5785C37.6298 18.496 37.0758 17.54 36.2359 16.9772C36.5425 16.2246 36.834 15.3367 37.0237 14.3647C41.4665 15.1733 44.8484 19.0693 44.8484 23.749V44.8475Z" fill="white"/>
<path d="M45.6469 46.0077H24.9175V24.9084C24.9175 24.3359 24.9735 23.7642 25.0744 23.2046C26.9095 22.7851 28.5516 21.7923 29.7814 20.3167C30.8879 18.9884 31.5108 17.3999 31.6773 15.7658C31.6869 15.7634 31.6957 15.7658 31.7053 15.7634C32.5916 15.4976 33.514 15.3623 34.4483 15.3623H36.1161C36.3066 15.3623 36.4932 15.3799 36.6813 15.3911C36.5108 16.2406 36.2538 17.0204 35.9832 17.685C35.7574 17.6337 35.5236 17.6041 35.2818 17.6041C33.5468 17.6041 32.1353 19.01 32.1353 20.7386C32.1353 22.4664 33.5468 23.8731 35.2818 23.8731C37.0168 23.8731 38.4283 22.4672 38.4283 20.7386C38.4283 19.6561 37.8743 18.7002 37.0344 18.1373C37.341 17.3847 37.6325 16.4968 37.8222 15.5248C42.265 16.3335 45.6469 20.2294 45.6469 24.9092V46.0077Z" fill="#CCB8F4"/>
<path d="M22.939 21.0997C20.915 21.2638 18.9542 20.6209 17.4186 19.2894L16.1104 18.1549C15.8702 17.9468 15.5075 17.9724 15.2993 18.2126L4.40656 30.7586C3.84451 31.4088 2.87894 31.5417 2.25443 31.0549C1.92137 30.7955 1.7148 30.4216 1.67397 30.0028C1.63314 29.5833 1.76204 29.1766 2.03666 28.8587L2.84531 27.9228C3.05268 27.6834 3.02706 27.3199 2.78686 27.1125L1.32569 25.8443C1.11272 25.6593 1.0895 25.3351 1.27365 25.1213L1.73562 24.5865C1.82529 24.4832 1.94859 24.4216 2.0847 24.412C2.09751 24.4111 2.10952 24.4104 2.12233 24.4104C2.24483 24.4104 2.36172 24.4536 2.4554 24.5352L3.91737 25.8035C4.03266 25.9035 4.18398 25.9508 4.3353 25.9428C4.48743 25.9316 4.62914 25.8611 4.72922 25.745L6.52746 23.6649C6.73483 23.4256 6.70921 23.0621 6.46902 22.8547L5.00704 21.5865C4.79407 21.4015 4.77085 21.0781 4.955 20.8643L5.41697 20.3295C5.50664 20.2262 5.62994 20.1637 5.76605 20.1549C5.90376 20.1405 6.03267 20.1886 6.13595 20.2782L7.59792 21.5465C7.83732 21.7538 8.20001 21.729 8.40737 21.4904L13.0047 16.227C13.1055 16.1117 13.156 15.962 13.1456 15.809C13.1352 15.6569 13.0639 15.5144 12.9486 15.4143L11.6404 14.2798C10.1047 12.9484 9.1896 11.0965 9.0623 9.06604C8.935 7.03561 9.61394 5.08284 10.9726 3.56723C13.6876 0.540797 18.4867 0.324624 21.6708 3.08684L27.0431 7.74658C30.2281 10.5088 30.7013 15.2974 28.0976 18.4223C26.7957 19.9844 24.9639 20.9356 22.939 21.0997Z" fill="white"/>
<path d="M23.738 22.2602C21.714 22.4243 19.7532 21.7814 18.2176 20.4499L16.9093 19.3154C16.6691 19.1072 16.3064 19.1329 16.0983 19.373L5.20473 31.9183C4.64267 32.5684 3.6771 32.7013 3.0526 32.2146C2.71953 31.9551 2.51297 31.5812 2.47213 31.1625C2.4313 30.743 2.5602 30.3362 2.83482 30.0184L3.64347 29.0824C3.85084 28.843 3.82522 28.4796 3.58503 28.2722L2.12305 27.0048C1.91008 26.8198 1.88686 26.4956 2.07101 26.2818L2.53298 25.747C2.62265 25.6437 2.74595 25.582 2.88206 25.5724C2.89487 25.5716 2.90688 25.5708 2.91969 25.5708C3.04219 25.5708 3.15908 25.6141 3.25276 25.6957L4.71473 26.9639C4.83002 27.064 4.98135 27.1113 5.13267 27.1032C5.28479 27.092 5.4265 27.0216 5.52658 26.9055L7.32483 24.8254C7.53219 24.586 7.50657 24.2225 7.26638 24.0152L5.80521 22.7462C5.59224 22.5612 5.56902 22.2377 5.75317 22.024L6.21514 21.4891C6.30481 21.3859 6.42811 21.3234 6.56422 21.3146C6.70193 21.3002 6.83083 21.3482 6.93411 21.4379L8.39609 22.7061C8.63548 22.9135 8.99817 22.8887 9.20554 22.6501L13.8028 17.3867C13.9037 17.2714 13.9541 17.1216 13.9437 16.9687C13.9333 16.8166 13.8621 16.6741 13.7468 16.574L12.4385 15.4395C10.9029 14.108 9.98776 12.2561 9.86046 10.2257C9.73316 8.19528 10.4121 6.24251 11.7708 4.72689C14.4858 1.70047 19.2848 1.48429 22.469 4.24651L27.8413 8.90625C31.0262 11.6685 31.4994 16.4571 28.8957 19.582C27.5947 21.1441 25.762 22.096 23.738 22.2602Z" fill="#A3EFE0"/>
<path d="M25.3375 8.9508L20.7266 4.95159C19.6201 3.99162 18.2038 3.52084 16.7458 3.62573C15.2855 3.73061 13.9532 4.39915 12.9948 5.50804C11.0172 7.79547 11.2662 11.2679 13.5497 13.2486L18.1606 17.2479C19.1654 18.1198 20.424 18.5881 21.7402 18.5881C21.8731 18.5881 22.006 18.5833 22.1406 18.5737C23.6009 18.4688 24.9332 17.8003 25.8924 16.6914C27.8707 14.404 27.6217 10.9316 25.3375 8.9508ZM25.0229 15.9396C24.2655 16.8155 23.2126 17.3439 22.0589 17.4264C20.9052 17.5105 19.7883 17.1374 18.9148 16.3792L14.3039 12.38C12.4984 10.8139 12.3015 8.06849 13.8651 6.25984C14.6225 5.38394 15.6746 4.85631 16.8283 4.77305C17.982 4.69138 19.0989 5.06288 19.9732 5.82029L24.5841 9.8195C26.3896 11.3856 26.5865 14.131 25.0229 15.9396Z" fill="#464860"/>
<path d="M37.1897 13.2272C37.3835 11.1831 37.0344 8.8869 35.4307 6.74679C31.6333 1.67632 25.3458 3.04061 23.8526 3.45454L22.4251 2.21675C18.7702 -0.952992 13.2489 -0.691983 10.1176 2.79802C8.55076 4.54502 7.76853 6.79643 7.91504 9.1367C8.06156 11.4778 9.11761 13.6123 10.8878 15.1471L11.7605 15.9037L7.91905 20.3009L6.89022 19.4081C6.55475 19.1175 6.12161 18.9758 5.68445 19.007C5.2417 19.039 4.83818 19.2408 4.54754 19.5771L4.08557 20.1111C3.48669 20.8037 3.56195 21.8549 4.25371 22.4546L5.28173 23.3465L4.23529 24.5571L3.20807 23.6668C2.8726 23.3761 2.44345 23.2296 2.0023 23.2656C1.55955 23.2977 1.15602 23.4994 0.866189 23.8357L0.404218 24.3697C-0.194662 25.0615 -0.119402 26.1135 0.572353 26.7132L1.60038 27.6051L1.16723 28.1063C0.690848 28.6572 0.458662 29.3898 0.529919 30.1151C0.601977 30.8509 0.963867 31.5067 1.54834 31.9622C2.01751 32.3281 2.57796 32.5059 3.14161 32.5059C3.92304 32.5059 4.71167 32.1656 5.27613 31.5131L15.7926 19.4025L16.6669 20.1607C18.4371 21.6964 20.6949 22.437 23.0336 22.2488C23.052 22.2472 23.0696 22.2432 23.088 22.2416C23.0176 22.7412 22.9703 23.2448 22.9703 23.7508V45.425C22.9703 45.7429 23.2281 45.9999 23.5452 45.9999H45.4251C45.743 45.9999 46 45.7421 46 45.425V23.7484C45.9984 18.4914 42.1881 14.1175 37.1897 13.2272ZM27.823 4.11267C30.6749 4.20074 32.9247 5.31844 34.5108 7.43614C35.8975 9.28802 36.2105 11.2896 36.0488 13.0895C35.8062 13.0727 35.5644 13.0526 35.3178 13.0526H33.6501C32.7213 13.0526 31.8038 13.1783 30.9143 13.4145C30.8334 10.999 29.779 8.59387 27.7982 6.87649L24.9183 4.37929C25.6325 4.23037 26.6637 4.07985 27.823 4.11267ZM22.9391 21.0999C20.9151 21.264 18.9543 20.6211 17.4187 19.2896L16.1104 18.1551C15.8702 17.947 15.5075 17.9726 15.2994 18.2128L4.40663 30.7589C3.84458 31.409 2.879 31.5419 2.2545 31.0551C1.92144 30.7957 1.71487 30.4218 1.67404 30.003C1.6332 29.5835 1.76211 29.1768 2.03673 28.8589L2.84538 27.923C3.05274 27.6836 3.02712 27.3201 2.78693 27.1127L1.32576 25.8445C1.11279 25.6596 1.08957 25.3353 1.27372 25.1215L1.73569 24.5867C1.82536 24.4834 1.94866 24.4218 2.08477 24.4122C2.09758 24.4114 2.10959 24.4106 2.1224 24.4106C2.2449 24.4106 2.36179 24.4538 2.45546 24.5355L3.91744 25.8037C4.03273 25.9038 4.18405 25.951 4.33537 25.943C4.48749 25.9318 4.62921 25.8613 4.72929 25.7452L6.52753 23.6652C6.7349 23.4258 6.70928 23.0623 6.46908 22.8549L5.00711 21.5867C4.79414 21.4017 4.77092 21.0783 4.95507 20.8645L5.41704 20.3297C5.50671 20.2264 5.63001 20.164 5.76612 20.1551C5.90383 20.1407 6.03273 20.1888 6.13602 20.2784L7.59799 21.5467C7.83738 21.754 8.20007 21.7292 8.40744 21.4906L13.0047 16.2272C13.1056 16.1119 13.1561 15.9622 13.1456 15.8093C13.1352 15.6571 13.064 15.5146 12.9487 15.4145L11.6404 14.28C10.1048 12.9486 9.18967 11.0967 9.06237 9.06625C8.93506 7.03582 9.61401 5.08305 10.9727 3.56744C13.6877 0.541007 18.4867 0.324833 21.6709 3.08705L27.0432 7.74679C30.2281 10.509 30.7013 15.2976 28.0976 18.4226C26.7958 19.9846 24.9639 20.9358 22.9391 21.0999ZM44.8487 44.8478H24.1184V23.7484C24.1184 23.176 24.1745 22.6043 24.2754 22.0447C26.1104 21.6251 27.7526 20.6323 28.9823 19.1567C30.0888 17.8285 30.7117 16.24 30.8783 14.6059C30.8879 14.6035 30.8967 14.6059 30.9063 14.6035C31.7926 14.3377 32.7149 14.2024 33.6493 14.2024H35.317C35.5076 14.2024 35.6941 14.22 35.8823 14.2312C35.7118 15.0807 35.4547 15.8605 35.1841 16.525C34.9583 16.4738 34.7246 16.4442 34.4836 16.4442C32.7486 16.4442 31.337 17.8501 31.337 19.5787C31.337 21.3065 32.7486 22.7132 34.4836 22.7132C36.2186 22.7132 37.6301 21.3073 37.6301 19.5787C37.6301 18.4962 37.076 17.5402 36.2362 16.9774C36.5428 16.2248 36.8342 15.3369 37.024 14.3649C41.4668 15.1735 44.8487 19.0695 44.8487 23.7492V44.8478ZM34.1537 19.5867C34.2546 19.6571 34.3691 19.6908 34.4836 19.6908C34.6645 19.6908 34.8423 19.6051 34.9543 19.4466C34.9671 19.4282 35.3226 18.9101 35.7486 18.0559C36.1913 18.4202 36.4804 18.9638 36.4804 19.5787C36.4804 20.6732 35.5844 21.5627 34.4844 21.5627C33.3835 21.5627 32.4876 20.6724 32.4876 19.5787C32.4876 18.485 33.3835 17.5939 34.4844 17.5939C34.554 17.5939 34.6197 17.6075 34.6877 17.6147C34.3218 18.3353 34.0248 18.77 34.0136 18.786C33.831 19.0455 33.8935 19.4041 34.1537 19.5867Z" fill="#464860"/>
<path d="M25.0231 15.9399C24.2657 16.8158 23.2128 17.3442 22.0591 17.4266C20.9054 17.5107 19.7885 17.1376 18.915 16.3794L14.3041 12.3802C12.4986 10.8141 12.3017 8.06874 13.8653 6.26009C14.6227 5.38419 15.6748 4.85656 16.8285 4.77329C17.9822 4.69163 19.0991 5.06313 19.9734 5.82053L24.5843 9.81974C26.3898 11.3858 26.5867 14.1312 25.0231 15.9399Z" fill="white"/>
</svg>
