<svg width="42" height="48" viewBox="0 0 42 48" fill="none" xmlns="http://www.w3.org/2000/svg">
<path d="M25.8665 43.7579C24.161 45.4634 21.6345 46.1648 18.7518 45.7284C15.7923 45.2819 12.8294 43.7018 10.4074 41.2782C10.165 41.0357 9.93254 40.7899 9.70932 40.5391C10.3957 40.7356 11.1055 40.8368 11.8195 40.8384C12.2065 40.8393 12.592 40.8067 12.974 40.7423C14.7272 40.4447 16.1167 39.4607 16.992 37.8973C17.1542 37.6297 17.0689 37.2811 16.8005 37.1189C16.533 36.9567 16.1844 37.042 16.0222 37.3104C16.0155 37.3221 16.0088 37.3338 16.0021 37.3463C15.2898 38.6179 14.2072 39.3862 12.7834 39.6279C11.108 39.9121 9.34899 39.3888 8.2496 38.6556C7.87506 38.0937 7.53647 37.5085 7.23633 36.9032C6.41452 35.2437 5.94885 33.57 5.85187 31.9288C5.77579 30.6388 5.98145 29.3957 6.19798 28.0798C6.51568 26.1619 6.84256 24.1788 6.2239 22.0628C5.8828 20.8966 5.4397 19.7922 5.09191 18.9587C4.98574 18.7045 4.88291 18.4437 4.78342 18.192C4.52258 17.5315 4.25254 16.8493 3.8897 16.183C3.32872 15.1539 2.80788 14.3429 2.39153 13.6908C1.81133 12.7871 1.39247 12.1333 1.36572 11.6668C1.349 11.3784 1.46187 10.9645 2.42163 10.0775C2.73013 9.79157 3.01856 9.60848 3.30364 9.51651C4.94561 8.98647 6.36017 10.8466 6.89105 11.671C8.35076 13.9324 9.60314 15.821 10.9692 17.6837L10.9726 17.6879C11.6723 18.6276 13.5542 21.348 13.8527 22.6272C13.938 22.9933 14.3041 23.2216 14.6703 23.1363C15.0365 23.051 15.2647 22.6848 15.1795 22.3187C15.0532 21.7761 14.7422 21.0956 14.3618 20.4008C14.9412 20.4142 15.5189 20.3506 16.0815 20.2127C17.4083 19.8908 18.6507 19.1794 19.674 18.1561L32.1425 5.68414C33.0639 4.76284 34.557 4.76284 35.4783 5.68414C36.3996 6.60545 36.3996 8.0986 35.4783 9.01991L27.1297 17.3668L23.3366 21.1599C21.8819 22.6104 21.8786 24.9655 23.3291 26.4202C24.2262 27.3206 25.5212 27.7002 26.7627 27.4268C26.5152 29.4233 27.9323 31.2433 29.9296 31.4908C30.3501 31.5426 30.7756 31.5217 31.1886 31.4272C31.0791 32.4915 31.4545 33.5482 32.2111 34.3048C32.7746 34.8692 33.5128 35.227 34.3045 35.3198L25.8665 43.7579Z" fill="white"/>
<path d="M39.3104 30.3145L37.8883 31.7366L36.2823 33.3426C35.4229 34.1995 34.0326 34.1995 33.1739 33.3426C32.317 32.4831 32.317 31.0928 33.1739 30.2342L36.2029 27.2053C37.0732 26.3584 38.4652 26.3776 39.3121 27.2487C40.1423 28.1015 40.1414 29.4617 39.3104 30.3145Z" fill="white"/>
<path d="M35.4566 22.7941C36.347 23.6862 36.347 25.1308 35.4566 26.0229L35.2393 26.2411L32.212 29.2684L31.9938 29.4866C31.1084 30.3845 29.6629 30.3945 28.765 29.5091C27.8671 28.6238 27.8571 27.1783 28.7425 26.2804C28.75 26.2729 28.7575 26.2653 28.765 26.2578L30.4981 24.5247L32.2304 22.7925C33.1216 21.9038 34.5654 21.9046 35.4566 22.7941Z" fill="white"/>
<path d="M29.7613 17.6392C31.0639 17.6392 32.1198 18.6951 32.1198 19.9976C32.1198 20.623 31.8715 21.2232 31.4292 21.6655L29.5322 23.5625L27.8 25.2964L27.6361 25.4602C26.7148 26.3815 25.2217 26.3815 24.3004 25.4602C23.379 24.5389 23.379 23.0458 24.3004 22.1245L25.9055 20.5185L28.0934 18.3306C28.5349 17.8866 29.1351 17.6375 29.7613 17.6392Z" fill="white"/>
<path d="M27.7571 44.4809C26.0516 46.1864 23.5251 46.8878 20.6425 46.4514C17.6829 46.0049 14.72 44.4248 12.298 42.0012C12.0556 41.7587 11.8232 41.5129 11.5999 41.2621C12.2863 41.4586 12.9961 41.5598 13.7101 41.5614C14.0972 41.5623 14.4826 41.5297 14.8646 41.4653C16.6178 41.1677 18.0073 40.1837 18.8826 38.6203C19.0448 38.3527 18.9595 38.0041 18.6912 37.8419C18.4236 37.6797 18.075 37.765 17.9128 38.0334C17.9061 38.0451 17.8994 38.0568 17.8928 38.0693C17.1805 39.3409 16.0978 40.1092 14.674 40.3509C12.9986 40.6351 11.2396 40.1118 10.1402 39.3786C9.76569 38.8167 9.4271 38.2315 9.12696 37.6262C8.30514 35.9667 7.83947 34.293 7.74249 32.6518C7.66641 31.3619 7.87208 30.1187 8.08861 28.8028C8.4063 26.8849 8.73319 24.9018 8.11453 22.7858C7.77342 21.6196 7.33033 20.5152 6.98254 19.6817C6.87636 19.4275 6.77353 19.1667 6.67404 18.915C6.4132 18.2546 6.14316 17.5723 5.78033 16.906C5.21935 15.8769 4.6985 15.0659 4.28216 14.4138C3.70195 13.5101 3.2831 12.8563 3.25635 12.3898C3.23963 12.1014 3.35249 11.6875 4.31225 10.8005C4.62075 10.5146 4.90918 10.3315 5.19427 10.2395C6.83623 9.70947 8.2508 11.5696 8.78168 12.394C10.2414 14.6554 11.4938 16.544 12.8598 18.4067L12.8632 18.4109C13.5629 19.3506 15.4448 22.071 15.7433 23.3502C15.8286 23.7163 16.1948 23.9446 16.561 23.8593C16.9271 23.774 17.1554 23.4079 17.0701 23.0417C16.9439 22.4991 16.6328 21.8186 16.2525 21.1238C16.8318 21.1372 17.4095 21.0736 17.9722 20.9357C19.299 20.6138 20.5413 19.9024 21.5646 18.8791L34.0332 6.40631C34.9545 5.48501 36.4476 5.48501 37.3689 6.40631C38.2902 7.32762 38.2902 8.82077 37.3689 9.74208L29.0203 18.089L25.2273 21.8821C23.7726 23.3326 23.7692 25.6877 25.2197 27.1424C26.1168 28.0428 27.4118 28.4215 28.6533 28.149C28.4058 30.1454 29.8229 31.9655 31.8202 32.2129C32.2407 32.2648 32.6663 32.2439 33.0793 32.1494C32.9697 33.2137 33.3451 34.2704 34.1017 35.027C34.6652 35.5913 35.4034 35.9492 36.1952 36.042L27.7571 44.4809Z" fill="#CCB8F4"/>
<path d="M41.3768 30.459L39.9547 31.8811L38.3487 33.4871C37.4893 34.344 36.099 34.344 35.2404 33.4871C34.3834 32.6277 34.3834 31.2373 35.2404 30.3787L38.2693 27.3498C39.1396 26.5029 40.5316 26.5221 41.3785 27.3933C42.2087 28.246 42.2078 29.6062 41.3768 30.459Z" fill="#CCB8F4"/>
<path d="M37.5221 22.9387C38.4124 23.8307 38.4124 25.2754 37.5221 26.1674L37.3047 26.3856L34.2774 29.4129L34.0592 29.6311C33.1739 30.529 31.7284 30.539 30.8305 29.6537C29.9326 28.7683 29.9225 27.3228 30.8079 26.4249C30.8154 26.4174 30.8229 26.4099 30.8305 26.4024L32.5635 24.6693L34.2958 22.937C35.187 22.0483 36.6308 22.0491 37.5221 22.9387Z" fill="#CCB8F4"/>
<path d="M31.8267 17.7837C33.1293 17.7837 34.1852 18.8396 34.1852 20.1421C34.1852 20.7675 33.9369 21.3678 33.4946 21.81L31.5977 23.707L29.8654 25.4409L29.7016 25.6048C28.7802 26.5261 27.2871 26.5261 26.3658 25.6048C25.4445 24.6835 25.4445 23.1903 26.3658 22.269L27.971 20.663L30.1589 18.4751C30.6003 18.0312 31.2014 17.782 31.8267 17.7837Z" fill="#CCB8F4"/>
<path d="M40.2736 26.242C39.517 25.4854 38.4594 25.1091 37.3943 25.2195C37.8432 23.2598 36.6184 21.3069 34.6588 20.8579C34.2458 20.7634 33.8186 20.7417 33.3981 20.7935C33.4541 20.5327 33.4817 20.2668 33.4817 20.001C33.4808 18.0881 32.0311 16.488 30.1275 16.2982L36.4395 9.98616C37.8934 8.53314 37.8942 6.1772 36.442 4.72335C34.989 3.26949 32.6331 3.26865 31.1792 4.72084L18.7115 17.1886C17.8654 18.0346 16.8446 18.6215 15.7603 18.8849C14.9468 19.0822 14.1259 19.0847 13.4646 18.8974C12.8116 17.8816 12.1988 17.0498 12.0659 16.8726C10.7215 15.0375 9.48254 13.1698 8.03788 10.9292C6.55225 8.62845 4.67452 7.63942 2.88541 8.21629C2.4072 8.37012 1.9524 8.65102 1.49509 9.07322C0.684142 9.82397 -0.0582541 10.6659 0.00361222 11.7418C0.0487579 12.5662 0.525296 13.3052 1.24261 14.4238C1.65143 15.0575 2.15472 15.8459 2.69313 16.8308C3.01583 17.4235 3.25912 18.038 3.51662 18.6884C3.61861 18.9467 3.72395 19.2126 3.83431 19.4801C4.16872 20.2794 4.59343 21.3395 4.9153 22.4414C5.44785 24.2581 5.15858 26.0054 4.85343 27.8538C4.63355 29.1856 4.40532 30.5626 4.48976 32.0047C4.59761 33.8289 5.11009 35.6791 6.01301 37.5025C6.86409 39.2222 8.01781 40.8173 9.44074 42.2386C12.0675 44.8654 15.2988 46.5818 18.5451 47.0709C19.1504 47.1637 19.7615 47.2105 20.3744 47.2113C21.2831 47.2155 22.1885 47.0984 23.0664 46.8635C24.5353 46.4656 25.8002 45.7432 26.826 44.7166L37.2455 34.3038L40.2727 31.2765C41.6614 29.8854 41.6614 27.6331 40.2736 26.242ZM35.4564 22.7942C36.3467 23.6862 36.3467 25.1309 35.4564 26.0229L35.239 26.2411L32.2117 29.2684L31.9935 29.4866C31.1082 30.3845 29.6627 30.3945 28.7648 29.5092C27.8669 28.6238 27.8568 27.1783 28.7422 26.2804C28.7497 26.2729 28.7572 26.2654 28.7648 26.2578L30.4979 24.5248L32.2301 22.7925C33.1213 21.9038 34.5652 21.9046 35.4564 22.7942ZM29.7613 17.6392C31.0639 17.6392 32.1198 18.6951 32.1198 19.9976C32.1198 20.623 31.8715 21.2233 31.4292 21.6655L29.5322 23.5625L27.8 25.2964L27.6361 25.4603C26.7148 26.3816 25.2217 26.3816 24.3004 25.4603C23.3791 24.539 23.3791 23.0458 24.3004 22.1245L25.9055 20.5185L28.0934 18.3306C28.5349 17.8867 29.1351 17.6375 29.7613 17.6392ZM25.8662 43.7577C24.1607 45.4632 21.6343 46.1646 18.7516 45.7282C15.7921 45.2817 12.8292 43.7016 10.4072 41.278C10.1647 41.0355 9.93232 40.7897 9.7091 40.5389C10.3955 40.7354 11.1053 40.8366 11.8192 40.8382C12.2063 40.8391 12.5917 40.8065 12.9738 40.7421C14.727 40.4445 16.1164 39.4605 16.9918 37.8971C17.154 37.6295 17.0687 37.2809 16.8003 37.1187C16.5328 36.9565 16.1842 37.0418 16.022 37.3102C16.0153 37.3219 16.0086 37.3336 16.0019 37.3461C15.2896 38.6177 14.207 39.386 12.7832 39.6277C11.1078 39.9119 9.34877 39.3886 8.24939 38.6554C7.87485 38.0935 7.53626 37.5083 7.23612 36.903C6.4143 35.2435 5.94863 33.5698 5.85165 31.9286C5.77557 30.6386 5.98124 29.3955 6.19777 28.0796C6.51546 26.1617 6.84235 24.1786 6.22369 22.0626C5.88259 20.8964 5.43949 19.792 5.0917 18.9585C4.98552 18.7043 4.88269 18.4435 4.7832 18.1918C4.52236 17.5313 4.25232 16.8491 3.88949 16.1828C3.32851 15.1537 2.80766 14.3427 2.39132 13.6906C1.81111 12.7869 1.39226 12.1331 1.36551 11.6666C1.34879 11.3782 1.46165 10.9643 2.42142 10.0773C2.72991 9.79137 3.01834 9.60828 3.30343 9.51631C4.94539 8.98627 6.35996 10.8464 6.89084 11.6708C8.35055 13.9322 9.60293 15.8208 10.969 17.6835L10.9723 17.6877C11.6721 18.6274 13.554 21.3478 13.8525 22.627C13.9377 22.9931 14.3039 23.2214 14.6701 23.1361C15.0363 23.0508 15.2645 22.6846 15.1793 22.3185C15.053 21.7759 14.742 21.0954 14.3616 20.4006C14.941 20.414 15.5187 20.3504 16.0813 20.2125C17.4081 19.8906 18.6505 19.1792 19.6738 18.1559L32.1423 5.68395C33.0636 4.76264 34.5568 4.76264 35.4781 5.68395C36.3994 6.60525 36.3994 8.0984 35.4781 9.01971L27.1295 17.3666L23.3364 21.1597C21.8817 22.6102 21.8784 24.9653 23.3289 26.42C24.226 27.3204 25.521 27.7 26.7625 27.4266C26.515 29.4231 27.9321 31.2431 29.9294 31.4906C30.3499 31.5424 30.7754 31.5215 31.1884 31.427C31.0789 32.4913 31.4543 33.548 32.2109 34.3046C32.7744 34.869 33.5126 35.2268 34.3043 35.3196L25.8662 43.7577ZM39.3105 30.3143L37.8884 31.7364L36.2824 33.3424C35.4229 34.1993 34.0326 34.1993 33.174 33.3424C32.3171 32.4829 32.3171 31.0926 33.174 30.234L36.2029 27.2051C37.0732 26.3582 38.4652 26.3774 39.3121 27.2485C40.1423 28.1013 40.1415 29.4615 39.3105 30.3143Z" fill="#464860"/>
<path d="M12.3965 8.56156C12.6474 8.84163 13.0779 8.86587 13.358 8.61506C13.6381 8.36425 13.6623 7.9337 13.4115 7.65363C13.3956 7.63607 13.3797 7.61935 13.3622 7.6043L9.95701 4.16236C9.69199 3.89483 9.2606 3.89316 8.9939 4.15734C8.72637 4.42236 8.7247 4.85376 8.98889 5.12045L12.3965 8.56156Z" fill="#A3EFE0"/>
<path d="M15.0248 6.4833C15.0951 6.79347 15.371 7.01335 15.6887 7.01335C15.7396 7.01335 15.7898 7.00749 15.84 6.99663C16.207 6.91302 16.4369 6.54851 16.3533 6.1815L15.2823 1.45875C15.2079 1.09006 14.8484 0.851795 14.4797 0.926202C14.1111 1.00061 13.8728 1.3601 13.9472 1.72879C13.9489 1.73882 13.9514 1.74969 13.9539 1.75973L15.0248 6.4833Z" fill="#A3EFE0"/>
<path d="M18.7751 6.97835C19.1304 7.10208 19.5183 6.91481 19.6421 6.5595L21.2314 1.98557C21.3551 1.63025 21.167 1.2415 20.8117 1.1186C20.4564 0.99487 20.0676 1.18298 19.9447 1.53829L18.3554 6.11222C18.2317 6.4667 18.4198 6.85462 18.7751 6.97835Z" fill="#A3EFE0"/>
<path d="M21.2766 8.5149C21.5124 8.80751 21.9413 8.85349 22.2347 8.61773L26.0035 5.57792C26.297 5.34216 26.3438 4.91327 26.1072 4.61983C25.8706 4.32638 25.4426 4.27956 25.1491 4.51616L21.3794 7.55848C21.0868 7.79424 21.0409 8.22229 21.2766 8.5149Z" fill="#A3EFE0"/>
</svg>
