<svg width="36" height="21" viewBox="0 0 36 21" fill="none" xmlns="http://www.w3.org/2000/svg">
<path d="M35.2976 19.1057H27.8223C27.9003 18.8859 27.9431 18.6496 27.9431 18.4033V17.7009H31.4121C33.9219 17.7009 35.9638 15.6591 35.9638 13.1492C35.9638 11.9334 35.4904 10.7903 34.6307 9.93059L34.1777 9.47764L30.2442 5.54411C30.2441 5.54404 30.2441 5.54397 30.2439 5.5439L28.2399 3.53991C25.9572 1.2572 22.9222 0 19.6939 0H0.702458C0.314541 0 3.05176e-05 0.31451 3.05176e-05 0.702427C3.05176e-05 1.09027 0.314471 1.40486 0.702458 1.40486H19.6939C22.5469 1.40486 25.2291 2.51587 27.2465 4.53329L28.0516 5.33838H19.9576C18.4858 5.33838 17.2885 6.53581 17.2885 8.00753C17.2885 9.47925 18.4859 10.6767 19.9576 10.6767H33.39L33.6373 10.924C34.2316 11.5183 34.559 12.3086 34.559 13.1492C34.559 14.8844 33.1473 16.2961 31.4121 16.2961H27.2407H24.4311H7.34142H4.53178H0.702458C0.314541 16.2961 3.05176e-05 16.6106 3.05176e-05 16.9985C3.05176e-05 17.3864 0.314471 17.701 0.702458 17.701H3.82935V18.4034C3.82935 18.6496 3.87217 18.8859 3.95015 19.1058H0.738669C0.350752 19.1058 0.0362417 19.4203 0.0362417 19.8082C0.0362417 20.1961 0.350682 20.5107 0.738669 20.5107H12.5393C12.9272 20.5107 13.2417 20.1962 13.2417 19.8082C13.2417 19.4204 12.9273 19.1058 12.5393 19.1058H7.92305C8.00102 18.8859 8.04384 18.6497 8.04384 18.4034V17.701H23.7286V18.4034C23.7286 18.6496 23.7715 18.8859 23.8494 19.1058H18.0213C17.6333 19.1058 17.3188 19.4203 17.3188 19.8082C17.3188 20.1961 17.6333 20.5107 18.0213 20.5107H35.2976C35.6855 20.5107 36 20.1962 36 19.8082C36 19.4203 35.6856 19.1057 35.2976 19.1057ZM19.9576 9.2719C19.2605 9.2719 18.6932 8.70469 18.6932 8.00753C18.6932 7.31038 19.2605 6.74316 19.9576 6.74316H29.4565L31.9852 9.27183H19.9576V9.2719ZM6.63899 18.4033C6.63899 18.7906 6.32392 19.1057 5.93656 19.1057C5.54928 19.1057 5.23413 18.7907 5.23413 18.4033V17.7009H6.63899V18.4033ZM26.5384 18.4033C26.5384 18.7906 26.2233 19.1057 25.8359 19.1057C25.4486 19.1057 25.1335 18.7907 25.1335 18.4033V17.7009H26.5384V18.4033Z" fill="white"/>
<path d="M15.7753 19.3115C15.6447 19.1809 15.4635 19.1057 15.2787 19.1057C15.094 19.1057 14.9127 19.1808 14.7821 19.3115C14.6515 19.4422 14.5763 19.6234 14.5763 19.8081C14.5763 19.9929 14.6515 20.1741 14.7821 20.3047C14.9127 20.4353 15.0939 20.5106 15.2787 20.5106C15.4634 20.5106 15.6447 20.4354 15.7753 20.3047C15.906 20.1741 15.9811 19.9929 15.9811 19.8081C15.9811 19.6234 15.906 19.4422 15.7753 19.3115Z" fill="white"/>
<path d="M11.6602 5.33838H0.702458C0.314541 5.33838 3.05176e-05 5.65289 3.05176e-05 6.04081C3.05176e-05 6.42865 0.314471 6.74323 0.702458 6.74323H11.6602C12.3573 6.74323 12.9246 7.31045 12.9246 8.0076C12.9246 8.70476 12.3573 9.27197 11.6601 9.27197H0.702458C0.314541 9.27197 3.05176e-05 9.58648 3.05176e-05 9.9744C3.05176e-05 10.3623 0.314471 10.6768 0.702458 10.6768H11.6602C13.132 10.6768 14.3293 9.4794 14.3293 8.00767C14.3293 6.53595 13.1319 5.33838 11.6602 5.33838Z" fill="white"/>
</svg>