<svg width="20" height="20" viewBox="0 0 20 20" fill="none" xmlns="http://www.w3.org/2000/svg">
<path d="M19.4637 14.8216L16.3095 11.6522C15.5936 10.9286 14.4316 10.9272 13.714 11.6491C13.713 11.6501 13.712 11.6511 13.7109 11.6522L11.9037 13.4745C11.767 13.6128 11.5515 13.6319 11.393 13.5198C10.4039 12.8228 9.47792 12.0387 8.62605 11.1768C7.8631 10.4092 7.16125 9.58225 6.52695 8.70354C6.41198 8.54569 6.42869 8.32683 6.56622 8.18854L8.41834 6.32089C9.13341 5.59843 9.13341 4.42863 8.41834 3.70618L5.26414 0.525526C4.5373 -0.175175 3.39241 -0.175175 2.66557 0.525526L1.66657 1.5329C0.157832 3.03718 -0.380772 5.2708 0.274642 7.30565C0.763719 8.7944 1.45504 10.2076 2.32882 11.505C3.11545 12.6945 4.0179 13.8017 5.02282 14.8102C6.11535 15.9198 7.32555 16.9048 8.63164 17.7475C10.0674 18.6923 11.6439 19.3992 13.3012 19.8415C13.7273 19.9475 14.1645 20.0007 14.6033 20C16.1076 19.9907 17.5467 19.3801 18.605 18.3021L19.4638 17.4362C20.1788 16.7138 20.1788 15.544 19.4637 14.8216ZM18.6689 16.6644C18.6682 16.6651 18.6675 16.6659 18.6667 16.6666L18.6723 16.6496L17.8135 17.5155C16.7102 18.6422 15.1034 19.1057 13.5761 18.738C12.0374 18.3227 10.5746 17.6616 9.24325 16.7798C8.00635 15.9827 6.86008 15.0508 5.82523 14.001C4.87306 13.0478 4.01764 12.0013 3.27152 10.8769C2.45543 9.66702 1.80949 8.34905 1.35205 6.96044C0.827649 5.32916 1.2622 3.53917 2.47457 2.33661L3.47357 1.32923C3.75133 1.04789 4.20265 1.04689 4.48159 1.32697C4.48231 1.3277 4.4831 1.32843 4.48382 1.32923L7.63803 4.50988C7.91703 4.78996 7.91802 5.24507 7.64027 5.52634C7.63954 5.52707 7.63882 5.5278 7.63803 5.5286L5.7859 7.39625C5.25447 7.9263 5.18765 8.76861 5.62878 9.37712C6.29866 10.3042 7.03997 11.1765 7.84574 11.9862C8.74411 12.896 9.72075 13.7237 10.7642 14.4594C11.3671 14.8835 12.1846 14.812 12.7061 14.2897L14.4965 12.456C14.7742 12.1746 15.2256 12.1736 15.5045 12.4537C15.5052 12.4544 15.506 12.4552 15.5067 12.456L18.6666 15.648C18.9457 15.928 18.9467 16.383 18.6689 16.6644Z" fill="#464860"/>
</svg>
