<svg width="35" height="35" viewBox="0 0 35 35" fill="none" xmlns="http://www.w3.org/2000/svg">
<path d="M33.2746 12.3819C34.0488 11.6077 34.0488 10.3523 33.2746 9.58364L30.6367 6.94579L33.1529 4.42406L30.5703 1.84151L28.0542 4.3577L25.4163 1.71985C25.0403 1.3438 24.5481 1.13919 24.0172 1.13919C23.4863 1.13919 22.9886 1.3438 22.6181 1.71985C21.8439 2.49406 21.8494 3.74939 22.6181 4.51807L30.4763 12.3819C30.8524 12.7579 31.3501 12.9625 31.8755 12.9625C32.4063 12.9625 32.904 12.7524 33.2746 12.3819Z" fill="white"/>
<path d="M24.3103 14.8759L29.0773 19.6429C29.5473 20.1129 30.1722 20.3729 30.8414 20.3729C31.505 20.3729 32.1354 20.1129 32.6055 19.6429C33.0755 19.1728 33.3354 18.5479 33.3354 17.8843C33.3354 17.2207 33.0755 16.5903 32.6055 16.1202L18.8743 2.389C18.3876 1.90235 17.7516 1.65903 17.1102 1.65903C16.4742 1.65903 15.8327 1.90235 15.3461 2.389C14.3728 3.3623 14.3728 4.9439 15.3461 5.9172L21.6891 12.2547L24.3103 14.8759Z" fill="white"/>
<path d="M22.701 14.8759L22.3582 14.5331L20.218 12.3929L12.393 20.2125L13.6317 21.4512L14.876 22.701L22.701 14.8759Z" fill="white"/>
<path d="M16.1202 32.6054C17.0935 33.5787 18.6751 33.5787 19.6484 32.6054C20.1185 32.1354 20.3784 31.5105 20.3784 30.8413C20.3784 30.1777 20.1185 29.5473 19.6484 29.0772L14.8815 24.3103L12.8243 22.2531L5.92276 15.3515C5.4527 14.8815 4.8278 14.6216 4.15866 14.6216C3.49505 14.6216 2.86461 14.8815 2.39456 15.3515C1.9245 15.8216 1.66458 16.4465 1.66458 17.1156C1.66458 17.7792 1.9245 18.4041 2.39456 18.8797L16.1202 32.6054Z" fill="white"/>
<path d="M1.84167 30.5759L4.42422 33.1584L6.94041 30.6422L9.57827 33.2801C10.3525 34.0543 11.6078 34.0488 12.3765 33.2801C12.7525 32.9096 12.9572 32.4119 12.9572 31.881C12.9572 31.3501 12.7525 30.8579 12.3765 30.4819L4.51823 22.6181C4.13112 22.231 3.62236 22.0374 3.11912 22.0374C2.61035 22.0374 2.10711 22.231 1.72001 22.6181C0.945792 23.3923 0.945792 24.6476 1.72001 25.4163L4.35786 28.0542L1.84167 30.5759Z" fill="white"/>
<path d="M32.1354 12.5754C32.9096 11.8012 32.9096 10.5459 32.1354 9.7772L29.4976 7.13935L32.0137 4.61762L29.4312 2.03507L26.915 4.55126L24.2771 1.91341C23.9011 1.53736 23.4089 1.33275 22.878 1.33275C22.3471 1.33275 21.8494 1.53736 21.4789 1.91341C20.7047 2.68762 20.7102 3.94295 21.4789 4.71164L29.3372 12.5754C29.7132 12.9515 30.2109 13.1561 30.7363 13.1561C31.2672 13.1506 31.7649 12.9459 32.1354 12.5754Z" fill="#CCB8F4"/>
<path d="M21.5619 15.0695L21.219 14.7266L19.0789 12.5865L11.2538 20.406L12.4925 21.6448L13.7368 22.8946L21.5619 15.0695Z" fill="#CCB8F4"/>
<path d="M0.702386 30.7694L3.28494 33.352L5.80113 30.8358L8.43898 33.4737C9.2132 34.2479 10.4685 34.2423 11.2372 33.4737C11.6133 33.1031 11.8179 32.6054 11.8179 32.0745C11.8179 31.5437 11.6133 31.0515 11.2372 30.6754L3.37895 22.8172C2.99184 22.4301 2.48307 22.2365 1.97984 22.2365C1.47107 22.2365 0.96783 22.4301 0.580723 22.8172C-0.19349 23.5914 -0.19349 24.8467 0.580723 25.6154L3.21858 28.2533L0.702386 30.7694Z" fill="#CCB8F4"/>
<path d="M23.2209 15.0695L27.9878 19.8365C28.4579 20.3065 29.0828 20.5664 29.7519 20.5664C30.4155 20.5664 31.0459 20.3065 31.516 19.8365C31.9861 19.3664 32.246 18.7415 32.246 18.0724C32.246 17.4087 31.9861 16.7783 31.516 16.3083L17.7848 2.58256C17.2981 2.09591 16.6622 1.85259 16.0207 1.85259C15.3847 1.85259 14.7432 2.09591 14.2566 2.58256C13.2833 3.55586 13.2833 5.13746 14.2566 6.11076L20.5941 12.4482L23.2209 15.0695Z" fill="#A3EFE0"/>
<path d="M15.0309 32.799C16.0042 33.7723 17.5858 33.7723 18.5591 32.799C19.0291 32.3289 19.2891 31.704 19.2891 31.0349C19.2891 30.3713 19.0291 29.7409 18.5591 29.2708L13.7921 24.5039L11.735 22.4467L4.8334 15.5451C4.36334 15.075 3.73844 14.8151 3.0693 14.8151C2.40569 14.8151 1.77526 15.075 1.3052 15.5451C0.835142 16.0152 0.575224 16.6401 0.575224 17.3092C0.575224 17.9728 0.835142 18.5977 1.3052 19.0733L15.0309 32.799Z" fill="#A3EFE0"/>
<path d="M0.912506 26.2237C-0.304115 25.0071 -0.304115 23.0273 0.912506 21.8107C1.44339 21.2798 2.11807 20.9812 2.81486 20.9148L1.58165 19.6816C0.895916 18.9959 0.519871 18.0834 0.519871 17.1156C0.519871 16.1479 0.895916 15.2354 1.58165 14.5441C2.26738 13.8584 3.17984 13.4824 4.14761 13.4824C5.12091 13.4824 6.02784 13.8584 6.7191 14.5441L11.5856 19.4106L19.4107 11.5911L14.5442 6.72459C13.1285 5.30889 13.1285 3.00284 14.5442 1.58714C15.9599 0.171433 18.2659 0.171433 19.6816 1.58714L20.9149 2.82035C20.9812 2.12356 21.2798 1.44888 21.8107 0.917995C22.3969 0.326275 23.1822 0 24.0172 0C24.8523 0 25.632 0.326276 26.2237 0.912465L28.0597 2.74846L30.5759 0.226734L34.7677 4.42407L32.2515 6.94027L34.0875 8.77626C35.3042 9.99288 35.3042 11.9727 34.0875 13.1893C33.5732 13.7036 32.9041 14.0188 32.1852 14.0851L33.4129 15.3128C34.0986 15.9986 34.4746 16.911 34.4746 17.8843C34.4746 18.8576 34.0986 19.7701 33.4129 20.4558C32.7271 21.1415 31.8147 21.5176 30.8414 21.5176C29.8681 21.5176 28.9556 21.1415 28.2699 20.4558L23.5029 15.6889L15.6834 23.5029L20.4503 28.2698C21.1361 28.9556 21.5121 29.868 21.5121 30.8413C21.5121 31.8146 21.1361 32.7271 20.4503 33.4128C19.7425 34.1207 18.8134 34.4746 17.8788 34.4746C16.9498 34.4746 16.0207 34.1207 15.3073 33.4128L14.0797 32.1851C14.0078 32.9041 13.6981 33.5677 13.1783 34.0875C12.5699 34.6958 11.7681 35 10.9717 35C10.1754 35 9.37355 34.6958 8.76524 34.0875L6.92925 32.2515L4.41306 34.7677L0.221245 30.5759L2.73743 28.0597L0.912506 26.2237ZM33.2746 12.3819C34.0488 11.6077 34.0488 10.3523 33.2746 9.58365L30.6368 6.9458L33.1529 4.42407L30.5704 1.84152L28.0542 4.35771L25.4163 1.71986C25.0403 1.34381 24.5481 1.1392 24.0172 1.1392C23.4863 1.1392 22.9886 1.34381 22.6181 1.71986C21.8439 2.49407 21.8494 3.7494 22.6181 4.51809L30.4764 12.3819C30.8524 12.7579 31.3501 12.9625 31.8755 12.9625C32.4064 12.9625 32.9041 12.7524 33.2746 12.3819ZM24.3103 14.876L29.0773 19.6429C29.5473 20.1129 30.1722 20.3729 30.8414 20.3729C31.505 20.3729 32.1354 20.1129 32.6055 19.6429C33.0755 19.1728 33.3354 18.5479 33.3354 17.8843C33.3354 17.2207 33.0755 16.5903 32.6055 16.1202L18.8742 2.389C18.3876 1.90235 17.7516 1.65903 17.1101 1.65903C16.4742 1.65903 15.8327 1.90235 15.3461 2.389C14.3728 3.3623 14.3728 4.9439 15.3461 5.9172L21.6891 12.2547L24.3103 14.876ZM22.7011 14.876L22.3582 14.5331L20.2181 12.3929L12.3985 20.2125L13.6317 21.4457L14.8815 22.6955L22.7011 14.876ZM16.1203 32.6054C17.0936 33.5787 18.6752 33.5787 19.6485 32.6054C20.1185 32.1354 20.3784 31.5105 20.3784 30.8413C20.3784 30.1777 20.1185 29.5473 19.6485 29.0772L14.8815 24.3103L12.8243 22.2531L5.92277 15.3515C5.45271 14.8815 4.82781 14.6216 4.15867 14.6216C3.49506 14.6216 2.86463 14.8815 2.39457 15.3515C1.92451 15.8216 1.6646 16.4465 1.6646 17.1156C1.6646 17.7793 1.92451 18.4042 2.39457 18.8797L16.1203 32.6054ZM1.84156 30.5759L4.42412 33.1584L6.94031 30.6422L9.57816 33.2801C10.3524 34.0543 11.6077 34.0488 12.3764 33.2801C12.7524 32.9096 12.9571 32.4119 12.9571 31.881C12.9571 31.3501 12.7524 30.8579 12.3764 30.4819L4.51813 22.6181C4.13102 22.231 3.62225 22.0374 3.11901 22.0374C2.61024 22.0374 2.10701 22.231 1.7199 22.6181C0.945686 23.3923 0.945686 24.6476 1.7199 25.4163L4.35775 28.0542L1.84156 30.5759Z" fill="#464860"/>
</svg>
