<svg width="22" height="22" viewBox="0 0 22 22" fill="none" xmlns="http://www.w3.org/2000/svg">
<path d="M4.40939 18.2183V17.9779L4.22152 17.8277C1.91443 15.9842 0.5 13.2871 0.5 10.3552C0.5 4.88097 5.27684 0.5 10.9979 0.5C16.7149 0.5 21.4959 4.87705 21.5 10.3513C21.4998 15.7299 16.8226 20.1632 11.0021 20.1632C10.0441 20.1632 9.09396 20.0398 8.17665 19.8012L7.9922 19.7532L7.82261 19.8402L4.62206 21.4816L4.62203 21.4815L4.61539 21.485C4.57575 21.5061 4.52391 21.5056 4.48025 21.4788L4.48026 21.4788L4.47599 21.4763C4.43668 21.4527 4.40939 21.4068 4.40939 21.355V18.2183ZM8.01137 19.4624L8.01136 19.4625L8.0162 19.4638C8.9769 19.739 9.9813 19.8785 10.9979 19.8785C16.5917 19.8785 21.2069 15.6409 21.2069 10.3552C21.2069 5.05028 16.5941 0.789034 10.9979 0.789034C5.40161 0.789034 0.788811 5.05028 0.788811 10.3552C0.788811 13.2482 2.20405 15.9569 4.63994 17.7887L4.64381 17.7916C4.67518 17.8147 4.6982 17.8566 4.6982 17.9047V20.3023V21.1202L5.42614 20.7473L7.90925 19.4755L7.90927 19.4755L7.91529 19.4723C7.94648 19.4558 7.97891 19.4528 8.01137 19.4624Z" fill="#4F2D87" stroke="#4F2D87" stroke-miterlimit="10"/>
<path d="M17.3779 7.00402L17.3806 7.00267C17.4362 6.97439 17.5039 6.987 17.5471 7.04194L17.547 7.042L17.5533 7.04965C17.5963 7.10225 17.5967 7.17526 17.5541 7.22854L17.9339 7.53232L17.5541 7.22854L12.4011 13.6709C12.3686 13.7099 12.3304 13.7257 12.2978 13.7272L12.2973 13.7272C12.2563 13.7292 12.2133 13.7125 12.1849 13.6841L9.93378 11.4326L9.67903 11.1778L9.35672 11.3388L4.61998 13.7054C4.55387 13.7374 4.47971 13.717 4.44165 13.6694C4.39868 13.6157 4.39868 13.54 4.44165 13.4862L9.59462 7.04393C9.62578 7.00666 9.66765 6.98905 9.69849 6.98758C9.73945 6.98563 9.78249 7.00234 9.81087 7.03073L10.1645 6.6772L9.81087 7.03073L12.062 9.28224L12.3169 9.53723L12.6394 9.37583L17.3779 7.00401L17.3779 7.00402ZM11.8819 12.9649L12.2771 13.3594L12.6257 12.9232L15.4998 9.3268L16.9217 7.54746L14.8853 8.56761L12.3552 9.835C12.3552 9.83501 12.3552 9.83502 12.3551 9.83503C12.2977 9.86373 12.234 9.85317 12.1892 9.80837L12.1888 9.808L10.1181 7.74125L9.72315 7.34702L9.37451 7.78277L6.50046 11.3749L5.0801 13.1501L7.11421 12.1346L9.64457 10.8713L9.64488 10.8712C9.70232 10.8425 9.76606 10.853 9.81087 10.8978L9.81124 10.8982L11.8819 12.9649Z" fill="#4F2D87" stroke="#4F2D87" stroke-miterlimit="10"/>
</svg>
