<svg width="38" height="38" viewBox="0 0 38 38" fill="none" xmlns="http://www.w3.org/2000/svg">
<path d="M13.5779 22.7714C12.0262 24.4237 9.65723 24.8975 6.73743 24.1395C3.81763 23.3814 1.98165 21.8178 1.43086 19.6147C0.74977 16.9081 2.08234 13.4316 4.74747 10.9619C4.99029 10.7368 5.19758 10.5236 5.3871 10.3163C5.80167 10.6124 6.35839 10.9204 7.229 11.1514C8.47273 11.4712 9.22489 11.3409 9.95336 11.2165C10.6167 11.0981 11.2445 10.9915 12.2987 11.2639C13.3529 11.5364 13.8504 11.9391 14.3716 12.3655L14.5729 12.5254C14.5788 12.5313 14.5907 12.5313 14.6025 12.5373C14.6736 12.8689 14.7624 13.2183 14.8868 13.5974C16.018 17.0561 15.4909 20.7399 13.5779 22.7714Z" fill="white"/>
<path d="M14.4722 24.0506C12.9205 25.703 10.5515 26.1768 7.63172 25.4187C4.71192 24.6547 2.87594 23.0912 2.32515 20.8939C1.64406 18.1873 2.97662 14.7108 5.64175 12.2411C5.88458 12.0161 6.09186 11.8029 6.28139 11.5956C6.69596 11.8917 7.25268 12.1997 8.12329 12.4306C9.36701 12.7505 10.1192 12.6202 10.8476 12.4958C11.511 12.3773 12.1388 12.2707 13.193 12.5432C14.2472 12.8156 14.7447 13.2183 15.2658 13.6448L15.4672 13.8047C15.4731 13.8106 15.485 13.8106 15.4968 13.8165C15.5679 14.1482 15.6567 14.4976 15.7811 14.8766C16.9123 18.3295 16.3852 22.0192 14.4722 24.0506Z" fill="#CCB8F4"/>
<path d="M6.20897 18.8431L4.57886 19.1785L4.9142 20.8086L6.54431 20.4732L6.20897 18.8431Z" fill="white"/>
<path d="M6.86776 13.1887L7.7206 14.6398L6.28143 15.4808L5.44043 14.0475L6.86776 13.1887Z" fill="white"/>
<path d="M12.6012 13.6735L10.9417 13.7973L11.0655 15.4568L12.725 15.333L12.6012 13.6735Z" fill="white"/>
<path d="M11.0638 18.7918L10.0581 20.1177L11.384 21.1234L12.3897 19.7975L11.0638 18.7918Z" fill="white"/>
<path d="M1.91655 4.60108C2.5325 2.23208 4.96073 0.80475 7.32381 1.42069C9.56252 2.0011 10.9543 4.20427 10.5812 6.44298L6.2696 5.32363C6.11562 5.28217 5.95571 5.32363 5.84318 5.43615C5.73065 5.54276 5.67735 5.69675 5.71289 5.85073C5.73065 5.93957 5.76027 6.04025 5.78396 6.14686C5.9794 6.90494 6.25183 8.00653 4.74159 9.6826C2.32521 9.00151 1.40722 6.57328 1.91655 4.60108Z" fill="white"/>
<path d="M1.20586 3.67717C1.8218 1.30816 4.25003 -0.119162 6.61312 0.496779C8.85183 1.07719 10.2436 3.28036 9.8705 5.51907L5.55891 4.39972C5.40492 4.35826 5.24502 4.39972 5.13249 4.51224C5.01996 4.61885 4.96666 4.77876 5.00219 4.93274C5.01996 5.02158 5.04957 5.12226 5.07326 5.22887C5.26871 5.98695 5.54114 7.08854 4.0309 8.76461C1.61451 8.08352 0.696525 5.65529 1.20586 3.67717Z" fill="#A3EFE0"/>
<path d="M7.08683 18.6019C6.99207 18.1459 6.54195 17.8498 6.08592 17.9445L4.33878 18.3058C4.11965 18.3532 3.9242 18.4776 3.79983 18.6671C3.67546 18.8566 3.634 19.0817 3.67546 19.3008L4.03673 21.0479C4.08411 21.2671 4.20848 21.4566 4.39801 21.5869C4.475 21.6402 4.56384 21.6757 4.65267 21.6994C4.77705 21.729 4.90734 21.7349 5.03171 21.7112L6.77886 21.35C7.23489 21.2552 7.53102 20.811 7.43625 20.3491L7.08683 18.6019ZM4.91326 20.8051L4.57568 19.1705L6.21029 18.8329L6.54788 20.4675L4.91326 20.8051Z" fill="#464860"/>
<path d="M6.05039 16.381C6.26952 16.4402 6.5005 16.4047 6.69002 16.2921L8.22987 15.3919C8.42532 15.2794 8.56154 15.0958 8.62076 14.8767C8.67999 14.6575 8.64445 14.4325 8.53192 14.237L7.6317 12.6972C7.51917 12.5017 7.33558 12.3655 7.11644 12.3063C6.89731 12.2471 6.67225 12.2826 6.47681 12.3951L4.93696 13.3013C4.53423 13.5382 4.39801 14.0594 4.63491 14.4621L5.54105 16.0019C5.64766 16.1855 5.83126 16.3277 6.05039 16.381ZM6.8677 13.1887L7.72054 14.6398L6.28137 15.4867L5.43445 14.0475L6.8677 13.1887Z" fill="#464860"/>
<path d="M10.4627 16.1678C10.5634 16.2566 10.6759 16.3158 10.8003 16.3455C10.8891 16.3691 10.9839 16.3751 11.0787 16.3691L12.8554 16.2388C13.0805 16.2211 13.2878 16.1204 13.4358 15.9486C13.5839 15.7769 13.655 15.5578 13.6372 15.3327L13.5069 13.556C13.4714 13.094 13.0627 12.7386 12.6008 12.7742L10.824 12.9045C10.5989 12.9222 10.3917 13.0229 10.2436 13.1947C10.0955 13.3664 10.0245 13.5856 10.0422 13.8106L10.1725 15.5874C10.1844 15.8124 10.291 16.0197 10.4627 16.1678ZM12.6008 13.6744L12.7251 15.3327L11.0668 15.4571L10.9425 13.7988L12.6008 13.6744Z" fill="#464860"/>
<path d="M12.9857 19.1113L11.5643 18.0334C11.1911 17.755 10.6581 17.8261 10.3797 18.1992L9.30185 19.6206C9.01757 19.9937 9.09456 20.5267 9.46768 20.8051L10.8891 21.883C10.9779 21.9541 11.0845 22.0015 11.1852 22.0251C11.505 22.1081 11.8604 21.9955 12.0736 21.7172L13.1515 20.2958C13.4298 19.9226 13.3588 19.3896 12.9857 19.1113ZM11.3866 21.1249L10.0599 20.1181L11.0668 18.7914L12.3934 19.7983L11.3866 21.1249Z" fill="#464860"/>
<path d="M4.75926 5.3355C4.82441 5.09267 4.67635 4.84985 4.43353 4.7847L3.28456 4.48858C3.04174 4.42343 2.79891 4.56557 2.73377 4.80839C2.66862 5.05121 2.81668 5.29996 3.0595 5.35919L4.20847 5.65531C4.45129 5.72046 4.70004 5.57832 4.75926 5.3355Z" fill="#464860"/>
<path d="M6.58939 4.2576C6.83221 4.32275 7.08095 4.17469 7.14018 3.93186L7.43631 2.7829C7.50145 2.54007 7.35339 2.29133 7.11057 2.2321C6.86774 2.16695 6.619 2.31502 6.55977 2.55784L6.26365 3.70681C6.20442 3.94963 6.34656 4.19838 6.58939 4.2576Z" fill="#464860"/>
<path d="M4.29741 6.31272L3.27281 6.91681C3.0596 7.04118 2.98261 7.31954 3.1129 7.53868C3.17805 7.64528 3.27873 7.71635 3.39126 7.74596C3.50379 7.77558 3.62816 7.76373 3.73477 7.69858L4.75936 7.09449C4.97257 6.97011 5.04957 6.69176 4.91927 6.47262C4.78898 6.25349 4.51654 6.18834 4.29741 6.31272Z" fill="#464860"/>
<path d="M7.78567 5.16375C7.8982 5.19336 8.02257 5.18152 8.12918 5.11637L9.15377 4.51227C9.36698 4.3879 9.44397 4.10954 9.31368 3.89041C9.18338 3.67128 8.91095 3.6002 8.69182 3.7305L7.66722 4.3346C7.45401 4.45897 7.37702 4.73733 7.50731 4.95646C7.57246 5.06307 7.67314 5.13414 7.78567 5.16375Z" fill="#464860"/>
<path d="M4.83034 4.2576C4.89549 4.36421 4.99617 4.43528 5.1087 4.46489C5.22123 4.4945 5.3456 4.48266 5.4522 4.41751C5.66541 4.29314 5.74241 4.01478 5.61211 3.80157L5.01394 2.77697C4.88364 2.55784 4.60528 2.48677 4.39207 2.61707C4.17886 2.74144 4.10187 3.0198 4.23217 3.23301L4.83034 4.2576Z" fill="#464860"/>
<path d="M16.5392 8.66393C16.6399 8.54548 16.6754 8.37965 16.628 8.23159C16.5807 8.08353 16.4622 7.96508 16.3082 7.92954L11.4577 6.66805C11.9552 3.94369 10.2732 1.24895 7.54882 0.538245C4.70009 -0.202069 1.77437 1.51546 1.03405 4.36419C0.441802 6.63843 1.41309 9.39832 4.019 10.3992C1.19396 13.0821 -0.203751 16.8548 0.542485 19.8338C0.980751 21.5632 2.32516 23.8256 6.21033 24.9272L3.36752 35.9193L0.566175 35.1909C0.323352 35.1257 0.0746066 35.2738 0.0153815 35.5166C-0.0497662 35.7594 0.0982966 36.0082 0.34112 36.0674L6.82035 37.7494C7.06317 37.8145 7.31192 37.6665 7.37114 37.4237C7.43629 37.1808 7.28823 36.9321 7.0454 36.8729L4.24406 36.1444L7.09871 25.1463C10.8536 25.9399 13.0449 24.6547 14.2413 23.3873C16.3734 21.1249 16.9834 17.0739 15.7574 13.3131C14.8335 10.4762 15.7397 9.51678 16.3378 8.88307C16.4089 8.812 16.48 8.735 16.5392 8.66393ZM14.4545 11.2698C13.9925 10.9382 13.4358 10.6184 12.5356 10.3815C11.2918 10.0616 10.5397 10.1919 9.81122 10.3163C9.1479 10.4348 8.52011 10.5414 7.4659 10.2689C6.76112 10.0853 6.31694 9.84844 5.96751 9.60561C6.95657 8.22567 6.92695 7.15369 6.77297 6.38377L15.3606 8.61655C14.9046 9.14958 14.4249 9.93135 14.4545 11.2698ZM1.91651 4.60109C2.53245 2.23208 4.96068 0.804758 7.32376 1.4207C9.56247 2.00111 10.9543 4.20428 10.5811 6.44299L6.26956 5.32364C6.11557 5.28218 5.95566 5.32364 5.84313 5.43616C5.73061 5.54277 5.6773 5.69675 5.71284 5.85074C5.73061 5.93958 5.76022 6.04026 5.78391 6.14687C5.97935 6.90495 6.25179 8.00654 4.74155 9.68261C2.32516 9.00152 1.40717 6.57329 1.91651 4.60109ZM13.5779 22.7714C12.0262 24.4237 9.65723 24.8975 6.73743 24.1395C3.81764 23.3814 1.98166 21.8178 1.43086 19.6147C0.749773 16.9081 2.08234 13.4316 4.74747 10.9619C4.99029 10.7368 5.19758 10.5236 5.3871 10.3163C5.80168 10.6124 6.35839 10.9204 7.229 11.1514C8.47273 11.4712 9.22489 11.3409 9.95336 11.2165C10.6167 11.0981 11.2445 10.9915 12.2987 11.2639C13.3529 11.5364 13.8504 11.9391 14.3716 12.3655L14.5729 12.5254C14.5788 12.5313 14.5907 12.5313 14.6025 12.5373C14.6736 12.8689 14.7624 13.2183 14.8868 13.5974C16.018 17.0561 15.4909 20.7399 13.5779 22.7714Z" fill="#464860"/>
<path d="M23.2968 12.8807C23.433 12.5076 23.5396 12.1582 23.6225 11.8325C23.6344 11.8265 23.6403 11.8265 23.6521 11.8206L23.8594 11.6666C24.3984 11.2639 24.9077 10.8789 25.9737 10.648C27.0339 10.417 27.6557 10.5473 28.3191 10.6894C29.0416 10.8434 29.7938 11.0033 31.0493 10.7309C31.9318 10.5354 32.4944 10.2452 32.9268 9.96687C33.1104 10.186 33.3117 10.4051 33.5427 10.6361C36.1131 13.2065 37.3154 16.7363 36.5277 19.4133C35.888 21.5928 33.9988 23.0852 31.0493 23.7308C28.1059 24.3763 25.7605 23.8137 24.2681 22.1021C22.4262 19.9996 22.0412 16.2921 23.2968 12.8807Z" fill="white"/>
<path d="M22.3551 14.1245C22.4913 13.7514 22.5979 13.4019 22.6809 13.0762C22.6927 13.0703 22.6986 13.0703 22.7105 13.0644L22.9178 12.9104C23.4567 12.5076 23.966 12.1227 25.0321 11.8917C26.0922 11.6607 26.7141 11.791 27.3774 11.9332C28.1 12.0871 28.8521 12.247 30.1077 11.9746C30.9901 11.7792 31.5528 11.489 31.9851 11.2106C32.1687 11.4297 32.3701 11.6489 32.6011 11.8799C35.1714 14.4502 36.3737 17.98 35.586 20.657C34.9464 22.8365 33.0571 24.329 30.1077 24.9745C27.1642 25.6201 24.8189 25.0574 23.3264 23.3458C21.4845 21.2374 21.0995 17.5359 22.3551 14.1245Z" fill="#A3EFE0"/>
<path d="M31.7685 18.4581L31.3716 20.0743L32.9877 20.4712L33.3846 18.855L31.7685 18.4581Z" fill="white"/>
<path d="M32.7315 13.6921L31.8312 15.0958L30.4276 14.1956L31.3338 12.7801L32.7315 13.6921Z" fill="white"/>
<path d="M25.5796 13.0533L25.3922 14.7069L27.0458 14.8943L27.2332 13.2407L25.5796 13.0533Z" fill="white"/>
<path d="M26.9214 18.2166L25.5581 19.171L26.5125 20.5344L27.8759 19.5799L26.9214 18.2166Z" fill="white"/>
<path d="M33.5901 9.36277C32.145 7.62748 32.4648 6.53774 32.6839 5.7915C32.7136 5.68489 32.7432 5.59013 32.7669 5.5013C32.8024 5.34731 32.7609 5.1874 32.6543 5.07488C32.5477 4.96235 32.3878 4.91497 32.2338 4.9505L27.8749 5.90403C27.5847 3.65347 29.0653 1.5036 31.3218 1.00611C33.7145 0.479005 36.0835 2.00109 36.6046 4.38786C37.0429 6.38375 36.0361 8.77052 33.5901 9.36277Z" fill="white"/>
<path d="M34.3364 8.46847C32.8913 6.73318 33.2111 5.64343 33.4303 4.8972C33.4599 4.79059 33.4895 4.69583 33.5132 4.60699C33.5487 4.45301 33.5073 4.2931 33.4007 4.18057C33.2941 4.06805 33.1342 4.02067 32.9802 4.0562L28.6212 5.00973C28.331 2.75917 29.8116 0.609298 32.0681 0.111807C34.4608 -0.415297 36.8298 1.10679 37.351 3.49356C37.7892 5.48945 36.7765 7.88214 34.3364 8.46847Z" fill="#CCB8F4"/>
<path d="M30.4808 19.9108C30.3683 20.3668 30.6466 20.8228 31.1026 20.9354L32.832 21.3618C32.9564 21.3914 33.0867 21.3973 33.2111 21.3677C33.2999 21.3499 33.3887 21.3144 33.4717 21.2611C33.6671 21.1427 33.8033 20.9591 33.8566 20.7399L34.283 19.0105C34.3363 18.7914 34.3008 18.5664 34.1824 18.3709C34.0639 18.1755 33.8803 18.0393 33.6612 17.986L31.9318 17.5595C31.4817 17.447 31.0197 17.7254 30.9072 18.1814L30.4808 19.9108ZM31.3751 20.0707L31.7719 18.4538L33.3887 18.8506L32.9919 20.4675L31.3751 20.0707Z" fill="#464860"/>
<path d="M32.5596 15.6347L33.519 14.1304C33.7678 13.7395 33.6552 13.2124 33.2644 12.9637L31.76 12.0042C31.5705 11.8798 31.3455 11.8443 31.1204 11.8917C30.9013 11.9391 30.7118 12.0694 30.5874 12.2648L29.6279 13.7691C29.5036 13.9586 29.468 14.1837 29.5154 14.4028C29.5628 14.622 29.6931 14.8115 29.8885 14.9359L31.3928 15.8953C31.5824 16.0197 31.8074 16.0552 32.0266 16.0078C32.2516 15.9545 32.4411 15.8242 32.5596 15.6347ZM32.7313 13.6921L31.8311 15.0958L30.4275 14.1955L31.3336 12.7801L32.7313 13.6921Z" fill="#464860"/>
<path d="M27.9459 15.0543L28.1473 13.2835C28.171 13.0584 28.1058 12.8393 27.9696 12.6616C27.8275 12.4839 27.6261 12.3714 27.4011 12.3477L25.6302 12.1464C25.1683 12.0931 24.7478 12.4306 24.6945 12.8926L24.4931 14.6634C24.4694 14.8885 24.5286 15.1076 24.6708 15.2853C24.8129 15.463 25.0143 15.5755 25.2393 15.5992L27.0102 15.8006C27.1049 15.8124 27.1997 15.8065 27.2885 15.7887C27.4129 15.7591 27.5314 15.7058 27.632 15.6229C27.8097 15.4748 27.9163 15.2794 27.9459 15.0543ZM27.2412 13.2361L27.0516 14.8885L25.3993 14.699L25.5888 13.0466L27.2412 13.2361Z" fill="#464860"/>
<path d="M24.7834 19.6383L25.808 21.1012C26.0094 21.3914 26.3588 21.5158 26.6845 21.4447C26.7911 21.421 26.8918 21.3796 26.9866 21.3144L28.4494 20.2898C28.8285 20.0233 28.9232 19.4962 28.6567 19.1112L27.6321 17.6484C27.3656 17.2634 26.8385 17.1746 26.4536 17.4411L24.9907 18.4657C24.6117 18.7322 24.5169 19.2593 24.7834 19.6383ZM25.5593 19.1705L26.9214 18.2169L27.875 19.5791L26.5128 20.5326L25.5593 19.1705Z" fill="#464860"/>
<path d="M34.2772 5.35916L35.438 5.1045C35.6808 5.05119 35.8348 4.80837 35.7815 4.56555C35.7282 4.32272 35.4853 4.16874 35.2425 4.22204L34.0817 4.47671C33.8389 4.53001 33.6849 4.77283 33.7382 5.01566C33.7915 5.25848 34.0343 5.41247 34.2772 5.35916Z" fill="#464860"/>
<path d="M32.2931 3.32773L32.0384 2.16692C31.9851 1.9241 31.7423 1.77011 31.4994 1.82341C31.2566 1.87672 31.1026 2.11954 31.1559 2.36236L31.4106 3.52317C31.4639 3.766 31.7067 3.91998 31.9495 3.86668C32.1924 3.81338 32.3464 3.57648 32.2931 3.32773Z" fill="#464860"/>
<path d="M33.5368 6.14685C33.4006 6.36006 33.4657 6.63842 33.673 6.77464L34.6739 7.41427C34.7805 7.47942 34.899 7.49718 35.0174 7.47349C35.13 7.4498 35.2366 7.37873 35.3017 7.27805C35.4379 7.06484 35.3728 6.78648 35.1655 6.65026L34.1646 6.01063C33.9514 5.87442 33.673 5.93364 33.5368 6.14685Z" fill="#464860"/>
<path d="M31.0079 4.52408C31.1441 4.31087 31.079 4.03251 30.8717 3.89629L29.8708 3.25666C29.6576 3.12044 29.3792 3.18559 29.243 3.39288C29.1068 3.60016 29.1719 3.88445 29.3792 4.02066L30.3801 4.66029C30.4867 4.72544 30.6052 4.74321 30.7236 4.71952C30.8361 4.70175 30.9427 4.63068 31.0079 4.52408Z" fill="#464860"/>
<path d="M34.3483 2.93093C34.4845 2.71772 34.4193 2.43936 34.2121 2.30314C33.9988 2.16693 33.7205 2.23207 33.5843 2.43936L32.9446 3.44027C32.8084 3.65348 32.8736 3.93184 33.0809 4.06805C33.1875 4.1332 33.3059 4.15097 33.4244 4.12728C33.5369 4.10359 33.6435 4.03252 33.7086 3.93184L34.3483 2.93093Z" fill="#464860"/>
<path d="M22.0353 8.12497C22.6098 8.78237 23.4804 9.77143 22.4499 12.5728C21.0818 16.2862 21.5378 20.355 23.5811 22.7003C24.7241 24.0092 26.8681 25.3832 30.6466 24.7317L33.0808 35.8305L30.2558 36.4524C30.0129 36.5057 29.859 36.7485 29.9123 36.9913C29.9656 37.2341 30.2084 37.3881 30.4512 37.3348L36.9897 35.9016C37.2325 35.8483 37.3865 35.6054 37.3332 35.3626C37.2799 35.1198 37.037 34.9658 36.7942 35.0191L33.9692 35.641L31.535 24.5481C35.4616 23.5946 36.889 21.3855 37.3924 19.6739C38.2571 16.7245 37.0015 12.9044 34.2831 10.1149C36.9245 9.22064 38.0024 6.49628 37.499 4.19835C36.8653 1.32001 34.0166 -0.504127 31.1382 0.123659C28.3902 0.727755 26.6075 3.35735 26.9984 6.09948L22.1005 7.17145C21.9465 7.20698 21.8221 7.31359 21.7688 7.46165C21.7155 7.60972 21.7451 7.77555 21.8458 7.894C21.8991 7.96507 21.9642 8.04206 22.0353 8.12497ZM23.0244 7.88807L31.6949 5.98695C31.5113 6.75687 31.4403 7.82293 32.376 9.23841C32.0147 9.46346 31.5646 9.68852 30.8539 9.8425C29.7938 10.0735 29.1719 9.94318 28.5086 9.80104C27.7861 9.64706 27.0339 9.48715 25.7843 9.75959C24.8781 9.96095 24.3036 10.2571 23.8358 10.571C23.9068 9.23841 23.4567 8.43887 23.0244 7.88807ZM33.5901 9.36278C32.145 7.62748 32.4649 6.53774 32.684 5.7915C32.7136 5.6849 32.7432 5.59014 32.7669 5.5013C32.8024 5.34732 32.761 5.18741 32.6544 5.07488C32.5478 4.96235 32.3879 4.91497 32.2339 4.95051L27.8749 5.90403C27.5847 3.65348 29.0653 1.5036 31.3218 1.00611C33.7145 0.47901 36.0835 2.0011 36.6047 4.38787C37.043 6.38376 36.0361 8.77053 33.5901 9.36278ZM23.2968 12.8808C23.433 12.5076 23.5396 12.1582 23.6225 11.8325C23.6344 11.8265 23.6403 11.8265 23.6522 11.8206L23.8594 11.6666C24.3984 11.2639 24.9077 10.8789 25.9738 10.648C27.0339 10.417 27.6558 10.5473 28.3191 10.6894C29.0416 10.8434 29.7938 11.0033 31.0494 10.7309C31.9318 10.5354 32.4945 10.2452 32.9268 9.96688C33.1104 10.186 33.3118 10.4051 33.5428 10.6361C36.1131 13.2065 37.3154 16.7363 36.5277 19.4133C35.8881 21.5928 33.9988 23.0852 31.0494 23.7308C28.1059 24.3764 25.7606 23.8137 24.2681 22.1021C22.4262 19.9996 22.0412 16.2921 23.2968 12.8808Z" fill="#464860"/>
</svg>
