<svg width="35" height="39" viewBox="0 0 35 39" fill="none" xmlns="http://www.w3.org/2000/svg">
<path fill-rule="evenodd" clip-rule="evenodd" d="M30.7787 3.75667C30.7787 3.3911 31.0532 3.11726 31.4188 3.11726C31.7843 3.11726 32.0588 3.39177 32.0588 3.75733V6.95635C32.0588 7.32191 31.7843 7.59642 31.4188 7.59642C31.0532 7.59642 30.7787 7.32191 30.7787 6.95635V3.75667Z" fill="white"/>
<path fill-rule="evenodd" clip-rule="evenodd" d="M3.89917 1.81984C3.89917 1.45428 4.17368 1.18044 4.53924 1.18044C4.9048 1.18044 5.17931 1.45494 5.17931 1.81984V5.01819C5.17931 5.38375 4.9048 5.65826 4.53924 5.65826C4.17368 5.65826 3.89917 5.38375 3.89917 5.01819V1.81984Z" fill="white"/>
<path fill-rule="evenodd" clip-rule="evenodd" d="M8.46472 32.3697C9.82528 23.9511 11.7216 13.8024 12.5311 5.44624C12.6474 4.88526 13.0469 4.25516 13.5959 3.82912C14.1462 3.40307 14.8129 3.18107 15.4982 3.30204C16.886 3.5473 17.8085 4.8846 17.556 6.31827C15.5533 14.2377 13.673 23.6772 12.0114 32.5186C11.451 32.4674 10.8901 32.4288 10.3284 32.4036C9.7083 32.3763 9.08618 32.365 8.46472 32.3697Z" fill="white"/>
<path fill-rule="evenodd" clip-rule="evenodd" d="M23.6848 33.6904C23.3591 31.4026 21.4934 18.3899 20.2963 12.3335C20.1189 10.8885 21.1099 9.6037 22.509 9.43221C23.2002 9.3478 23.8516 9.60237 24.3787 10.057C24.9051 10.511 25.2713 11.1637 25.3584 11.7293C25.5471 16.0011 25.9506 20.3386 26.4232 24.6795C26.7302 27.4618 27.266 32.0772 27.4408 33.5814C26.1872 33.5514 24.933 33.5887 23.6848 33.6904Z" fill="white"/>
<path fill-rule="evenodd" clip-rule="evenodd" d="M31.3104 4.15546C31.3104 3.7899 31.5849 3.51606 31.9505 3.51606C32.3161 3.51606 32.5906 3.79056 32.5906 4.15613V7.35514C32.5906 7.72071 32.3161 7.99521 31.9505 7.99521C31.5849 7.99521 31.3104 7.72071 31.3104 7.35514V4.15546Z" fill="#CCB8F4"/>
<path fill-rule="evenodd" clip-rule="evenodd" d="M4.43079 2.21864C4.43079 1.85308 4.70529 1.57924 5.07085 1.57924C5.43642 1.57924 5.71092 1.85374 5.71092 2.21864V5.41699C5.71092 5.78256 5.43642 6.05706 5.07085 6.05706C4.70529 6.05706 4.43079 5.78256 4.43079 5.41699V2.21864Z" fill="#A3EFE0"/>
<path fill-rule="evenodd" clip-rule="evenodd" d="M9.5481 33.705C10.9087 25.2864 12.8049 15.1377 13.6145 6.78154C13.7308 6.22057 14.1303 5.59047 14.6793 5.16442C15.2296 4.73837 15.8963 4.51638 16.5815 4.63734C17.9694 4.8826 18.8919 6.2199 18.6393 7.65358C16.6367 15.573 14.7564 25.0125 13.0947 33.8532C12.5344 33.802 11.9734 33.7635 11.4118 33.7382C10.7917 33.711 10.1696 33.6997 9.5481 33.705Z" fill="#CCB8F4"/>
<path fill-rule="evenodd" clip-rule="evenodd" d="M24.7681 35.0257C24.4425 32.7379 22.5767 19.7252 21.3797 13.6688C21.2022 12.2238 22.1932 10.939 23.5923 10.7675C24.2836 10.6831 24.935 10.9377 25.462 11.3923C25.9885 11.8463 26.3547 12.499 26.4418 13.0646C26.6305 17.3364 27.034 21.6739 27.5065 26.0149C27.8136 28.7971 28.3493 33.4125 28.5241 34.9167C27.2706 34.8868 26.0164 34.9233 24.7681 35.0257Z" fill="#A3EFE0"/>
<path fill-rule="evenodd" clip-rule="evenodd" d="M34.2708 34.3916L34.2482 34.4886C33.5204 34.3304 32.78 34.1935 32.0435 34.0812L31.9591 34.0686V32.4468H32.3785C32.5247 32.4481 32.661 32.3943 32.764 32.2939C32.8677 32.1935 32.9255 32.0586 32.9275 31.9144C32.9295 31.7702 32.875 31.6339 32.7747 31.5302C32.6743 31.4265 32.5394 31.3687 32.3951 31.3667C32.3898 31.3667 32.3852 31.3667 32.3812 31.3667H31.9591V8.69311L32.0249 8.66918C32.7507 8.40863 33.2386 7.72004 33.2386 6.95502V3.75667C33.2386 2.75303 32.4217 1.93682 31.4181 1.93682C30.4144 1.93682 29.5976 2.75303 29.5976 3.75667V6.95568C29.5976 7.72071 30.0854 8.4093 30.8112 8.66984L30.877 8.69377V31.3674H30.4749C30.328 31.3654 30.1924 31.4199 30.0894 31.5202C29.9864 31.6206 29.9279 31.7555 29.9259 31.8998C29.9239 32.044 29.9784 32.1802 30.0788 32.2839C30.1791 32.3876 30.3141 32.4454 30.4583 32.4474C30.4636 32.4474 30.4683 32.4474 30.4723 32.4474H30.877V33.9243L30.766 33.9117C30.0888 33.8333 29.4035 33.7734 28.7302 33.7336L28.6464 33.7289L28.6365 33.6458C28.4723 32.2387 27.912 27.4239 27.5949 24.5539C27.2061 20.9834 26.7335 16.2862 26.5295 11.615C26.5288 11.5924 26.5275 11.5724 26.5248 11.5525C26.3906 10.6751 25.8888 9.80442 25.149 9.16635C24.3328 8.46313 23.3438 8.1421 22.3641 8.26241L22.2604 8.27503C20.2724 8.57613 18.8706 10.4405 19.1212 12.481C19.1225 12.4923 19.1252 12.5056 19.1272 12.5176C20.293 18.4025 22.1467 31.283 22.5063 33.8047L22.5209 33.9057L22.4192 33.9177C21.6236 34.0114 20.8207 34.133 20.0338 34.2799L20.0085 34.2846L19.9839 34.2766C17.8058 33.5581 15.548 33.0476 13.2722 32.7578L13.1671 32.7445L13.1864 32.6409C14.5224 25.5336 16.5489 15.0978 18.7091 6.56353C18.7124 6.54957 18.7157 6.53628 18.7177 6.52299C19.08 4.4652 17.7267 2.50046 15.7008 2.14287L15.6184 2.12625C14.6699 1.98335 13.6982 2.25453 12.872 2.89527C12.0984 3.49479 11.5513 4.33825 11.3712 5.20829C11.3672 5.22756 11.3646 5.2475 11.3626 5.26744C10.7551 11.5711 9.52945 18.8451 8.34369 25.8793C7.95819 28.1677 7.59329 30.3298 7.25697 32.4215L7.24434 32.5019L7.16325 32.5053C6.51388 32.5338 5.84855 32.5817 5.18655 32.6475L5.07688 32.6581V31.1686H5.49628C5.64184 31.1706 5.77876 31.1161 5.88178 31.0158C5.98481 30.9154 6.0433 30.7805 6.04529 30.6362C6.04928 30.3385 5.81067 30.0925 5.51223 30.0886C5.50692 30.0886 5.50293 30.0886 5.49827 30.0886H5.07555V6.75628L5.14135 6.73236C5.86716 6.47181 6.35502 5.78322 6.35502 5.01819V1.81984C6.35901 0.816204 5.54281 0 4.53917 0C3.53553 0 2.71866 0.816204 2.71866 1.81984V5.01819C2.71866 5.78322 3.20652 6.47181 3.93233 6.73236L3.99813 6.75628V30.0872H3.59601C3.45245 30.0866 3.31353 30.1397 3.21051 30.2401C3.10682 30.3405 3.049 30.4754 3.047 30.6196C3.04501 30.7639 3.09951 30.9001 3.19987 31.0038C3.30024 31.1075 3.43516 31.1653 3.5794 31.1673C3.58471 31.1673 3.58937 31.1673 3.59335 31.1673H3.99813V32.7844L3.91173 32.7964C2.73461 32.9559 1.56016 33.1746 0.42159 33.4458C0.280017 33.4777 0.159714 33.5627 0.0832775 33.685C0.00684139 33.8073 -0.0184157 33.9516 0.013488 34.0925C0.0792895 34.3829 0.369747 34.5657 0.660204 34.4993L0.66818 34.4973C3.31287 33.8672 6.02535 33.5521 8.73783 33.5521C11.679 33.5521 14.6188 33.9223 17.4708 34.6608L17.8404 34.7565L17.4715 34.8535C15.314 35.4218 13.1997 36.1961 11.1871 37.1539C11.0515 37.2131 10.9498 37.3187 10.8967 37.453C10.8435 37.5873 10.8468 37.7342 10.904 37.8664C11.0229 38.1396 11.3413 38.2652 11.6152 38.1462C11.6265 38.1416 11.6378 38.1363 11.6484 38.1303C15.1159 36.4793 18.8055 35.4198 22.618 34.9791C26.4298 34.5391 30.2642 34.7292 34.0142 35.5448C34.3067 35.6092 34.5958 35.4245 34.6596 35.1333C34.6909 34.9924 34.6656 34.8475 34.5878 34.7259C34.5101 34.6043 34.3898 34.5199 34.2482 34.4886L34.2708 34.3916ZM4.53917 5.75796C4.11777 5.75796 3.7994 5.44025 3.7994 5.01819V1.81984C3.7994 1.39845 4.11711 1.08074 4.53917 1.08074C4.74255 1.08074 4.92999 1.15585 5.06624 1.29277C5.20316 1.42969 5.27827 1.61712 5.27827 1.81984V5.01819C5.27894 5.44025 4.96056 5.75796 4.53917 5.75796ZM12.093 32.6262L12.0027 32.6183C11.431 32.5664 10.8667 32.5279 10.3244 32.5039C9.70824 32.4767 9.08279 32.4654 8.46532 32.47L8.34701 32.4707L8.36562 32.3544C8.68865 30.3544 9.03627 28.2926 9.40382 26.1092C10.5889 19.0764 11.8139 11.8051 12.4314 5.43693L12.4327 5.4263C12.5583 4.82212 12.9804 4.18006 13.534 3.75068C14.1415 3.2801 14.8454 3.08602 15.5147 3.20433C16.953 3.45823 17.9128 4.86333 17.6529 6.33622L17.6516 6.34353C15.5094 14.814 13.5639 24.7919 12.1083 32.5372L12.093 32.6262ZM27.4394 33.6797C26.1952 33.6511 24.935 33.6884 23.6927 33.7894L23.599 33.7967L23.5857 33.7037C23.2288 31.1939 21.387 18.3699 20.1986 12.3514L20.1973 12.3441C20.0158 10.8612 21.0467 9.50998 22.4963 9.33118C23.1716 9.24876 23.8629 9.47874 24.4438 9.97923C24.9742 10.4372 25.363 11.1005 25.4574 11.7113L25.4587 11.722C25.6222 15.4142 25.9499 19.4061 26.5235 24.6656C26.8233 27.3854 27.3351 31.7961 27.5411 33.5661L27.5544 33.6797H27.4394ZM31.4187 7.69479C30.9973 7.69479 30.679 7.37708 30.679 6.95502V3.75667C30.679 3.33527 30.9967 3.01756 31.4187 3.01756C31.6221 3.01756 31.8096 3.09267 31.9465 3.22959C32.0834 3.36651 32.1585 3.55394 32.1585 3.75733V6.95635C32.1585 7.37708 31.8401 7.69479 31.4187 7.69479Z" fill="#464860"/>
</svg>
