<svg width="47" height="47" viewBox="0 0 47 47" fill="none" xmlns="http://www.w3.org/2000/svg">
<path d="M1.16162 18.5699L22.1222 31.6872L1.16162 44.8045V18.5699Z" fill="white"/>
<path d="M23.2161 32.3715L43.8301 45.2721H2.60205L23.2161 32.3715Z" fill="white"/>
<path d="M24.3101 31.6872L45.2707 18.5699V44.8045L24.3101 31.6872Z" fill="white"/>
<path d="M44.8479 17.4657L39.9658 20.5209V13.5811L44.8479 17.4657Z" fill="white"/>
<path d="M21.3007 1.8476C22.4566 0.931421 24.0691 0.933015 25.2219 1.85158L30.5087 6.05805H15.9868L21.3007 1.8476Z" fill="white"/>
<path d="M6.92766 13.2345V20.8101L1.58594 17.4665L6.92766 13.2345Z" fill="white"/>
<path d="M2.25537 19.212L23.216 32.3293L2.25537 45.4458V19.212Z" fill="#CCB8F4"/>
<path d="M24.3099 33.0137L44.9231 45.9135H3.6958L24.3099 33.0137Z" fill="#CCB8F4"/>
<path d="M26.0396 31.7916L47.0002 18.6743V44.9089L26.0396 31.7916Z" fill="#CCB8F4"/>
<path d="M45.9414 18.1078L41.0586 21.1631V14.2232L45.9414 18.1078Z" fill="#CCB8F4"/>
<path d="M22.3949 2.48969C23.5509 1.57351 25.1634 1.5751 26.3161 2.49367L31.6029 6.70014H17.0811L22.3949 2.48969Z" fill="#CCB8F4"/>
<path d="M8.02142 13.8766V21.4515L2.67969 18.1086L8.02142 13.8766Z" fill="#CCB8F4"/>
<path d="M38.8043 7.21802V21.2475L23.2157 31.0028L8.08838 21.5359V7.21802H38.8043Z" fill="white"/>
<path d="M39.0663 8.45685L38.9141 21.6913L23.4354 31.4307L9.60352 22.7747V8.45685H39.0663Z" fill="#A3EFE0"/>
<path d="M46.4312 17.5222C46.4312 17.5143 46.4272 17.5071 46.4264 17.4991C46.424 17.4338 46.4121 17.3709 46.389 17.3111C46.3866 17.3047 46.3858 17.2976 46.3826 17.2912C46.3571 17.2315 46.3189 17.1789 46.2743 17.1303C46.2639 17.1191 46.2543 17.1088 46.2432 17.0992C46.232 17.0889 46.2241 17.0769 46.2121 17.0681L39.9646 12.0977V6.63803C39.9646 6.31696 39.7048 6.05725 39.3838 6.05725H32.3706C32.369 6.05565 32.3682 6.05326 32.3666 6.05247L25.9454 0.943369C24.3672 -0.312195 22.162 -0.314585 20.5798 0.936996L14.1171 6.05725H7.50869C7.18763 6.05725 6.92791 6.31696 6.92791 6.63803V11.771C6.908 11.783 6.88569 11.787 6.86657 11.8021L0.22068 17.0673C0.20873 17.0769 0.19917 17.0896 0.188016 17.1C0.177659 17.1096 0.168099 17.1199 0.157742 17.1303C0.113128 17.1789 0.0748878 17.2323 0.0485974 17.292C0.0462073 17.2984 0.0454107 17.3047 0.0430206 17.3111C0.019917 17.3709 0.0071701 17.4338 0.00478007 17.4991C0.00478007 17.5071 0 17.5143 0 17.5222V45.8521C0 46.1732 0.259717 46.4329 0.580778 46.4329H45.8504H45.8512C45.9197 46.4329 45.9867 46.4162 46.0512 46.3923C46.0655 46.3867 46.0799 46.3819 46.0934 46.3755C46.1524 46.3484 46.2065 46.3134 46.2543 46.2672C46.2623 46.26 46.2671 46.2505 46.2743 46.2425C46.2982 46.2162 46.3229 46.1907 46.342 46.1596C46.3499 46.1469 46.3507 46.1318 46.3571 46.1182C46.3754 46.0832 46.3874 46.0473 46.3985 46.0091C46.4097 45.9708 46.4185 45.9342 46.4216 45.8959C46.4232 45.8808 46.4304 45.8681 46.4304 45.8521V17.5222H46.4312ZM1.16156 18.5699L22.1222 31.6872L1.16156 44.8045V18.5699ZM23.216 32.3715L43.8301 45.2713H2.60195L23.216 32.3715ZM24.3098 31.6872L45.2704 18.5699V44.8045L24.3098 31.6872ZM44.8474 17.4657L39.9646 20.5209V13.5811L44.8474 17.4657ZM21.3008 1.8476C22.4568 0.931419 24.0692 0.933013 25.222 1.85158L30.5088 6.05804H15.9869L21.3008 1.8476ZM38.8046 7.21801V21.2475L23.216 31.0028L8.08867 21.5359V7.21801H38.8046ZM6.92791 13.2345V20.8093L1.58619 17.4665L6.92791 13.2345Z" fill="#464860"/>
<path fill-rule="evenodd" clip-rule="evenodd" d="M19.9633 13.5001C19.3977 13.5089 18.8741 13.7159 18.4688 14.1212C17.641 14.9912 17.641 16.3575 18.4688 17.1853L19.8765 18.5922C20.0422 18.7579 20.0422 19.0065 19.8765 19.1722C19.7956 19.2531 19.6948 19.2945 19.5936 19.2964C19.6947 19.2945 19.7953 19.253 19.8761 19.1722C20.0418 19.0065 20.0418 18.7579 19.8761 18.5922L18.4684 17.1853C17.6407 16.3575 17.6407 14.9912 18.4684 14.1212C18.8738 13.7158 19.3975 13.5088 19.9633 13.5001ZM24.1863 20.2485C24.2691 20.2473 24.3909 20.2058 24.4726 20.1242C25.2589 19.3379 25.5489 18.2194 25.2175 17.143C25.0932 16.6873 24.8032 16.2324 24.4726 15.901L22.1128 13.5413C21.5742 13.0027 20.7879 12.6721 20.0008 12.6721C19.9869 12.6721 19.973 12.6722 19.9591 12.6724C19.9729 12.6722 19.9866 12.6721 20.0004 12.6721C20.7875 12.6721 21.5739 13.0027 22.1124 13.5413L24.4722 15.901C24.8028 16.2324 25.0928 16.6873 25.2171 17.143C25.5485 18.2194 25.2585 19.3379 24.4722 20.1242C24.3907 20.2057 24.2691 20.2471 24.1863 20.2485ZM24.5434 15.8304C24.8836 16.1714 25.1836 16.6404 25.3135 17.1152C25.6552 18.227 25.355 19.3832 24.5433 20.1949C24.4404 20.2978 24.2902 20.3485 24.1826 20.3485C24.075 20.3485 23.9247 20.2978 23.8219 20.1949C23.6171 19.9902 23.6172 19.6782 23.8219 19.4735C24.3765 18.9196 24.5722 18.1303 24.3363 17.4233L24.3335 17.4133C24.2563 17.0664 24.0627 16.7926 23.8219 16.5517L21.4621 14.192C21.0678 13.7976 20.556 13.5998 20.0008 13.5998C19.446 13.5998 18.9346 13.7973 18.5404 14.1911C17.7493 15.0235 17.7521 16.3271 18.5395 17.1146L19.9472 18.5215C20.152 18.7262 20.152 19.0381 19.9472 19.2429C19.7425 19.4477 19.4306 19.4477 19.2258 19.2429L17.8181 17.8352C16.6199 16.6369 16.6199 14.6688 17.8181 13.4705L17.8208 13.4679C18.4167 12.9154 19.1851 12.5721 20.0008 12.5721C20.8144 12.5721 21.6262 12.9132 22.1835 13.4705L24.5434 15.8304ZM26.876 18.4687C26.7715 18.468 26.6669 18.5094 26.5833 18.593C26.4176 18.7587 26.4176 19.0073 26.5833 19.173L27.991 20.5807C28.8188 21.4085 28.8188 22.7748 27.991 23.6447C27.5767 24.059 27.039 24.2661 26.459 24.2661C26.4489 24.2661 26.4388 24.2661 26.4287 24.266C26.439 24.2661 26.4493 24.2662 26.4596 24.2662C27.0396 24.2662 27.5773 24.059 27.9916 23.6447C28.8193 22.7748 28.8193 21.4085 27.9916 20.5807L26.5839 19.173C26.4182 19.0073 26.4182 18.7587 26.5839 18.593C26.6673 18.5096 26.7717 18.4682 26.876 18.4687ZM24.3476 24.2247C24.9196 24.7967 25.6519 25.0859 26.427 25.0937C25.6517 25.086 24.9191 24.7968 24.347 24.2247L21.9872 21.865C21.4495 21.285 21.1181 20.5393 21.1181 19.753C21.1181 18.9658 21.4073 18.221 21.9872 17.641C22.0708 17.5574 22.1755 17.516 22.28 17.5167C22.1757 17.5161 22.0713 17.5576 21.9878 17.641C21.4078 18.221 21.1187 18.9659 21.1187 19.753C21.1187 20.5393 21.4501 21.285 21.9878 21.865L24.3476 24.2247ZM28.6417 24.2954C29.8399 23.0964 29.8399 21.1291 28.6417 19.93L27.234 18.5223C27.0292 18.3175 26.7173 18.3175 26.5126 18.5223C26.3078 18.7271 26.3078 19.0389 26.5126 19.2437L27.9203 20.6514C28.7078 21.4389 28.7105 22.7425 27.9194 23.5749C27.5252 23.9686 27.0138 24.1661 26.459 24.1661C25.9038 24.1661 25.392 23.9683 24.9977 23.574L22.6379 21.2143C22.2436 20.8199 22.0458 20.3082 22.0458 19.753C22.0458 19.1978 22.2436 18.686 22.6379 18.2917C22.8427 18.0869 22.8427 17.775 22.6379 17.5703C22.4332 17.3655 22.1213 17.3655 21.9165 17.5703C21.317 18.1698 21.0181 18.9404 21.0181 19.753C21.0181 20.5678 21.3614 21.3371 21.9139 21.933L24.2763 24.2954C24.8758 24.8949 25.6464 25.1939 26.459 25.1939C27.2747 25.1939 28.0432 24.8506 28.639 24.2981L28.6417 24.2954Z" fill="#464860"/>
</svg>
