<svg width="31" height="41" viewBox="0 0 31 41" fill="none" xmlns="http://www.w3.org/2000/svg">
<path d="M9.45923 18.5159C8.59313 14.676 11.2901 12.341 11.786 11.9491C12.1827 11.8362 12.5637 11.7525 12.9209 11.6912C11.2098 13.45 10.0362 16.6415 9.45923 18.5159Z" fill="white"/>
<path d="M16.4035 4.82986C17.1893 2.74389 18.599 0.915775 21.1265 0.915775C22.477 0.915775 24.0657 1.4274 25.8605 2.43977C23.4316 2.5704 18.4595 3.39635 15.6578 7.75811C15.8 6.85528 16.3953 4.85435 16.4035 4.82986Z" fill="white"/>
<path d="M11.5138 11.0755C11.4907 11.0796 11.4682 11.0871 11.4458 11.0953C9.43329 11.6811 7.05749 12.9554 5.17834 15.6843C5.18107 14.3412 5.40286 12.339 6.53974 11.0225C7.32283 10.1162 8.45358 9.65631 9.90001 9.65631C10.7688 9.65631 11.7649 9.82164 12.8602 10.1475C12.8664 10.1509 12.8718 10.155 12.8779 10.1591L13.5848 10.6768C12.9807 10.7374 12.2731 10.8592 11.5138 11.0755Z" fill="white"/>
<path d="M4.88992 6.50013C4.07486 6.50013 3.2836 6.5947 2.52161 6.78179C3.56799 5.84426 5.19064 4.75774 7.09496 4.75774C8.58221 4.75774 10.0239 5.4136 11.4077 6.71308C12.2174 7.47236 13.0072 8.45071 13.7747 9.64881C11.9432 8.3922 8.57065 6.50013 4.88992 6.50013Z" fill="white"/>
<path d="M12.2003 6.20961C12.2106 6.17423 12.218 6.14566 12.2289 6.10756C12.5249 5.11424 13.1297 3.09018 11.5547 1.54918C12.9474 1.93085 14.6469 2.78946 15.4769 4.70466C14.9068 6.3035 14.6666 7.98738 14.5673 9.18957C13.8053 7.99622 13.0154 7.00563 12.2003 6.20961Z" fill="white"/>
<path d="M23.4092 13.0411C24.1114 14.263 23.9113 16.0319 22.8153 18.3091C22.4914 16.0557 21.2879 12.128 16.8717 10.9088C17.0785 10.9014 17.301 10.8966 17.5316 10.8966C19.2666 10.8959 22.337 11.1749 23.4092 13.0411Z" fill="white"/>
<path d="M20.7735 8.77863C19.276 8.77863 17.7976 9.0501 16.3634 9.58758C18.0895 8.18264 21.5817 5.68642 24.6161 5.68642C27.3845 5.68642 29.1636 7.83634 29.9134 12.0804C28.3526 10.8877 24.9964 8.77863 20.7735 8.77863Z" fill="white"/>
<path d="M10.2756 19.2643C9.40954 15.4243 12.1065 13.0894 12.6024 12.6975C12.9991 12.5845 13.3801 12.5008 13.7373 12.4396C12.0262 14.1983 10.8526 17.3899 10.2756 19.2643Z" fill="#A3EFE0"/>
<path d="M17.22 5.57824C18.0058 3.49227 19.4155 1.66415 21.9431 1.66415C23.2936 1.66415 24.8822 2.17578 26.677 3.18815C24.2481 3.31878 19.2761 4.14473 16.4744 8.50649C16.6166 7.60365 17.2119 5.60273 17.22 5.57824Z" fill="#A3EFE0"/>
<path d="M12.3302 11.8239C12.3071 11.828 12.2846 11.8354 12.2622 11.8436C10.2497 12.4294 7.87389 13.7037 5.99475 16.4326C5.99747 15.0896 6.21927 13.0873 7.35614 11.7708C8.13923 10.8646 9.26998 10.4047 10.7164 10.4047C11.5852 10.4047 12.5813 10.57 13.6766 10.8959C13.6828 10.8993 13.6882 10.9034 13.6943 10.9074L14.4012 11.4252C13.7971 11.4857 13.0895 11.6075 12.3302 11.8239Z" fill="#A3EFE0"/>
<path d="M5.70633 7.24849C4.89127 7.24849 4.10001 7.34306 3.33801 7.53015C4.3844 6.59262 6.00705 5.5061 7.91136 5.5061C9.39862 5.5061 10.8403 6.16196 12.2241 7.46144C13.0338 8.22071 13.8237 9.19907 14.5911 10.3972C12.7596 9.14056 9.38705 7.24849 5.70633 7.24849Z" fill="#A3EFE0"/>
<path d="M13.0168 6.958C13.027 6.92262 13.0344 6.89404 13.0453 6.85594C13.3413 5.86262 13.9461 3.83857 12.3711 2.29756C13.7638 2.67924 15.4633 3.53785 16.2933 5.45305C15.7232 7.05189 15.483 8.73577 15.3837 9.93795C14.6217 8.74461 13.8318 7.75401 13.0168 6.958Z" fill="#A3EFE0"/>
<path d="M24.2256 13.7894C24.9278 15.0113 24.7278 16.7803 23.6317 19.0574C23.3078 16.8041 22.1043 12.8764 17.6881 11.6572C17.8949 11.6497 18.1174 11.6449 18.3481 11.6449C20.083 11.6443 23.1534 11.9232 24.2256 13.7894Z" fill="#A3EFE0"/>
<path d="M21.5899 9.52701C20.0924 9.52701 18.614 9.79847 17.1798 10.336C18.9059 8.93102 22.3981 6.43479 25.4325 6.43479C28.2009 6.43479 29.98 8.58472 30.7298 12.8288C29.169 11.6361 25.8128 9.52701 21.5899 9.52701Z" fill="#A3EFE0"/>
<path d="M14.2428 14.4548C14.2843 13.7738 14.3305 12.524 14.1897 11.794C14.3373 11.6912 14.4884 11.6041 14.6415 11.5347C14.6687 11.5341 14.6972 11.5341 14.7231 11.5341L14.8959 11.5354C14.9048 11.5354 14.9122 11.5354 14.9218 11.5361C15.4075 11.5456 15.6994 11.5899 15.6994 11.5899C15.9824 11.6361 16.2485 11.6967 16.507 11.764C16.5152 11.8089 16.5233 11.8538 16.5451 11.896C16.8621 12.5022 16.8635 13.3914 16.8417 13.8221C15.5844 14.3677 14.7081 14.4582 14.2428 14.4548Z" fill="white"/>
<path d="M14.0734 38.7653C14.4367 38.004 15.0891 36.4358 15.247 34.7744C15.5912 34.7988 16.0029 34.8165 16.5063 34.8165C17.2676 34.8165 18.2208 34.7764 19.3815 34.6655L19.5815 39.0647C16.8363 39.4552 14.9027 39.0205 14.0734 38.7653Z" fill="white"/>
<path d="M14.7354 33.8069C15.0402 32.9353 15.5593 31.1378 15.4742 29.3376C15.6953 29.3526 15.9457 29.3628 16.2212 29.3628C17.0186 29.3628 18.0296 29.2778 19.1665 28.9981C19.6475 30.2479 19.8571 32.7006 19.9237 33.6892C17.1445 33.9994 15.4946 33.8987 14.7354 33.8069Z" fill="white"/>
<path d="M19.5277 27.9524C17.4874 28.5634 15.7933 28.4681 15.0204 28.3715C15.2143 27.5014 15.5878 25.6535 15.5715 24.4159C16.2961 24.3744 17.3282 24.2009 18.6338 23.7233L19.5277 27.9524Z" fill="white"/>
<path d="M19.1665 22.5279C17.2874 23.3491 15.9498 23.5083 15.2082 23.5104C15.1449 23.4907 15.0783 23.4818 15.0089 23.4927C14.9966 23.4947 14.9871 23.5022 14.9755 23.5043C14.9537 23.5029 14.9259 23.5036 14.9054 23.5022C14.9633 22.6273 15.0606 20.6583 14.8741 19.4861C15.5538 19.467 16.6159 19.3078 18.0249 18.7186C18.5385 19.861 18.9917 21.7449 19.1665 22.5279Z" fill="white"/>
<path d="M17.7834 17.8308C16.2091 18.5077 15.128 18.5901 14.5973 18.5737C14.647 17.7988 14.713 16.2578 14.5463 15.3604C15.0885 15.3284 15.8662 15.1937 16.8547 14.8052C17.2622 15.6598 17.6283 17.1477 17.7834 17.8308Z" fill="white"/>
<path d="M14.9231 15.1352C14.9646 14.4542 15.0108 13.2043 14.87 12.4743C15.0176 12.3716 15.1687 12.2845 15.3218 12.2151C15.349 12.2144 15.3775 12.2144 15.4034 12.2144L15.5762 12.2158C15.585 12.2158 15.5925 12.2158 15.6021 12.2165C16.0878 12.226 16.3797 12.2702 16.3797 12.2702C16.6627 12.3165 16.9288 12.377 17.1873 12.4444C17.1955 12.4893 17.2036 12.5342 17.2254 12.5764C17.5424 13.1826 17.5438 14.0718 17.522 14.5025C16.2647 15.0481 15.3884 15.1386 14.9231 15.1352Z" fill="#CCB8F4"/>
<path d="M14.7537 39.4457C15.117 38.6843 15.7694 37.1161 15.9273 35.4547C16.2715 35.4792 16.6832 35.4969 17.1866 35.4969C17.9479 35.4969 18.9011 35.4567 20.0618 35.3458L20.2618 39.745C17.5166 40.1355 15.583 39.7008 14.7537 39.4457Z" fill="#CCB8F4"/>
<path d="M15.4156 34.4872C15.7204 33.6157 16.2396 31.8182 16.1545 30.018C16.3756 30.033 16.626 30.0432 16.9015 30.0432C17.6989 30.0432 18.7099 29.9581 19.8468 29.6785C20.3278 30.9283 20.5374 33.381 20.604 34.3695C17.8248 34.6798 16.1749 34.5791 15.4156 34.4872Z" fill="#CCB8F4"/>
<path d="M20.208 28.6328C18.1677 29.2437 16.4736 29.1485 15.7007 29.0519C15.8946 28.1817 16.2681 26.3339 16.2518 25.0963C16.9764 25.0548 18.0085 24.8813 19.3141 24.4037L20.208 28.6328Z" fill="#CCB8F4"/>
<path d="M19.8468 23.2083C17.9677 24.0295 16.6301 24.1887 15.8885 24.1907C15.8252 24.171 15.7585 24.1622 15.6892 24.1731C15.6769 24.1751 15.6674 24.1826 15.6558 24.1846C15.634 24.1833 15.6061 24.1839 15.5857 24.1826C15.6436 23.3076 15.7409 21.3387 15.5544 20.1664C16.2341 20.1474 17.2962 19.9882 18.7052 19.399C19.2188 20.5413 19.672 22.4252 19.8468 23.2083Z" fill="#CCB8F4"/>
<path d="M18.4637 18.5111C16.8894 19.1881 15.8083 19.2704 15.2776 19.2541C15.3273 18.4791 15.3932 16.9381 15.2266 16.0408C15.7688 16.0088 16.5465 15.8741 17.535 15.4856C17.9425 16.3401 18.3086 17.828 18.4637 18.5111Z" fill="#CCB8F4"/>
<path d="M24.6175 4.77201C21.56 4.77201 18.2269 6.95936 16.292 8.46703C19.057 3.87599 24.327 3.33374 26.6524 3.33374C27.1464 3.33374 27.4444 3.36096 27.4464 3.36096C27.6532 3.38069 27.8512 3.2555 27.9213 3.05752C27.9907 2.85953 27.9179 2.63978 27.7431 2.52344C25.2223 0.849084 22.9962 0 21.1266 0C18.4827 0 16.8941 1.61448 15.9375 3.59704C13.9271 0.252412 9.57551 0.321128 9.37345 0.327251C9.15437 0.332694 8.96932 0.493938 8.93394 0.710291C8.89856 0.926644 9.0217 1.13824 9.22785 1.21443C12.1445 2.28736 11.8173 4.2182 11.4451 5.52925C10.0606 4.40666 8.60737 3.84061 7.09562 3.84061C3.30331 3.84061 0.639721 7.42472 0.528143 7.57712C0.404318 7.74653 0.411122 7.97853 0.545832 8.13978C0.679862 8.30102 0.906421 8.35001 1.09624 8.25952C2.26441 7.6989 3.54076 7.41452 4.89058 7.41452C6.85681 7.41452 8.75773 8.01595 10.3484 8.7521C8.40258 8.64664 6.89219 9.21202 5.84512 10.4258C3.7367 12.8703 4.32861 17.0558 4.35446 17.2327C4.38304 17.428 4.5334 17.5818 4.7273 17.6164C4.91848 17.6505 5.11578 17.5573 5.20967 17.3844C6.51527 14.9828 8.20732 13.5574 9.84289 12.7145C8.72915 14.248 7.62221 16.851 9.07205 20.2719C9.14417 20.442 9.31086 20.5515 9.49319 20.5515C9.50612 20.5515 9.51836 20.5508 9.53129 20.5495C9.72791 20.5331 9.89256 20.3916 9.93882 20.1998C10.3396 18.5288 11.603 14.5698 13.3556 12.5594C13.3944 13.337 13.3345 14.382 13.2977 14.8284C13.2801 15.0413 13.4134 15.2338 13.6148 15.2985C13.6168 15.3264 13.6121 15.3536 13.6195 15.3815C13.8243 16.1632 13.7128 18.2158 13.6522 18.9404C13.6359 19.1357 13.7495 19.3105 13.923 19.3895C14.1727 20.41 14.0359 22.9566 13.9604 23.8628C13.942 24.0839 14.0856 24.2873 14.3006 24.3438C14.3196 24.3486 14.4462 24.3765 14.655 24.3989C14.6823 25.6202 14.221 27.8089 14.0189 28.6334C13.9903 28.7518 14.0094 28.8763 14.0727 28.9811C14.1366 29.0859 14.2387 29.16 14.3577 29.1879C14.3727 29.192 14.4441 29.207 14.5544 29.2274C14.7136 31.5141 13.6985 33.962 13.6883 33.9872C13.6372 34.1096 13.6406 34.2471 13.6985 34.3661C13.7563 34.4852 13.8631 34.573 13.991 34.607C14.0087 34.6117 14.123 34.6403 14.338 34.675C14.1434 36.763 13.0406 38.7762 13.029 38.7973C12.9671 38.9089 12.9542 39.0408 12.9943 39.1619C13.0344 39.2831 13.1222 39.3824 13.2385 39.4361C13.3195 39.4729 14.8122 40.1383 17.3989 40.1383C18.2072 40.1383 19.1209 40.0729 20.1319 39.9035C20.3605 39.8648 20.5238 39.6627 20.5136 39.4314L20.2918 34.5655C20.3489 34.5587 20.4034 34.5539 20.4619 34.5457C20.7007 34.5172 20.8749 34.309 20.8647 34.0695C20.8572 33.9191 20.6857 30.4956 20.0489 28.7443C20.1027 28.7267 20.1544 28.7137 20.2081 28.6947C20.4279 28.6205 20.5578 28.3933 20.5095 28.166L19.4965 23.3757C19.625 23.3192 19.7502 23.2695 19.8849 23.2069C20.0782 23.1178 20.1836 22.9083 20.1408 22.7001C20.1149 22.5735 19.5094 19.6582 18.7624 18.139C18.7671 18.0947 18.7678 18.0492 18.7576 18.0036C18.7372 17.9022 18.2569 15.5951 17.6622 14.3678C17.6976 14.3113 17.7235 14.2487 17.7303 14.1807C17.7371 14.1269 17.8541 13.0962 17.6044 12.1362C22.1791 14.0963 22.0247 19.6385 22.0151 19.9018C22.0063 20.1113 22.1417 20.3018 22.3451 20.3596C22.3873 20.3712 22.4308 20.3787 22.4723 20.3787C22.6322 20.3787 22.7853 20.2943 22.8676 20.1508C24.7658 16.8946 25.2142 14.3487 24.2011 12.5859C23.0751 10.6265 20.4272 10.0761 18.18 9.99306C19.0331 9.79508 19.8992 9.69575 20.7714 9.69575C26.1585 9.69575 30.1855 13.4989 30.2243 13.537C30.3651 13.6711 30.574 13.7024 30.7468 13.616C30.9196 13.5296 31.0203 13.3431 30.9965 13.1506C30.3155 7.59005 28.1683 4.77201 24.6175 4.77201ZM16.4036 4.82984C17.1894 2.74387 18.5991 0.915759 21.1266 0.915759C22.4771 0.915759 24.0657 1.42739 25.8605 2.43976C23.4316 2.57038 18.4596 3.39634 15.6579 7.7581C15.8001 6.85526 16.3954 4.85434 16.4036 4.82984ZM9.45917 18.5159C8.59308 14.676 11.29 12.341 11.786 11.9491C12.1826 11.8361 12.5636 11.7525 12.9208 11.6912C11.2097 13.45 10.0361 16.6415 9.45917 18.5159ZM11.5138 11.0755C11.4907 11.0796 11.4683 11.0871 11.4458 11.0952C9.43332 11.681 7.05752 12.9553 5.17837 15.6842C5.1811 14.3412 5.40289 12.3389 6.53977 11.0224C7.32286 10.1162 8.45361 9.65629 9.90004 9.65629C10.7689 9.65629 11.7649 9.82161 12.8603 10.1475C12.8664 10.1509 12.8718 10.155 12.878 10.1591L13.5849 10.6768C12.9807 10.7374 12.2731 10.8592 11.5138 11.0755ZM4.8899 6.50012C4.07484 6.50012 3.28358 6.59469 2.52159 6.78179C3.56797 5.84425 5.19062 4.75773 7.09494 4.75773C8.58219 4.75773 10.0239 5.41359 11.4077 6.71307C12.2173 7.47235 13.0072 8.4507 13.7747 9.6488C11.9432 8.39219 8.57063 6.50012 4.8899 6.50012ZM12.2003 6.20961C12.2105 6.17423 12.218 6.14565 12.2289 6.10755C12.5249 5.11423 13.1297 3.09018 11.5547 1.54917C12.9474 1.93085 14.6469 2.78946 15.4769 4.70466C14.9068 6.3035 14.6666 7.98738 14.5673 9.18956C13.8053 7.99622 13.0154 7.00562 12.2003 6.20961ZM14.2428 14.4548C14.2843 13.7738 14.3305 12.524 14.1897 11.794C14.3373 11.6912 14.4884 11.6041 14.6414 11.5347C14.6687 11.5341 14.6972 11.5341 14.7231 11.5341L14.8959 11.5354C14.9047 11.5354 14.9122 11.5354 14.9217 11.5361C15.4075 11.5456 15.6994 11.5899 15.6994 11.5899C15.9824 11.6361 16.2484 11.6967 16.507 11.764C16.5151 11.8089 16.5233 11.8538 16.5451 11.896C16.8621 12.5022 16.8635 13.3914 16.8417 13.8221C15.5844 14.3678 14.7081 14.4582 14.2428 14.4548ZM14.0733 38.7653C14.4367 38.004 15.0891 36.4358 15.247 34.7743C15.5912 34.7988 16.0028 34.8165 16.5063 34.8165C17.2676 34.8165 18.2208 34.7764 19.3815 34.6655L19.5815 39.0647C16.8363 39.4552 14.9027 39.0204 14.0733 38.7653ZM14.7353 33.8069C15.0401 32.9353 15.5592 31.1378 15.4742 29.3376C15.6953 29.3526 15.9457 29.3628 16.2212 29.3628C17.0186 29.3628 18.0296 29.2777 19.1665 28.9981C19.6475 30.2479 19.857 32.7006 19.9237 33.6892C17.1445 33.9994 15.4946 33.8987 14.7353 33.8069ZM19.5278 27.9524C17.4874 28.5634 15.7933 28.4681 15.0204 28.3715C15.2143 27.5013 15.5878 25.6535 15.5715 24.4159C16.2961 24.3744 17.3282 24.2009 18.6338 23.7233L19.5278 27.9524ZM19.1665 22.5279C17.2873 23.3491 15.9498 23.5083 15.2082 23.5104C15.1449 23.4906 15.0782 23.4818 15.0088 23.4927C14.9966 23.4947 14.9871 23.5022 14.9755 23.5042C14.9537 23.5029 14.9258 23.5036 14.9054 23.5022C14.9633 22.6273 15.0605 20.6583 14.8741 19.4861C15.5538 19.467 16.6158 19.3078 18.0249 18.7186C18.5385 19.8609 18.9916 21.7448 19.1665 22.5279ZM17.7833 17.8308C16.209 18.5077 15.1279 18.59 14.5972 18.5737C14.6469 17.7988 14.7129 16.2578 14.5462 15.3604C15.0884 15.3284 15.8661 15.1937 16.8546 14.8052C17.2622 15.6597 17.6282 17.1477 17.7833 17.8308ZM23.4092 13.0411C24.1113 14.263 23.9113 16.0319 22.8152 18.309C22.4914 16.0557 21.2878 12.128 16.8716 10.9088C17.0785 10.9013 17.301 10.8966 17.5316 10.8966C19.2665 10.8959 22.3369 11.1748 23.4092 13.0411ZM20.7735 8.77863C19.276 8.77863 17.7976 9.05009 16.3634 9.58757C18.0895 8.18264 21.5818 5.68641 24.6161 5.68641C27.3845 5.68641 29.1636 7.83634 29.9134 12.0804C28.3527 10.8877 24.9965 8.77863 20.7735 8.77863Z" fill="#464860"/>
</svg>
