<svg width="43" height="42" viewBox="0 0 43 42" fill="none" xmlns="http://www.w3.org/2000/svg">
<path d="M14.5797 24.5999V31.5999C13.3797 31.4499 13.1197 31.1499 13.0797 31.0799C13.0497 31.0499 13.0397 31.0199 13.0397 31.0199C13.0897 30.9299 13.1097 30.8199 13.0897 30.7199C13.0397 30.1599 13.0297 29.5899 13.0597 29.0299C13.0797 27.4499 13.0797 26.3799 12.7797 25.8199C12.5897 25.3199 12.4397 24.7999 12.3597 24.2699C12.2197 23.3699 11.9497 22.4999 11.5597 21.6799C11.1697 21.1499 10.6697 20.6999 10.0897 20.3699C9.41971 19.9099 8.71971 19.4399 8.71971 18.9099C8.71971 17.5499 8.71971 15.4899 6.88971 14.2699C5.31971 13.2299 3.69971 12.1499 3.69971 9.78989C3.69971 9.50989 3.71971 9.23989 3.75971 8.96989C3.80971 8.88989 3.84971 8.81989 3.89971 8.75989C3.93971 8.69989 3.98971 8.62989 4.02971 8.56989C4.14971 8.38989 4.26971 8.21989 4.38971 8.05989C4.42971 7.99989 4.46971 7.94989 4.51971 7.88989C4.64971 7.71989 4.77971 7.55989 4.90971 7.38989C4.95971 7.33989 4.99971 7.27989 5.04971 7.22989C5.17971 7.06989 5.30971 6.91989 5.44971 6.76989C5.50971 6.70989 5.56971 6.63989 5.62971 6.57989C5.75971 6.43989 5.88971 6.29989 6.01971 6.16989C6.09971 6.08989 6.16971 6.01989 6.24971 5.93989C6.36971 5.81989 6.48971 5.69989 6.60971 5.58989C6.70971 5.49989 6.80971 5.40989 6.91971 5.31989C7.01971 5.22989 7.11971 5.13989 7.22971 5.04989C7.35971 4.93989 7.48971 4.83989 7.62971 4.72989C7.69971 4.66989 7.77971 4.59989 7.86971 4.53989C8.02971 4.41989 8.18971 4.29989 8.35971 4.17989C8.41971 4.13989 8.47971 4.09989 8.52971 4.05989C8.71971 3.92989 8.91971 3.79989 9.10971 3.67989C9.14971 3.65989 9.17971 3.62989 9.21971 3.60989C9.43971 3.46989 9.65971 3.33989 9.87971 3.21989C9.89971 3.19989 9.91971 3.18989 9.93971 3.17989C10.1797 3.04989 10.4097 2.91989 10.6497 2.79989L10.6797 2.78989C10.9297 2.66989 11.1697 2.54989 11.4197 2.43989L11.4397 2.42989C11.6897 2.31989 11.9397 2.21989 12.1997 2.11989C12.2097 2.11989 12.2197 2.10989 12.2297 2.10989C12.4797 2.01989 12.7297 1.92989 12.9797 1.84989C12.9997 1.83989 13.0197 1.83989 13.0397 1.82989C13.2897 1.74989 13.5297 1.67989 13.7797 1.60989C13.8097 1.59989 13.8297 1.58989 13.8597 1.58989C14.1097 1.51989 14.3497 1.45989 14.5997 1.40989C14.6197 1.40989 14.6397 1.39989 14.6697 1.38989C14.6597 1.48989 14.6397 1.58989 14.6197 1.69989C14.5797 1.93989 14.2997 4.04989 15.1497 5.07989C15.9197 6.01989 16.3797 7.14989 16.1297 7.50989C15.7997 8.07989 15.2197 8.44989 14.5697 8.51989C14.2297 8.46989 13.9097 8.35989 13.6097 8.19989C13.0897 7.95989 12.4397 7.66989 12.0697 8.18989C11.9097 8.48989 11.8297 8.81989 11.8297 9.15989C11.7897 9.53989 11.7297 10.1599 11.5097 10.2399C11.0797 10.2699 10.6497 10.2499 10.2197 10.1699C9.03971 9.99989 7.67971 9.82989 7.40971 10.8199C7.11971 11.8699 7.98971 12.6999 8.39971 13.0999C8.44971 13.1499 8.49971 13.1999 8.54971 13.2499C8.63971 13.3599 9.46971 14.3299 11.6697 14.3299C12.1397 14.3299 12.5397 14.2999 12.8697 14.2699C13.7597 14.1999 13.9597 14.1999 14.2997 14.6599C14.5097 15.0599 14.6097 15.5199 14.5997 15.9699C14.6397 16.6299 14.6997 17.5399 15.5897 17.6499C16.1497 17.6499 16.6997 17.5099 17.1997 17.2599C17.8697 16.9899 18.6397 16.6899 19.1397 16.9199C19.9697 17.2999 20.9797 18.0999 21.1597 18.7099C21.2097 18.8099 21.1997 18.9299 21.1397 19.0299C20.9497 19.3699 20.7997 19.7199 20.6797 20.0899C20.2697 21.2199 19.9297 21.9699 19.0097 21.9699H17.1997C15.7497 21.9799 14.5797 23.1499 14.5797 24.5999Z" fill="white"/>
<path d="M20.7295 22.9299H19.4795V26.3099H20.7295V22.9299Z" fill="white"/>
<path d="M20.1095 29.56C19.8495 29.56 19.6295 29.77 19.6295 30.04V31.15H18.6895V27.28H21.5295V31.15H20.5895V30.04C20.5795 29.78 20.3695 29.56 20.1095 29.56Z" fill="white"/>
<path d="M20.7295 32.1001H19.4795V40.7001H20.7295V32.1001Z" fill="white"/>
<path d="M21.6897 32.0999H21.9997C22.2597 32.0999 22.4797 31.8899 22.4797 31.6199V26.7899C22.4797 26.5299 22.2697 26.3099 21.9997 26.3099H21.6797V22.9299H34.9397V26.3099H34.6197C34.3597 26.3099 34.1397 26.5199 34.1397 26.7899V31.6199C34.1397 31.8799 34.3497 32.0999 34.6197 32.0999H34.9397V40.6999H21.6897V32.0999Z" fill="white"/>
<path d="M37.9596 27.27V31.14H37.0196V30.03C37.0196 29.77 36.8096 29.55 36.5396 29.55C36.2696 29.55 36.0596 29.76 36.0596 30.03V31.14H35.1196V27.27H37.9596Z" fill="white"/>
<path d="M37.1597 32.1001H35.9097V40.7001H37.1597V32.1001Z" fill="white"/>
<path d="M37.1597 22.9299H35.9097V26.3099H37.1597V22.9299Z" fill="white"/>
<path d="M33.4494 21.98V20.47C33.4494 19.09 32.3294 17.97 30.9494 17.97H25.6894C24.3094 17.97 23.1894 19.09 23.1894 20.47V21.98H20.8294C21.1394 21.5 21.3894 20.98 21.5594 20.43C21.6594 20.12 21.7894 19.82 21.9394 19.54C22.1394 19.21 22.1794 18.8 22.0494 18.44C21.7294 17.39 20.3494 16.44 19.5094 16.06C18.6294 15.66 17.6694 16.04 16.8194 16.38C16.4594 16.56 16.0594 16.67 15.6594 16.71C15.5694 16.46 15.5294 16.19 15.5294 15.92C15.5394 15.28 15.3794 14.66 15.0494 14.11C14.3894 13.2 13.6794 13.25 12.7694 13.33C12.4494 13.36 12.0894 13.39 11.6494 13.39C9.89936 13.39 9.27936 12.68 9.27936 12.67C9.20936 12.58 9.12936 12.5 9.03936 12.43C8.61936 12.03 8.17936 11.56 8.29936 11.1C8.47936 10.92 9.56936 11.05 10.0894 11.12C10.6494 11.24 11.2294 11.25 11.7994 11.15C12.6094 10.88 12.6994 9.91 12.7594 9.26C12.7694 9.16 12.7794 9.02 12.7994 8.91C12.9394 8.95 13.0994 9.02 13.2094 9.07C13.6294 9.3 14.0894 9.43 14.5694 9.47C15.5394 9.42 16.4194 8.89 16.9194 8.05C17.6094 7.05 16.5994 5.32 15.8894 4.47C15.4494 3.94 15.4594 2.57 15.5694 1.86C15.6194 1.64 15.6394 1.42 15.6494 1.2C16.2794 1.1 16.9194 1.03 17.5594 1C17.1994 2.81 17.5394 3.33 17.6594 3.51C18.1894 4.31 18.7694 4.75 19.3694 4.83C19.4294 4.84 19.4894 4.84 19.5494 4.84C19.9594 4.83 20.3394 4.67 20.6394 4.39C21.5694 3.58 22.3594 2.64 22.9994 1.58C23.8494 1.81 24.6794 2.11 25.4794 2.46C24.9794 2.75 24.5294 3.13 24.1594 3.58C23.2094 4.84 22.6394 5.84 22.9394 6.58C23.3694 7.43 24.1694 8.03 25.1094 8.2C25.2294 8.22 25.3594 8.22 25.4794 8.22C25.8794 8.21 26.2694 8.16 26.6594 8.08C27.0894 7.99 27.5294 7.94 27.9694 7.93C28.8994 7.89 29.7394 7.39 30.2094 6.59C30.4594 6.48 30.7294 6.39 30.9894 6.33C31.9994 7.38 32.8694 8.54 33.5894 9.8C33.0994 9.84 32.5994 9.84 32.1094 9.79C30.4694 9.63 28.3194 9.52 27.4094 9.92C27.2494 9.99 27.0794 10.06 26.8994 10.13C25.7794 10.58 24.2294 11.19 24.7094 12.96C24.8394 13.64 25.2894 14.21 25.9094 14.51C26.1794 14.61 26.3894 14.84 26.4494 15.13C26.5294 15.38 26.7294 15.57 26.9694 15.66C27.8294 16.05 30.1694 16.05 30.9394 15.68C31.6394 15.46 32.3994 15.71 32.8294 16.29C33.3094 17.01 35.1794 18.25 35.8694 18.69C35.8594 19.2 35.8394 19.71 35.7894 20.2C35.7094 20.7 35.5694 21.51 35.4594 21.97L33.4494 21.98Z" fill="white"/>
<path d="M18.8996 0.989951C19.0596 0.989951 19.2196 0.999951 19.3896 1.00995C19.4796 1.00995 19.5696 1.01995 19.6596 1.01995C19.8696 1.02995 20.0796 1.04995 20.2896 1.06995C20.3296 1.06995 20.3596 1.07995 20.3996 1.07995C20.6596 1.10995 20.9196 1.13995 21.1796 1.17995C21.1896 1.17995 21.1996 1.17995 21.2096 1.17995C21.4896 1.21995 21.7696 1.27995 22.0396 1.32995H22.0496C21.4696 2.18995 20.7896 2.96995 20.0096 3.64995C19.8796 3.79995 19.6896 3.86995 19.4896 3.84995C19.0396 3.68995 18.6696 3.36995 18.4496 2.94995C18.3096 2.73995 18.2896 2.05995 18.5296 0.949951C18.6596 0.979951 18.7796 0.979951 18.8996 0.989951Z" fill="white"/>
<path d="M26.6396 3.02997C26.8696 3.14997 27.0996 3.27997 27.3296 3.41997C27.5096 3.52997 27.6796 3.63997 27.8596 3.74997C27.9896 3.83997 28.1196 3.91997 28.2596 4.01997C28.4296 4.12997 28.5896 4.24997 28.7496 4.36997C28.8396 4.42997 28.9196 4.49997 29.0096 4.55997C29.4296 4.87997 29.8296 5.21997 30.2196 5.56997C29.6396 5.76997 29.4596 5.91997 29.3796 6.11997C29.0796 6.61997 28.5596 6.93997 27.9796 6.97997C27.4796 6.98997 26.9896 7.04997 26.5096 7.13997C26.0996 7.22997 25.6696 7.26997 25.2496 7.24997C24.6496 7.12997 24.1296 6.75997 23.8396 6.22997C23.7896 6.10997 23.8096 5.66997 24.9396 4.15997C25.3896 3.65997 25.9196 3.25997 26.5296 2.96997C26.5596 2.98997 26.5996 3.00997 26.6396 3.02997Z" fill="white"/>
<path d="M34.1393 10.82C34.1993 10.94 34.2493 11.06 34.3093 11.18C34.3793 11.33 34.4493 11.47 34.5093 11.62C34.5493 11.7 34.5793 11.79 34.6093 11.88C34.6893 12.07 34.7593 12.26 34.8293 12.45L34.8393 12.47C35.4393 14.1 35.7893 15.82 35.8693 17.56C35.0593 17.06 34.3093 16.47 33.6393 15.78C33.1093 15.07 32.2893 14.65 31.3993 14.65C31.0993 14.65 30.7993 14.71 30.5293 14.84C29.9893 15.11 27.8193 15.07 27.3593 14.81C27.2093 14.31 26.8593 13.91 26.3793 13.7C25.9793 13.53 25.7093 13.17 25.6393 12.74C25.4093 11.88 25.9593 11.56 27.2593 11.04C27.4393 10.97 27.6193 10.9 27.7893 10.82C28.3393 10.58 29.9193 10.56 32.0193 10.77C32.6193 10.83 33.2193 10.83 33.8193 10.77L34.0893 10.74C34.1093 10.76 34.1193 10.79 34.1393 10.82Z" fill="white"/>
<path d="M13.3395 35.1599C4.10946 32.3499 -1.09054 22.5999 1.70946 13.3799C1.99946 12.4299 2.36946 11.5099 2.80946 10.6299C3.15946 12.9399 4.91946 14.1199 6.38946 15.0999C7.75946 16.0099 7.75946 17.6299 7.75946 18.9199C7.75946 19.9499 8.70946 20.5999 9.54946 21.1699C9.99946 21.4299 10.4095 21.7699 10.7295 22.1799C11.0595 22.9099 11.2995 23.6799 11.4195 24.4699C11.5195 25.0899 11.6895 25.6999 11.9295 26.2699C12.1295 26.6499 12.1095 28.0699 12.0995 29.0099C12.0795 29.5899 12.0895 30.1699 12.1295 30.7399C12.0595 31.0099 12.0895 31.2899 12.2295 31.5299C12.5395 32.0799 13.3095 32.4199 14.5795 32.5599V35.4499C14.1595 35.3799 13.7395 35.2899 13.3395 35.1599Z" fill="white"/>
<path d="M15.5293 39.0399V24.5999C15.5293 23.6799 16.2693 22.9399 17.1893 22.9399H18.5193V26.3199H18.1993C17.9393 26.3199 17.7193 26.5299 17.7193 26.7999V31.6299C17.7193 31.8899 17.9293 32.1099 18.1993 32.1099H18.5193V40.7099H17.1993C16.2793 40.7099 15.5293 39.9599 15.5293 39.0399Z" fill="white"/>
<path d="M41.1096 39.0399C41.1096 39.9599 40.3696 40.6999 39.4496 40.6999H38.1196V32.0999H38.4396C38.6996 32.0999 38.9196 31.8899 38.9196 31.6199V26.7899C38.9196 26.5299 38.7096 26.3099 38.4396 26.3099H38.1196V22.9299H39.4496C40.3696 22.9299 41.1096 23.6699 41.1096 24.5899V39.0399Z" fill="white"/>
<path d="M32.4894 21.9799H31.8594V20.7599C31.8594 20.0199 31.2594 19.4199 30.5194 19.4199H26.1194C25.3794 19.4199 24.7794 20.0199 24.7794 20.7599V21.9799H24.1494V20.4699C24.1494 19.6199 24.8394 18.9299 25.6894 18.9299H30.9494C31.7994 18.9299 32.4894 19.6199 32.4894 20.4699V21.9799Z" fill="white"/>
<path d="M25.7295 21.9801V20.7601C25.7295 20.5501 25.8995 20.3701 26.1195 20.3701H30.5195C30.7295 20.3701 30.9095 20.5401 30.9095 20.7601V21.9801H25.7295Z" fill="white"/>
<path d="M14.5797 23.6399V30.6399C13.3797 30.4899 13.1197 30.1899 13.0797 30.1199C13.0597 30.0899 13.0497 30.0599 13.0497 30.0599C13.0997 29.9699 13.1197 29.8599 13.0997 29.7599C13.0497 29.1999 13.0397 28.6299 13.0697 28.0699C13.0897 26.4899 13.0897 25.4199 12.7897 24.8599C12.5997 24.3599 12.4497 23.8399 12.3697 23.3099C12.2297 22.4099 11.9597 21.5399 11.5697 20.7199C11.1797 20.1899 10.6797 19.7399 10.0997 19.4099C9.42971 18.9499 8.72971 18.4799 8.72971 17.9499C8.72971 16.5899 8.72971 14.5299 6.89971 13.3099C5.31971 12.2699 3.69971 11.1899 3.69971 8.82993C3.69971 8.54993 3.71971 8.27993 3.75971 8.00993C3.80971 7.92993 3.84971 7.85993 3.89971 7.79993C3.93971 7.73993 3.98971 7.66993 4.02971 7.60993C4.14971 7.43993 4.26971 7.26993 4.38971 7.09993C4.42971 7.03993 4.46971 6.98993 4.51971 6.92993C4.64971 6.75993 4.77971 6.59993 4.90971 6.42993C4.95971 6.37993 4.99971 6.31993 5.04971 6.26993C5.17971 6.10993 5.30971 5.95993 5.44971 5.80993C5.50971 5.74993 5.56971 5.67993 5.62971 5.61993C5.75971 5.47993 5.88971 5.33993 6.01971 5.20993C6.09971 5.12993 6.16971 5.05993 6.24971 4.97993C6.36971 4.85993 6.48971 4.74993 6.60971 4.63993C6.70971 4.54993 6.80971 4.45993 6.91971 4.36993C7.01971 4.27993 7.11971 4.18993 7.22971 4.09993C7.35971 3.98993 7.48971 3.88993 7.62971 3.77993C7.69971 3.70993 7.77971 3.63993 7.86971 3.57993C8.02971 3.45993 8.18971 3.33993 8.35971 3.21993C8.41971 3.17993 8.47971 3.13993 8.52971 3.09993C8.71971 2.96993 8.91971 2.83993 9.11971 2.71993C9.15971 2.69993 9.18971 2.66993 9.22971 2.64993C9.44971 2.51993 9.66971 2.38993 9.88971 2.25993C9.89971 2.24993 9.91971 2.22993 9.93971 2.21993C10.1797 2.08993 10.4097 1.95993 10.6497 1.83993L10.6797 1.82993C10.9297 1.70993 11.1697 1.58993 11.4197 1.47993L11.4397 1.46993C11.6897 1.35993 11.9397 1.25993 12.1997 1.15993C12.2097 1.15993 12.2197 1.14993 12.2297 1.14993C12.4797 1.05993 12.7297 0.969932 12.9797 0.889932C12.9997 0.879932 13.0197 0.879932 13.0397 0.869932C13.2897 0.789932 13.5297 0.719932 13.7797 0.649932C13.8097 0.639932 13.8297 0.629932 13.8597 0.629932C14.1097 0.559932 14.3497 0.499932 14.5997 0.449932C14.6197 0.449932 14.6397 0.439932 14.6697 0.429932C14.6597 0.529932 14.6397 0.629932 14.6197 0.739932C14.5797 0.979932 14.2997 3.08993 15.1497 4.11993C15.9197 5.05993 16.3797 6.18993 16.1297 6.54993C15.7997 7.11993 15.2197 7.48993 14.5697 7.55993C14.2297 7.50993 13.9097 7.39993 13.6097 7.23993C13.0897 6.99993 12.4397 6.70993 12.0697 7.22993C11.9097 7.52993 11.8297 7.85993 11.8297 8.19993C11.7897 8.57993 11.7297 9.19993 11.5097 9.27993C11.0797 9.30993 10.6497 9.28993 10.2197 9.20993C9.03971 9.04993 7.67971 8.86993 7.40971 9.85993C7.11971 10.9099 7.98971 11.7399 8.39971 12.1399C8.44971 12.1899 8.49971 12.2399 8.54971 12.2899C8.63971 12.3999 9.46971 13.3699 11.6697 13.3699C12.1397 13.3699 12.5397 13.3399 12.8697 13.3099C13.7597 13.2399 13.9597 13.2399 14.2997 13.6999C14.5097 14.0999 14.6097 14.5599 14.5997 15.0099C14.6397 15.6699 14.6997 16.5799 15.5897 16.6899C16.1497 16.6899 16.6997 16.5499 17.1997 16.2999C17.8697 16.0299 18.6397 15.7299 19.1397 15.9599C19.9697 16.3399 20.9797 17.1399 21.1597 17.7499C21.2097 17.8499 21.1997 17.9699 21.1397 18.0699C20.9497 18.4099 20.7997 18.7599 20.6797 19.1299C20.2597 20.2699 19.9197 21.0199 18.9997 21.0199H17.1997C15.7497 21.0199 14.5797 22.1899 14.5797 23.6399Z" fill="#A3EFE0"/>
<path d="M21.0996 23.4199H19.8496V26.7999H21.0996V23.4199Z" fill="#CCB8F4"/>
<path d="M20.4796 30.06C20.2196 30.06 19.9996 30.27 19.9996 30.54V31.65H19.0596V27.78H21.8996V31.65H20.9596V30.54C20.9596 30.27 20.7496 30.06 20.4796 30.06Z" fill="#CCB8F4"/>
<path d="M21.0996 32.6001H19.8496V41.2001H21.0996V32.6001Z" fill="#CCB8F4"/>
<path d="M38.3297 27.76V31.63H37.3897V30.52C37.3897 30.26 37.1797 30.04 36.9097 30.04C36.6497 30.04 36.4297 30.25 36.4297 30.52V31.63H35.4897V27.76H38.3297Z" fill="#CCB8F4"/>
<path d="M37.5293 32.6001H36.2793V41.2001H37.5293V32.6001Z" fill="#CCB8F4"/>
<path d="M37.5293 23.4199H36.2793V26.7999H37.5293V23.4199Z" fill="#CCB8F4"/>
<path d="M33.0294 21.3001V19.7901C33.0294 18.4101 31.9094 17.2901 30.5294 17.2901H25.2694C23.8894 17.2901 22.7694 18.4101 22.7694 19.7901V21.3001H20.4094C20.7194 20.8201 20.9694 20.3001 21.1394 19.7501C21.2394 19.4401 21.3694 19.1401 21.5194 18.8601C21.7194 18.5301 21.7594 18.1201 21.6294 17.7601C21.3094 16.7101 19.9294 15.7601 19.0894 15.3801C18.2094 14.9801 17.2494 15.3601 16.3994 15.7001C16.0394 15.8801 15.6394 15.9901 15.2394 16.0301C15.1494 15.7801 15.1094 15.5101 15.1094 15.2401C15.1194 14.6001 14.9594 13.9801 14.6294 13.4301C13.9694 12.5201 13.2594 12.5701 12.3494 12.6501C12.0294 12.6801 11.6694 12.7101 11.2294 12.7101C9.47944 12.7101 8.85944 12.0001 8.85944 11.9901C8.78944 11.9001 8.70944 11.8201 8.61944 11.7501C8.19944 11.3501 7.75944 10.8801 7.87944 10.4201C8.05944 10.2401 9.14944 10.3701 9.66944 10.4401C10.2294 10.5601 10.8094 10.5701 11.3794 10.4701C12.1894 10.2001 12.2794 9.23008 12.3394 8.58008C12.3494 8.48008 12.3594 8.34008 12.3794 8.23008C12.4994 8.28008 12.6594 8.35008 12.7694 8.40008C13.1894 8.63008 13.6494 8.76008 14.1294 8.80008C15.0994 8.75008 15.9794 8.22008 16.4794 7.38008C17.1694 6.38008 16.1594 4.65008 15.4494 3.80008C15.0094 3.27008 15.0194 1.90008 15.1294 1.19008C15.1794 0.970078 15.1994 0.750078 15.2094 0.530078C15.8394 0.430078 16.4794 0.360078 17.1194 0.330078C16.7594 2.14008 17.0994 2.66008 17.2194 2.84008C17.7494 3.64008 18.3294 4.08008 18.9294 4.16008C18.9894 4.17008 19.0494 4.17008 19.1094 4.17008C19.5194 4.16008 19.8994 4.00008 20.1994 3.72008C21.1294 2.91008 21.9194 1.97008 22.5594 0.910078C23.4094 1.14008 24.2394 1.44008 25.0394 1.79008C24.5394 2.08008 24.0894 2.46008 23.7194 2.91008C22.7694 4.17008 22.1994 5.17008 22.4994 5.91008C22.9294 6.76008 23.7294 7.36008 24.6694 7.53008C24.7894 7.55008 24.9194 7.55008 25.0394 7.55008C25.4394 7.54008 25.8294 7.49008 26.2194 7.41008C26.6494 7.32008 27.0894 7.27008 27.5294 7.26008C28.4594 7.22008 29.2994 6.72008 29.7694 5.92008C30.0194 5.81008 30.2894 5.72008 30.5494 5.66008C31.5594 6.71008 32.4294 7.87008 33.1494 9.13008C32.6594 9.17008 32.1594 9.17008 31.6694 9.12008C30.0294 8.96008 27.8794 8.85008 26.9694 9.25008C26.8094 9.32008 26.6394 9.39008 26.4594 9.46008C25.3394 9.91008 23.7894 10.5201 24.2694 12.2901C24.3994 12.9701 24.8494 13.5401 25.4694 13.8401C25.7394 13.9401 25.9494 14.1701 26.0094 14.4601C26.0894 14.7101 26.2894 14.9001 26.5294 14.9901C27.3894 15.3801 29.7294 15.3801 30.4994 15.0101C31.1994 14.7901 31.9594 15.0401 32.3894 15.6201C32.8694 16.3401 34.7394 17.5801 35.4294 18.0201C35.4194 18.5301 35.3994 19.0401 35.3494 19.5301C35.2694 20.0301 35.1294 20.8401 35.0194 21.3001H33.0294Z" fill="#CCB8F4"/>
<path d="M18.8996 0.03C19.0596 0.03 19.2196 0.04 19.3896 0.05C19.4796 0.06 19.5696 0.06 19.6596 0.07C19.8696 0.08 20.0796 0.1 20.2896 0.12C20.3296 0.12 20.3596 0.13 20.3996 0.13C20.6596 0.16 20.9196 0.19 21.1796 0.23C21.1896 0.23 21.1996 0.23 21.2096 0.23C21.4896 0.27 21.7696 0.33 22.0396 0.38H22.0496C21.4696 1.24 20.7896 2.02 20.0096 2.7C19.8796 2.85 19.6896 2.92 19.4896 2.9C19.0396 2.74 18.6696 2.42 18.4496 2C18.3096 1.79 18.2896 1.11 18.5296 0C18.6596 0.02 18.7796 0.03 18.8996 0.03Z" fill="#A3EFE0"/>
<path d="M26.6393 2.07001C26.8693 2.19001 27.0993 2.32001 27.3293 2.46001C27.5093 2.57001 27.6793 2.68001 27.8593 2.79001C27.9993 2.88001 28.1393 2.97001 28.2693 3.06001C28.4393 3.17001 28.5993 3.29001 28.7593 3.41001C28.8493 3.47001 28.9293 3.54001 29.0193 3.60001C29.4393 3.92001 29.8393 4.26001 30.2293 4.61001C29.6493 4.81001 29.4693 4.96001 29.3893 5.16001C29.0893 5.66001 28.5693 5.98001 27.9893 6.02001C27.4893 6.03001 26.9993 6.09001 26.5193 6.18001C26.1093 6.27001 25.6793 6.31001 25.2593 6.29001C24.6593 6.17001 24.1393 5.80001 23.8493 5.27001C23.7993 5.15001 23.8193 4.71001 24.9493 3.20001C25.3993 2.70001 25.9293 2.30001 26.5393 2.01001C26.5593 2.03001 26.5993 2.05001 26.6393 2.07001Z" fill="#A3EFE0"/>
<path d="M34.1393 9.86005C34.1993 9.98005 34.2493 10.1001 34.3093 10.2201C34.3793 10.3701 34.4493 10.5101 34.5093 10.6601C34.5493 10.7401 34.5793 10.8301 34.6093 10.9201C34.6893 11.1101 34.7593 11.3001 34.8293 11.4901L34.8393 11.5101C35.4393 13.1401 35.7893 14.8601 35.8693 16.6001C35.0593 16.1001 34.3093 15.5101 33.6393 14.8201C33.1093 14.1101 32.2893 13.6901 31.3993 13.6901C31.0993 13.6901 30.7993 13.7501 30.5293 13.8801C29.9893 14.1501 27.8193 14.1101 27.3593 13.8501C27.2093 13.3501 26.8593 12.9501 26.3793 12.7401C25.9793 12.5701 25.7093 12.2101 25.6393 11.7801C25.4093 10.9201 25.9593 10.6001 27.2593 10.0801C27.4393 10.0101 27.6193 9.94005 27.7893 9.86005C28.3393 9.62005 29.9193 9.60005 32.0193 9.81005C32.6193 9.87005 33.2193 9.87005 33.8193 9.81005L34.0893 9.78005C34.1093 9.80005 34.1193 9.83005 34.1393 9.86005Z" fill="#A3EFE0"/>
<path d="M12.9196 34.4799C3.69961 31.68 -1.51039 21.93 1.29961 12.7C1.58961 11.75 1.95961 10.83 2.39961 9.94995C2.74961 12.26 4.50961 13.44 5.97961 14.42C7.34961 15.33 7.34961 16.95 7.34961 18.24C7.34961 19.2699 8.29961 19.92 9.13961 20.49C9.58961 20.75 9.99961 21.09 10.3196 21.5C10.6496 22.2299 10.8896 23 11.0096 23.79C11.1096 24.41 11.2796 25.02 11.5196 25.59C11.7196 25.9699 11.6996 27.3899 11.6896 28.33C11.6696 28.91 11.6796 29.49 11.7196 30.06C11.6496 30.33 11.6796 30.61 11.8196 30.85C12.1296 31.4 12.8996 31.74 14.1696 31.88V34.77C13.7396 34.71 13.3296 34.6099 12.9196 34.4799Z" fill="#CCB8F4"/>
<path d="M32.4894 21.9799H31.8594V20.7599C31.8594 20.0199 31.2594 19.4199 30.5194 19.4199H26.1194C25.3794 19.4199 24.7794 20.0199 24.7794 20.7599V21.9799H24.1494V20.4699C24.1494 19.6199 24.8394 18.9299 25.6894 18.9299H30.9494C31.7994 18.9299 32.4894 19.6199 32.4894 20.4699V21.9799Z" fill="white"/>
<path d="M25.7295 21.9801V20.7601C25.7295 20.5501 25.8995 20.3701 26.1195 20.3701H30.5195C30.7295 20.3701 30.9095 20.5401 30.9095 20.7601V21.9801H25.7295Z" fill="#CCB8F4"/>
<path d="M39.4495 21.98H36.4595C36.5995 21.35 36.7195 20.55 36.7595 20.33C36.8195 19.7 36.8595 19.08 36.8595 18.45C36.8595 18.11 36.8495 17.77 36.8295 17.43C36.8195 17.29 36.8095 17.15 36.7995 17.02C36.7795 16.83 36.7695 16.63 36.7495 16.44C36.7295 16.27 36.7095 16.1 36.6795 15.92C36.6595 15.77 36.6395 15.61 36.6095 15.46C36.5795 15.27 36.5495 15.09 36.5095 14.9C36.4795 14.77 36.4595 14.63 36.4295 14.5C36.3895 14.31 36.3395 14.11 36.2995 13.92C36.2695 13.8 36.2295 13.67 36.1995 13.55C36.1195 13.27 36.0395 12.98 35.9395 12.7C35.8695 12.5 35.8095 12.3 35.7395 12.1C35.6895 11.97 35.6395 11.84 35.5795 11.7C35.5095 11.51 35.4295 11.33 35.3495 11.14C35.2995 11.01 35.2395 10.89 35.1795 10.76C35.0895 10.57 35.0095 10.39 34.9095 10.21C34.8795 10.14 34.8395 10.07 34.8095 10C34.7995 9.99002 34.7895 9.98002 34.7895 9.97002C33.9395 8.34002 32.8495 6.84002 31.5595 5.53002C31.5495 5.51002 31.5295 5.49002 31.5095 5.47002C31.3995 5.36002 31.2795 5.26002 31.1695 5.15002C30.9995 4.99002 30.8395 4.84002 30.6695 4.69002C30.5195 4.55002 30.3595 4.42002 30.2095 4.29002C29.9495 4.07002 29.6795 3.86002 29.4095 3.66002C29.2695 3.56002 29.1395 3.46002 28.9995 3.37002C28.7495 3.20002 28.4995 3.03002 28.2495 2.87002C28.1495 2.81002 28.0495 2.74002 27.9495 2.68002C27.6095 2.47002 27.2595 2.28002 26.9095 2.10002C26.8495 2.07002 26.7995 2.04002 26.7495 2.01002C26.7395 2.01002 26.7295 2.01002 26.7195 2.00002C25.4795 1.37002 24.1795 0.89002 22.8395 0.56002C22.8395 0.56002 22.8295 0.560019 22.8295 0.55002C22.7795 0.54002 22.7395 0.53002 22.6895 0.52002C22.4095 0.45002 22.1295 0.39002 21.8495 0.34002C21.7695 0.32002 21.6895 0.31002 21.6095 0.30002C21.3395 0.25002 21.0795 0.21002 20.8095 0.18002C20.7195 0.17002 20.6295 0.16002 20.5495 0.15002C20.2795 0.12002 20.0095 0.10002 19.7495 0.0800195C19.6695 0.0700195 19.5795 0.0700195 19.4995 0.0600195C19.1195 0.0300195 18.7795 0.0200195 18.4195 0.0200195C18.3595 0.0200195 18.2995 0.0200195 18.2495 0.0200195H18.1395C17.1095 0.0400195 16.0895 0.14002 15.0795 0.32002H15.0695C15.0495 0.32002 15.0295 0.33002 15.0095 0.33002C14.7495 0.38002 14.4895 0.43002 14.2295 0.49002C14.1795 0.50002 14.1295 0.51002 14.0795 0.52002C13.8195 0.58002 13.5595 0.65002 13.3095 0.73002C13.2695 0.74002 13.2295 0.75002 13.1895 0.77002C12.9195 0.85002 12.6495 0.940019 12.3895 1.03002C12.3595 1.04002 12.3395 1.05002 12.3095 1.06002C12.0295 1.16002 11.7495 1.27002 11.4695 1.38002L11.4495 1.39002C9.71951 2.10002 8.10952 3.07002 6.66952 4.27002C6.58952 4.33002 6.50951 4.41002 6.42951 4.48002C6.28952 4.60002 6.13951 4.72002 5.99952 4.85002C5.87952 4.96002 5.75951 5.08002 5.63951 5.20002C5.54951 5.29002 5.44952 5.38002 5.35952 5.47002C5.21952 5.61002 5.08952 5.75002 4.95952 5.89002C4.88951 5.97002 4.81952 6.04002 4.74952 6.12002C4.60952 6.27002 4.46952 6.43002 4.33952 6.59002C4.27952 6.66002 4.21951 6.73002 4.15951 6.80002C4.02951 6.96002 3.89952 7.13002 3.76952 7.29002C3.71952 7.37002 3.65952 7.44002 3.59952 7.52002C3.47952 7.68002 3.35952 7.85002 3.24952 8.02002C3.18952 8.10002 3.12952 8.19002 3.07952 8.27002C3.01952 8.35002 2.95952 8.43002 2.90952 8.52002C2.89952 8.53002 2.89952 8.54002 2.89952 8.55002C-2.58048 17.12 -0.0604849 28.5 8.49952 33.97C9.90952 34.87 11.4295 35.57 13.0295 36.06C13.5295 36.23 14.0495 36.34 14.5795 36.41V39.04C14.5795 40.49 15.7495 41.66 17.1995 41.66H39.4495C40.8995 41.66 42.0695 40.49 42.0695 39.04V24.6C42.0595 23.15 40.8895 21.98 39.4495 21.98ZM14.5795 24.6V31.6C13.3795 31.45 13.1195 31.15 13.0795 31.08C13.0495 31.05 13.0395 31.02 13.0395 31.02C13.0895 30.93 13.1095 30.82 13.0895 30.72C13.0395 30.16 13.0295 29.59 13.0595 29.03C13.0795 27.45 13.0795 26.38 12.7795 25.82C12.5895 25.32 12.4395 24.8 12.3595 24.27C12.2195 23.37 11.9495 22.5 11.5595 21.68C11.1695 21.15 10.6695 20.7 10.0895 20.37C9.41952 19.91 8.71952 19.44 8.71952 18.91C8.71952 17.55 8.71951 15.49 6.88951 14.27C5.31951 13.23 3.69952 12.15 3.69952 9.79002C3.69952 9.51002 3.71952 9.24002 3.75952 8.97002C3.80952 8.89002 3.84952 8.82002 3.89952 8.76002C3.93952 8.70002 3.98952 8.63002 4.02952 8.57002C4.14952 8.39002 4.26952 8.22002 4.38951 8.06002C4.42951 8.00002 4.46951 7.95002 4.51952 7.89002C4.64952 7.72002 4.77951 7.56002 4.90951 7.39002C4.95952 7.34002 4.99952 7.28002 5.04952 7.23002C5.17952 7.07002 5.30951 6.92002 5.44951 6.77002C5.50951 6.71002 5.56952 6.64002 5.62952 6.58002C5.75952 6.44002 5.88951 6.30002 6.01952 6.17002C6.09951 6.09002 6.16952 6.02002 6.24952 5.94002C6.36951 5.82002 6.48952 5.70002 6.60952 5.59002C6.70952 5.50002 6.80951 5.41002 6.91952 5.32002C7.01952 5.23002 7.11951 5.14002 7.22952 5.05002C7.35952 4.94002 7.48952 4.84002 7.62952 4.73002C7.69952 4.67002 7.77951 4.60002 7.86951 4.54002C8.02952 4.42002 8.18952 4.30002 8.35952 4.18002C8.41952 4.14002 8.47952 4.10002 8.52952 4.06002C8.71951 3.93002 8.91952 3.80002 9.10952 3.68002C9.14952 3.66002 9.17952 3.63002 9.21952 3.61002C9.43952 3.47002 9.65952 3.34002 9.87952 3.22002C9.89952 3.20002 9.91951 3.19002 9.93952 3.18002C10.1795 3.05002 10.4095 2.92002 10.6495 2.80002L10.6795 2.79002C10.9295 2.67002 11.1695 2.55002 11.4195 2.44002L11.4395 2.43002C11.6895 2.32002 11.9395 2.22002 12.1995 2.12002C12.2095 2.12002 12.2195 2.11002 12.2295 2.11002C12.4795 2.02002 12.7295 1.93002 12.9795 1.85002C12.9995 1.84002 13.0195 1.84002 13.0395 1.83002C13.2895 1.75002 13.5295 1.68002 13.7795 1.61002C13.8095 1.60002 13.8295 1.59002 13.8595 1.59002C14.1095 1.52002 14.3495 1.46002 14.5995 1.41002C14.6195 1.41002 14.6395 1.40002 14.6695 1.39002C14.6595 1.49002 14.6395 1.59002 14.6195 1.70002C14.5795 1.94002 14.2995 4.05002 15.1495 5.08002C15.9195 6.02002 16.3795 7.15002 16.1295 7.51002C15.7995 8.08002 15.2195 8.45002 14.5695 8.52002C14.2295 8.47002 13.9095 8.36002 13.6095 8.20002C13.0895 7.96002 12.4395 7.67002 12.0695 8.19002C11.9095 8.49002 11.8295 8.82002 11.8295 9.16002C11.7895 9.54002 11.7295 10.16 11.5095 10.24C11.0795 10.27 10.6495 10.25 10.2195 10.17C9.03952 10 7.67951 9.83002 7.40951 10.82C7.11951 11.87 7.98952 12.7 8.39952 13.1C8.44952 13.15 8.49952 13.2 8.54952 13.25C8.63952 13.36 9.46952 14.33 11.6695 14.33C12.1395 14.33 12.5395 14.3 12.8695 14.27C13.7595 14.2 13.9595 14.2 14.2995 14.66C14.5095 15.06 14.6095 15.52 14.5995 15.97C14.6395 16.63 14.6995 17.54 15.5895 17.65C16.1495 17.65 16.6995 17.51 17.1995 17.26C17.8695 16.99 18.6395 16.69 19.1395 16.92C19.9695 17.3 20.9795 18.1 21.1595 18.71C21.2095 18.81 21.1995 18.93 21.1395 19.03C20.9495 19.37 20.7995 19.72 20.6795 20.09C20.2695 21.22 19.9295 21.97 19.0095 21.97H17.1995C15.7495 21.98 14.5795 23.15 14.5795 24.6ZM19.4795 22.93H20.7295V26.31H19.4795V22.93ZM20.1095 29.56C19.8495 29.56 19.6295 29.77 19.6295 30.04V31.15H18.6895V27.28H21.5295V31.15H20.5895V30.04C20.5795 29.78 20.3695 29.56 20.1095 29.56ZM20.7295 32.1V40.7H19.4795V32.1H20.7295ZM21.6895 32.1H21.9995C22.2595 32.1 22.4795 31.89 22.4795 31.62V26.79C22.4795 26.53 22.2695 26.31 21.9995 26.31H21.6795V22.93H34.9395V26.31H34.6195C34.3595 26.31 34.1395 26.52 34.1395 26.79V31.62C34.1395 31.88 34.3495 32.1 34.6195 32.1H34.9395V40.7H21.6895V32.1ZM32.4895 21.98H31.8595V20.76C31.8595 20.02 31.2595 19.42 30.5195 19.42H26.1195C25.3795 19.42 24.7795 20.02 24.7795 20.76V21.98H24.1495V20.47C24.1495 19.62 24.8395 18.93 25.6895 18.93H30.9495C31.7995 18.93 32.4895 19.62 32.4895 20.47V21.98ZM25.7295 21.98V20.76C25.7295 20.55 25.8995 20.37 26.1195 20.37H30.5195C30.7295 20.37 30.9095 20.54 30.9095 20.76V21.98H25.7295ZM37.9595 27.27V31.14H37.0195V30.03C37.0195 29.77 36.8095 29.55 36.5395 29.55C36.2695 29.55 36.0595 29.76 36.0595 30.03V31.14H35.1195V27.27H37.9595ZM35.9095 32.1H37.1595V40.7H35.9095V32.1ZM35.9095 26.32V22.94H37.1595V26.32H35.9095ZM33.4495 21.98V20.47C33.4495 19.09 32.3295 17.97 30.9495 17.97H25.6895C24.3095 17.97 23.1895 19.09 23.1895 20.47V21.98H20.8295C21.1395 21.5 21.3895 20.98 21.5595 20.43C21.6595 20.12 21.7895 19.82 21.9395 19.54C22.1395 19.21 22.1795 18.8 22.0495 18.44C21.7295 17.39 20.3495 16.44 19.5095 16.06C18.6295 15.66 17.6695 16.04 16.8195 16.38C16.4595 16.56 16.0595 16.67 15.6595 16.71C15.5695 16.46 15.5295 16.19 15.5295 15.92C15.5395 15.28 15.3795 14.66 15.0495 14.11C14.3895 13.2 13.6795 13.25 12.7695 13.33C12.4495 13.36 12.0895 13.39 11.6495 13.39C9.89952 13.39 9.27952 12.68 9.27952 12.67C9.20952 12.58 9.12952 12.5 9.03952 12.43C8.61952 12.03 8.17952 11.56 8.29952 11.1C8.47952 10.92 9.56952 11.05 10.0895 11.12C10.6495 11.24 11.2295 11.25 11.7995 11.15C12.6095 10.88 12.6995 9.91002 12.7595 9.26002C12.7695 9.16002 12.7795 9.02002 12.7995 8.91002C12.9395 8.95002 13.0995 9.02002 13.2095 9.07002C13.6295 9.30002 14.0895 9.43002 14.5695 9.47002C15.5395 9.42002 16.4195 8.89002 16.9195 8.05002C17.6095 7.05002 16.5995 5.32002 15.8895 4.47002C15.4495 3.94002 15.4595 2.57002 15.5695 1.86002C15.6195 1.64002 15.6395 1.42002 15.6495 1.20002C16.2795 1.10002 16.9195 1.03002 17.5595 1.00002C17.1995 2.81002 17.5395 3.33002 17.6595 3.51002C18.1895 4.31002 18.7695 4.75002 19.3695 4.83002C19.4295 4.84002 19.4895 4.84002 19.5495 4.84002C19.9595 4.83002 20.3395 4.67002 20.6395 4.39002C21.5695 3.58002 22.3595 2.64002 22.9995 1.58002C23.8495 1.81002 24.6795 2.11002 25.4795 2.46002C24.9795 2.75002 24.5295 3.13002 24.1595 3.58002C23.2095 4.84002 22.6395 5.84002 22.9395 6.58002C23.3695 7.43002 24.1695 8.03002 25.1095 8.20002C25.2295 8.22002 25.3595 8.22002 25.4795 8.22002C25.8795 8.21002 26.2695 8.16002 26.6595 8.08002C27.0895 7.99002 27.5295 7.94002 27.9695 7.93002C28.8995 7.89002 29.7395 7.39002 30.2095 6.59002C30.4595 6.48002 30.7295 6.39002 30.9895 6.33002C31.9995 7.38002 32.8695 8.54002 33.5895 9.80002C33.0995 9.84002 32.5995 9.84002 32.1095 9.79002C30.4695 9.63002 28.3195 9.52002 27.4095 9.92002C27.2495 9.99002 27.0795 10.06 26.8995 10.13C25.7795 10.58 24.2295 11.19 24.7095 12.96C24.8395 13.64 25.2895 14.21 25.9095 14.51C26.1795 14.61 26.3895 14.84 26.4495 15.13C26.5295 15.38 26.7295 15.57 26.9695 15.66C27.8295 16.05 30.1695 16.05 30.9395 15.68C31.6395 15.46 32.3995 15.71 32.8295 16.29C33.3095 17.01 35.1795 18.25 35.8695 18.69C35.8595 19.2 35.8395 19.71 35.7895 20.2C35.7095 20.7 35.5695 21.51 35.4595 21.97L33.4495 21.98ZM18.8995 0.99002C19.0595 0.99002 19.2195 1.00002 19.3895 1.01002C19.4795 1.01002 19.5695 1.02002 19.6595 1.02002C19.8695 1.03002 20.0795 1.05002 20.2895 1.07002C20.3295 1.07002 20.3595 1.08002 20.3995 1.08002C20.6595 1.11002 20.9195 1.14002 21.1795 1.18002C21.1895 1.18002 21.1995 1.18002 21.2095 1.18002C21.4895 1.22002 21.7695 1.28002 22.0395 1.33002H22.0495C21.4695 2.19002 20.7895 2.97002 20.0095 3.65002C19.8795 3.80002 19.6895 3.87002 19.4895 3.85002C19.0395 3.69002 18.6695 3.37002 18.4495 2.95002C18.3095 2.74002 18.2895 2.06002 18.5295 0.95002C18.6595 0.98002 18.7795 0.98002 18.8995 0.99002ZM26.6395 3.03002C26.8695 3.15002 27.0995 3.28002 27.3295 3.42002C27.5095 3.53002 27.6795 3.64002 27.8595 3.75002C27.9895 3.84002 28.1195 3.92002 28.2595 4.02002C28.4295 4.13002 28.5895 4.25002 28.7495 4.37002C28.8395 4.43002 28.9195 4.50002 29.0095 4.56002C29.4295 4.88002 29.8295 5.22002 30.2195 5.57002C29.6395 5.77002 29.4595 5.92002 29.3795 6.12002C29.0795 6.62002 28.5595 6.94002 27.9795 6.98002C27.4795 6.99002 26.9895 7.05002 26.5095 7.14002C26.0995 7.23002 25.6695 7.27002 25.2495 7.25002C24.6495 7.13002 24.1295 6.76002 23.8395 6.23002C23.7895 6.11002 23.8095 5.67002 24.9395 4.16002C25.3895 3.66002 25.9195 3.26002 26.5295 2.97002C26.5595 2.99002 26.5995 3.01002 26.6395 3.03002ZM34.1395 10.82C34.1995 10.94 34.2495 11.06 34.3095 11.18C34.3795 11.33 34.4495 11.47 34.5095 11.62C34.5495 11.7 34.5795 11.79 34.6095 11.88C34.6895 12.07 34.7595 12.26 34.8295 12.45L34.8395 12.47C35.4395 14.1 35.7895 15.82 35.8695 17.56C35.0595 17.06 34.3095 16.47 33.6395 15.78C33.1095 15.07 32.2895 14.65 31.3995 14.65C31.0995 14.65 30.7995 14.71 30.5295 14.84C29.9895 15.11 27.8195 15.07 27.3595 14.81C27.2095 14.31 26.8595 13.91 26.3795 13.7C25.9795 13.53 25.7095 13.17 25.6395 12.74C25.4095 11.88 25.9595 11.56 27.2595 11.04C27.4395 10.97 27.6195 10.9 27.7895 10.82C28.3395 10.58 29.9195 10.56 32.0195 10.77C32.6195 10.83 33.2195 10.83 33.8195 10.77L34.0895 10.74C34.1095 10.76 34.1195 10.79 34.1395 10.82ZM13.3395 35.16C4.10952 32.35 -1.09048 22.6 1.70952 13.38C1.99952 12.43 2.36952 11.51 2.80952 10.63C3.15952 12.94 4.91951 14.12 6.38951 15.1C7.75951 16.01 7.75952 17.63 7.75952 18.92C7.75952 19.95 8.70952 20.6 9.54952 21.17C9.99952 21.43 10.4095 21.77 10.7295 22.18C11.0595 22.91 11.2995 23.68 11.4195 24.47C11.5195 25.09 11.6895 25.7 11.9295 26.27C12.1295 26.65 12.1095 28.07 12.0995 29.01C12.0795 29.59 12.0895 30.17 12.1295 30.74C12.0595 31.01 12.0895 31.29 12.2295 31.53C12.5395 32.08 13.3095 32.42 14.5795 32.56V35.45C14.1595 35.38 13.7395 35.29 13.3395 35.16ZM15.5295 39.04V24.6C15.5295 23.68 16.2695 22.94 17.1895 22.94H18.5195V26.32H18.1995C17.9395 26.32 17.7195 26.53 17.7195 26.8V31.63C17.7195 31.89 17.9295 32.11 18.1995 32.11H18.5195V40.71H17.1995C16.2795 40.71 15.5295 39.96 15.5295 39.04ZM41.1095 39.04C41.1095 39.96 40.3695 40.7 39.4495 40.7H38.1195V32.1H38.4395C38.6995 32.1 38.9195 31.89 38.9195 31.62V26.79C38.9195 26.53 38.7095 26.31 38.4395 26.31H38.1195V22.93H39.4495C40.3695 22.93 41.1095 23.67 41.1095 24.59V39.04Z" fill="#464860"/>
</svg>
