<svg width="78" height="78" viewBox="0 0 78 78" fill="none" xmlns="http://www.w3.org/2000/svg">
<rect width="78" height="78" fill="white"/>
<path d="M32.5797 42.5999V49.5999C31.3797 49.4499 31.1197 49.1499 31.0797 49.0799C31.0497 49.0499 31.0397 49.0199 31.0397 49.0199C31.0897 48.9299 31.1097 48.8199 31.0897 48.7199C31.0397 48.1599 31.0297 47.5899 31.0597 47.0299C31.0797 45.4499 31.0797 44.3799 30.7797 43.8199C30.5897 43.3199 30.4397 42.7999 30.3597 42.2699C30.2197 41.3699 29.9497 40.4999 29.5597 39.6799C29.1697 39.1499 28.6697 38.6999 28.0897 38.3699C27.4197 37.9099 26.7197 37.4399 26.7197 36.9099C26.7197 35.5499 26.7197 33.4899 24.8897 32.2699C23.3197 31.2299 21.6997 30.1499 21.6997 27.7899C21.6997 27.5099 21.7197 27.2399 21.7597 26.9699C21.8097 26.8899 21.8497 26.8199 21.8997 26.7599C21.9397 26.6999 21.9897 26.6299 22.0297 26.5699C22.1497 26.3899 22.2697 26.2199 22.3897 26.0599C22.4297 25.9999 22.4697 25.9499 22.5197 25.8899C22.6497 25.7199 22.7797 25.5599 22.9097 25.3899C22.9597 25.3399 22.9997 25.2799 23.0497 25.2299C23.1797 25.0699 23.3097 24.9199 23.4497 24.7699C23.5097 24.7099 23.5697 24.6399 23.6297 24.5799C23.7597 24.4399 23.8897 24.2999 24.0197 24.1699C24.0997 24.0899 24.1697 24.0199 24.2497 23.9399C24.3697 23.8199 24.4897 23.6999 24.6097 23.5899C24.7097 23.4999 24.8097 23.4099 24.9197 23.3199C25.0197 23.2299 25.1197 23.1399 25.2297 23.0499C25.3597 22.9399 25.4897 22.8399 25.6297 22.7299C25.6997 22.6699 25.7797 22.5999 25.8697 22.5399C26.0297 22.4199 26.1897 22.2999 26.3597 22.1799C26.4197 22.1399 26.4797 22.0999 26.5297 22.0599C26.7197 21.9299 26.9197 21.7999 27.1097 21.6799C27.1497 21.6599 27.1797 21.6299 27.2197 21.6099C27.4397 21.4699 27.6597 21.3399 27.8797 21.2199C27.8997 21.1999 27.9197 21.1899 27.9397 21.1799C28.1797 21.0499 28.4097 20.9199 28.6497 20.7999L28.6797 20.7899C28.9297 20.6699 29.1697 20.5499 29.4197 20.4399L29.4397 20.4299C29.6897 20.3199 29.9397 20.2199 30.1997 20.1199C30.2097 20.1199 30.2197 20.1099 30.2297 20.1099C30.4797 20.0199 30.7297 19.9299 30.9797 19.8499C30.9997 19.8399 31.0197 19.8399 31.0397 19.8299C31.2897 19.7499 31.5297 19.6799 31.7797 19.6099C31.8097 19.5999 31.8297 19.5899 31.8597 19.5899C32.1097 19.5199 32.3497 19.4599 32.5997 19.4099C32.6197 19.4099 32.6397 19.3999 32.6697 19.3899C32.6597 19.4899 32.6397 19.5899 32.6197 19.6999C32.5797 19.9399 32.2997 22.0499 33.1497 23.0799C33.9197 24.0199 34.3797 25.1499 34.1297 25.5099C33.7997 26.0799 33.2197 26.4499 32.5697 26.5199C32.2297 26.4699 31.9097 26.3599 31.6097 26.1999C31.0897 25.9599 30.4397 25.6699 30.0697 26.1899C29.9097 26.4899 29.8297 26.8199 29.8297 27.1599C29.7897 27.5399 29.7297 28.1599 29.5097 28.2399C29.0797 28.2699 28.6497 28.2499 28.2197 28.1699C27.0397 27.9999 25.6797 27.8299 25.4097 28.8199C25.1197 29.8699 25.9897 30.6999 26.3997 31.0999C26.4497 31.1499 26.4997 31.1999 26.5497 31.2499C26.6397 31.3599 27.4697 32.3299 29.6697 32.3299C30.1397 32.3299 30.5397 32.2999 30.8697 32.2699C31.7597 32.1999 31.9597 32.1999 32.2997 32.6599C32.5097 33.0599 32.6097 33.5199 32.5997 33.9699C32.6397 34.6299 32.6997 35.5399 33.5897 35.6499C34.1497 35.6499 34.6997 35.5099 35.1997 35.2599C35.8697 34.9899 36.6397 34.6899 37.1397 34.9199C37.9697 35.2999 38.9797 36.0999 39.1597 36.7099C39.2097 36.8099 39.1997 36.9299 39.1397 37.0299C38.9497 37.3699 38.7997 37.7199 38.6797 38.0899C38.2697 39.2199 37.9297 39.9699 37.0097 39.9699H35.1997C33.7497 39.9799 32.5797 41.1499 32.5797 42.5999Z" fill="white"/>
<path d="M38.7295 40.9299H37.4795V44.3099H38.7295V40.9299Z" fill="white"/>
<path d="M38.1095 47.56C37.8495 47.56 37.6295 47.77 37.6295 48.04V49.15H36.6895V45.28H39.5295V49.15H38.5895V48.04C38.5795 47.78 38.3695 47.56 38.1095 47.56Z" fill="white"/>
<path d="M38.7295 50.1001H37.4795V58.7001H38.7295V50.1001Z" fill="white"/>
<path d="M39.6897 50.0999H39.9997C40.2597 50.0999 40.4797 49.8899 40.4797 49.6199V44.7899C40.4797 44.5299 40.2697 44.3099 39.9997 44.3099H39.6797V40.9299H52.9397V44.3099H52.6197C52.3597 44.3099 52.1397 44.5199 52.1397 44.7899V49.6199C52.1397 49.8799 52.3497 50.0999 52.6197 50.0999H52.9397V58.6999H39.6897V50.0999Z" fill="white"/>
<path d="M55.9596 45.27V49.14H55.0196V48.03C55.0196 47.77 54.8096 47.55 54.5396 47.55C54.2696 47.55 54.0596 47.76 54.0596 48.03V49.14H53.1196V45.27H55.9596Z" fill="white"/>
<path d="M55.1597 50.1001H53.9097V58.7001H55.1597V50.1001Z" fill="white"/>
<path d="M55.1597 40.9299H53.9097V44.3099H55.1597V40.9299Z" fill="white"/>
<path d="M51.4494 39.98V38.47C51.4494 37.09 50.3294 35.97 48.9494 35.97H43.6894C42.3094 35.97 41.1894 37.09 41.1894 38.47V39.98H38.8294C39.1394 39.5 39.3894 38.98 39.5594 38.43C39.6594 38.12 39.7894 37.82 39.9394 37.54C40.1394 37.21 40.1794 36.8 40.0494 36.44C39.7294 35.39 38.3494 34.44 37.5094 34.06C36.6294 33.66 35.6694 34.04 34.8194 34.38C34.4594 34.56 34.0594 34.67 33.6594 34.71C33.5694 34.46 33.5294 34.19 33.5294 33.92C33.5394 33.28 33.3794 32.66 33.0494 32.11C32.3894 31.2 31.6794 31.25 30.7694 31.33C30.4494 31.36 30.0894 31.39 29.6494 31.39C27.8994 31.39 27.2794 30.68 27.2794 30.67C27.2094 30.58 27.1294 30.5 27.0394 30.43C26.6194 30.03 26.1794 29.56 26.2994 29.1C26.4794 28.92 27.5694 29.05 28.0894 29.12C28.6494 29.24 29.2294 29.25 29.7994 29.15C30.6094 28.88 30.6994 27.91 30.7594 27.26C30.7694 27.16 30.7794 27.02 30.7994 26.91C30.9394 26.95 31.0994 27.02 31.2094 27.07C31.6294 27.3 32.0894 27.43 32.5694 27.47C33.5394 27.42 34.4194 26.89 34.9194 26.05C35.6094 25.05 34.5994 23.32 33.8894 22.47C33.4494 21.94 33.4594 20.57 33.5694 19.86C33.6194 19.64 33.6394 19.42 33.6494 19.2C34.2794 19.1 34.9194 19.03 35.5594 19C35.1994 20.81 35.5394 21.33 35.6594 21.51C36.1894 22.31 36.7694 22.75 37.3694 22.83C37.4294 22.84 37.4894 22.84 37.5494 22.84C37.9594 22.83 38.3394 22.67 38.6394 22.39C39.5694 21.58 40.3594 20.64 40.9994 19.58C41.8494 19.81 42.6794 20.11 43.4794 20.46C42.9794 20.75 42.5294 21.13 42.1594 21.58C41.2094 22.84 40.6394 23.84 40.9394 24.58C41.3694 25.43 42.1694 26.03 43.1094 26.2C43.2294 26.22 43.3594 26.22 43.4794 26.22C43.8794 26.21 44.2694 26.16 44.6594 26.08C45.0894 25.99 45.5294 25.94 45.9694 25.93C46.8994 25.89 47.7394 25.39 48.2094 24.59C48.4594 24.48 48.7294 24.39 48.9894 24.33C49.9994 25.38 50.8694 26.54 51.5894 27.8C51.0994 27.84 50.5994 27.84 50.1094 27.79C48.4694 27.63 46.3194 27.52 45.4094 27.92C45.2494 27.99 45.0794 28.06 44.8994 28.13C43.7794 28.58 42.2294 29.19 42.7094 30.96C42.8394 31.64 43.2894 32.21 43.9094 32.51C44.1794 32.61 44.3894 32.84 44.4494 33.13C44.5294 33.38 44.7294 33.57 44.9694 33.66C45.8294 34.05 48.1694 34.05 48.9394 33.68C49.6394 33.46 50.3994 33.71 50.8294 34.29C51.3094 35.01 53.1794 36.25 53.8694 36.69C53.8594 37.2 53.8394 37.71 53.7894 38.2C53.7094 38.7 53.5694 39.51 53.4594 39.97L51.4494 39.98Z" fill="white"/>
<path d="M36.8996 18.99C37.0596 18.99 37.2196 19 37.3896 19.01C37.4796 19.01 37.5696 19.02 37.6596 19.02C37.8696 19.03 38.0796 19.05 38.2896 19.07C38.3296 19.07 38.3596 19.08 38.3996 19.08C38.6596 19.11 38.9196 19.14 39.1796 19.18C39.1896 19.18 39.1996 19.18 39.2096 19.18C39.4896 19.22 39.7696 19.28 40.0396 19.33H40.0496C39.4696 20.19 38.7896 20.97 38.0096 21.65C37.8796 21.8 37.6896 21.87 37.4896 21.85C37.0396 21.69 36.6696 21.37 36.4496 20.95C36.3096 20.74 36.2896 20.06 36.5296 18.95C36.6596 18.98 36.7796 18.98 36.8996 18.99Z" fill="white"/>
<path d="M44.6396 21.03C44.8696 21.15 45.0996 21.28 45.3296 21.42C45.5096 21.53 45.6796 21.64 45.8596 21.75C45.9896 21.84 46.1196 21.92 46.2596 22.02C46.4296 22.13 46.5896 22.25 46.7496 22.37C46.8396 22.43 46.9196 22.5 47.0096 22.56C47.4296 22.88 47.8296 23.22 48.2196 23.57C47.6396 23.77 47.4596 23.92 47.3796 24.12C47.0796 24.62 46.5596 24.94 45.9796 24.98C45.4796 24.99 44.9896 25.05 44.5096 25.14C44.0996 25.23 43.6696 25.27 43.2496 25.25C42.6496 25.13 42.1296 24.76 41.8396 24.23C41.7896 24.11 41.8096 23.67 42.9396 22.16C43.3896 21.66 43.9196 21.26 44.5296 20.97C44.5596 20.99 44.5996 21.01 44.6396 21.03Z" fill="white"/>
<path d="M52.1393 28.82C52.1993 28.94 52.2493 29.06 52.3093 29.18C52.3793 29.33 52.4493 29.47 52.5093 29.62C52.5493 29.7 52.5793 29.79 52.6093 29.88C52.6893 30.07 52.7593 30.26 52.8293 30.45L52.8393 30.47C53.4393 32.1 53.7893 33.82 53.8693 35.56C53.0593 35.06 52.3093 34.47 51.6393 33.78C51.1093 33.07 50.2893 32.65 49.3993 32.65C49.0993 32.65 48.7993 32.71 48.5293 32.84C47.9893 33.11 45.8193 33.07 45.3593 32.81C45.2093 32.31 44.8593 31.91 44.3793 31.7C43.9793 31.53 43.7093 31.17 43.6393 30.74C43.4093 29.88 43.9593 29.56 45.2593 29.04C45.4393 28.97 45.6193 28.9 45.7893 28.82C46.3393 28.58 47.9193 28.56 50.0193 28.77C50.6193 28.83 51.2193 28.83 51.8193 28.77L52.0893 28.74C52.1093 28.76 52.1193 28.79 52.1393 28.82Z" fill="white"/>
<path d="M31.3395 53.1599C22.1095 50.3499 16.9095 40.5999 19.7095 31.3799C19.9995 30.4299 20.3695 29.5099 20.8095 28.6299C21.1595 30.9399 22.9195 32.1199 24.3895 33.0999C25.7595 34.0099 25.7595 35.6299 25.7595 36.9199C25.7595 37.9499 26.7095 38.5999 27.5495 39.1699C27.9995 39.4299 28.4095 39.7699 28.7295 40.1799C29.0595 40.9099 29.2995 41.6799 29.4195 42.4699C29.5195 43.0899 29.6895 43.6999 29.9295 44.2699C30.1295 44.6499 30.1095 46.0699 30.0995 47.0099C30.0795 47.5899 30.0895 48.1699 30.1295 48.7399C30.0595 49.0099 30.0895 49.2899 30.2295 49.5299C30.5395 50.0799 31.3095 50.4199 32.5795 50.5599V53.4499C32.1595 53.3799 31.7395 53.2899 31.3395 53.1599Z" fill="white"/>
<path d="M33.5293 57.0399V42.5999C33.5293 41.6799 34.2693 40.9399 35.1893 40.9399H36.5193V44.3199H36.1993C35.9393 44.3199 35.7193 44.5299 35.7193 44.7999V49.6299C35.7193 49.8899 35.9293 50.1099 36.1993 50.1099H36.5193V58.7099H35.1993C34.2793 58.7099 33.5293 57.9599 33.5293 57.0399Z" fill="white"/>
<path d="M59.1096 57.0399C59.1096 57.9599 58.3696 58.6999 57.4496 58.6999H56.1196V50.0999H56.4396C56.6996 50.0999 56.9196 49.8899 56.9196 49.6199V44.7899C56.9196 44.5299 56.7096 44.3099 56.4396 44.3099H56.1196V40.9299H57.4496C58.3696 40.9299 59.1096 41.6699 59.1096 42.5899V57.0399Z" fill="white"/>
<path d="M50.4894 39.9799H49.8594V38.7599C49.8594 38.0199 49.2594 37.4199 48.5194 37.4199H44.1194C43.3794 37.4199 42.7794 38.0199 42.7794 38.7599V39.9799H42.1494V38.4699C42.1494 37.6199 42.8394 36.9299 43.6894 36.9299H48.9494C49.7994 36.9299 50.4894 37.6199 50.4894 38.4699V39.9799Z" fill="white"/>
<path d="M43.7295 39.9801V38.7601C43.7295 38.5501 43.8995 38.3701 44.1195 38.3701H48.5195C48.7295 38.3701 48.9095 38.5401 48.9095 38.7601V39.9801H43.7295Z" fill="white"/>
<path d="M32.5797 41.6399V48.6399C31.3797 48.4899 31.1197 48.1899 31.0797 48.1199C31.0597 48.0899 31.0497 48.0599 31.0497 48.0599C31.0997 47.9699 31.1197 47.8599 31.0997 47.7599C31.0497 47.1999 31.0397 46.6299 31.0697 46.0699C31.0897 44.4899 31.0897 43.4199 30.7897 42.8599C30.5997 42.3599 30.4497 41.8399 30.3697 41.3099C30.2297 40.4099 29.9597 39.5399 29.5697 38.7199C29.1797 38.1899 28.6797 37.7399 28.0997 37.4099C27.4297 36.9499 26.7297 36.4799 26.7297 35.9499C26.7297 34.5899 26.7297 32.5299 24.8997 31.3099C23.3197 30.2699 21.6997 29.1899 21.6997 26.8299C21.6997 26.5499 21.7197 26.2799 21.7597 26.0099C21.8097 25.9299 21.8497 25.8599 21.8997 25.7999C21.9397 25.7399 21.9897 25.6699 22.0297 25.6099C22.1497 25.4399 22.2697 25.2699 22.3897 25.0999C22.4297 25.0399 22.4697 24.9899 22.5197 24.9299C22.6497 24.7599 22.7797 24.5999 22.9097 24.4299C22.9597 24.3799 22.9997 24.3199 23.0497 24.2699C23.1797 24.1099 23.3097 23.9599 23.4497 23.8099C23.5097 23.7499 23.5697 23.6799 23.6297 23.6199C23.7597 23.4799 23.8897 23.3399 24.0197 23.2099C24.0997 23.1299 24.1697 23.0599 24.2497 22.9799C24.3697 22.8599 24.4897 22.7499 24.6097 22.6399C24.7097 22.5499 24.8097 22.4599 24.9197 22.3699C25.0197 22.2799 25.1197 22.1899 25.2297 22.0999C25.3597 21.9899 25.4897 21.8899 25.6297 21.7799C25.6997 21.7099 25.7797 21.6399 25.8697 21.5799C26.0297 21.4599 26.1897 21.3399 26.3597 21.2199C26.4197 21.1799 26.4797 21.1399 26.5297 21.0999C26.7197 20.9699 26.9197 20.8399 27.1197 20.7199C27.1597 20.6999 27.1897 20.6699 27.2297 20.6499C27.4497 20.5199 27.6697 20.3899 27.8897 20.2599C27.8997 20.2499 27.9197 20.2299 27.9397 20.2199C28.1797 20.0899 28.4097 19.9599 28.6497 19.8399L28.6797 19.8299C28.9297 19.7099 29.1697 19.5899 29.4197 19.4799L29.4397 19.4699C29.6897 19.3599 29.9397 19.2599 30.1997 19.1599C30.2097 19.1599 30.2197 19.1499 30.2297 19.1499C30.4797 19.0599 30.7297 18.9699 30.9797 18.8899C30.9997 18.8799 31.0197 18.8799 31.0397 18.8699C31.2897 18.7899 31.5297 18.7199 31.7797 18.6499C31.8097 18.6399 31.8297 18.6299 31.8597 18.6299C32.1097 18.5599 32.3497 18.4999 32.5997 18.4499C32.6197 18.4499 32.6397 18.4399 32.6697 18.4299C32.6597 18.5299 32.6397 18.6299 32.6197 18.7399C32.5797 18.9799 32.2997 21.0899 33.1497 22.1199C33.9197 23.0599 34.3797 24.1899 34.1297 24.5499C33.7997 25.1199 33.2197 25.4899 32.5697 25.5599C32.2297 25.5099 31.9097 25.3999 31.6097 25.2399C31.0897 24.9999 30.4397 24.7099 30.0697 25.2299C29.9097 25.5299 29.8297 25.8599 29.8297 26.1999C29.7897 26.5799 29.7297 27.1999 29.5097 27.2799C29.0797 27.3099 28.6497 27.2899 28.2197 27.2099C27.0397 27.0499 25.6797 26.8699 25.4097 27.8599C25.1197 28.9099 25.9897 29.7399 26.3997 30.1399C26.4497 30.1899 26.4997 30.2399 26.5497 30.2899C26.6397 30.3999 27.4697 31.3699 29.6697 31.3699C30.1397 31.3699 30.5397 31.3399 30.8697 31.3099C31.7597 31.2399 31.9597 31.2399 32.2997 31.6999C32.5097 32.0999 32.6097 32.5599 32.5997 33.0099C32.6397 33.6699 32.6997 34.5799 33.5897 34.6899C34.1497 34.6899 34.6997 34.5499 35.1997 34.2999C35.8697 34.0299 36.6397 33.7299 37.1397 33.9599C37.9697 34.3399 38.9797 35.1399 39.1597 35.7499C39.2097 35.8499 39.1997 35.9699 39.1397 36.0699C38.9497 36.4099 38.7997 36.7599 38.6797 37.1299C38.2597 38.2699 37.9197 39.0199 36.9997 39.0199H35.1997C33.7497 39.0199 32.5797 40.1899 32.5797 41.6399Z" fill="#A3EFE0"/>
<path d="M39.0996 41.4199H37.8496V44.7999H39.0996V41.4199Z" fill="#CCB8F4"/>
<path d="M38.4796 48.06C38.2196 48.06 37.9996 48.27 37.9996 48.54V49.65H37.0596V45.78H39.8996V49.65H38.9596V48.54C38.9596 48.27 38.7496 48.06 38.4796 48.06Z" fill="#CCB8F4"/>
<path d="M39.0996 50.6001H37.8496V59.2001H39.0996V50.6001Z" fill="#CCB8F4"/>
<path d="M56.3297 45.76V49.63H55.3897V48.52C55.3897 48.26 55.1797 48.04 54.9097 48.04C54.6497 48.04 54.4297 48.25 54.4297 48.52V49.63H53.4897V45.76H56.3297Z" fill="#CCB8F4"/>
<path d="M55.5293 50.6001H54.2793V59.2001H55.5293V50.6001Z" fill="#CCB8F4"/>
<path d="M55.5293 41.4199H54.2793V44.7999H55.5293V41.4199Z" fill="#CCB8F4"/>
<path d="M51.0294 39.3001V37.7901C51.0294 36.4101 49.9094 35.2901 48.5294 35.2901H43.2694C41.8894 35.2901 40.7694 36.4101 40.7694 37.7901V39.3001H38.4094C38.7194 38.8201 38.9694 38.3001 39.1394 37.7501C39.2394 37.4401 39.3694 37.1401 39.5194 36.8601C39.7194 36.5301 39.7594 36.1201 39.6294 35.7601C39.3094 34.7101 37.9294 33.7601 37.0894 33.3801C36.2094 32.9801 35.2494 33.3601 34.3994 33.7001C34.0394 33.8801 33.6394 33.9901 33.2394 34.0301C33.1494 33.7801 33.1094 33.5101 33.1094 33.2401C33.1194 32.6001 32.9594 31.9801 32.6294 31.4301C31.9694 30.5201 31.2594 30.5701 30.3494 30.6501C30.0294 30.6801 29.6694 30.7101 29.2294 30.7101C27.4794 30.7101 26.8594 30.0001 26.8594 29.9901C26.7894 29.9001 26.7094 29.8201 26.6194 29.7501C26.1994 29.3501 25.7594 28.8801 25.8794 28.4201C26.0594 28.2401 27.1494 28.3701 27.6694 28.4401C28.2294 28.5601 28.8094 28.5701 29.3794 28.4701C30.1894 28.2001 30.2794 27.2301 30.3394 26.5801C30.3494 26.4801 30.3594 26.3401 30.3794 26.2301C30.4994 26.2801 30.6594 26.3501 30.7694 26.4001C31.1894 26.6301 31.6494 26.7601 32.1294 26.8001C33.0994 26.7501 33.9794 26.2201 34.4794 25.3801C35.1694 24.3801 34.1594 22.6501 33.4494 21.8001C33.0094 21.2701 33.0194 19.9001 33.1294 19.1901C33.1794 18.9701 33.1994 18.7501 33.2094 18.5301C33.8394 18.4301 34.4794 18.3601 35.1194 18.3301C34.7594 20.1401 35.0994 20.6601 35.2194 20.8401C35.7494 21.6401 36.3294 22.0801 36.9294 22.1601C36.9894 22.1701 37.0494 22.1701 37.1094 22.1701C37.5194 22.1601 37.8994 22.0001 38.1994 21.7201C39.1294 20.9101 39.9194 19.9701 40.5594 18.9101C41.4094 19.1401 42.2394 19.4401 43.0394 19.7901C42.5394 20.0801 42.0894 20.4601 41.7194 20.9101C40.7694 22.1701 40.1994 23.1701 40.4994 23.9101C40.9294 24.7601 41.7294 25.3601 42.6694 25.5301C42.7894 25.5501 42.9194 25.5501 43.0394 25.5501C43.4394 25.5401 43.8294 25.4901 44.2194 25.4101C44.6494 25.3201 45.0894 25.2701 45.5294 25.2601C46.4594 25.2201 47.2994 24.7201 47.7694 23.9201C48.0194 23.8101 48.2894 23.7201 48.5494 23.6601C49.5594 24.7101 50.4294 25.8701 51.1494 27.1301C50.6594 27.1701 50.1594 27.1701 49.6694 27.1201C48.0294 26.9601 45.8794 26.8501 44.9694 27.2501C44.8094 27.3201 44.6394 27.3901 44.4594 27.4601C43.3394 27.9101 41.7894 28.5201 42.2694 30.2901C42.3994 30.9701 42.8494 31.5401 43.4694 31.8401C43.7394 31.9401 43.9494 32.1701 44.0094 32.4601C44.0894 32.7101 44.2894 32.9001 44.5294 32.9901C45.3894 33.3801 47.7294 33.3801 48.4994 33.0101C49.1994 32.7901 49.9594 33.0401 50.3894 33.6201C50.8694 34.3401 52.7394 35.5801 53.4294 36.0201C53.4194 36.5301 53.3994 37.0401 53.3494 37.5301C53.2694 38.0301 53.1294 38.8401 53.0194 39.3001H51.0294Z" fill="#CCB8F4"/>
<path d="M36.8996 18.03C37.0596 18.03 37.2196 18.04 37.3896 18.05C37.4796 18.06 37.5696 18.06 37.6596 18.07C37.8696 18.08 38.0796 18.1 38.2896 18.12C38.3296 18.12 38.3596 18.13 38.3996 18.13C38.6596 18.16 38.9196 18.19 39.1796 18.23C39.1896 18.23 39.1996 18.23 39.2096 18.23C39.4896 18.27 39.7696 18.33 40.0396 18.38H40.0496C39.4696 19.24 38.7896 20.02 38.0096 20.7C37.8796 20.85 37.6896 20.92 37.4896 20.9C37.0396 20.74 36.6696 20.42 36.4496 20C36.3096 19.79 36.2896 19.11 36.5296 18C36.6596 18.02 36.7796 18.03 36.8996 18.03Z" fill="#A3EFE0"/>
<path d="M44.6393 20.07C44.8693 20.19 45.0993 20.32 45.3293 20.46C45.5093 20.57 45.6793 20.68 45.8593 20.79C45.9993 20.88 46.1393 20.97 46.2693 21.06C46.4393 21.17 46.5993 21.29 46.7593 21.41C46.8493 21.47 46.9293 21.54 47.0193 21.6C47.4393 21.92 47.8393 22.26 48.2293 22.61C47.6493 22.81 47.4693 22.96 47.3893 23.16C47.0893 23.66 46.5693 23.98 45.9893 24.02C45.4893 24.03 44.9993 24.09 44.5193 24.18C44.1093 24.27 43.6793 24.31 43.2593 24.29C42.6593 24.17 42.1393 23.8 41.8493 23.27C41.7993 23.15 41.8193 22.71 42.9493 21.2C43.3993 20.7 43.9293 20.3 44.5393 20.01C44.5593 20.03 44.5993 20.05 44.6393 20.07Z" fill="#A3EFE0"/>
<path d="M52.1393 27.8601C52.1993 27.9801 52.2493 28.1001 52.3093 28.2201C52.3793 28.3701 52.4493 28.5101 52.5093 28.6601C52.5493 28.7401 52.5793 28.8301 52.6093 28.9201C52.6893 29.1101 52.7593 29.3001 52.8293 29.4901L52.8393 29.5101C53.4393 31.1401 53.7893 32.8601 53.8693 34.6001C53.0593 34.1001 52.3093 33.5101 51.6393 32.8201C51.1093 32.1101 50.2893 31.6901 49.3993 31.6901C49.0993 31.6901 48.7993 31.7501 48.5293 31.8801C47.9893 32.1501 45.8193 32.1101 45.3593 31.8501C45.2093 31.3501 44.8593 30.9501 44.3793 30.7401C43.9793 30.5701 43.7093 30.2101 43.6393 29.7801C43.4093 28.9201 43.9593 28.6001 45.2593 28.0801C45.4393 28.0101 45.6193 27.9401 45.7893 27.8601C46.3393 27.6201 47.9193 27.6001 50.0193 27.8101C50.6193 27.8701 51.2193 27.8701 51.8193 27.8101L52.0893 27.7801C52.1093 27.8001 52.1193 27.8301 52.1393 27.8601Z" fill="#A3EFE0"/>
<path d="M30.9196 52.4799C21.6996 49.68 16.4896 39.93 19.2996 30.7C19.5896 29.75 19.9596 28.83 20.3996 27.95C20.7496 30.26 22.5096 31.44 23.9796 32.42C25.3496 33.33 25.3496 34.95 25.3496 36.24C25.3496 37.2699 26.2996 37.92 27.1396 38.49C27.5896 38.75 27.9996 39.09 28.3196 39.5C28.6496 40.2299 28.8896 41 29.0096 41.79C29.1096 42.41 29.2796 43.02 29.5196 43.59C29.7196 43.9699 29.6996 45.3899 29.6896 46.33C29.6696 46.91 29.6796 47.49 29.7196 48.06C29.6496 48.33 29.6796 48.61 29.8196 48.85C30.1296 49.4 30.8996 49.74 32.1696 49.88V52.77C31.7396 52.71 31.3296 52.6099 30.9196 52.4799Z" fill="#CCB8F4"/>
<path d="M50.4894 39.9799H49.8594V38.7599C49.8594 38.0199 49.2594 37.4199 48.5194 37.4199H44.1194C43.3794 37.4199 42.7794 38.0199 42.7794 38.7599V39.9799H42.1494V38.4699C42.1494 37.6199 42.8394 36.9299 43.6894 36.9299H48.9494C49.7994 36.9299 50.4894 37.6199 50.4894 38.4699V39.9799Z" fill="white"/>
<path d="M43.7295 39.9801V38.7601C43.7295 38.5501 43.8995 38.3701 44.1195 38.3701H48.5195C48.7295 38.3701 48.9095 38.5401 48.9095 38.7601V39.9801H43.7295Z" fill="#CCB8F4"/>
<path d="M57.4495 39.98H54.4595C54.5995 39.35 54.7195 38.55 54.7595 38.33C54.8195 37.7 54.8595 37.08 54.8595 36.45C54.8595 36.11 54.8495 35.77 54.8295 35.43C54.8195 35.29 54.8095 35.15 54.7995 35.02C54.7795 34.83 54.7695 34.63 54.7495 34.44C54.7295 34.27 54.7095 34.1 54.6795 33.92C54.6595 33.77 54.6395 33.61 54.6095 33.46C54.5795 33.27 54.5495 33.09 54.5095 32.9C54.4795 32.77 54.4595 32.63 54.4295 32.5C54.3895 32.31 54.3395 32.11 54.2995 31.92C54.2695 31.8 54.2295 31.67 54.1995 31.55C54.1195 31.27 54.0395 30.98 53.9395 30.7C53.8695 30.5 53.8095 30.3 53.7395 30.1C53.6895 29.97 53.6395 29.84 53.5795 29.7C53.5095 29.51 53.4295 29.33 53.3495 29.14C53.2995 29.01 53.2395 28.89 53.1795 28.76C53.0895 28.57 53.0095 28.39 52.9095 28.21C52.8795 28.14 52.8395 28.07 52.8095 28C52.7995 27.99 52.7895 27.98 52.7895 27.97C51.9395 26.34 50.8495 24.84 49.5595 23.53C49.5495 23.51 49.5295 23.49 49.5095 23.47C49.3995 23.36 49.2795 23.26 49.1695 23.15C48.9995 22.99 48.8395 22.84 48.6695 22.69C48.5195 22.55 48.3595 22.42 48.2095 22.29C47.9495 22.07 47.6795 21.86 47.4095 21.66C47.2695 21.56 47.1395 21.46 46.9995 21.37C46.7495 21.2 46.4995 21.03 46.2495 20.87C46.1495 20.81 46.0495 20.74 45.9495 20.68C45.6095 20.47 45.2595 20.28 44.9095 20.1C44.8495 20.07 44.7995 20.04 44.7495 20.01C44.7395 20.01 44.7295 20.01 44.7195 20C43.4795 19.37 42.1795 18.89 40.8395 18.56C40.8395 18.56 40.8295 18.56 40.8295 18.55C40.7795 18.54 40.7395 18.53 40.6895 18.52C40.4095 18.45 40.1295 18.39 39.8495 18.34C39.7695 18.32 39.6895 18.31 39.6095 18.3C39.3395 18.25 39.0795 18.21 38.8095 18.18C38.7195 18.17 38.6295 18.16 38.5495 18.15C38.2795 18.12 38.0095 18.1 37.7495 18.08C37.6695 18.07 37.5795 18.07 37.4995 18.06C37.1195 18.03 36.7795 18.02 36.4195 18.02C36.3595 18.02 36.2995 18.02 36.2495 18.02H36.1395C35.1095 18.04 34.0895 18.14 33.0795 18.32H33.0695C33.0495 18.32 33.0295 18.33 33.0095 18.33C32.7495 18.38 32.4895 18.43 32.2295 18.49C32.1795 18.5 32.1295 18.51 32.0795 18.52C31.8195 18.58 31.5595 18.65 31.3095 18.73C31.2695 18.74 31.2295 18.75 31.1895 18.77C30.9195 18.85 30.6495 18.94 30.3895 19.03C30.3595 19.04 30.3395 19.05 30.3095 19.06C30.0295 19.16 29.7495 19.27 29.4695 19.38L29.4495 19.39C27.7195 20.1 26.1095 21.07 24.6695 22.27C24.5895 22.33 24.5095 22.41 24.4295 22.48C24.2895 22.6 24.1395 22.72 23.9995 22.85C23.8795 22.96 23.7595 23.08 23.6395 23.2C23.5495 23.29 23.4495 23.38 23.3595 23.47C23.2195 23.61 23.0895 23.75 22.9595 23.89C22.8895 23.97 22.8195 24.04 22.7495 24.12C22.6095 24.27 22.4695 24.43 22.3395 24.59C22.2795 24.66 22.2195 24.73 22.1595 24.8C22.0295 24.96 21.8995 25.13 21.7695 25.29C21.7195 25.37 21.6595 25.44 21.5995 25.52C21.4795 25.68 21.3595 25.85 21.2495 26.02C21.1895 26.1 21.1295 26.19 21.0795 26.27C21.0195 26.35 20.9595 26.43 20.9095 26.52C20.8995 26.53 20.8995 26.54 20.8995 26.55C15.4195 35.12 17.9395 46.5 26.4995 51.97C27.9095 52.87 29.4295 53.57 31.0295 54.06C31.5295 54.23 32.0495 54.34 32.5795 54.41V57.04C32.5795 58.49 33.7495 59.66 35.1995 59.66H57.4495C58.8995 59.66 60.0695 58.49 60.0695 57.04V42.6C60.0595 41.15 58.8895 39.98 57.4495 39.98ZM32.5795 42.6V49.6C31.3795 49.45 31.1195 49.15 31.0795 49.08C31.0495 49.05 31.0395 49.02 31.0395 49.02C31.0895 48.93 31.1095 48.82 31.0895 48.72C31.0395 48.16 31.0295 47.59 31.0595 47.03C31.0795 45.45 31.0795 44.38 30.7795 43.82C30.5895 43.32 30.4395 42.8 30.3595 42.27C30.2195 41.37 29.9495 40.5 29.5595 39.68C29.1695 39.15 28.6695 38.7 28.0895 38.37C27.4195 37.91 26.7195 37.44 26.7195 36.91C26.7195 35.55 26.7195 33.49 24.8895 32.27C23.3195 31.23 21.6995 30.15 21.6995 27.79C21.6995 27.51 21.7195 27.24 21.7595 26.97C21.8095 26.89 21.8495 26.82 21.8995 26.76C21.9395 26.7 21.9895 26.63 22.0295 26.57C22.1495 26.39 22.2695 26.22 22.3895 26.06C22.4295 26 22.4695 25.95 22.5195 25.89C22.6495 25.72 22.7795 25.56 22.9095 25.39C22.9595 25.34 22.9995 25.28 23.0495 25.23C23.1795 25.07 23.3095 24.92 23.4495 24.77C23.5095 24.71 23.5695 24.64 23.6295 24.58C23.7595 24.44 23.8895 24.3 24.0195 24.17C24.0995 24.09 24.1695 24.02 24.2495 23.94C24.3695 23.82 24.4895 23.7 24.6095 23.59C24.7095 23.5 24.8095 23.41 24.9195 23.32C25.0195 23.23 25.1195 23.14 25.2295 23.05C25.3595 22.94 25.4895 22.84 25.6295 22.73C25.6995 22.67 25.7795 22.6 25.8695 22.54C26.0295 22.42 26.1895 22.3 26.3595 22.18C26.4195 22.14 26.4795 22.1 26.5295 22.06C26.7195 21.93 26.9195 21.8 27.1095 21.68C27.1495 21.66 27.1795 21.63 27.2195 21.61C27.4395 21.47 27.6595 21.34 27.8795 21.22C27.8995 21.2 27.9195 21.19 27.9395 21.18C28.1795 21.05 28.4095 20.92 28.6495 20.8L28.6795 20.79C28.9295 20.67 29.1695 20.55 29.4195 20.44L29.4395 20.43C29.6895 20.32 29.9395 20.22 30.1995 20.12C30.2095 20.12 30.2195 20.11 30.2295 20.11C30.4795 20.02 30.7295 19.93 30.9795 19.85C30.9995 19.84 31.0195 19.84 31.0395 19.83C31.2895 19.75 31.5295 19.68 31.7795 19.61C31.8095 19.6 31.8295 19.59 31.8595 19.59C32.1095 19.52 32.3495 19.46 32.5995 19.41C32.6195 19.41 32.6395 19.4 32.6695 19.39C32.6595 19.49 32.6395 19.59 32.6195 19.7C32.5795 19.94 32.2995 22.05 33.1495 23.08C33.9195 24.02 34.3795 25.15 34.1295 25.51C33.7995 26.08 33.2195 26.45 32.5695 26.52C32.2295 26.47 31.9095 26.36 31.6095 26.2C31.0895 25.96 30.4395 25.67 30.0695 26.19C29.9095 26.49 29.8295 26.82 29.8295 27.16C29.7895 27.54 29.7295 28.16 29.5095 28.24C29.0795 28.27 28.6495 28.25 28.2195 28.17C27.0395 28 25.6795 27.83 25.4095 28.82C25.1195 29.87 25.9895 30.7 26.3995 31.1C26.4495 31.15 26.4995 31.2 26.5495 31.25C26.6395 31.36 27.4695 32.33 29.6695 32.33C30.1395 32.33 30.5395 32.3 30.8695 32.27C31.7595 32.2 31.9595 32.2 32.2995 32.66C32.5095 33.06 32.6095 33.52 32.5995 33.97C32.6395 34.63 32.6995 35.54 33.5895 35.65C34.1495 35.65 34.6995 35.51 35.1995 35.26C35.8695 34.99 36.6395 34.69 37.1395 34.92C37.9695 35.3 38.9795 36.1 39.1595 36.71C39.2095 36.81 39.1995 36.93 39.1395 37.03C38.9495 37.37 38.7995 37.72 38.6795 38.09C38.2695 39.22 37.9295 39.97 37.0095 39.97H35.1995C33.7495 39.98 32.5795 41.15 32.5795 42.6ZM37.4795 40.93H38.7295V44.31H37.4795V40.93ZM38.1095 47.56C37.8495 47.56 37.6295 47.77 37.6295 48.04V49.15H36.6895V45.28H39.5295V49.15H38.5895V48.04C38.5795 47.78 38.3695 47.56 38.1095 47.56ZM38.7295 50.1V58.7H37.4795V50.1H38.7295ZM39.6895 50.1H39.9995C40.2595 50.1 40.4795 49.89 40.4795 49.62V44.79C40.4795 44.53 40.2695 44.31 39.9995 44.31H39.6795V40.93H52.9395V44.31H52.6195C52.3595 44.31 52.1395 44.52 52.1395 44.79V49.62C52.1395 49.88 52.3495 50.1 52.6195 50.1H52.9395V58.7H39.6895V50.1ZM50.4895 39.98H49.8595V38.76C49.8595 38.02 49.2595 37.42 48.5195 37.42H44.1195C43.3795 37.42 42.7795 38.02 42.7795 38.76V39.98H42.1495V38.47C42.1495 37.62 42.8395 36.93 43.6895 36.93H48.9495C49.7995 36.93 50.4895 37.62 50.4895 38.47V39.98ZM43.7295 39.98V38.76C43.7295 38.55 43.8995 38.37 44.1195 38.37H48.5195C48.7295 38.37 48.9095 38.54 48.9095 38.76V39.98H43.7295ZM55.9595 45.27V49.14H55.0195V48.03C55.0195 47.77 54.8095 47.55 54.5395 47.55C54.2695 47.55 54.0595 47.76 54.0595 48.03V49.14H53.1195V45.27H55.9595ZM53.9095 50.1H55.1595V58.7H53.9095V50.1ZM53.9095 44.32V40.94H55.1595V44.32H53.9095ZM51.4495 39.98V38.47C51.4495 37.09 50.3295 35.97 48.9495 35.97H43.6895C42.3095 35.97 41.1895 37.09 41.1895 38.47V39.98H38.8295C39.1395 39.5 39.3895 38.98 39.5595 38.43C39.6595 38.12 39.7895 37.82 39.9395 37.54C40.1395 37.21 40.1795 36.8 40.0495 36.44C39.7295 35.39 38.3495 34.44 37.5095 34.06C36.6295 33.66 35.6695 34.04 34.8195 34.38C34.4595 34.56 34.0595 34.67 33.6595 34.71C33.5695 34.46 33.5295 34.19 33.5295 33.92C33.5395 33.28 33.3795 32.66 33.0495 32.11C32.3895 31.2 31.6795 31.25 30.7695 31.33C30.4495 31.36 30.0895 31.39 29.6495 31.39C27.8995 31.39 27.2795 30.68 27.2795 30.67C27.2095 30.58 27.1295 30.5 27.0395 30.43C26.6195 30.03 26.1795 29.56 26.2995 29.1C26.4795 28.92 27.5695 29.05 28.0895 29.12C28.6495 29.24 29.2295 29.25 29.7995 29.15C30.6095 28.88 30.6995 27.91 30.7595 27.26C30.7695 27.16 30.7795 27.02 30.7995 26.91C30.9395 26.95 31.0995 27.02 31.2095 27.07C31.6295 27.3 32.0895 27.43 32.5695 27.47C33.5395 27.42 34.4195 26.89 34.9195 26.05C35.6095 25.05 34.5995 23.32 33.8895 22.47C33.4495 21.94 33.4595 20.57 33.5695 19.86C33.6195 19.64 33.6395 19.42 33.6495 19.2C34.2795 19.1 34.9195 19.03 35.5595 19C35.1995 20.81 35.5395 21.33 35.6595 21.51C36.1895 22.31 36.7695 22.75 37.3695 22.83C37.4295 22.84 37.4895 22.84 37.5495 22.84C37.9595 22.83 38.3395 22.67 38.6395 22.39C39.5695 21.58 40.3595 20.64 40.9995 19.58C41.8495 19.81 42.6795 20.11 43.4795 20.46C42.9795 20.75 42.5295 21.13 42.1595 21.58C41.2095 22.84 40.6395 23.84 40.9395 24.58C41.3695 25.43 42.1695 26.03 43.1095 26.2C43.2295 26.22 43.3595 26.22 43.4795 26.22C43.8795 26.21 44.2695 26.16 44.6595 26.08C45.0895 25.99 45.5295 25.94 45.9695 25.93C46.8995 25.89 47.7395 25.39 48.2095 24.59C48.4595 24.48 48.7295 24.39 48.9895 24.33C49.9995 25.38 50.8695 26.54 51.5895 27.8C51.0995 27.84 50.5995 27.84 50.1095 27.79C48.4695 27.63 46.3195 27.52 45.4095 27.92C45.2495 27.99 45.0795 28.06 44.8995 28.13C43.7795 28.58 42.2295 29.19 42.7095 30.96C42.8395 31.64 43.2895 32.21 43.9095 32.51C44.1795 32.61 44.3895 32.84 44.4495 33.13C44.5295 33.38 44.7295 33.57 44.9695 33.66C45.8295 34.05 48.1695 34.05 48.9395 33.68C49.6395 33.46 50.3995 33.71 50.8295 34.29C51.3095 35.01 53.1795 36.25 53.8695 36.69C53.8595 37.2 53.8395 37.71 53.7895 38.2C53.7095 38.7 53.5695 39.51 53.4595 39.97L51.4495 39.98ZM36.8995 18.99C37.0595 18.99 37.2195 19 37.3895 19.01C37.4795 19.01 37.5695 19.02 37.6595 19.02C37.8695 19.03 38.0795 19.05 38.2895 19.07C38.3295 19.07 38.3595 19.08 38.3995 19.08C38.6595 19.11 38.9195 19.14 39.1795 19.18C39.1895 19.18 39.1995 19.18 39.2095 19.18C39.4895 19.22 39.7695 19.28 40.0395 19.33H40.0495C39.4695 20.19 38.7895 20.97 38.0095 21.65C37.8795 21.8 37.6895 21.87 37.4895 21.85C37.0395 21.69 36.6695 21.37 36.4495 20.95C36.3095 20.74 36.2895 20.06 36.5295 18.95C36.6595 18.98 36.7795 18.98 36.8995 18.99ZM44.6395 21.03C44.8695 21.15 45.0995 21.28 45.3295 21.42C45.5095 21.53 45.6795 21.64 45.8595 21.75C45.9895 21.84 46.1195 21.92 46.2595 22.02C46.4295 22.13 46.5895 22.25 46.7495 22.37C46.8395 22.43 46.9195 22.5 47.0095 22.56C47.4295 22.88 47.8295 23.22 48.2195 23.57C47.6395 23.77 47.4595 23.92 47.3795 24.12C47.0795 24.62 46.5595 24.94 45.9795 24.98C45.4795 24.99 44.9895 25.05 44.5095 25.14C44.0995 25.23 43.6695 25.27 43.2495 25.25C42.6495 25.13 42.1295 24.76 41.8395 24.23C41.7895 24.11 41.8095 23.67 42.9395 22.16C43.3895 21.66 43.9195 21.26 44.5295 20.97C44.5595 20.99 44.5995 21.01 44.6395 21.03ZM52.1395 28.82C52.1995 28.94 52.2495 29.06 52.3095 29.18C52.3795 29.33 52.4495 29.47 52.5095 29.62C52.5495 29.7 52.5795 29.79 52.6095 29.88C52.6895 30.07 52.7595 30.26 52.8295 30.45L52.8395 30.47C53.4395 32.1 53.7895 33.82 53.8695 35.56C53.0595 35.06 52.3095 34.47 51.6395 33.78C51.1095 33.07 50.2895 32.65 49.3995 32.65C49.0995 32.65 48.7995 32.71 48.5295 32.84C47.9895 33.11 45.8195 33.07 45.3595 32.81C45.2095 32.31 44.8595 31.91 44.3795 31.7C43.9795 31.53 43.7095 31.17 43.6395 30.74C43.4095 29.88 43.9595 29.56 45.2595 29.04C45.4395 28.97 45.6195 28.9 45.7895 28.82C46.3395 28.58 47.9195 28.56 50.0195 28.77C50.6195 28.83 51.2195 28.83 51.8195 28.77L52.0895 28.74C52.1095 28.76 52.1195 28.79 52.1395 28.82ZM31.3395 53.16C22.1095 50.35 16.9095 40.6 19.7095 31.38C19.9995 30.43 20.3695 29.51 20.8095 28.63C21.1595 30.94 22.9195 32.12 24.3895 33.1C25.7595 34.01 25.7595 35.63 25.7595 36.92C25.7595 37.95 26.7095 38.6 27.5495 39.17C27.9995 39.43 28.4095 39.77 28.7295 40.18C29.0595 40.91 29.2995 41.68 29.4195 42.47C29.5195 43.09 29.6895 43.7 29.9295 44.27C30.1295 44.65 30.1095 46.07 30.0995 47.01C30.0795 47.59 30.0895 48.17 30.1295 48.74C30.0595 49.01 30.0895 49.29 30.2295 49.53C30.5395 50.08 31.3095 50.42 32.5795 50.56V53.45C32.1595 53.38 31.7395 53.29 31.3395 53.16ZM33.5295 57.04V42.6C33.5295 41.68 34.2695 40.94 35.1895 40.94H36.5195V44.32H36.1995C35.9395 44.32 35.7195 44.53 35.7195 44.8V49.63C35.7195 49.89 35.9295 50.11 36.1995 50.11H36.5195V58.71H35.1995C34.2795 58.71 33.5295 57.96 33.5295 57.04ZM59.1095 57.04C59.1095 57.96 58.3695 58.7 57.4495 58.7H56.1195V50.1H56.4395C56.6995 50.1 56.9195 49.89 56.9195 49.62V44.79C56.9195 44.53 56.7095 44.31 56.4395 44.31H56.1195V40.93H57.4495C58.3695 40.93 59.1095 41.67 59.1095 42.59V57.04Z" fill="#464860"/>
</svg>
