<svg width="17" height="14" viewBox="0 0 17 14" fill="none" xmlns="http://www.w3.org/2000/svg">
<path d="M16.7444 6.03531L10.9647 0.255543C10.7998 0.0905589 10.5799 0 10.3454 0C10.1107 0 9.89091 0.0906891 9.72593 0.255543L9.20118 0.78042C9.03633 0.945144 8.94551 1.16517 8.94551 1.39976C8.94551 1.63423 9.03633 1.86166 9.20118 2.02639L12.5729 5.40556H1.8607C1.37772 5.40556 0.996094 5.78367 0.996094 6.26679V7.00882C0.996094 7.49193 1.37772 7.90817 1.8607 7.90817H12.6112L9.20131 11.3062C9.03646 11.4712 8.94564 11.6852 8.94564 11.9198C8.94564 12.1542 9.03646 12.3713 9.20131 12.5362L9.72606 13.0594C9.89104 13.2243 10.1108 13.3142 10.3455 13.3142C10.58 13.3142 10.7999 13.2232 10.9649 13.0582L16.7445 7.27855C16.9099 7.11304 17.0008 6.89211 17.0002 6.65726C17.0007 6.42162 16.9099 6.20056 16.7444 6.03531Z" fill="#4F2D87"/>
</svg>
