<svg xmlns="http://www.w3.org/2000/svg" viewBox="0 0 1033 1033" width="1033" height="1033"><defs><clipPath clipPathUnits="userSpaceOnUse" id="cp1"><path d="M0 0h1033v1033H0z"/></clipPath></defs><style>.shp0{fill:#fff}</style><g id="Page 1" clip-path="url(#cp1)"><path id="Path 1" class="shp0" d="M689.45 133.27l211.41 210.55c-1.67 1.05-227.13 321.39-227.13 321.39-35.79-50.77-83.63-108.03-140.66-165.04-57.22-57.21-114.02-105.58-164.23-141.46 105.96-76.22 215.44-148.59 320.61-225.44zM364.28 543.19L497.91 676.8c-.87.33-432.73 292.03-432.73 292.03l299.1-425.64z"/><path id="Path 2" d="M729.45 173.27l183.17 182.42c-34.5-10.16-232.17 336.17-232.17 336.17-35.79-50.78-69.96-88.31-115.33-148.67-57.22-57.21-106.07-108.6-156.28-144.48 105.96-76.22 215.44-148.59 320.61-225.44zM404.28 583.19l108.14 108.12c-36.88-31.86-410.14 277.52-410.14 277.52l302-385.64z" fill="#ccb8f4"/><path id="Path 3" class="shp0" d="M682.42 27.8c17.25-.86 45.64 6.92 78.19 25.23 37.65 21.17 81.14 54.72 123.28 96.79 41.24 41.17 74.03 84.3 95.15 122.02 20.64 36.86 28.76 68.26 26.07 85.21l-21.1 32.68L643.12 49.31l32.68-20.69c1.99-.47 4.16-.7 6.62-.82zM227.35 319c18.63-.54 61.35 16.61 112.11 51.29 51.73 35.34 112.81 87.15 174.58 148.91 60.49 60.48 111.2 121.06 146.45 172.9 34.48 50.71 53.03 93.69 53.78 114.17l-16.54 32.26-503.06-502.99L227.35 319z"/><path id="Path 4" d="M722.42 67.8c17.25-.86 45.64 6.92 78.19 25.23 37.65 21.17 81.14 54.72 123.28 96.79 41.24 41.17 74.03 84.3 95.15 122.02 20.64 36.86 1.49 40.99-1.2 57.94l-21.1 32.68L683.12 89.31l32.68-20.69c1.99-.47 4.16-.7 6.62-.82zM267.35 359c18.63-.54 61.35 16.61 112.11 51.29 51.73 35.34 112.81 87.15 174.58 148.91 60.49 60.48 111.2 121.06 146.45 172.9 34.48 50.71 23.03 63.69 23.78 84.16l-16.55 32.26-473.05-472.98L267.35 359z" fill="#a3efe0"/><path id="Path 5" fill-rule="evenodd" d="M691.52.49c24.19 1.25 51.6 12.32 81.91 29.37 40.43 22.74 85.48 57.82 129.08 101.34 42.78 42.72 77.07 86.99 99.7 127.4 22.63 40.42 34.72 76.44 28.96 105.48-.39 1.63-33.51 54.19-33.51 54.19-4.32 6.43-14.74 7.5-20.27 2.07l-58.33-58.33c-.13.29-.27.56-.42.83L689.87 688.38c31.98 48.54 51.39 88.78 51.3 119.95.03 1.99-.4 3.99-1.24 5.79l-26.48 52.95c-3.57 7.77-15.54 9.85-21.51 3.72L515.29 694.17c-1.05 2.36-494.79 336.7-494.79 336.7-5.09 3.41-12.57 2.64-16.85-1.74-4.28-4.38-4.88-11.87-1.36-16.87l342.96-488.1L162.4 341.33c-6.13-5.97-4.06-17.94 3.72-21.51l52.95-26.47c1.18-.59 2.43-1.01 3.73-1.24.41-.01.83-.01 1.24 0 31.74-2.21 72.16 17.49 121.63 50.46l325.17-227.91-58.33-58.32c-5.36-5.64-4.08-16.09 2.48-20.27 17.57-11.13 35.28-23.51 53.36-33.09 7.27-1.9 15.11-2.9 23.17-2.48V.49zM194.67 335.54l503.06 502.99 16.55-32.26c-.76-20.48-19.31-63.46-53.79-114.17-35.25-51.84-85.96-112.42-146.45-172.9-61.77-61.76-122.85-113.57-174.58-148.91-50.76-34.68-93.48-51.83-112.11-51.29l-32.68 16.54zm174.16 23.17c50.22 35.88 107.02 84.25 164.24 141.46 57.02 57.01 104.87 114.27 140.66 165.04 0 0 225.46-320.35 227.13-321.39L689.45 133.27C584.28 210.12 474.8 282.49 368.83 358.71zM675.8 28.62L643.12 49.3l340.89 340.43 21.1-32.68c2.69-16.95-5.43-48.35-26.07-85.21-21.12-37.72-53.91-80.85-95.15-122.02-42.14-42.07-85.63-75.62-123.28-96.79-32.55-18.31-60.94-26.09-78.19-25.23-2.46.12-4.63.35-6.62.82zM364.28 543.19L65.18 968.83s431.86-291.7 432.73-292.03L364.28 543.19z" fill="#464860"/></g></svg>