<svg width="78" height="78" viewBox="0 0 78 78" fill="none" xmlns="http://www.w3.org/2000/svg">
<rect width="78" height="78" fill="white"/>
<path d="M49.7099 36.5337H54.5473C52.6247 33.1534 49.3967 30.6093 45.5508 29.5989C47.3344 31.0433 48.8005 33.4932 49.7099 36.5337Z" fill="white"/>
<path d="M50.7124 43.2531H56.436C56.37 41.1949 55.8785 39.2429 55.0429 37.4832H49.9702C50.4161 39.259 50.6773 41.2062 50.7124 43.2531Z" fill="white"/>
<path d="M42.3169 29.1494V36.5337H48.7385C47.4471 32.3514 45.0695 29.4507 42.3169 29.1494Z" fill="white"/>
<path d="M34.9463 36.5337H41.3678V29.1494C38.6152 29.4507 36.2376 32.3514 34.9463 36.5337Z" fill="white"/>
<path d="M33.9209 43.2531H41.3684V37.4832H34.6772C34.2228 39.2429 33.956 41.1949 33.9209 43.2531Z" fill="white"/>
<path d="M45.5498 57.8545C49.0425 56.9367 52.0275 54.7564 53.986 51.8311H49.4161C48.499 54.4516 47.1522 56.5582 45.5498 57.8545Z" fill="white"/>
<path d="M34.9342 50.883H41.3677V44.2017H33.9209C33.963 46.6228 34.3254 48.8958 34.9342 50.883Z" fill="white"/>
<path d="M49.7202 50.883H54.5675C55.6896 48.8965 56.358 46.6228 56.436 44.2017H50.7124C50.671 46.6046 50.3178 48.8712 49.7202 50.883Z" fill="white"/>
<path d="M49.0081 37.4832H42.3169V43.2531H49.7644C49.7278 41.1949 49.461 39.2429 49.0081 37.4832Z" fill="white"/>
<path d="M49.7644 44.2017H42.3169V50.883H48.7504C49.3592 48.8958 49.7215 46.6228 49.7644 44.2017Z" fill="white"/>
<path d="M42.3169 51.8315V58.3044C44.8652 58.0256 47.0939 55.5209 48.4344 51.8315H42.3169Z" fill="white"/>
<path d="M32.9714 44.2017H27.2485C27.3265 46.6228 27.995 48.8958 29.1171 50.883H33.9643C33.366 48.8712 33.0135 46.6046 32.9714 44.2017Z" fill="white"/>
<path d="M33.7143 37.4832H28.6417C27.8061 39.2429 27.3145 41.1949 27.2485 43.2531H32.9721C33.0072 41.2062 33.2684 39.259 33.7143 37.4832Z" fill="white"/>
<path d="M34.2686 51.8315H29.6987C31.6571 54.7562 34.6429 56.9372 38.1349 57.855C36.5318 56.558 35.185 54.4514 34.2686 51.8315Z" fill="white"/>
<path d="M41.3675 58.3044V51.8315H35.25C36.5912 55.5209 38.8192 58.0256 41.3675 58.3044Z" fill="white"/>
<path d="M38.1347 29.5996C34.2888 30.6094 31.0594 33.1534 29.1382 36.5345H33.9749C34.8842 33.4933 36.3497 31.0433 38.1347 29.5996Z" fill="white"/>
<path d="M50.5888 37.0914H55.4262C53.5036 33.711 50.2756 31.1669 46.4297 30.1565C48.2133 31.6009 49.6794 34.0509 50.5888 37.0914Z" fill="#A3EFE0"/>
<path d="M51.5913 43.81H57.3149C57.2489 41.7518 56.7574 39.7997 55.9218 38.04H50.8491C51.2957 39.8159 51.5562 41.7638 51.5913 43.81Z" fill="#CCB8F4"/>
<path d="M35.8247 37.0913H42.2463V29.707C39.4937 30.0083 37.116 32.9083 35.8247 37.0913Z" fill="#A3EFE0"/>
<path d="M34.7998 43.81H42.2473V38.0408H35.5561C35.1017 39.7998 34.8349 41.7526 34.7998 43.81Z" fill="#CCB8F4"/>
<path d="M50.5996 51.4399H55.4468C56.569 49.4534 57.2374 47.1797 57.3154 44.7585H51.5918C51.5504 47.1622 51.1965 49.4288 50.5996 51.4399Z" fill="#A3EFE0"/>
<path d="M49.887 38.0408H43.1958V43.8107H50.6433C50.6067 41.7526 50.3406 39.7998 49.887 38.0408Z" fill="#A3EFE0"/>
<path d="M50.6433 44.7593H43.1958V51.4406H49.6293C50.2381 49.4534 50.6011 47.1804 50.6433 44.7593Z" fill="#CCB8F4"/>
<path d="M43.1958 52.3892V58.862C45.7441 58.5832 47.9728 56.0785 49.3133 52.3892H43.1958Z" fill="#A3EFE0"/>
<path d="M33.851 44.7593H28.1274C28.2054 47.1804 28.8739 49.4534 29.996 51.4406H34.8432C34.2456 49.4289 33.8924 47.1622 33.851 44.7593Z" fill="#CCB8F4"/>
<path d="M34.5932 38.0408H29.5206C28.685 39.8005 28.1934 41.7526 28.1274 43.8107H33.851C33.8861 41.7638 34.1473 39.8159 34.5932 38.0408Z" fill="#A3EFE0"/>
<path d="M35.148 52.3892H30.5781C32.5365 55.3138 35.5223 57.4948 39.0143 58.4126C37.4105 57.1156 36.0637 55.0083 35.148 52.3892Z" fill="#A3EFE0"/>
<path d="M42.2474 58.862V52.3892H36.1299C37.4704 56.0785 39.6984 58.5832 42.2474 58.862Z" fill="#CCB8F4"/>
<path d="M42.3173 28.1846V18H41.3686V28.1846C33.0104 28.4367 26.2876 35.3091 26.2876 43.727C26.2876 52.3042 33.2653 59.2819 41.8426 59.2819C50.4199 59.2819 57.3976 52.3042 57.3976 43.727C57.3976 35.3091 50.6748 28.4367 42.3173 28.1846ZM38.135 29.5995C36.35 31.0432 34.8845 33.4932 33.9752 36.5344H29.1385C31.0604 33.1533 34.2891 30.6093 38.135 29.5995ZM28.6421 37.4831H33.7147C33.2688 39.2589 33.0076 41.2061 32.9725 43.253H27.2489C27.3142 41.1948 27.8057 39.2427 28.6421 37.4831ZM27.2489 44.2016H32.9725C33.0139 46.6045 33.3671 48.8712 33.9647 50.883H29.1174C27.9953 48.8958 27.3261 46.6228 27.2489 44.2016ZM29.6981 51.8317H34.268C35.1844 54.4508 36.5312 56.5581 38.1343 57.8551C34.6423 56.9373 31.6566 54.7563 29.6981 51.8317ZM41.3679 58.3045C38.8196 58.0257 36.5909 55.521 35.2504 51.8317H41.3679V58.3045ZM41.3679 50.883H34.9344C34.3256 48.8965 33.9626 46.6228 33.9204 44.2016H41.3679V50.883ZM41.3679 43.253H33.9211C33.957 41.1948 34.2238 39.2427 34.6774 37.4831H41.3686V43.253H41.3679ZM41.3679 36.5337H34.9463C36.237 32.3507 38.6153 29.45 41.3679 29.1494V36.5337ZM56.4363 43.253H50.7127C50.6776 41.2061 50.4164 39.2589 49.9705 37.4831H55.0431C55.8787 39.2427 56.3703 41.1948 56.4363 43.253ZM54.5467 36.5337H49.71C48.8006 33.4932 47.3351 31.0425 45.5502 29.5988C49.3961 30.6093 52.6248 33.1533 54.5467 36.5337ZM42.3173 29.1494C45.0706 29.45 47.4482 32.3507 48.7388 36.5337H42.3173V29.1494ZM42.3173 37.4831H49.0085C49.4621 39.2427 49.7289 41.1948 49.7647 43.253H42.3173V37.4831ZM42.3173 44.2016H49.7647C49.7226 46.6228 49.3596 48.8958 48.7508 50.883H42.318V44.2016H42.3173ZM42.3173 58.3045V51.8317H48.4348C47.0936 55.521 44.8655 58.0257 42.3173 58.3045ZM45.5502 57.8544C47.1533 56.5581 48.5001 54.4508 49.4164 51.831H53.9863C52.0279 54.7563 49.0429 56.9373 45.5502 57.8544ZM54.5677 50.883H49.7205C50.3181 48.8712 50.6713 46.6045 50.7127 44.2016H56.4363C56.3583 46.6228 55.6898 48.8958 54.5677 50.883Z" fill="#464860"/>
<path d="M24.9311 25.8883L24.2603 26.5591L27.6887 29.9876L28.3595 29.3168L24.9311 25.8883Z" fill="#464860"/>
<path d="M25.8493 34.4314H21V35.3801H25.8493V34.4314Z" fill="#464860"/>
<path d="M33.7519 22.6282H32.8032V27.4775H33.7519V22.6282Z" fill="#464860"/>
</svg>
