<svg width="37" height="45" viewBox="0 0 37 45" fill="none" xmlns="http://www.w3.org/2000/svg">
<path d="M17.65 3.67C18.38 2.91 19.38 2.5 20.45 2.5C21.89 2.5 23.21 3.28 23.9 4.53L23.96 4.63L23.85 4.67L18.51 6.6H18.49H18.47C18.46 6.61 18.44 6.64 18.4 6.65L18.36 6.69C18.35 6.7 18.33 6.73 18.33 6.74C18.33 6.81 18.29 6.85 18.27 6.87V6.98V7.1C18.33 8.04 18.74 8.91 19.44 9.55C19.72 9.83 20.05 10 20.49 10.19L20.97 10.4L20.45 10.38C18.27 10.32 16.57 8.59 16.57 6.44C16.54 5.4 16.92 4.42 17.65 3.67Z" fill="white"/>
<path d="M7.92995 23.81C7.72995 22.94 7.82995 22.15 8.23995 21.46L13.76 11.86C14.25 11.07 15.17 10.5 16.18 10.37C16.27 10.36 16.35 10.36 16.43 10.36C17.15 10.36 17.86 10.61 18.42 11.05C19.03 11.54 19.41 12.29 19.48 13.1V18.39C19.48 18.86 19.73 19.33 20.16 19.63L24.35 22.03L24.44 22.08L24.39 22.17L23.19 24.21L23.14 24.3L23.05 24.25L18.43 21.55C17.46 20.97 16.88 19.97 16.88 18.88V13.78C16.88 13.48 16.68 13.28 16.38 13.28C16.08 13.28 15.88 13.48 15.88 13.78V18.88C15.88 19.28 15.94 19.63 16.05 19.99L16.06 20.03L16.04 20.07L14.42 22.89C14.24 23.25 14.2 23.58 14.31 23.95C14.44 24.33 14.68 24.64 14.98 24.79L28.77 32.77C28.83 32.78 28.88 32.82 28.91 32.84C29.12 32.91 29.32 32.95 29.46 32.95C29.6 32.95 29.81 32.91 30.03 32.84L30.05 32.83H30.07C30.08 32.83 30.1 32.81 30.12 32.8L33.31 30.93C33.36 30.89 33.42 30.87 33.5 30.87C33.57 30.87 33.64 30.89 33.72 30.93C33.89 31.02 33.96 31.25 33.89 31.47L30.88 36.65C30.67 37.03 30.28 37.26 29.84 37.26C29.63 37.26 29.43 37.21 29.24 37.1L27.5 36.14L27.41 36.09L27.46 36L28.3 34.56C28.45 34.32 28.36 34.01 28.09 33.86C28.01 33.81 27.93 33.79 27.84 33.79C27.66 33.79 27.49 33.89 27.38 34.07L26.66 35.56L26.61 35.66L26.52 35.61L9.34996 25.71C8.58996 25.19 8.09995 24.55 7.92995 23.81Z" fill="white"/>
<path d="M18.55 4.58998C19.28 3.82998 20.28 3.41998 21.35 3.41998C22.79 3.41998 24.11 4.19998 24.8 5.44998L24.86 5.54998L24.75 5.58998L19.4 7.50998L19.38 7.51998H19.36C19.35 7.52998 19.33 7.55998 19.29 7.56998L19.25 7.60998C19.24 7.61998 19.22 7.64998 19.22 7.65998C19.22 7.72998 19.18 7.76998 19.16 7.78998V7.89998V8.01998C19.22 8.95998 19.63 9.82998 20.33 10.47C20.61 10.75 20.94 10.92 21.38 11.11L21.86 11.32L21.34 11.3C19.16 11.24 17.46 9.50998 17.46 7.35998C17.44 6.31998 17.82 5.32998 18.55 4.58998Z" fill="#A3EFE0"/>
<path d="M8.8301 24.73C8.6301 23.86 8.7301 23.07 9.1401 22.38L14.6601 12.78C15.1501 11.99 16.0701 11.42 17.0801 11.29C17.1701 11.28 17.2501 11.28 17.3301 11.28C18.0501 11.28 18.7601 11.53 19.3201 11.97C19.9301 12.46 20.3101 13.21 20.3801 14.02V19.31C20.3801 19.78 20.6301 20.25 21.0601 20.55L25.2501 22.95L25.3401 23L25.2901 23.09L24.0901 25.13L24.0401 25.22L23.9501 25.17L19.3301 22.47C18.3601 21.89 17.7801 20.89 17.7801 19.8V14.7C17.7801 14.4 17.5801 14.2 17.2801 14.2C16.9801 14.2 16.7801 14.4 16.7801 14.7V19.8C16.7801 20.2 16.8401 20.55 16.9501 20.91L16.9601 20.95L16.9401 20.99L15.3201 23.81C15.1401 24.17 15.1001 24.5 15.2101 24.87C15.3401 25.25 15.5801 25.56 15.8801 25.71L29.6701 33.69C29.7301 33.7 29.7801 33.74 29.8101 33.76C30.0201 33.83 30.2201 33.87 30.3601 33.87C30.5001 33.87 30.7101 33.83 30.9301 33.76L30.9501 33.75H30.9701C30.9801 33.75 31.0001 33.73 31.0201 33.72L34.2101 31.85C34.2601 31.81 34.3201 31.79 34.4001 31.79C34.4701 31.79 34.5401 31.81 34.6201 31.85C34.7901 31.94 34.8601 32.17 34.7901 32.39L31.7801 37.57C31.5701 37.95 31.1801 38.18 30.7401 38.18C30.5301 38.18 30.3301 38.13 30.1401 38.02L28.4001 37.06L28.3101 37.01L28.3601 36.92L29.2001 35.48C29.3501 35.24 29.2601 34.93 28.9901 34.78C28.9101 34.73 28.8301 34.71 28.7401 34.71C28.5601 34.71 28.3901 34.81 28.2801 34.99L27.5601 36.48L27.5101 36.58L27.4201 36.53L10.2501 26.63C9.4901 26.11 9.0001 25.46 8.8301 24.73Z" fill="#CCB8F4"/>
<path d="M0.28 29.35L26.03 43.81C27.15 44.43 28.33 44.76 29.46 44.76C30.12 44.76 30.7 44.68 31.23 44.52C33 44.05 34.49 42.91 35.43 41.32C36.32 39.71 36.56 37.84 36.08 36.05C36.04 35.84 35.83 35.67 35.62 35.67C35.58 35.67 35.53 35.68 35.49 35.69C35.36 35.72 35.26 35.8 35.2 35.92C35.14 36.04 35.11 36.18 35.14 36.3C35.49 37.52 35.4 38.87 34.89 40.08L34.81 40.26L34.71 40.09L32.43 36.19L32.4 36.14L32.43 36.09L34.77 32.07C34.96 31.74 35.01 31.37 34.92 31.01C34.83 30.65 34.59 30.35 34.27 30.16C34.05 30.05 33.81 29.99 33.57 29.99C33.33 29.99 33.09 30.05 32.86 30.16L29.98 31.84L29.89 31.89L29.84 31.8L26.49 26L26.45 25.92L26.52 25.87C26.8 25.66 26.99 25.43 27.09 25.19C27.4 24.62 27.49 23.99 27.33 23.46C27.2 23.01 26.9 22.41 26.24 22.08L25.33 21.54L20.59 18.84C20.42 18.75 20.42 18.64 20.42 18.51V13.17C20.35 12.57 20.22 12.07 20.01 11.65L19.94 11.51H20.1H20.4C22.44 11.51 24.3 10.24 25.04 8.35C25.05 8.3 25.07 8.26 25.12 8.23C25.31 7.64 25.4 7.14 25.4 6.63C25.4 6.07 25.3 5.49 25.11 4.98C24.38 3.04 22.52 1.74 20.46 1.74C20.15 1.74 19.89 1.78 19.59 1.84L19.45 1.86L19.33 1.88V1.76C19.33 0.79 18.54 0 17.57 0C16.6 0 15.81 0.79 15.81 1.76C15.81 2.44 16.15 3.01 16.72 3.29L16.84 3.35L16.76 3.45C15.95 4.38 15.52 5.52 15.52 6.75C15.52 7.72 15.81 8.68 16.34 9.52L16.44 9.67H16.26H16.08C14.76 9.78 13.58 10.53 12.93 11.66L7.41 21.26C6.86 22.24 6.71 23.34 7 24.36V24.37V24.38V24.44V24.61L6.85 24.52L3.97 22.84C3.89 22.79 3.81 22.77 3.72 22.77C3.54 22.77 3.37 22.87 3.26 23.05C3.19 23.17 3.17 23.31 3.21 23.44C3.25 23.57 3.34 23.68 3.47 23.76L8.33 26.58L8.42 26.63L8.37 26.72L5.79 31.22L5.74 31.31L5.65 31.26L0.79 28.44C0.71 28.39 0.63 28.37 0.54 28.37C0.36 28.37 0.19 28.47 0.08 28.65C0 28.76 -0.02 28.9 0.02 29.03C0.06 29.16 0.15 29.27 0.28 29.35ZM34.28 41.17L34.22 41.26C33.43 42.41 32.28 43.21 30.98 43.52C30.49 43.66 29.98 43.73 29.47 43.73C28.45 43.73 27.43 43.45 26.52 42.91L21.54 40.03L21.45 39.98L21.5 39.89L24.08 35.39L24.13 35.3L24.22 35.35L34.18 41.11L34.28 41.17ZM33.93 39.65L34.12 39.98L33.8 39.79L31.04 38.17L30.89 38.08L31.03 37.99C31.34 37.81 31.61 37.51 31.77 37.19L32.07 36.7L32.16 36.56L32.24 36.71L33.93 39.65ZM25.99 26.16L26.07 26.12L26.12 26.2L29.48 31.9L29.57 32.05H29.4H29.35V32.03V32.04L15.48 24.06C15.32 23.98 15.31 23.88 15.31 23.79V23.55V23.52L15.32 23.5L16.52 21.4L16.6 21.27L16.69 21.39C17.02 21.83 17.41 22.19 17.92 22.51L23.08 25.51L23.98 26.05C24.27 26.25 24.64 26.34 25.13 26.34C25.45 26.33 25.79 26.27 25.99 26.16ZM24.22 7.75V7.82V7.88V7.9L24.21 7.92C23.83 8.86 22.97 9.48 21.96 9.54C21.92 9.54 21.87 9.54 21.83 9.54C20.63 9.54 19.58 8.7 19.33 7.54L19.31 7.46L19.39 7.43L21.31 6.71L21.34 6.7L21.37 6.71L24.13 7.73L24.22 7.75ZM16.81 1.46C16.81 1.05 17.16 0.7 17.57 0.7C17.98 0.7 18.33 1.05 18.33 1.46C18.33 1.87 17.98 2.22 17.57 2.22C17.16 2.22 16.81 1.87 16.81 1.46ZM17.65 3.67C18.38 2.91 19.38 2.5 20.45 2.5C21.89 2.5 23.21 3.28 23.9 4.53L23.96 4.63L23.85 4.67L18.51 6.6H18.49H18.47C18.46 6.61 18.44 6.64 18.4 6.65L18.36 6.69C18.35 6.7 18.33 6.73 18.33 6.74C18.33 6.81 18.29 6.85 18.27 6.87V6.98V7.1C18.33 8.04 18.74 8.91 19.44 9.55C19.72 9.83 20.05 10 20.49 10.19L20.97 10.4L20.45 10.38C18.27 10.32 16.57 8.59 16.57 6.44C16.54 5.4 16.92 4.42 17.65 3.67ZM7.93 23.81C7.73 22.94 7.83 22.15 8.24 21.46L13.76 11.86C14.25 11.07 15.17 10.5 16.18 10.37C16.27 10.36 16.35 10.36 16.43 10.36C17.15 10.36 17.86 10.61 18.42 11.05C19.03 11.54 19.41 12.29 19.48 13.1V18.39C19.48 18.86 19.73 19.33 20.16 19.63L24.35 22.03L24.44 22.08L24.39 22.17L23.19 24.21L23.14 24.3L23.05 24.25L18.43 21.55C17.46 20.97 16.88 19.97 16.88 18.88V13.78C16.88 13.48 16.68 13.28 16.38 13.28C16.08 13.28 15.88 13.48 15.88 13.78V18.88C15.88 19.28 15.94 19.63 16.05 19.99L16.06 20.03L16.04 20.07L14.42 22.89C14.24 23.25 14.2 23.58 14.31 23.95C14.44 24.33 14.68 24.64 14.98 24.79L28.77 32.77C28.83 32.78 28.88 32.82 28.91 32.84C29.12 32.91 29.32 32.95 29.46 32.95C29.6 32.95 29.81 32.91 30.03 32.84L30.05 32.83H30.07C30.08 32.83 30.1 32.81 30.12 32.8L33.31 30.93C33.36 30.89 33.42 30.87 33.5 30.87C33.57 30.87 33.64 30.89 33.72 30.93C33.89 31.02 33.96 31.25 33.89 31.47L30.88 36.65C30.67 37.03 30.28 37.26 29.84 37.26C29.63 37.26 29.43 37.21 29.24 37.1L27.5 36.14L27.41 36.09L27.46 36L28.3 34.56C28.45 34.32 28.36 34.01 28.09 33.86C28.01 33.81 27.93 33.79 27.84 33.79C27.66 33.79 27.49 33.89 27.38 34.07L26.66 35.56L26.61 35.66L26.52 35.61L9.35 25.71C8.59 25.19 8.1 24.55 7.93 23.81ZM6.68 31.36L9.26 26.86L9.31 26.77L9.4 26.82L23.15 34.74L23.24 34.79L23.19 34.88L20.61 39.38L20.56 39.47L20.47 39.42L6.72 31.5L6.63 31.45L6.68 31.36Z" fill="#464860"/>
</svg>
