<svg width="54" height="46" viewBox="0 0 54 46" fill="none" xmlns="http://www.w3.org/2000/svg">
<path d="M36.2 10.6801L38.49 11.9701L36.2 12.8101V10.6801Z" fill="white"/>
<path d="M20.3301 1.12L23.8701 3.09L20.3301 4.46V1.12Z" fill="white"/>
<path d="M51.2501 45.09H35.6701L30.0901 28.55V28.45C30.0901 28.45 30.1101 28.33 30.1401 28.21L32.7901 31.86C32.8601 31.96 32.9801 32.02 33.1101 32.02C33.2401 32.03 33.3601 31.97 33.4401 31.87L38.6101 25.77L44.0201 29.89C44.2101 30.26 44.4001 30.81 44.5901 31.19C47.6201 37.1 50.4101 43.11 51.2501 45.09Z" fill="white"/>
<path d="M27.8199 36.16C26.9299 35.02 24.5999 35.16 20.9699 35.19C20.2899 35.2 14.5199 35.62 13.1799 33.38C12.3799 32.03 14.1599 30.55 16.5199 31.15C21.4199 32.4 24.6099 31.94 25.8099 30.62C25.8699 30.55 25.9199 30.49 25.9699 30.42L26.5599 31.75C26.6199 31.89 26.7499 31.98 26.8999 32C26.9099 32 26.9299 32 26.9399 32C27.0799 32 27.1999 31.93 27.2799 31.82L29.3499 29.02L34.7699 45.09H10.4299C11.1199 41.12 12.4599 41.32 16.1499 41.77C17.4299 41.92 19.0199 42.02 20.8799 42.06C24.6399 42.14 26.6499 41.73 27.6099 40.8C28.3799 40.04 29.0599 37.76 27.8199 36.16Z" fill="white"/>
<path d="M36.45 11.35L38.74 12.63L36.45 13.47V11.35Z" fill="#CCB8F4"/>
<path d="M20.72 2.04004L24.26 4.00004L20.72 5.38004V2.04004Z" fill="#A3EFE0"/>
<path d="M52.2999 45.62H36.7099L31.1299 29.08V28.98C31.1299 28.98 31.1499 28.86 31.1799 28.74L33.8299 32.39C33.8999 32.49 34.0199 32.55 34.1499 32.55C34.2799 32.56 34.3999 32.5 34.4799 32.4L39.6499 26.3L45.0599 30.42C45.2499 30.79 45.4399 31.34 45.6299 31.72C48.6699 37.63 51.4599 43.63 52.2999 45.62Z" fill="#A3EFE0"/>
<path d="M28.87 36.69C27.98 35.55 25.65 35.69 22.02 35.72C21.34 35.73 15.57 36.15 14.23 33.91C13.43 32.56 15.21 31.08 17.57 31.68C22.47 32.93 25.66 32.47 26.86 31.15C26.92 31.08 26.97 31.02 27.02 30.95L27.61 32.28C27.67 32.42 27.8 32.51 27.95 32.53C27.96 32.53 27.98 32.53 27.99 32.53C28.13 32.53 28.25 32.46 28.33 32.35L30.4 29.55L35.82 45.62H11.48C12.17 41.65 13.51 41.85 17.2 42.3C18.48 42.45 20.07 42.55 21.93 42.59C25.69 42.67 27.7 42.26 28.66 41.33C29.42 40.57 30.11 38.28 28.87 36.69Z" fill="#CCB8F4"/>
<path d="M32.0499 22.5301C34.0699 17.4801 35.3799 16.9301 35.8499 16.9301C35.9799 16.9301 36.76 17.1401 39.25 21.2001C40.35 22.9901 41.65 25.3201 43.13 28.1401L38.82 24.8501C38.64 24.7201 38.39 24.7401 38.25 24.9101L33.16 30.9001L30.45 27.1401C30.79 26.0101 31.3499 24.2601 32.0499 22.5301Z" fill="white"/>
<path d="M19.8001 9.77003C20.7401 9.73003 23.6601 14.47 29.0501 27.79C28.8301 28.11 27.0201 30.73 27.0201 30.73L22.8601 21.4C22.8101 21.28 22.7101 21.2 22.5801 21.17C22.4601 21.14 22.3201 21.17 22.2201 21.24L17.0101 25.22V21.57C17.0101 21.43 16.9401 21.29 16.8101 21.21C16.6901 21.13 16.5301 21.13 16.4001 21.19L12.3601 23.21C17.8301 12.6 18.8601 9.80003 19.8001 9.77003Z" fill="white"/>
<path d="M5.37999 41.75C7.17999 37.67 10.04 31.08 12.85 25.07L17.23 22.83C17.23 22.83 17.09 26.79 17.46 27C17.6 27.08 17.77 27.04 17.9 26.95L23.36 22.77L26.51 29.84C26.03 31.48 23.82 31.95 17.72 30.88C12.8 30.02 12.87 33.64 13.47 34.58C13.99 35.38 15.29 36.59 19.86 36.59C26.5 36.59 27.74 36.71 28.26 37.3C28.81 37.92 28.72 40.02 28.05 40.7C26.52 42.25 18.61 41.64 17.28 41.48C13.54 41.03 11.45 40.34 10.61 45.63H3.73999C4.02999 44.3 4.52999 43.68 5.37999 41.75Z" fill="#CCB8F4"/>
<path d="M54 45.4257C54 45.1957 53.81 45.0957 53.58 45.0957H52.17C47.44 33.8557 41.47 23.3357 40.01 20.9557C37.8 17.3457 36.86 16.2957 36.2 16.1357V13.7057L39.58 12.4457C39.73 12.3857 39.81 12.2457 39.83 12.0857C39.84 11.9257 39.75 11.7657 39.6 11.6857L35.89 9.60567C35.76 9.53567 35.41 9.53567 35.28 9.60567C35.15 9.67567 34.88 9.81567 34.88 9.96567V16.1757C34.88 16.1857 35.07 16.1957 35.08 16.2057C33.82 16.6757 32.6 18.6557 31.18 22.2257C30.46 24.0257 29.98 25.8257 29.63 26.9657C28.95 25.2757 23.64 10.9257 20.33 8.99567V5.29567C20.33 5.30567 24.95 3.54567 24.95 3.54567C25.39 3.36567 25.12 2.86567 24.98 2.79567L19.83 0.0456709C19.37 -0.134329 19 0.265671 19 0.415671V9.03567C17.02 9.49567 5.46 36.1657 3.38 40.8857C2.53 42.8157 2.02 44.4357 1.78 45.0957H0.42C0.19 45.0957 0 45.1957 0 45.4257C0 45.6557 0.19 45.7557 0.42 45.7557H53.58C53.81 45.7557 54 45.6557 54 45.4257ZM36.2 10.6857L38.49 11.9757L36.2 12.8157V10.6857ZM20.33 1.12567L23.87 3.09567L20.33 4.47567V1.12567ZM51.25 45.0957H35.67L30.09 28.5557V28.4557C30.09 28.4557 30.11 28.3357 30.14 28.2157L32.79 31.8657C32.86 31.9657 32.98 32.0257 33.11 32.0257C33.24 32.0357 33.36 31.9757 33.44 31.8757L38.61 25.7757L44.02 29.8957C44.21 30.2657 44.4 30.8157 44.59 31.1957C47.62 37.1057 50.41 43.1157 51.25 45.0957ZM27.82 36.1657C26.93 35.0257 24.6 35.1657 20.97 35.1957C20.29 35.2057 14.52 35.6257 13.18 33.3857C12.38 32.0357 14.16 30.5557 16.52 31.1557C21.42 32.4057 24.61 31.9457 25.81 30.6257C25.87 30.5557 25.92 30.4957 25.97 30.4257L26.56 31.7557C26.62 31.8957 26.75 31.9857 26.9 32.0057C26.91 32.0057 26.93 32.0057 26.94 32.0057C27.08 32.0057 27.2 31.9357 27.28 31.8257L29.35 29.0257L34.77 45.0957H10.43C11.12 41.1257 12.46 41.3257 16.15 41.7757C17.43 41.9257 19.02 42.0257 20.88 42.0657C24.64 42.1457 26.65 41.7357 27.61 40.8057C28.38 40.0457 29.06 37.7657 27.82 36.1657ZM32.05 22.5357C34.07 17.4857 35.38 16.9357 35.85 16.9357C35.98 16.9357 36.76 17.1457 39.25 21.2057C40.35 22.9957 41.65 25.3257 43.13 28.1457L38.82 24.8557C38.64 24.7257 38.39 24.7457 38.25 24.9157L33.16 30.9057L30.45 27.1457C30.79 26.0157 31.35 24.2657 32.05 22.5357ZM19.8 9.77567C20.74 9.73567 23.66 14.4757 29.05 27.7957C28.83 28.1157 27.02 30.7357 27.02 30.7357L22.86 21.4057C22.81 21.2857 22.71 21.2057 22.58 21.1757C22.46 21.1457 22.32 21.1757 22.22 21.2457L17.01 25.2257V21.5757C17.01 21.4357 16.94 21.2957 16.81 21.2157C16.69 21.1357 16.53 21.1357 16.4 21.1957L12.36 23.2157C17.83 12.6057 18.86 9.80567 19.8 9.77567ZM4.33 41.2257C6.13 37.1457 8.99 30.5557 11.8 24.5457L16.18 22.3057C16.18 22.3057 16.04 26.2657 16.41 26.4757C16.55 26.5557 16.72 26.5157 16.85 26.4257L22.31 22.2457L25.46 29.3157C24.98 30.9557 22.77 31.4257 16.67 30.3557C11.75 29.4957 11.82 33.1157 12.42 34.0557C12.94 34.8557 14.24 36.0657 18.81 36.0657C25.45 36.0657 26.69 36.1857 27.21 36.7757C27.76 37.3957 27.67 39.4957 27 40.1757C25.47 41.7257 17.56 41.1157 16.23 40.9557C12.49 40.5057 10.4 39.8157 9.56 45.1057H2.7C2.98 43.7757 3.48 43.1557 4.33 41.2257Z" fill="#464860"/>
</svg>
