<svg width="78" height="78" viewBox="0 0 78 78" fill="none" xmlns="http://www.w3.org/2000/svg">
<rect width="78" height="78" fill="white"/>
<path d="M29.731 45.7487L33.3938 42.0784C33.6444 42.3511 33.9466 42.5722 34.293 42.727C34.6615 42.8891 35.0447 42.9702 35.4353 42.9702C35.7744 42.9702 36.1134 42.9112 36.4377 42.7859C37.1378 42.5206 37.6906 41.99 37.9927 41.3119C38.4792 40.2138 38.1991 38.9314 37.3368 38.1281L45.7976 29.6526L46.8146 32.0699C46.4756 32.2173 46.1587 32.4237 45.8934 32.7038C44.8321 33.8166 44.8689 35.5854 45.9744 36.6467C46.5051 37.1553 47.2052 37.4206 47.9054 37.4206C48.2665 37.4206 48.6276 37.3395 48.9667 37.1995L50.4112 40.6265C50.0648 40.7739 49.7553 40.9803 49.4899 41.2603C48.4434 42.3658 48.4802 44.1346 49.5857 45.1959C50.1164 45.7045 50.8165 45.9624 51.5093 45.9624C51.8704 45.9624 52.2316 45.8813 52.578 45.7413L57.5527 57.5554L54.9511 56.4499C55.1059 56.1035 55.1869 55.7277 55.1869 55.3444C55.1869 53.8336 53.9635 52.6028 52.4527 52.6028C51.3251 52.6028 50.3301 53.2956 49.9174 54.3126L38.3391 49.3968C38.4718 49.0725 38.5455 48.7335 38.5455 48.3724C38.5455 46.9058 37.3515 45.7118 35.8923 45.7118C34.8163 45.7118 33.8729 46.3678 33.4602 47.3259L29.731 45.7487Z" fill="white"/>
<path d="M31.3672 45.3949L35.0301 41.7247C35.2807 41.9973 35.5828 42.2184 35.9292 42.3732C36.2977 42.5354 36.681 42.6164 37.0716 42.6164C37.4106 42.6164 37.7496 42.5575 38.0739 42.4322C38.774 42.1669 39.3268 41.6362 39.629 40.9582C40.1154 39.86 39.8353 38.5777 38.973 37.7743L47.4338 29.2988L48.4509 31.7162C48.1118 31.8636 47.7949 32.0699 47.5296 32.35C46.4683 33.4629 46.5052 35.2317 47.6107 36.293C48.1413 36.8015 48.8415 37.0668 49.5416 37.0668C49.9027 37.0668 50.2639 36.9857 50.6029 36.8457L52.0474 40.2728C51.701 40.4202 51.3915 40.6265 51.1262 40.9066C50.0649 42.0195 50.1017 43.7883 51.2072 44.8495C51.7379 45.3581 52.438 45.616 53.1308 45.616C53.4919 45.616 53.8531 45.5349 54.1995 45.3949L59.1742 57.209L56.5873 56.1035C56.7421 55.7571 56.8232 55.3813 56.8232 54.998C56.8232 53.4872 55.5998 52.2564 54.0889 52.2564C52.9613 52.2564 51.9663 52.9492 51.5536 53.9662L39.9754 49.0504C40.108 48.7262 40.1817 48.3871 40.1817 48.026C40.1817 46.5594 38.9878 45.3654 37.5285 45.3654C36.4525 45.3654 35.5091 46.0214 35.0964 46.9795L31.3672 45.3949Z" fill="#CCB8F4"/>
<path d="M47.1167 49.5076C47.1167 48.6158 47.839 47.8936 48.7234 47.8936C49.6078 47.8936 50.33 48.6158 50.33 49.5076C50.33 50.3994 49.6078 51.1216 48.7234 51.1216C47.839 51.1216 47.1167 50.3994 47.1167 49.5076Z" fill="white"/>
<path d="M41.4346 46.2205C41.4346 45.3287 42.1568 44.6064 43.0412 44.6064C43.9256 44.6064 44.6479 45.3287 44.6479 46.2205C44.6479 47.1122 43.9256 47.8345 43.0412 47.8345C42.1568 47.8345 41.4346 47.1122 41.4346 46.2205Z" fill="white"/>
<path d="M41.0659 39.5728C41.0659 38.681 41.7882 37.9587 42.6726 37.9587C43.557 37.9587 44.2792 38.681 44.2792 39.5728C44.2792 40.4645 43.557 41.1868 42.6726 41.1868C41.7882 41.1868 41.0659 40.4645 41.0659 39.5728Z" fill="white"/>
<path d="M37.0938 40.8993C36.8948 41.3415 36.541 41.6731 36.0915 41.85C35.6419 42.0195 35.1481 42.0122 34.7059 41.8132C34.4774 41.71 34.2711 41.5626 34.1016 41.3783L36.6442 38.8357C37.2191 39.3442 37.4107 40.177 37.0938 40.8993Z" fill="white"/>
<path d="M48.5983 36.2709C47.9571 36.5362 47.2054 36.4109 46.6821 35.9171C45.9672 35.2391 45.9451 34.1041 46.6305 33.3892C46.8001 33.2124 46.999 33.0797 47.2128 32.9839L48.5983 36.2709Z" fill="white"/>
<path d="M52.195 44.8275C51.5538 45.0929 50.7947 44.9676 50.2788 44.4738C49.5639 43.7957 49.5418 42.6608 50.2272 41.9459C50.3967 41.769 50.5957 41.6363 50.8095 41.5405L52.195 44.8275Z" fill="white"/>
<path d="M50.8389 54.7107C51.0968 54.0548 51.7306 53.6125 52.4529 53.6125C53.411 53.6125 54.1848 54.3938 54.1848 55.3519C54.1848 55.6025 54.1333 55.8457 54.0301 56.0668L50.8389 54.7107Z" fill="white"/>
<path d="M34.374 47.724C34.632 47.127 35.2216 46.7217 35.8922 46.7217C36.8061 46.7217 37.5505 47.4661 37.5505 48.3799C37.5505 48.601 37.5063 48.8148 37.4252 49.0138L34.374 47.724Z" fill="white"/>
<path d="M42.1714 46.9575C42.1714 46.0658 42.8936 45.3435 43.778 45.3435C44.6624 45.3435 45.3847 46.0658 45.3847 46.9575C45.3847 47.8493 44.6624 48.5716 43.778 48.5716C42.8936 48.5716 42.1714 47.8493 42.1714 46.9575Z" fill="#A3EFE0"/>
<path d="M37.8311 41.6364C37.6321 42.0786 37.2783 42.4102 36.8288 42.5871C36.3792 42.7566 35.8854 42.7492 35.4432 42.5502C35.2147 42.4471 35.0084 42.2997 34.8389 42.1154L37.3815 39.5728C37.9564 40.0813 38.148 40.9141 37.8311 41.6364Z" fill="#A3EFE0"/>
<path d="M49.3351 37.008C48.694 37.2733 47.9422 37.148 47.4189 36.6542C46.7041 35.9762 46.6819 34.8412 47.3674 34.1263C47.5369 33.9494 47.7359 33.8168 47.9496 33.7209L49.3351 37.008Z" fill="#A3EFE0"/>
<path d="M52.9318 45.5646C52.2906 45.8299 51.5315 45.7046 51.0156 45.2109C50.3007 44.5328 50.2786 43.3978 50.964 42.6829C51.1335 42.5061 51.3325 42.3734 51.5463 42.2776L52.9318 45.5646Z" fill="#A3EFE0"/>
<path d="M35.1113 48.4611C35.3693 47.8641 35.9589 47.4587 36.6295 47.4587C37.5434 47.4587 38.2878 48.2031 38.2878 49.117C38.2878 49.3381 38.2436 49.5518 38.1625 49.7508L35.1113 48.4611Z" fill="#A3EFE0"/>
<path d="M24.5649 35.7847C25.5156 35.7847 26.2821 36.5511 26.2821 37.5019C26.2821 38.4452 25.5082 39.2191 24.5649 39.2191C23.6141 39.2191 22.8477 38.4526 22.8477 37.5019C22.8477 36.5511 23.6215 35.7847 24.5649 35.7847Z" fill="white"/>
<path d="M39.4666 24.5749C39.4666 25.5182 38.6928 26.2921 37.7494 26.2921C36.7987 26.2921 36.0322 25.5256 36.0322 24.5749C36.0322 23.6241 36.8061 22.8577 37.7494 22.8577C38.6928 22.8577 39.4666 23.6241 39.4666 24.5749Z" fill="white"/>
<path d="M53.6096 21.7153L52.8284 23.1967C52.7621 23.3293 52.7547 23.4841 52.8063 23.6241L53.4475 25.1718L51.7966 24.8918C51.7671 24.8844 51.7377 24.8844 51.7155 24.8844C51.5976 24.8844 51.4797 24.9286 51.3913 25.0023L50.1163 26.0857L49.8804 24.4275C49.8583 24.2801 49.7699 24.1474 49.6446 24.0737L48.2222 23.1967L49.7256 22.4597C49.8583 22.3934 49.9541 22.2754 49.991 22.128L50.3816 20.4993L51.546 21.7006C51.6492 21.8038 51.7892 21.8627 51.944 21.848L53.6096 21.7153Z" fill="white"/>
<path d="M20.5332 49.4337L22.0367 48.6967C22.1693 48.6304 22.2652 48.5125 22.302 48.3651L22.6926 46.7363L23.8571 47.9376C23.9603 48.0408 24.1077 48.0998 24.2551 48.085L25.9207 47.9524L25.1395 49.4337C25.0731 49.5664 25.0658 49.7212 25.1173 49.8612L25.7585 51.4089L24.1077 51.1288C24.0782 51.1215 24.0487 51.1215 24.0266 51.1215C23.9087 51.1215 23.7907 51.1657 23.7023 51.2394L22.4347 52.3154L22.1915 50.6572C22.1693 50.5098 22.0809 50.3771 21.9556 50.3034L20.5332 49.4337Z" fill="white"/>
<path d="M29.1345 25.695L27.2183 26.8079C27.093 26.8816 27.0045 27.0068 26.9751 27.1542L26.6066 29.3358L24.9557 27.8618C24.8451 27.766 24.6977 27.7217 24.5503 27.7365L22.3614 28.0681L23.2532 26.0414C23.3122 25.9087 23.3122 25.7466 23.2458 25.6139L22.2656 23.6387L24.4693 23.8598C24.6167 23.8746 24.7641 23.823 24.8672 23.7198L26.4444 22.1721L26.9087 24.3389C26.9382 24.4863 27.034 24.6116 27.1667 24.6779L29.1345 25.695Z" fill="white"/>
<path d="M23.8281 35.0476C24.7788 35.0476 25.5453 35.8141 25.5453 36.7648C25.5453 37.7082 24.7714 38.482 23.8281 38.482C22.8773 38.482 22.1108 37.7155 22.1108 36.7648C22.1108 35.8141 22.8847 35.0476 23.8281 35.0476Z" fill="#A3EFE0"/>
<path d="M38.7298 23.8378C38.7298 24.7812 37.956 25.555 37.0126 25.555C36.0619 25.555 35.2954 24.7885 35.2954 23.8378C35.2954 22.8871 36.0693 22.1206 37.0126 22.1206C37.956 22.1206 38.7298 22.8871 38.7298 23.8378Z" fill="#A3EFE0"/>
<path d="M52.8728 20.9783L52.0916 22.4596C52.0253 22.5923 52.0179 22.7471 52.0695 22.8871L52.7107 24.4348L51.0598 24.1547C51.0303 24.1474 51.0008 24.1474 50.9787 24.1474C50.8608 24.1474 50.7429 24.1916 50.6545 24.2653L49.3794 25.3487L49.1436 23.6904C49.1215 23.543 49.0331 23.4104 48.9078 23.3367L47.4854 22.4596L48.9888 21.7226C49.1215 21.6563 49.2173 21.5384 49.2542 21.391L49.6448 19.7622L50.8092 20.9635C50.9124 21.0667 51.0524 21.1257 51.2072 21.1109L52.8728 20.9783Z" fill="#A3EFE0"/>
<path d="M19.7964 48.6967L21.2999 47.9597C21.4325 47.8934 21.5283 47.7754 21.5652 47.628L21.9558 45.9993L23.1203 47.2006C23.2234 47.3038 23.3708 47.3627 23.5182 47.348L25.1839 47.2153L24.4026 48.6967C24.3363 48.8293 24.3289 48.9841 24.3805 49.1241L25.0217 50.6718L23.3708 50.3918C23.3414 50.3844 23.3119 50.3844 23.2898 50.3844C23.1718 50.3844 23.0539 50.4286 22.9655 50.5023L21.6978 51.5784L21.4546 49.9201C21.4325 49.7727 21.3441 49.64 21.2188 49.5663L19.7964 48.6967Z" fill="#A3EFE0"/>
<path d="M28.3972 24.9582L26.481 26.071C26.3557 26.1447 26.2672 26.27 26.2378 26.4174L25.8693 28.5989L24.2184 27.1249C24.1078 27.0291 23.9604 26.9849 23.813 26.9997L21.6241 27.3313L22.5159 25.3046C22.5749 25.1719 22.5749 25.0098 22.5085 24.8771L21.5283 22.9019L23.732 23.123C23.8794 23.1378 24.0268 23.0862 24.1299 22.983L25.7071 21.4353L26.1714 23.6021C26.2009 23.7495 26.2967 23.8748 26.4294 23.9411L28.3972 24.9582Z" fill="#A3EFE0"/>
<path d="M46.1147 49.5075C46.1147 50.952 47.2866 52.1238 48.7237 52.1238C50.1609 52.1238 51.3327 50.952 51.3327 49.5075C51.3327 48.0629 50.1609 46.8911 48.7237 46.8911C47.2866 46.8985 46.1147 48.0703 46.1147 49.5075ZM47.1171 49.5075C47.1171 48.6157 47.8393 47.8934 48.7237 47.8934C49.6081 47.8934 50.3304 48.6157 50.3304 49.5075C50.3304 50.3992 49.6081 51.1215 48.7237 51.1215C47.8393 51.1215 47.1171 50.3992 47.1171 49.5075Z" fill="#464860"/>
<path d="M40.4326 46.2204C40.4326 47.6649 41.6044 48.8367 43.0416 48.8367C44.4787 48.8367 45.6506 47.6649 45.6506 46.2204C45.6506 44.7758 44.4787 43.604 43.0416 43.604C41.6044 43.604 40.4326 44.7758 40.4326 46.2204ZM41.4349 46.2204C41.4349 45.3286 42.1572 44.6063 43.0416 44.6063C43.926 44.6063 44.6483 45.3286 44.6483 46.2204C44.6483 47.1121 43.926 47.8344 43.0416 47.8344C42.1572 47.8344 41.4349 47.1121 41.4349 46.2204Z" fill="#464860"/>
<path d="M40.064 39.5726C40.064 41.0172 41.2358 42.189 42.6729 42.189C44.1101 42.189 45.2819 41.0172 45.2819 39.5726C45.2819 38.1281 44.1101 36.9563 42.6729 36.9563C41.2358 36.9563 40.064 38.1281 40.064 39.5726ZM41.0663 39.5726C41.0663 38.6809 41.7885 37.9586 42.6729 37.9586C43.5573 37.9586 44.2796 38.6809 44.2796 39.5726C44.2796 40.4644 43.5573 41.1867 42.6729 41.1867C41.7885 41.1867 41.0663 40.4644 41.0663 39.5726Z" fill="#464860"/>
<path d="M28.5002 45.5719C28.3823 45.6898 28.3307 45.8593 28.3602 46.0215C28.3897 46.1836 28.5002 46.3236 28.655 46.3826L58.2898 58.9632C58.3561 58.9927 58.4224 59 58.4814 59C58.614 59 58.7393 58.9484 58.8351 58.8526C58.9825 58.7126 59.0194 58.4915 58.9457 58.3073L46.4462 28.5693C46.3798 28.4145 46.2472 28.304 46.0777 28.2745C45.9155 28.245 45.746 28.2966 45.6281 28.4145L28.5002 45.5719ZM37.0936 40.8993C36.8946 41.3415 36.5409 41.6732 36.0913 41.85C35.6417 42.0195 35.148 42.0122 34.7058 41.8132C34.4773 41.71 34.2709 41.5626 34.1014 41.3784L36.6441 38.8357C37.2189 39.3442 37.4105 40.177 37.0936 40.8993ZM48.5982 36.2709C47.957 36.5363 47.2053 36.411 46.682 35.9172C45.9671 35.2391 45.945 34.1042 46.6304 33.3893C46.7999 33.2124 46.9989 33.0797 47.2126 32.9839L48.5982 36.2709ZM52.1948 44.8275C51.5536 45.0928 50.7945 44.9675 50.2786 44.4738C49.5637 43.7957 49.5416 42.6607 50.227 41.9458C50.3965 41.769 50.5955 41.6363 50.8092 41.5405L52.1948 44.8275ZM50.8387 54.7107C51.0966 54.0548 51.7305 53.6126 52.4527 53.6126C53.4108 53.6126 54.1847 54.3938 54.1847 55.3519C54.1847 55.6025 54.1331 55.8457 54.0299 56.0668L50.8387 54.7107ZM34.3741 47.7239C34.6321 47.127 35.2217 46.7216 35.8923 46.7216C36.8062 46.7216 37.5506 47.466 37.5506 48.3799C37.5506 48.601 37.5064 48.8147 37.4253 49.0137L34.3741 47.7239ZM29.731 45.7488L33.3939 42.0785C33.6445 42.3512 33.9466 42.5723 34.293 42.7271C34.6615 42.8892 35.0448 42.9703 35.4354 42.9703C35.7744 42.9703 36.1134 42.9113 36.4377 42.786C37.1379 42.5207 37.6906 41.9901 37.9928 41.312C38.4792 40.2139 38.1991 38.9315 37.3368 38.1282L45.7976 29.6527L46.8147 32.07C46.4757 32.2174 46.1587 32.4238 45.8934 32.7039C44.8321 33.8167 44.869 35.5855 45.9745 36.6468C46.5051 37.1553 47.2053 37.4207 47.9054 37.4207C48.2666 37.4207 48.6277 37.3396 48.9667 37.1996L50.4112 40.6266C50.0648 40.774 49.7553 40.9804 49.49 41.2604C48.4434 42.3659 48.4803 44.1347 49.5858 45.196C50.1164 45.7045 50.8166 45.9625 51.5094 45.9625C51.8705 45.9625 52.2316 45.8814 52.578 45.7414L57.5528 57.5555L54.9512 56.45C55.1059 56.1036 55.187 55.7278 55.187 55.3445C55.187 53.8337 53.9636 52.6029 52.4527 52.6029C51.3251 52.6029 50.3302 53.2957 49.9174 54.3127L38.3392 49.3969C38.4718 49.0726 38.5455 48.7336 38.5455 48.3725C38.5455 46.9059 37.3516 45.7119 35.8923 45.7119C34.8163 45.7119 33.8729 46.3678 33.4602 47.3259L29.731 45.7488Z" fill="#464860"/>
<path d="M35.9737 32.2174C36.1359 32.4385 36.0843 32.7554 35.8632 32.9176C35.7747 32.9839 35.6716 33.0134 35.5684 33.0134C35.4136 33.0134 35.2662 32.9397 35.163 32.807C35.0083 32.5933 31.3085 27.4343 32.3256 19.4378C32.3624 19.1651 32.613 18.9735 32.8857 19.003C33.1584 19.0398 33.35 19.2904 33.3205 19.5631C32.3624 27.1542 35.9369 32.1732 35.9737 32.2174Z" fill="#464860"/>
<path d="M32.9668 35.239C33.1805 35.4086 33.2174 35.7255 33.0478 35.9392C32.952 36.0645 32.8046 36.1308 32.6572 36.1308C32.5467 36.1308 32.4361 36.094 32.3477 36.0203C32.2887 35.976 26.6875 31.5983 19.7155 34.3841C19.4576 34.4799 19.1628 34.3546 19.0596 34.1041C18.9564 33.8461 19.0817 33.5587 19.3396 33.4555C26.8497 30.4559 32.7236 35.0401 32.9668 35.239Z" fill="#464860"/>
<path d="M42.7909 28.6576C42.8499 28.9303 42.6878 29.1956 42.4151 29.2546C42.3782 29.262 42.3414 29.2693 42.3045 29.2693C42.076 29.2693 41.8697 29.1146 41.8181 28.8787C41.7739 28.6724 40.6905 23.7713 44.0365 20.8012C44.2428 20.617 44.5597 20.6391 44.744 20.8454C44.9282 21.0518 44.9061 21.3687 44.6998 21.5529C41.796 24.1177 42.7836 28.6134 42.7909 28.6576Z" fill="#464860"/>
<path d="M19.9217 44.6506C19.8259 44.7906 19.6711 44.8643 19.5163 44.8643C19.4132 44.8643 19.3173 44.8348 19.2289 44.7685C19.0004 44.6137 18.9415 44.2968 19.1036 44.0757C21.8895 40.1475 27.8592 41.9237 28.1098 42.0047C28.3751 42.0858 28.5225 42.3659 28.4414 42.6312C28.3603 42.8965 28.0803 43.0439 27.815 42.9628C27.7634 42.9407 22.2948 41.312 19.9217 44.6506Z" fill="#464860"/>
<path d="M24.5647 34.7822C23.0686 34.7822 21.8452 35.9983 21.8452 37.4944C21.8452 38.9905 23.0613 40.2065 24.5647 40.2065C26.0609 40.2065 27.2843 38.9905 27.2843 37.4944C27.2843 35.9983 26.0682 34.7822 24.5647 34.7822ZM24.5647 35.7845C25.5155 35.7845 26.282 36.551 26.282 37.5018C26.282 38.4451 25.5081 39.219 24.5647 39.219C23.614 39.219 22.8475 38.4525 22.8475 37.5018C22.8475 36.551 23.6214 35.7845 24.5647 35.7845Z" fill="#464860"/>
<path d="M40.4693 24.5747C40.4693 23.0786 39.2533 21.8625 37.7498 21.8625C36.2537 21.8625 35.0303 23.0786 35.0303 24.5747C35.0303 26.0708 36.2463 27.2942 37.7498 27.2942C39.2459 27.2869 40.4693 26.0708 40.4693 24.5747ZM39.467 24.5747C39.467 25.5181 38.6932 26.2919 37.7498 26.2919C36.7991 26.2919 36.0326 25.5254 36.0326 24.5747C36.0326 23.624 36.8064 22.8575 37.7498 22.8575C38.6932 22.8575 39.467 23.624 39.467 24.5747Z" fill="#464860"/>
<path d="M54.9217 21.3835C55.0101 21.2213 54.9954 21.0297 54.8996 20.8749C54.7964 20.7202 54.6269 20.6391 54.4426 20.6538L52.1063 20.8381L50.4702 19.1577C50.3449 19.0251 50.1533 18.9735 49.9764 19.0251C49.7995 19.0693 49.6669 19.2167 49.6227 19.3936L49.0699 21.6635L46.9695 22.7027C46.8073 22.7838 46.6968 22.9459 46.6894 23.1302C46.682 23.3144 46.7705 23.4839 46.9252 23.5797L48.9225 24.8032L49.2615 27.1247C49.291 27.3016 49.4089 27.4564 49.5784 27.5227C49.6374 27.5448 49.6964 27.5522 49.7553 27.5522C49.8732 27.5522 49.9912 27.508 50.0796 27.4343L51.8631 25.9087L54.1773 26.3066C54.3616 26.3361 54.5384 26.2698 54.649 26.1224C54.7595 25.9824 54.789 25.7907 54.7227 25.6212L53.8236 23.4544L54.9217 21.3835ZM53.6098 21.7151L52.8286 23.1965C52.7623 23.3292 52.7549 23.4839 52.8065 23.624L53.4477 25.1717L51.7968 24.8916C51.7673 24.8842 51.7378 24.8842 51.7157 24.8842C51.5978 24.8842 51.4799 24.9285 51.3915 25.0022L50.1164 26.0855L49.8806 24.4273C49.8585 24.2799 49.7701 24.1472 49.6448 24.0735L48.2224 23.1965L49.7258 22.4595C49.8585 22.3932 49.9543 22.2752 49.9912 22.1278L50.3818 20.4991L51.5462 21.7004C51.6494 21.8036 51.7894 21.8625 51.9442 21.8478L53.6098 21.7151Z" fill="#464860"/>
<path d="M19.0004 49.3601C18.9931 49.5444 19.0815 49.7139 19.2363 49.8097L21.2335 51.0331L21.5726 53.3547C21.602 53.5316 21.72 53.6863 21.8895 53.7527C21.9484 53.7748 22.0074 53.7822 22.0663 53.7822C22.1843 53.7822 22.3022 53.7379 22.3906 53.6642L24.1742 52.1386L26.4883 52.5366C26.6726 52.5661 26.8495 52.4998 26.96 52.3524C27.0706 52.2123 27.1001 52.0207 27.0337 51.8512L26.1346 49.6844L27.2254 47.6135C27.3138 47.4513 27.2991 47.2597 27.2032 47.1049C27.1001 46.9502 26.9306 46.8691 26.7463 46.8838L24.41 47.0681L22.7739 45.3877C22.6486 45.2551 22.457 45.2035 22.2801 45.2551C22.1032 45.2993 21.9705 45.4467 21.9263 45.6236L21.3809 47.9009L19.2805 48.9401C19.1183 49.0138 19.0078 49.1759 19.0004 49.3601ZM20.5334 49.4339L22.0369 48.6969C22.1695 48.6305 22.2653 48.5126 22.3022 48.3652L22.6928 46.7364L23.8573 47.9377C23.9604 48.0409 24.1078 48.0999 24.2552 48.0851L25.9209 47.9525L25.1396 49.4339C25.0733 49.5665 25.0659 49.7213 25.1175 49.8613L25.7587 51.409L24.1078 51.129C24.0784 51.1216 24.0489 51.1216 24.0268 51.1216C23.9088 51.1216 23.7909 51.1658 23.7025 51.2395L22.4348 52.3155L22.1916 50.6573C22.1695 50.5099 22.0811 50.3772 21.9558 50.3035L20.5334 49.4339Z" fill="#464860"/>
<path d="M30.667 25.658C30.6596 25.4738 30.5565 25.3117 30.4017 25.2232L27.8443 23.8892L27.2326 21.0665C27.1957 20.8896 27.0631 20.7422 26.8862 20.6907C26.7093 20.6391 26.5251 20.6833 26.3924 20.8159L24.3288 22.8353L21.4545 22.5405C21.2776 22.5332 21.1007 22.6142 20.9976 22.7616C20.8944 22.909 20.8796 23.108 20.9607 23.2702L22.2431 25.857L21.0786 28.4955C21.0049 28.665 21.027 28.8566 21.1376 29.004C21.2481 29.1514 21.425 29.2178 21.6093 29.1956L24.4615 28.7682L26.6135 30.6918C26.7093 30.7728 26.8272 30.817 26.9452 30.817C27.0041 30.817 27.0557 30.8097 27.1073 30.7876C27.2768 30.7286 27.4021 30.5812 27.4316 30.397L27.9106 27.5521L30.4017 26.1002C30.5786 26.0118 30.6744 25.8423 30.667 25.658ZM29.134 25.6949L27.2178 26.8078C27.0926 26.8815 27.0041 27.0068 26.9746 27.1542L26.6061 29.3357L24.9553 27.8617C24.8447 27.7659 24.6973 27.7216 24.5499 27.7364L22.361 28.068L23.2528 26.0413C23.3117 25.9086 23.3117 25.7465 23.2454 25.6138L22.2652 23.6387L24.4688 23.8598C24.6162 23.8745 24.7636 23.8229 24.8668 23.7197L26.444 22.172L26.9083 24.3388C26.9378 24.4862 27.0336 24.6115 27.1663 24.6778L29.134 25.6949Z" fill="#464860"/>
</svg>
