<svg width="78" height="78" viewBox="0 0 78 78" fill="none" xmlns="http://www.w3.org/2000/svg">
<rect width="78" height="78" fill="white"/>
<path d="M39.6225 51.5261C39.5682 51.3951 39.4598 51.2939 39.3247 51.2482C33.1316 49.176 29.2767 42.971 30.1599 36.4937C31.1745 29.0533 38.0667 23.8273 45.5237 24.8441C52.9782 25.8606 58.2171 32.7407 57.2025 40.1812C56.3193 46.658 50.9442 51.6049 44.4214 51.9431C44.2796 51.9511 44.1481 52.0191 44.0617 52.1304L41.3236 55.6424L39.6225 51.5261Z" fill="white"/>
<path d="M41.4624 52.6266C41.4097 52.4998 41.3046 52.4017 41.1736 52.3574C35.1689 50.3497 31.4304 44.3399 32.2857 38.0672C33.2682 30.8618 39.9497 25.8018 47.1798 26.7877C54.4074 27.7732 59.4878 34.437 58.5052 41.6425C57.65 47.9147 52.4393 52.7046 46.1153 53.0312C45.9777 53.0389 45.8502 53.1048 45.7665 53.2125L43.1123 56.6133L41.4624 52.6266Z" fill="#CCB8F4"/>
<path d="M41.8332 56.0387L44.694 52.0463L44.846 52.028C48.0336 51.6484 51.0287 50.1719 53.2795 47.871C55.5347 45.5661 56.9438 42.5325 57.2478 39.3299C57.9844 31.571 52.2523 24.6583 44.4706 23.9196C36.6859 23.1806 29.7536 28.8912 29.0171 36.6501C28.713 39.8536 29.5262 43.0983 31.3069 45.7863C33.0846 48.4695 35.749 50.4828 38.8082 51.4554L38.9541 51.5015L41.017 55.9617C41.0876 56.1143 41.2354 56.2186 41.4031 56.2346C41.5708 56.2505 41.7352 56.1753 41.8332 56.0387ZM39.7248 50.9113C39.6669 50.7867 39.5579 50.693 39.4252 50.6541C33.3434 48.8935 29.3624 43.0415 29.9607 36.7391C30.6479 29.4995 37.117 24.1707 44.3813 24.8603C51.6432 25.5496 56.9916 32.0002 56.3044 39.2398C55.7062 45.5417 50.6956 50.5407 44.3902 51.1254C44.2531 51.1387 44.1284 51.2097 44.0492 51.3208L41.5362 54.8272L39.7248 50.9113Z" fill="#464860"/>
<path d="M30.8326 48.894C30.8009 48.7604 30.7128 48.6467 30.5907 48.5821C24.9852 45.6381 22.258 39.1069 24.1074 33.0523C26.2319 26.0974 33.6379 22.1735 40.6165 24.3052C47.5928 26.4361 51.5397 33.8279 49.4153 40.7828C47.566 46.8369 41.6551 50.73 35.3605 50.039C35.2235 50.0246 35.0871 50.0691 34.9872 50.1621L31.8223 53.0936L30.8326 48.894Z" fill="white"/>
<path d="M28.7178 49.541C28.6861 49.4074 28.5981 49.2937 28.4759 49.229C22.8705 46.285 20.1433 39.7539 21.9927 33.6993C24.1172 26.7444 31.5231 22.8204 38.5018 24.9521C45.4781 27.0831 49.425 34.4749 47.3005 41.4298C45.4512 47.4839 39.5404 51.377 33.2457 50.686C33.1087 50.6715 32.9723 50.7161 32.8725 50.809L29.7076 53.7406L28.7178 49.541Z" fill="#A3EFE0"/>
<path d="M31.8707 54.3402L35.4736 51.0022L35.6262 51.0148C38.8252 51.2818 42.0556 50.4356 44.7219 48.6326C47.3933 46.8266 49.3819 44.1369 50.3217 41.0603C52.5985 33.6065 48.3685 25.6851 40.8928 23.4016C33.4142 21.1172 25.4779 25.3223 23.2011 32.776C22.261 35.8536 22.4073 39.1954 23.6131 42.1858C24.8168 45.1709 27.0236 47.6774 29.8258 49.2435L29.9595 49.3179L31.0864 54.1011C31.125 54.2647 31.2489 54.3966 31.41 54.4458C31.5711 54.495 31.7472 54.4543 31.8707 54.3402ZM30.8328 48.8941C30.8011 48.7605 30.713 48.6468 30.5909 48.5822C24.9854 45.6382 22.2582 39.107 24.1076 33.0524C26.2321 26.0975 33.6381 22.1736 40.6167 24.3053C47.593 26.4362 51.5399 33.828 49.4155 40.7829C47.5662 46.837 41.6553 50.7301 35.3607 50.0391C35.2237 50.0247 35.0873 50.0692 34.9874 50.1622L31.8225 53.0937L30.8328 48.8941Z" fill="#464860"/>
<path d="M36.0146 44.6768C36.1045 44.5862 36.1544 44.4663 36.1544 44.3395C36.1544 44.2166 36.103 44.0932 36.0175 44.009L36.0131 44.0046C35.8476 43.8361 35.5162 43.8381 35.3443 44.008C35.2608 44.0918 35.2104 44.2161 35.2104 44.3395C35.2104 44.4658 35.2589 44.5852 35.3463 44.6768C35.4352 44.762 35.5606 44.8131 35.6826 44.8131C35.8046 44.8136 35.9286 44.7625 36.0146 44.6768Z" fill="#464860"/>
<path d="M39.1997 38.7463C39.9168 37.9061 40.312 36.835 40.312 35.7302C40.312 33.1694 38.235 31.0862 35.6819 31.0862C33.1287 31.0862 31.0518 33.1694 31.0518 35.7302C31.0518 35.9913 31.2637 36.2038 31.5245 36.2038C31.7848 36.2038 31.9966 35.9913 31.9966 35.7302C31.9966 33.6921 33.6498 32.0344 35.6819 32.0344C37.7144 32.0344 39.3676 33.6926 39.3676 35.7302C39.3676 37.7684 37.7144 39.4265 35.6819 39.4265C35.4216 39.4265 35.2097 39.6391 35.2097 39.9001V41.594C35.2097 41.8551 35.4216 42.0676 35.6819 42.0676H35.6824C35.8083 42.0676 35.9269 42.0185 36.0158 41.9294C36.1052 41.8397 36.1541 41.7208 36.1541 41.5945V40.3599L36.443 40.3118C37.5109 40.1335 38.4904 39.5781 39.1997 38.7463Z" fill="#464860"/>
</svg>
