<svg width="44" height="40" viewBox="0 0 44 40" fill="none" xmlns="http://www.w3.org/2000/svg">
<path d="M22.6225 32.5261C22.5682 32.3951 22.4598 32.2939 22.3247 32.2482C16.1316 30.176 12.2767 23.971 13.1599 17.4937C14.1745 10.0533 21.0667 4.82726 28.5237 5.8441C35.9782 6.86059 41.2171 13.7407 40.2025 21.1812C39.3193 27.658 33.9442 32.6049 27.4214 32.9431C27.2796 32.9511 27.1481 33.0191 27.0617 33.1304L24.3236 36.6424L22.6225 32.5261Z" fill="white"/>
<path d="M24.4624 33.6266C24.4097 33.4998 24.3046 33.4017 24.1736 33.3574C18.1689 31.3497 14.4304 25.3399 15.2857 19.0672C16.2682 11.8618 22.9497 6.80177 30.1798 7.78766C37.4074 8.77321 42.4878 15.437 41.5052 22.6425C40.65 28.9147 35.4393 33.7046 29.1153 34.0312C28.9777 34.0389 28.8502 34.1048 28.7665 34.2125L26.1123 37.6133L24.4624 33.6266Z" fill="#CCB8F4"/>
<path d="M24.8332 37.0387L27.694 33.0463L27.846 33.028C31.0336 32.6484 34.0287 31.1719 36.2795 28.871C38.5347 26.5661 39.9438 23.5325 40.2478 20.3299C40.9844 12.571 35.2523 5.65829 27.4706 4.91961C19.6859 4.18065 12.7536 9.89121 12.0171 17.6501C11.713 20.8536 12.5262 24.0983 14.3069 26.7863C16.0846 29.4695 18.749 31.4828 21.8082 32.4554L21.9541 32.5015L24.017 36.9617C24.0876 37.1143 24.2354 37.2186 24.4031 37.2346C24.5708 37.2505 24.7352 37.1753 24.8332 37.0387ZM22.7248 31.9113C22.6669 31.7867 22.5579 31.693 22.4252 31.6541C16.3434 29.8935 12.3624 24.0415 12.9607 17.7391C13.6479 10.4995 20.117 5.1707 27.3813 5.86027C34.6432 6.54961 39.9916 13.0002 39.3044 20.2398C38.7062 26.5417 33.6956 31.5407 27.3902 32.1254C27.2531 32.1387 27.1284 32.2097 27.0492 32.3208L24.5362 35.8272L22.7248 31.9113Z" fill="#464860"/>
<path d="M13.8326 29.894C13.8009 29.7604 13.7128 29.6467 13.5907 29.5821C7.98523 26.6381 5.25803 20.1069 7.10745 14.0523C9.23189 7.09741 16.6379 3.17345 23.6165 5.30515C30.5928 7.43613 34.5397 14.8279 32.4153 21.7828C30.566 27.8369 24.6551 31.73 18.3605 31.039C18.2235 31.0246 18.0871 31.0691 17.9872 31.1621L14.8223 34.0936L13.8326 29.894Z" fill="white"/>
<path d="M11.7178 30.541C11.6861 30.4074 11.5981 30.2937 11.4759 30.229C5.8705 27.285 3.14329 20.7539 4.99271 14.6993C7.11716 7.74438 14.5231 3.82043 21.5018 5.95213C28.4781 8.0831 32.425 15.4749 30.3005 22.4298C28.4512 28.4839 22.5404 32.377 16.2457 31.686C16.1087 31.6715 15.9723 31.7161 15.8725 31.809L12.7076 34.7406L11.7178 30.541Z" fill="#A3EFE0"/>
<path d="M14.8707 35.3402L18.4736 32.0022L18.6262 32.0148C21.8252 32.2818 25.0556 31.4356 27.7219 29.6326C30.3933 27.8266 32.3819 25.1369 33.3217 22.0603C35.5985 14.6065 31.3685 6.6851 23.8928 4.40158C16.4142 2.11719 8.47793 6.32228 6.20111 13.776C5.26103 16.8536 5.40734 20.1954 6.6131 23.1858C7.81683 26.1709 10.0236 28.6774 12.8258 30.2435L12.9595 30.3179L14.0864 35.1011C14.125 35.2647 14.2489 35.3966 14.41 35.4458C14.5711 35.495 14.7472 35.4543 14.8707 35.3402ZM13.8328 29.8941C13.8011 29.7605 13.713 29.6468 13.5909 29.5822C7.98543 26.6382 5.25822 20.107 7.10764 14.0524C9.23209 7.09751 16.6381 3.17355 23.6167 5.30525C30.593 7.43623 34.5399 14.828 32.4155 21.7829C30.5662 27.837 24.6553 31.7301 18.3607 31.0391C18.2237 31.0247 18.0873 31.0692 17.9874 31.1622L14.8225 34.0937L13.8328 29.8941Z" fill="#464860"/>
<path d="M19.0146 25.6768C19.1045 25.5862 19.1544 25.4663 19.1544 25.3395C19.1544 25.2166 19.103 25.0932 19.0175 25.009L19.0131 25.0046C18.8476 24.8361 18.5162 24.8381 18.3443 25.008C18.2608 25.0918 18.2104 25.2161 18.2104 25.3395C18.2104 25.4658 18.2589 25.5852 18.3463 25.6768C18.4352 25.762 18.5606 25.8131 18.6826 25.8131C18.8046 25.8136 18.9286 25.7625 19.0146 25.6768Z" fill="#464860"/>
<path d="M22.1997 19.7463C22.9168 18.9061 23.312 17.835 23.312 16.7302C23.312 14.1694 21.235 12.0862 18.6819 12.0862C16.1287 12.0862 14.0518 14.1694 14.0518 16.7302C14.0518 16.9913 14.2637 17.2038 14.5245 17.2038C14.7848 17.2038 14.9966 16.9913 14.9966 16.7302C14.9966 14.6921 16.6498 13.0344 18.6819 13.0344C20.7144 13.0344 22.3676 14.6926 22.3676 16.7302C22.3676 18.7684 20.7144 20.4265 18.6819 20.4265C18.4216 20.4265 18.2097 20.6391 18.2097 20.9001V22.594C18.2097 22.8551 18.4216 23.0676 18.6819 23.0676H18.6824C18.8083 23.0676 18.9269 23.0185 19.0158 22.9294C19.1052 22.8397 19.1541 22.7208 19.1541 22.5945V21.3599L19.443 21.3118C20.5109 21.1335 21.4904 20.5781 22.1997 19.7463Z" fill="#464860"/>
</svg>
