<svg width="37" height="38" viewBox="0 0 37 38" fill="none" xmlns="http://www.w3.org/2000/svg">
<path d="M28.4973 12.8658C27.9533 13.4058 27.2281 13.7058 26.4525 13.7058C25.6768 13.7058 24.9516 13.4058 24.4076 12.8658C23.8637 12.3258 23.5615 11.5958 23.5615 10.8358C23.5615 10.0758 23.8738 9.3358 24.4076 8.80581C24.9516 8.26582 25.6768 7.96582 26.4525 7.96582C27.2281 7.96582 27.9533 8.26582 28.4973 8.80581C29.0412 9.3458 29.3434 10.0658 29.3434 10.8358C29.3434 11.6058 29.0412 12.3258 28.4973 12.8658Z" fill="white"/>
<path d="M11.3936 14.9457L4.76562 14.6758L4.91672 14.4558C5.39015 13.7658 5.93408 13.1258 6.52839 12.5558C8.99625 10.0958 12.28 8.73582 15.7753 8.71582H16.1279L15.7854 9.07582C15.4329 9.43581 15.0803 9.80581 14.7479 10.1758L14.5263 10.4258C14.1637 10.8458 13.8111 11.2858 13.4787 11.7258L13.4082 11.8258C13.0758 12.2758 12.7535 12.7358 12.4412 13.2058L12.3707 13.3058C12.0484 13.8058 11.7361 14.3258 11.4339 14.8557L11.3936 14.9457Z" fill="white"/>
<path d="M16.0373 26.9656L10.2051 21.1757L12.7535 19.3757L17.8504 24.4357L16.0373 26.9656Z" fill="white"/>
<path d="M28.5984 21.4357C28.5782 24.9056 27.1982 28.1656 24.7203 30.6056C24.1361 31.1855 23.4914 31.7155 22.8064 32.1755L22.5848 32.3255L22.333 25.7556L22.4136 25.7156C22.5949 25.6156 22.7762 25.5056 22.9575 25.3956C23.0482 25.3356 23.1388 25.2856 23.2295 25.2256C23.3403 25.1656 23.431 25.1056 23.5115 25.0556C23.6425 24.9756 23.7533 24.9156 23.8842 24.8256C24.2569 24.5856 24.6296 24.3256 24.9419 24.1056L25.0829 24.0056C25.2139 23.9156 25.3347 23.8356 25.4657 23.7456C25.9693 23.3756 26.4629 22.9856 26.9363 22.5756L26.9766 22.5356H27.0068C27.4601 22.1457 27.9033 21.7357 28.3365 21.3157L28.5984 21.0557V21.4357Z" fill="white"/>
<path d="M1.0387 35.5857C1.15958 33.5557 1.70351 28.5558 4.17138 26.1158C5.07795 25.2158 6.32699 24.6958 7.61632 24.6958H8.23077L8.04946 24.9358C6.70976 26.7058 6.69969 29.8557 6.69969 29.9857C6.69969 30.1057 6.73998 30.2257 6.83063 30.3157C6.91122 30.4057 7.03209 30.4557 7.15297 30.4557C7.2537 30.4457 7.34435 30.4257 7.42494 30.3757C7.96888 30.0457 8.56318 29.8257 9.1877 29.7057C9.42945 29.6557 9.73164 29.6257 10.0238 29.5857L10.1245 29.5757C10.88 29.5457 11.6052 29.3657 12.2801 29.0557L12.4815 28.9658L12.4916 29.1857C12.5924 30.5757 12.0686 31.9457 11.0713 32.9357C10.3259 33.6757 8.85529 33.8557 7.42494 34.0357C6.72991 34.1057 6.04495 34.2257 5.37006 34.3757C3.98 34.7357 2.6 35.1857 1.2603 35.7257L1.01855 35.8257L1.0387 35.5857Z" fill="white"/>
<path d="M12.9449 14.9457L6.31689 14.6758L6.46799 14.4558C6.94142 13.7658 7.48535 13.1258 8.07966 12.5558C10.5475 10.0958 13.8313 8.73582 17.3266 8.71582H17.6792L17.3367 9.07582C16.9841 9.43581 16.6316 9.80581 16.2992 10.1758L16.0776 10.4258C15.7149 10.8458 15.3624 11.2858 15.03 11.7258L14.9595 11.8258C14.6271 12.2758 14.3047 12.7358 13.9925 13.2058L13.922 13.3058C13.5996 13.8058 13.2874 14.3258 12.9852 14.8557L12.9449 14.9457Z" fill="#A3EFE0"/>
<path d="M28.6382 19.6658C28.3965 19.9358 28.1245 20.2158 27.7719 20.5758C25.9588 22.3758 23.8939 23.9058 21.6375 25.1057C21.2447 25.3257 20.8821 25.5057 20.5295 25.6657L20.4388 25.7057L20.3583 25.6357L11.4639 16.8158L11.5042 16.7158C11.6754 16.3458 11.8668 15.9858 12.0582 15.6359C12.6424 14.5459 13.3173 13.4959 14.0526 12.5059L14.1634 12.3559C14.5059 11.8959 14.8786 11.4459 15.2614 11.0059L15.4125 10.8259C15.8355 10.3459 16.2384 9.91592 16.6414 9.53593C17.0141 9.16593 17.427 8.78593 17.9408 8.32594C22.6952 4.18599 28.7893 1.91602 35.1151 1.91602C35.1755 1.91602 35.236 1.91602 35.2964 1.91602H35.4475V2.06601C35.4979 8.58594 33.0804 14.8459 28.6382 19.6658Z" fill="white"/>
<path d="M16.0373 26.9656L10.2051 21.1757L12.7535 19.3757L17.8504 24.4357L16.0373 26.9656Z" fill="white"/>
<path d="M30.1491 21.4357C30.129 24.9056 28.749 28.1656 26.2711 30.6056C25.6868 31.1855 25.0422 31.7155 24.3572 32.1755L24.1356 32.3255L23.8838 25.7556L23.9644 25.7156C24.1457 25.6156 24.327 25.5056 24.5083 25.3956C24.599 25.3356 24.6896 25.2856 24.7803 25.2256C24.8911 25.1656 24.9817 25.1056 25.0623 25.0556C25.1933 24.9756 25.3041 24.9156 25.435 24.8256C25.8077 24.5856 26.1804 24.3256 26.4927 24.1056L26.6337 24.0056C26.7646 23.9156 26.8855 23.8356 27.0165 23.7456C27.5201 23.3756 28.0137 22.9856 28.4871 22.5756L28.5274 22.5356H28.5576C29.0109 22.1457 29.4541 21.7357 29.8873 21.3157L30.1491 21.0557V21.4357Z" fill="#A3EFE0"/>
<path d="M30.1895 19.6658C29.9477 19.9358 29.6758 20.2158 29.3232 20.5758C27.5101 22.3758 25.4451 23.9058 23.1888 25.1057C22.796 25.3257 22.4333 25.5057 22.0808 25.6657L21.9901 25.7057L21.9095 25.6357L13.0151 16.8158L13.0554 16.7158C13.2267 16.3458 13.4181 15.9858 13.6094 15.6359C14.1937 14.5459 14.8686 13.4959 15.6039 12.5059L15.7147 12.3559C16.0572 11.8959 16.4299 11.4459 16.8126 11.0059L16.9637 10.8259C17.3868 10.3459 17.7897 9.91592 18.1926 9.53593C18.5653 9.16593 18.9783 8.78593 19.492 8.32594C24.2465 4.18599 30.3406 1.91602 36.6664 1.91602C36.7268 1.91602 36.7873 1.91602 36.8477 1.91602H36.9988V2.06601C37.0491 8.58594 34.6316 14.8459 30.1895 19.6658Z" fill="#CCB8F4"/>
<path d="M0.0213034 35.7256C0.142179 33.6956 0.686117 28.6956 3.15398 26.2557C4.06055 25.3557 5.30959 24.8357 6.59893 24.8357H7.21337L7.03206 25.0757C5.69236 26.8457 5.68229 29.9956 5.68229 30.1256C5.68229 30.2456 5.72258 30.3656 5.81324 30.4556C5.89382 30.5456 6.0147 30.5956 6.13557 30.5956C6.2363 30.5856 6.32696 30.5656 6.40754 30.5156C6.95148 30.1856 7.54578 29.9656 8.1703 29.8456C8.41205 29.7956 8.71424 29.7656 9.00636 29.7256L9.10709 29.7156C9.86255 29.6856 10.5878 29.5056 11.2627 29.1956L11.4642 29.1056L11.4742 29.3256C11.575 30.7156 11.0512 32.0856 10.0539 33.0756C9.30854 33.8156 7.8379 33.9956 6.40754 34.1756C5.71251 34.2456 5.02755 34.3656 4.35266 34.5156C2.9626 34.8756 1.58261 35.3256 0.242908 35.8656L0.0112305 35.9656L0.0213034 35.7256Z" fill="#A3EFE0"/>
<path d="M28.4973 12.8658C27.9533 13.4058 27.2281 13.7058 26.4525 13.7058C25.6768 13.7058 24.9516 13.4058 24.4076 12.8658C23.8637 12.3258 23.5615 11.5958 23.5615 10.8358C23.5615 10.0758 23.8738 9.3358 24.4076 8.80581C24.9516 8.26582 25.6768 7.96582 26.4525 7.96582C27.2281 7.96582 27.9533 8.26582 28.4973 8.80581C29.0412 9.3458 29.3434 10.0658 29.3434 10.8358C29.3434 11.6058 29.0412 12.3258 28.4973 12.8658Z" fill="white"/>
<path d="M26.4425 7.0459C25.4151 7.0459 24.4582 7.44589 23.743 8.15589C23.0278 8.87588 22.6249 9.82587 22.635 10.8359C22.635 11.8458 23.0278 12.7958 23.753 13.5058C24.4582 14.2058 25.4352 14.6158 26.4324 14.6158H26.4425C28.5478 14.6158 30.2501 12.9158 30.2501 10.8259C30.2501 8.74588 28.5478 7.0459 26.4425 7.0459ZM28.4974 12.8658C27.9535 13.4058 27.2282 13.7058 26.4526 13.7058C25.677 13.7058 24.9517 13.4058 24.4078 12.8658C23.8638 12.3258 23.5617 11.5958 23.5617 10.8359C23.5617 10.0759 23.8739 9.33587 24.4078 8.80588C24.9517 8.26588 25.677 7.96589 26.4526 7.96589C27.2282 7.96589 27.9535 8.26588 28.4974 8.80588C29.0413 9.34587 29.3435 10.0659 29.3435 10.8359C29.3435 11.6058 29.0413 12.3258 28.4974 12.8658Z" fill="#464860"/>
<path d="M36.3546 1.45603C36.3546 1.19603 36.1532 0.996033 35.8913 0.996033C29.082 0.806036 22.4741 3.15601 17.337 7.61596L17.0952 7.84595L17.0247 7.83595C12.8847 7.48596 8.81526 8.96594 5.87396 11.8859C4.98755 12.7659 4.222 13.7559 3.59748 14.8359C3.47661 15.0559 3.55719 15.3359 3.76872 15.4559C3.82916 15.4959 3.89967 15.5159 3.98025 15.5159L4.12127 15.5259V15.5559L10.9205 15.8359L10.8198 16.0459C10.709 16.2759 10.5881 16.4959 10.4874 16.7358C10.4068 16.9058 10.4471 17.1158 10.578 17.2458L12.0688 18.7258L9.2081 20.7558C9.01672 20.8958 8.97643 21.1858 9.13759 21.3858C9.14767 21.3958 9.16781 21.4158 9.17788 21.4358L15.7757 27.9857C15.8562 28.0657 15.9771 28.1157 16.098 28.1157H16.1484C16.2692 28.1057 16.3901 28.0357 16.4707 27.9257L18.5155 25.0858L20.0063 26.5657C20.1372 26.7057 20.3488 26.7357 20.52 26.6657L21.4165 26.2457L21.6985 33.1257C21.6985 33.2557 21.7388 33.3757 21.8194 33.4557C21.9 33.5457 22.0209 33.5956 22.1417 33.5956C22.2425 33.5956 22.3231 33.5756 22.4036 33.5257C23.5217 32.9057 24.529 32.1457 25.4255 31.2657C28.3769 28.3457 29.8576 24.3158 29.5051 20.1958L29.495 20.1358L29.5353 20.0858C34.1587 14.9459 36.5763 8.33595 36.3546 1.45603ZM11.3939 14.9459L4.76594 14.6759L4.91703 14.4559C5.39046 13.7659 5.9344 13.1259 6.5287 12.5559C8.99657 10.0959 12.2803 8.73594 15.7757 8.71594H16.1282L15.7857 9.07594C15.4332 9.43593 15.0806 9.80593 14.7482 10.1759L14.5266 10.4259C14.164 10.8459 13.8114 11.2859 13.479 11.7259L13.4085 11.8259C13.0761 12.2759 12.7538 12.7359 12.4415 13.2059L12.371 13.3059C12.0487 13.8059 11.7364 14.3259 11.4342 14.8559L11.3939 14.9459ZM16.0375 26.9657L10.2053 21.1758L12.7538 19.3758L17.8507 24.4358L16.0375 26.9657ZM28.5985 21.4358C28.5783 24.9058 27.1984 28.1657 24.7204 30.6057C24.1362 31.1857 23.4915 31.7157 22.8066 32.1757L22.585 32.3257L22.3331 25.7557L22.4137 25.7157C22.595 25.6157 22.7763 25.5057 22.9577 25.3957C23.0483 25.3357 23.139 25.2857 23.2296 25.2257C23.3404 25.1657 23.4311 25.1057 23.5117 25.0557C23.6426 24.9758 23.7534 24.9158 23.8844 24.8258C24.2571 24.5858 24.6298 24.3258 24.942 24.1058L25.083 24.0058C25.214 23.9158 25.3349 23.8358 25.4658 23.7458C25.9695 23.3758 26.463 22.9858 26.9365 22.5758L26.9767 22.5358H27.007C27.4602 22.1458 27.9035 21.7358 28.3366 21.3158L28.5985 21.0558V21.4358ZM28.6388 19.6658C28.397 19.9358 28.1251 20.2158 27.7725 20.5758C25.9594 22.3758 23.8944 23.9058 21.6381 25.1058C21.2453 25.3257 20.8826 25.5057 20.5301 25.6657L20.4394 25.7057L20.3588 25.6357L11.4644 16.8158L11.5047 16.7158C11.676 16.3459 11.8674 15.9859 12.0587 15.6359C12.643 14.5459 13.3179 13.4959 14.0532 12.5059L14.164 12.3559C14.5065 11.8959 14.8792 11.4459 15.2619 11.0059L15.413 10.8259C15.8361 10.3459 16.239 9.91593 16.6419 9.53593C17.0146 9.16594 17.4276 8.78594 17.9413 8.32595C22.6958 4.186 28.7899 1.91602 35.1157 1.91602C35.1761 1.91602 35.2365 1.91602 35.297 1.91602H35.4481V2.06602C35.4984 8.58594 33.0809 14.8459 28.6388 19.6658Z" fill="#464860"/>
<path d="M0.75661 36.9657C2.31791 36.2657 3.94973 35.7057 5.60169 35.2858C6.24636 35.1358 6.9011 35.0358 7.54576 34.9658C9.11714 34.7658 10.749 34.5658 11.726 33.6058C13.2571 32.0858 13.8111 29.8758 13.1564 27.8158C13.1161 27.6958 13.0355 27.6058 12.9348 27.5458C12.824 27.4858 12.7031 27.4758 12.5822 27.5158C12.4714 27.5458 12.3808 27.6158 12.3304 27.7158C12.2498 27.8558 12.1491 27.9858 12.0282 28.1158C11.6555 28.4858 10.8094 28.5858 10.0741 28.6658H10.0338C9.6913 28.6958 9.33875 28.7458 8.99627 28.8158C8.62357 28.8958 8.25087 29.0058 7.89832 29.1458L7.66664 29.2358L7.69686 28.9958C7.80766 27.9758 8.13 26.1359 9.07685 25.1859C9.19773 25.0659 9.33875 24.9659 9.47977 24.8859C9.5805 24.8259 9.65101 24.7259 9.68123 24.6059C9.71145 24.4859 9.6913 24.3659 9.63086 24.2659C9.57042 24.1659 9.47977 24.0959 9.37904 24.0659C8.79481 23.8759 8.20051 23.7859 7.6062 23.7859C6.09526 23.7859 4.63469 24.3759 3.52667 25.4759C0.132089 28.8458 0.0917969 36.2457 0.0917969 36.5557C0.0917969 36.7157 0.17238 36.8557 0.303328 36.9457C0.434276 37.0357 0.615589 37.0357 0.75661 36.9657ZM1.03865 35.5857C1.15953 33.5558 1.70347 28.5558 4.17133 26.1159C5.0779 25.2159 6.32694 24.6959 7.61628 24.6959H8.23072L8.04941 24.9359C6.70971 26.7059 6.69964 29.8558 6.69964 29.9858C6.69964 30.1058 6.73993 30.2258 6.83059 30.3158C6.91117 30.4058 7.03205 30.4558 7.15292 30.4558C7.25365 30.4458 7.34431 30.4258 7.42489 30.3758C7.96883 30.0458 8.56313 29.8258 9.18765 29.7058C9.4294 29.6558 9.73159 29.6258 10.0237 29.5858L10.1244 29.5758C10.8799 29.5458 11.6052 29.3658 12.28 29.0558L12.4815 28.9658L12.4916 29.1858C12.5923 30.5758 12.0685 31.9458 11.0713 32.9358C10.3259 33.6758 8.85525 33.8558 7.42489 34.0358C6.72986 34.1058 6.0449 34.2258 5.37001 34.3758C3.97995 34.7358 2.59996 35.1858 1.26026 35.7258L1.01851 35.8257L1.03865 35.5857Z" fill="#464860"/>
</svg>
