<svg width="78" height="78" viewBox="0 0 78 78" fill="none" xmlns="http://www.w3.org/2000/svg">
<rect width="78" height="78" fill="white"/>
<path d="M48.4973 32.8658C47.9533 33.4058 47.2281 33.7058 46.4525 33.7058C45.6768 33.7058 44.9516 33.4058 44.4076 32.8658C43.8637 32.3258 43.5615 31.5958 43.5615 30.8358C43.5615 30.0758 43.8738 29.3358 44.4076 28.8058C44.9516 28.2658 45.6768 27.9658 46.4525 27.9658C47.2281 27.9658 47.9533 28.2658 48.4973 28.8058C49.0412 29.3458 49.3434 30.0658 49.3434 30.8358C49.3434 31.6058 49.0412 32.3258 48.4973 32.8658Z" fill="white"/>
<path d="M31.3936 34.9457L24.7656 34.6758L24.9167 34.4558C25.3901 33.7658 25.9341 33.1258 26.5284 32.5558C28.9963 30.0958 32.28 28.7358 35.7753 28.7158H36.1279L35.7854 29.0758C35.4329 29.4358 35.0803 29.8058 34.7479 30.1758L34.5263 30.4258C34.1637 30.8458 33.8111 31.2858 33.4787 31.7258L33.4082 31.8258C33.0758 32.2758 32.7535 32.7358 32.4412 33.2058L32.3707 33.3058C32.0484 33.8058 31.7361 34.3258 31.4339 34.8557L31.3936 34.9457Z" fill="white"/>
<path d="M36.0373 46.9656L30.2051 41.1757L32.7535 39.3757L37.8504 44.4357L36.0373 46.9656Z" fill="white"/>
<path d="M48.5984 41.4357C48.5782 44.9056 47.1982 48.1656 44.7203 50.6056C44.1361 51.1855 43.4914 51.7155 42.8064 52.1755L42.5848 52.3255L42.333 45.7556L42.4136 45.7156C42.5949 45.6156 42.7762 45.5056 42.9575 45.3956C43.0482 45.3356 43.1388 45.2856 43.2295 45.2256C43.3403 45.1656 43.431 45.1056 43.5115 45.0556C43.6425 44.9756 43.7533 44.9156 43.8842 44.8256C44.2569 44.5856 44.6296 44.3256 44.9419 44.1056L45.0829 44.0056C45.2139 43.9156 45.3347 43.8356 45.4657 43.7456C45.9693 43.3756 46.4629 42.9856 46.9363 42.5756L46.9766 42.5356H47.0068C47.4601 42.1457 47.9033 41.7357 48.3365 41.3157L48.5984 41.0557V41.4357Z" fill="white"/>
<path d="M21.0387 55.5857C21.1596 53.5557 21.7035 48.5558 24.1714 46.1158C25.0779 45.2158 26.327 44.6958 27.6163 44.6958H28.2308L28.0495 44.9358C26.7098 46.7058 26.6997 49.8557 26.6997 49.9857C26.6997 50.1057 26.74 50.2257 26.8306 50.3157C26.9112 50.4057 27.0321 50.4557 27.153 50.4557C27.2537 50.4457 27.3444 50.4257 27.4249 50.3757C27.9689 50.0457 28.5632 49.8257 29.1877 49.7057C29.4295 49.6557 29.7316 49.6257 30.0238 49.5857L30.1245 49.5757C30.88 49.5457 31.6052 49.3657 32.2801 49.0557L32.4815 48.9658L32.4916 49.1857C32.5924 50.5757 32.0686 51.9457 31.0713 52.9357C30.3259 53.6757 28.8553 53.8557 27.4249 54.0357C26.7299 54.1057 26.0449 54.2257 25.3701 54.3757C23.98 54.7357 22.6 55.1857 21.2603 55.7257L21.0186 55.8257L21.0387 55.5857Z" fill="white"/>
<path d="M32.9449 34.9457L26.3169 34.6758L26.468 34.4558C26.9414 33.7658 27.4854 33.1258 28.0797 32.5558C30.5475 30.0958 33.8313 28.7358 37.3266 28.7158H37.6792L37.3367 29.0758C36.9841 29.4358 36.6316 29.8058 36.2992 30.1758L36.0776 30.4258C35.7149 30.8458 35.3624 31.2858 35.03 31.7258L34.9595 31.8258C34.6271 32.2758 34.3047 32.7358 33.9925 33.2058L33.922 33.3058C33.5996 33.8058 33.2874 34.3258 32.9852 34.8557L32.9449 34.9457Z" fill="#A3EFE0"/>
<path d="M48.6382 39.6658C48.3965 39.9358 48.1245 40.2158 47.7719 40.5758C45.9588 42.3758 43.8939 43.9058 41.6375 45.1057C41.2447 45.3257 40.8821 45.5057 40.5295 45.6657L40.4388 45.7057L40.3583 45.6357L31.4639 36.8158L31.5042 36.7158C31.6754 36.3458 31.8668 35.9858 32.0582 35.6359C32.6424 34.5459 33.3173 33.4959 34.0526 32.5059L34.1634 32.3559C34.5059 31.8959 34.8786 31.4459 35.2614 31.0059L35.4125 30.8259C35.8355 30.3459 36.2384 29.9159 36.6414 29.5359C37.0141 29.1659 37.427 28.7859 37.9408 28.3259C42.6952 24.186 48.7893 21.916 55.1151 21.916C55.1755 21.916 55.236 21.916 55.2964 21.916H55.4475V22.066C55.4979 28.5859 53.0804 34.8459 48.6382 39.6658Z" fill="white"/>
<path d="M36.0373 46.9656L30.2051 41.1757L32.7535 39.3757L37.8504 44.4357L36.0373 46.9656Z" fill="white"/>
<path d="M50.1491 41.4357C50.129 44.9056 48.749 48.1656 46.2711 50.6056C45.6868 51.1855 45.0422 51.7155 44.3572 52.1755L44.1356 52.3255L43.8838 45.7556L43.9644 45.7156C44.1457 45.6156 44.327 45.5056 44.5083 45.3956C44.599 45.3356 44.6896 45.2856 44.7803 45.2256C44.8911 45.1656 44.9817 45.1056 45.0623 45.0556C45.1933 44.9756 45.3041 44.9156 45.435 44.8256C45.8077 44.5856 46.1804 44.3256 46.4927 44.1056L46.6337 44.0056C46.7646 43.9156 46.8855 43.8356 47.0165 43.7456C47.5201 43.3756 48.0137 42.9856 48.4871 42.5756L48.5274 42.5356H48.5576C49.0109 42.1457 49.4541 41.7357 49.8873 41.3157L50.1491 41.0557V41.4357Z" fill="#A3EFE0"/>
<path d="M50.1895 39.6658C49.9477 39.9358 49.6758 40.2158 49.3232 40.5758C47.5101 42.3758 45.4451 43.9058 43.1888 45.1057C42.796 45.3257 42.4333 45.5057 42.0808 45.6657L41.9901 45.7057L41.9095 45.6357L33.0151 36.8158L33.0554 36.7158C33.2267 36.3458 33.4181 35.9858 33.6094 35.6359C34.1937 34.5459 34.8686 33.4959 35.6039 32.5059L35.7147 32.3559C36.0572 31.8959 36.4299 31.4459 36.8126 31.0059L36.9637 30.8259C37.3868 30.3459 37.7897 29.9159 38.1926 29.5359C38.5653 29.1659 38.9783 28.7859 39.492 28.3259C44.2465 24.186 50.3406 21.916 56.6664 21.916C56.7268 21.916 56.7873 21.916 56.8477 21.916H56.9988V22.066C57.0491 28.5859 54.6316 34.8459 50.1895 39.6658Z" fill="#CCB8F4"/>
<path d="M20.0213 55.7256C20.1422 53.6956 20.6861 48.6956 23.154 46.2557C24.0605 45.3557 25.3096 44.8357 26.5989 44.8357H27.2134L27.0321 45.0757C25.6924 46.8457 25.6823 49.9956 25.6823 50.1256C25.6823 50.2456 25.7226 50.3656 25.8132 50.4556C25.8938 50.5456 26.0147 50.5956 26.1356 50.5956C26.2363 50.5856 26.327 50.5656 26.4075 50.5156C26.9515 50.1856 27.5458 49.9656 28.1703 49.8456C28.4121 49.7956 28.7142 49.7656 29.0064 49.7256L29.1071 49.7156C29.8626 49.6856 30.5878 49.5056 31.2627 49.1956L31.4642 49.1056L31.4742 49.3256C31.575 50.7156 31.0512 52.0856 30.0539 53.0756C29.3085 53.8156 27.8379 53.9956 26.4075 54.1756C25.7125 54.2456 25.0275 54.3656 24.3527 54.5156C22.9626 54.8756 21.5826 55.3256 20.2429 55.8656L20.0112 55.9656L20.0213 55.7256Z" fill="#A3EFE0"/>
<path d="M48.4973 32.8658C47.9533 33.4058 47.2281 33.7058 46.4525 33.7058C45.6768 33.7058 44.9516 33.4058 44.4076 32.8658C43.8637 32.3258 43.5615 31.5958 43.5615 30.8358C43.5615 30.0758 43.8738 29.3358 44.4076 28.8058C44.9516 28.2658 45.6768 27.9658 46.4525 27.9658C47.2281 27.9658 47.9533 28.2658 48.4973 28.8058C49.0412 29.3458 49.3434 30.0658 49.3434 30.8358C49.3434 31.6058 49.0412 32.3258 48.4973 32.8658Z" fill="white"/>
<path d="M46.4425 27.0459C45.4151 27.0459 44.4582 27.4459 43.743 28.1559C43.0278 28.8759 42.6249 29.8259 42.635 30.8359C42.635 31.8458 43.0278 32.7958 43.753 33.5058C44.4582 34.2058 45.4352 34.6158 46.4324 34.6158H46.4425C48.5478 34.6158 50.2501 32.9158 50.2501 30.8259C50.2501 28.7459 48.5478 27.0459 46.4425 27.0459ZM48.4974 32.8658C47.9535 33.4058 47.2282 33.7058 46.4526 33.7058C45.677 33.7058 44.9517 33.4058 44.4078 32.8658C43.8638 32.3258 43.5617 31.5958 43.5617 30.8359C43.5617 30.0759 43.8739 29.3359 44.4078 28.8059C44.9517 28.2659 45.677 27.9659 46.4526 27.9659C47.2282 27.9659 47.9535 28.2659 48.4974 28.8059C49.0413 29.3459 49.3435 30.0659 49.3435 30.8359C49.3435 31.6058 49.0413 32.3258 48.4974 32.8658Z" fill="#464860"/>
<path d="M56.3546 21.456C56.3546 21.196 56.1532 20.996 55.8913 20.996C49.082 20.806 42.4741 23.156 37.337 27.616L37.0952 27.846L37.0247 27.836C32.8847 27.486 28.8153 28.9659 25.874 31.8859C24.9875 32.7659 24.222 33.7559 23.5975 34.8359C23.4766 35.0559 23.5572 35.3359 23.7687 35.4559C23.8292 35.4959 23.8997 35.5159 23.9803 35.5159L24.1213 35.5259V35.5559L30.9205 35.8359L30.8198 36.0459C30.709 36.2759 30.5881 36.4959 30.4874 36.7358C30.4068 36.9058 30.4471 37.1158 30.578 37.2458L32.0688 38.7258L29.2081 40.7558C29.0167 40.8958 28.9764 41.1858 29.1376 41.3858C29.1477 41.3958 29.1678 41.4158 29.1779 41.4358L35.7757 47.9857C35.8562 48.0657 35.9771 48.1157 36.098 48.1157H36.1484C36.2692 48.1057 36.3901 48.0357 36.4707 47.9257L38.5155 45.0858L40.0063 46.5657C40.1372 46.7057 40.3488 46.7357 40.52 46.6657L41.4165 46.2457L41.6985 53.1257C41.6985 53.2557 41.7388 53.3757 41.8194 53.4557C41.9 53.5457 42.0209 53.5956 42.1417 53.5956C42.2425 53.5956 42.3231 53.5756 42.4036 53.5257C43.5217 52.9057 44.529 52.1457 45.4255 51.2657C48.3769 48.3457 49.8576 44.3158 49.5051 40.1958L49.495 40.1358L49.5353 40.0858C54.1587 34.9459 56.5763 28.3359 56.3546 21.456ZM31.3939 34.9459L24.7659 34.6759L24.917 34.4559C25.3905 33.7659 25.9344 33.1259 26.5287 32.5559C28.9966 30.0959 32.2803 28.7359 35.7757 28.7159H36.1282L35.7857 29.0759C35.4332 29.4359 35.0806 29.8059 34.7482 30.1759L34.5266 30.4259C34.164 30.8459 33.8114 31.2859 33.479 31.7259L33.4085 31.8259C33.0761 32.2759 32.7538 32.7359 32.4415 33.2059L32.371 33.3059C32.0487 33.8059 31.7364 34.3259 31.4342 34.8559L31.3939 34.9459ZM36.0375 46.9657L30.2053 41.1758L32.7538 39.3758L37.8507 44.4358L36.0375 46.9657ZM48.5985 41.4358C48.5783 44.9058 47.1984 48.1657 44.7204 50.6057C44.1362 51.1857 43.4915 51.7157 42.8066 52.1757L42.585 52.3257L42.3331 45.7557L42.4137 45.7157C42.595 45.6157 42.7763 45.5057 42.9577 45.3957C43.0483 45.3357 43.139 45.2857 43.2296 45.2257C43.3404 45.1657 43.4311 45.1057 43.5117 45.0557C43.6426 44.9758 43.7534 44.9158 43.8844 44.8258C44.2571 44.5858 44.6298 44.3258 44.942 44.1058L45.083 44.0058C45.214 43.9158 45.3349 43.8358 45.4658 43.7458C45.9695 43.3758 46.463 42.9858 46.9365 42.5758L46.9767 42.5358H47.007C47.4602 42.1458 47.9035 41.7358 48.3366 41.3158L48.5985 41.0558V41.4358ZM48.6388 39.6658C48.397 39.9358 48.1251 40.2158 47.7725 40.5758C45.9594 42.3758 43.8944 43.9058 41.6381 45.1058C41.2453 45.3257 40.8826 45.5057 40.5301 45.6657L40.4394 45.7057L40.3588 45.6357L31.4644 36.8158L31.5047 36.7158C31.676 36.3459 31.8674 35.9859 32.0587 35.6359C32.643 34.5459 33.3179 33.4959 34.0532 32.5059L34.164 32.3559C34.5065 31.8959 34.8792 31.4459 35.2619 31.0059L35.413 30.8259C35.8361 30.3459 36.239 29.9159 36.6419 29.5359C37.0146 29.1659 37.4276 28.7859 37.9413 28.3259C42.6958 24.186 48.7899 21.916 55.1157 21.916C55.1761 21.916 55.2365 21.916 55.297 21.916H55.4481V22.066C55.4984 28.5859 53.0809 34.8459 48.6388 39.6658Z" fill="#464860"/>
<path d="M20.7566 56.9657C22.3179 56.2657 23.9497 55.7057 25.6017 55.2858C26.2464 55.1358 26.9011 55.0358 27.5458 54.9658C29.1171 54.7658 30.749 54.5658 31.726 53.6058C33.2571 52.0858 33.8111 49.8758 33.1564 47.8158C33.1161 47.6958 33.0355 47.6058 32.9348 47.5458C32.824 47.4858 32.7031 47.4758 32.5822 47.5158C32.4714 47.5458 32.3808 47.6158 32.3304 47.7158C32.2498 47.8558 32.1491 47.9858 32.0282 48.1158C31.6555 48.4858 30.8094 48.5858 30.0741 48.6658H30.0338C29.6913 48.6958 29.3387 48.7458 28.9963 48.8158C28.6236 48.8958 28.2509 49.0058 27.8983 49.1458L27.6666 49.2358L27.6969 48.9958C27.8077 47.9758 28.13 46.1359 29.0768 45.1859C29.1977 45.0659 29.3387 44.9659 29.4798 44.8859C29.5805 44.8259 29.651 44.7259 29.6812 44.6059C29.7114 44.4859 29.6913 44.3659 29.6309 44.2659C29.5704 44.1659 29.4798 44.0959 29.379 44.0659C28.7948 43.8759 28.2005 43.7859 27.6062 43.7859C26.0953 43.7859 24.6347 44.3759 23.5267 45.4759C20.1321 48.8458 20.0918 56.2457 20.0918 56.5557C20.0918 56.7157 20.1724 56.8557 20.3033 56.9457C20.4343 57.0357 20.6156 57.0357 20.7566 56.9657ZM21.0387 55.5857C21.1595 53.5558 21.7035 48.5558 24.1713 46.1159C25.0779 45.2159 26.3269 44.6959 27.6163 44.6959H28.2307L28.0494 44.9359C26.7097 46.7059 26.6996 49.8558 26.6996 49.9858C26.6996 50.1058 26.7399 50.2258 26.8306 50.3158C26.9112 50.4058 27.032 50.4558 27.1529 50.4558C27.2537 50.4458 27.3443 50.4258 27.4249 50.3758C27.9688 50.0458 28.5631 49.8258 29.1877 49.7058C29.4294 49.6558 29.7316 49.6258 30.0237 49.5858L30.1244 49.5758C30.8799 49.5458 31.6052 49.3658 32.28 49.0558L32.4815 48.9658L32.4916 49.1858C32.5923 50.5758 32.0685 51.9458 31.0713 52.9358C30.3259 53.6758 28.8552 53.8558 27.4249 54.0358C26.7299 54.1058 26.0449 54.2258 25.37 54.3758C23.9799 54.7358 22.6 55.1858 21.2603 55.7258L21.0185 55.8257L21.0387 55.5857Z" fill="#464860"/>
</svg>
