<svg width="42" height="46" viewBox="0 0 42 46" fill="none" xmlns="http://www.w3.org/2000/svg">
<path fill-rule="evenodd" clip-rule="evenodd" d="M36.6858 4.47764C36.6858 4.04191 37.013 3.71552 37.4487 3.71552C37.8844 3.71552 38.2116 4.04271 38.2116 4.47843V8.29143C38.2116 8.72715 37.8844 9.05434 37.4487 9.05434C37.013 9.05434 36.6858 8.72715 36.6858 8.29143V4.47764Z" fill="white"/>
<path fill-rule="evenodd" clip-rule="evenodd" d="M4.64746 2.16911C4.64746 1.73338 4.97465 1.40698 5.41038 1.40698C5.8461 1.40698 6.17329 1.73417 6.17329 2.16911V5.98131C6.17329 6.41704 5.8461 6.74423 5.41038 6.74423C4.97465 6.74423 4.64746 6.41704 4.64746 5.98131V2.16911V2.16911Z" fill="white"/>
<path fill-rule="evenodd" clip-rule="evenodd" d="M10.0891 38.5823C11.7108 28.5479 13.971 16.4514 14.936 6.4915C15.0746 5.82286 15.5507 5.07183 16.2051 4.56401C16.8611 4.05619 17.6557 3.79158 18.4725 3.93577C20.1266 4.2281 21.2263 5.82207 20.9252 7.5309C18.5382 16.9703 16.297 28.2215 14.3164 38.7598C13.6486 38.6988 12.98 38.6528 12.3105 38.6227C11.5714 38.5902 10.8298 38.5768 10.0891 38.5823Z" fill="white"/>
<path fill-rule="evenodd" clip-rule="evenodd" d="M28.2303 40.1565C27.8421 37.4296 25.6183 21.9194 24.1915 14.7006C23.98 12.9783 25.1612 11.4469 26.8288 11.2425C27.6527 11.1419 28.4291 11.4453 29.0574 11.9872C29.6848 12.5283 30.1213 13.3063 30.2251 13.9805C30.4501 19.0721 30.931 24.2422 31.4943 29.4162C31.8603 32.7325 32.4988 38.2337 32.7072 40.0266C31.213 39.9909 29.7181 40.0353 28.2303 40.1565Z" fill="white"/>
<path fill-rule="evenodd" clip-rule="evenodd" d="M37.3196 4.95298C37.3196 4.51726 37.6468 4.19086 38.0825 4.19086C38.5182 4.19086 38.8454 4.51805 38.8454 4.95377V8.76677C38.8454 9.2025 38.5182 9.52969 38.0825 9.52969C37.6468 9.52969 37.3196 9.2025 37.3196 8.76677V4.95298Z" fill="#CCB8F4"/>
<path fill-rule="evenodd" clip-rule="evenodd" d="M5.28125 2.64445C5.28125 2.20872 5.60844 1.88232 6.04417 1.88232C6.47989 1.88232 6.80708 2.20951 6.80708 2.64445V6.45665C6.80708 6.89238 6.47989 7.21957 6.04417 7.21957C5.60844 7.21957 5.28125 6.89238 5.28125 6.45665V2.64445Z" fill="#A3EFE0"/>
<path fill-rule="evenodd" clip-rule="evenodd" d="M11.3806 40.1739C13.0023 30.1395 15.2625 18.043 16.2275 8.08311C16.3661 7.41447 16.8422 6.66344 17.4966 6.15562C18.1526 5.6478 18.9472 5.3832 19.764 5.52738C21.4182 5.81972 22.5178 7.41368 22.2167 9.12252C19.8297 18.5619 17.5885 29.8131 15.6079 40.3506C14.9401 40.2896 14.2715 40.2436 13.602 40.2135C12.8629 40.181 12.1213 40.1676 11.3806 40.1739Z" fill="#CCB8F4"/>
<path fill-rule="evenodd" clip-rule="evenodd" d="M29.5218 41.748C29.1336 39.0212 26.9098 23.5109 25.483 16.2921C25.2715 14.5698 26.4527 13.0385 28.1203 12.8341C28.9443 12.7335 29.7206 13.0369 30.3489 13.5788C30.9763 14.1199 31.4128 14.8978 31.5166 15.572C31.7416 20.6637 32.2225 25.8337 32.7858 31.0078C33.1518 34.3241 33.7903 39.8253 33.9987 41.6181C32.5045 41.5825 31.0096 41.626 29.5218 41.748Z" fill="#A3EFE0"/>
<path fill-rule="evenodd" clip-rule="evenodd" d="M40.8483 40.9923L40.8214 41.1079C39.9539 40.9194 39.0714 40.7562 38.1936 40.6223L38.093 40.6073V38.6742H38.5929C38.7671 38.6758 38.9296 38.6116 39.0523 38.492C39.1759 38.3724 39.2449 38.2116 39.2472 38.0396C39.2496 37.8677 39.1847 37.7053 39.065 37.5817C38.9454 37.4582 38.7846 37.3892 38.6127 37.3869C38.6063 37.3869 38.6008 37.3869 38.596 37.3869H38.093V10.3616L38.1714 10.333C39.0365 10.0225 39.618 9.20173 39.618 8.28988V4.47768C39.618 3.28141 38.6444 2.30855 37.4481 2.30855C36.2518 2.30855 35.2782 3.28141 35.2782 4.47768V8.29067C35.2782 9.20253 35.8597 10.0233 36.7248 10.3338L36.8032 10.3624V37.3876H36.3239C36.1488 37.3853 35.9872 37.4502 35.8644 37.5699C35.7416 37.6895 35.6719 37.8503 35.6695 38.0222C35.6672 38.1941 35.7321 38.3565 35.8517 38.4801C35.9714 38.6037 36.1322 38.6726 36.3041 38.675C36.3104 38.675 36.316 38.675 36.3207 38.675H36.8032V40.4353L36.6709 40.4203C35.8636 40.3268 35.0468 40.2555 34.2443 40.208L34.1445 40.2024L34.1326 40.1034C33.9369 38.4263 33.2691 32.6874 32.8912 29.2665C32.4277 25.0107 31.8645 19.412 31.6212 13.8442C31.6205 13.8173 31.6189 13.7935 31.6157 13.7697C31.4557 12.724 30.8575 11.6862 29.9758 10.9256C29.0029 10.0874 27.8241 9.7048 26.6563 9.84819L26.5328 9.86325C24.1632 10.2221 22.4924 12.4443 22.7911 14.8765C22.7926 14.8899 22.7958 14.9058 22.7982 14.92C24.1878 21.9344 26.3973 37.287 26.8259 40.2927L26.8433 40.4132L26.7221 40.4274C25.7738 40.5391 24.8168 40.6841 23.8788 40.8592L23.8487 40.8647L23.8194 40.8552C21.2232 39.9988 18.532 39.3904 15.8195 39.045L15.6943 39.0291L15.7173 38.9056C17.3096 30.4343 19.7251 17.9955 22.2999 7.82326C22.3038 7.80662 22.3078 7.79078 22.3102 7.77493C22.7419 5.32219 21.129 2.98036 18.7143 2.55415L18.616 2.53434C17.4855 2.36401 16.3273 2.68724 15.3425 3.45095C14.4204 4.16554 13.7684 5.17088 13.5537 6.2079C13.5489 6.23088 13.5458 6.25464 13.5434 6.27841C12.8193 13.7919 11.3584 22.4621 9.94508 30.8462C9.48558 33.5739 9.05065 36.151 8.64978 38.6441L8.63473 38.74L8.53808 38.7439C7.76407 38.778 6.97105 38.835 6.18199 38.9135L6.05127 38.9262V37.1508H6.55117C6.72467 37.1531 6.88787 37.0882 7.01066 36.9686C7.13346 36.8489 7.20317 36.6881 7.20555 36.5162C7.2103 36.1613 6.92589 35.8681 6.57018 35.8634C6.56385 35.8634 6.55909 35.8634 6.55355 35.8634H6.04969V8.053L6.12812 8.02448C6.99323 7.71393 7.57473 6.89318 7.57473 5.98133V2.16912C7.57948 0.972857 6.60663 0 5.41036 0C4.2141 0 3.24045 0.972857 3.24045 2.16912V5.98133C3.24045 6.89318 3.82194 7.71393 4.68706 8.02448L4.76549 8.053V35.8618H4.28619C4.11507 35.861 3.94949 35.9244 3.8267 36.044C3.70311 36.1637 3.63418 36.3245 3.63181 36.4964C3.62943 36.6683 3.69439 36.8307 3.81402 36.9543C3.93365 37.0779 4.09447 37.1468 4.26638 37.1492C4.27272 37.1492 4.27827 37.1492 4.28302 37.1492H4.76549V39.0767L4.6625 39.0909C3.25946 39.2811 1.85959 39.5417 0.502505 39.8649C0.33376 39.903 0.190367 40.0044 0.0992607 40.1501C0.00815444 40.2959 -0.0219502 40.4678 0.0160767 40.6358C0.0945074 40.982 0.440711 41.1998 0.786915 41.1206L0.796422 41.1182C3.9487 40.3672 7.18178 39.9917 10.4149 39.9917C13.9205 39.9917 17.4245 40.433 20.824 41.3131L21.2644 41.4272L20.8248 41.5429C18.2532 42.2202 15.7331 43.1432 13.3342 44.2848C13.1726 44.3553 13.0514 44.4813 12.988 44.6413C12.9246 44.8013 12.9286 44.9764 12.9967 45.1341C13.1386 45.4597 13.518 45.6094 13.8444 45.4676C13.8579 45.462 13.8714 45.4557 13.884 45.4486C18.0171 43.4807 22.4148 42.2179 26.959 41.6926C31.5024 41.1682 36.0728 41.3947 40.5425 42.3668C40.8911 42.4436 41.2357 42.2234 41.3118 41.8764C41.349 41.7085 41.3189 41.5358 41.2262 41.3908C41.1335 41.2458 40.9901 41.1452 40.8214 41.1079L40.8483 40.9923ZM5.41036 6.86308C4.90809 6.86308 4.52861 6.48439 4.52861 5.98133V2.16912C4.52861 1.66685 4.9073 1.28816 5.41036 1.28816C5.65278 1.28816 5.87619 1.37769 6.0386 1.54088C6.2018 1.70408 6.29132 1.92749 6.29132 2.16912V5.98133C6.29211 6.48439 5.91263 6.86308 5.41036 6.86308ZM14.414 38.8881L14.3063 38.8786C13.625 38.8168 12.9524 38.7709 12.3059 38.7424C11.5715 38.7099 10.826 38.6964 10.0901 38.7019L9.94904 38.7027L9.97122 38.5641C10.3562 36.1803 10.7706 33.7228 11.2087 31.1203C12.6212 22.7378 14.0813 14.0708 14.8173 6.48043L14.8189 6.46775C14.9686 5.74762 15.4717 4.98233 16.1316 4.47055C16.8557 3.90965 17.6947 3.67832 18.4924 3.81933C20.2068 4.12197 21.3508 5.79674 21.041 7.55232L21.0394 7.56103C18.4861 17.6572 16.1672 29.5501 14.4323 38.782L14.414 38.8881ZM32.7058 40.1438C31.2228 40.1097 29.7207 40.1541 28.24 40.2745L28.1283 40.2832L28.1125 40.1723C27.687 37.1809 25.4918 21.8956 24.0753 14.722L24.0737 14.7133C23.8574 12.9458 25.0861 11.3352 26.814 11.1221C27.6189 11.0239 28.4428 11.298 29.1352 11.8945C29.7674 12.4404 30.2309 13.231 30.3434 13.9591L30.345 13.9717C30.5399 18.3726 30.9304 23.1307 31.6141 29.3996C31.9714 32.6414 32.5814 37.8986 32.827 40.0083L32.8429 40.1438H32.7058ZM37.4489 9.17163C36.9466 9.17163 36.5671 8.79294 36.5671 8.28988V4.47768C36.5671 3.9754 36.9458 3.59672 37.4489 3.59672C37.6913 3.59672 37.9147 3.68624 38.0779 3.84944C38.2411 4.01264 38.3306 4.23605 38.3306 4.47847V8.29146C38.3306 8.79295 37.9512 9.17163 37.4489 9.17163Z" fill="#464860"/>
</svg>
