<svg width="78" height="78" viewBox="0 0 78 78" fill="none" xmlns="http://www.w3.org/2000/svg">
<rect width="78" height="78" fill="white"/>
<path d="M43.5737 37.6802H35.3228V49.4668H43.5737V37.6802Z" fill="white"/>
<path fill-rule="evenodd" clip-rule="evenodd" d="M44.752 37.6802V49.4668H53.0029V39.442C53.0029 38.4688 52.2096 37.6802 51.2291 37.6802H44.752Z" fill="white"/>
<path fill-rule="evenodd" clip-rule="evenodd" d="M34.1439 37.6802H27.6673C26.6868 37.6802 25.8936 38.4695 25.8936 39.442V49.4668H34.1445V37.6802H34.1439Z" fill="white"/>
<path fill-rule="evenodd" clip-rule="evenodd" d="M53.0024 50.645H25.8936V55.9551C25.8936 56.9283 26.6868 57.717 27.6673 57.717H51.2287C52.2092 57.717 53.0024 56.9277 53.0024 55.9551V50.645Z" fill="white"/>
<path fill-rule="evenodd" clip-rule="evenodd" d="M37.1211 26.5055C38.0546 26.2203 38.5806 25.2319 38.2948 24.2977C38.009 23.3641 37.0212 22.8382 36.087 23.124C35.1535 23.4098 34.6275 24.3976 34.9133 25.3318C35.1991 26.2653 36.1876 26.7906 37.1211 26.5055Z" fill="white"/>
<path fill-rule="evenodd" clip-rule="evenodd" d="M41.6299 25.1268C42.5634 24.841 43.0894 23.8532 42.8036 22.919C42.5178 21.9855 41.53 21.4595 40.5958 21.7453C39.6622 22.0305 39.1363 23.0189 39.4221 23.9531C39.7079 24.8867 40.6957 25.4126 41.6299 25.1268Z" fill="white"/>
<path fill-rule="evenodd" clip-rule="evenodd" d="M53.9702 51.4285H26.8613V56.7386C26.8613 57.7118 27.6546 58.5004 28.6351 58.5004H52.1964C53.1769 58.5004 53.9702 57.7111 53.9702 56.7386V51.4285Z" fill="#CCB8F4"/>
<path d="M43.5737 37.6802H35.3228V49.4668H43.5737V37.6802Z" fill="white"/>
<path fill-rule="evenodd" clip-rule="evenodd" d="M45.7202 38.425V50.2117H53.9705V40.1869C53.9705 39.2137 53.1772 38.425 52.1967 38.425H45.7202Z" fill="#A3EFE0"/>
<path fill-rule="evenodd" clip-rule="evenodd" d="M35.1116 38.425H28.6351C27.6546 38.425 26.8613 39.2144 26.8613 40.1869V50.2117H35.1123V38.425H35.1116Z" fill="#A3EFE0"/>
<path fill-rule="evenodd" clip-rule="evenodd" d="M37.7104 27.0626C38.644 26.7775 39.17 25.789 38.8841 24.8548C38.5983 23.9213 37.6105 23.3953 36.6763 23.6811C35.7428 23.9669 35.2168 24.9547 35.5026 25.8889C35.7885 26.8224 36.7769 27.3484 37.7104 27.0626Z" fill="#CCB8F4"/>
<path fill-rule="evenodd" clip-rule="evenodd" d="M42.2197 25.6844C43.1533 25.3986 43.6792 24.4108 43.3934 23.4766C43.1076 22.5431 42.1198 22.0171 41.1856 22.3029C40.2521 22.5881 39.7261 23.5765 40.0119 24.5107C40.2971 25.4443 41.2855 25.9696 42.2197 25.6844Z" fill="#CCB8F4"/>
<path fill-rule="evenodd" clip-rule="evenodd" d="M38.8585 36.5012V27.2843L20.7654 32.9384C20.4544 33.0357 20.1243 32.8623 20.027 32.5514C19.9298 32.2404 20.1031 31.9103 20.4141 31.813L34.9682 27.2651C34.4217 26.9005 33.9937 26.3527 33.7866 25.6759C33.3109 24.1198 34.1869 22.4724 35.743 21.9967C36.6646 21.7148 37.6186 21.9073 38.3418 22.4346C38.6468 21.5931 39.3296 20.9004 40.2519 20.6185C41.808 20.1428 43.4554 21.0188 43.9311 22.5749C44.1302 23.2266 44.0925 23.8935 43.8676 24.4843L58.1306 20.027C58.4416 19.9298 58.7717 20.1031 58.869 20.4141C58.9662 20.725 58.7929 21.0552 58.4819 21.1524L40.0368 26.9164V36.5018H51.228C52.8582 36.5018 54.1808 37.8171 54.1808 39.4427V55.9559C54.1808 57.5808 52.8589 58.8967 51.228 58.8967H27.6673C26.0371 58.8967 24.7146 57.5815 24.7146 55.9559V39.442C24.7146 37.8171 26.0365 36.5012 27.6673 36.5012H38.8585ZM43.5731 49.4668V37.6802H35.3228V49.4668H43.5731ZM44.7521 37.6802V49.4668H53.0031V39.442C53.0031 38.4688 52.2098 37.6802 51.2293 37.6802H44.7521ZM34.1439 37.6802H27.6673C26.6868 37.6802 25.8936 38.4695 25.8936 39.442V49.4668H34.1445V37.6802H34.1439ZM53.0024 50.6451H25.8936V55.9552C25.8936 56.9284 26.6868 57.7171 27.6673 57.7171H51.2287C52.2092 57.7171 53.0024 56.9278 53.0024 55.9552V50.6451ZM37.1211 26.5055C38.0546 26.2204 38.5806 25.2319 38.2948 24.2977C38.009 23.3642 37.0212 22.8382 36.087 23.124C35.1535 23.4099 34.6275 24.3977 34.9133 25.3318C35.1991 26.2654 36.1876 26.7907 37.1211 26.5055ZM41.63 25.1267C42.5635 24.8409 43.0895 23.8531 42.8037 22.9189C42.5179 21.9854 41.5301 21.4594 40.5959 21.7453C39.6624 22.0304 39.1364 23.0189 39.4222 23.953C39.708 24.8866 40.6958 25.4126 41.63 25.1267Z" fill="#464860"/>
</svg>
