<svg width="39" height="39" viewBox="0 0 39 39" fill="none" xmlns="http://www.w3.org/2000/svg">
<path d="M23.5737 17.6802H15.3228V29.4668H23.5737V17.6802Z" fill="white"/>
<path fill-rule="evenodd" clip-rule="evenodd" d="M24.752 17.6802V29.4668H33.0029V19.442C33.0029 18.4688 32.2096 17.6802 31.2291 17.6802H24.752Z" fill="white"/>
<path fill-rule="evenodd" clip-rule="evenodd" d="M14.1439 17.6802H7.66734C6.68683 17.6802 5.89355 18.4695 5.89355 19.442V29.4668H14.1445V17.6802H14.1439Z" fill="white"/>
<path fill-rule="evenodd" clip-rule="evenodd" d="M33.0024 30.645H5.89355V35.9551C5.89355 36.9283 6.68683 37.717 7.66734 37.717H31.2287C32.2092 37.717 33.0024 36.9277 33.0024 35.9551V30.645Z" fill="white"/>
<path fill-rule="evenodd" clip-rule="evenodd" d="M17.1211 6.50548C18.0546 6.22032 18.5806 5.23187 18.2948 4.29768C18.009 3.36414 17.0212 2.83816 16.087 3.12398C15.1535 3.4098 14.6275 4.39758 14.9133 5.33178C15.1991 6.26531 16.1876 6.79063 17.1211 6.50548Z" fill="white"/>
<path fill-rule="evenodd" clip-rule="evenodd" d="M21.6299 5.12682C22.5634 4.841 23.0894 3.85321 22.8036 2.91902C22.5178 1.98548 21.53 1.4595 20.5958 1.74532C19.6622 2.03047 19.1363 3.01892 19.4221 3.95312C19.7079 4.88665 20.6957 5.41263 21.6299 5.12682Z" fill="white"/>
<path fill-rule="evenodd" clip-rule="evenodd" d="M33.9702 31.4285H6.86133V36.7386C6.86133 37.7118 7.6546 38.5004 8.63511 38.5004H32.1964C33.1769 38.5004 33.9702 37.7111 33.9702 36.7386V31.4285Z" fill="#CCB8F4"/>
<path d="M23.5737 17.6802H15.3228V29.4668H23.5737V17.6802Z" fill="white"/>
<path fill-rule="evenodd" clip-rule="evenodd" d="M25.7202 18.425V30.2117H33.9705V20.1869C33.9705 19.2137 33.1772 18.425 32.1967 18.425H25.7202Z" fill="#A3EFE0"/>
<path fill-rule="evenodd" clip-rule="evenodd" d="M15.1116 18.425H8.63511C7.6546 18.425 6.86133 19.2144 6.86133 20.1869V30.2117H15.1123V18.425H15.1116Z" fill="#A3EFE0"/>
<path fill-rule="evenodd" clip-rule="evenodd" d="M17.7104 7.06261C18.644 6.77745 19.17 5.789 18.8841 4.85481C18.5983 3.92127 17.6105 3.39529 16.6763 3.68111C15.7428 3.96692 15.2168 4.95471 15.5026 5.88891C15.7885 6.82244 16.7769 7.34842 17.7104 7.06261Z" fill="#CCB8F4"/>
<path fill-rule="evenodd" clip-rule="evenodd" d="M22.2197 5.68443C23.1533 5.39862 23.6792 4.41083 23.3934 3.47663C23.1076 2.5431 22.1198 2.01712 21.1856 2.30293C20.2521 2.58809 19.7261 3.57654 20.0119 4.51073C20.2971 5.44427 21.2855 5.96959 22.2197 5.68443Z" fill="#CCB8F4"/>
<path fill-rule="evenodd" clip-rule="evenodd" d="M18.8585 16.5012V7.28426L0.765403 12.9384C0.454446 13.0357 0.124301 12.8623 0.0270445 12.5514C-0.0702124 12.2404 0.10313 11.9103 0.414087 11.813L14.9682 7.26508C14.4217 6.90053 13.9937 6.35272 13.7866 5.67589C13.3109 4.11978 14.1869 2.47236 15.743 1.99666C16.6646 1.71482 17.6186 1.90735 18.3418 2.43465C18.6468 1.59308 19.3296 0.900372 20.2519 0.618526C21.808 0.142827 23.4554 1.0188 23.9311 2.57491C24.1302 3.2266 24.0925 3.8935 23.8676 4.48432L38.1306 0.0270445C38.4416 -0.0702124 38.7717 0.10313 38.869 0.414087C38.9662 0.725045 38.7929 1.05519 38.4819 1.15245L20.0368 6.91641V16.5018H31.228C32.8582 16.5018 34.1808 17.8171 34.1808 19.4427V35.9559C34.1808 37.5808 32.8589 38.8967 31.228 38.8967H7.66734C6.03713 38.8967 4.71456 37.5815 4.71456 35.9559V19.442C4.71456 17.8171 6.03646 16.5012 7.66734 16.5012H18.8585ZM23.5731 29.4668V17.6802H15.3228V29.4668H23.5731ZM24.7521 17.6802V29.4668H33.0031V19.442C33.0031 18.4688 32.2098 17.6802 31.2293 17.6802H24.7521ZM14.1439 17.6802H7.66734C6.68683 17.6802 5.89356 18.4695 5.89356 19.442V29.4668H14.1445V17.6802H14.1439ZM33.0024 30.6451H5.89356V35.9552C5.89356 36.9284 6.68683 37.7171 7.66734 37.7171H31.2287C32.2092 37.7171 33.0024 36.9278 33.0024 35.9552V30.6451ZM17.1211 6.50555C18.0546 6.22039 18.5806 5.23194 18.2948 4.29775C18.009 3.36421 17.0212 2.83823 16.087 3.12405C15.1535 3.40987 14.6275 4.39765 14.9133 5.33185C15.1991 6.26538 16.1876 6.7907 17.1211 6.50555ZM21.63 5.12675C22.5635 4.84093 23.0895 3.85315 22.8037 2.91895C22.5179 1.98542 21.5301 1.45943 20.5959 1.74525C19.6624 2.03041 19.1364 3.01885 19.4222 3.95305C19.708 4.88658 20.6958 5.41256 21.63 5.12675Z" fill="#464860"/>
</svg>
