<svg width="78" height="78" viewBox="0 0 78 78" fill="none" xmlns="http://www.w3.org/2000/svg">
<rect width="78" height="78" fill="white"/>
<path fill-rule="evenodd" clip-rule="evenodd" d="M30.5651 32.4032L31.4991 32.7318L32.8099 28.9766L34.9997 28.0613L35.9494 27.4667L36.1142 26.6218L37.1895 27.3024L39.5363 27.3728L41.1532 26.1133L41.3102 27.4667L44.0415 28.429L45.3994 31.2375L45.8939 32.411L47.8796 31.4957L48.0131 32.7318L48.2642 33.5375L48.7666 34.2964L46.8357 35.7124L45.0933 36.4009L43.1389 33.4984L43.1154 40.3829L42.9035 41.4234H34.2933L33.8616 39.5771L34.411 33.5767L32.9668 35.3682L32.1192 36.1505L30.1099 35.1413L30.5651 32.4032Z" fill="white"/>
<path fill-rule="evenodd" clip-rule="evenodd" d="M31.4836 33.2247L32.4098 33.5533L33.7205 29.7981L35.9103 28.8828L36.86 28.2882L37.0249 27.4433L38.1002 28.1239L40.447 28.2022L42.0638 26.9348L42.2286 28.2882L44.9522 29.2505L46.31 32.059L46.8045 33.2404L48.7903 32.3172L48.9237 33.5533L49.1749 34.3591L49.6772 35.1179L47.7542 36.5339L46.0039 37.2224L44.0496 34.32L44.026 41.2044L43.8141 42.2449H35.2039L34.7723 40.3986L35.3295 34.3982L33.8775 36.1897L33.0298 36.972L31.0205 35.9628L31.4836 33.2247Z" fill="#CCB8F4"/>
<path fill-rule="evenodd" clip-rule="evenodd" d="M34.191 41.5564L42.8639 41.7911L43.327 58.9318L43.0366 59.4638L40.3916 59.2761L38.9238 43.8251H38.2645L36.6477 59.4951L33.8613 59.2995L34.191 41.5564Z" fill="white"/>
<path fill-rule="evenodd" clip-rule="evenodd" d="M35.3287 41.7754L43.9938 42.0101L44.4647 59.1508L44.1743 59.6828L41.5293 59.4951L40.0615 44.0363H39.4022L37.7854 59.7141L34.999 59.5107L35.3287 41.7754Z" fill="#A3EFE0"/>
<path fill-rule="evenodd" clip-rule="evenodd" d="M27.7626 34.1636C27.794 35.5013 27.8176 36.8313 27.8333 38.1691C27.8411 39.0922 27.8647 40.0154 27.8725 40.9385C27.951 46.6729 27.6998 52.0553 27.4958 57.2343C27.4722 57.8367 27.4958 59.1276 27.8882 59.5266H30.0231C30.4234 59.1276 30.4391 57.8367 30.4155 57.2343C30.2115 52.0553 29.9603 46.6729 30.0388 40.9385C30.0545 40.0154 30.0702 39.0922 30.078 38.1691C30.133 33.569 30.2743 28.9611 30.494 24.3376C30.5333 23.5083 30.5568 22.6947 30.5568 21.8654C30.5568 20.5433 30.0859 19.9644 28.9478 19.9565C27.8176 19.9565 27.3545 20.5276 27.3545 21.8576C27.3545 22.6869 27.378 23.5083 27.4173 24.3297C27.5193 26.4811 27.6057 28.6325 27.6763 30.7761" fill="white"/>
<path fill-rule="evenodd" clip-rule="evenodd" d="M27.6767 30.7917L28.3909 30.8778C28.7598 30.9247 29.0345 31.2611 29.011 31.6288L28.8854 33.1309C28.8383 33.7176 28.3203 34.1479 27.7316 34.0775L27.4177 34.0384C26.9781 33.9836 26.6406 33.5768 26.6799 33.1387L26.8133 31.4958C26.8447 31.0577 27.2293 30.737 27.6767 30.7917Z" fill="white"/>
<path fill-rule="evenodd" clip-rule="evenodd" d="M49.5274 30.8621L48.7975 30.8699C48.4286 30.8777 48.1852 31.2532 48.1774 31.6209L48.1617 33.1308C48.1539 33.7254 48.7268 34.1478 49.3155 34.0774L49.6294 34.0383C50.069 33.9835 50.3672 33.5846 50.3672 33.1386L50.3751 31.4957C50.3751 31.0498 49.9748 30.8621 49.5274 30.8621Z" fill="white"/>
<path fill-rule="evenodd" clip-rule="evenodd" d="M35.9335 23.2656L35.541 20.7543L36.114 19.3774L37.1422 18.3682L38.0997 17.9379L39.0573 17.4451L39.8343 17.7893L40.0462 18.2039C40.0462 18.2039 40.682 18.6733 40.8782 18.8845C41.0744 19.0958 41.5689 19.8155 41.5689 19.8155C41.5689 19.8155 41.8358 20.3866 41.8672 20.7387C41.9064 21.0907 41.773 21.3489 41.7494 22.0373C41.7259 22.7179 41.7494 23.1952 41.5768 23.5472C41.4041 23.8993 41.2471 24.1027 41.1294 24.4234C41.0117 24.752 40.525 25.5421 40.4779 25.5969C40.4308 25.6595 40.0541 26.4887 39.9442 26.4496C39.8343 26.4105 39.0337 26.6296 38.7041 26.6139C38.3744 26.6061 37.5346 26.254 37.5346 26.254L36.6242 25.4091L35.9335 23.2656Z" fill="white"/>
<path d="M52 60.2138H25V59.3533H27.3076C27.0642 58.7196 27.0485 57.7886 27.0721 57.2097L27.1427 55.4964C27.3311 50.8416 27.5195 46.0303 27.4488 40.9295L27.4096 38.1601C27.3939 36.924 27.3703 35.688 27.3468 34.4519C26.6875 34.358 26.2009 33.7556 26.2558 33.0906L26.3892 31.4478C26.4128 31.1192 26.5698 30.8141 26.8288 30.6107C26.9544 30.509 27.0956 30.4386 27.2448 30.3916C27.182 28.3576 27.0956 26.3235 27.0015 24.3442C26.9387 23.4602 26.923 22.6388 26.923 21.8564C26.923 20.2918 27.5901 19.5251 28.9637 19.5173C30.3372 19.5251 31.0044 20.2918 31.0044 21.8564C31.0044 22.6309 30.9808 23.4446 30.9416 24.3521C30.8238 26.8555 30.7218 29.3981 30.6512 31.9563L31.0279 32.1518L32.4172 28.8113C32.6526 28.3106 32.998 27.9742 33.5003 27.7865L35.5645 27.1371L35.698 26.0575C35.6823 25.8932 35.7058 25.7211 35.7686 25.5725C35.8392 25.416 35.9413 25.283 36.0747 25.1813C35.957 24.9623 35.8628 24.7432 35.8 24.5398V24.5163L35.1015 21.567C34.9837 19.9945 35.7372 18.7193 37.3305 17.7101C37.6916 17.4832 38.0369 17.3346 38.3744 17.186L38.6805 17.053C39.0651 16.8965 39.6852 17.1312 39.8029 17.186C40.2267 17.3894 40.266 17.6945 40.2817 17.8275C41.7494 18.8288 42.4323 20.0571 42.3302 21.5044L41.5532 24.5242C41.4904 24.7432 41.3884 24.9779 41.2549 25.2126C41.3648 25.3065 41.459 25.4238 41.514 25.5647C41.5846 25.729 41.6081 25.9011 41.5846 26.0732L41.7102 27.1293L43.7509 27.7708C44.2767 27.9742 44.6221 28.3028 44.8497 28.7878L46.2468 32.1362L47.793 31.3069C47.9108 30.8454 48.264 30.4385 48.7977 30.4307H48.8448V29.844H49.7081V30.4307C50.0378 30.462 50.3203 30.5794 50.5166 30.775C50.7049 30.9627 50.807 31.2131 50.807 31.4869L50.7991 33.1297C50.7991 33.7947 50.336 34.358 49.716 34.4519L49.7003 34.4597V57.1315H50.9953V57.992H49.7003V58.2033H48.8369V57.992H47.5419V57.1315H48.8369V34.9917L45.9564 36.7519C45.5483 36.9162 44.9831 36.8771 44.5672 36.6893C44.2846 36.5642 44.0884 36.3764 44.0099 36.1495L43.3349 34.8196L43.3977 37.9645L43.5939 41.1016L43.3427 41.6336L43.7587 59.2829C43.7587 59.3064 43.7587 59.3298 43.7587 59.3533H48.8448V58.5397H49.7081V59.3533H52V60.2138ZM40.4622 59.3533L40.8233 59.3455C40.8233 59.322 40.8154 59.2907 40.8076 59.2672L40.4622 59.3533ZM37.2285 59.3533H39.9677C39.9677 59.3455 39.9677 59.3455 39.9677 59.3376L39.9206 58.0937L39.6852 54.8236L38.5942 44.7864L37.511 54.8315L37.2756 58.1016L37.2363 59.2907C37.2285 59.3142 37.2285 59.3376 37.2285 59.3533ZM30.6119 59.3533H33.4297C33.4297 59.3376 33.4297 59.322 33.4297 59.3142L33.8456 41.8683L33.5552 41.086L33.7828 37.9098L33.9163 34.9135L33.2256 36.2121C33.1628 36.392 32.9666 36.572 32.684 36.6972C32.268 36.8849 31.7029 36.924 31.3654 36.791L30.5413 36.3138C30.5334 36.9319 30.5177 37.5499 30.5099 38.1679L30.4706 40.9374C30.4 46.0303 30.5884 50.8416 30.7767 55.4964L30.8474 57.2097C30.8709 57.7886 30.8552 58.7196 30.6119 59.3533ZM36.3808 59.2594C36.373 59.2907 36.3651 59.3142 36.3651 59.3455L36.577 59.3142L36.5613 59.2751L36.3808 59.2594ZM36.6241 59.2751V59.3064L36.7968 59.2751H36.6241ZM34.3009 59.056C34.866 59.1186 35.8078 59.1264 36.373 59.0873L36.4122 58.0625L36.6555 54.761L37.8799 43.3939H39.3163L40.5407 54.7454L40.8154 59.0795C41.357 59.1108 42.3145 59.1029 42.8875 59.0482L42.7855 54.7376L42.4794 41.9857H34.7012L34.3009 59.056ZM28.1238 59.0873H29.7956C29.9212 58.79 30.0233 58.1016 29.9919 57.241L29.9212 55.5277C29.7328 50.8651 29.5445 46.0381 29.6151 40.9217L29.6544 38.1523C29.7093 33.4974 29.8506 28.8348 30.0703 24.3129C30.1174 23.4211 30.1331 22.6153 30.1331 21.8564C30.1331 20.6204 29.7172 20.3778 28.9558 20.3778C28.1945 20.3857 27.7785 20.6204 27.7785 21.8564C27.7785 22.6309 27.802 23.4289 27.8413 24.3129C27.9355 26.3079 28.0218 28.3576 28.0846 30.4073L28.4299 30.4464C29.0265 30.5168 29.4738 31.0644 29.4267 31.659L29.3169 33.1689C29.2855 33.5757 29.0971 33.9355 28.7831 34.1859C28.6105 34.3267 28.4142 34.4206 28.2023 34.4753C28.2337 35.7036 28.2494 36.9319 28.2651 38.1601L28.3044 40.9295C28.375 46.0459 28.1866 50.8729 27.9983 55.5434L27.9276 57.2488C27.9041 58.1016 27.9983 58.79 28.1238 59.0873ZM39.0651 41.1251H42.6285L42.7148 40.9452L42.5343 38.0115L42.4009 31.5103L43.2642 31.4947L43.2956 32.8481L44.8026 35.8131C44.9046 35.9618 45.4227 36.0478 45.5875 35.9931L48.3817 34.2876C48.3189 34.2485 48.2561 34.2015 48.1933 34.1468C47.8951 33.8808 47.7381 33.5287 47.7381 33.1376L47.7459 32.324L45.8936 33.3175L45.5169 32.6291L44.0648 29.1477C43.9392 28.8817 43.7587 28.7018 43.4683 28.5923L40.9174 27.7943L40.839 27.145C40.5564 27.3718 40.164 27.6144 39.6695 27.7865C39.4968 27.8412 39.2927 27.8803 39.0651 27.9038V41.1251ZM34.4971 41.1251H38.2017V27.9038C37.9741 27.8803 37.7701 27.8412 37.5974 27.7865C37.0951 27.6222 36.7026 27.3718 36.4201 27.145L36.3416 27.7943L33.7672 28.6001C33.5081 28.7018 33.3276 28.8739 33.1942 29.1555L31.7735 32.5821L31.3733 33.3019L30.6198 32.9107C30.5962 33.7165 30.5805 34.5223 30.5648 35.3281L31.7422 36.0087C31.8363 36.04 32.3622 35.9539 32.4564 35.8288L34.0105 32.8951L34.0733 31.479L34.9366 31.5182L34.6462 37.9489L34.4265 40.953L34.4971 41.1251ZM27.5823 31.2131C27.5038 31.2131 27.4253 31.2365 27.3625 31.2913C27.2919 31.3539 27.2448 31.4399 27.2369 31.5338L27.1035 33.1767C27.0878 33.3879 27.2526 33.5913 27.4645 33.6148L27.7785 33.6539C27.9433 33.6774 28.1081 33.6304 28.2337 33.5209C28.3593 33.4192 28.4378 33.2706 28.4535 33.0985L28.5712 31.5886C28.5791 31.4477 28.4692 31.3148 28.3358 31.2991L27.6215 31.2131C27.6058 31.2131 27.5901 31.2131 27.5823 31.2131ZM49.5355 31.2913L48.8055 31.2991C48.7113 31.2991 48.6171 31.4634 48.6171 31.6277L48.6015 33.1376C48.6015 33.3097 48.6878 33.427 48.7663 33.4974C48.8997 33.6148 49.0881 33.6774 49.2765 33.6539L49.5826 33.6148C49.818 33.5835 49.9436 33.3488 49.9436 33.1376L49.9515 31.4947C49.9515 31.4243 49.9279 31.4086 49.9201 31.393C49.8651 31.346 49.7238 31.2913 49.5355 31.2913ZM36.5535 25.9089V25.9167C36.5378 25.9558 36.5378 26.0262 36.6006 26.1123C36.6948 26.2375 37.1186 26.7147 37.8721 26.965C38.186 27.0667 38.7826 27.0902 39.1907 27.012C38.7983 27.0589 38.3901 27.0511 37.9977 26.9885L37.9035 26.965C37.409 26.7616 36.9302 26.3626 36.5535 25.9089ZM40.7291 25.9715C40.4151 26.347 40.0305 26.6756 39.6302 26.879C40.2424 26.613 40.5878 26.214 40.6898 26.0888C40.7134 26.0497 40.7291 26.0106 40.7291 25.9715ZM38.1939 26.1592C38.5078 26.2062 38.8375 26.2062 39.1515 26.1592C39.85 25.8463 40.5328 24.9466 40.7212 24.3208L40.7683 24.0313L40.7919 24.0391L41.4826 21.387C41.5532 20.3387 41.0038 19.3921 39.8029 18.5785C39.4968 18.3751 39.4497 18.1248 39.4262 17.9918C39.2692 17.9292 39.0337 17.8744 38.9709 17.8822L38.7041 18.0074C38.3823 18.1404 38.084 18.2734 37.7779 18.4611C36.4515 19.2982 35.8471 20.2761 35.9334 21.4575L36.5535 24.0313H36.577L36.632 24.3599C36.8047 24.9388 37.4875 25.8463 38.1939 26.1592ZM29.3875 41.0782H28.532V36.9006H29.3953V41.0782H29.3875Z" fill="#464860"/>
</svg>
