<svg width="41" height="41" viewBox="0 0 41 41" fill="none" xmlns="http://www.w3.org/2000/svg">
<path d="M39.371 4.98877H36.5186V8.12254H39.371V4.98877Z" fill="white"/>
<path d="M37.8481 1.04028H39.4975C39.8273 1.04028 40.099 1.31194 40.099 1.64181V4.00912H37.2466V1.64181C37.2466 1.31194 37.5182 1.04028 37.8481 1.04028Z" fill="#CCB8F4"/>
<path d="M39.4872 12.0812H37.8379C37.508 12.0812 37.2363 11.8096 37.2363 11.4797V9.16089H40.0887V11.47C40.0984 11.8096 39.8268 12.0812 39.4872 12.0812Z" fill="#CCB8F4"/>
<path d="M3.86169 4.98877H1.00928V8.12254H3.86169V4.98877Z" fill="white"/>
<path d="M0.882778 1.01123H2.53213C2.862 1.01123 3.13366 1.28289 3.13366 1.61276V3.98006H0.28125V1.61276C0.28125 1.28289 0.552908 1.01123 0.882778 1.01123Z" fill="#A3EFE0"/>
<path d="M0.28125 11.4504V9.13159H3.13366V11.4407C3.13366 11.7706 2.862 12.0422 2.53213 12.0422H0.882778C0.552908 12.0519 0.28125 11.7803 0.28125 11.4504Z" fill="#A3EFE0"/>
<path d="M14.7371 24.9268L19.2486 27.4105L17.8806 29.9136L13.3691 27.4396L14.7371 24.9268Z" fill="white"/>
<path d="M27.0103 27.4396L22.4989 29.9136L21.1309 27.4105L25.6423 24.9268L27.0103 27.4396Z" fill="white"/>
<path d="M26.5934 39.2663L21.9946 30.8546L26.5061 28.3806L31.1049 36.7826L26.5934 39.2663Z" fill="#CCB8F4"/>
<path d="M25.1572 24.0438L20.9854 26.3432L23.7019 21.3757L25.1572 24.0438Z" fill="#CCB8F4"/>
<path d="M26.739 4.57168C27.7384 2.74769 29.5332 1.47672 31.5707 1.12744C32.3662 3.03875 32.2498 5.23142 31.2505 7.0554L20.5588 26.5954L16.0474 24.1116L26.739 4.57168Z" fill="#A3EFE0"/>
<path d="M8.96443 7.03594C7.95542 5.21195 7.8487 3.02898 8.64427 1.11768C10.6817 1.46695 12.4766 2.73792 13.4759 4.56191L18.6277 13.9729L15.6977 19.3382L8.96443 7.03594Z" fill="#CCB8F4"/>
<path d="M13.7091 28.3904L18.2206 30.8644L13.6218 39.2761L9.11035 36.8021L13.7091 28.3904Z" fill="#A3EFE0"/>
<path d="M7.35391 37.3745L12.7483 40.3433C12.8259 40.3821 12.9035 40.4015 12.9908 40.4015C13.0393 40.4015 13.0878 40.3918 13.1363 40.3821C13.2625 40.3433 13.3692 40.256 13.4371 40.1396L20.1897 27.7888L26.9424 40.1396C27.0103 40.256 27.117 40.3433 27.2432 40.3821C27.2917 40.3918 27.3402 40.4015 27.3887 40.4015C27.476 40.4015 27.5536 40.3821 27.6312 40.3433L33.0256 37.3745C33.2681 37.2386 33.3555 36.9379 33.2293 36.6856L24.2743 20.3279L31.3083 7.47269C32.5308 5.25092 32.5987 2.57315 31.5024 0.293163C31.4053 0.0991214 31.2016 -0.0173034 30.9881 0.0118028C28.4753 0.302865 26.2438 1.80669 25.0214 4.02846L20.18 12.867L15.3387 4.02846C14.1357 1.79698 11.9042 0.302865 9.39135 0.00210073C9.1779 -0.0173034 8.96446 0.0991214 8.87714 0.293163C7.7808 2.57315 7.84872 5.26062 9.07118 7.47269L16.1052 20.3279L7.15017 36.6856C7.01434 36.9379 7.11136 37.2386 7.35391 37.3745ZM14.7372 24.9267L19.2486 27.4104L17.8807 29.9136L13.3692 27.4298L14.7372 24.9267ZM27.0103 27.4395L22.4988 29.9233L21.1308 27.4201L25.6423 24.9364L27.0103 27.4395ZM27.5924 39.2082L22.9936 30.7965L27.5051 28.3127L32.1039 36.7244L27.5924 39.2082ZM25.1572 24.0438L20.9853 26.3432L23.7019 21.3855L25.1572 24.0438ZM25.914 4.50386C26.9133 2.67987 28.7082 1.4089 30.7456 1.05963C31.5412 2.97093 31.4247 5.1636 30.4254 6.98759L19.7338 26.5276L15.2223 24.0438L25.914 4.50386ZM9.95407 6.98759C8.95476 5.1636 8.83833 2.97093 9.6339 1.05963C11.6713 1.4089 13.4662 2.67987 14.4655 4.50386L19.6173 13.9149L16.6873 19.2801L9.95407 6.98759ZM12.8841 28.3224L17.3956 30.8062L12.7968 39.2179L8.28531 36.7341L12.8841 28.3224Z" fill="#464860"/>
<path d="M38.7697 0.00219727H37.1203C36.2277 0.00219727 35.5098 0.729852 35.5098 1.61274V11.4506C35.5098 12.3432 36.2374 13.0612 37.1203 13.0612H37.4405V36.6663H36.0143C35.7329 36.6663 35.5098 36.8895 35.5098 37.1708C35.5098 37.4522 35.7329 37.6753 36.0143 37.6753H37.4405V39.8777C37.4405 40.159 37.6636 40.3822 37.945 40.3822C38.2263 40.3822 38.4495 40.159 38.4495 39.8777V37.6753H39.8757C40.1571 37.6753 40.3802 37.4522 40.3802 37.1708C40.3802 36.8895 40.1571 36.6663 39.8757 36.6663H38.4495V13.0612H38.7697C39.6623 13.0612 40.3802 12.3335 40.3802 11.4506V1.61274C40.3802 0.729852 39.6525 0.00219727 38.7697 0.00219727ZM36.5188 4.98906H39.3712V8.12283H36.5188V4.98906ZM37.1203 1.01121H38.7697C39.0995 1.01121 39.3712 1.28287 39.3712 1.61274V3.98004H36.5188V1.61274C36.5188 1.28287 36.7904 1.01121 37.1203 1.01121ZM38.7697 12.0522H37.1203C36.7904 12.0522 36.5188 11.7805 36.5188 11.4506V9.13184H39.3712V11.4409C39.3712 11.7805 39.0995 12.0522 38.7697 12.0522Z" fill="#464860"/>
<path d="M3.25989 13.0612C4.15248 13.0612 4.87044 12.3335 4.87044 11.4506V1.61274C4.87044 0.729852 4.14278 0.00219727 3.25989 0.00219727H1.61054C0.727655 0.00219727 0 0.729852 0 1.61274V11.4506C0 12.3432 0.727655 13.0612 1.61054 13.0612H1.93071V36.6663H0.504507C0.223148 36.6663 0 36.8895 0 37.1708C0 37.4522 0.223148 37.6753 0.504507 37.6753H1.93071V39.8777C1.93071 40.159 2.15386 40.3822 2.43522 40.3822C2.71658 40.3822 2.93973 40.159 2.93973 39.8777V37.6753H4.36593C4.64729 37.6753 4.87044 37.4522 4.87044 37.1708C4.87044 36.8895 4.64729 36.6663 4.36593 36.6663H2.93973V13.0612H3.25989ZM1.00901 4.98906H3.86142V8.12283H1.00901V4.98906ZM1.61054 1.01121H3.25989C3.58976 1.01121 3.86142 1.28287 3.86142 1.61274V3.98004H1.00901V1.61274C1.00901 1.28287 1.28067 1.01121 1.61054 1.01121ZM1.00901 11.4506V9.13184H3.86142V11.4409C3.86142 11.7708 3.58976 12.0425 3.25989 12.0425H1.61054C1.28067 12.0522 1.00901 11.7805 1.00901 11.4506Z" fill="#464860"/>
</svg>
