<svg width="78" height="78" viewBox="0 0 78 78" fill="none" xmlns="http://www.w3.org/2000/svg">
<rect width="78" height="78" fill="white"/>
<path d="M58.371 23.9888H55.5186V27.1225H58.371V23.9888Z" fill="white"/>
<path d="M56.8481 20.0403H58.4975C58.8273 20.0403 59.099 20.3119 59.099 20.6418V23.0091H56.2466V20.6418C56.2466 20.3119 56.5182 20.0403 56.8481 20.0403Z" fill="#CCB8F4"/>
<path d="M58.4872 31.0812H56.8379C56.508 31.0812 56.2363 30.8096 56.2363 30.4797V28.1609H59.0887V30.47C59.0984 30.8096 58.8268 31.0812 58.4872 31.0812Z" fill="#CCB8F4"/>
<path d="M22.8617 23.9888H20.0093V27.1225H22.8617V23.9888Z" fill="white"/>
<path d="M19.8828 20.0112H21.5321C21.862 20.0112 22.1337 20.2829 22.1337 20.6128V22.9801H19.2812V20.6128C19.2812 20.2829 19.5529 20.0112 19.8828 20.0112Z" fill="#A3EFE0"/>
<path d="M19.2812 30.4504V28.1316H22.1337V30.4407C22.1337 30.7706 21.862 31.0422 21.5321 31.0422H19.8828C19.5529 31.0519 19.2812 30.7803 19.2812 30.4504Z" fill="#A3EFE0"/>
<path d="M33.7371 43.9268L38.2486 46.4105L36.8806 48.9136L32.3691 46.4396L33.7371 43.9268Z" fill="white"/>
<path d="M46.0103 46.4396L41.4989 48.9136L40.1309 46.4105L44.6423 43.9268L46.0103 46.4396Z" fill="white"/>
<path d="M45.5934 58.2663L40.9946 49.8546L45.5061 47.3806L50.1049 55.7826L45.5934 58.2663Z" fill="#CCB8F4"/>
<path d="M44.1572 43.0438L39.9854 45.3432L42.7019 40.3757L44.1572 43.0438Z" fill="#CCB8F4"/>
<path d="M45.739 23.5717C46.7384 21.7477 48.5332 20.4767 50.5707 20.1274C51.3662 22.0387 51.2498 24.2314 50.2505 26.0554L39.5588 45.5954L35.0474 43.1116L45.739 23.5717Z" fill="#A3EFE0"/>
<path d="M27.9644 26.0359C26.9554 24.2119 26.8487 22.029 27.6443 20.1177C29.6817 20.467 31.4766 21.7379 32.4759 23.5619L37.6277 32.9729L34.6977 38.3382L27.9644 26.0359Z" fill="#CCB8F4"/>
<path d="M32.7091 47.3904L37.2206 49.8644L32.6218 58.2761L28.1104 55.8021L32.7091 47.3904Z" fill="#A3EFE0"/>
<path d="M26.3539 56.3745L31.7483 59.3433C31.8259 59.3821 31.9035 59.4015 31.9908 59.4015C32.0393 59.4015 32.0878 59.3918 32.1363 59.3821C32.2625 59.3433 32.3692 59.256 32.4371 59.1396L39.1897 46.7888L45.9424 59.1396C46.0103 59.256 46.117 59.3433 46.2432 59.3821C46.2917 59.3918 46.3402 59.4015 46.3887 59.4015C46.476 59.4015 46.5536 59.3821 46.6312 59.3433L52.0256 56.3745C52.2681 56.2386 52.3555 55.9379 52.2293 55.6856L43.2743 39.3279L50.3083 26.4727C51.5308 24.2509 51.5987 21.5731 50.5024 19.2932C50.4053 19.0991 50.2016 18.9827 49.9881 19.0118C47.4753 19.3029 45.2438 20.8067 44.0214 23.0285L39.18 31.867L34.3387 23.0285C33.1357 20.797 30.9042 19.3029 28.3913 19.0021C28.1779 18.9827 27.9645 19.0991 27.8771 19.2932C26.7808 21.5731 26.8487 24.2606 28.0712 26.4727L35.1052 39.3279L26.1502 55.6856C26.0143 55.9379 26.1114 56.2386 26.3539 56.3745ZM33.7372 43.9267L38.2486 46.4104L36.8807 48.9136L32.3692 46.4298L33.7372 43.9267ZM46.0103 46.4395L41.4988 48.9233L40.1308 46.4201L44.6423 43.9364L46.0103 46.4395ZM46.5924 58.2082L41.9936 49.7965L46.5051 47.3127L51.1039 55.7244L46.5924 58.2082ZM44.1572 43.0438L39.9853 45.3432L42.7019 40.3855L44.1572 43.0438ZM44.914 23.5039C45.9133 21.6799 47.7082 20.4089 49.7456 20.0596C50.5412 21.9709 50.4247 24.1636 49.4254 25.9876L38.7338 45.5276L34.2223 43.0438L44.914 23.5039ZM28.9541 25.9876C27.9548 24.1636 27.8383 21.9709 28.6339 20.0596C30.6713 20.4089 32.4662 21.6799 33.4655 23.5039L38.6173 32.9149L35.6873 38.2801L28.9541 25.9876ZM31.8841 47.3224L36.3956 49.8062L31.7968 58.2179L27.2853 55.7341L31.8841 47.3224Z" fill="#464860"/>
<path d="M57.7697 19.0022H56.1203C55.2277 19.0022 54.5098 19.7299 54.5098 20.6127V30.4506C54.5098 31.3432 55.2374 32.0612 56.1203 32.0612H56.4405V55.6663H55.0143C54.7329 55.6663 54.5098 55.8895 54.5098 56.1708C54.5098 56.4522 54.7329 56.6753 55.0143 56.6753H56.4405V58.8777C56.4405 59.159 56.6636 59.3822 56.945 59.3822C57.2263 59.3822 57.4495 59.159 57.4495 58.8777V56.6753H58.8757C59.1571 56.6753 59.3802 56.4522 59.3802 56.1708C59.3802 55.8895 59.1571 55.6663 58.8757 55.6663H57.4495V32.0612H57.7697C58.6623 32.0612 59.3802 31.3335 59.3802 30.4506V20.6127C59.3802 19.7299 58.6525 19.0022 57.7697 19.0022ZM55.5188 23.9891H58.3712V27.1228H55.5188V23.9891ZM56.1203 20.0112H57.7697C58.0995 20.0112 58.3712 20.2829 58.3712 20.6127V22.98H55.5188V20.6127C55.5188 20.2829 55.7904 20.0112 56.1203 20.0112ZM57.7697 31.0522H56.1203C55.7904 31.0522 55.5188 30.7805 55.5188 30.4506V28.1318H58.3712V30.4409C58.3712 30.7805 58.0995 31.0522 57.7697 31.0522Z" fill="#464860"/>
<path d="M22.2599 32.0612C23.1525 32.0612 23.8704 31.3335 23.8704 30.4506V20.6127C23.8704 19.7299 23.1428 19.0022 22.2599 19.0022H20.6105C19.7277 19.0022 19 19.7299 19 20.6127V30.4506C19 31.3432 19.7277 32.0612 20.6105 32.0612H20.9307V55.6663H19.5045C19.2231 55.6663 19 55.8895 19 56.1708C19 56.4522 19.2231 56.6753 19.5045 56.6753H20.9307V58.8777C20.9307 59.159 21.1539 59.3822 21.4352 59.3822C21.7166 59.3822 21.9397 59.159 21.9397 58.8777V56.6753H23.3659C23.6473 56.6753 23.8704 56.4522 23.8704 56.1708C23.8704 55.8895 23.6473 55.6663 23.3659 55.6663H21.9397V32.0612H22.2599ZM20.009 23.9891H22.8614V27.1228H20.009V23.9891ZM20.6105 20.0112H22.2599C22.5898 20.0112 22.8614 20.2829 22.8614 20.6127V22.98H20.009V20.6127C20.009 20.2829 20.2807 20.0112 20.6105 20.0112ZM20.009 30.4506V28.1318H22.8614V30.4409C22.8614 30.7708 22.5898 31.0425 22.2599 31.0425H20.6105C20.2807 31.0522 20.009 30.7805 20.009 30.4506Z" fill="#464860"/>
</svg>
