<svg width="78" height="78" viewBox="0 0 78 78" fill="none" xmlns="http://www.w3.org/2000/svg">
<rect width="78" height="78" fill="white"/>
<path fill-rule="evenodd" clip-rule="evenodd" d="M52.7788 23.7566C52.7788 23.391 53.0533 23.1172 53.4189 23.1172C53.7844 23.1172 54.0589 23.3917 54.0589 23.7573V26.9563C54.0589 27.3218 53.7844 27.5963 53.4189 27.5963C53.0533 27.5963 52.7788 27.3218 52.7788 26.9563V23.7566Z" fill="white"/>
<path fill-rule="evenodd" clip-rule="evenodd" d="M25.8989 21.8198C25.8989 21.4543 26.1734 21.1804 26.539 21.1804C26.9046 21.1804 27.1791 21.4549 27.1791 21.8198V25.0182C27.1791 25.3837 26.9046 25.6582 26.539 25.6582C26.1734 25.6582 25.8989 25.3837 25.8989 25.0182V21.8198Z" fill="white"/>
<path fill-rule="evenodd" clip-rule="evenodd" d="M30.4648 52.3697C31.8254 43.9511 33.7217 33.8024 34.5312 25.4463C34.6476 24.8853 35.047 24.2552 35.596 23.8292C36.1464 23.4031 36.813 23.1811 37.4983 23.3021C38.8861 23.5474 39.8087 24.8847 39.5561 26.3183C37.5535 34.2378 35.6731 43.6773 34.0115 52.5186C33.4512 52.4674 32.8902 52.4289 32.3286 52.4036C31.7084 52.3764 31.0863 52.3651 30.4648 52.3697Z" fill="white"/>
<path fill-rule="evenodd" clip-rule="evenodd" d="M45.6849 53.6905C45.3592 51.4027 43.4935 38.3899 42.2964 32.3336C42.119 30.8886 43.11 29.6038 44.5091 29.4323C45.2003 29.3479 45.8517 29.6025 46.3788 30.0571C46.9052 30.511 47.2714 31.1637 47.3585 31.7294C47.5473 36.0012 47.9507 40.3387 48.4233 44.6796C48.7304 47.4619 49.2661 52.0773 49.4409 53.5814C48.1873 53.5515 46.9331 53.5888 45.6849 53.6905Z" fill="white"/>
<path fill-rule="evenodd" clip-rule="evenodd" d="M53.3105 24.1555C53.3105 23.79 53.5851 23.5161 53.9506 23.5161C54.3162 23.5161 54.5907 23.7906 54.5907 24.1562V27.3552C54.5907 27.7208 54.3162 27.9953 53.9506 27.9953C53.5851 27.9953 53.3105 27.7208 53.3105 27.3552V24.1555Z" fill="#CCB8F4"/>
<path fill-rule="evenodd" clip-rule="evenodd" d="M26.4307 22.2188C26.4307 21.8532 26.7052 21.5793 27.0707 21.5793C27.4363 21.5793 27.7108 21.8539 27.7108 22.2188V25.4171C27.7108 25.7827 27.4363 26.0572 27.0707 26.0572C26.7052 26.0572 26.4307 25.7827 26.4307 25.4171V22.2188Z" fill="#A3EFE0"/>
<path fill-rule="evenodd" clip-rule="evenodd" d="M31.5479 53.7049C32.9084 45.2863 34.8047 35.1376 35.6143 26.7815C35.7306 26.2205 36.13 25.5904 36.679 25.1644C37.2294 24.7383 37.896 24.5163 38.5813 24.6373C39.9691 24.8826 40.8917 26.2199 40.6391 27.6535C38.6365 35.573 36.7561 45.0125 35.0945 53.8532C34.5342 53.802 33.9732 53.7634 33.4116 53.7382C32.7914 53.7109 32.1693 53.6996 31.5479 53.7049Z" fill="#CCB8F4"/>
<path fill-rule="evenodd" clip-rule="evenodd" d="M46.7679 55.0257C46.4422 52.7379 44.5765 39.7252 43.3794 33.6688C43.202 32.2238 44.193 30.939 45.5921 30.7675C46.2834 30.6831 46.9347 30.9377 47.4618 31.3923C47.9882 31.8463 48.3544 32.499 48.4415 33.0646C48.6303 37.3364 49.0337 41.6739 49.5063 46.0148C49.8134 48.7971 50.3491 53.4125 50.5239 54.9167C49.2703 54.8867 48.0161 54.9233 46.7679 55.0257Z" fill="#A3EFE0"/>
<path fill-rule="evenodd" clip-rule="evenodd" d="M56.2708 54.3916L56.2482 54.4886C55.5204 54.3304 54.78 54.1935 54.0435 54.0812L53.9591 54.0686V52.4468H54.3785C54.5247 52.4481 54.661 52.3943 54.764 52.2939C54.8677 52.1935 54.9255 52.0586 54.9275 51.9144C54.9295 51.7702 54.875 51.6339 54.7747 51.5302C54.6743 51.4265 54.5394 51.3687 54.3951 51.3667C54.3898 51.3667 54.3852 51.3667 54.3812 51.3667H53.9591V28.6931L54.0249 28.6692C54.7507 28.4086 55.2386 27.72 55.2386 26.955V23.7567C55.2386 22.753 54.4217 21.9368 53.4181 21.9368C52.4144 21.9368 51.5976 22.753 51.5976 23.7567V26.9557C51.5976 27.7207 52.0854 28.4093 52.8112 28.6698L52.877 28.6938V51.3674H52.4749C52.328 51.3654 52.1924 51.4199 52.0894 51.5202C51.9864 51.6206 51.9279 51.7555 51.9259 51.8998C51.9239 52.044 51.9784 52.1802 52.0788 52.2839C52.1791 52.3876 52.3141 52.4454 52.4583 52.4474C52.4636 52.4474 52.4683 52.4474 52.4723 52.4474H52.877V53.9243L52.766 53.9117C52.0888 53.8333 51.4035 53.7734 50.7302 53.7336L50.6464 53.7289L50.6365 53.6458C50.4723 52.2387 49.912 47.4239 49.5949 44.5539C49.2061 40.9834 48.7335 36.2862 48.5295 31.615C48.5288 31.5924 48.5275 31.5724 48.5248 31.5525C48.3906 30.6751 47.8888 29.8044 47.149 29.1663C46.3328 28.4631 45.3438 28.1421 44.3641 28.2624L44.2604 28.275C42.2724 28.5761 40.8706 30.4405 41.1212 32.481C41.1225 32.4923 41.1252 32.5056 41.1272 32.5176C42.293 38.4025 44.1467 51.283 44.5063 53.8047L44.5209 53.9057L44.4192 53.9177C43.6236 54.0114 42.8207 54.133 42.0338 54.2799L42.0085 54.2846L41.9839 54.2766C39.8058 53.5581 37.548 53.0476 35.2722 52.7578L35.1671 52.7445L35.1864 52.6409C36.5224 45.5336 38.5489 35.0978 40.7091 26.5635C40.7124 26.5496 40.7157 26.5363 40.7177 26.523C41.08 24.4652 39.7267 22.5005 37.7008 22.1429L37.6184 22.1263C36.6699 21.9833 35.6982 22.2545 34.872 22.8953C34.0984 23.4948 33.5513 24.3382 33.3712 25.2083C33.3672 25.2276 33.3646 25.2475 33.3626 25.2674C32.7551 31.5711 31.5294 38.8451 30.3437 45.8793C29.9582 48.1677 29.5933 50.3298 29.257 52.4215L29.2443 52.5019L29.1633 52.5053C28.5139 52.5338 27.8486 52.5817 27.1865 52.6475L27.0769 52.6581V51.1686H27.4963C27.6418 51.1706 27.7788 51.1161 27.8818 51.0158C27.9848 50.9154 28.0433 50.7805 28.0453 50.6362C28.0493 50.3385 27.8107 50.0925 27.5122 50.0886C27.5069 50.0886 27.5029 50.0886 27.4983 50.0886H27.0755V26.7563L27.1414 26.7324C27.8672 26.4718 28.355 25.7832 28.355 25.0182V21.8198C28.359 20.8162 27.5428 20 26.5392 20C25.5355 20 24.7187 20.8162 24.7187 21.8198V25.0182C24.7187 25.7832 25.2065 26.4718 25.9323 26.7324L25.9981 26.7563V50.0872H25.596C25.4524 50.0866 25.3135 50.1397 25.2105 50.2401C25.1068 50.3405 25.049 50.4754 25.047 50.6196C25.045 50.7639 25.0995 50.9001 25.1999 51.0038C25.3002 51.1075 25.4352 51.1653 25.5794 51.1673C25.5847 51.1673 25.5894 51.1673 25.5934 51.1673H25.9981V52.7844L25.9117 52.7964C24.7346 52.9559 23.5602 53.1746 22.4216 53.4458C22.28 53.4777 22.1597 53.5627 22.0833 53.685C22.0068 53.8073 21.9816 53.9516 22.0135 54.0925C22.0793 54.3829 22.3697 54.5657 22.6602 54.4993L22.6682 54.4973C25.3129 53.8672 28.0254 53.5521 30.7378 53.5521C33.679 53.5521 36.6188 53.9223 39.4708 54.6608L39.8404 54.7565L39.4715 54.8535C37.314 55.4218 35.1997 56.1961 33.1871 57.1539C33.0515 57.2131 32.9498 57.3187 32.8967 57.453C32.8435 57.5873 32.8468 57.7342 32.904 57.8664C33.0229 58.1396 33.3413 58.2652 33.6152 58.1462C33.6265 58.1416 33.6378 58.1363 33.6484 58.1303C37.1159 56.4793 40.8055 55.4198 44.618 54.9791C48.4298 54.5391 52.2642 54.7292 56.0142 55.5448C56.3067 55.6092 56.5958 55.4245 56.6596 55.1333C56.6909 54.9924 56.6656 54.8475 56.5878 54.7259C56.5101 54.6043 56.3898 54.5199 56.2482 54.4886L56.2708 54.3916ZM26.5392 25.758C26.1178 25.758 25.7994 25.4403 25.7994 25.0182V21.8198C25.7994 21.3984 26.1171 21.0807 26.5392 21.0807C26.7426 21.0807 26.93 21.1558 27.0662 21.2928C27.2032 21.4297 27.2783 21.6171 27.2783 21.8198V25.0182C27.2789 25.4403 26.9606 25.758 26.5392 25.758ZM34.093 52.6262L34.0027 52.6183C33.431 52.5664 32.8667 52.5279 32.3244 52.5039C31.7082 52.4767 31.0828 52.4654 30.4653 52.47L30.347 52.4707L30.3656 52.3544C30.6886 50.3544 31.0363 48.2926 31.4038 46.1092C32.5889 39.0764 33.8139 31.8051 34.4314 25.4369L34.4327 25.4263C34.5583 24.8221 34.9804 24.1801 35.534 23.7507C36.1415 23.2801 36.8454 23.086 37.5147 23.2043C38.953 23.4582 39.9128 24.8633 39.6529 26.3362L39.6516 26.3435C37.5094 34.814 35.5639 44.7919 34.1083 52.5372L34.093 52.6262ZM49.4394 53.6797C48.1952 53.6511 46.935 53.6884 45.6927 53.7894L45.599 53.7967L45.5857 53.7037C45.2288 51.1939 43.387 38.3699 42.1986 32.3514L42.1973 32.3441C42.0158 30.8612 43.0467 29.51 44.4963 29.3312C45.1716 29.2488 45.8629 29.4787 46.4438 29.9792C46.9742 30.4372 47.363 31.1005 47.4574 31.7113L47.4587 31.722C47.6222 35.4142 47.9499 39.4061 48.5235 44.6656C48.8233 47.3854 49.3351 51.7961 49.5411 53.5661L49.5544 53.6797H49.4394ZM53.4187 27.6948C52.9973 27.6948 52.679 27.3771 52.679 26.955V23.7567C52.679 23.3353 52.9967 23.0176 53.4187 23.0176C53.6221 23.0176 53.8096 23.0927 53.9465 23.2296C54.0834 23.3665 54.1585 23.5539 54.1585 23.7573V26.9563C54.1585 27.3771 53.8401 27.6948 53.4187 27.6948Z" fill="#464860"/>
</svg>
