<svg width="46" height="46" viewBox="0 0 46 46" fill="none" xmlns="http://www.w3.org/2000/svg">
<path d="M37.6201 25.66C37.5801 25.66 37.5401 25.67 37.5001 25.68H9.45012C5.13012 25.68 1.62012 22.17 1.62012 17.85C1.62012 13.53 5.13012 10.02 9.45012 10.02C9.80012 10.02 10.1601 10.05 10.6001 10.11C10.8801 10.15 11.1501 9.98 11.2201 9.7C11.9301 7.11 14.3001 5.31 16.9901 5.31C18.3101 5.31 19.5701 5.74 20.6301 6.55C20.7701 6.66 20.9601 6.69 21.1301 6.64C21.3001 6.59 21.4401 6.46 21.5001 6.29C22.6201 3.2 25.5801 1.12 28.8601 1.12C33.1801 1.12 36.6901 4.62999 36.6901 8.95C36.6901 9.69 36.5801 10.43 36.3701 11.15C36.3201 11.32 36.3601 11.51 36.4701 11.65C36.5801 11.79 36.7401 11.87 36.9401 11.86L37.0801 11.85C37.1401 11.85 37.2001 11.84 37.2601 11.84C41.0701 11.84 44.1701 14.94 44.1701 18.75C44.1601 22.43 41.2901 25.46 37.6201 25.66Z" fill="white"/>
<path d="M36.4399 33.19C37.2904 33.19 37.9799 32.5005 37.9799 31.65C37.9799 30.7995 37.2904 30.11 36.4399 30.11C35.5894 30.11 34.8999 30.7995 34.8999 31.65C34.8999 32.5005 35.5894 33.19 36.4399 33.19Z" fill="white"/>
<path d="M26.1401 33.19C26.9906 33.19 27.6801 32.5005 27.6801 31.65C27.6801 30.7995 26.9906 30.11 26.1401 30.11C25.2896 30.11 24.6001 30.7995 24.6001 31.65C24.6001 32.5005 25.2896 33.19 26.1401 33.19Z" fill="white"/>
<path d="M13.55 43.93C14.4005 43.93 15.09 43.2405 15.09 42.39C15.09 41.5395 14.4005 40.85 13.55 40.85C12.6995 40.85 12.01 41.5395 12.01 42.39C12.01 43.2405 12.6995 43.93 13.55 43.93Z" fill="white"/>
<path d="M6.9399 39.26C7.79042 39.26 8.4799 38.5705 8.4799 37.72C8.4799 36.8695 7.79042 36.18 6.9399 36.18C6.08938 36.18 5.3999 36.8695 5.3999 37.72C5.3999 38.5705 6.08938 39.26 6.9399 39.26Z" fill="white"/>
<path d="M31.85 43.8C33.0263 43.8 33.98 42.8463 33.98 41.67C33.98 40.4936 33.0263 39.54 31.85 39.54C30.6736 39.54 29.72 40.4936 29.72 41.67C29.72 42.8463 30.6736 43.8 31.85 43.8Z" fill="white"/>
<path d="M14.13 34.37C15.3064 34.37 16.26 33.4164 16.26 32.24C16.26 31.0636 15.3064 30.11 14.13 30.11C12.9536 30.11 12 31.0636 12 32.24C12 33.4164 12.9536 34.37 14.13 34.37Z" fill="white"/>
<path d="M23.48 38.68C23.48 39.85 22.53 40.81 21.35 40.81C20.18 40.81 19.22 39.85 19.22 38.68C19.22 37.51 20.17 36.55 21.35 36.55C22.52 36.55 23.48 37.51 23.48 38.68Z" fill="white"/>
<path d="M39.3301 27.55C39.2901 27.55 39.2501 27.56 39.2101 27.57H11.1601C6.84008 27.57 3.33008 24.06 3.33008 19.74C3.33008 15.42 6.84008 11.91 11.1601 11.91C11.5101 11.91 11.8701 11.94 12.3101 12C12.5901 12.04 12.8601 11.87 12.9301 11.59C13.6401 9.00001 16.0101 7.20001 18.7001 7.20001C20.0201 7.20001 21.2801 7.63001 22.3401 8.44001C22.4801 8.55001 22.6701 8.58001 22.8401 8.53001C23.0101 8.48001 23.1501 8.35001 23.2101 8.18001C24.3301 5.09001 27.2901 3.01001 30.5701 3.01001C34.8901 3.01001 38.4001 6.52001 38.4001 10.84C38.4001 11.58 38.2901 12.32 38.0801 13.04C38.0301 13.21 38.0701 13.4 38.1801 13.54C38.2901 13.68 38.4501 13.76 38.6501 13.75L38.7901 13.74C38.8501 13.74 38.9101 13.73 38.9701 13.73C42.7801 13.73 45.8801 16.83 45.8801 20.64C45.8701 24.33 43.0001 27.36 39.3301 27.55Z" fill="#CCB8F4"/>
<path d="M36.9399 34.28C37.7904 34.28 38.4799 33.5905 38.4799 32.74C38.4799 31.8895 37.7904 31.2 36.9399 31.2C36.0894 31.2 35.3999 31.8895 35.3999 32.74C35.3999 33.5905 36.0894 34.28 36.9399 34.28Z" fill="#A3EFE0"/>
<path d="M26.1401 33.19C26.9906 33.19 27.6801 32.5005 27.6801 31.65C27.6801 30.7995 26.9906 30.11 26.1401 30.11C25.2896 30.11 24.6001 30.7995 24.6001 31.65C24.6001 32.5005 25.2896 33.19 26.1401 33.19Z" fill="white"/>
<path d="M13.55 43.93C14.4005 43.93 15.09 43.2405 15.09 42.39C15.09 41.5395 14.4005 40.85 13.55 40.85C12.6995 40.85 12.01 41.5395 12.01 42.39C12.01 43.2405 12.6995 43.93 13.55 43.93Z" fill="white"/>
<path d="M7.4399 40.35C8.29042 40.35 8.9799 39.6605 8.9799 38.81C8.9799 37.9595 8.29042 37.27 7.4399 37.27C6.58938 37.27 5.8999 37.9595 5.8999 38.81C5.8999 39.6605 6.58938 40.35 7.4399 40.35Z" fill="#A3EFE0"/>
<path d="M31.85 43.8C33.0263 43.8 33.98 42.8463 33.98 41.67C33.98 40.4936 33.0263 39.54 31.85 39.54C30.6736 39.54 29.72 40.4936 29.72 41.67C29.72 42.8463 30.6736 43.8 31.85 43.8Z" fill="white"/>
<path d="M14.13 34.37C15.3064 34.37 16.26 33.4164 16.26 32.24C16.26 31.0636 15.3064 30.11 14.13 30.11C12.9536 30.11 12 31.0636 12 32.24C12 33.4164 12.9536 34.37 14.13 34.37Z" fill="white"/>
<path d="M23.98 39.77C23.98 40.94 23.03 41.9 21.85 41.9C20.68 41.9 19.72 40.94 19.72 39.77C19.72 38.6 20.67 37.64 21.85 37.64C23.02 37.64 23.98 38.6 23.98 39.77Z" fill="#A3EFE0"/>
<path d="M37.63 10.74C37.75 10.15 37.81 9.55 37.81 8.95C37.81 4.01 33.79 0 28.86 0C25.35 0 22.16 2.08 20.72 5.24C19.6 4.55 18.33 4.18 17 4.18C13.98 4.18 11.29 6.11 10.3 8.93C10 8.9 9.73 8.88 9.46 8.88C4.52 8.89 0.5 12.91 0.5 17.84C0.5 22.77 4.52 26.79 9.45 26.79H37.65C37.71 26.79 37.77 26.78 37.83 26.76C42.02 26.46 45.28 22.97 45.28 18.76C45.28 14.46 41.88 10.94 37.63 10.74ZM37.62 25.66C37.58 25.66 37.54 25.67 37.5 25.68H9.45C5.13 25.68 1.62 22.17 1.62 17.85C1.62 13.53 5.13 10.02 9.45 10.02C9.8 10.02 10.16 10.05 10.6 10.11C10.88 10.15 11.15 9.98 11.22 9.7C11.93 7.11 14.3 5.31 16.99 5.31C18.31 5.31 19.57 5.74 20.63 6.55C20.77 6.66 20.96 6.69 21.13 6.64C21.3 6.59 21.44 6.46 21.5 6.29C22.62 3.2 25.58 1.12 28.86 1.12C33.18 1.12 36.69 4.63 36.69 8.95C36.69 9.69 36.58 10.43 36.37 11.15C36.32 11.32 36.36 11.51 36.47 11.65C36.58 11.79 36.74 11.87 36.94 11.86L37.08 11.85C37.14 11.85 37.2 11.84 37.26 11.84C41.07 11.84 44.17 14.94 44.17 18.75C44.16 22.43 41.29 25.46 37.62 25.66Z" fill="#464860"/>
<path d="M36.44 34.32C37.91 34.32 39.11 33.12 39.11 31.65C39.11 30.18 37.91 28.98 36.44 28.98C34.97 28.98 33.77 30.18 33.77 31.65C33.77 33.12 34.97 34.32 36.44 34.32ZM36.44 30.11C37.29 30.11 37.98 30.8 37.98 31.65C37.98 32.5 37.29 33.19 36.44 33.19C35.59 33.19 34.9 32.5 34.9 31.65C34.89 30.8 35.58 30.11 36.44 30.11Z" fill="#464860"/>
<path d="M26.14 28.99C24.67 28.99 23.47 30.19 23.47 31.66C23.47 33.13 24.67 34.33 26.14 34.33C27.61 34.33 28.81 33.13 28.81 31.66C28.81 30.18 27.62 28.99 26.14 28.99ZM26.14 33.2C25.29 33.2 24.6 32.51 24.6 31.66C24.6 30.81 25.29 30.12 26.14 30.12C26.99 30.12 27.68 30.81 27.68 31.66C27.69 32.51 27 33.2 26.14 33.2Z" fill="#464860"/>
<path d="M10.8799 42.39C10.8799 43.86 12.0799 45.06 13.5499 45.06C15.0199 45.06 16.2199 43.86 16.2199 42.39C16.2199 40.92 15.0199 39.72 13.5499 39.72C12.0799 39.72 10.8799 40.92 10.8799 42.39ZM15.0899 42.39C15.0899 43.24 14.3999 43.93 13.5499 43.93C12.6999 43.93 12.0099 43.24 12.0099 42.39C12.0099 41.54 12.6999 40.85 13.5499 40.85C14.3999 40.85 15.0899 41.54 15.0899 42.39Z" fill="#464860"/>
<path d="M9.61002 37.72C9.61002 36.25 8.41002 35.05 6.94002 35.05C5.47002 35.05 4.27002 36.25 4.27002 37.72C4.27002 39.19 5.47002 40.39 6.94002 40.39C8.41002 40.39 9.61002 39.19 9.61002 37.72ZM5.40002 37.72C5.40002 36.87 6.09002 36.18 6.94002 36.18C7.79002 36.18 8.48002 36.87 8.48002 37.72C8.48002 38.57 7.79002 39.26 6.94002 39.26C6.09002 39.26 5.40002 38.57 5.40002 37.72Z" fill="#464860"/>
<path d="M28.6001 41.67C28.6001 43.46 30.0601 44.92 31.8501 44.92C33.6401 44.92 35.1001 43.46 35.1001 41.67C35.1001 39.88 33.6401 38.42 31.8501 38.42C30.0601 38.42 28.6001 39.88 28.6001 41.67ZM33.9801 41.67C33.9801 42.84 33.0301 43.8 31.8501 43.8C30.6701 43.8 29.7201 42.84 29.7201 41.67C29.7201 40.5 30.6701 39.54 31.8501 39.54C33.0301 39.54 33.9801 40.49 33.9801 41.67Z" fill="#464860"/>
<path d="M17.3799 32.24C17.3799 30.45 15.9199 28.99 14.1299 28.99C12.3399 28.99 10.8799 30.45 10.8799 32.24C10.8799 34.03 12.3399 35.49 14.1299 35.49C15.9199 35.49 17.3799 34.03 17.3799 32.24ZM14.1299 34.37C12.9599 34.37 11.9999 33.41 11.9999 32.24C11.9999 31.07 12.9499 30.11 14.1299 30.11C15.3099 30.11 16.2599 31.07 16.2599 32.24C16.2499 33.41 15.2999 34.37 14.1299 34.37Z" fill="#464860"/>
<path d="M18.1001 38.68C18.1001 40.47 19.5601 41.93 21.3501 41.93C23.1401 41.93 24.6001 40.47 24.6001 38.68C24.6001 36.89 23.1401 35.43 21.3501 35.43C19.5601 35.43 18.1001 36.89 18.1001 38.68ZM23.4801 38.68C23.4801 39.85 22.5301 40.81 21.3501 40.81C20.1801 40.81 19.2201 39.85 19.2201 38.68C19.2201 37.51 20.1701 36.55 21.3501 36.55C22.5201 36.55 23.4801 37.51 23.4801 38.68Z" fill="#464860"/>
</svg>
