<svg width="78" height="78" viewBox="0 0 78 78" fill="none" xmlns="http://www.w3.org/2000/svg">
<rect width="78" height="78" fill="white"/>
<path d="M53.0789 38.3001C53.0789 37.8519 53.1235 37.4212 53.1681 36.9993C53.2038 36.639 53.2484 36.2874 53.2484 35.9886V35.8655L53.3644 35.8216C54.7205 35.3733 56.3175 35.1536 58.1198 35.1536H58.3428L58.2982 35.3645C58.093 36.3401 57.9592 37.3685 57.8164 38.4584C57.2811 42.5806 56.6833 47.2565 51.6514 49.5329C50.4737 50.0339 49.3138 50.2009 47.9131 50.3767L47.1279 50.4734L47.7971 50.0515C49.7153 48.8474 51.4908 46.9313 52.5525 44.9185C53.4268 43.2661 54.2209 40.7963 53.0967 38.3793L53.0789 38.3441V38.3001Z" fill="white"/>
<path d="M51.482 30.2229L51.8388 30.0471L52.0619 29.9417L52.0976 30.179C52.4812 32.6224 52.5883 34.7318 52.4366 36.8237L52.4009 37.272L52.1154 36.9204C51.4106 36.059 50.4202 35.2856 49.2336 34.6879C48.1095 35.1625 46.9585 35.6547 45.986 36.2963L45.8165 36.4106L45.7273 36.2348L45.5578 35.9008L45.5132 35.8129L45.5667 35.725C47.2708 33.2025 50.0009 31.1985 51.482 30.2229Z" fill="white"/>
<path d="M46.1021 26.7686L46.2359 26.6631L46.3519 26.7861C47.4136 27.9815 48.1452 29.3702 48.7341 31.3126L48.7698 31.4181L48.6805 31.4884C47.4404 32.5344 46.1467 33.6594 45.1831 34.9251L45.0226 35.136L44.8887 34.9075C44.2285 33.7737 43.3988 32.7893 42.4173 31.9806L42.3281 31.9015L42.3638 31.7873C42.9973 29.9151 44.2553 28.2188 46.1021 26.7686Z" fill="white"/>
<path d="M45.1024 36.8764L44.9775 36.9643C42.5329 38.5728 40.5254 40.8316 39.1693 43.5036L39.0087 43.82L38.8481 43.5036C37.492 40.8316 35.4846 38.564 33.0399 36.9643L32.915 36.8764L32.9775 36.7358C34.3961 33.765 36.5909 31.8841 38.8927 30.0647L38.9998 29.9768L39.1069 30.0647C41.4176 31.8841 43.6035 33.765 45.0221 36.7358L45.1024 36.8764Z" fill="white"/>
<path d="M35.1634 28.9659C35.8682 27.7266 37.1262 26.4258 38.9017 25.1074L39.0087 25.0283L39.1158 25.1074C40.8913 26.4258 42.1493 27.7179 42.8541 28.9659L42.9076 29.0626L42.8452 29.1505C42.5151 29.6339 42.185 30.2931 41.8548 31.1018L41.7567 31.3479L41.5693 31.1633C40.7931 30.3986 39.9991 29.757 39.0087 29.1066C38.0184 29.7658 37.2333 30.3986 36.4482 31.1633L36.2608 31.3479L36.1626 31.1018C35.8325 30.2931 35.5024 29.6339 35.1723 29.1505L35.1099 29.0626L35.1634 28.9659Z" fill="white"/>
<path d="M29.2752 31.4972C29.6142 29.669 30.435 28.3419 31.6573 26.7949L31.7644 26.6543L31.9071 26.7686C33.754 28.2276 35.012 29.9239 35.6544 31.8049L35.69 31.9191L35.6008 31.9982C34.6194 32.8068 33.7807 33.7912 33.1294 34.9251L32.9956 35.1536L32.835 34.9426C31.7733 33.5539 30.5332 32.5519 29.3465 31.673L29.2573 31.6115L29.2752 31.4972Z" fill="white"/>
<path d="M25.9202 30.179L25.9649 29.8977L26.1968 30.0647C28.5165 31.6995 30.9165 33.3871 32.4511 35.725L32.5046 35.8129L32.46 35.9008L32.2905 36.2348L32.2102 36.4018L32.0407 36.3051C30.8987 35.6635 29.9173 35.1801 28.7842 34.6967C27.6154 35.3559 26.6786 35.9975 25.8935 36.9292L25.608 37.2632L25.5723 36.8237C25.4295 34.7406 25.5366 32.6224 25.9202 30.179Z" fill="white"/>
<path d="M20.1835 38.3529C20.0407 37.307 19.9069 36.3225 19.7106 35.3645L19.666 35.1536H19.8801C21.6824 35.1536 23.2794 35.3821 24.6355 35.8216L24.7604 35.8655V35.9886C24.7604 36.2874 24.7961 36.639 24.8407 36.9993C24.8853 37.4212 24.93 37.8519 24.93 38.3001V38.3353L24.9121 38.3705C22.8511 42.9409 26.9552 47.8542 30.2117 50.0515L30.8184 50.4646L30.0958 50.3679C28.695 50.1921 27.5352 50.0251 26.3575 49.5329C21.3969 47.2213 20.7813 42.7124 20.1835 38.3529Z" fill="white"/>
<path d="M37.9739 52.1083C36.4126 54.332 32.4691 54.332 30.1137 54.332C28.4363 54.2704 26.6609 54.0771 24.9479 53.9013C22.8066 53.6728 20.585 53.4442 18.5152 53.4442C17.8817 53.4442 17.275 53.4706 16.7129 53.5146L16.3828 53.5321L16.5434 53.2421C18.5776 49.5945 21.2274 48.8123 23.556 48.531L23.6363 48.5222L23.6988 48.575C25.501 50.2098 27.8921 51.0799 30.6044 51.0799C31.0415 51.0799 31.4876 51.0535 31.9427 51.0096H31.9873L32.023 51.0272C33.6111 51.5985 35.217 51.8885 36.7962 51.8885C37.1352 51.8885 37.4832 51.871 37.8133 51.8446L38.188 51.8094L37.9739 52.1083Z" fill="white"/>
<path d="M38.5092 44.9537C37.9739 47.0631 37.8668 48.988 38.1791 50.8249L38.2059 50.9919L38.0363 51.0183C37.5456 51.1062 37.0282 51.1502 36.5196 51.1502C31.791 51.1502 26.7412 47.3444 25.4921 42.8354C24.6535 39.7855 25.7865 37.1839 28.6951 35.4963L28.7754 35.4524L28.8646 35.4963C33.9323 37.887 37.1709 41.0336 38.5092 44.8482L38.5271 44.9009L38.5092 44.9537Z" fill="white"/>
<path d="M38.9553 50.8601L38.8483 50.8337L38.8304 50.7283C37.5189 44.1275 43.0773 38.3265 49.162 35.5051L49.2512 35.47L49.3315 35.5139C52.2401 37.1927 53.391 39.7855 52.5524 42.8266C51.4371 46.8697 46.6817 51.1941 41.3732 51.1941C40.5345 51.1941 39.7226 51.0798 38.9553 50.8601Z" fill="white"/>
<path d="M61.617 53.5321L61.2868 53.5058C60.7605 53.4618 60.2251 53.4442 59.6541 53.4442C57.7181 53.4442 55.6928 53.6728 53.7389 53.8925C51.8028 54.1122 49.7954 54.332 47.8861 54.332C44.5493 54.332 41.2839 54.0595 40.0259 52.0995L39.8296 51.8006L40.1865 51.827C40.5255 51.8534 40.8645 51.871 41.2036 51.871C42.7828 51.871 44.3887 51.5809 45.9768 51.0096L46.0125 50.992H46.0571C46.53 51.036 46.9939 51.0623 47.4489 51.0623C50.1701 51.0623 52.4809 50.2186 54.3099 48.5574L54.3723 48.5046L54.4526 48.5134C56.7723 48.8035 59.4311 49.5857 61.4653 53.2245L61.617 53.5321Z" fill="white"/>
<path d="M53.7213 38.3001C53.7213 37.8519 53.7659 37.4212 53.8105 36.9993C53.8462 36.639 53.8908 36.2874 53.8908 35.9886V35.8655L54.0157 35.8216C55.3719 35.3733 56.9689 35.1536 58.7711 35.1536H58.9942L58.9496 35.3645C58.7444 36.3401 58.6105 37.3685 58.4678 38.4584C57.9325 42.5806 57.3347 47.2565 52.3027 49.5329C51.125 50.0339 49.9652 50.2009 48.5644 50.3767L47.7793 50.4734L48.4484 50.0515C50.3667 48.8474 52.1421 46.9313 53.2038 44.9185C54.0782 43.2661 54.8722 40.7963 53.7481 38.3793L53.7302 38.3441V38.3001H53.7213Z" fill="#CCB8F4"/>
<path d="M46.6905 26.7686L46.8243 26.6631L46.9403 26.7861C48.002 27.9815 48.7336 29.3702 49.3225 31.3126L49.3581 31.4181L49.2689 31.4884C48.0288 32.5344 46.7351 33.6594 45.7715 34.9251L45.6109 35.136L45.4771 34.9075C44.8169 33.7737 43.9871 32.7893 43.0057 31.9806L42.9165 31.9015L42.9522 31.7873C43.5767 29.9151 44.8347 28.2188 46.6905 26.7686Z" fill="#A3EFE0"/>
<path d="M35.1634 28.2365C35.8682 26.9972 37.1262 25.6963 38.9017 24.3779L39.0087 24.2988L39.1158 24.3779C40.8913 25.6963 42.1493 26.9884 42.8541 28.2365L42.9076 28.3331L42.8452 28.421C42.5151 28.9044 42.185 29.5636 41.8548 30.3723L41.7567 30.6184L41.5693 30.4338C40.7931 29.6691 39.9991 29.0275 39.0087 28.3771C38.0184 29.0363 37.2333 29.6691 36.4482 30.4338L36.2608 30.6184L36.1626 30.3723C35.8325 29.5636 35.5024 28.9044 35.1723 28.421L35.1099 28.3331L35.1634 28.2365Z" fill="#A3EFE0"/>
<path d="M28.5257 31.4972C28.8647 29.669 29.6855 28.3419 30.9078 26.7949L31.0149 26.6543L31.1576 26.7686C33.0045 28.2276 34.2625 29.9239 34.9048 31.8049L34.9405 31.9191L34.8513 31.9982C33.8699 32.8068 33.0312 33.7912 32.3799 34.9251L32.2461 35.1536L32.0855 34.9426C31.0238 33.5539 29.7836 32.5519 28.597 31.673L28.5078 31.6115L28.5257 31.4972Z" fill="#A3EFE0"/>
<path d="M19.5414 38.3529C19.3986 37.307 19.2648 36.3225 19.0685 35.3645L19.0239 35.1536H19.2381C21.0403 35.1536 22.6373 35.3821 23.9934 35.8216L24.1183 35.8655V35.9886C24.1183 36.2874 24.154 36.639 24.1986 36.9993C24.2433 37.4212 24.2879 37.8519 24.2879 38.3001V38.3353L24.27 38.3705C22.2091 42.9409 26.3131 47.8542 29.5697 50.0515L30.1763 50.4646L29.4537 50.3679C28.0529 50.1921 26.8931 50.0251 25.7154 49.5329C20.7548 47.2213 20.1392 42.7124 19.5414 38.3529Z" fill="#CCB8F4"/>
<path d="M36.9124 52.5389C35.351 54.7626 31.4075 54.7626 29.0521 54.7626C27.3748 54.7011 25.5994 54.5077 23.8863 54.332C21.7451 54.1034 19.5235 53.8749 17.4536 53.8749C16.8202 53.8749 16.2135 53.9013 15.6514 53.9452L15.3213 53.9716L15.4819 53.6815C17.5161 50.034 20.1659 49.2517 22.4945 48.9705L22.5748 48.9617L22.6373 49.0144C24.4395 50.6492 26.8306 51.5194 29.5429 51.5194C29.98 51.5194 30.4261 51.493 30.8811 51.4491H30.9258L30.9614 51.4666C32.5495 52.0379 34.1555 52.328 35.7347 52.328C36.0737 52.328 36.4217 52.3104 36.7518 52.284L37.1265 52.2489L36.9124 52.5389Z" fill="#A3EFE0"/>
<path d="M37.7509 44.9625C37.2156 47.0719 37.1085 48.9968 37.4208 50.8337L37.4476 51.0007L37.278 51.0271C36.7873 51.115 36.2699 51.1589 35.7613 51.1589C31.0327 51.1589 25.9829 47.3532 24.7338 42.8442C23.8951 39.7943 25.0282 37.1927 27.9368 35.5051L28.0171 35.4612L28.1063 35.5051C33.174 37.8958 36.4126 41.0424 37.7509 44.857L37.7688 44.9097L37.7509 44.9625Z" fill="#CCB8F4"/>
<path d="M39.7942 50.8601L39.6871 50.8337L39.6693 50.7283C38.3578 44.1275 43.9161 38.3265 50.0009 35.5051L50.0901 35.47L50.1704 35.5139C53.079 37.1927 54.2299 39.7855 53.3912 42.8266C52.276 46.8697 47.5206 51.1941 42.212 51.1941C41.3823 51.1941 40.5704 51.0798 39.7942 50.8601Z" fill="#CCB8F4"/>
<path d="M62.6877 53.954L62.3576 53.9276C61.8312 53.8837 61.2959 53.8661 60.7249 53.8661C58.7889 53.8661 56.7636 54.0946 54.8097 54.3144C52.8736 54.5341 50.8662 54.7538 48.9569 54.7538C45.6201 54.7538 42.3547 54.4814 41.0967 52.5214L40.9004 52.2225L41.2573 52.2489C41.5963 52.2753 41.9353 52.2928 42.2744 52.2928C43.8535 52.2928 45.4595 52.0028 47.0476 51.4315L47.0833 51.4139H47.1279C47.6008 51.4578 48.0647 51.4842 48.5197 51.4842C51.2409 51.4842 53.5517 50.6404 55.3807 48.9792L55.4431 48.9265L55.5234 48.9353C57.8431 49.2254 60.5019 50.0076 62.5361 53.6464L62.6877 53.954Z" fill="#A3EFE0"/>
<path d="M55.3985 47.8894L55.0952 47.8279L55.3004 47.5994C57.7717 44.7868 58.0572 42.15 58.3249 39.5923C58.5212 37.7729 58.6996 36.0414 59.6543 34.3451C57.5398 34.3451 55.3717 34.3714 53.4803 34.9955L53.2483 35.0746V34.8285C53.2483 32.8245 53.0431 31.049 52.5792 29.089L52.4632 28.421L52.0349 28.8429C51.8654 29.0099 51.5175 29.3527 51 29.6867C50.8126 29.7746 50.5896 29.9592 50.3487 30.1525C50.1346 30.3195 49.8937 30.5217 49.6617 30.6711L49.4654 30.8029L49.3941 30.592C48.7695 28.7462 47.8595 27.3048 46.3517 25.8018C45.2543 26.4346 44.2907 27.2345 43.4967 28.1749L43.3361 28.3683L43.2112 28.1574C42.4349 26.8829 41.1413 25.8018 39.8922 24.7559C39.5888 24.501 39.2944 24.2461 39 24C38.7145 24.2461 38.4112 24.501 38.1167 24.7471C36.8677 25.793 35.574 26.8741 34.7978 28.1486L34.6729 28.3595L34.5123 28.1661C33.7182 27.2257 32.7546 26.4259 31.6572 25.793C30.1673 27.1466 29.3108 28.5441 28.6149 30.7502L28.5346 31.0051L28.3294 30.8381C27.4104 30.0822 26.4647 29.3088 25.5279 28.4035C25.0193 30.6535 24.7606 32.8157 24.7606 34.8285V35.0746L24.5286 34.9955C22.6283 34.3714 20.4513 34.3451 18.3368 34.3451C19.1309 35.9799 19.3717 37.6762 19.6126 39.478C19.9784 42.1412 20.3621 44.901 22.7085 47.5994L22.9048 47.8279L22.6104 47.8894C18.5955 48.6805 16.8022 50.7987 15 54.4287C16.1242 54.2617 17.3197 54.1826 18.6491 54.1826C20.7814 54.1826 22.9673 54.3935 25.0729 54.5957C26.7413 54.7539 28.4721 54.9209 30.1227 54.9736C30.5777 54.9912 31.0149 55 31.452 55C35.4848 55 37.8312 54.1299 38.8483 52.2577L39.0089 51.9677L39.1695 52.2577C40.1866 54.1299 42.5331 55 46.5658 55C47.003 55 47.4401 54.9912 47.8952 54.9736C49.7152 54.9209 51.4729 54.7275 53.1769 54.543C55.2022 54.3232 57.1204 54.1123 59.1279 54.1123C60.5019 54.1123 61.7777 54.209 63.0178 54.4199C61.2067 50.7987 59.4134 48.6805 55.3985 47.8894ZM53.0788 38.3003C53.0788 37.852 53.1234 37.4213 53.168 36.9994C53.2037 36.6391 53.2483 36.2875 53.2483 35.9887V35.8656L53.3643 35.8217C54.7204 35.3734 56.3175 35.1537 58.1197 35.1537H58.3428L58.2981 35.3646C58.0929 36.3402 57.9591 37.3686 57.8164 38.4585C57.281 42.5807 56.6833 47.2566 51.6513 49.533C50.4736 50.034 49.3138 50.201 47.913 50.3768L47.1279 50.4735L47.797 50.0516C49.7152 48.8475 51.4907 46.9314 52.5524 44.9186C53.4268 43.2662 54.2208 40.7964 53.0967 38.3794L53.0788 38.3442V38.3003ZM51.4818 30.2229L51.8387 30.0471L52.0617 29.9416L52.0974 30.1789C52.481 32.6223 52.5881 34.7318 52.4364 36.8236L52.4007 37.2719L52.1152 36.9203C51.4104 36.059 50.4201 35.2855 49.2335 34.6878C48.1093 35.1625 46.9584 35.6547 45.9859 36.2963L45.8164 36.4105L45.7271 36.2348L45.5576 35.9008L45.513 35.8129L45.5665 35.725C47.2706 33.2024 50.0007 31.1985 51.4818 30.2229ZM46.1019 26.7686L46.2357 26.6632L46.3517 26.7862C47.4134 27.9816 48.145 29.3703 48.7338 31.3127L48.7695 31.4182L48.6803 31.4885C47.4401 32.5344 46.1465 33.6595 45.1829 34.9251L45.0223 35.1361L44.8885 34.9076C44.2283 33.7737 43.3985 32.7893 42.4171 31.9807L42.3279 31.9016L42.3636 31.7874C42.997 29.9152 44.255 28.2189 46.1019 26.7686ZM45.1026 36.8764L44.9777 36.9643C42.5331 38.5727 40.5257 40.8316 39.1695 43.5035L39.0089 43.82L38.8483 43.5035C37.4922 40.8316 35.4848 38.5639 33.0401 36.9643L32.9152 36.8764L32.9777 36.7358C34.3963 33.765 36.5911 31.884 38.8929 30.0646L39 29.9768L39.1071 30.0646C41.4178 31.884 43.6037 33.765 45.0223 36.7358L45.1026 36.8764ZM35.1636 28.966C35.8684 27.7267 37.1264 26.4259 38.9019 25.1075L39.0089 25.0284L39.116 25.1075C40.8914 26.4259 42.1494 27.7179 42.8543 28.966L42.9078 29.0627L42.8454 29.1506C42.5152 29.634 42.1851 30.2932 41.855 31.1018L41.7569 31.3479L41.5695 31.1633C40.7933 30.3986 39.9993 29.757 39.0089 29.1066C38.0186 29.7658 37.2335 30.3986 36.4483 31.1633L36.261 31.3479L36.1628 31.1018C35.8327 30.2932 35.5026 29.634 35.1725 29.1506L35.11 29.0627L35.1636 28.966ZM29.2751 31.4973C29.6141 29.6691 30.4349 28.3419 31.6572 26.795L31.7643 26.6544L31.9071 26.7686C33.7539 28.2277 35.0119 29.924 35.6543 31.8049L35.69 31.9192L35.6007 31.9983C34.6193 32.8069 33.7807 33.7913 33.1294 34.9251L32.9955 35.1537L32.8349 34.9427C31.7732 33.554 30.5331 32.552 29.3465 31.6731L29.2572 31.6116L29.2751 31.4973ZM25.9204 30.1789L25.9651 29.8976L26.197 30.0646C28.5167 31.6995 30.9167 33.387 32.4513 35.725L32.5048 35.8129L32.4602 35.9008L32.2907 36.2348L32.2104 36.4018L32.0409 36.3051C30.8989 35.6635 29.9175 35.18 28.7844 34.6966C27.6156 35.3558 26.6788 35.9974 25.8937 36.9291L25.6082 37.2631L25.5725 36.8236C25.4297 34.7406 25.5368 32.6223 25.9204 30.1789ZM20.1836 38.353C20.0409 37.3071 19.9071 36.3227 19.7108 35.3646L19.6662 35.1537H19.8803C21.6825 35.1537 23.2796 35.3822 24.6357 35.8217L24.7606 35.8656V35.9887C24.7606 36.2875 24.7963 36.6391 24.8409 36.9994C24.8855 37.4213 24.9301 37.852 24.9301 38.3003V38.3354L24.9123 38.3706C22.8513 42.941 26.9554 47.8543 30.2119 50.0516L30.8186 50.4647L30.0959 50.368C28.6952 50.1922 27.5353 50.0252 26.3576 49.533C21.397 47.2214 20.7814 42.7125 20.1836 38.353ZM37.974 52.1083C36.4126 54.332 32.4691 54.332 30.1138 54.332C28.4364 54.2705 26.661 54.0771 24.948 53.9013C22.8067 53.6728 20.5851 53.4443 18.5152 53.4443C17.8818 53.4443 17.2751 53.4707 16.713 53.5146L16.3829 53.5322L16.5435 53.2421C18.5777 49.5946 21.2275 48.8123 23.5561 48.531L23.6364 48.5223L23.6989 48.575C25.5011 50.2098 27.8922 51.08 30.6045 51.08C31.0416 51.08 31.4877 51.0536 31.9427 51.0096H31.9874L32.023 51.0272C33.6112 51.5985 35.2171 51.8886 36.7963 51.8886C37.1353 51.8886 37.4833 51.871 37.8134 51.8446L38.1881 51.8095L37.974 52.1083ZM38.5093 44.9538C37.974 47.0632 37.8669 48.9881 38.1792 50.8251L38.2059 50.9921L38.0364 51.0184C37.5457 51.1063 37.0283 51.1503 36.5197 51.1503C31.7911 51.1503 26.7413 47.3445 25.4922 42.8356C24.6535 39.7857 25.7866 37.184 28.6952 35.4965L28.7755 35.4525L28.8647 35.4965C33.9323 37.8872 37.171 41.0337 38.5093 44.8483L38.5271 44.901L38.5093 44.9538ZM38.9554 50.8602L38.8483 50.8339L38.8305 50.7284C37.519 44.1276 43.0773 38.3266 49.1621 35.5052L49.2513 35.4701L49.3316 35.514C52.2401 37.1928 53.3911 39.7857 52.5524 42.8268C51.4372 46.8699 46.6818 51.1942 41.3732 51.1942C40.5346 51.1942 39.7227 51.08 38.9554 50.8602ZM61.6171 53.5322L61.287 53.5058C60.7606 53.4619 60.2253 53.4443 59.6543 53.4443C57.7182 53.4443 55.6929 53.6728 53.739 53.8925C51.803 54.1123 49.7955 54.332 47.8862 54.332C44.5494 54.332 41.284 54.0595 40.026 52.0995L39.8297 51.8007L40.1866 51.827C40.5256 51.8534 40.8647 51.871 41.2037 51.871C42.7829 51.871 44.3888 51.5809 45.977 51.0096L46.0126 50.9921H46.0572C46.5301 51.036 46.994 51.0624 47.4491 51.0624C50.1703 51.0624 52.481 50.2186 54.31 48.5574L54.3725 48.5047L54.4528 48.5135C56.7725 48.8035 59.4312 49.5858 61.4654 53.2246L61.6171 53.5322Z" fill="#464860"/>
</svg>
