<svg width="49" height="31" viewBox="0 0 49 31" fill="none" xmlns="http://www.w3.org/2000/svg">
<path d="M38.0789 14.3001C38.0789 13.8519 38.1235 13.4212 38.1681 12.9993C38.2038 12.639 38.2484 12.2874 38.2484 11.9886V11.8655L38.3644 11.8216C39.7205 11.3733 41.3175 11.1536 43.1198 11.1536H43.3428L43.2982 11.3645C43.093 12.3401 42.9592 13.3685 42.8164 14.4584C42.2811 18.5806 41.6833 23.2565 36.6514 25.5329C35.4737 26.0339 34.3138 26.2009 32.9131 26.3767L32.1279 26.4734L32.7971 26.0515C34.7153 24.8474 36.4908 22.9313 37.5525 20.9185C38.4268 19.2661 39.2209 16.7963 38.0967 14.3793L38.0789 14.3441V14.3001Z" fill="white"/>
<path d="M36.482 6.22291L36.8388 6.04712L37.0619 5.94165L37.0976 6.17896C37.4812 8.6224 37.5883 10.7318 37.4366 12.8237L37.4009 13.272L37.1154 12.9204C36.4106 12.059 35.4202 11.2856 34.2336 10.6879C33.1095 11.1625 31.9585 11.6547 30.986 12.2963L30.8165 12.4106L30.7273 12.2348L30.5578 11.9008L30.5132 11.8129L30.5667 11.725C32.2708 9.2025 35.0009 7.19853 36.482 6.22291Z" fill="white"/>
<path d="M31.1021 2.76856L31.2359 2.66309L31.3519 2.78614C32.4136 3.98149 33.1452 5.3702 33.7341 7.31265L33.7698 7.41812L33.6805 7.48843C32.4404 8.53437 31.1467 9.6594 30.1831 10.9251L30.0226 11.136L29.8887 10.9075C29.2285 9.77366 28.3988 8.78926 27.4173 7.98064L27.3281 7.90153L27.3638 7.78727C27.9973 5.91514 29.2553 4.2188 31.1021 2.76856Z" fill="white"/>
<path d="M30.1024 12.8764L29.9775 12.9643C27.5329 14.5728 25.5254 16.8316 24.1693 19.5036L24.0087 19.82L23.8481 19.5036C22.492 16.8316 20.4846 14.564 18.0399 12.9643L17.915 12.8764L17.9775 12.7358C19.3961 9.76501 21.5909 7.88409 23.8927 6.0647L23.9998 5.97681L24.1069 6.0647C26.4176 7.88409 28.6035 9.76501 30.0221 12.7358L30.1024 12.8764Z" fill="white"/>
<path d="M20.1634 4.96594C20.8682 3.72665 22.1262 2.42583 23.9017 1.10742L24.0087 1.02832L24.1158 1.10742C25.8913 2.42583 27.1493 3.71786 27.8541 4.96594L27.9076 5.06263L27.8452 5.15052C27.5151 5.63393 27.185 6.29314 26.8548 7.10175L26.7567 7.34786L26.5693 7.16328C25.7931 6.39861 24.9991 5.75699 24.0087 5.10657C23.0184 5.76577 22.2333 6.39861 21.4482 7.16328L21.2608 7.34786L21.1626 7.10175C20.8325 6.29314 20.5024 5.63393 20.1723 5.15052L20.1099 5.06263L20.1634 4.96594Z" fill="white"/>
<path d="M14.2752 7.49722C14.6142 5.66904 15.435 4.34185 16.6573 2.79493L16.7644 2.6543L16.9071 2.76856C18.754 4.22759 20.012 5.92393 20.6544 7.80485L20.69 7.91911L20.6008 7.99822C19.6194 8.80684 18.7807 9.79124 18.1294 10.9251L17.9956 11.1536L17.835 10.9426C16.7733 9.55393 15.5332 8.55194 14.3465 7.67301L14.2573 7.61148L14.2752 7.49722Z" fill="white"/>
<path d="M10.9202 6.17896L10.9649 5.89771L11.1968 6.0647C13.5165 7.69952 15.9165 9.38707 17.4511 11.725L17.5046 11.8129L17.46 11.9008L17.2905 12.2348L17.2102 12.4018L17.0407 12.3051C15.8987 11.6635 14.9173 11.1801 13.7842 10.6967C12.6154 11.3559 11.6786 11.9975 10.8935 12.9292L10.608 13.2632L10.5723 12.8237C10.4295 10.7406 10.5366 8.6224 10.9202 6.17896Z" fill="white"/>
<path d="M5.18349 14.3529C5.04074 13.307 4.90691 12.3225 4.71063 11.3645L4.66602 11.1536H4.88014C6.68237 11.1536 8.2794 11.3821 9.63553 11.8216L9.76044 11.8655V11.9886C9.76044 12.2874 9.79613 12.639 9.84074 12.9993C9.88535 13.4212 9.92996 13.8519 9.92996 14.3001V14.3353L9.91211 14.3705C7.85115 18.9409 11.9552 23.8542 15.2117 26.0515L15.8184 26.4646L15.0958 26.3679C13.695 26.1921 12.5352 26.0251 11.3575 25.5329C6.39687 23.2213 5.78126 18.7124 5.18349 14.3529Z" fill="white"/>
<path d="M22.9739 28.1083C21.4126 30.332 17.4691 30.332 15.1137 30.332C13.4363 30.2704 11.6609 30.0771 9.94787 29.9013C7.8066 29.6728 5.58504 29.4442 3.51515 29.4442C2.8817 29.4442 2.27501 29.4706 1.71292 29.5146L1.38281 29.5321L1.54341 29.2421C3.57761 25.5945 6.22742 24.8123 8.55605 24.531L8.63634 24.5222L8.6988 24.575C10.501 26.2098 12.8921 27.0799 15.6044 27.0799C16.0415 27.0799 16.4876 27.0535 16.9427 27.0096H16.9873L17.023 27.0272C18.6111 27.5985 20.217 27.8885 21.7962 27.8885C22.1352 27.8885 22.4832 27.871 22.8133 27.8446L23.188 27.8094L22.9739 28.1083Z" fill="white"/>
<path d="M23.5092 20.9537C22.9739 23.0631 22.8668 24.988 23.1791 26.8249L23.2059 26.9919L23.0363 27.0183C22.5456 27.1062 22.0282 27.1502 21.5196 27.1502C16.791 27.1502 11.7412 23.3444 10.4921 18.8354C9.65345 15.7855 10.7865 13.1839 13.6951 11.4963L13.7754 11.4524L13.8646 11.4963C18.9323 13.887 22.1709 17.0336 23.5092 20.8482L23.5271 20.9009L23.5092 20.9537Z" fill="white"/>
<path d="M23.9553 26.8601L23.8483 26.8337L23.8304 26.7283C22.5189 20.1275 28.0773 14.3265 34.162 11.5051L34.2512 11.47L34.3315 11.5139C37.2401 13.1927 38.391 15.7855 37.5524 18.8266C36.4371 22.8697 31.6817 27.1941 26.3732 27.1941C25.5345 27.1941 24.7226 27.0798 23.9553 26.8601Z" fill="white"/>
<path d="M46.617 29.5321L46.2868 29.5058C45.7605 29.4618 45.2251 29.4442 44.6541 29.4442C42.7181 29.4442 40.6928 29.6728 38.7389 29.8925C36.8028 30.1122 34.7954 30.332 32.8861 30.332C29.5493 30.332 26.2839 30.0595 25.0259 28.0995L24.8296 27.8006L25.1865 27.827C25.5255 27.8534 25.8645 27.871 26.2036 27.871C27.7828 27.871 29.3887 27.5809 30.9768 27.0096L31.0125 26.992H31.0571C31.53 27.036 31.9939 27.0623 32.4489 27.0623C35.1701 27.0623 37.4809 26.2186 39.3099 24.5574L39.3723 24.5046L39.4526 24.5134C41.7723 24.8035 44.4311 25.5857 46.4653 29.2245L46.617 29.5321Z" fill="white"/>
<path d="M38.7213 14.3001C38.7213 13.8519 38.7659 13.4212 38.8105 12.9993C38.8462 12.639 38.8908 12.2874 38.8908 11.9886V11.8655L39.0157 11.8216C40.3719 11.3733 41.9689 11.1536 43.7711 11.1536H43.9942L43.9496 11.3645C43.7444 12.3401 43.6105 13.3685 43.4678 14.4584C42.9325 18.5806 42.3347 23.2565 37.3027 25.5329C36.125 26.0339 34.9652 26.2009 33.5644 26.3767L32.7793 26.4734L33.4484 26.0515C35.3667 24.8474 37.1421 22.9313 38.2038 20.9185C39.0782 19.2661 39.8722 16.7963 38.7481 14.3793L38.7302 14.3441V14.3001H38.7213Z" fill="#CCB8F4"/>
<path d="M31.6905 2.76856L31.8243 2.66309L31.9403 2.78614C33.002 3.98149 33.7336 5.3702 34.3225 7.31265L34.3581 7.41812L34.2689 7.48843C33.0288 8.53437 31.7351 9.6594 30.7715 10.9251L30.6109 11.136L30.4771 10.9075C29.8169 9.77366 28.9871 8.78926 28.0057 7.98064L27.9165 7.90153L27.9522 7.78727C28.5767 5.91514 29.8347 4.2188 31.6905 2.76856Z" fill="#A3EFE0"/>
<path d="M20.1634 4.23645C20.8682 2.99716 22.1262 1.69633 23.9017 0.377932L24.0087 0.298828L24.1158 0.377932C25.8913 1.69633 27.1493 2.98837 27.8541 4.23645L27.9076 4.33313L27.8452 4.42103C27.5151 4.90444 27.185 5.56364 26.8548 6.37226L26.7567 6.61836L26.5693 6.43379C25.7931 5.66911 24.9991 5.02749 24.0087 4.37708C23.0184 5.03628 22.2333 5.66911 21.4482 6.43379L21.2608 6.61836L21.1626 6.37226C20.8325 5.56364 20.5024 4.90444 20.1723 4.42103L20.1099 4.33313L20.1634 4.23645Z" fill="#A3EFE0"/>
<path d="M13.5257 7.49722C13.8647 5.66904 14.6855 4.34185 15.9078 2.79493L16.0149 2.6543L16.1576 2.76856C18.0045 4.22759 19.2625 5.92393 19.9048 7.80485L19.9405 7.91911L19.8513 7.99822C18.8699 8.80684 18.0312 9.79124 17.3799 10.9251L17.2461 11.1536L17.0855 10.9426C16.0238 9.55393 14.7836 8.55194 13.597 7.67301L13.5078 7.61148L13.5257 7.49722Z" fill="#A3EFE0"/>
<path d="M4.5414 14.3529C4.39865 13.307 4.26482 12.3225 4.06854 11.3645L4.02393 11.1536H4.23805C6.04028 11.1536 7.63731 11.3821 8.99344 11.8216L9.11835 11.8655V11.9886C9.11835 12.2874 9.15404 12.639 9.19865 12.9993C9.24326 13.4212 9.28787 13.8519 9.28787 14.3001V14.3353L9.27002 14.3705C7.20906 18.9409 11.3131 23.8542 14.5697 26.0515L15.1763 26.4646L14.4537 26.3679C13.0529 26.1921 11.8931 26.0251 10.7154 25.5329C5.75478 23.2213 5.13917 18.7124 4.5414 14.3529Z" fill="#CCB8F4"/>
<path d="M21.9124 28.5389C20.351 30.7626 16.4075 30.7626 14.0521 30.7626C12.3748 30.7011 10.5994 30.5077 8.88635 30.332C6.74508 30.1034 4.52352 29.8749 2.45363 29.8749C1.82017 29.8749 1.21348 29.9013 0.651401 29.9452L0.321289 29.9716L0.481884 29.6815C2.51608 26.034 5.1659 25.2517 7.49452 24.9705L7.57482 24.9617L7.63728 25.0144C9.43951 26.6492 11.8306 27.5194 14.5429 27.5194C14.98 27.5194 15.4261 27.493 15.8811 27.4491H15.9258L15.9614 27.4666C17.5495 28.0379 19.1555 28.328 20.7347 28.328C21.0737 28.328 21.4217 28.3104 21.7518 28.284L22.1265 28.2489L21.9124 28.5389Z" fill="#A3EFE0"/>
<path d="M22.7509 20.9625C22.2156 23.0719 22.1085 24.9968 22.4208 26.8337L22.4476 27.0007L22.278 27.0271C21.7873 27.115 21.2699 27.1589 20.7613 27.1589C16.0327 27.1589 10.9829 23.3532 9.73381 18.8442C8.89515 15.7943 10.0282 13.1927 12.9368 11.5051L13.0171 11.4612L13.1063 11.5051C18.174 13.8958 21.4126 17.0424 22.7509 20.857L22.7688 20.9097L22.7509 20.9625Z" fill="#CCB8F4"/>
<path d="M24.7942 26.8601L24.6871 26.8337L24.6693 26.7283C23.3578 20.1275 28.9161 14.3265 35.0009 11.5051L35.0901 11.47L35.1704 11.5139C38.079 13.1927 39.2299 15.7855 38.3912 18.8266C37.276 22.8697 32.5206 27.1941 27.212 27.1941C26.3823 27.1941 25.5704 27.0798 24.7942 26.8601Z" fill="#CCB8F4"/>
<path d="M47.6877 29.954L47.3576 29.9276C46.8312 29.8837 46.2959 29.8661 45.7249 29.8661C43.7889 29.8661 41.7636 30.0946 39.8097 30.3144C37.8736 30.5341 35.8662 30.7538 33.9569 30.7538C30.6201 30.7538 27.3547 30.4814 26.0967 28.5214L25.9004 28.2225L26.2573 28.2489C26.5963 28.2753 26.9353 28.2928 27.2744 28.2928C28.8535 28.2928 30.4595 28.0028 32.0476 27.4315L32.0833 27.4139H32.1279C32.6008 27.4578 33.0647 27.4842 33.5197 27.4842C36.2409 27.4842 38.5517 26.6404 40.3807 24.9792L40.4431 24.9265L40.5234 24.9353C42.8431 25.2254 45.5019 26.0076 47.5361 29.6464L47.6877 29.954Z" fill="#A3EFE0"/>
<path d="M40.3985 23.8894L40.0952 23.8279L40.3004 23.5994C42.7717 20.7868 43.0572 18.15 43.3249 15.5923C43.5212 13.7729 43.6996 12.0414 44.6543 10.3451C42.5398 10.3451 40.3717 10.3714 38.4803 10.9955L38.2483 11.0746V10.8285C38.2483 8.8245 38.0431 7.04905 37.5792 5.08903L37.4632 4.42104L37.0349 4.84293C36.8654 5.00992 36.5175 5.35271 36 5.6867C35.8126 5.7746 35.5896 5.95917 35.3487 6.15254C35.1346 6.31953 34.8937 6.52169 34.6617 6.67111L34.4654 6.80295L34.3941 6.592C33.7695 4.74624 32.8595 3.30479 31.3517 1.80181C30.2543 2.43465 29.2907 3.23448 28.4967 4.17494L28.3361 4.3683L28.2112 4.15736C27.4349 2.8829 26.1413 1.80181 24.8922 0.755883C24.5888 0.500992 24.2944 0.246101 24 0C23.7145 0.246101 23.4112 0.500992 23.1167 0.747094C21.8677 1.79303 20.574 2.87411 19.7978 4.14857L19.6729 4.35951L19.5123 4.16615C18.7182 3.22569 17.7546 2.42586 16.6572 1.79303C15.1673 3.14658 14.3108 4.54409 13.6149 6.75021L13.5346 7.0051L13.3294 6.83811C12.4104 6.08222 11.4647 5.30876 10.5279 4.40346C10.0193 6.65353 9.76059 8.81571 9.76059 10.8285V11.0746L9.52862 10.9955C7.62825 10.3714 5.4513 10.3451 3.3368 10.3451C4.13085 11.9799 4.37175 13.6762 4.61264 15.478C4.97844 18.1412 5.36208 20.901 7.70855 23.5994L7.90483 23.8279L7.61041 23.8894C3.59554 24.6805 1.80223 26.7987 0 30.4287C1.12416 30.2617 2.3197 30.1826 3.64907 30.1826C5.78141 30.1826 7.96729 30.3935 10.0729 30.5957C11.7413 30.7539 13.4721 30.9209 15.1227 30.9736C15.5777 30.9912 16.0149 31 16.452 31C20.4848 31 22.8312 30.1299 23.8483 28.2577L24.0089 27.9677L24.1695 28.2577C25.1866 30.1299 27.5331 31 31.5658 31C32.003 31 32.4401 30.9912 32.8952 30.9736C34.7152 30.9209 36.4729 30.7275 38.1769 30.543C40.2022 30.3232 42.1204 30.1123 44.1279 30.1123C45.5019 30.1123 46.7777 30.209 48.0178 30.4199C46.2067 26.7987 44.4134 24.6805 40.3985 23.8894ZM38.0788 14.3003C38.0788 13.852 38.1234 13.4213 38.168 12.9994C38.2037 12.6391 38.2483 12.2875 38.2483 11.9887V11.8656L38.3643 11.8217C39.7204 11.3734 41.3175 11.1537 43.1197 11.1537H43.3428L43.2981 11.3646C43.0929 12.3402 42.9591 13.3686 42.8164 14.4585C42.281 18.5807 41.6833 23.2566 36.6513 25.533C35.4736 26.034 34.3138 26.201 32.913 26.3768L32.1279 26.4735L32.797 26.0516C34.7152 24.8475 36.4907 22.9314 37.5524 20.9186C38.4268 19.2662 39.2208 16.7964 38.0967 14.3794L38.0788 14.3442V14.3003ZM36.4818 6.22285L36.8387 6.04707L37.0617 5.94159L37.0974 6.17891C37.481 8.62234 37.5881 10.7318 37.4364 12.8236L37.4007 13.2719L37.1152 12.9203C36.4104 12.059 35.4201 11.2855 34.2335 10.6878C33.1093 11.1625 31.9584 11.6547 30.9859 12.2963L30.8164 12.4105L30.7271 12.2348L30.5576 11.9008L30.513 11.8129L30.5665 11.725C32.2706 9.20244 35.0007 7.19847 36.4818 6.22285ZM31.1019 2.76864L31.2357 2.66317L31.3517 2.78622C32.4134 3.98157 33.145 5.37029 33.7338 7.31273L33.7695 7.4182L33.6803 7.48852C32.4401 8.53445 31.1465 9.65948 30.1829 10.9251L30.0223 11.1361L29.8885 10.9076C29.2283 9.77374 28.3985 8.78934 27.4171 7.98072L27.3279 7.90162L27.3636 7.78735C27.997 5.91522 29.255 4.21888 31.1019 2.76864ZM30.1026 12.8764L29.9777 12.9643C27.5331 14.5727 25.5257 16.8316 24.1695 19.5035L24.0089 19.82L23.8483 19.5035C22.4922 16.8316 20.4848 14.5639 18.0401 12.9643L17.9152 12.8764L17.9777 12.7358C19.3963 9.76496 21.5911 7.88404 23.8929 6.06464L24 5.97675L24.1071 6.06464C26.4178 7.88404 28.6037 9.76496 30.0223 12.7358L30.1026 12.8764ZM20.1636 4.96598C20.8684 3.72668 22.1264 2.42586 23.9019 1.10746L24.0089 1.02835L24.116 1.10746C25.8914 2.42586 27.1494 3.71789 27.8543 4.96598L27.9078 5.06266L27.8454 5.15055C27.5152 5.63397 27.1851 6.29317 26.855 7.10179L26.7569 7.34789L26.5695 7.16331C25.7933 6.39864 24.9993 5.75702 24.0089 5.10661C23.0186 5.76581 22.2335 6.39864 21.4483 7.16331L21.261 7.34789L21.1628 7.10179C20.8327 6.29317 20.5026 5.63397 20.1725 5.15055L20.11 5.06266L20.1636 4.96598ZM14.2751 7.49731C14.6141 5.66912 15.4349 4.34193 16.6572 2.79501L16.7643 2.65438L16.9071 2.76864C18.7539 4.22767 20.0119 5.92401 20.6543 7.80493L20.69 7.91919L20.6007 7.9983C19.6193 8.80692 18.7807 9.79132 18.1294 10.9251L17.9955 11.1537L17.8349 10.9427C16.7732 9.55401 15.5331 8.55203 14.3465 7.67309L14.2572 7.61157L14.2751 7.49731ZM10.9204 6.17891L10.9651 5.89765L11.197 6.06464C13.5167 7.69946 15.9167 9.38701 17.4513 11.725L17.5048 11.8129L17.4602 11.9008L17.2907 12.2348L17.2104 12.4018L17.0409 12.3051C15.8989 11.6635 14.9175 11.18 13.7844 10.6966C12.6156 11.3558 11.6788 11.9974 10.8937 12.9291L10.6082 13.2631L10.5725 12.8236C10.4297 10.7406 10.5368 8.62234 10.9204 6.17891ZM5.18364 14.353C5.04089 13.3071 4.90706 12.3227 4.71078 11.3646L4.66617 11.1537H4.8803C6.68253 11.1537 8.27955 11.3822 9.63569 11.8217L9.76059 11.8656V11.9887C9.76059 12.2875 9.79628 12.6391 9.84089 12.9994C9.8855 13.4213 9.93011 13.852 9.93011 14.3003V14.3354L9.91227 14.3706C7.8513 18.941 11.9554 23.8543 15.2119 26.0516L15.8186 26.4647L15.0959 26.368C13.6952 26.1922 12.5353 26.0252 11.3576 25.533C6.39703 23.2214 5.78141 18.7125 5.18364 14.353ZM22.974 28.1083C21.4126 30.332 17.4691 30.332 15.1138 30.332C13.4364 30.2705 11.661 30.0771 9.94795 29.9013C7.80669 29.6728 5.58513 29.4443 3.51524 29.4443C2.88178 29.4443 2.27509 29.4707 1.71301 29.5146L1.3829 29.5322L1.54349 29.2421C3.57769 25.5946 6.22751 24.8123 8.55613 24.531L8.63643 24.5223L8.69888 24.575C10.5011 26.2098 12.8922 27.08 15.6045 27.08C16.0416 27.08 16.4877 27.0536 16.9427 27.0096H16.9874L17.023 27.0272C18.6112 27.5985 20.2171 27.8886 21.7963 27.8886C22.1353 27.8886 22.4833 27.871 22.8134 27.8446L23.1881 27.8095L22.974 28.1083ZM23.5093 20.9538C22.974 23.0632 22.8669 24.9881 23.1792 26.8251L23.2059 26.9921L23.0364 27.0184C22.5457 27.1063 22.0283 27.1503 21.5197 27.1503C16.7911 27.1503 11.7413 23.3445 10.4922 18.8356C9.65353 15.7857 10.7866 13.184 13.6952 11.4965L13.7755 11.4525L13.8647 11.4965C18.9323 13.8872 22.171 17.0337 23.5093 20.8483L23.5271 20.901L23.5093 20.9538ZM23.9554 26.8602L23.8483 26.8339L23.8305 26.7284C22.519 20.1276 28.0773 14.3266 34.1621 11.5052L34.2513 11.4701L34.3316 11.514C37.2401 13.1928 38.3911 15.7857 37.5524 18.8268C36.4372 22.8699 31.6818 27.1942 26.3732 27.1942C25.5346 27.1942 24.7227 27.08 23.9554 26.8602ZM46.6171 29.5322L46.287 29.5058C45.7606 29.4619 45.2253 29.4443 44.6543 29.4443C42.7182 29.4443 40.6929 29.6728 38.739 29.8925C36.803 30.1123 34.7955 30.332 32.8862 30.332C29.5494 30.332 26.284 30.0595 25.026 28.0995L24.8297 27.8007L25.1866 27.827C25.5256 27.8534 25.8647 27.871 26.2037 27.871C27.7829 27.871 29.3888 27.5809 30.977 27.0096L31.0126 26.9921H31.0572C31.5301 27.036 31.994 27.0624 32.4491 27.0624C35.1703 27.0624 37.481 26.2186 39.31 24.5574L39.3725 24.5047L39.4528 24.5135C41.7725 24.8035 44.4312 25.5858 46.4654 29.2246L46.6171 29.5322Z" fill="#464860"/>
</svg>
