<svg width="32" height="42" viewBox="0 0 32 42" fill="none" xmlns="http://www.w3.org/2000/svg">
<path d="M3.92992 15.6598C3.92992 13.9398 3.92992 12.2198 3.92992 10.4998C4.87992 9.81982 5.88992 9.19982 6.92992 8.78982C8.51992 8.16982 10.2699 7.84982 11.9999 7.81982C11.9999 9.70982 11.9999 11.5998 11.9999 13.4898C11.9999 13.6198 11.9999 13.7398 11.9999 13.8698C11.4099 13.8798 10.8099 13.9298 10.2199 14.0098C9.18992 14.1398 8.16992 14.3498 7.18992 14.6798C6.00992 15.0898 4.93992 15.6698 3.91992 16.3498C3.92992 16.1198 3.92992 15.8898 3.92992 15.6598Z" fill="white"/>
<path d="M12.8901 8.18983C12.8901 8.06983 12.8901 7.94983 12.8901 7.82983C13.0401 7.83983 13.2001 7.83983 13.3501 7.85983C15.4901 8.01983 17.5601 8.74983 19.5601 9.47983C20.3101 9.74983 21.0601 10.0398 21.8101 10.3098C21.8101 12.2998 21.8101 14.2798 21.8101 16.2598C21.8101 16.2698 21.8101 16.2798 21.8101 16.2898C21.2401 16.0798 20.6701 15.8598 20.1101 15.6498C18.0601 14.8898 15.9901 14.1598 13.8101 13.9198C13.5101 13.8898 13.2001 13.8698 12.9001 13.8498C12.8901 11.9698 12.8901 10.0798 12.8901 8.18983Z" fill="white"/>
<path d="M22.7002 10.9699C22.7002 10.8499 22.7002 10.7299 22.7002 10.6099C23.6102 10.8999 24.5202 11.1499 25.4602 11.2899C26.5102 11.4499 27.5702 11.4699 28.6102 11.2099C29.4002 11.0099 30.1302 10.6599 30.7802 10.1899C30.7802 10.2499 30.7802 10.2999 30.7802 10.3599C30.7802 12.0299 30.7802 13.7099 30.7802 15.3799C30.7802 15.5799 30.7802 15.7799 30.7802 15.9799C30.1102 16.5799 29.3402 17.0299 28.4802 17.2599C27.6402 17.4799 26.7502 17.4999 25.8602 17.3799C24.8002 17.2499 23.7402 16.9499 22.7002 16.5999C22.7002 14.7299 22.7002 12.8599 22.7002 10.9699Z" fill="white"/>
<path d="M28.2602 4.19985C28.7702 4.02985 29.2702 3.79985 29.7102 3.49985C29.9602 3.32985 30.1902 3.15985 30.4102 2.95985C30.5002 2.87985 30.6202 2.77985 30.6802 2.70985C30.6802 2.70985 30.6802 2.69985 30.6902 2.69985C30.6902 2.69985 30.6802 2.69985 30.6802 2.68985H30.6902C30.6902 2.68985 30.6902 2.68985 30.7002 2.67985C30.7002 2.66985 30.7002 2.66985 30.7102 2.66985C30.7202 2.65985 30.7202 2.65985 30.7102 2.66985C30.7102 2.66985 30.7202 2.67985 30.7202 2.68985C30.7102 2.65985 30.7402 2.70985 30.7502 2.71985C30.7502 2.72985 30.7802 2.75985 30.7802 2.77985C30.7802 2.79985 30.7802 2.81985 30.7802 2.84985C30.7802 2.86985 30.7802 2.88985 30.7802 2.89985C30.7802 2.97985 30.7802 3.06985 30.7802 3.15985C30.7802 4.06985 30.7802 4.97985 30.7802 5.87985C30.7802 6.93985 30.7802 7.99985 30.7802 9.05985C30.1102 9.65985 29.3402 10.1099 28.4802 10.3399C27.6402 10.5599 26.7502 10.5799 25.8602 10.4599C24.8002 10.3299 23.7402 10.0299 22.7002 9.67985C22.7002 8.37985 22.7002 7.07985 22.7002 5.76985C22.7002 5.12985 22.7202 4.47985 22.7102 3.83985C24.5102 4.41985 26.4502 4.78985 28.2602 4.19985Z" fill="white"/>
<path d="M14.9799 1.20991C17.3399 1.73991 19.5399 2.74991 21.8099 3.54991C21.8099 4.12991 21.8099 4.71991 21.8099 5.29991C21.8099 6.65991 21.8099 8.00991 21.8099 9.36991C21.2399 9.15991 20.6699 8.93991 20.1099 8.72991C18.0599 7.96991 15.9899 7.23991 13.8099 6.99991C13.5099 6.96991 13.1999 6.94991 12.8999 6.92991C12.8999 5.61991 12.8999 4.29991 12.8999 2.98991C12.8999 2.29991 12.9199 1.59991 12.9099 0.909912C13.5999 0.959912 14.2999 1.05991 14.9799 1.20991Z" fill="white"/>
<path d="M3.98018 3.7199C3.98018 3.7199 3.99018 3.7099 3.99018 3.6999C4.03018 3.6599 4.09018 3.6199 4.14018 3.5899C4.25018 3.4999 4.36018 3.4099 4.48018 3.3299C4.75018 3.1299 5.03018 2.9399 5.31018 2.7599C6.06018 2.2899 6.83018 1.9199 7.65018 1.6399C9.04018 1.1599 10.5202 0.909902 12.0002 0.899902C12.0002 1.4399 12.0002 1.9799 12.0002 2.5199C12.0002 3.9899 12.0002 5.4699 12.0002 6.9399C11.4102 6.9499 10.8102 6.9999 10.2202 7.0799C9.19018 7.1999 8.18018 7.4099 7.20018 7.7499C6.01018 8.1499 4.95018 8.7399 3.93018 9.4199C3.93018 8.2799 3.93018 7.1399 3.93018 6.0099C3.93018 5.2899 3.93018 4.5599 3.93018 3.8399C3.93018 3.8099 3.94018 3.7799 3.95018 3.7499C3.95018 3.7399 3.96018 3.7299 3.98018 3.7199Z" fill="white"/>
<path d="M3.02985 39.1199C3.02985 39.7399 2.57985 40.23 1.95985 40.24C1.32985 40.24 0.899848 39.7099 0.889848 39.1199C0.889848 38.9399 0.889848 38.77 0.889848 38.59C0.889848 37.7599 0.889848 36.92 0.889848 36.09C0.889848 34.75 0.889848 33.41 0.889848 32.08C0.889848 30.4 0.889848 28.72 0.889848 27.04C0.889848 25.18 0.889848 23.31 0.889848 21.45C0.889848 19.57 0.889848 17.68 0.889848 15.8C0.889848 14.06 0.889848 12.32 0.889848 10.57C0.889848 9.12995 0.889848 7.68995 0.889848 6.24995C0.889848 5.26995 0.889848 4.29995 0.889848 3.31995C0.889848 2.93995 0.849848 2.52995 0.889848 2.14995C0.959848 1.60995 1.42985 1.19995 1.95985 1.19995C2.48985 1.19995 2.96985 1.60995 3.02985 2.13995C3.03985 2.26995 3.02985 2.39995 3.02985 2.52995C3.02985 3.21995 3.02985 3.89995 3.02985 4.58995C3.02985 5.81995 3.02985 7.04995 3.02985 8.27995C3.02985 9.88995 3.02985 11.51 3.02985 13.12C3.02985 14.95 3.02985 16.79 3.02985 18.62C3.02985 20.52 3.02985 22.41 3.02985 24.2999C3.02985 26.09 3.02985 27.88 3.02985 29.67C3.02985 31.2 3.02985 32.7299 3.02985 34.2599C3.02985 35.3599 3.02985 36.4599 3.02985 37.57C3.02985 38.09 3.02985 38.61 3.02985 39.1199Z" fill="white"/>
<path d="M6.66994 21.83C5.88994 22.16 5.15994 22.57 4.45994 23.03C4.31994 23.12 4.17994 23.24 4.02994 23.32C4.01994 23.32 4.01994 23.33 4.01994 23.33C4.01994 23.33 4.01994 23.33 4.00994 23.33C4.01994 23.33 4.00994 23.33 4.00994 23.33C3.99994 23.33 3.99994 23.33 3.98994 23.33C3.99994 23.33 4.00994 23.33 4.00994 23.33C3.99994 23.33 3.98994 23.32 3.97994 23.31C3.96994 23.3 3.93994 23.26 3.93994 23.21C3.93994 22.6 3.93994 21.99 3.93994 21.38C3.93994 20.06 3.93994 18.73 3.93994 17.41C4.88994 16.73 5.89994 16.11 6.93994 15.7C8.52994 15.08 10.2799 14.76 12.0099 14.73C12.0099 16.04 12.0099 17.35 12.0099 18.66C12.0099 19.35 11.9899 20.05 11.9999 20.75C10.1699 20.77 8.32994 21.13 6.66994 21.83Z" fill="white"/>
<path d="M14.0401 20.89C13.6601 20.84 13.2801 20.8 12.8901 20.78C12.8901 20.24 12.8901 19.69 12.8901 19.15C12.8901 17.68 12.8901 16.22 12.8901 14.75C13.0401 14.76 13.2001 14.76 13.3501 14.78C15.4901 14.94 17.5601 15.67 19.5601 16.4C20.3101 16.67 21.0601 16.96 21.8101 17.23C21.8101 18.64 21.8101 20.04 21.8101 21.45C21.8101 22.09 21.7901 22.74 21.8001 23.38C21.4801 23.26 21.1601 23.14 20.8401 23.02C18.6301 22.18 16.4101 21.22 14.0401 20.89Z" fill="white"/>
<path d="M30.78 22.0299C30.74 22.1399 30.64 22.2299 30.56 22.3199C30.45 22.4399 30.34 22.5699 30.23 22.6799C30.02 22.8899 29.8 23.0899 29.57 23.2699C29.2 23.5599 28.74 23.8299 28.34 23.9899C27.92 24.1599 27.39 24.2999 26.98 24.3399C25.53 24.4899 24.1 24.1699 22.71 23.7099C22.71 23.1199 22.71 22.5299 22.71 21.9399C22.71 20.4699 22.71 19.0099 22.71 17.5399C23.62 17.8299 24.53 18.0799 25.47 18.2199C26.52 18.3799 27.58 18.3999 28.62 18.1399C29.41 17.9399 30.14 17.5899 30.79 17.1199C30.79 17.9599 30.79 18.7899 30.79 19.6299C30.79 20.3699 30.79 21.1199 30.79 21.8599C30.79 21.9199 30.79 21.9799 30.78 22.0299Z" fill="white"/>
<path d="M4.26 16.4899C4.26 14.7699 4.26 13.0499 4.26 11.3299C5.21 10.6499 6.22 10.0299 7.26 9.61991C8.86 8.99991 10.6 8.67991 12.33 8.65991C12.33 10.5499 12.33 12.4399 12.33 14.3299C12.33 14.4599 12.33 14.5799 12.33 14.7099C11.74 14.7199 11.14 14.7699 10.55 14.8499C9.52 14.9799 8.5 15.1899 7.52 15.5199C6.34 15.9299 5.27 16.5099 4.25 17.1899C4.26 16.9599 4.26 16.7299 4.26 16.4899Z" fill="#CCB8F4"/>
<path d="M13.2202 9.01991C13.2202 8.89991 13.2202 8.77991 13.2202 8.65991C13.3702 8.66991 13.5302 8.66991 13.6802 8.68991C15.8202 8.84991 17.8902 9.57991 19.8902 10.3099C20.6402 10.5799 21.3902 10.8699 22.1402 11.1399C22.1402 13.1299 22.1402 15.1099 22.1402 17.0899C22.1402 17.0999 22.1402 17.1099 22.1402 17.1199C21.5702 16.9099 21.0002 16.6899 20.4402 16.4799C18.3902 15.7199 16.3202 14.9899 14.1402 14.7499C13.8402 14.7199 13.5302 14.6999 13.2302 14.6799C13.2202 12.8099 13.2202 10.9199 13.2202 9.01991Z" fill="#A3EFE0"/>
<path d="M23.04 11.81C23.04 11.69 23.04 11.57 23.04 11.45C23.95 11.74 24.86 11.99 25.8 12.13C26.85 12.29 27.91 12.31 28.95 12.05C29.74 11.85 30.47 11.5 31.12 11.03C31.12 11.09 31.12 11.14 31.12 11.2C31.12 12.87 31.12 14.55 31.12 16.22C31.12 16.42 31.12 16.62 31.12 16.82C30.45 17.42 29.68 17.87 28.82 18.1C27.98 18.32 27.09 18.34 26.2 18.22C25.14 18.09 24.08 17.79 23.04 17.44C23.04 15.57 23.04 13.69 23.04 11.81Z" fill="#CCB8F4"/>
<path d="M28.5898 5.03994C29.0998 4.86994 29.5998 4.63994 30.0398 4.33994C30.2898 4.16994 30.5198 3.99994 30.7398 3.79994C30.8298 3.71994 30.9498 3.61994 31.0098 3.54994C31.0098 3.54994 31.0098 3.53994 31.0198 3.53994C31.0198 3.53994 31.0098 3.53994 31.0098 3.52994H31.0198C31.0198 3.52994 31.0198 3.52994 31.0298 3.51994C31.0298 3.50994 31.0298 3.50994 31.0398 3.50994C31.0498 3.49994 31.0498 3.49994 31.0398 3.50994C31.0398 3.50994 31.0498 3.51994 31.0498 3.52994C31.0398 3.49994 31.0698 3.54994 31.0798 3.55994C31.0798 3.56994 31.1098 3.59994 31.1098 3.61994C31.1098 3.63994 31.1098 3.65994 31.1098 3.68994C31.1098 3.70994 31.1098 3.72994 31.1098 3.73994C31.1098 3.81994 31.1098 3.90994 31.1098 3.99994C31.1098 4.90994 31.1098 5.81994 31.1098 6.71994C31.1098 7.77994 31.1098 8.83994 31.1098 9.89994C30.4398 10.4999 29.6698 10.9499 28.8098 11.1799C27.9698 11.3999 27.0798 11.4199 26.1898 11.2999C25.1298 11.1699 24.0698 10.8699 23.0298 10.5199C23.0298 9.21994 23.0298 7.91994 23.0298 6.60994C23.0298 5.96994 23.0498 5.31994 23.0398 4.67994C24.8398 5.25994 26.7798 5.62994 28.5898 5.03994Z" fill="#A3EFE0"/>
<path d="M15.31 2.05C17.67 2.58 19.87 3.59 22.14 4.39C22.14 4.97 22.14 5.56 22.14 6.14C22.14 7.5 22.14 8.85 22.14 10.21C21.57 10 21 9.78 20.44 9.57C18.39 8.81 16.32 8.08 14.14 7.84C13.84 7.81 13.53 7.79 13.23 7.77C13.23 6.46 13.23 5.14 13.23 3.83C13.23 3.14 13.25 2.44 13.24 1.75C13.94 1.8 14.63 1.9 15.31 2.05Z" fill="#CCB8F4"/>
<path d="M4.30977 4.54999C4.30977 4.54999 4.31977 4.53999 4.31977 4.52999C4.35977 4.48999 4.41977 4.44999 4.46977 4.41999C4.58977 4.33999 4.69977 4.24999 4.80977 4.16999C5.07977 3.96999 5.35977 3.77999 5.63977 3.59999C6.39977 3.11999 7.16977 2.74999 7.97977 2.46999C9.36977 1.99999 10.8498 1.74999 12.3298 1.73999C12.3298 2.27999 12.3298 2.81999 12.3298 3.35999C12.3298 4.82999 12.3298 6.30999 12.3298 7.77999C11.7398 7.78999 11.1398 7.83999 10.5498 7.91999C9.52977 8.03999 8.50977 8.24999 7.52977 8.58999C6.34977 8.99999 5.27977 9.57999 4.25977 10.26C4.25977 9.11999 4.25977 7.97999 4.25977 6.84999C4.25977 6.12999 4.25977 5.39999 4.25977 4.67999C4.25977 4.64999 4.26977 4.61999 4.27977 4.58999C4.27977 4.56999 4.29977 4.55999 4.30977 4.54999Z" fill="#A3EFE0"/>
<path d="M3.02985 39.1199C3.02985 39.7399 2.57985 40.23 1.95985 40.24C1.32985 40.24 0.899848 39.7099 0.889848 39.1199C0.889848 38.9399 0.889848 38.77 0.889848 38.59C0.889848 37.7599 0.889848 36.92 0.889848 36.09C0.889848 34.75 0.889848 33.41 0.889848 32.08C0.889848 30.4 0.889848 28.72 0.889848 27.04C0.889848 25.18 0.889848 23.31 0.889848 21.45C0.889848 19.57 0.889848 17.68 0.889848 15.8C0.889848 14.06 0.889848 12.32 0.889848 10.57C0.889848 9.12995 0.889848 7.68995 0.889848 6.24995C0.889848 5.26995 0.889848 4.29995 0.889848 3.31995C0.889848 2.93995 0.849848 2.52995 0.889848 2.14995C0.959848 1.60995 1.42985 1.19995 1.95985 1.19995C2.48985 1.19995 2.96985 1.60995 3.02985 2.13995C3.03985 2.26995 3.02985 2.39995 3.02985 2.52995C3.02985 3.21995 3.02985 3.89995 3.02985 4.58995C3.02985 5.81995 3.02985 7.04995 3.02985 8.27995C3.02985 9.88995 3.02985 11.51 3.02985 13.12C3.02985 14.95 3.02985 16.79 3.02985 18.62C3.02985 20.52 3.02985 22.41 3.02985 24.2999C3.02985 26.09 3.02985 27.88 3.02985 29.67C3.02985 31.2 3.02985 32.7299 3.02985 34.2599C3.02985 35.3599 3.02985 36.4599 3.02985 37.57C3.02985 38.09 3.02985 38.61 3.02985 39.1199Z" fill="white"/>
<path d="M7.00002 22.6698C6.22002 22.9998 5.49002 23.4098 4.79002 23.8698C4.65002 23.9598 4.51002 24.0798 4.36002 24.1598C4.35002 24.1598 4.35002 24.1698 4.35002 24.1698C4.35002 24.1698 4.35002 24.1698 4.34002 24.1698C4.35002 24.1698 4.34002 24.1698 4.34002 24.1698C4.33002 24.1698 4.33002 24.1698 4.32002 24.1698C4.33002 24.1698 4.34002 24.1698 4.34002 24.1698C4.33002 24.1698 4.32002 24.1598 4.31002 24.1498C4.30002 24.1398 4.27002 24.0998 4.27002 24.0498C4.27002 23.4398 4.27002 22.8298 4.27002 22.2198C4.27002 20.8998 4.27002 19.5698 4.27002 18.2498C5.22002 17.5698 6.23002 16.9498 7.27002 16.5398C8.86002 15.9198 10.61 15.5998 12.34 15.5698C12.34 16.8798 12.34 18.1898 12.34 19.4998C12.34 20.1898 12.32 20.8898 12.33 21.5898C10.5 21.6098 8.66002 21.9698 7.00002 22.6698Z" fill="#A3EFE0"/>
<path d="M14.38 21.7298C14 21.6798 13.62 21.6398 13.23 21.6198C13.23 21.0798 13.23 20.5298 13.23 19.9898C13.23 18.5198 13.23 17.0598 13.23 15.5898C13.38 15.5998 13.54 15.5998 13.69 15.6198C15.83 15.7798 17.9 16.5098 19.9 17.2398C20.65 17.5098 21.4 17.7998 22.15 18.0698C22.15 19.4798 22.15 20.8798 22.15 22.2898C22.15 22.9298 22.13 23.5798 22.14 24.2198C21.82 24.0998 21.5 23.9798 21.18 23.8598C18.96 23.0198 16.74 22.0598 14.38 21.7298Z" fill="#CCB8F4"/>
<path d="M31.11 22.87C31.07 22.98 30.97 23.07 30.89 23.16C30.78 23.28 30.67 23.41 30.56 23.52C30.35 23.73 30.13 23.93 29.9 24.11C29.53 24.4 29.07 24.67 28.67 24.83C28.25 25 27.72 25.14 27.31 25.18C25.86 25.33 24.43 25.01 23.04 24.55C23.04 23.96 23.04 23.37 23.04 22.78C23.04 21.31 23.04 19.85 23.04 18.38C23.95 18.67 24.86 18.92 25.8 19.06C26.85 19.22 27.91 19.24 28.95 18.98C29.74 18.78 30.47 18.43 31.12 17.96C31.12 18.8 31.12 19.63 31.12 20.47C31.12 21.21 31.12 21.96 31.12 22.7C31.12 22.76 31.12 22.82 31.11 22.87Z" fill="#A3EFE0"/>
<path d="M30.73 1.79992C30.38 1.78992 30.15 1.99992 29.9 2.21992C29.7 2.39992 29.49 2.56992 29.26 2.71992C28.82 3.00992 28.39 3.21992 27.9 3.36992C26.95 3.64992 25.92 3.63992 24.96 3.47992C22.6 3.07992 20.39 2.01992 18.14 1.20992C16.96 0.789916 15.76 0.419916 14.53 0.199916C13.18 -0.0400839 11.82 -0.0500839 10.47 0.0999161C8.37 0.339916 6.34 0.979916 4.58 2.15992C4.36 2.30992 4.14 2.45992 3.93 2.61992C3.93 2.14992 3.9 1.67992 3.65 1.26992C3.29 0.669916 2.6 0.279916 1.89 0.309916C1.16 0.339916 0.48 0.789916 0.18 1.45992C0.03 1.78992 0 2.11992 0 2.46992C0 3.12992 0 3.78992 0 4.43992C0 5.67992 0 6.90992 0 8.13992C0 9.77992 0 11.4099 0 13.0499C0 14.9099 0 16.7699 0 18.6299C0 20.5599 0 22.4899 0 24.4199C0 26.2399 0 28.0599 0 29.8799C0 31.4099 0 32.9499 0 34.4799C0 35.5699 0 36.6599 0 37.7499C0 38.2199 0 38.6799 0 39.1499C0.01 40.1999 0.84 41.0899 1.9 41.1199C1.92 41.1199 1.94 41.1199 1.95 41.1199C1.96 41.1199 1.98 41.1199 1.99 41.1199C3.06 41.0699 3.9 40.2099 3.91 39.1399C3.91 38.9799 3.91 38.8299 3.91 38.6799C3.91 37.8599 3.91 37.0499 3.91 36.2399C3.91 34.8999 3.91 33.5499 3.91 32.2099C3.91 30.4999 3.91 28.7899 3.91 27.0899C3.91 26.1299 3.91 25.1799 3.91 24.2199C4.09 24.2399 4.28 24.1999 4.44 24.1099C4.6 24.0199 4.74 23.8999 4.89 23.7999C6.58 22.6699 8.42 21.9799 10.46 21.7599C11.76 21.6099 13.07 21.6099 14.36 21.8399C15.56 22.0599 16.72 22.4299 17.85 22.8399C20.03 23.6299 22.17 24.6599 24.46 25.0899C25.5 25.2899 26.57 25.3399 27.62 25.1299C28.7 24.8999 29.69 24.3499 30.51 23.6099C30.74 23.3999 30.96 23.1799 31.16 22.9499C31.42 22.6499 31.64 22.3799 31.65 21.9699C31.65 21.9299 31.65 21.8899 31.65 21.8499C31.65 21.5699 31.65 21.2799 31.65 20.9999C31.65 19.8099 31.65 18.6299 31.65 17.4399C31.65 15.7999 31.65 14.1699 31.65 12.5299C31.65 10.8799 31.65 9.21992 31.65 7.56992C31.65 6.34992 31.65 5.12992 31.65 3.91992C31.65 3.60992 31.65 3.30992 31.65 2.99992C31.65 2.94992 31.65 2.88992 31.65 2.83992C31.66 2.31992 31.3 1.81992 30.73 1.79992ZM3.93 15.6599C3.93 13.9399 3.93 12.2199 3.93 10.4999C4.88 9.81992 5.89 9.19992 6.93 8.78992C8.52 8.16992 10.27 7.84992 12 7.81992C12 9.70992 12 11.5999 12 13.4899C12 13.6199 12 13.7399 12 13.8699C11.41 13.8799 10.81 13.9299 10.22 14.0099C9.19 14.1399 8.17 14.3499 7.19 14.6799C6.01 15.0899 4.94 15.6699 3.92 16.3499C3.93 16.1199 3.93 15.8899 3.93 15.6599ZM12.89 8.18992C12.89 8.06992 12.89 7.94992 12.89 7.82992C13.04 7.83992 13.2 7.83992 13.35 7.85992C15.49 8.01992 17.56 8.74992 19.56 9.47992C20.31 9.74992 21.06 10.0399 21.81 10.3099C21.81 12.2999 21.81 14.2799 21.81 16.2599C21.81 16.2699 21.81 16.2799 21.81 16.2899C21.24 16.0799 20.67 15.8599 20.11 15.6499C18.06 14.8899 15.99 14.1599 13.81 13.9199C13.51 13.8899 13.2 13.8699 12.9 13.8499C12.89 11.9699 12.89 10.0799 12.89 8.18992ZM22.7 10.9699C22.7 10.8499 22.7 10.7299 22.7 10.6099C23.61 10.8999 24.52 11.1499 25.46 11.2899C26.51 11.4499 27.57 11.4699 28.61 11.2099C29.4 11.0099 30.13 10.6599 30.78 10.1899C30.78 10.2499 30.78 10.2999 30.78 10.3599C30.78 12.0299 30.78 13.7099 30.78 15.3799C30.78 15.5799 30.78 15.7799 30.78 15.9799C30.11 16.5799 29.34 17.0299 28.48 17.2599C27.64 17.4799 26.75 17.4999 25.86 17.3799C24.8 17.2499 23.74 16.9499 22.7 16.5999C22.7 14.7299 22.7 12.8599 22.7 10.9699ZM28.26 4.19992C28.77 4.02992 29.27 3.79992 29.71 3.49992C29.96 3.32992 30.19 3.15992 30.41 2.95992C30.5 2.87992 30.62 2.77992 30.68 2.70992C30.68 2.70992 30.68 2.69992 30.69 2.69992C30.69 2.69992 30.68 2.69992 30.68 2.68992H30.69C30.69 2.68992 30.69 2.68992 30.7 2.67992C30.7 2.66992 30.7 2.66992 30.71 2.66992C30.72 2.65992 30.72 2.65992 30.71 2.66992C30.71 2.66992 30.72 2.67992 30.72 2.68992C30.71 2.65992 30.74 2.70992 30.75 2.71992C30.75 2.72992 30.78 2.75992 30.78 2.77992C30.78 2.79992 30.78 2.81992 30.78 2.84992C30.78 2.86992 30.78 2.88992 30.78 2.89992C30.78 2.97992 30.78 3.06992 30.78 3.15992C30.78 4.06992 30.78 4.97992 30.78 5.87992C30.78 6.93992 30.78 7.99992 30.78 9.05992C30.11 9.65992 29.34 10.1099 28.48 10.3399C27.64 10.5599 26.75 10.5799 25.86 10.4599C24.8 10.3299 23.74 10.0299 22.7 9.67992C22.7 8.37992 22.7 7.07992 22.7 5.76992C22.7 5.12992 22.72 4.47992 22.71 3.83992C24.51 4.41992 26.45 4.78992 28.26 4.19992ZM14.98 1.20992C17.34 1.73992 19.54 2.74992 21.81 3.54992C21.81 4.12992 21.81 4.71992 21.81 5.29992C21.81 6.65992 21.81 8.00992 21.81 9.36992C21.24 9.15992 20.67 8.93992 20.11 8.72992C18.06 7.96992 15.99 7.23992 13.81 6.99992C13.51 6.96992 13.2 6.94992 12.9 6.92992C12.9 5.61992 12.9 4.29992 12.9 2.98992C12.9 2.29992 12.92 1.59992 12.91 0.909916C13.6 0.959916 14.3 1.05992 14.98 1.20992ZM3.98 3.71992C3.98 3.71992 3.99 3.70992 3.99 3.69992C4.03 3.65992 4.09 3.61992 4.14 3.58992C4.25 3.49992 4.36 3.40992 4.48 3.32992C4.75 3.12992 5.03 2.93992 5.31 2.75992C6.06 2.28992 6.83 1.91992 7.65 1.63992C9.04 1.15992 10.52 0.909916 12 0.899916C12 1.43992 12 1.97992 12 2.51992C12 3.98992 12 5.46992 12 6.93992C11.41 6.94992 10.81 6.99992 10.22 7.07992C9.19 7.19992 8.18 7.40992 7.2 7.74992C6.01 8.14992 4.95 8.73992 3.93 9.41992C3.93 8.27992 3.93 7.13992 3.93 6.00992C3.93 5.28992 3.93 4.55992 3.93 3.83992C3.93 3.80992 3.94 3.77992 3.95 3.74992C3.95 3.73992 3.96 3.72992 3.98 3.71992ZM3.03 39.1199C3.03 39.7399 2.58 40.2299 1.96 40.2399C1.33 40.2399 0.9 39.7099 0.89 39.1199C0.89 38.9399 0.89 38.7699 0.89 38.5899C0.89 37.7599 0.89 36.9199 0.89 36.0899C0.89 34.7499 0.89 33.4099 0.89 32.0799C0.89 30.3999 0.89 28.7199 0.89 27.0399C0.89 25.1799 0.89 23.3099 0.89 21.4499C0.89 19.5699 0.89 17.6799 0.89 15.7999C0.89 14.0599 0.89 12.3199 0.89 10.5699C0.89 9.12992 0.89 7.68992 0.89 6.24992C0.89 5.26992 0.89 4.29992 0.89 3.31992C0.89 2.93992 0.85 2.52992 0.89 2.14992C0.96 1.60992 1.43 1.19992 1.96 1.19992C2.49 1.19992 2.97 1.60992 3.03 2.13992C3.04 2.26992 3.03 2.39992 3.03 2.52992C3.03 3.21992 3.03 3.89992 3.03 4.58992C3.03 5.81992 3.03 7.04992 3.03 8.27992C3.03 9.88992 3.03 11.5099 3.03 13.1199C3.03 14.9499 3.03 16.7899 3.03 18.6199C3.03 20.5199 3.03 22.4099 3.03 24.2999C3.03 26.0899 3.03 27.8799 3.03 29.6699C3.03 31.1999 3.03 32.7299 3.03 34.2599C3.03 35.3599 3.03 36.4599 3.03 37.5699C3.03 38.0899 3.03 38.6099 3.03 39.1199ZM6.67 21.8299C5.89 22.1599 5.16 22.5699 4.46 23.0299C4.32 23.1199 4.18 23.2399 4.03 23.3199C4.02 23.3199 4.02 23.3299 4.02 23.3299C4.02 23.3299 4.02 23.3299 4.01 23.3299C4.02 23.3299 4.01 23.3299 4.01 23.3299C4 23.3299 4 23.3299 3.99 23.3299C4 23.3299 4.01 23.3299 4.01 23.3299C4 23.3299 3.99 23.3199 3.98 23.3099C3.97 23.2999 3.94 23.2599 3.94 23.2099C3.94 22.5999 3.94 21.9899 3.94 21.3799C3.94 20.0599 3.94 18.7299 3.94 17.4099C4.89 16.7299 5.9 16.1099 6.94 15.6999C8.53 15.0799 10.28 14.7599 12.01 14.7299C12.01 16.0399 12.01 17.3499 12.01 18.6599C12.01 19.3499 11.99 20.0499 12 20.7499C10.17 20.7699 8.33 21.1299 6.67 21.8299ZM14.04 20.8899C13.66 20.8399 13.28 20.7999 12.89 20.7799C12.89 20.2399 12.89 19.6899 12.89 19.1499C12.89 17.6799 12.89 16.2199 12.89 14.7499C13.04 14.7599 13.2 14.7599 13.35 14.7799C15.49 14.9399 17.56 15.6699 19.56 16.3999C20.31 16.6699 21.06 16.9599 21.81 17.2299C21.81 18.6399 21.81 20.0399 21.81 21.4499C21.81 22.0899 21.79 22.7399 21.8 23.3799C21.48 23.2599 21.16 23.1399 20.84 23.0199C18.63 22.1799 16.41 21.2199 14.04 20.8899ZM30.78 22.0299C30.74 22.1399 30.64 22.2299 30.56 22.3199C30.45 22.4399 30.34 22.5699 30.23 22.6799C30.02 22.8899 29.8 23.0899 29.57 23.2699C29.2 23.5599 28.74 23.8299 28.34 23.9899C27.92 24.1599 27.39 24.2999 26.98 24.3399C25.53 24.4899 24.1 24.1699 22.71 23.7099C22.71 23.1199 22.71 22.5299 22.71 21.9399C22.71 20.4699 22.71 19.0099 22.71 17.5399C23.62 17.8299 24.53 18.0799 25.47 18.2199C26.52 18.3799 27.58 18.3999 28.62 18.1399C29.41 17.9399 30.14 17.5899 30.79 17.1199C30.79 17.9599 30.79 18.7899 30.79 19.6299C30.79 20.3699 30.79 21.1199 30.79 21.8599C30.79 21.9199 30.79 21.9799 30.78 22.0299Z" fill="#464860"/>
<path d="M3.99021 3.69995C3.99021 3.69995 3.98021 3.70995 3.97021 3.71995C3.97021 3.71995 3.98021 3.71995 3.99021 3.69995Z" fill="#464860"/>
<path d="M30.7102 2.67993L30.7002 2.68993L30.7102 2.67993Z" fill="#464860"/>
</svg>
