<svg width="78" height="78" viewBox="0 0 78 78" fill="none" xmlns="http://www.w3.org/2000/svg">
<rect width="78" height="78" fill="white"/>
<path d="M26.9299 33.6598C26.9299 31.9398 26.9299 30.2198 26.9299 28.4998C27.8799 27.8198 28.8899 27.1998 29.9299 26.7898C31.5199 26.1698 33.2699 25.8498 34.9999 25.8198C34.9999 27.7098 34.9999 29.5998 34.9999 31.4898C34.9999 31.6198 34.9999 31.7398 34.9999 31.8698C34.4099 31.8798 33.8099 31.9298 33.2199 32.0098C32.1899 32.1398 31.1699 32.3498 30.1899 32.6798C29.0099 33.0898 27.9399 33.6698 26.9199 34.3498C26.9299 34.1198 26.9299 33.8898 26.9299 33.6598Z" fill="white"/>
<path d="M35.8901 26.1898C35.8901 26.0698 35.8901 25.9498 35.8901 25.8298C36.0401 25.8398 36.2001 25.8398 36.3501 25.8598C38.4901 26.0198 40.5601 26.7498 42.5601 27.4798C43.3101 27.7498 44.0601 28.0398 44.8101 28.3098C44.8101 30.2998 44.8101 32.2798 44.8101 34.2598C44.8101 34.2698 44.8101 34.2798 44.8101 34.2898C44.2401 34.0798 43.6701 33.8598 43.1101 33.6498C41.0601 32.8898 38.9901 32.1598 36.8101 31.9198C36.5101 31.8898 36.2001 31.8698 35.9001 31.8498C35.8901 29.9698 35.8901 28.0798 35.8901 26.1898Z" fill="white"/>
<path d="M45.7002 28.9699C45.7002 28.8499 45.7002 28.7299 45.7002 28.6099C46.6102 28.8999 47.5202 29.1499 48.4602 29.2899C49.5102 29.4499 50.5702 29.4699 51.6102 29.2099C52.4002 29.0099 53.1302 28.6599 53.7802 28.1899C53.7802 28.2499 53.7802 28.2999 53.7802 28.3599C53.7802 30.0299 53.7802 31.7099 53.7802 33.3799C53.7802 33.5799 53.7802 33.7799 53.7802 33.9799C53.1102 34.5799 52.3402 35.0299 51.4802 35.2599C50.6402 35.4799 49.7502 35.4999 48.8602 35.3799C47.8002 35.2499 46.7402 34.9499 45.7002 34.5999C45.7002 32.7299 45.7002 30.8599 45.7002 28.9699Z" fill="white"/>
<path d="M51.2602 22.1999C51.7702 22.0299 52.2702 21.7999 52.7102 21.4999C52.9602 21.3299 53.1902 21.1599 53.4102 20.9599C53.5002 20.8799 53.6202 20.7799 53.6802 20.7099C53.6802 20.7099 53.6802 20.6999 53.6902 20.6999C53.6902 20.6999 53.6802 20.6999 53.6802 20.6899H53.6902C53.6902 20.6899 53.6902 20.6899 53.7002 20.6799C53.7002 20.6699 53.7002 20.6699 53.7102 20.6699C53.7202 20.6599 53.7202 20.6599 53.7102 20.6699C53.7102 20.6699 53.7202 20.6799 53.7202 20.6899C53.7102 20.6599 53.7402 20.7099 53.7502 20.7199C53.7502 20.7299 53.7802 20.7599 53.7802 20.7799C53.7802 20.7999 53.7802 20.8199 53.7802 20.8499C53.7802 20.8699 53.7802 20.8899 53.7802 20.8999C53.7802 20.9799 53.7802 21.0699 53.7802 21.1599C53.7802 22.0699 53.7802 22.9799 53.7802 23.8799C53.7802 24.9399 53.7802 25.9999 53.7802 27.0599C53.1102 27.6599 52.3402 28.1099 51.4802 28.3399C50.6402 28.5599 49.7502 28.5799 48.8602 28.4599C47.8002 28.3299 46.7402 28.0299 45.7002 27.6799C45.7002 26.3799 45.7002 25.0799 45.7002 23.7699C45.7002 23.1299 45.7202 22.4799 45.7102 21.8399C47.5102 22.4199 49.4502 22.7899 51.2602 22.1999Z" fill="white"/>
<path d="M37.9799 19.2099C40.3399 19.7399 42.5399 20.7499 44.8099 21.5499C44.8099 22.1299 44.8099 22.7199 44.8099 23.2999C44.8099 24.6599 44.8099 26.0099 44.8099 27.3699C44.2399 27.1599 43.6699 26.9399 43.1099 26.7299C41.0599 25.9699 38.9899 25.2399 36.8099 24.9999C36.5099 24.9699 36.1999 24.9499 35.8999 24.9299C35.8999 23.6199 35.8999 22.2999 35.8999 20.9899C35.8999 20.2999 35.9199 19.5999 35.9099 18.9099C36.5999 18.9599 37.2999 19.0599 37.9799 19.2099Z" fill="white"/>
<path d="M26.9802 21.7199C26.9802 21.7199 26.9902 21.7099 26.9902 21.6999C27.0302 21.6599 27.0902 21.6199 27.1402 21.5899C27.2502 21.4999 27.3602 21.4099 27.4802 21.3299C27.7502 21.1299 28.0302 20.9399 28.3102 20.7599C29.0602 20.2899 29.8302 19.9199 30.6502 19.6399C32.0402 19.1599 33.5202 18.9099 35.0002 18.8999C35.0002 19.4399 35.0002 19.9799 35.0002 20.5199C35.0002 21.9899 35.0002 23.4699 35.0002 24.9399C34.4102 24.9499 33.8102 24.9999 33.2202 25.0799C32.1902 25.1999 31.1802 25.4099 30.2002 25.7499C29.0102 26.1499 27.9502 26.7399 26.9302 27.4199C26.9302 26.2799 26.9302 25.1399 26.9302 24.0099C26.9302 23.2899 26.9302 22.5599 26.9302 21.8399C26.9302 21.8099 26.9402 21.7799 26.9502 21.7499C26.9502 21.7399 26.9602 21.7299 26.9802 21.7199Z" fill="white"/>
<path d="M26.0298 57.1199C26.0298 57.7399 25.5798 58.23 24.9598 58.24C24.3298 58.24 23.8998 57.7099 23.8898 57.1199C23.8898 56.9399 23.8898 56.77 23.8898 56.59C23.8898 55.7599 23.8898 54.92 23.8898 54.09C23.8898 52.75 23.8898 51.41 23.8898 50.08C23.8898 48.4 23.8898 46.72 23.8898 45.04C23.8898 43.18 23.8898 41.31 23.8898 39.45C23.8898 37.57 23.8898 35.68 23.8898 33.8C23.8898 32.06 23.8898 30.32 23.8898 28.57C23.8898 27.13 23.8898 25.69 23.8898 24.25C23.8898 23.27 23.8898 22.3 23.8898 21.32C23.8898 20.94 23.8498 20.53 23.8898 20.15C23.9598 19.61 24.4298 19.2 24.9598 19.2C25.4898 19.2 25.9698 19.61 26.0298 20.14C26.0398 20.27 26.0298 20.4 26.0298 20.53C26.0298 21.22 26.0298 21.9 26.0298 22.59C26.0298 23.82 26.0298 25.05 26.0298 26.28C26.0298 27.89 26.0298 29.51 26.0298 31.12C26.0298 32.95 26.0298 34.79 26.0298 36.62C26.0298 38.52 26.0298 40.41 26.0298 42.2999C26.0298 44.09 26.0298 45.88 26.0298 47.67C26.0298 49.2 26.0298 50.7299 26.0298 52.2599C26.0298 53.3599 26.0298 54.4599 26.0298 55.57C26.0298 56.09 26.0298 56.61 26.0298 57.1199Z" fill="white"/>
<path d="M29.6699 39.83C28.8899 40.16 28.1599 40.57 27.4599 41.03C27.3199 41.12 27.1799 41.24 27.0299 41.32C27.0199 41.32 27.0199 41.33 27.0199 41.33C27.0199 41.33 27.0199 41.33 27.0099 41.33C27.0199 41.33 27.0099 41.33 27.0099 41.33C26.9999 41.33 26.9999 41.33 26.9899 41.33C26.9999 41.33 27.0099 41.33 27.0099 41.33C26.9999 41.33 26.9899 41.32 26.9799 41.31C26.9699 41.3 26.9399 41.26 26.9399 41.21C26.9399 40.6 26.9399 39.99 26.9399 39.38C26.9399 38.06 26.9399 36.73 26.9399 35.41C27.8899 34.73 28.8999 34.11 29.9399 33.7C31.5299 33.08 33.2799 32.76 35.0099 32.73C35.0099 34.04 35.0099 35.35 35.0099 36.66C35.0099 37.35 34.9899 38.05 34.9999 38.75C33.1699 38.77 31.3299 39.13 29.6699 39.83Z" fill="white"/>
<path d="M37.0401 38.89C36.6601 38.84 36.2801 38.8 35.8901 38.78C35.8901 38.24 35.8901 37.69 35.8901 37.15C35.8901 35.68 35.8901 34.22 35.8901 32.75C36.0401 32.76 36.2001 32.76 36.3501 32.78C38.4901 32.94 40.5601 33.67 42.5601 34.4C43.3101 34.67 44.0601 34.96 44.8101 35.23C44.8101 36.64 44.8101 38.04 44.8101 39.45C44.8101 40.09 44.7901 40.74 44.8001 41.38C44.4801 41.26 44.1601 41.14 43.8401 41.02C41.6301 40.18 39.4101 39.22 37.0401 38.89Z" fill="white"/>
<path d="M53.78 40.0299C53.74 40.1399 53.64 40.2299 53.56 40.3199C53.45 40.4399 53.34 40.5699 53.23 40.6799C53.02 40.8899 52.8 41.0899 52.57 41.2699C52.2 41.5599 51.74 41.8299 51.34 41.9899C50.92 42.1599 50.39 42.2999 49.98 42.3399C48.53 42.4899 47.1 42.1699 45.71 41.7099C45.71 41.1199 45.71 40.5299 45.71 39.9399C45.71 38.4699 45.71 37.0099 45.71 35.5399C46.62 35.8299 47.53 36.0799 48.47 36.2199C49.52 36.3799 50.58 36.3999 51.62 36.1399C52.41 35.9399 53.14 35.5899 53.79 35.1199C53.79 35.9599 53.79 36.7899 53.79 37.6299C53.79 38.3699 53.79 39.1199 53.79 39.8599C53.79 39.9199 53.79 39.9799 53.78 40.0299Z" fill="white"/>
<path d="M27.26 34.4899C27.26 32.7699 27.26 31.0499 27.26 29.3299C28.21 28.6499 29.22 28.0299 30.26 27.6199C31.86 26.9999 33.6 26.6799 35.33 26.6599C35.33 28.5499 35.33 30.4399 35.33 32.3299C35.33 32.4599 35.33 32.5799 35.33 32.7099C34.74 32.7199 34.14 32.7699 33.55 32.8499C32.52 32.9799 31.5 33.1899 30.52 33.5199C29.34 33.9299 28.27 34.5099 27.25 35.1899C27.26 34.9599 27.26 34.7299 27.26 34.4899Z" fill="#CCB8F4"/>
<path d="M36.2202 27.0199C36.2202 26.8999 36.2202 26.7799 36.2202 26.6599C36.3702 26.6699 36.5302 26.6699 36.6802 26.6899C38.8202 26.8499 40.8902 27.5799 42.8902 28.3099C43.6402 28.5799 44.3902 28.8699 45.1402 29.1399C45.1402 31.1299 45.1402 33.1099 45.1402 35.0899C45.1402 35.0999 45.1402 35.1099 45.1402 35.1199C44.5702 34.9099 44.0002 34.6899 43.4402 34.4799C41.3902 33.7199 39.3202 32.9899 37.1402 32.7499C36.8402 32.7199 36.5302 32.6999 36.2302 32.6799C36.2202 30.8099 36.2202 28.9199 36.2202 27.0199Z" fill="#A3EFE0"/>
<path d="M46.04 29.81C46.04 29.69 46.04 29.57 46.04 29.45C46.95 29.74 47.86 29.99 48.8 30.13C49.85 30.29 50.91 30.31 51.95 30.05C52.74 29.85 53.47 29.5 54.12 29.03C54.12 29.09 54.12 29.14 54.12 29.2C54.12 30.87 54.12 32.55 54.12 34.22C54.12 34.42 54.12 34.62 54.12 34.82C53.45 35.42 52.68 35.87 51.82 36.1C50.98 36.32 50.09 36.34 49.2 36.22C48.14 36.09 47.08 35.79 46.04 35.44C46.04 33.57 46.04 31.69 46.04 29.81Z" fill="#CCB8F4"/>
<path d="M51.5898 23.0399C52.0998 22.8699 52.5998 22.6399 53.0398 22.3399C53.2898 22.1699 53.5198 21.9999 53.7398 21.7999C53.8298 21.7199 53.9498 21.6199 54.0098 21.5499C54.0098 21.5499 54.0098 21.5399 54.0198 21.5399C54.0198 21.5399 54.0098 21.5399 54.0098 21.5299H54.0198C54.0198 21.5299 54.0198 21.5299 54.0298 21.5199C54.0298 21.5099 54.0298 21.5099 54.0398 21.5099C54.0498 21.4999 54.0498 21.4999 54.0398 21.5099C54.0398 21.5099 54.0498 21.5199 54.0498 21.5299C54.0398 21.4999 54.0698 21.5499 54.0798 21.5599C54.0798 21.5699 54.1098 21.5999 54.1098 21.6199C54.1098 21.6399 54.1098 21.6599 54.1098 21.6899C54.1098 21.7099 54.1098 21.7299 54.1098 21.7399C54.1098 21.8199 54.1098 21.9099 54.1098 21.9999C54.1098 22.9099 54.1098 23.8199 54.1098 24.7199C54.1098 25.7799 54.1098 26.8399 54.1098 27.8999C53.4398 28.4999 52.6698 28.9499 51.8098 29.1799C50.9698 29.3999 50.0798 29.4199 49.1898 29.2999C48.1298 29.1699 47.0698 28.8699 46.0298 28.5199C46.0298 27.2199 46.0298 25.9199 46.0298 24.6099C46.0298 23.9699 46.0498 23.3199 46.0398 22.6799C47.8398 23.2599 49.7798 23.6299 51.5898 23.0399Z" fill="#A3EFE0"/>
<path d="M38.31 20.05C40.67 20.58 42.87 21.59 45.14 22.39C45.14 22.97 45.14 23.56 45.14 24.14C45.14 25.5 45.14 26.85 45.14 28.21C44.57 28 44 27.78 43.44 27.57C41.39 26.81 39.32 26.08 37.14 25.84C36.84 25.81 36.53 25.79 36.23 25.77C36.23 24.46 36.23 23.14 36.23 21.83C36.23 21.14 36.25 20.44 36.24 19.75C36.94 19.8 37.63 19.9 38.31 20.05Z" fill="#CCB8F4"/>
<path d="M27.3098 22.55C27.3098 22.55 27.3198 22.54 27.3198 22.53C27.3598 22.49 27.4198 22.45 27.4698 22.42C27.5898 22.34 27.6998 22.25 27.8098 22.17C28.0798 21.97 28.3598 21.78 28.6398 21.6C29.3998 21.12 30.1698 20.75 30.9798 20.47C32.3698 20 33.8498 19.75 35.3298 19.74C35.3298 20.28 35.3298 20.82 35.3298 21.36C35.3298 22.83 35.3298 24.31 35.3298 25.78C34.7398 25.79 34.1398 25.84 33.5498 25.92C32.5298 26.04 31.5098 26.25 30.5298 26.59C29.3498 27 28.2798 27.58 27.2598 28.26C27.2598 27.12 27.2598 25.98 27.2598 24.85C27.2598 24.13 27.2598 23.4 27.2598 22.68C27.2598 22.65 27.2698 22.62 27.2798 22.59C27.2798 22.57 27.2998 22.56 27.3098 22.55Z" fill="#A3EFE0"/>
<path d="M26.0298 57.1199C26.0298 57.7399 25.5798 58.23 24.9598 58.24C24.3298 58.24 23.8998 57.7099 23.8898 57.1199C23.8898 56.9399 23.8898 56.77 23.8898 56.59C23.8898 55.7599 23.8898 54.92 23.8898 54.09C23.8898 52.75 23.8898 51.41 23.8898 50.08C23.8898 48.4 23.8898 46.72 23.8898 45.04C23.8898 43.18 23.8898 41.31 23.8898 39.45C23.8898 37.57 23.8898 35.68 23.8898 33.8C23.8898 32.06 23.8898 30.32 23.8898 28.57C23.8898 27.13 23.8898 25.69 23.8898 24.25C23.8898 23.27 23.8898 22.3 23.8898 21.32C23.8898 20.94 23.8498 20.53 23.8898 20.15C23.9598 19.61 24.4298 19.2 24.9598 19.2C25.4898 19.2 25.9698 19.61 26.0298 20.14C26.0398 20.27 26.0298 20.4 26.0298 20.53C26.0298 21.22 26.0298 21.9 26.0298 22.59C26.0298 23.82 26.0298 25.05 26.0298 26.28C26.0298 27.89 26.0298 29.51 26.0298 31.12C26.0298 32.95 26.0298 34.79 26.0298 36.62C26.0298 38.52 26.0298 40.41 26.0298 42.2999C26.0298 44.09 26.0298 45.88 26.0298 47.67C26.0298 49.2 26.0298 50.7299 26.0298 52.2599C26.0298 53.3599 26.0298 54.4599 26.0298 55.57C26.0298 56.09 26.0298 56.61 26.0298 57.1199Z" fill="white"/>
<path d="M30 40.6698C29.22 40.9998 28.49 41.4098 27.79 41.8698C27.65 41.9598 27.51 42.0798 27.36 42.1598C27.35 42.1598 27.35 42.1698 27.35 42.1698C27.35 42.1698 27.35 42.1698 27.34 42.1698C27.35 42.1698 27.34 42.1698 27.34 42.1698C27.33 42.1698 27.33 42.1698 27.32 42.1698C27.33 42.1698 27.34 42.1698 27.34 42.1698C27.33 42.1698 27.32 42.1598 27.31 42.1498C27.3 42.1398 27.27 42.0998 27.27 42.0498C27.27 41.4398 27.27 40.8298 27.27 40.2198C27.27 38.8998 27.27 37.5698 27.27 36.2498C28.22 35.5698 29.23 34.9498 30.27 34.5398C31.86 33.9198 33.61 33.5998 35.34 33.5698C35.34 34.8798 35.34 36.1898 35.34 37.4998C35.34 38.1898 35.32 38.8898 35.33 39.5898C33.5 39.6098 31.66 39.9698 30 40.6698Z" fill="#A3EFE0"/>
<path d="M37.38 39.7298C37 39.6798 36.62 39.6398 36.23 39.6198C36.23 39.0798 36.23 38.5298 36.23 37.9898C36.23 36.5198 36.23 35.0598 36.23 33.5898C36.38 33.5998 36.54 33.5998 36.69 33.6198C38.83 33.7798 40.9 34.5098 42.9 35.2398C43.65 35.5098 44.4 35.7998 45.15 36.0698C45.15 37.4798 45.15 38.8798 45.15 40.2898C45.15 40.9298 45.13 41.5798 45.14 42.2198C44.82 42.0998 44.5 41.9798 44.18 41.8598C41.96 41.0198 39.74 40.0598 37.38 39.7298Z" fill="#CCB8F4"/>
<path d="M54.11 40.87C54.07 40.98 53.97 41.07 53.89 41.16C53.78 41.28 53.67 41.41 53.56 41.52C53.35 41.73 53.13 41.93 52.9 42.11C52.53 42.4 52.07 42.67 51.67 42.83C51.25 43 50.72 43.14 50.31 43.18C48.86 43.33 47.43 43.01 46.04 42.55C46.04 41.96 46.04 41.37 46.04 40.78C46.04 39.31 46.04 37.85 46.04 36.38C46.95 36.67 47.86 36.92 48.8 37.06C49.85 37.22 50.91 37.24 51.95 36.98C52.74 36.78 53.47 36.43 54.12 35.96C54.12 36.8 54.12 37.63 54.12 38.47C54.12 39.21 54.12 39.96 54.12 40.7C54.12 40.76 54.12 40.82 54.11 40.87Z" fill="#A3EFE0"/>
<path d="M53.73 19.7999C53.38 19.7899 53.15 19.9999 52.9 20.2199C52.7 20.3999 52.49 20.5699 52.26 20.7199C51.82 21.0099 51.39 21.2199 50.9 21.3699C49.95 21.6499 48.92 21.6399 47.96 21.4799C45.6 21.0799 43.39 20.0199 41.14 19.2099C39.96 18.7899 38.76 18.4199 37.53 18.1999C36.18 17.9599 34.82 17.9499 33.47 18.0999C31.37 18.3399 29.34 18.9799 27.58 20.1599C27.36 20.3099 27.14 20.4599 26.93 20.6199C26.93 20.1499 26.9 19.6799 26.65 19.2699C26.29 18.6699 25.6 18.2799 24.89 18.3099C24.16 18.3399 23.48 18.7899 23.18 19.4599C23.03 19.7899 23 20.1199 23 20.4699C23 21.1299 23 21.7899 23 22.4399C23 23.6799 23 24.9099 23 26.1399C23 27.7799 23 29.4099 23 31.0499C23 32.9099 23 34.7699 23 36.6299C23 38.5599 23 40.4899 23 42.4199C23 44.2399 23 46.0599 23 47.8799C23 49.4099 23 50.9499 23 52.4799C23 53.5699 23 54.6599 23 55.7499C23 56.2199 23 56.6799 23 57.1499C23.01 58.1999 23.84 59.0899 24.9 59.1199C24.92 59.1199 24.94 59.1199 24.95 59.1199C24.96 59.1199 24.98 59.1199 24.99 59.1199C26.06 59.0699 26.9 58.2099 26.91 57.1399C26.91 56.9799 26.91 56.8299 26.91 56.6799C26.91 55.8599 26.91 55.0499 26.91 54.2399C26.91 52.8999 26.91 51.5499 26.91 50.2099C26.91 48.4999 26.91 46.7899 26.91 45.0899C26.91 44.1299 26.91 43.1799 26.91 42.2199C27.09 42.2399 27.28 42.1999 27.44 42.1099C27.6 42.0199 27.74 41.8999 27.89 41.7999C29.58 40.6699 31.42 39.9799 33.46 39.7599C34.76 39.6099 36.07 39.6099 37.36 39.8399C38.56 40.0599 39.72 40.4299 40.85 40.8399C43.03 41.6299 45.17 42.6599 47.46 43.0899C48.5 43.2899 49.57 43.3399 50.62 43.1299C51.7 42.8999 52.69 42.3499 53.51 41.6099C53.74 41.3999 53.96 41.1799 54.16 40.9499C54.42 40.6499 54.64 40.3799 54.65 39.9699C54.65 39.9299 54.65 39.8899 54.65 39.8499C54.65 39.5699 54.65 39.2799 54.65 38.9999C54.65 37.8099 54.65 36.6299 54.65 35.4399C54.65 33.7999 54.65 32.1699 54.65 30.5299C54.65 28.8799 54.65 27.2199 54.65 25.5699C54.65 24.3499 54.65 23.1299 54.65 21.9199C54.65 21.6099 54.65 21.3099 54.65 20.9999C54.65 20.9499 54.65 20.8899 54.65 20.8399C54.66 20.3199 54.3 19.8199 53.73 19.7999ZM26.93 33.6599C26.93 31.9399 26.93 30.2199 26.93 28.4999C27.88 27.8199 28.89 27.1999 29.93 26.7899C31.52 26.1699 33.27 25.8499 35 25.8199C35 27.7099 35 29.5999 35 31.4899C35 31.6199 35 31.7399 35 31.8699C34.41 31.8799 33.81 31.9299 33.22 32.0099C32.19 32.1399 31.17 32.3499 30.19 32.6799C29.01 33.0899 27.94 33.6699 26.92 34.3499C26.93 34.1199 26.93 33.8899 26.93 33.6599ZM35.89 26.1899C35.89 26.0699 35.89 25.9499 35.89 25.8299C36.04 25.8399 36.2 25.8399 36.35 25.8599C38.49 26.0199 40.56 26.7499 42.56 27.4799C43.31 27.7499 44.06 28.0399 44.81 28.3099C44.81 30.2999 44.81 32.2799 44.81 34.2599C44.81 34.2699 44.81 34.2799 44.81 34.2899C44.24 34.0799 43.67 33.8599 43.11 33.6499C41.06 32.8899 38.99 32.1599 36.81 31.9199C36.51 31.8899 36.2 31.8699 35.9 31.8499C35.89 29.9699 35.89 28.0799 35.89 26.1899ZM45.7 28.9699C45.7 28.8499 45.7 28.7299 45.7 28.6099C46.61 28.8999 47.52 29.1499 48.46 29.2899C49.51 29.4499 50.57 29.4699 51.61 29.2099C52.4 29.0099 53.13 28.6599 53.78 28.1899C53.78 28.2499 53.78 28.2999 53.78 28.3599C53.78 30.0299 53.78 31.7099 53.78 33.3799C53.78 33.5799 53.78 33.7799 53.78 33.9799C53.11 34.5799 52.34 35.0299 51.48 35.2599C50.64 35.4799 49.75 35.4999 48.86 35.3799C47.8 35.2499 46.74 34.9499 45.7 34.5999C45.7 32.7299 45.7 30.8599 45.7 28.9699ZM51.26 22.1999C51.77 22.0299 52.27 21.7999 52.71 21.4999C52.96 21.3299 53.19 21.1599 53.41 20.9599C53.5 20.8799 53.62 20.7799 53.68 20.7099C53.68 20.7099 53.68 20.6999 53.69 20.6999C53.69 20.6999 53.68 20.6999 53.68 20.6899H53.69C53.69 20.6899 53.69 20.6899 53.7 20.6799C53.7 20.6699 53.7 20.6699 53.71 20.6699C53.72 20.6599 53.72 20.6599 53.71 20.6699C53.71 20.6699 53.72 20.6799 53.72 20.6899C53.71 20.6599 53.74 20.7099 53.75 20.7199C53.75 20.7299 53.78 20.7599 53.78 20.7799C53.78 20.7999 53.78 20.8199 53.78 20.8499C53.78 20.8699 53.78 20.8899 53.78 20.8999C53.78 20.9799 53.78 21.0699 53.78 21.1599C53.78 22.0699 53.78 22.9799 53.78 23.8799C53.78 24.9399 53.78 25.9999 53.78 27.0599C53.11 27.6599 52.34 28.1099 51.48 28.3399C50.64 28.5599 49.75 28.5799 48.86 28.4599C47.8 28.3299 46.74 28.0299 45.7 27.6799C45.7 26.3799 45.7 25.0799 45.7 23.7699C45.7 23.1299 45.72 22.4799 45.71 21.8399C47.51 22.4199 49.45 22.7899 51.26 22.1999ZM37.98 19.2099C40.34 19.7399 42.54 20.7499 44.81 21.5499C44.81 22.1299 44.81 22.7199 44.81 23.2999C44.81 24.6599 44.81 26.0099 44.81 27.3699C44.24 27.1599 43.67 26.9399 43.11 26.7299C41.06 25.9699 38.99 25.2399 36.81 24.9999C36.51 24.9699 36.2 24.9499 35.9 24.9299C35.9 23.6199 35.9 22.2999 35.9 20.9899C35.9 20.2999 35.92 19.5999 35.91 18.9099C36.6 18.9599 37.3 19.0599 37.98 19.2099ZM26.98 21.7199C26.98 21.7199 26.99 21.7099 26.99 21.6999C27.03 21.6599 27.09 21.6199 27.14 21.5899C27.25 21.4999 27.36 21.4099 27.48 21.3299C27.75 21.1299 28.03 20.9399 28.31 20.7599C29.06 20.2899 29.83 19.9199 30.65 19.6399C32.04 19.1599 33.52 18.9099 35 18.8999C35 19.4399 35 19.9799 35 20.5199C35 21.9899 35 23.4699 35 24.9399C34.41 24.9499 33.81 24.9999 33.22 25.0799C32.19 25.1999 31.18 25.4099 30.2 25.7499C29.01 26.1499 27.95 26.7399 26.93 27.4199C26.93 26.2799 26.93 25.1399 26.93 24.0099C26.93 23.2899 26.93 22.5599 26.93 21.8399C26.93 21.8099 26.94 21.7799 26.95 21.7499C26.95 21.7399 26.96 21.7299 26.98 21.7199ZM26.03 57.1199C26.03 57.7399 25.58 58.2299 24.96 58.2399C24.33 58.2399 23.9 57.7099 23.89 57.1199C23.89 56.9399 23.89 56.7699 23.89 56.5899C23.89 55.7599 23.89 54.9199 23.89 54.0899C23.89 52.7499 23.89 51.4099 23.89 50.0799C23.89 48.3999 23.89 46.7199 23.89 45.0399C23.89 43.1799 23.89 41.3099 23.89 39.4499C23.89 37.5699 23.89 35.6799 23.89 33.7999C23.89 32.0599 23.89 30.3199 23.89 28.5699C23.89 27.1299 23.89 25.6899 23.89 24.2499C23.89 23.2699 23.89 22.2999 23.89 21.3199C23.89 20.9399 23.85 20.5299 23.89 20.1499C23.96 19.6099 24.43 19.1999 24.96 19.1999C25.49 19.1999 25.97 19.6099 26.03 20.1399C26.04 20.2699 26.03 20.3999 26.03 20.5299C26.03 21.2199 26.03 21.8999 26.03 22.5899C26.03 23.8199 26.03 25.0499 26.03 26.2799C26.03 27.8899 26.03 29.5099 26.03 31.1199C26.03 32.9499 26.03 34.7899 26.03 36.6199C26.03 38.5199 26.03 40.4099 26.03 42.2999C26.03 44.0899 26.03 45.8799 26.03 47.6699C26.03 49.1999 26.03 50.7299 26.03 52.2599C26.03 53.3599 26.03 54.4599 26.03 55.5699C26.03 56.0899 26.03 56.6099 26.03 57.1199ZM29.67 39.8299C28.89 40.1599 28.16 40.5699 27.46 41.0299C27.32 41.1199 27.18 41.2399 27.03 41.3199C27.02 41.3199 27.02 41.3299 27.02 41.3299C27.02 41.3299 27.02 41.3299 27.01 41.3299C27.02 41.3299 27.01 41.3299 27.01 41.3299C27 41.3299 27 41.3299 26.99 41.3299C27 41.3299 27.01 41.3299 27.01 41.3299C27 41.3299 26.99 41.3199 26.98 41.3099C26.97 41.2999 26.94 41.2599 26.94 41.2099C26.94 40.5999 26.94 39.9899 26.94 39.3799C26.94 38.0599 26.94 36.7299 26.94 35.4099C27.89 34.7299 28.9 34.1099 29.94 33.6999C31.53 33.0799 33.28 32.7599 35.01 32.7299C35.01 34.0399 35.01 35.3499 35.01 36.6599C35.01 37.3499 34.99 38.0499 35 38.7499C33.17 38.7699 31.33 39.1299 29.67 39.8299ZM37.04 38.8899C36.66 38.8399 36.28 38.7999 35.89 38.7799C35.89 38.2399 35.89 37.6899 35.89 37.1499C35.89 35.6799 35.89 34.2199 35.89 32.7499C36.04 32.7599 36.2 32.7599 36.35 32.7799C38.49 32.9399 40.56 33.6699 42.56 34.3999C43.31 34.6699 44.06 34.9599 44.81 35.2299C44.81 36.6399 44.81 38.0399 44.81 39.4499C44.81 40.0899 44.79 40.7399 44.8 41.3799C44.48 41.2599 44.16 41.1399 43.84 41.0199C41.63 40.1799 39.41 39.2199 37.04 38.8899ZM53.78 40.0299C53.74 40.1399 53.64 40.2299 53.56 40.3199C53.45 40.4399 53.34 40.5699 53.23 40.6799C53.02 40.8899 52.8 41.0899 52.57 41.2699C52.2 41.5599 51.74 41.8299 51.34 41.9899C50.92 42.1599 50.39 42.2999 49.98 42.3399C48.53 42.4899 47.1 42.1699 45.71 41.7099C45.71 41.1199 45.71 40.5299 45.71 39.9399C45.71 38.4699 45.71 37.0099 45.71 35.5399C46.62 35.8299 47.53 36.0799 48.47 36.2199C49.52 36.3799 50.58 36.3999 51.62 36.1399C52.41 35.9399 53.14 35.5899 53.79 35.1199C53.79 35.9599 53.79 36.7899 53.79 37.6299C53.79 38.3699 53.79 39.1199 53.79 39.8599C53.79 39.9199 53.79 39.9799 53.78 40.0299Z" fill="#464860"/>
<path d="M26.9902 21.7C26.9902 21.7 26.9802 21.71 26.9702 21.72C26.9702 21.72 26.9802 21.72 26.9902 21.7Z" fill="#464860"/>
<path d="M53.7102 20.6799L53.7002 20.6899L53.7102 20.6799Z" fill="#464860"/>
</svg>
