<svg width="78" height="78" viewBox="0 0 78 78" fill="none" xmlns="http://www.w3.org/2000/svg">
<rect width="78" height="78" fill="white"/>
<path d="M42.4828 34.7666L38.1211 37.2758V33.9872L41.9898 31.7664C42.1827 32.7166 42.3435 33.7203 42.4828 34.7666Z" fill="white"/>
<path d="M36.8244 37.2863L32.3984 34.7452C32.5378 33.6988 32.6985 32.6951 32.8914 31.7449L36.8244 34.0084V37.2863Z" fill="white"/>
<path d="M32.2378 36.1438L36.8245 38.7811V42.0696L32.0234 39.3149C32.0663 38.2258 32.1306 37.1688 32.2378 36.1438Z" fill="white"/>
<path d="M38.1211 38.7705L42.6435 36.1653C42.74 37.1796 42.815 38.2367 42.8579 39.3364L38.1211 42.0591V38.7705Z" fill="white"/>
<path d="M41.7112 30.4316L38.1211 32.4923V21.6443C39.1392 22.7654 40.6609 25.9152 41.7112 30.4316Z" fill="white"/>
<path d="M36.8243 21.5696V32.503L33.1807 30.4103C34.2523 25.8084 35.8062 22.6266 36.8243 21.5696Z" fill="white"/>
<path d="M31.9912 40.9487C31.9912 40.8953 31.9912 40.842 31.9912 40.7886L36.8137 43.5646V53.5798C35.6349 53.6225 34.4882 53.7186 33.3737 53.8467C32.5056 50.3019 31.9912 45.7641 31.9912 40.9487Z" fill="white"/>
<path d="M38.1211 53.5477V43.5539L42.8793 40.8206C42.8793 40.8633 42.8793 40.9167 42.8793 40.9594C42.8793 45.668 42.397 50.1097 41.5504 53.6225C40.6717 53.5798 39.7822 53.5477 38.882 53.5477C38.6248 53.5371 38.3783 53.5371 38.1211 53.5477Z" fill="white"/>
<path d="M42.8152 31.1469L39.2251 33.2076V22.3596C40.2432 23.4807 41.7649 26.6305 42.8152 31.1469Z" fill="#CCB8F4"/>
<path d="M37.9283 22.2849V33.2183L34.2847 31.1256C35.3563 26.5237 36.921 23.342 37.9283 22.2849Z" fill="#CCB8F4"/>
<path d="M33.106 41.6641C33.106 41.6107 33.106 41.5573 33.106 41.5039L37.9285 44.28V54.2951C36.7496 54.3378 35.6029 54.4339 34.4884 54.5621C33.6096 51.0173 33.106 46.4795 33.106 41.6641Z" fill="#CCB8F4"/>
<path d="M39.2251 54.2631V44.2692L43.9833 41.5359C43.9833 41.5786 43.9833 41.632 43.9833 41.6747C43.9833 46.3833 43.5011 50.825 42.6544 54.3378C41.7757 54.2951 40.8862 54.2631 39.986 54.2631C39.7395 54.2524 39.4823 54.2524 39.2251 54.2631Z" fill="#CCB8F4"/>
<path d="M47.7984 23.438C49.0201 23.9505 50.8205 33.1756 47.927 43.9381C46.941 47.6004 45.6979 51.0064 44.3476 53.8572C43.8546 53.8038 43.3617 53.7504 42.858 53.7077C43.7046 50.1202 44.1869 45.6572 44.1869 40.9592C44.1869 36.667 43.5867 32.4815 42.6865 28.9794C44.9156 25.4453 47.0268 23.438 47.7984 23.438Z" fill="white"/>
<path d="M49.106 24.4417C50.3277 24.9542 52.1281 34.1792 49.2346 44.9418C48.2487 48.6041 47.0055 52.0101 45.6552 54.8609C45.1623 54.8075 44.6693 54.7541 44.1656 54.7114C45.0122 51.1239 45.4945 46.6608 45.4945 41.9629C45.4945 37.6706 44.8943 33.4852 43.9941 29.9831C46.2232 26.4596 48.3344 24.4417 49.106 24.4417Z" fill="#A3EFE0"/>
<path d="M45.6872 54.1242L45.5479 54.1028L45.6122 53.9747C46.9518 51.0705 48.1628 47.7072 49.0951 44.2371C50.8634 37.6814 50.7883 32.1933 50.5847 29.5133C50.349 26.2782 49.5774 22.68 48.1199 22.2956C48.0234 22.2742 47.9163 22.2529 47.8091 22.2529C46.566 22.2529 44.4655 24.2175 42.3222 27.3886L42.1936 27.5701L42.1293 27.3566C40.7575 22.8935 38.925 20 37.4354 20C34.5419 20 30.8017 30.1647 30.8017 40.9486C30.8017 45.6572 31.2947 50.2804 32.1949 53.9854L32.2271 54.1028L32.1092 54.1135C28.3048 54.6687 25.1648 55.651 23 56.9536L23.568 57.8719C26.7937 55.9286 32.645 54.7114 38.8821 54.7114C45.2907 54.7114 51.217 55.9713 54.3999 57.9893L54.9893 57.0818C52.8888 55.7578 49.5881 54.7008 45.6872 54.1242ZM36.9317 43.5645V53.5797V53.6864H36.8245C35.6564 53.7291 34.5097 53.8252 33.3952 53.9534L33.2987 53.964L33.2773 53.8679C32.3771 50.2591 31.8841 45.6786 31.8841 40.9486V40.8632V40.7884V40.6069L32.0449 40.703L36.8674 43.4791L36.9317 43.5004V43.5645ZM36.9317 38.7811V42.0697V42.2512L36.7709 42.1551L31.9699 39.4004L31.9163 39.3684V39.3043C31.9484 38.2366 32.0234 37.1689 32.1306 36.1332L32.152 35.973L32.2914 36.0584L36.8781 38.6957L36.9317 38.7171V38.7811ZM36.9317 33.9978V37.2863V37.4678L36.7709 37.3717L32.3449 34.8412L32.2806 34.8092L32.2914 34.7345C32.42 33.7308 32.5914 32.7165 32.7843 31.7235L32.8165 31.574L32.9451 31.6488L36.8781 33.9123L36.9317 33.9444V33.9978ZM36.9317 21.5695V32.503V32.6845L36.7709 32.5884L33.1273 30.4956L33.0522 30.4636L33.0737 30.3889C34.1453 25.787 35.7314 22.5518 36.7495 21.4948L36.9317 21.3026V21.5695ZM38.0141 32.4923V21.6443V21.3667L38.1962 21.5695C39.2358 22.7227 40.7575 25.8938 41.8078 30.4102L41.8292 30.485L41.7649 30.5277L38.1748 32.5884L38.0141 32.6845V32.4923ZM38.0141 37.2756V33.9871V33.923L38.0676 33.891L41.9364 31.6701L42.065 31.5954L42.0971 31.7449C42.3007 32.7485 42.4615 33.7522 42.5901 34.7558L42.6008 34.8306L42.5365 34.8626L38.1748 37.3717L38.0141 37.4678V37.2756ZM38.0141 42.059V38.7704V38.7064L38.0676 38.6743L42.5901 36.0691L42.7294 35.9837L42.7508 36.1439C42.858 37.1795 42.9223 38.2473 42.9652 39.315V39.379L42.9116 39.4111L38.1748 42.1337L38.0141 42.2298V42.059ZM41.6363 53.7185H41.5506C40.6397 53.6651 39.7502 53.6437 38.8928 53.6437C38.6892 53.6437 38.4963 53.6437 38.2927 53.6544H38.1319H38.0248V53.5476V43.5538V43.4897L38.0784 43.4577L42.8366 40.7244L42.9973 40.6283V40.8098V40.8632V40.9486C42.9973 45.5611 42.5258 50.0669 41.6685 53.633L41.6363 53.7185ZM44.4119 53.964L44.3369 53.9534C43.8332 53.9 43.3295 53.8466 42.8473 53.8039L42.7187 53.7932L42.7508 53.6758C43.6082 50.0455 44.069 45.5291 44.069 40.9486C44.069 35.8663 43.2545 31.6381 42.5794 28.9902L42.5687 28.9475L42.5901 28.9047C44.8835 25.2745 46.9839 23.3206 47.7984 23.3206H47.8198L47.8413 23.3313C49.0844 23.8545 50.9384 33.1436 48.0342 43.9489C47.0697 47.5364 45.8265 50.9744 44.4441 53.8786L44.4119 53.964Z" fill="#464860"/>
</svg>
