<svg width="78" height="78" viewBox="0 0 78 78" fill="none" xmlns="http://www.w3.org/2000/svg">
<rect width="78" height="78" fill="white"/>
<path d="M47.2603 55.1801L47.1903 55.1101L45.0403 52.9601L44.9203 52.8401L45.0903 52.8001C46.3103 52.4801 47.1603 51.3801 47.1603 50.1201C47.1603 48.6001 45.9203 47.3601 44.4003 47.3601C43.1403 47.3601 42.0403 48.2101 41.7203 49.4301L41.6803 49.6001L41.5603 49.4801L39.4103 47.3301L39.3403 47.2601L39.4103 47.1901L42.5403 44.0601C42.6903 43.9101 42.7203 43.6701 42.6103 43.4801C42.5303 43.3401 42.3703 43.2501 42.2103 43.2501C42.1603 43.2501 42.1203 43.2601 42.0703 43.2701C41.9003 43.3201 41.7203 43.3501 41.5303 43.3501C40.5303 43.3501 39.7103 42.5301 39.7103 41.5301C39.7103 40.5301 40.5303 39.7101 41.5303 39.7101C42.5303 39.7101 43.3503 40.5301 43.3503 41.5301C43.3503 41.7101 43.3203 41.8901 43.2703 42.0701C43.2103 42.2801 43.2903 42.5001 43.4803 42.6101C43.5503 42.6501 43.6403 42.6801 43.7203 42.6801C43.8503 42.6801 43.9603 42.6301 44.0503 42.5401L47.1803 39.4101L47.2503 39.3401L47.3203 39.4101L55.1003 47.1901L55.1703 47.2601L55.1003 47.3301L47.3203 55.1101L47.2603 55.1801Z" fill="white"/>
<path d="M34.7199 51.0401C34.7999 51.1801 34.9599 51.2701 35.1199 51.2701C35.1699 51.2701 35.2099 51.2601 35.2599 51.2501C35.4299 51.2001 35.6099 51.1701 35.7899 51.1701C36.7899 51.1701 37.6099 51.9901 37.6099 52.9901C37.6099 53.9901 36.7999 54.8001 35.7999 54.8001C34.7999 54.8001 33.9799 53.9801 33.9799 52.9801C33.9799 52.8001 34.0099 52.6201 34.0599 52.4401C34.1199 52.2301 34.0399 52.0101 33.8499 51.9001C33.7799 51.8601 33.6899 51.8301 33.6099 51.8301C33.4799 51.8301 33.3699 51.8801 33.2699 51.9701L30.1399 55.1001L30.0699 55.1701L29.9999 55.1101L22.2199 47.3301L22.1499 47.2601L22.2199 47.1901L29.9999 39.4001L30.0699 39.3301L30.1399 39.4001L32.2899 41.5501L32.4099 41.6701L32.2399 41.7101C31.0199 42.0301 30.1699 43.1301 30.1699 44.3901C30.1699 45.9101 31.4099 47.1501 32.9299 47.1501C34.1899 47.1501 35.2899 46.3001 35.6099 45.0801L35.6499 44.9101L35.7699 45.0301L37.9199 47.1801L37.9899 47.2501L37.9199 47.3201L34.7899 50.4501C34.6299 50.6101 34.6099 50.8501 34.7199 51.0401Z" fill="white"/>
<path d="M46.5902 30.0699L46.5202 30.1399L44.3702 32.2899L44.2502 32.4099L44.2102 32.2699C43.8902 31.0499 42.7902 30.1999 41.5302 30.1999C40.0102 30.1999 38.7702 31.4399 38.7702 32.9599C38.7702 34.2199 39.6202 35.3199 40.8402 35.6399L40.9802 35.6799L40.8702 35.7899L38.7202 37.9399L38.6502 38.0099L38.5802 37.9399L35.3402 34.6999C35.3102 34.6899 35.2802 34.6999 35.2502 34.6899C35.0402 34.6199 34.8202 34.7099 34.7002 34.8999C34.6602 34.9699 34.6302 35.0599 34.6302 35.1399C34.6302 35.2199 34.6602 35.2999 34.6902 35.3599C34.7202 35.4999 34.7502 35.6399 34.7502 35.7799C34.7502 36.7799 33.9302 37.5999 32.9302 37.5999C31.9302 37.5999 31.1102 36.7799 31.1102 35.7799C31.1102 34.7799 31.9302 33.9599 32.9302 33.9599C33.0802 33.9599 33.2302 33.9899 33.3702 34.0299L33.3502 34.0099C33.5002 34.0899 33.6702 34.1199 33.8202 34.0299C33.9602 33.9499 34.0502 33.7899 34.0502 33.6299C34.0502 33.5799 34.0402 33.5399 34.0302 33.4899C34.0202 33.4599 34.0202 33.4299 34.0202 33.3999L30.8102 30.1399L30.7402 30.0699L30.8102 29.9999L38.5902 22.2199L38.6602 22.1499L38.7302 22.2199L46.5202 29.9999L46.5902 30.0699Z" fill="white"/>
<path d="M47.2601 56.1601L47.1901 56.0901L45.0401 53.9401L44.9201 53.8201L45.0901 53.7801C46.3101 53.4601 47.1601 52.3601 47.1601 51.1001C47.1601 49.5801 45.9201 48.3401 44.4001 48.3401C43.1401 48.3401 42.0401 49.1901 41.7201 50.4101L41.6801 50.5801L41.5601 50.4601L39.4001 48.3001L39.3301 48.2301L39.4001 48.1601L42.5301 45.0301C42.6801 44.8801 42.7101 44.6401 42.6001 44.4501C42.5201 44.3101 42.3601 44.2201 42.2001 44.2201C42.1501 44.2201 42.1101 44.2301 42.0601 44.2401C41.8901 44.2901 41.7101 44.3201 41.5201 44.3201C40.5201 44.3201 39.7001 43.5001 39.7001 42.5001C39.7001 41.5001 40.5201 40.6801 41.5201 40.6801C42.5201 40.6801 43.3401 41.5001 43.3401 42.5001C43.3401 42.6801 43.3101 42.8601 43.2601 43.0401C43.2001 43.2501 43.2801 43.4701 43.4701 43.5801C43.5401 43.6201 43.6301 43.6501 43.7101 43.6501C43.8401 43.6501 43.9501 43.6001 44.0401 43.5101L47.1701 40.3801L47.2401 40.3101L47.3101 40.3801L55.0901 48.1601L55.1601 48.2301L55.0901 48.3001L47.3101 56.0801L47.2601 56.1601Z" fill="#CCB8F4"/>
<path d="M34.7201 52.0201C34.8001 52.1601 34.9601 52.2501 35.1201 52.2501C35.1701 52.2501 35.2101 52.2401 35.2601 52.2301C35.4301 52.1801 35.6101 52.1501 35.7901 52.1501C36.7901 52.1501 37.6101 52.9701 37.6101 53.9701C37.6101 54.9701 36.7901 55.7901 35.7901 55.7901C34.7901 55.7901 33.9701 54.9701 33.9701 53.9701C33.9701 53.7901 34.0001 53.6101 34.0501 53.4301C34.1101 53.2201 34.0301 53.0001 33.8401 52.8901C33.7701 52.8501 33.6801 52.8201 33.6001 52.8201C33.4701 52.8201 33.3601 52.8701 33.2601 52.9601L30.1301 56.0901L30.0601 56.1601L30.0001 56.0901L22.2101 48.3001L22.1401 48.2301L22.2101 48.1601L30.0001 40.3801L30.0701 40.3101L30.1401 40.3801L32.2901 42.5301L32.4101 42.6501L32.2401 42.6901C31.0201 43.0101 30.1701 44.1101 30.1701 45.3701C30.1701 46.8901 31.4101 48.1301 32.9301 48.1301C34.1901 48.1301 35.2901 47.2801 35.6101 46.0601L35.6501 45.8901L35.7701 46.0101L37.9201 48.1601L37.9901 48.2301L37.9201 48.3001L34.7901 51.4301C34.6301 51.5901 34.6101 51.8301 34.7201 52.0201Z" fill="#CCB8F4"/>
<path d="M46.5902 29.3199L46.5202 29.3899L44.3702 31.5399L44.2502 31.6599L44.2102 31.5199C43.8902 30.2999 42.7902 29.4499 41.5302 29.4499C40.0102 29.4499 38.7702 30.6899 38.7702 32.2099C38.7702 33.4699 39.6202 34.5699 40.8402 34.8899L40.9802 34.9299L40.8702 35.0399L38.7202 37.1899L38.6502 37.2599L38.5802 37.1899L35.3402 33.9499C35.3102 33.9399 35.2802 33.9499 35.2502 33.9399C35.0402 33.8699 34.8202 33.9599 34.7002 34.1499C34.6602 34.2199 34.6302 34.3099 34.6302 34.3899C34.6302 34.4699 34.6602 34.5499 34.6902 34.6099C34.7202 34.7499 34.7502 34.8899 34.7502 35.0299C34.7502 36.0299 33.9302 36.8499 32.9302 36.8499C31.9302 36.8499 31.1102 36.0299 31.1102 35.0299C31.1102 34.0299 31.9302 33.2099 32.9302 33.2099C33.0802 33.2099 33.2302 33.2399 33.3702 33.2799L33.3502 33.2599C33.5002 33.3399 33.6702 33.3699 33.8202 33.2799C33.9602 33.1999 34.0502 33.0399 34.0502 32.8799C34.0502 32.8299 34.0402 32.7899 34.0302 32.7399C34.0202 32.7099 34.0202 32.6799 34.0202 32.6499L30.8102 29.3899L30.7402 29.3199L30.8102 29.2499L38.5902 21.4699L38.6602 21.3999L38.7302 21.4699L46.5102 29.2499L46.5902 29.3199Z" fill="#A3EFE0"/>
<path d="M56.1801 46.9199L47.5901 38.3299C47.5101 38.2499 47.3801 38.1999 47.2601 38.1999C47.1401 38.1999 47.0101 38.2499 46.9301 38.3299L44.3801 40.8799L44.2501 40.9999L44.2101 40.8299C43.8901 39.6099 42.7901 38.7599 41.5301 38.7599C40.0101 38.7599 38.7701 39.9999 38.7701 41.5199C38.7701 42.7799 39.6201 43.8799 40.8401 44.1999L41.0001 44.2499L40.8801 44.3699L38.7301 46.5199L38.6601 46.5899L38.5901 46.5199L35.4601 43.3899C35.3701 43.2999 35.2501 43.2499 35.1301 43.2499C35.0401 43.2499 34.9601 43.2699 34.8901 43.3199C34.7001 43.4299 34.6201 43.6599 34.6801 43.8599C34.7301 44.0299 34.7601 44.2099 34.7601 44.3899C34.7601 45.3899 33.9401 46.2099 32.9401 46.2099C31.9401 46.2099 31.1201 45.3899 31.1201 44.3899C31.1201 43.3899 31.9401 42.5699 32.9401 42.5699C33.1201 42.5699 33.3001 42.5999 33.4701 42.6499C33.5201 42.6599 33.5601 42.6699 33.6101 42.6699C33.7701 42.6699 33.9301 42.5799 34.0101 42.4399C34.1201 42.2499 34.0901 42.0199 33.9401 41.8599L30.4001 38.3299C30.3101 38.2399 30.1901 38.1899 30.0701 38.1899C29.9401 38.1899 29.8201 38.2399 29.7401 38.3299L21.1501 46.9199C20.9701 47.0999 20.9701 47.3999 21.1501 47.5899L29.7401 56.1799C29.8301 56.2699 29.9501 56.3199 30.0701 56.3199C30.2001 56.3199 30.3201 56.2699 30.4001 56.1799L32.9501 53.6299L33.0701 53.5099L33.1101 53.6799C33.4301 54.8999 34.5301 55.7499 35.7901 55.7499C37.3101 55.7499 38.5501 54.5099 38.5501 52.9899C38.5501 51.7299 37.7001 50.6299 36.4801 50.3099L36.3101 50.2699L36.4301 50.1499L38.5901 47.9999L38.6601 47.9299L38.7301 47.9999L41.8601 51.1299C41.9501 51.2199 42.0701 51.2699 42.1901 51.2699C42.2801 51.2699 42.3601 51.2499 42.4301 51.1999C42.6201 51.0899 42.7001 50.8599 42.6401 50.6599C42.5901 50.4899 42.5601 50.3099 42.5601 50.1299C42.5601 49.1299 43.3801 48.3099 44.3801 48.3099C45.3801 48.3099 46.2001 49.1299 46.2001 50.1299C46.2001 51.1299 45.3801 51.9499 44.3801 51.9499C44.2001 51.9499 44.0201 51.9199 43.8501 51.8699C43.8001 51.8599 43.7601 51.8499 43.7101 51.8499C43.5501 51.8499 43.3901 51.9399 43.3101 52.0799C43.2001 52.2699 43.2301 52.5099 43.3801 52.6599L46.9201 56.1999C47.0101 56.2899 47.1301 56.3399 47.2501 56.3399C47.3801 56.3399 47.4901 56.2899 47.5801 56.1999L56.1701 47.6099C56.3701 47.4099 56.3701 47.1099 56.1801 46.9199ZM47.2601 55.1799L47.1901 55.1099L45.0401 52.9599L44.9201 52.8399L45.0901 52.7999C46.3101 52.4799 47.1601 51.3799 47.1601 50.1199C47.1601 48.5999 45.9201 47.3599 44.4001 47.3599C43.1401 47.3599 42.0401 48.2099 41.7201 49.4299L41.6801 49.5999L41.5601 49.4799L39.4101 47.3299L39.3401 47.2599L39.4101 47.1899L42.5401 44.0599C42.6901 43.9099 42.7201 43.6699 42.6101 43.4799C42.5301 43.3399 42.3701 43.2499 42.2101 43.2499C42.1601 43.2499 42.1201 43.2599 42.0701 43.2699C41.9001 43.3199 41.7201 43.3499 41.5301 43.3499C40.5301 43.3499 39.7101 42.5299 39.7101 41.5299C39.7101 40.5299 40.5301 39.7099 41.5301 39.7099C42.5301 39.7099 43.3501 40.5299 43.3501 41.5299C43.3501 41.7099 43.3201 41.8899 43.2701 42.0699C43.2101 42.2799 43.2901 42.4999 43.4801 42.6099C43.5501 42.6499 43.6401 42.6799 43.7201 42.6799C43.8501 42.6799 43.9601 42.6299 44.0501 42.5399L47.1801 39.4099L47.2501 39.3399L47.3201 39.4099L55.1001 47.1899L55.1701 47.2599L55.1001 47.3299L47.3201 55.1099L47.2601 55.1799ZM42.2001 43.3399C42.1601 43.3399 42.1301 43.3499 42.0901 43.3599C42.1301 43.3499 42.1601 43.3399 42.2001 43.3399ZM34.7201 51.0399C34.8001 51.1799 34.9601 51.2699 35.1201 51.2699C35.1701 51.2699 35.2101 51.2599 35.2601 51.2499C35.4301 51.1999 35.6101 51.1699 35.7901 51.1699C36.7901 51.1699 37.6101 51.9899 37.6101 52.9899C37.6101 53.9899 36.8001 54.7999 35.8001 54.7999C34.8001 54.7999 33.9801 53.9799 33.9801 52.9799C33.9801 52.7999 34.0101 52.6199 34.0601 52.4399C34.1201 52.2299 34.0401 52.0099 33.8501 51.8999C33.7801 51.8599 33.6901 51.8299 33.6101 51.8299C33.4801 51.8299 33.3701 51.8799 33.2701 51.9699L30.1401 55.0999L30.0701 55.1699L30.0001 55.1099L22.2201 47.3299L22.1501 47.2599L22.2201 47.1899L30.0001 39.3999L30.0701 39.3299L30.1401 39.3999L32.2901 41.5499L32.4101 41.6699L32.2401 41.7099C31.0201 42.0299 30.1701 43.1299 30.1701 44.3899C30.1701 45.9099 31.4101 47.1499 32.9301 47.1499C34.1901 47.1499 35.2901 46.2999 35.6101 45.0799L35.6501 44.9099L35.7701 45.0299L37.9201 47.1799L37.9901 47.2499L37.9201 47.3199L34.7901 50.4499C34.6301 50.6099 34.6101 50.8499 34.7201 51.0399Z" fill="#464860"/>
<path d="M47.5903 29.73L39.0003 21.14C38.9403 21.08 38.8703 21.05 38.7903 21.03C38.7403 21.01 38.7003 21 38.6603 21C38.6003 21 38.5403 21.01 38.4803 21.04C38.4203 21.06 38.3703 21.1 38.3303 21.14L29.7303 29.73C29.6403 29.82 29.5903 29.94 29.5903 30.07C29.5903 30.2 29.6403 30.31 29.7303 30.4L32.3903 33.06L32.2703 33.09C31.0503 33.41 30.2003 34.51 30.2003 35.77C30.2003 37.29 31.4403 38.53 32.9603 38.53C34.2203 38.53 35.3203 37.68 35.6403 36.46L35.6703 36.34L38.3303 39C38.4203 39.09 38.5403 39.14 38.6603 39.14C38.6803 39.14 38.6903 39.13 38.7103 39.13C38.7603 39.13 38.8003 39.12 38.8403 39.1C38.9003 39.08 38.9503 39.04 38.9903 39L42.5303 35.46C42.6803 35.31 42.7103 35.07 42.6003 34.88C42.5203 34.74 42.3603 34.65 42.2003 34.65C42.1503 34.65 42.1103 34.66 42.0603 34.67C42.0303 34.68 42.0003 34.68 41.9703 34.68L41.9403 34.71C41.8103 34.74 41.6703 34.77 41.5303 34.77C40.5303 34.77 39.7103 33.95 39.7103 32.95C39.7103 31.95 40.5303 31.13 41.5303 31.13C42.5303 31.13 43.3503 31.95 43.3503 32.95C43.3503 33.09 43.3203 33.22 43.2903 33.36L43.2803 33.37C43.2703 33.4 43.2803 33.43 43.2703 33.46C43.2003 33.67 43.2903 33.89 43.4803 34.01C43.5503 34.05 43.6403 34.08 43.7203 34.08C43.8503 34.08 43.9703 34.03 44.0503 33.94L47.5903 30.4C47.6803 30.31 47.7303 30.19 47.7303 30.07C47.7303 29.94 47.6803 29.82 47.5903 29.73ZM46.5903 30.07L46.5203 30.14L44.3703 32.29L44.2503 32.41L44.2103 32.27C43.8903 31.05 42.7903 30.2 41.5303 30.2C40.0103 30.2 38.7703 31.44 38.7703 32.96C38.7703 34.22 39.6203 35.32 40.8403 35.64L40.9803 35.68L40.8703 35.79L38.7203 37.94L38.6503 38.01L38.5803 37.94L35.3403 34.7C35.3103 34.69 35.2803 34.7 35.2503 34.69C35.0403 34.62 34.8203 34.71 34.7003 34.9C34.6603 34.97 34.6303 35.06 34.6303 35.14C34.6303 35.22 34.6603 35.3 34.6903 35.36C34.7203 35.5 34.7503 35.64 34.7503 35.78C34.7503 36.78 33.9303 37.6 32.9303 37.6C31.9303 37.6 31.1103 36.78 31.1103 35.78C31.1103 34.78 31.9303 33.96 32.9303 33.96C33.0803 33.96 33.2303 33.99 33.3703 34.03L33.3503 34.01C33.5003 34.09 33.6703 34.12 33.8203 34.03C33.9603 33.95 34.0503 33.79 34.0503 33.63C34.0503 33.58 34.0403 33.54 34.0303 33.49C34.0203 33.46 34.0203 33.43 34.0203 33.4L30.8103 30.14L30.7403 30.07L30.8103 30L38.5903 22.22L38.6603 22.15L38.7303 22.22L46.5203 30L46.5903 30.07Z" fill="#464860"/>
</svg>
