<svg width="36" height="36" viewBox="0 0 36 36" fill="none" xmlns="http://www.w3.org/2000/svg">
<path d="M26.2603 34.1801L26.1903 34.1101L24.0403 31.9601L23.9203 31.8401L24.0903 31.8001C25.3103 31.4801 26.1603 30.3801 26.1603 29.1201C26.1603 27.6001 24.9203 26.3601 23.4003 26.3601C22.1403 26.3601 21.0403 27.2101 20.7203 28.4301L20.6803 28.6001L20.5603 28.4801L18.4103 26.3301L18.3403 26.2601L18.4103 26.1901L21.5403 23.0601C21.6903 22.9101 21.7203 22.6701 21.6103 22.4801C21.5303 22.3401 21.3703 22.2501 21.2103 22.2501C21.1603 22.2501 21.1203 22.2601 21.0703 22.2701C20.9003 22.3201 20.7203 22.3501 20.5303 22.3501C19.5303 22.3501 18.7103 21.5301 18.7103 20.5301C18.7103 19.5301 19.5303 18.7101 20.5303 18.7101C21.5303 18.7101 22.3503 19.5301 22.3503 20.5301C22.3503 20.7101 22.3203 20.8901 22.2703 21.0701C22.2103 21.2801 22.2903 21.5001 22.4803 21.6101C22.5503 21.6501 22.6403 21.6801 22.7203 21.6801C22.8503 21.6801 22.9603 21.6301 23.0503 21.5401L26.1803 18.4101L26.2503 18.3401L26.3203 18.4101L34.1003 26.1901L34.1703 26.2601L34.1003 26.3301L26.3203 34.1101L26.2603 34.1801Z" fill="white"/>
<path d="M13.7199 30.0401C13.7999 30.1801 13.9599 30.2701 14.1199 30.2701C14.1699 30.2701 14.2099 30.2601 14.2599 30.2501C14.4299 30.2001 14.6099 30.1701 14.7899 30.1701C15.7899 30.1701 16.6099 30.9901 16.6099 31.9901C16.6099 32.9901 15.7999 33.8001 14.7999 33.8001C13.7999 33.8001 12.9799 32.9801 12.9799 31.9801C12.9799 31.8001 13.0099 31.6201 13.0599 31.4401C13.1199 31.2301 13.0399 31.0101 12.8499 30.9001C12.7799 30.8601 12.6899 30.8301 12.6099 30.8301C12.4799 30.8301 12.3699 30.8801 12.2699 30.9701L9.1399 34.1001L9.0699 34.1701L8.9999 34.1101L1.2199 26.3301L1.1499 26.2601L1.2199 26.1901L8.9999 18.4001L9.0699 18.3301L9.1399 18.4001L11.2899 20.5501L11.4099 20.6701L11.2399 20.7101C10.0199 21.0301 9.1699 22.1301 9.1699 23.3901C9.1699 24.9101 10.4099 26.1501 11.9299 26.1501C13.1899 26.1501 14.2899 25.3001 14.6099 24.0801L14.6499 23.9101L14.7699 24.0301L16.9199 26.1801L16.9899 26.2501L16.9199 26.3201L13.7899 29.4501C13.6299 29.6101 13.6099 29.8501 13.7199 30.0401Z" fill="white"/>
<path d="M25.5902 9.0699L25.5202 9.1399L23.3702 11.2899L23.2502 11.4099L23.2102 11.2699C22.8902 10.0499 21.7902 9.1999 20.5302 9.1999C19.0102 9.1999 17.7702 10.4399 17.7702 11.9599C17.7702 13.2199 18.6202 14.3199 19.8402 14.6399L19.9802 14.6799L19.8702 14.7899L17.7202 16.9399L17.6502 17.0099L17.5802 16.9399L14.3402 13.6999C14.3102 13.6899 14.2802 13.6999 14.2502 13.6899C14.0402 13.6199 13.8202 13.7099 13.7002 13.8999C13.6602 13.9699 13.6302 14.0599 13.6302 14.1399C13.6302 14.2199 13.6602 14.2999 13.6902 14.3599C13.7202 14.4999 13.7502 14.6399 13.7502 14.7799C13.7502 15.7799 12.9302 16.5999 11.9302 16.5999C10.9302 16.5999 10.1102 15.7799 10.1102 14.7799C10.1102 13.7799 10.9302 12.9599 11.9302 12.9599C12.0802 12.9599 12.2302 12.9899 12.3702 13.0299L12.3502 13.0099C12.5002 13.0899 12.6702 13.1199 12.8202 13.0299C12.9602 12.9499 13.0502 12.7899 13.0502 12.6299C13.0502 12.5799 13.0402 12.5399 13.0302 12.4899C13.0202 12.4599 13.0202 12.4299 13.0202 12.3999L9.81024 9.1399L9.74023 9.0699L9.81024 8.9999L17.5902 1.2199L17.6602 1.1499L17.7302 1.2199L25.5202 8.9999L25.5902 9.0699Z" fill="white"/>
<path d="M26.2601 35.1601L26.1901 35.0901L24.0401 32.9401L23.9201 32.8201L24.0901 32.7801C25.3101 32.4601 26.1601 31.3601 26.1601 30.1001C26.1601 28.5801 24.9201 27.3401 23.4001 27.3401C22.1401 27.3401 21.0401 28.1901 20.7201 29.4101L20.6801 29.5801L20.5601 29.4601L18.4001 27.3001L18.3301 27.2301L18.4001 27.1601L21.5301 24.0301C21.6801 23.8801 21.7101 23.6401 21.6001 23.4501C21.5201 23.3101 21.3601 23.2201 21.2001 23.2201C21.1501 23.2201 21.1101 23.2301 21.0601 23.2401C20.8901 23.2901 20.7101 23.3201 20.5201 23.3201C19.5201 23.3201 18.7001 22.5001 18.7001 21.5001C18.7001 20.5001 19.5201 19.6801 20.5201 19.6801C21.5201 19.6801 22.3401 20.5001 22.3401 21.5001C22.3401 21.6801 22.3101 21.8601 22.2601 22.0401C22.2001 22.2501 22.2801 22.4701 22.4701 22.5801C22.5401 22.6201 22.6301 22.6501 22.7101 22.6501C22.8401 22.6501 22.9501 22.6001 23.0401 22.5101L26.1701 19.3801L26.2401 19.3101L26.3101 19.3801L34.0901 27.1601L34.1601 27.2301L34.0901 27.3001L26.3101 35.0801L26.2601 35.1601Z" fill="#CCB8F4"/>
<path d="M13.7201 31.0201C13.8001 31.1601 13.9601 31.2501 14.1201 31.2501C14.1701 31.2501 14.2101 31.2401 14.2601 31.2301C14.4301 31.1801 14.6101 31.1501 14.7901 31.1501C15.7901 31.1501 16.6101 31.9701 16.6101 32.9701C16.6101 33.9701 15.7901 34.7901 14.7901 34.7901C13.7901 34.7901 12.9701 33.9701 12.9701 32.9701C12.9701 32.7901 13.0001 32.6101 13.0501 32.4301C13.1101 32.2201 13.0301 32.0001 12.8401 31.8901C12.7701 31.8501 12.6801 31.8201 12.6001 31.8201C12.4701 31.8201 12.3601 31.8701 12.2601 31.9601L9.13014 35.0901L9.06014 35.1601L9.00014 35.0901L1.21014 27.3001L1.14014 27.2301L1.21014 27.1601L9.00014 19.3801L9.07014 19.3101L9.14014 19.3801L11.2901 21.5301L11.4101 21.6501L11.2401 21.6901C10.0201 22.0101 9.17014 23.1101 9.17014 24.3701C9.17014 25.8901 10.4101 27.1301 11.9301 27.1301C13.1901 27.1301 14.2901 26.2801 14.6101 25.0601L14.6501 24.8901L14.7701 25.0101L16.9201 27.1601L16.9901 27.2301L16.9201 27.3001L13.7901 30.4301C13.6301 30.5901 13.6101 30.8301 13.7201 31.0201Z" fill="#CCB8F4"/>
<path d="M25.5902 8.3199L25.5202 8.3899L23.3702 10.5399L23.2502 10.6599L23.2102 10.5199C22.8902 9.2999 21.7902 8.4499 20.5302 8.4499C19.0102 8.4499 17.7702 9.6899 17.7702 11.2099C17.7702 12.4699 18.6202 13.5699 19.8402 13.8899L19.9802 13.9299L19.8702 14.0399L17.7202 16.1899L17.6502 16.2599L17.5802 16.1899L14.3402 12.9499C14.3102 12.9399 14.2802 12.9499 14.2502 12.9399C14.0402 12.8699 13.8202 12.9599 13.7002 13.1499C13.6602 13.2199 13.6302 13.3099 13.6302 13.3899C13.6302 13.4699 13.6602 13.5499 13.6902 13.6099C13.7202 13.7499 13.7502 13.8899 13.7502 14.0299C13.7502 15.0299 12.9302 15.8499 11.9302 15.8499C10.9302 15.8499 10.1102 15.0299 10.1102 14.0299C10.1102 13.0299 10.9302 12.2099 11.9302 12.2099C12.0802 12.2099 12.2302 12.2399 12.3702 12.2799L12.3502 12.2599C12.5002 12.3399 12.6702 12.3699 12.8202 12.2799C12.9602 12.1999 13.0502 12.0399 13.0502 11.8799C13.0502 11.8299 13.0402 11.7899 13.0302 11.7399C13.0202 11.7099 13.0202 11.6799 13.0202 11.6499L9.81024 8.3899L9.74023 8.3199L9.81024 8.2499L17.5902 0.469902L17.6602 0.399902L17.7302 0.469902L25.5102 8.2499L25.5902 8.3199Z" fill="#A3EFE0"/>
<path d="M35.1801 25.9199L26.5901 17.3299C26.5101 17.2499 26.3801 17.1999 26.2601 17.1999C26.1401 17.1999 26.0101 17.2499 25.9301 17.3299L23.3801 19.8799L23.2501 19.9999L23.2101 19.8299C22.8901 18.6099 21.7901 17.7599 20.5301 17.7599C19.0101 17.7599 17.7701 18.9999 17.7701 20.5199C17.7701 21.7799 18.6201 22.8799 19.8401 23.1999L20.0001 23.2499L19.8801 23.3699L17.7301 25.5199L17.6601 25.5899L17.5901 25.5199L14.4601 22.3899C14.3701 22.2999 14.2501 22.2499 14.1301 22.2499C14.0401 22.2499 13.9601 22.2699 13.8901 22.3199C13.7001 22.4299 13.6201 22.6599 13.6801 22.8599C13.7301 23.0299 13.7601 23.2099 13.7601 23.3899C13.7601 24.3899 12.9401 25.2099 11.9401 25.2099C10.9401 25.2099 10.1201 24.3899 10.1201 23.3899C10.1201 22.3899 10.9401 21.5699 11.9401 21.5699C12.1201 21.5699 12.3001 21.5999 12.4701 21.6499C12.5201 21.6599 12.5601 21.6699 12.6101 21.6699C12.7701 21.6699 12.9301 21.5799 13.0101 21.4399C13.1201 21.2499 13.0901 21.0199 12.9401 20.8599L9.40014 17.3299C9.31014 17.2399 9.19014 17.1899 9.07014 17.1899C8.94014 17.1899 8.82014 17.2399 8.74014 17.3299L0.150137 25.9199C-0.0298633 26.0999 -0.0298633 26.3999 0.150137 26.5899L8.74014 35.1799C8.83014 35.2699 8.95014 35.3199 9.07014 35.3199C9.20014 35.3199 9.32014 35.2699 9.40014 35.1799L11.9501 32.6299L12.0701 32.5099L12.1101 32.6799C12.4301 33.8999 13.5301 34.7499 14.7901 34.7499C16.3101 34.7499 17.5501 33.5099 17.5501 31.9899C17.5501 30.7299 16.7001 29.6299 15.4801 29.3099L15.3101 29.2699L15.4301 29.1499L17.5901 26.9999L17.6601 26.9299L17.7301 26.9999L20.8601 30.1299C20.9501 30.2199 21.0701 30.2699 21.1901 30.2699C21.2801 30.2699 21.3601 30.2499 21.4301 30.1999C21.6201 30.0899 21.7001 29.8599 21.6401 29.6599C21.5901 29.4899 21.5601 29.3099 21.5601 29.1299C21.5601 28.1299 22.3801 27.3099 23.3801 27.3099C24.3801 27.3099 25.2001 28.1299 25.2001 29.1299C25.2001 30.1299 24.3801 30.9499 23.3801 30.9499C23.2001 30.9499 23.0201 30.9199 22.8501 30.8699C22.8001 30.8599 22.7601 30.8499 22.7101 30.8499C22.5501 30.8499 22.3901 30.9399 22.3101 31.0799C22.2001 31.2699 22.2301 31.5099 22.3801 31.6599L25.9201 35.1999C26.0101 35.2899 26.1301 35.3399 26.2501 35.3399C26.3801 35.3399 26.4901 35.2899 26.5801 35.1999L35.1701 26.6099C35.3701 26.4099 35.3701 26.1099 35.1801 25.9199ZM26.2601 34.1799L26.1901 34.1099L24.0401 31.9599L23.9201 31.8399L24.0901 31.7999C25.3101 31.4799 26.1601 30.3799 26.1601 29.1199C26.1601 27.5999 24.9201 26.3599 23.4001 26.3599C22.1401 26.3599 21.0401 27.2099 20.7201 28.4299L20.6801 28.5999L20.5601 28.4799L18.4101 26.3299L18.3401 26.2599L18.4101 26.1899L21.5401 23.0599C21.6901 22.9099 21.7201 22.6699 21.6101 22.4799C21.5301 22.3399 21.3701 22.2499 21.2101 22.2499C21.1601 22.2499 21.1201 22.2599 21.0701 22.2699C20.9001 22.3199 20.7201 22.3499 20.5301 22.3499C19.5301 22.3499 18.7101 21.5299 18.7101 20.5299C18.7101 19.5299 19.5301 18.7099 20.5301 18.7099C21.5301 18.7099 22.3501 19.5299 22.3501 20.5299C22.3501 20.7099 22.3201 20.8899 22.2701 21.0699C22.2101 21.2799 22.2901 21.4999 22.4801 21.6099C22.5501 21.6499 22.6401 21.6799 22.7201 21.6799C22.8501 21.6799 22.9601 21.6299 23.0501 21.5399L26.1801 18.4099L26.2501 18.3399L26.3201 18.4099L34.1001 26.1899L34.1701 26.2599L34.1001 26.3299L26.3201 34.1099L26.2601 34.1799ZM21.2001 22.3399C21.1601 22.3399 21.1301 22.3499 21.0901 22.3599C21.1301 22.3499 21.1601 22.3399 21.2001 22.3399ZM13.7201 30.0399C13.8001 30.1799 13.9601 30.2699 14.1201 30.2699C14.1701 30.2699 14.2101 30.2599 14.2601 30.2499C14.4301 30.1999 14.6101 30.1699 14.7901 30.1699C15.7901 30.1699 16.6101 30.9899 16.6101 31.9899C16.6101 32.9899 15.8001 33.7999 14.8001 33.7999C13.8001 33.7999 12.9801 32.9799 12.9801 31.9799C12.9801 31.7999 13.0101 31.6199 13.0601 31.4399C13.1201 31.2299 13.0401 31.0099 12.8501 30.8999C12.7801 30.8599 12.6901 30.8299 12.6101 30.8299C12.4801 30.8299 12.3701 30.8799 12.2701 30.9699L9.14014 34.0999L9.07014 34.1699L9.00014 34.1099L1.22014 26.3299L1.15014 26.2599L1.22014 26.1899L9.00014 18.3999L9.07014 18.3299L9.14014 18.3999L11.2901 20.5499L11.4101 20.6699L11.2401 20.7099C10.0201 21.0299 9.17014 22.1299 9.17014 23.3899C9.17014 24.9099 10.4101 26.1499 11.9301 26.1499C13.1901 26.1499 14.2901 25.2999 14.6101 24.0799L14.6501 23.9099L14.7701 24.0299L16.9201 26.1799L16.9901 26.2499L16.9201 26.3199L13.7901 29.4499C13.6301 29.6099 13.6101 29.8499 13.7201 30.0399Z" fill="#464860"/>
<path d="M26.5903 8.73L18.0003 0.14C17.9403 0.08 17.8703 0.05 17.7903 0.03C17.7403 0.01 17.7003 0 17.6603 0C17.6003 0 17.5403 0.01 17.4803 0.04C17.4203 0.06 17.3703 0.1 17.3303 0.14L8.73033 8.73C8.64033 8.82 8.59033 8.94 8.59033 9.07C8.59033 9.2 8.64033 9.31 8.73033 9.4L11.3903 12.06L11.2703 12.09C10.0503 12.41 9.20033 13.51 9.20033 14.77C9.20033 16.29 10.4403 17.53 11.9603 17.53C13.2203 17.53 14.3203 16.68 14.6403 15.46L14.6703 15.34L17.3303 18C17.4203 18.09 17.5403 18.14 17.6603 18.14C17.6803 18.14 17.6903 18.13 17.7103 18.13C17.7603 18.13 17.8003 18.12 17.8403 18.1C17.9003 18.08 17.9503 18.04 17.9903 18L21.5303 14.46C21.6803 14.31 21.7103 14.07 21.6003 13.88C21.5203 13.74 21.3603 13.65 21.2003 13.65C21.1503 13.65 21.1103 13.66 21.0603 13.67C21.0303 13.68 21.0003 13.68 20.9703 13.68L20.9403 13.71C20.8103 13.74 20.6703 13.77 20.5303 13.77C19.5303 13.77 18.7103 12.95 18.7103 11.95C18.7103 10.95 19.5303 10.13 20.5303 10.13C21.5303 10.13 22.3503 10.95 22.3503 11.95C22.3503 12.09 22.3203 12.22 22.2903 12.36L22.2803 12.37C22.2703 12.4 22.2803 12.43 22.2703 12.46C22.2003 12.67 22.2903 12.89 22.4803 13.01C22.5503 13.05 22.6403 13.08 22.7203 13.08C22.8503 13.08 22.9703 13.03 23.0503 12.94L26.5903 9.4C26.6803 9.31 26.7303 9.19 26.7303 9.07C26.7303 8.94 26.6803 8.82 26.5903 8.73ZM25.5903 9.07L25.5203 9.14L23.3703 11.29L23.2503 11.41L23.2103 11.27C22.8903 10.05 21.7903 9.2 20.5303 9.2C19.0103 9.2 17.7703 10.44 17.7703 11.96C17.7703 13.22 18.6203 14.32 19.8403 14.64L19.9803 14.68L19.8703 14.79L17.7203 16.94L17.6503 17.01L17.5803 16.94L14.3403 13.7C14.3103 13.69 14.2803 13.7 14.2503 13.69C14.0403 13.62 13.8203 13.71 13.7003 13.9C13.6603 13.97 13.6303 14.06 13.6303 14.14C13.6303 14.22 13.6603 14.3 13.6903 14.36C13.7203 14.5 13.7503 14.64 13.7503 14.78C13.7503 15.78 12.9303 16.6 11.9303 16.6C10.9303 16.6 10.1103 15.78 10.1103 14.78C10.1103 13.78 10.9303 12.96 11.9303 12.96C12.0803 12.96 12.2303 12.99 12.3703 13.03L12.3503 13.01C12.5003 13.09 12.6703 13.12 12.8203 13.03C12.9603 12.95 13.0503 12.79 13.0503 12.63C13.0503 12.58 13.0403 12.54 13.0303 12.49C13.0203 12.46 13.0203 12.43 13.0203 12.4L9.81033 9.14L9.74033 9.07L9.81033 9L17.5903 1.22L17.6603 1.15L17.7303 1.22L25.5203 9L25.5903 9.07Z" fill="#464860"/>
</svg>
