<svg width="78" height="78" viewBox="0 0 78 78" fill="none" xmlns="http://www.w3.org/2000/svg">
<rect width="78" height="78" fill="white"/>
<path d="M51.66 46.44L51.48 46.73C47.93 52.57 39.17 58.1 37.15 58.1C35.07 58.1 33.34 57.2 25.49 48.63C16.86 39.23 16 29.16 16 29.07V28.13C16 25.7 16.94 23.4 18.66 21.68C20.38 19.95 22.67 19 25.11 18.99C30.14 18.99 34.24 23.08 34.25 28.1C34.25 30.44 33.37 32.67 31.76 34.38L31.63 34.54C31.54 34.64 31.5 34.77 31.52 34.91C31.53 35.04 31.6 35.16 31.7 35.25C31.73 35.27 31.75 35.29 31.78 35.31C36.06 37.56 37.84 42.78 35.83 47.18C35.71 47.43 35.82 47.73 36.07 47.85C36.13 47.88 36.2 47.9 36.27 47.9H36.35C38.03 47.9 41.11 46.71 45.26 44.47L45.37 44.41L45.42 44.38L45.47 44.41L45.57 44.48C47.25 45.6 49.21 46.22 51.23 46.29L51.57 46.3L51.74 46.31L51.66 46.44Z" fill="white"/>
<path d="M52.6899 45.2101H52.4999C52.2299 45.2501 51.9099 45.2701 51.5999 45.2701H51.5399C46.0699 45.2701 41.5899 40.8201 41.5599 35.3501C41.5399 32.6801 42.5699 30.1701 44.4399 28.2801C46.3099 26.3801 48.8199 25.3301 51.4799 25.3201H51.5399C57.0099 25.3201 61.4899 29.7701 61.5199 35.2401C61.5499 40.3401 57.7599 44.6201 52.6899 45.2101Z" fill="white"/>
<path d="M52.67 47.46L52.49 47.75C48.94 53.59 40.18 59.12 38.16 59.12C36.08 59.12 34.35 58.22 26.5 49.65C17.86 40.23 17 30.17 17 30.08V29.14C17 26.7 17.94 24.41 19.66 22.68C21.38 20.95 23.67 20 26.11 20C31.14 20 35.24 24.09 35.25 29.11C35.25 31.45 34.37 33.68 32.76 35.39L32.63 35.55C32.54 35.65 32.5 35.78 32.52 35.92C32.53 36.05 32.6 36.17 32.7 36.26C32.73 36.28 32.75 36.3 32.78 36.32C37.06 38.57 38.84 43.79 36.83 48.19C36.71 48.44 36.82 48.74 37.07 48.86C37.13 48.89 37.2 48.91 37.27 48.91H37.35C39.03 48.91 42.11 47.72 46.26 45.48L46.37 45.42L46.42 45.39L46.47 45.42L46.57 45.49C48.25 46.61 50.21 47.23 52.23 47.3L52.57 47.31L52.74 47.32L52.67 47.46Z" fill="#CCB8F4"/>
<path d="M53.62 45.9501H53.43C53.16 45.9901 52.84 46.0101 52.53 46.0101H52.47C47 46.0101 42.52 41.5601 42.49 36.0901C42.47 33.4201 43.5 30.9101 45.37 29.0201C47.24 27.1201 49.75 26.0701 52.41 26.0601H52.47C57.94 26.0601 62.42 30.5101 62.45 35.9801C62.48 41.0801 58.69 45.3701 53.62 45.9501Z" fill="#A3EFE0"/>
<path d="M51.6002 37.26C50.5502 37.26 49.7002 36.41 49.7002 35.36C49.7002 34.31 50.5502 33.46 51.6002 33.46C52.6502 33.46 53.5002 34.31 53.5002 35.36C53.5002 36.4 52.6502 37.26 51.6002 37.26Z" fill="white"/>
<path d="M53.06 46.17C59.03 45.32 63.19 39.78 62.34 33.81C61.58 28.49 56.96 24.46 51.59 24.42C48.67 24.43 45.93 25.57 43.87 27.64C41.81 29.71 40.68 32.46 40.68 35.38C40.69 38.43 41.98 41.36 44.23 43.42L44.43 43.61L44.53 43.7L44.41 43.77L44.17 43.91C42.09 45.08 39.87 46.03 37.58 46.71L37.22 46.82L37.04 46.87L37.09 46.69L37.2 46.33C38.5 42 36.84 37.41 33.07 34.91L32.89 34.79L32.8 34.73L32.87 34.64L33.01 34.47C34.7 32.36 35.47 29.72 35.17 27.03C34.87 24.34 33.55 21.92 31.45 20.23C29.67 18.79 27.43 18 25.13 18C22.04 18 19.16 19.38 17.23 21.79C15.79 23.58 15 25.83 15 28.13V29.12C15 29.22 15.72 39.46 24.76 49.32C32.56 57.82 34.51 59.1 37.16 59.1C39.85 59.1 49.67 52.41 52.84 46.32L52.89 46.23L52.91 46.18L52.96 46.17H53.06ZM51.66 46.44L51.48 46.73C47.93 52.57 39.17 58.1 37.15 58.1C35.07 58.1 33.34 57.2 25.49 48.63C16.86 39.23 16 29.16 16 29.07V28.13C16 25.7 16.94 23.4 18.66 21.68C20.38 19.95 22.67 19 25.11 18.99C30.14 18.99 34.24 23.08 34.25 28.1C34.25 30.44 33.37 32.67 31.76 34.38L31.63 34.54C31.54 34.64 31.5 34.77 31.52 34.91C31.53 35.04 31.6 35.16 31.7 35.25C31.73 35.27 31.75 35.29 31.78 35.31C36.06 37.56 37.84 42.78 35.83 47.18C35.71 47.43 35.82 47.73 36.07 47.85C36.13 47.88 36.2 47.9 36.27 47.9H36.35C38.03 47.9 41.11 46.71 45.26 44.47L45.37 44.41L45.42 44.38L45.47 44.41L45.57 44.48C47.25 45.6 49.21 46.22 51.23 46.29L51.57 46.3L51.74 46.31L51.66 46.44ZM52.69 45.21H52.5C52.23 45.25 51.91 45.27 51.6 45.27H51.54C46.07 45.27 41.59 40.82 41.56 35.35C41.54 32.68 42.57 30.17 44.44 28.28C46.31 26.38 48.82 25.33 51.48 25.32H51.54C57.01 25.32 61.49 29.77 61.52 35.24C61.55 40.34 57.76 44.62 52.69 45.21Z" fill="#464860"/>
<path d="M54.6502 39.1501C54.7402 39.2401 54.8602 39.2901 55.0002 39.2901C55.1702 39.2901 55.3002 39.2401 55.4002 39.1401C55.5902 38.9501 55.5902 38.6301 55.4002 38.4301L54.2102 37.2401L54.1002 37.1301L54.0402 37.0701L54.0802 37.0001L54.1602 36.8701C54.7102 35.9601 54.7102 34.8301 54.1602 33.9301L54.0802 33.8001L54.0402 33.7301L54.0902 33.6701L54.1902 33.5601L55.3902 32.2901C55.6202 32.0901 55.6502 31.7701 55.4702 31.5601C55.3702 31.4501 55.2402 31.3801 55.0902 31.3801C54.9702 31.3801 54.8502 31.4201 54.7602 31.5001C54.7402 31.5201 54.7202 31.5401 54.7102 31.5501L53.5002 32.7601L53.3902 32.8701L53.3302 32.9301L53.2602 32.8901L53.1302 32.8101C52.6902 32.5401 52.1802 32.4001 51.6602 32.4001C51.1402 32.4001 50.6302 32.5401 50.1902 32.8101L50.0602 32.8901L49.9902 32.9301L49.9302 32.8701L49.8202 32.7601L48.6202 31.5601C48.5102 31.4301 48.3702 31.3701 48.2202 31.3701C48.1002 31.3701 47.9802 31.4101 47.8902 31.4901C47.7902 31.5801 47.7302 31.7001 47.7202 31.8301C47.7102 31.9601 47.7502 32.0901 47.8402 32.2001C47.8602 32.2201 47.8802 32.2401 47.8902 32.2501L49.0402 33.5101L49.1402 33.6201L49.1902 33.6801L49.1502 33.7401L49.0702 33.8701C48.5202 34.7801 48.5202 35.9101 49.0702 36.8101L49.1502 36.9401L49.1902 37.0101L49.1302 37.0701L49.0202 37.1801L47.8202 38.3801C47.6302 38.5701 47.6302 38.8901 47.8202 39.0901C47.9102 39.1801 48.0402 39.2301 48.1702 39.2301C48.3002 39.2301 48.4302 39.1801 48.5202 39.0801L49.7602 37.8701L49.8702 37.7601L49.9302 37.7101L50.0002 37.7501L50.1302 37.8301C50.5702 38.1001 51.0802 38.2401 51.6002 38.2401C52.1202 38.2401 52.6302 38.1001 53.0702 37.8301L53.2102 37.7501L53.2802 37.7101L53.3402 37.7701L53.4502 37.8901L54.6502 39.1501ZM51.6002 37.2601C50.5502 37.2601 49.7002 36.4101 49.7002 35.3601C49.7002 34.3101 50.5502 33.4601 51.6002 33.4601C52.6502 33.4601 53.5002 34.3101 53.5002 35.3601C53.5002 36.4001 52.6502 37.2601 51.6002 37.2601Z" fill="#464860"/>
</svg>
