<svg width="48" height="42" viewBox="0 0 48 42" fill="none" xmlns="http://www.w3.org/2000/svg">
<path d="M36.66 28.44L36.48 28.73C32.93 34.57 24.17 40.1 22.15 40.1C20.07 40.1 18.34 39.2 10.49 30.63C1.86 21.23 1 11.16 1 11.07V10.13C1 7.69999 1.94 5.39999 3.66 3.67999C5.38 1.94999 7.67 0.99999 10.11 0.98999C15.14 0.98999 19.24 5.07999 19.25 10.1C19.25 12.44 18.37 14.67 16.76 16.38L16.63 16.54C16.54 16.64 16.5 16.77 16.52 16.91C16.53 17.04 16.6 17.16 16.7 17.25C16.73 17.27 16.75 17.29 16.78 17.31C21.06 19.56 22.84 24.78 20.83 29.18C20.71 29.43 20.82 29.73 21.07 29.85C21.13 29.88 21.2 29.9 21.27 29.9H21.35C23.03 29.9 26.11 28.71 30.26 26.47L30.37 26.41L30.42 26.38L30.47 26.41L30.57 26.48C32.25 27.6 34.21 28.22 36.23 28.29L36.57 28.3L36.74 28.31L36.66 28.44Z" fill="white"/>
<path d="M37.6899 27.2101H37.4999C37.2299 27.2501 36.9099 27.2701 36.5999 27.2701H36.5399C31.0699 27.2701 26.5899 22.8201 26.5599 17.3501C26.5399 14.6801 27.5699 12.1701 29.4399 10.2801C31.3099 8.38007 33.8199 7.33007 36.4799 7.32007H36.5399C42.0099 7.32007 46.4899 11.7701 46.5199 17.2401C46.5499 22.3401 42.7599 26.6201 37.6899 27.2101Z" fill="white"/>
<path d="M37.67 29.46L37.49 29.75C33.94 35.59 25.18 41.12 23.16 41.12C21.08 41.12 19.35 40.22 11.5 31.65C2.86 22.23 2 12.17 2 12.08V11.14C2 8.7 2.94 6.41 4.66 4.68C6.38 2.95 8.67 2 11.11 2C16.14 2 20.24 6.09 20.25 11.11C20.25 13.45 19.37 15.68 17.76 17.39L17.63 17.55C17.54 17.65 17.5 17.78 17.52 17.92C17.53 18.05 17.6 18.17 17.7 18.26C17.73 18.28 17.75 18.3 17.78 18.32C22.06 20.57 23.84 25.79 21.83 30.19C21.71 30.44 21.82 30.74 22.07 30.86C22.13 30.89 22.2 30.91 22.27 30.91H22.35C24.03 30.91 27.11 29.72 31.26 27.48L31.37 27.42L31.42 27.39L31.47 27.42L31.57 27.49C33.25 28.61 35.21 29.23 37.23 29.3L37.57 29.31L37.74 29.32L37.67 29.46Z" fill="#CCB8F4"/>
<path d="M38.62 27.9501H38.43C38.16 27.9901 37.84 28.0101 37.53 28.0101H37.47C32 28.0101 27.52 23.5601 27.49 18.0901C27.47 15.4201 28.5 12.9101 30.37 11.0201C32.24 9.12006 34.75 8.07006 37.41 8.06006H37.47C42.94 8.06006 47.42 12.5101 47.45 17.9801C47.48 23.0801 43.69 27.3701 38.62 27.9501Z" fill="#A3EFE0"/>
<path d="M36.6002 19.26C35.5502 19.26 34.7002 18.41 34.7002 17.36C34.7002 16.31 35.5502 15.46 36.6002 15.46C37.6502 15.46 38.5002 16.31 38.5002 17.36C38.5002 18.4 37.6502 19.26 36.6002 19.26Z" fill="white"/>
<path d="M38.06 28.17C44.03 27.32 48.19 21.78 47.34 15.81C46.58 10.49 41.96 6.46 36.59 6.42C33.67 6.43 30.93 7.57 28.87 9.64C26.81 11.71 25.68 14.46 25.68 17.38C25.69 20.43 26.98 23.36 29.23 25.42L29.43 25.61L29.53 25.7L29.41 25.77L29.17 25.91C27.09 27.08 24.87 28.03 22.58 28.71L22.22 28.82L22.04 28.87L22.09 28.69L22.2 28.33C23.5 24 21.84 19.41 18.07 16.91L17.89 16.79L17.8 16.73L17.87 16.64L18.01 16.47C19.7 14.36 20.47 11.72 20.17 9.03C19.87 6.34 18.55 3.92 16.45 2.23C14.67 0.79 12.43 0 10.13 0C7.04 0 4.16 1.38 2.23 3.79C0.79 5.58 0 7.83 0 10.13V11.12C0 11.22 0.72 21.46 9.76 31.32C17.56 39.82 19.51 41.1 22.16 41.1C24.85 41.1 34.67 34.41 37.84 28.32L37.89 28.23L37.91 28.18L37.96 28.17H38.06ZM36.66 28.44L36.48 28.73C32.93 34.57 24.17 40.1 22.15 40.1C20.07 40.1 18.34 39.2 10.49 30.63C1.86 21.23 1 11.16 1 11.07V10.13C1 7.7 1.94 5.4 3.66 3.68C5.38 1.95 7.67 1 10.11 0.99C15.14 0.99 19.24 5.08 19.25 10.1C19.25 12.44 18.37 14.67 16.76 16.38L16.63 16.54C16.54 16.64 16.5 16.77 16.52 16.91C16.53 17.04 16.6 17.16 16.7 17.25C16.73 17.27 16.75 17.29 16.78 17.31C21.06 19.56 22.84 24.78 20.83 29.18C20.71 29.43 20.82 29.73 21.07 29.85C21.13 29.88 21.2 29.9 21.27 29.9H21.35C23.03 29.9 26.11 28.71 30.26 26.47L30.37 26.41L30.42 26.38L30.47 26.41L30.57 26.48C32.25 27.6 34.21 28.22 36.23 28.29L36.57 28.3L36.74 28.31L36.66 28.44ZM37.69 27.21H37.5C37.23 27.25 36.91 27.27 36.6 27.27H36.54C31.07 27.27 26.59 22.82 26.56 17.35C26.54 14.68 27.57 12.17 29.44 10.28C31.31 8.38 33.82 7.33 36.48 7.32H36.54C42.01 7.32 46.49 11.77 46.52 17.24C46.55 22.34 42.76 26.62 37.69 27.21Z" fill="#464860"/>
<path d="M39.6502 21.1501C39.7402 21.2401 39.8602 21.2901 40.0002 21.2901C40.1702 21.2901 40.3002 21.2401 40.4002 21.1401C40.5902 20.9501 40.5902 20.6301 40.4002 20.4301L39.2102 19.2401L39.1002 19.1301L39.0402 19.0701L39.0802 19.0001L39.1602 18.8701C39.7102 17.9601 39.7102 16.8301 39.1602 15.9301L39.0802 15.8001L39.0402 15.7301L39.0902 15.6701L39.1902 15.5601L40.3902 14.2901C40.6202 14.0901 40.6502 13.7701 40.4702 13.5601C40.3702 13.4501 40.2402 13.3801 40.0902 13.3801C39.9702 13.3801 39.8502 13.4201 39.7602 13.5001C39.7402 13.5201 39.7202 13.5401 39.7102 13.5501L38.5002 14.7601L38.3902 14.8701L38.3302 14.9301L38.2602 14.8901L38.1302 14.8101C37.6902 14.5401 37.1802 14.4001 36.6602 14.4001C36.1402 14.4001 35.6302 14.5401 35.1902 14.8101L35.0602 14.8901L34.9902 14.9301L34.9302 14.8701L34.8202 14.7601L33.6202 13.5601C33.5102 13.4301 33.3702 13.3701 33.2202 13.3701C33.1002 13.3701 32.9802 13.4101 32.8902 13.4901C32.7902 13.5801 32.7302 13.7001 32.7202 13.8301C32.7102 13.9601 32.7502 14.0901 32.8402 14.2001C32.8602 14.2201 32.8802 14.2401 32.8902 14.2501L34.0402 15.5101L34.1402 15.6201L34.1902 15.6801L34.1502 15.7401L34.0702 15.8701C33.5202 16.7801 33.5202 17.9101 34.0702 18.8101L34.1502 18.9401L34.1902 19.0101L34.1302 19.0701L34.0202 19.1801L32.8202 20.3801C32.6302 20.5701 32.6302 20.8901 32.8202 21.0901C32.9102 21.1801 33.0402 21.2301 33.1702 21.2301C33.3002 21.2301 33.4302 21.1801 33.5202 21.0801L34.7602 19.8701L34.8702 19.7601L34.9302 19.7101L35.0002 19.7501L35.1302 19.8301C35.5702 20.1001 36.0802 20.2401 36.6002 20.2401C37.1202 20.2401 37.6302 20.1001 38.0702 19.8301L38.2102 19.7501L38.2802 19.7101L38.3402 19.7701L38.4502 19.8901L39.6502 21.1501ZM36.6002 19.2601C35.5502 19.2601 34.7002 18.4101 34.7002 17.3601C34.7002 16.3101 35.5502 15.4601 36.6002 15.4601C37.6502 15.4601 38.5002 16.3101 38.5002 17.3601C38.5002 18.4001 37.6502 19.2601 36.6002 19.2601Z" fill="#464860"/>
</svg>
