<svg width="78" height="78" viewBox="0 0 78 78" fill="none" xmlns="http://www.w3.org/2000/svg">
<rect width="78" height="78" fill="white"/>
<path d="M35.1532 34.0827V36.5054V36.5951H35.0625H32.6136H32.5229V36.5054V34.0827V33.9929H32.6136H35.0625H35.1532V34.0827Z" fill="white"/>
<path d="M35.153 28.8065V33.1046V33.1944H35.0623H32.6044H32.5137V33.1046V31.1575C32.5137 30.6281 32.9218 29.9551 33.5567 29.4436C33.983 29.1026 34.5181 28.8335 35.0351 28.7078L35.1439 28.6809V28.8065H35.153Z" fill="white"/>
<path d="M38.5907 34.0827V36.5054V36.5951H38.5H36.0511H35.9604V36.5054V34.0827V33.9929H36.0511H38.5H38.5907V34.0827Z" fill="white"/>
<path d="M38.5905 33.1046V33.1944H38.4998H36.0419H35.9512V33.1046V28.7886V28.6809L36.06 28.7078C36.5951 28.8245 37.1484 29.1026 37.5837 29.4526C38.2005 29.9551 38.5814 30.6101 38.5814 31.1665V33.1046H38.5905Z" fill="white"/>
<path d="M45.2935 53.0338V41.3688V41.2791H45.3842H57.6557H57.7464V41.3688V53.0338V53.1235H57.6557H45.3842H45.2935V53.0338Z" fill="white"/>
<path d="M28.5864 26.2582V21.9242V21.8345H28.6771H30.6453H30.736V21.9242V25.1276V25.1814L30.6906 25.2084L28.7225 26.33L28.5864 26.4107V26.2582Z" fill="white"/>
<path d="M17.4487 41.7726L25.6932 37.7078L25.8292 37.636V37.7885V41.8533V41.9431H25.7385H17.494H17.104L17.4487 41.7726Z" fill="white"/>
<path d="M35.1532 52.0648V54.9811V56.0399H35.0625H32.6136H32.5229V54.9811V52.0648V51.9751H32.6136H35.0625H35.1532V52.0648Z" fill="white"/>
<path d="M35.1532 48.1705V51.0958V51.1855H35.0625H32.6136H32.5229V51.0958V48.1705V48.0808H32.6136H35.0625H35.1532V48.1705Z" fill="white"/>
<path d="M35.1532 44.285V47.2013V47.291H35.0625H32.6136H32.5229V47.2013V44.285V44.1953H32.6136H35.0625H35.1532V44.285Z" fill="white"/>
<path d="M38.5907 52.0648V54.9811V56.0399H38.5H36.0511H35.9604V54.9811V52.0648V51.9751H36.0511H38.5H38.5907V52.0648Z" fill="white"/>
<path d="M38.5907 48.1705V51.0958V51.1855H38.5H36.0511H35.9604V51.0958V48.1705V48.0808H36.0511H38.5H38.5907V48.1705Z" fill="white"/>
<path d="M38.5907 44.285V47.2013V47.291H38.5H36.0511H35.9604V47.2013V44.285V44.1953H36.0511H38.5H38.5907V44.285Z" fill="white"/>
<path d="M58.6439 53.9223H58.7346V54.012V55.9592V56.0489H58.6439H39.4884H39.3977V55.9592V43.8007C39.3977 43.5943 39.2072 43.4058 38.9986 43.4058H32.033C31.8697 43.4417 31.7246 43.6212 31.7246 43.8007V55.9502V56.0399H31.6339H16.8954H16.8047V55.9502V54.0031V53.9133H16.8954H26.2283C26.4369 53.9133 26.6273 53.7249 26.6273 53.5185V28.5195V28.4657L26.6727 28.4388L35.5158 23.369L35.5612 23.342L35.6065 23.369L44.4496 28.4388L44.495 28.4657V28.5195V45.1915V53.5275C44.495 53.7339 44.6854 53.9223 44.894 53.9223H58.6439Z" fill="white"/>
<path d="M59.1156 54.8733H59.2063V54.963V56.9102V56.9999H59.1156H39.9601H39.8694V56.9102V44.7606C39.8694 44.5542 39.6789 44.3658 39.4703 44.3658H32.5047C32.3414 44.4017 32.1963 44.5812 32.1963 44.7606V56.9102V56.9999H32.1056H17.3671H17.2764V56.9102V54.963V54.8733H17.3671H26.6999C26.9086 54.8733 27.099 54.6849 27.099 54.4785V29.4795V29.4256L27.1444 29.3987L35.9875 24.3289L36.0328 24.302L36.0782 24.3289L44.9213 29.3987L44.9666 29.4256V29.4795V46.1515V54.4874C44.9666 54.6938 45.1571 54.8823 45.3657 54.8823H59.1156V54.8733Z" fill="#CCB8F4"/>
<path d="M59.9594 40.4896H45.3842H45.2935V40.3998V35.0519V34.9622H45.3842H51.6424H51.6696L51.6968 34.9711L60.0138 40.3191L60.2678 40.4896H59.9594Z" fill="white"/>
<path d="M35.1532 34.0827V36.5054V36.5951H35.0625H32.6136H32.5229V36.5054V34.0827V33.9929H32.6136H35.0625H35.1532V34.0827Z" fill="white"/>
<path d="M35.153 28.8065V33.1046V33.1944H35.0623H32.6044H32.5137V33.1046V31.1575C32.5137 30.6281 32.9218 29.9551 33.5567 29.4436C33.983 29.1026 34.5181 28.8335 35.0351 28.7078L35.1439 28.6809V28.8065H35.153Z" fill="white"/>
<path d="M38.5907 34.0827V36.5054V36.5951H38.5H36.0511H35.9604V36.5054V34.0827V33.9929H36.0511H38.5H38.5907V34.0827Z" fill="white"/>
<path d="M38.5905 33.1046V33.1944H38.4998H36.0419H35.9512V33.1046V28.7886V28.6809L36.06 28.7078C36.5951 28.8245 37.1484 29.1026 37.5837 29.4526C38.2005 29.9551 38.5814 30.6101 38.5814 31.1665V33.1046H38.5905Z" fill="white"/>
<path d="M45.2935 53.0338V41.3688V41.2791H45.3842H57.6557H57.7464V41.3688V53.0338V53.1235H57.6557H45.3842H45.2935V53.0338Z" fill="white"/>
<path d="M29.1401 27.0119V22.6779V22.5881H29.2308H31.199H31.2897V22.6779V25.8813V25.9351L31.2443 25.962L29.2762 27.0836L29.1401 27.1644V27.0119Z" fill="#A3EFE0"/>
<path d="M18.0019 42.5265L26.2464 38.4527L26.3824 38.3899V38.5335V42.6072V42.697H26.2917H18.0472H17.6572L18.0019 42.5265Z" fill="#A3EFE0"/>
<path d="M35.1532 52.0648V54.9811V56.0399H35.0625H32.6136H32.5229V54.9811V52.0648V51.9751H32.6136H35.0625H35.1532V52.0648Z" fill="white"/>
<path d="M35.1532 48.1705V51.0958V51.1855H35.0625H32.6136H32.5229V51.0958V48.1705V48.0808H32.6136H35.0625H35.1532V48.1705Z" fill="white"/>
<path d="M35.1532 44.285V47.2013V47.291H35.0625H32.6136H32.5229V47.2013V44.285V44.1953H32.6136H35.0625H35.1532V44.285Z" fill="white"/>
<path d="M38.5907 52.0648V54.9811V56.0399H38.5H36.0511H35.9604V54.9811V52.0648V51.9751H36.0511H38.5H38.5907V52.0648Z" fill="white"/>
<path d="M38.5907 48.1705V51.0958V51.1855H38.5H36.0511H35.9604V51.0958V48.1705V48.0808H36.0511H38.5H38.5907V48.1705Z" fill="white"/>
<path d="M38.5907 44.285V47.2013V47.291H38.5H36.0511H35.9604V47.2013V44.285V44.1953H36.0511H38.5H38.5907V44.285Z" fill="white"/>
<path d="M60.5126 41.2432H45.9374H45.8467V41.1535V35.8056V35.7158H45.9374H52.1956H52.2228L52.2409 35.7248L60.5671 41.0728L60.821 41.2432H60.5126Z" fill="#A3EFE0"/>
<path d="M61.6826 41.351C61.7008 41.351 61.728 41.351 61.7461 41.342C61.728 41.351 61.7098 41.351 61.6826 41.351Z" fill="#464860"/>
<path d="M39.3977 31.1575C39.3977 30.341 38.9442 29.5154 38.1098 28.8424C37.3298 28.2054 36.4047 27.8464 35.5612 27.8464C34.7539 27.8464 33.847 28.2143 33.0579 28.8424C32.1962 29.5334 31.7246 30.3589 31.7246 31.1575V37.3848H39.3977V31.1575ZM35.153 34.0827V36.5144V36.6042H35.0623H32.6044H32.5137V36.5144V34.0827V33.993H32.6044H35.0623H35.153V34.0827ZM35.153 28.8066V33.1047V33.1944H35.0623H32.6044H32.5137V33.1047V31.1575C32.5137 30.6281 32.9218 29.9551 33.5567 29.4436C33.983 29.1027 34.5181 28.8335 35.0351 28.7079L35.1439 28.6809V28.8066H35.153ZM38.5905 34.0827V36.5144V36.6042H38.4998H36.0419H35.9512V36.5144V34.0827V33.993H36.0419H38.4998H38.5905V34.0827ZM38.5905 33.1047V33.1944H38.4998H36.0419H35.9512V33.1047V28.7886V28.6809L36.06 28.7079C36.5951 28.8245 37.1484 29.1027 37.5837 29.4526C38.2005 29.9551 38.5814 30.6101 38.5814 31.1665V33.1047H38.5905Z" fill="#464860"/>
<path d="M61.8369 41.2972C61.8551 41.2882 61.8732 41.2792 61.8913 41.2703C61.8732 41.2882 61.8551 41.2882 61.8369 41.2972Z" fill="#464860"/>
<path d="M61.8186 40.5524L51.996 34.2354C51.9325 34.1995 51.8599 34.1725 51.7783 34.1725H45.3841H45.2934V34.0828V29.0579V28.8964L45.4294 28.9771L48.0506 30.4846L48.4497 29.8026C46.4997 28.7259 44.5406 27.5863 42.645 26.4826C40.3866 25.1725 38.0465 23.8086 35.7156 22.5434C35.643 22.4986 35.5977 22.4896 35.5705 22.4896C35.5161 22.4896 35.4526 22.5165 35.3619 22.5524L31.6704 24.6521L31.5344 24.7329V24.5713V21.4397C31.5344 21.2334 31.3439 21.0449 31.1353 21.0449H28.1876H28.1785C28.0153 21.0449 27.9064 21.1077 27.8339 21.2334C27.7885 21.341 27.7885 21.4397 27.7885 21.4397V26.8146V26.8685L27.7432 26.8954L22.6641 29.7937L23.0631 30.4756L25.6843 28.9682L25.8204 28.8874V29.0399V36.685V36.7388L25.766 36.7658L15.2449 41.9791C15.0817 42.0509 14.9819 42.2573 15.0182 42.4278C15.0545 42.5983 15.2268 42.7329 15.4082 42.7329H16.8866H16.9773V42.8226V53.034V53.1237H16.8866H16.4059C16.1973 53.1237 16.0068 53.3121 16.0068 53.5185V56.4348C16.0068 56.6411 16.1973 56.8296 16.4059 56.8296H59.134C59.3426 56.8296 59.533 56.6411 59.533 56.4348V53.5185C59.533 53.3121 59.3426 53.1237 59.134 53.1237H58.6442H58.5535V53.034V41.369V41.2792H58.6442H61.5919C61.7733 41.2792 61.9366 41.1626 61.991 41.0011C62.0363 40.8395 61.9638 40.6421 61.8186 40.5524ZM45.2934 53.034V41.369V41.2792H45.3841H57.6646H57.7553V41.369V53.034V53.1237H57.6646H45.3841H45.2934V53.034ZM28.5867 26.2583V21.9243V21.8346H28.6774H30.6455H30.7362V21.9243V25.1277V25.1815L30.6909 25.2084L28.7227 26.3301L28.5867 26.4108V26.2583ZM17.4489 41.7727L25.6934 37.699L25.8204 37.6362V37.7797V41.8535V41.9432H25.7297H17.4943H17.1042L17.4489 41.7727ZM25.7388 47.7757H17.8752H17.7845V47.686V42.8226V42.7329H17.8752H25.7297H25.8204V42.8226V47.686V47.7757H25.7388ZM25.8294 48.5743V48.6641V53.0429V53.1327H25.7388H23.7706H23.6799V53.0429V48.6641V48.5743H23.7706H25.7388H25.8294ZM22.8817 48.5743V48.6641V53.0429V53.1327H22.791H20.8229H20.7322V53.0429V48.6641V48.5743H20.8229H22.791H22.8817ZM19.934 48.5743V48.6641V53.0429V53.1327H19.8433H17.8752H17.7845V53.0429V48.6641V48.5743H17.8752H19.8433H19.934ZM35.1533 52.0649V54.9811V56.0399H35.0626H32.6046H32.5139V54.9811V52.0649V51.9751H32.6046H35.0626H35.1533V52.0649ZM35.1533 48.1705V51.0868V51.1765H35.0626H32.6046H32.5139V51.0868V48.1705V48.0808H32.6046H35.0626H35.1533V48.1705ZM35.1533 44.2852V47.2015V47.2912H35.0626H32.6046H32.5139V47.2015V44.2852V44.1955H32.6046H35.0626H35.1533V44.2852ZM38.5907 52.0649V54.9811V56.0399H38.5H36.0421H35.9514V54.9811V52.0649V51.9751H36.0421H38.5H38.5907V52.0649ZM38.5907 48.1705V51.0868V51.1765H38.5H36.0421H35.9514V51.0868V48.1705V48.0808H36.0421H38.5H38.5907V48.1705ZM38.5907 44.2852V47.2015V47.2912H38.5H36.0421H35.9514V47.2015V44.2852V44.1955H36.0421H38.5H38.5907V44.2852ZM58.6442 53.9223H58.7349V54.012V55.9592V56.0489H58.6442H39.4887H39.398V55.9592V43.8007C39.398 43.5943 39.2075 43.4058 38.9989 43.4058H32.0332C31.87 43.4417 31.7249 43.6212 31.7249 43.8007V55.9502V56.0399H31.6342H16.8956H16.8049V55.9502V54.003V53.9133H16.8956H26.2285C26.4371 53.9133 26.6276 53.7249 26.6276 53.5185V28.5195V28.4657L26.6729 28.4387L35.5161 23.369L35.5614 23.342L35.6068 23.369L44.4499 28.4387L44.4952 28.4657V28.5195V45.1915V53.5275C44.4952 53.7339 44.6857 53.9223 44.8943 53.9223H58.6442ZM59.9593 40.4896H45.3841H45.2934V40.3999V35.0519V34.9622H45.3841H51.6423H51.6695L51.6876 34.9801L60.0047 40.3281L60.2586 40.4896H59.9593Z" fill="#464860"/>
<path d="M37.5384 29.5244C37.4749 29.4706 37.4024 29.4257 37.3389 29.3809C37.4024 29.4257 37.4749 29.4706 37.5384 29.5244C37.8377 29.7667 38.0735 30.0449 38.2459 30.332C38.0735 30.0449 37.8377 29.7667 37.5384 29.5244Z" fill="#464860"/>
<path d="M39.3345 43.4597C39.4252 43.5494 39.4796 43.6751 39.4796 43.8007C39.4887 43.6751 39.4252 43.5494 39.3345 43.4597Z" fill="#464860"/>
<path d="M35.0623 28.8066C34.8265 28.8605 34.5816 28.9502 34.3276 29.0758C34.5816 28.9502 34.8355 28.8605 35.0623 28.8066Z" fill="#464860"/>
<path d="M55.1067 43.8904H54.3086V49.5434H55.1067V43.8904Z" fill="#464860"/>
<path d="M52.159 43.8904H51.3608V49.5434H52.159V43.8904Z" fill="#464860"/>
<path d="M49.2205 43.8904H48.4224V49.5434H49.2205V43.8904Z" fill="#464860"/>
<path d="M15.1089 42.7239C15.127 42.7418 15.1452 42.7418 15.1633 42.7598C15.1542 42.7418 15.127 42.7328 15.1089 42.7239Z" fill="#464860"/>
<path d="M28.0151 21C27.9788 21.009 27.9335 21.009 27.9062 21.0269C27.9335 21.009 27.9788 21.009 28.0151 21Z" fill="#464860"/>
<path d="M35.3164 22.4716C35.3618 22.4537 35.398 22.4357 35.4434 22.4268C35.398 22.4357 35.3618 22.4537 35.3164 22.4716Z" fill="#464860"/>
<path d="M35.7607 22.4537C35.6972 22.4178 35.6428 22.3999 35.5884 22.3999C35.6428 22.4089 35.6972 22.4178 35.7607 22.4537Z" fill="#464860"/>
<path d="M59.1338 53.0339C59.3243 53.0339 59.5057 53.1685 59.5873 53.339C59.5057 53.1685 59.3243 53.0339 59.1338 53.0339Z" fill="#464860"/>
<path d="M35.5523 22.3999C35.5251 22.3999 35.4979 22.4089 35.4707 22.4178C35.4979 22.4089 35.5251 22.3999 35.5523 22.3999Z" fill="#464860"/>
<path d="M15.2539 42.7957C15.272 42.8046 15.2993 42.8046 15.3265 42.8046C15.2993 42.8046 15.2811 42.8046 15.2539 42.7957Z" fill="#464860"/>
<path d="M15.0363 42.643C15.0272 42.6251 15.0091 42.6161 15 42.5981C15.0091 42.6161 15.0272 42.6251 15.0363 42.643Z" fill="#464860"/>
<path d="M61.9639 41.1995C61.9731 41.1903 61.9917 41.181 62.0009 41.1626C61.9917 41.181 61.9731 41.1903 61.9639 41.1995Z" fill="#464860"/>
<path d="M27.7612 21.1974C27.7703 21.1794 27.7975 21.1615 27.8066 21.1436C27.7884 21.1615 27.7703 21.1794 27.7612 21.1974Z" fill="#464860"/>
<path d="M27.7165 21.3499C27.7165 21.3593 27.707 21.3593 27.707 21.3688C27.707 21.3593 27.707 21.3499 27.7165 21.3499Z" fill="#464860"/>
</svg>
