<svg width="44" height="47" viewBox="0 0 44 47" fill="none" xmlns="http://www.w3.org/2000/svg">
<path d="M3.32381 19.2779C3.16553 17.6847 3.64035 15.9322 4.90654 15.6135C5.06482 15.6135 5.06482 15.6135 5.06482 15.6135C6.9641 15.6135 10.4461 17.3661 11.8706 18.1627C12.6619 18.6406 13.1368 20.3932 12.9785 21.5084C12.8202 22.1457 12.5037 22.4644 12.1871 22.4644C12.1871 22.4644 12.0288 22.4644 11.8706 22.4644C11.2375 22.4644 9.81302 22.305 8.38856 22.305C7.12237 22.305 6.01446 22.1457 5.53964 22.1457C4.27345 22.1457 3.48208 21.0305 3.32381 19.2779Z" fill="white"/>
<path d="M1.42452 27.4034C1.5828 26.2881 2.05762 24.8542 3.48208 24.8542C3.64035 24.8542 3.64035 24.8542 3.79862 24.8542C4.43172 25.0136 5.38136 25.0136 6.48927 25.0136C8.38855 25.1729 10.4461 25.3322 11.2375 25.4915C11.7123 25.6509 12.1871 25.9695 12.5037 26.6068C12.8202 27.0848 12.8202 27.722 12.6619 28.2C12.6619 28.3593 12.5037 28.5187 12.5037 28.678C11.8706 30.1119 10.2878 30.2712 8.86337 30.2712C6.80582 30.2712 4.74827 30.1119 2.69071 29.7932C1.74107 29.6339 1.26625 28.5187 1.42452 27.4034Z" fill="white"/>
<path d="M3.16536 36.0068C2.37399 35.6882 1.89917 34.5729 1.89917 33.617C1.89917 32.9797 2.05744 32.5017 2.53226 32.3424C3.00708 32.1831 3.64018 32.1831 4.43154 32.1831C6.80564 32.1831 10.2877 32.5017 10.9208 32.8204C11.7121 33.139 12.0287 33.7763 12.0287 34.7323C12.0287 35.5289 11.5538 36.1662 11.079 36.4848C10.4459 36.6441 9.49629 36.6441 8.70493 36.6441C6.64737 36.6441 4.115 36.4848 3.16536 36.0068Z" fill="white"/>
<path d="M4.58995 42.2202C4.11513 42.0609 3.79858 41.583 3.79858 40.7864C3.79858 39.9897 3.95686 39.0338 4.43168 38.7152C6.6475 38.3965 9.02161 38.2372 11.2374 38.0779C11.8705 38.0779 12.1871 38.5558 12.3453 39.5118C12.5036 40.4677 12.1871 41.583 11.3957 41.7423C10.4461 41.9016 7.59715 42.3796 5.69786 42.3796C5.38132 42.3796 4.9065 42.3796 4.58995 42.2202Z" fill="white"/>
<path d="M41.7841 44.7694L41.6258 44.9288C40.8345 44.7694 39.5683 44.7694 38.4604 44.6101C37.5107 44.6101 36.4028 44.4508 35.7697 44.4508C34.0287 43.9728 33.7122 42.061 33.5539 40.7864C33.5539 40.3084 33.2373 40.1491 32.9208 40.1491C32.7625 40.1491 32.6042 40.3084 32.446 40.3084C32.2877 40.4677 32.2877 40.7864 32.2877 40.9457C32.7625 42.6982 31.3381 43.4949 30.8632 43.8135H30.705C29.5971 44.4508 27.3812 44.7694 24.374 44.7694C19.151 44.7694 12.8201 43.8135 10.446 43.1762L9.65461 43.0169L10.446 42.8576C12.9784 42.5389 13.7697 40.7864 13.6114 39.3525C13.4532 37.9186 12.6618 36.9627 11.7122 36.9627H11.5539V36.644C12.6618 36.4847 13.2949 35.2101 13.1366 34.0949C13.1366 33.1389 12.5035 32.0237 11.0791 31.705L10.446 31.5457L11.0791 31.3864C13.6114 30.4304 13.7697 29.3152 13.928 27.4033V27.0847C13.928 25.9694 13.4532 25.0135 12.5035 24.3762L12.187 24.2169H12.5035C12.8201 24.2169 13.2949 23.8982 13.4532 23.7389C14.0863 23.1016 14.4028 22.1457 14.4028 21.1898C14.4028 19.9152 13.6114 18.4813 12.6618 17.5254C12.3453 17.2067 11.5539 16.7288 10.9208 16.4101C10.6043 16.2508 10.1294 15.9321 9.97116 15.7728L9.49634 15.4542H9.97116C10.1294 15.4542 15.3525 15.7728 16.7769 16.2508H16.9352L16.7769 16.4101C15.3525 19.1186 15.3525 22.305 17.0935 25.1728C18.3596 27.4033 20.4172 28.9965 22.3165 28.9965C22.7913 28.9965 23.1078 28.6779 23.1078 28.3593C23.1078 28.0406 22.9496 27.8813 22.633 27.8813C20.892 27.8813 19.151 26.4474 18.0431 24.2169C16.9352 21.9864 16.4604 18.7999 18.0431 16.7288C17.41 12.7457 18.2014 5.09824 20.5755 2.38977C21.0503 1.75248 21.6834 1.43384 22.3165 1.43384C22.9496 1.43384 23.4244 1.59316 23.7409 2.07113C25.1654 3.82367 24.2158 8.76265 23.5827 11.1525V11.4711C22.633 15.9321 25.4819 18.1627 28.8057 20.7118C29.5971 21.3491 30.2302 21.8271 31.0215 22.4643C32.2877 23.4203 33.2373 24.2169 33.2373 26.4474C33.2373 26.9254 33.3956 27.244 33.5539 27.4033C33.7122 27.5627 33.7122 27.5626 33.8704 27.5626C34.0287 27.5626 34.0287 27.5627 34.187 27.4033C34.3453 27.244 34.3453 26.9254 34.3453 26.766C34.3453 26.2881 34.3453 25.9694 34.3453 25.8101C34.3453 25.6508 34.3453 25.3321 34.3453 25.1728V24.8542L34.6618 25.0135C36.4028 25.8101 38.3021 26.2881 40.2014 26.2881C40.3596 26.2881 40.3596 26.2881 40.5179 26.2881C41.9424 28.0406 42.1007 33.2982 42.1007 36.3254C42.1007 36.8033 42.1007 37.4406 42.1007 38.2372C42.1007 40.4677 42.1007 42.8576 41.7841 44.7694Z" fill="white"/>
<path d="M4.58992 20.5526C4.43165 18.9594 4.90647 17.2068 6.17265 16.8882C6.33093 16.8882 6.33093 16.8882 6.33093 16.8882C8.23021 16.8882 11.7122 18.6407 13.1367 19.4373C13.9281 19.9153 14.4029 21.6678 14.2446 22.7831C14.0863 23.4204 13.7698 23.739 13.4532 23.739C13.4532 23.739 13.295 23.739 13.1367 23.739C12.5036 23.739 11.0791 23.5797 9.65467 23.5797C8.38848 23.5797 7.28057 23.4204 6.80575 23.4204C5.69783 23.4204 4.74819 22.1458 4.58992 20.5526Z" fill="#CCB8F4"/>
<path d="M2.849 28.5186C3.00728 27.4034 3.4821 25.9695 4.90656 25.9695C5.06483 25.9695 5.06483 25.9695 5.2231 25.9695C5.8562 26.1288 6.80584 26.1288 7.91375 26.1288C9.81303 26.2881 11.8706 26.4475 12.662 26.6068C13.1368 26.7661 13.6116 27.0847 13.9281 27.722C14.2447 28.2 14.2447 28.8373 14.0864 29.3152C14.0864 29.4746 13.9281 29.6339 13.9281 29.7932C13.295 31.2271 11.7123 31.3864 10.2879 31.3864C8.2303 31.3864 6.17274 31.2271 4.11519 30.9085C3.00728 30.9085 2.69073 29.6339 2.849 28.5186Z" fill="#CCB8F4"/>
<path d="M4.43171 37.2812C3.64035 36.9626 3.16553 35.8474 3.16553 34.8914C3.16553 34.2541 3.3238 33.7762 3.79862 33.6168C4.27344 33.4575 4.90653 33.4575 5.6979 33.4575C8.072 33.4575 11.554 33.7762 12.1871 34.0948C12.9785 34.4135 13.295 35.0507 13.295 36.0067C13.295 36.8033 12.8202 37.4406 12.3454 37.7592C11.7123 37.9185 10.7626 37.9185 9.97128 37.9185C8.072 37.9185 5.53963 37.7592 4.43171 37.2812Z" fill="#CCB8F4"/>
<path d="M6.01451 43.4949C5.53969 43.3356 5.22314 42.8576 5.22314 42.061C5.22314 41.2644 5.38142 40.3085 5.85624 39.9898C8.07207 39.6712 10.4462 39.5119 12.662 39.3525C13.2951 39.3525 13.6116 39.8305 13.7699 40.7864C13.9282 41.7424 13.6116 42.8576 12.8203 43.0169C11.8706 43.1763 9.02171 43.6542 7.12243 43.6542C6.6476 43.6542 6.33106 43.4949 6.01451 43.4949Z" fill="#CCB8F4"/>
<path d="M43.0505 46.0441L42.8922 46.2034C42.1008 46.0441 40.8346 46.0441 39.7267 45.8848C38.7771 45.8848 37.6692 45.7254 37.0361 45.7254C35.2951 45.2475 34.9785 43.3356 34.8202 42.061C34.8202 41.5831 34.5037 41.4237 34.1872 41.4237C34.0289 41.4237 33.8706 41.5831 33.7123 41.5831C33.5541 41.7424 33.5541 42.061 33.5541 42.2204C34.0289 43.9729 32.6044 44.7695 32.1296 45.0882H31.9713C30.8634 45.7254 28.6476 46.0441 25.6404 46.0441C20.4174 46.0441 14.0864 45.0882 11.7123 44.4509L10.921 44.2915L11.7123 44.1322C14.2447 43.8136 15.0361 42.061 14.8778 40.6271C14.7195 39.1932 13.9282 38.2373 12.9785 38.2373H12.8202V37.9187C13.9282 37.7593 14.5613 36.4848 14.403 35.3695C14.403 34.4136 13.7699 33.2983 12.3454 32.9797L11.7123 32.8204L12.3454 32.661C14.8778 31.7051 15.0361 30.5899 15.1944 28.678V28.3593C15.1944 27.2441 14.7195 26.2882 13.7699 25.6509L13.4533 25.4915H13.7699C14.0864 25.4915 14.5613 25.1729 14.7195 25.0136C15.3526 24.3763 15.6692 23.4204 15.6692 22.4644C15.6692 21.1899 14.8778 19.756 13.9282 18.8C13.6116 18.4814 12.8202 18.0034 12.1872 17.6848C11.8706 17.5254 11.3958 17.2068 11.2375 17.0475L10.7627 16.7288H11.2375C11.3958 16.7288 16.6188 17.0475 18.0433 17.5254H18.2015L18.0433 17.6848C16.6188 20.3932 16.6188 23.5797 18.3598 26.4475C19.626 28.678 21.6836 30.2712 23.5828 30.2712C24.0577 30.2712 24.3742 29.9526 24.3742 29.6339C24.3742 29.3153 24.2159 29.156 23.8994 29.156C22.1584 29.156 20.4174 27.7221 19.3095 25.4915C18.2015 23.261 17.7267 20.0746 19.3095 18.0034C18.6764 14.0204 19.4677 6.3729 21.8418 3.66443C22.3167 3.02714 22.9497 2.7085 23.5828 2.7085C24.2159 2.7085 24.6908 2.86782 25.0073 3.34578C26.4318 5.09833 25.4821 10.0373 24.849 12.4271V12.7458C23.8994 17.2068 26.7483 19.4373 30.072 21.9865C30.8634 22.6238 31.4965 23.1017 32.2879 23.739C33.5541 24.6949 34.5037 25.4915 34.5037 27.7221C34.5037 28.2 34.662 28.5187 34.8202 28.678C34.9785 28.8373 34.9785 28.8373 35.1368 28.8373C35.2951 28.8373 35.2951 28.8373 35.4533 28.678C35.6116 28.5187 35.6116 28.2 35.6116 28.0407C35.6116 27.5627 35.6116 27.2441 35.6116 27.0848C35.6116 26.9254 35.6116 26.6068 35.6116 26.4475V26.1288L35.9282 26.2882C37.6692 27.0848 39.5685 27.5627 41.4677 27.5627C41.626 27.5627 41.626 27.5627 41.7843 27.5627C43.2087 29.3153 43.367 34.5729 43.367 37.6C43.367 38.078 43.367 38.7153 43.367 39.5119C43.5253 41.5831 43.5253 44.1322 43.0505 46.0441Z" fill="#CCB8F4"/>
<path d="M43.5252 31.7051V31.5458C43.3669 28.9966 42.4173 25.4915 40.518 24.2169C40.3597 24.2169 40.3597 24.2169 40.2014 24.2169C39.8849 24.2169 39.7266 24.3763 39.5683 24.5356H39.4101C36.8777 24.3763 34.3453 23.4203 32.446 21.8271L30.705 20.5525C29.5971 19.7559 28.1727 18.8 28.1727 18.6407C24.6906 15.6136 24.3741 13.2237 24.6906 8.28475V8.12542C24.8489 6.21356 25.3237 2.23051 23.8993 0.637288C23.4245 0.159322 22.9496 0 22.3165 0C21.3669 0 20.4173 0.477966 19.4676 1.27458C16.777 4.14237 15.8273 10.6746 15.9856 14.1797V14.339H15.8273C14.0863 14.1797 10.1295 13.5424 7.1223 13.5424C4.7482 13.5424 3.79856 13.861 3.48201 14.1797C2.53237 15.1356 1.89928 16.7288 1.89928 18.4814C1.89928 20.2339 2.3741 21.8271 3.32374 22.7831L3.64029 23.1017H3.16547H3.00719C2.3741 23.1017 1.74101 23.4203 1.26619 24.0576C0.316547 25.1729 0 26.9254 0 27.8814C0.158273 28.8373 0.633094 30.4305 1.42446 30.9085L1.58273 31.0678L1.42446 31.2271C1.26619 31.3864 1.10791 31.5458 1.10791 31.7051C0.633094 32.9797 0.633094 34.5729 1.26619 35.8475C1.74101 36.8034 2.69065 37.4407 4.27338 37.7593L5.22302 37.9186L4.27338 38.078C3.16547 38.2373 2.84892 39.3525 2.84892 39.8305C2.69065 40.9458 3.16547 42.3797 4.27338 42.8576C8.23022 44.6102 18.518 46.2034 25.6403 46.2034C29.4389 46.2034 31.9712 45.7254 33.2374 45.0881C34.0288 45.4068 35.6115 45.5661 37.1942 45.5661C38.9353 45.5661 40.518 45.7254 40.9928 46.2034C41.1511 46.3627 41.1511 46.3627 41.1511 46.522C41.1511 46.6814 41.1511 46.8407 41.3094 46.8407C41.4676 47 41.6259 47 41.9424 47C42.4173 47 42.8921 46.8407 43.0504 46.2034C43.6835 43.8136 44 41.2644 44 38.7153V38.5559L43.5252 31.7051ZM3.32374 19.278C3.16547 17.6847 3.64029 15.9322 4.90648 15.6136C5.06475 15.6136 5.06475 15.6136 5.06475 15.6136C6.96403 15.6136 10.446 17.3661 11.8705 18.1627C12.6619 18.6407 13.1367 20.3932 12.9784 21.5085C12.8201 22.1458 12.5036 22.4644 12.1871 22.4644C12.1871 22.4644 12.0288 22.4644 11.8705 22.4644C11.2374 22.4644 9.81295 22.3051 8.38849 22.3051C7.1223 22.3051 6.01439 22.1458 5.53957 22.1458C4.27338 22.1458 3.48201 21.0305 3.32374 19.278ZM1.42446 27.4034C1.58273 26.2881 2.05755 24.8542 3.48201 24.8542C3.64029 24.8542 3.64029 24.8542 3.79856 24.8542C4.43165 25.0136 5.3813 25.0136 6.48921 25.0136C8.38849 25.1729 10.446 25.3322 11.2374 25.4915C11.7122 25.6508 12.1871 25.9695 12.5036 26.6068C12.8201 27.0847 12.8201 27.722 12.6619 28.2C12.6619 28.3593 12.5036 28.5186 12.5036 28.678C11.8705 30.1119 10.2878 30.2712 8.86331 30.2712C6.80576 30.2712 4.7482 30.1119 2.69065 29.7932C1.74101 29.6339 1.26619 28.5186 1.42446 27.4034ZM3.16547 36.0068C2.3741 35.6881 1.89928 34.5729 1.89928 33.617C1.89928 32.9797 2.05755 32.5017 2.53237 32.3424C3.00719 32.183 3.64029 32.1831 4.43165 32.1831C6.80576 32.1831 10.2878 32.5017 10.9209 32.8203C11.7122 33.139 12.0288 33.7763 12.0288 34.7322C12.0288 35.5288 11.554 36.1661 11.0791 36.4847C10.446 36.6441 9.4964 36.6441 8.70504 36.6441C6.64748 36.6441 4.11511 36.4847 3.16547 36.0068ZM4.58993 42.2203C4.11511 42.061 3.79856 41.5831 3.79856 40.7864C3.79856 39.9898 3.95683 39.0339 4.43165 38.7153C6.64748 38.3966 9.02158 38.2373 11.2374 38.078C11.8705 38.078 12.1871 38.5559 12.3453 39.5119C12.5036 40.4678 12.1871 41.5831 11.3957 41.7424C10.446 41.9017 7.59712 42.3797 5.69784 42.3797C5.3813 42.3797 4.90648 42.3797 4.58993 42.2203ZM41.7842 44.7695L41.6259 44.9288C40.8345 44.7695 39.5683 44.7695 38.4604 44.6102C37.5108 44.6102 36.4029 44.4508 35.7698 44.4508C34.0288 43.9729 33.7122 42.061 33.554 40.7864C33.554 40.3085 33.2374 40.1492 32.9209 40.1492C32.7626 40.1492 32.6043 40.3085 32.446 40.3085C32.2878 40.4678 32.2878 40.7864 32.2878 40.9458C32.7626 42.6983 31.3381 43.4949 30.8633 43.8136H30.705C29.5971 44.4508 27.3813 44.7695 24.3741 44.7695C19.1511 44.7695 12.8201 43.8136 10.446 43.1763L9.65468 43.0169L10.446 42.8576C12.9784 42.539 13.7698 40.7864 13.6115 39.3525C13.4532 37.9186 12.6619 36.9627 11.7122 36.9627H11.554V36.6441C12.6619 36.4847 13.295 35.2102 13.1367 34.0949C13.1367 33.139 12.5036 32.0237 11.0791 31.7051L10.446 31.5458L11.0791 31.3864C13.6115 30.4305 13.7698 29.3153 13.9281 27.4034V27.0847C13.9281 25.9695 13.4532 25.0136 12.5036 24.3763L12.1871 24.2169H12.5036C12.8201 24.2169 13.295 23.8983 13.4532 23.739C14.0863 23.1017 14.4029 22.1458 14.4029 21.1898C14.4029 19.9153 13.6115 18.4814 12.6619 17.5254C12.3453 17.2068 11.554 16.7288 10.9209 16.4102C10.6043 16.2508 10.1295 15.9322 9.97122 15.7729L9.4964 15.4542H9.97122C10.1295 15.4542 15.3525 15.7729 16.777 16.2508H16.9353L16.777 16.4102C15.3525 19.1186 15.3525 22.3051 17.0935 25.1729C18.3597 27.4034 20.4173 28.9966 22.3165 28.9966C22.7914 28.9966 23.1079 28.678 23.1079 28.3593C23.1079 28.0407 22.9496 27.8814 22.6331 27.8814C20.8921 27.8814 19.1511 26.4475 18.0432 24.2169C16.9353 21.9864 16.4604 18.8 18.0432 16.7288C17.4101 12.7458 18.2014 5.09831 20.5755 2.38983C21.0504 1.75254 21.6835 1.4339 22.3165 1.4339C22.9496 1.4339 23.4245 1.59322 23.741 2.07119C25.1655 3.82373 24.2158 8.76271 23.5827 11.1525V11.4712C22.6331 15.9322 25.482 18.1627 28.8058 20.7119C29.5971 21.3492 30.2302 21.8271 31.0216 22.4644C32.2878 23.4203 33.2374 24.2169 33.2374 26.4475C33.2374 26.9254 33.3957 27.2441 33.554 27.4034C33.7122 27.5627 33.7122 27.5627 33.8705 27.5627C34.0288 27.5627 34.0288 27.5627 34.1871 27.4034C34.3453 27.2441 34.3453 26.9254 34.3453 26.7661C34.3453 26.2881 34.3453 25.9695 34.3453 25.8102C34.3453 25.6508 34.3453 25.3322 34.3453 25.1729V24.8542L34.6619 25.0136C36.4029 25.8102 38.3022 26.2881 40.2014 26.2881C40.3597 26.2881 40.3597 26.2881 40.518 26.2881C41.9424 28.0407 42.1007 33.2983 42.1007 36.3254C42.1007 36.8034 42.1007 37.4407 42.1007 38.2373C42.1007 40.4678 42.1007 42.8576 41.7842 44.7695Z" fill="#464860"/>
</svg>
