<svg width="48" height="55" viewBox="0 0 48 55" fill="none" xmlns="http://www.w3.org/2000/svg">
<path d="M21.7191 53.4701C21.4135 53.4701 21.1079 53.4701 20.9551 53.3171L20.8023 53.623V53.0111C20.4967 52.2463 20.1912 51.0225 19.7328 49.6457C19.2744 47.963 18.9688 46.2802 18.3576 45.5154C18.052 45.0565 17.5936 44.9035 16.8296 44.7505C16.3713 44.5975 15.7601 44.4446 15.1489 44.1386C9.95383 40.6202 6.74512 34.9601 6.28673 28.6882C6.28673 28.3822 5.36996 26.2406 4.60598 24.0989C3.842 22.1103 3.07802 19.9686 2.46684 18.1329C2.00845 17.2151 2.00845 16.2972 2.46684 15.5324C2.77243 15.0735 3.38361 14.6145 3.9948 14.6145C4.75878 14.6145 5.36996 15.0735 5.67555 15.9913C6.13394 17.3681 6.89792 18.8978 7.5091 20.4276C8.12028 21.6514 8.57867 22.8752 9.03706 23.946C9.18985 24.4049 9.49545 24.5579 9.80104 24.5579C9.95383 24.5579 10.1066 24.4049 10.2594 24.2519C10.4122 24.0989 10.4122 23.793 10.2594 23.487C9.95383 22.4162 9.34265 21.0395 8.73147 19.6627C7.5091 16.6032 6.13394 13.2378 5.52275 10.9431C5.36996 10.1783 5.52275 9.41339 5.98114 8.95447C6.43953 8.34257 7.05071 8.03662 7.81469 8.03662C8.27308 8.03662 9.18985 8.1896 9.80104 9.56637C10.4122 10.9431 13.0097 18.2859 13.7737 20.7335L13.9265 21.1924C14.0793 21.6514 14.3849 21.8043 14.8433 21.8043C15.1489 21.8043 15.4545 21.6514 15.6073 21.4984C15.7601 21.3454 15.7601 21.0395 15.6073 20.7335C15.1489 19.5097 14.8433 18.1329 14.3849 16.9091L13.4681 14.0026C13.1625 13.0848 12.7042 11.708 12.2458 10.1783C11.7874 8.49555 11.1762 6.65985 10.7178 5.58903C10.4122 4.82416 10.565 4.05929 11.0234 3.44739C11.4818 2.83549 12.093 2.52954 12.857 2.52954C13.6209 2.52954 14.2321 2.83549 14.3849 3.60036C15.3017 5.89498 18.5104 14.4616 18.5104 17.2151C18.5104 17.674 18.816 17.674 18.9688 17.674C19.2744 17.674 19.58 17.521 19.58 17.3681C19.7328 16.9091 20.1912 15.8383 20.4967 14.9205C20.8023 14.3086 20.9551 13.6967 21.1079 13.5437C21.8719 11.555 22.6359 10.6372 23.7055 10.6372C25.3862 10.6372 27.067 13.3907 28.4421 15.5324C28.9005 16.4502 29.3589 17.0621 29.8173 17.521C30.1229 17.827 30.1229 18.4389 29.8173 19.0508C29.6645 19.5097 29.3589 19.6627 28.9005 19.6627C28.9005 19.6627 28.9005 19.6627 28.7477 19.6627C27.5254 19.5097 26.4558 18.4389 25.539 17.521C24.9278 16.7562 24.3166 16.1443 23.8583 16.1443H23.7055C23.3999 16.2972 22.9415 19.2038 22.7887 20.7335C22.7887 21.4984 23.3999 22.1103 24.1638 22.2633C25.8446 22.4162 26.303 24.8638 26.6086 26.3936C26.6086 26.6995 26.7614 27.0055 26.7614 27.1584V27.3114H26.6086C25.0806 28.5352 23.8583 29.912 22.9415 31.5947C22.7887 31.9006 22.7887 32.2066 22.9415 32.3596C23.0943 32.5125 23.2471 32.6655 23.3999 32.6655C23.7055 32.6655 23.8583 32.5125 24.1638 32.0536C25.0806 30.2179 27.5254 27.4644 29.3589 27.4644C29.5117 27.4644 29.6645 27.4644 29.8173 27.4644C29.9701 27.4644 29.9701 27.4644 30.1229 27.4644C30.4285 27.4644 30.5813 27.3114 30.7341 27.1584C31.0397 26.8525 31.0397 26.0876 30.7341 25.1698C30.4285 24.0989 30.1229 23.1811 31.8036 20.2746C32.1092 19.8157 32.5676 19.6627 33.026 19.6627C33.4844 19.6627 33.9428 19.8157 34.2484 20.2746C35.3179 21.3454 35.7763 23.793 35.6235 26.0876C35.4707 27.9233 34.7068 29.4531 33.9428 31.1358C33.4844 32.2066 33.026 33.1244 32.7204 34.1953C32.262 35.878 34.554 44.7505 35.3179 46.8922C35.3179 47.0451 35.3179 47.1981 35.1651 47.504C33.79 49.1868 24.6222 53.4701 21.7191 53.4701Z" fill="white"/>
<path d="M30.7341 52.7052C31.0397 52.2463 31.3453 51.6344 31.9565 51.4814H32.1093V51.6344C32.1093 51.6344 32.2621 51.7874 32.2621 52.0933" fill="white"/>
<path d="M23.5526 54.5409C23.247 54.5409 22.9414 54.5408 22.7886 54.3879L22.6358 54.6938V54.0819C22.3302 53.3171 22.0247 52.0933 21.5663 50.7165C21.1079 49.0338 20.8023 47.3511 20.1911 46.5862C19.8855 46.1273 19.4271 45.9743 18.6631 45.8213C18.2048 45.6683 17.5936 45.5154 16.9824 45.2094C11.7873 41.691 8.57862 36.0309 8.12023 29.759C8.12023 29.453 7.20345 27.3114 6.43948 25.1697C5.6755 23.1811 4.91152 21.0394 4.30033 19.2037C3.84195 18.2859 3.84195 17.368 4.30033 16.6032C4.60593 16.1443 5.21711 15.6853 5.82829 15.6853C6.59227 15.6853 7.20345 16.1443 7.50905 17.0621C7.96743 18.4389 8.73141 19.9686 9.3426 21.4984C9.95378 22.7222 10.4122 23.946 10.8706 25.0168C11.0234 25.4757 11.3289 25.6287 11.6345 25.6287C11.7873 25.6287 11.9401 25.4757 12.0929 25.3227C12.2457 25.1697 12.2457 24.8638 12.0929 24.5579C11.7873 23.487 11.1761 22.1103 10.565 20.7335C9.3426 17.674 7.96743 14.3086 7.35625 12.0139C7.20345 11.2491 7.35625 10.4842 7.81464 10.0253C8.27303 9.41337 8.88421 9.10742 9.64819 9.10742C10.1066 9.10742 11.0234 9.2604 11.6345 10.6372C12.2457 12.0139 14.8432 19.3567 15.6072 21.8043L15.76 22.2632C15.9128 22.7222 16.2184 22.8751 16.6768 22.8751C16.9824 22.8751 17.288 22.7222 17.4408 22.5692C17.5936 22.4162 17.5936 22.1103 17.4408 21.8043C16.9824 20.5805 16.6768 19.2037 16.2184 17.9799L15.3016 15.0734C14.996 14.1556 14.5377 12.7788 14.0793 11.2491C13.6209 9.56635 13.0097 7.73065 12.5513 6.65983C12.2457 5.89496 12.3985 5.13009 12.8569 4.51819C13.3153 3.90629 13.9265 3.60034 14.6905 3.60034C15.4544 3.60034 16.0656 3.90629 16.2184 4.67116C17.1352 6.96578 20.3439 15.5324 20.3439 18.2859C20.3439 18.7448 20.6495 18.7448 20.8023 18.7448C21.1079 18.7448 21.4135 18.5918 21.4135 18.4389C21.5663 17.9799 22.0247 16.9091 22.3302 15.9913C22.6358 15.3794 22.7886 14.7675 22.9414 14.6145C23.7054 12.6258 24.4694 11.708 25.539 11.708C27.2197 11.708 28.9005 14.4615 30.2756 16.6032C30.734 17.521 31.1924 18.1329 31.6508 18.5918C31.9564 18.8978 31.9564 19.5097 31.6508 20.1216C31.498 20.5805 31.1924 20.7335 30.734 20.7335C30.734 20.7335 30.734 20.7335 30.5812 20.7335C29.3589 20.5805 28.2893 19.5097 27.3725 18.5918C26.7613 17.827 26.1501 17.2151 25.6917 17.2151H25.539C25.2334 17.368 24.775 20.2746 24.6222 21.8043C24.6222 22.5692 25.2334 23.1811 25.9973 23.3341C27.6781 23.487 28.1365 25.9346 28.4421 27.4644C28.4421 27.7703 28.5949 28.0763 28.5949 28.2292V28.3822H28.4421C26.9141 29.606 25.6918 30.9828 24.775 32.6655C24.6222 32.9714 24.6222 33.2774 24.775 33.4304C24.9278 33.5833 25.0806 33.7363 25.2334 33.7363C25.539 33.7363 25.6918 33.5833 25.9973 33.1244C26.9141 31.2887 29.3589 28.5352 31.1924 28.5352C31.3452 28.5352 31.498 28.5352 31.6508 28.5352C31.8036 28.5352 31.8036 28.5352 31.9564 28.5352C32.262 28.5352 32.4148 28.3822 32.5676 28.2292C32.8732 27.9233 32.8732 27.1584 32.5676 26.2406C32.262 25.1698 31.9564 24.2519 33.6371 21.3454C33.9427 20.8865 34.4011 20.7335 34.8595 20.7335C35.3179 20.7335 35.7763 20.8865 36.0819 21.3454C37.1514 22.4162 37.6098 24.8638 37.457 27.1584C37.3042 28.9941 36.5403 30.5239 35.7763 32.2066C35.3179 33.2774 34.8595 34.1952 34.5539 35.2661C34.0955 36.9488 36.3875 45.8213 37.1514 47.963C37.1514 48.1159 37.1514 48.2689 36.9986 48.5748C35.6235 50.1046 26.3029 54.5409 23.5526 54.5409Z" fill="#CCB8F4"/>
<path d="M32.8732 51.0224V50.8694H33.026C34.7068 49.7986 36.8459 47.9629 36.3875 47.045C35.9291 45.8212 33.026 36.0309 34.554 33.1244C37.3043 27.7703 36.2347 19.8156 34.554 18.7448C34.0956 18.4388 33.6372 18.2858 33.1788 18.2858C32.5676 18.2858 32.1092 18.4388 31.6508 18.8977L31.3453 19.2037L31.4981 18.7448C31.8036 17.521 31.1925 16.7561 30.7341 16.4501C30.5813 16.2972 30.5813 16.2972 30.4285 16.1442C30.1229 15.6853 29.8173 15.0734 29.5117 14.3085C28.4421 12.0139 27.067 9.26034 24.4694 9.26034C22.1775 9.26034 20.9551 11.555 19.7328 14.0025L19.58 14.3085L19.4272 14.0025C17.8992 9.56629 16.2185 4.97705 15.1489 2.52946C14.8433 1.76459 13.9265 1.30566 12.857 1.30566C11.7874 1.30566 10.7178 1.91756 10.1066 2.83541C9.49545 3.75326 9.03706 5.283 10.1066 7.88357L9.80104 8.03654C9.34265 7.27167 8.73147 6.96572 7.96749 6.96572C7.05072 6.96572 5.98114 7.57762 5.36996 8.49547C4.91157 9.26034 4.30039 10.9431 5.36996 13.3907C5.36996 13.3907 5.36996 13.5436 5.52276 13.5436L5.21717 13.3907C5.21717 13.3907 5.21717 13.2377 5.06437 13.2377C4.91157 13.0847 4.60598 12.9317 4.14759 12.9317C3.38362 12.9317 2.31404 13.3907 1.70286 14.3085C1.09168 15.0734 0.63329 16.4501 1.39727 18.5918C1.55007 19.0507 1.70286 19.6626 2.00845 20.2745C3.07802 23.334 4.75878 27.7703 4.91157 29.147C5.67555 36.0309 9.34265 44.2915 15.4545 45.9742C17.1352 46.4331 18.5104 50.5634 19.2744 52.8581C19.4272 53.47 19.58 54.0819 19.7328 54.0819C20.0384 54.5408 20.6495 54.6938 21.7191 54.6938C23.3999 54.6938 25.6918 54.0819 27.3726 53.47H27.5254L32.8732 51.0224ZM30.4285 19.9686L30.2757 20.2745C29.5117 21.6513 29.0533 23.334 28.9005 25.0167C28.9005 25.1697 28.9005 25.3227 29.0533 25.4756V25.6286H28.9005C28.7477 25.6286 28.4421 25.7816 28.2893 25.9346H28.1365V25.7816C27.9837 25.4756 27.8309 25.1697 27.8309 24.7108C27.8309 24.4048 27.6782 24.2518 27.6782 23.9459C27.3726 23.334 27.067 22.7221 26.7614 22.2632C26.303 21.4983 25.539 20.8864 24.775 20.4275C24.6222 19.9686 24.6222 19.5096 24.775 19.0507C24.775 18.7448 24.775 18.4388 24.9278 18.1329V17.9799V17.6739L25.1417 18.0564C26.0127 18.8212 26.6391 19.7391 27.5559 20.198C28.0143 20.504 28.9005 20.2745 29.527 20.1521C29.8326 20.0909 30.1382 19.9533 30.291 19.8003L30.4285 19.9686ZM21.7191 53.47C21.4135 53.47 21.1079 53.47 20.9551 53.317L20.8023 53.6229V53.011C20.4968 52.2462 20.1912 51.0224 19.7328 49.6456C19.2744 47.9629 18.9688 46.2802 18.3576 45.5153C18.052 45.0564 17.5936 44.9034 16.8296 44.7504C16.3713 44.5975 15.7601 44.4445 15.1489 44.1385C9.95384 40.6201 6.74512 34.9601 6.28674 28.6881C6.28674 28.3822 5.36996 26.2405 4.60598 24.0989C3.842 22.1102 3.07802 19.9686 2.46684 18.1329C2.00845 17.215 2.00845 16.2972 2.46684 15.5323C2.77243 15.0734 3.38362 14.6144 3.9948 14.6144C4.75878 14.6144 5.36996 15.0734 5.67555 15.9912C6.13394 17.368 6.89792 18.8977 7.5091 20.4275C8.12029 21.6513 8.57867 22.8751 9.03706 23.9459C9.18986 24.4048 9.49545 24.5578 9.80104 24.5578C9.95384 24.5578 10.1066 24.4048 10.2594 24.2518C10.4122 24.0989 10.4122 23.7929 10.2594 23.487C9.95384 22.4161 9.34265 21.0394 8.73147 19.6626C7.5091 16.6031 6.13394 13.2377 5.52276 10.9431C5.36996 10.1782 5.52276 9.41331 5.98114 8.95439C6.43953 8.34249 7.05072 8.03654 7.81469 8.03654C8.27308 8.03654 9.18986 8.18952 9.80104 9.56629C10.4122 10.9431 13.0098 18.2858 13.7737 20.7334L13.9265 21.1924C14.0793 21.6513 14.3849 21.8042 14.8433 21.8042C15.1489 21.8042 15.4545 21.6513 15.6073 21.4983C15.7601 21.3453 15.7601 21.0394 15.6073 20.7334C15.1489 19.5096 14.8433 18.1329 14.3849 16.9091L13.4681 14.0025C13.1625 13.0847 12.7042 11.7079 12.2458 10.1782C11.7874 8.49547 11.1762 6.65977 10.7178 5.58895C10.4122 4.82408 10.565 4.05921 11.0234 3.44731C11.4818 2.83541 12.093 2.52946 12.857 2.52946C13.6209 2.52946 14.2321 2.83541 14.3849 3.60028C15.3017 5.8949 18.5104 14.4615 18.5104 17.215C18.5104 17.6739 18.816 17.6739 18.9688 17.6739C19.2744 17.6739 19.58 17.521 19.58 17.368C19.7328 16.9091 20.1912 15.8382 20.4968 14.9204C20.8023 14.3085 20.9551 13.6966 21.1079 13.5436C21.8719 11.555 22.6359 10.6371 23.7055 10.6371C25.3862 10.6371 27.067 13.3907 28.4421 15.5323C28.9005 16.4501 29.3589 17.062 29.8173 17.521C30.1229 17.8269 30.1229 18.4388 29.8173 19.0507C29.6645 19.5096 29.3589 19.6626 28.9005 19.6626C28.9005 19.6626 28.9005 19.6626 28.7477 19.6626C27.5254 19.5096 26.4558 18.4388 25.539 17.521C24.9278 16.7561 24.3166 16.1442 23.8583 16.1442H23.7055C23.3999 16.2972 22.9415 19.2037 22.7887 20.7334C22.7887 21.4983 23.3999 22.1102 24.1639 22.2632C25.8446 22.4161 26.303 24.8637 26.6086 26.3935C26.6086 26.6994 26.7614 27.0054 26.7614 27.1584V27.3113H26.6086C25.0806 28.5351 23.8583 29.9119 22.9415 31.5946C22.7887 31.9006 22.7887 32.2065 22.9415 32.3595C23.0943 32.5125 23.2471 32.6654 23.3999 32.6654C23.7055 32.6654 23.8583 32.5125 24.1639 32.0535C25.0806 30.2178 27.5254 27.4643 29.3589 27.4643C29.5117 27.4643 29.6645 27.4643 29.8173 27.4643C29.9701 27.4643 29.9701 27.4643 30.1229 27.4643C30.4285 27.4643 30.5813 27.3113 30.7341 27.1584C31.0397 26.8524 31.0397 26.0875 30.7341 25.1697C30.4285 24.0989 30.1229 23.181 31.8036 20.2745C32.1092 19.8156 31.4369 19.6473 33.026 19.6626C33.4844 19.6626 33.9428 19.8156 34.2484 20.2745C35.3179 21.3453 35.7763 23.7929 35.6235 26.0875C35.4707 27.9232 34.7068 29.453 33.9428 31.1357C33.4844 32.2065 33.026 33.1244 32.7204 34.1952C32.262 35.8779 34.554 44.7504 35.3179 46.8921C35.3179 47.045 35.3179 47.198 35.1652 47.504C33.79 49.1867 24.6222 53.47 21.7191 53.47Z" fill="#464860"/>
<path d="M42.1938 7.73067C42.6522 7.27175 43.2633 6.81283 43.7217 6.3539C44.4857 5.74201 45.4025 4.97713 46.0137 4.21226C46.3193 3.90631 46.4721 3.29441 46.3193 2.83549C46.1665 2.68252 46.0137 2.52954 45.8609 2.52954C45.5553 2.52954 45.2497 2.68252 44.4857 3.29441C43.8745 3.90631 43.1105 4.51821 42.3466 5.13011C41.8882 5.58903 41.277 6.04795 40.8186 6.3539C39.2906 7.73067 37.7627 9.26042 36.2347 10.9431C35.9291 11.2491 35.9291 11.555 36.0819 11.861C36.2347 12.1669 36.5403 12.4729 36.8459 12.4729C36.9987 12.4729 37.3043 12.3199 37.4571 12.1669C38.8323 10.9431 40.3602 9.41339 42.1938 7.73067Z" fill="#464860"/>
<path d="M48.0001 16.6032C48.0001 15.9913 47.6945 15.3794 46.9305 15.3794C46.3193 15.3794 45.7081 15.3794 45.0969 15.3794C43.569 15.3794 42.1938 15.5324 40.5131 15.6853C40.0547 15.6853 39.4435 15.8383 38.8323 15.8383C38.2211 15.8383 37.9155 16.4502 37.9155 16.9091C37.9155 17.2151 38.0683 17.674 38.6795 17.674C38.6795 17.674 38.6795 17.674 38.8323 17.674C40.2075 17.521 41.5826 17.521 42.805 17.521C44.1802 17.521 45.5553 17.521 46.7777 17.674C46.7777 17.674 46.7777 17.674 46.9305 17.674C47.6945 17.521 48.0001 16.9091 48.0001 16.6032Z" fill="#464860"/>
<path d="M33.79 2.37657C33.79 1.76467 33.79 1.15277 33.4844 0.999797C33.3317 0.846822 33.1789 0.693848 32.8733 0.693848C32.4149 0.693848 31.9565 0.999797 31.9565 1.61169C31.6509 4.51821 31.6509 7.42473 31.9565 10.3312C31.9565 10.9431 32.5677 11.2491 32.8733 11.2491C33.1789 11.2491 33.3317 11.0961 33.4844 10.9431C33.6372 10.7902 33.6372 10.6372 33.6372 10.3312C33.4844 7.73067 33.4844 4.97713 33.79 2.37657Z" fill="#464860"/>
</svg>
