<svg width="49" height="47" viewBox="0 0 49 47" fill="none" xmlns="http://www.w3.org/2000/svg">
<path d="M19.6956 45.0159C7.84362 42.9243 -0.100577 31.5729 1.99094 19.7103C4.07889 7.8476 15.4231 -0.103752 27.2751 1.98777C39.127 4.07929 47.0712 15.4343 44.9797 27.2969C42.8918 39.1596 31.5475 47.1074 19.6956 45.0159Z" fill="white"/>
<path d="M23.3817 46.2457C11.5298 44.1541 3.58556 32.7992 5.6735 20.9365C7.76502 9.07382 19.1093 1.12247 30.9612 3.21756C42.8132 5.30908 50.7574 16.6641 48.6658 28.5267C46.5779 40.3858 35.2336 48.3372 23.3817 46.2457Z" fill="#CCB8F4"/>
<path d="M35.3194 11.2728L28.5515 10.0679L20.0782 8.59135L16.3527 7.92993L12.1912 31.5659L31.1221 34.9016L35.3194 11.2728Z" fill="white"/>
<path d="M20.0782 8.59135L16.3527 7.92993L12.1912 31.5623L31.1221 34.898L32.377 27.8369C32.377 27.8369 26.2562 28.5877 21.7835 23.9113C17.3038 19.2349 17.2716 13.6754 20.0782 8.59135Z" fill="#A3EFE0"/>
<path d="M32.5772 26.7141C32.5772 26.7141 27.2144 26.6462 24.5508 21.337C20.8683 14.0041 28.5265 10.0642 28.5265 10.0642L35.3194 11.2726L32.5772 26.7141Z" fill="#A3EFE0"/>
<path d="M17.2143 27.2827L16.1489 27.0933L14.136 29.0882L15.1228 29.2634L15.5125 28.8487L17.1821 29.1455L17.3895 29.6639L18.412 29.8462L17.2143 27.2827ZM15.8342 28.4983L16.5779 27.7082L16.9819 28.7057L15.8342 28.4983Z" fill="white"/>
<path d="M19.0056 27.6008L22.6595 28.2515L22.588 28.6555L21.2401 28.416L20.904 30.2894L19.9566 30.1214L20.2891 28.2444L18.9341 28.0048L19.0056 27.6008Z" fill="white"/>
<path d="M26.6529 29.1633C26.3454 28.9274 25.8663 28.7486 25.2228 28.6342C24.5793 28.5198 24.068 28.5198 23.6962 28.6378C23.2028 28.7665 22.9168 29.0382 22.8417 29.4565C22.7702 29.8641 22.9418 30.2216 23.3601 30.5183C23.6711 30.7579 24.1467 30.9331 24.7902 31.0475C25.4373 31.1619 25.945 31.1619 26.3168 31.0439C26.8102 30.908 27.0927 30.6328 27.1677 30.2252C27.2392 29.8069 27.0676 29.4565 26.6529 29.1633ZM24.0072 30.2752C23.8106 30.1 23.7319 29.8784 23.7784 29.621C23.8249 29.3635 23.9715 29.1848 24.2182 29.0882C24.4649 28.9881 24.7759 28.9738 25.1477 29.0382C25.5195 29.1025 25.8056 29.2277 25.9986 29.4029C26.1917 29.5816 26.2668 29.7997 26.2239 30.0571C26.1774 30.3146 26.0344 30.4933 25.7877 30.5934C25.5446 30.6935 25.2335 30.7114 24.8617 30.6435C24.4899 30.5791 24.2039 30.454 24.0072 30.2752Z" fill="white"/>
<path d="M27.6829 31.4942L28.0869 29.2168L29.0307 29.3848L28.6982 31.2547L30.9328 31.6515L30.8613 32.0627L27.6829 31.4942Z" fill="white"/>
<path d="M19.6957 45.0159C7.84372 42.9244 -0.10048 31.5729 1.99104 19.7103C4.07898 7.84761 15.4232 -0.103741 27.2752 1.98778C39.1271 4.0793 47.0713 15.4343 44.9798 27.297C42.8919 39.1596 31.5476 47.1074 19.6957 45.0159ZM0.507312 19.4457C-1.72722 32.1271 6.76399 44.2651 19.4347 46.4996C32.1053 48.7341 44.2326 40.2358 46.4671 27.5544C46.7067 26.1886 46.8246 24.83 46.8246 23.4857C46.8246 12.3703 38.8483 2.49546 27.5398 0.500476C14.8655 -1.73405 2.74184 6.76431 0.507312 19.4457Z" fill="#464860"/>
<path d="M5.93094 27.8654C5.98099 28.0155 6.03104 28.1728 6.10255 28.3087C6.34924 28.7234 6.78899 28.7842 7.21087 28.6698C7.76504 28.5196 8.05463 28.1371 7.95452 27.776L7.83654 27.347L5.93094 27.8654ZM3.47117 28.5375C3.43899 28.3588 3.41039 28.18 3.36391 28.0084C3.31743 27.8368 3.2495 27.6687 3.18872 27.4971L7.9295 26.2029L8.39428 27.9047C8.65527 28.8664 8.41216 29.4885 7.62918 29.703C6.39929 30.0391 5.89161 29.2132 5.55196 27.9655L3.47117 28.5375Z" fill="#464860"/>
<path d="M7.647 32.1271C7.9652 32.8135 8.46216 32.953 9.09856 32.5776C9.18436 32.5275 9.27374 32.4667 9.38815 32.363C9.84221 31.9626 9.52043 31.53 9.29877 31.151L7.647 32.1271ZM9.0914 30.032L9.86366 31.3477C10.0353 31.6373 10.3106 32.0806 10.3284 32.4238C10.3499 32.885 10.1819 33.2354 9.75998 33.4785C9.15576 33.8325 8.54439 33.6716 8.08318 33.1675C7.68991 33.8575 7.34668 34.5725 6.98916 35.284L6.74604 35.7488C6.64951 35.5557 6.56013 35.3591 6.4493 35.166C6.34204 34.9801 6.21333 34.8049 6.09177 34.6298L6.95698 33.1317C7.07139 32.9422 7.25373 32.6026 7.40746 32.3273L7.38244 32.2844L5.39817 33.4499C5.31952 33.289 5.24801 33.1246 5.15863 32.9673C5.06925 32.8135 4.95842 32.6705 4.85474 32.5204L9.0914 30.032Z" fill="#464860"/>
<path d="M10.2356 36.3353C9.62426 37.036 9.28819 38.0585 10.0998 38.7664C10.9292 39.4922 12.0268 38.9881 12.8098 38.0943C13.4176 37.3971 13.793 36.3174 12.985 35.6095C12.2342 34.9517 11.2939 35.1268 10.2356 36.3353ZM9.78872 39.0668C8.59816 38.0228 8.40868 36.6177 9.48125 35.395C10.4215 34.3224 11.9625 34.1401 13.3032 35.3163C14.8405 36.6606 14.3436 38.1408 13.6178 38.9845C12.699 40.0357 11.108 40.2216 9.78872 39.0668Z" fill="#464860"/>
<path d="M15.7915 42.6706C15.6341 42.5848 15.4768 42.4954 15.3124 42.4239C15.1479 42.3524 14.9763 42.3023 14.8047 42.2415L16.553 38.1944C16.0882 37.9941 15.652 37.8583 15.2909 37.7582C15.3445 37.6724 15.4018 37.5901 15.4447 37.49C15.484 37.3971 15.5054 37.297 15.5305 37.2004L18.9162 38.6663C18.8626 38.7521 18.8018 38.8379 18.7625 38.9273C18.7196 39.0274 18.7017 39.1275 18.6731 39.224C18.3049 39.0095 17.9366 38.7986 17.5362 38.6234L15.7915 42.6706Z" fill="#464860"/>
<path d="M22.3376 39.2596C22.3055 39.3562 22.2697 39.4598 22.2518 39.5564C22.234 39.6565 22.2375 39.7637 22.234 39.8674C21.8121 39.7387 21.3437 39.5993 20.6179 39.492L20.3605 41.0115L21.0935 41.1366C21.4117 41.1903 21.7048 41.2117 21.973 41.2189C21.9408 41.3154 21.9015 41.4191 21.8872 41.5156C21.8693 41.6157 21.8729 41.723 21.8693 41.8267C21.6154 41.748 21.3294 41.6693 21.0112 41.6157L20.2783 41.4906L19.9744 43.2854C20.6966 43.3998 21.1828 43.4462 21.6226 43.4641C21.594 43.5607 21.5511 43.6643 21.5368 43.7609C21.5189 43.861 21.5225 43.9682 21.5189 44.0719L18.8303 43.6143L19.6455 38.802L22.3376 39.2596Z" fill="#464860"/>
<path d="M27.4649 43.0279L27.3683 43.6571C26.9607 43.9217 26.4638 44.0539 25.9847 44.1004C24.4581 44.247 23.2139 43.4176 23.0709 41.9553C22.8921 40.0926 24.0934 39.1201 25.6451 38.9664C26.117 38.9235 26.6998 38.9878 27.1324 39.1737C27.093 39.424 27.0716 39.6707 27.0394 39.9245L26.9393 39.9317C26.639 39.5742 26.1563 39.3453 25.6915 39.3918C24.5081 39.5062 24.1399 40.6861 24.24 41.7372C24.358 42.9563 25.0408 43.7536 26.1384 43.6499C26.5818 43.607 27.0716 43.3282 27.3648 42.9921L27.4649 43.0279Z" fill="#464860"/>
<path d="M31.5226 42.5276C31.351 42.5812 31.1758 42.6241 31.0078 42.6885C30.8398 42.7528 30.6824 42.8386 30.5216 42.9209L28.9127 38.8165C28.4408 39.0024 28.0368 39.2133 27.7114 39.3992C27.6864 39.2991 27.6721 39.199 27.6328 39.0989C27.597 39.006 27.5398 38.9202 27.4897 38.8308L30.9256 37.4829C30.947 37.5794 30.9649 37.6831 31.0006 37.7761C31.04 37.8762 31.0972 37.962 31.1472 38.0478C30.7361 38.1551 30.3249 38.2623 29.9173 38.4232L31.5226 42.5276Z" fill="#464860"/>
<path d="M33.7681 35.4915C33.8145 35.5808 33.8574 35.6809 33.9146 35.7632C33.9719 35.8454 34.0505 35.9205 34.122 35.9956C33.7323 36.1994 33.2997 36.4353 32.7134 36.8679L33.6 38.1264L34.2078 37.6974C34.4688 37.5115 34.6941 37.3184 34.8907 37.1361C34.9372 37.2254 34.9801 37.3256 35.0408 37.4078C35.0981 37.49 35.1767 37.5651 35.2482 37.6402C35.0122 37.7653 34.7548 37.9083 34.4903 38.0942L33.8825 38.5233L34.93 40.0106C35.5235 39.5851 35.8989 39.2741 36.2243 38.9737C36.2707 39.0631 36.3136 39.1632 36.3708 39.2455C36.428 39.3277 36.5103 39.4028 36.5782 39.4779L34.3473 41.051L31.5371 37.061L33.7681 35.4915Z" fill="#464860"/>
<path d="M38.6446 36.8786L39.0235 36.3995C39.6349 35.6237 39.7136 34.7263 38.4014 33.6859C37.3468 32.8493 36.5352 33.0209 35.9095 33.8146L35.4733 34.3652L38.6446 36.8786ZM35.9953 33.0317C36.9892 31.8626 38.2191 32.0306 39.1415 32.7599C40.4107 33.7646 40.4572 35.2555 39.5455 36.4067L38.3013 37.9798L34.4758 34.9516L35.9953 33.0317Z" fill="#464860"/>
</svg>
