<svg width="36" height="46" viewBox="0 0 36 46" fill="none" xmlns="http://www.w3.org/2000/svg">
<path d="M34.2823 1.01562H1.80188V43.4542H34.2823V1.01562Z" fill="white"/>
<path d="M11.7934 6.06274H5.79846V12.628H11.7934V6.06274Z" fill="white"/>
<path d="M11.7934 19.2036H5.79846V25.7689H11.7934V19.2036Z" fill="white"/>
<path d="M11.7934 32.3342H5.79846V38.8995H11.7934V32.3342Z" fill="white"/>
<path d="M36.0001 2.72192H3.51965V45.1605H36.0001V2.72192Z" fill="#CCB8F4"/>
<path d="M11.7934 6.06274H5.79846V12.628H11.7934V6.06274Z" fill="white"/>
<path d="M11.7934 19.2036H5.79846V25.7689H11.7934V19.2036Z" fill="white"/>
<path d="M12.6963 6.98608H6.70129V13.5514H12.6963V6.98608Z" fill="#A3EFE0"/>
<path d="M12.6963 20.1165H6.70129V26.6818H12.6963V20.1165Z" fill="#A3EFE0"/>
<path d="M11.7934 32.3342H5.79846V38.8995H11.7934V32.3342Z" fill="white"/>
<path d="M35.2763 44.4594H0.797607V0H35.2763V44.4594ZM1.80184 43.4541H34.2721V1.01557H1.80184V43.4541Z" fill="#464860"/>
<path d="M12.7875 13.6433H4.79419V5.05713H12.7875V13.6433ZM5.79842 12.6277H11.7934V6.06244H5.79842V12.6277Z" fill="#464860"/>
<path d="M12.7875 26.7739H4.79419V18.1877H12.7875V26.7739ZM5.79842 25.7686H11.7934V19.2033H5.79842V25.7686Z" fill="#464860"/>
<path d="M12.7875 39.9148H4.79419V31.3286H12.7875V39.9148ZM5.79842 38.9095H11.7934V32.3442H5.79842V38.9095Z" fill="#464860"/>
<path d="M11.0428 33.9959L10.3226 33.2983L8.79086 34.9192L7.25915 33.2983L6.53894 33.9959L8.10108 35.6577L6.53894 37.3093L7.25915 38.0069L8.79086 36.3861L10.3226 38.0069L11.0428 37.3093L9.48064 35.6577L11.0428 33.9959Z" fill="#464860"/>
<path d="M31.2695 20.7114H14.7859V21.727H31.2695V20.7114Z" fill="#464860"/>
<path d="M26.7758 22.7322H14.7859V23.7477H26.7758V22.7322Z" fill="#464860"/>
<path d="M31.2695 7.58081H14.7859V8.59638H31.2695V7.58081Z" fill="#464860"/>
<path d="M26.7758 9.60156H14.7859V10.6171H26.7758V9.60156Z" fill="#464860"/>
<path d="M26.7758 33.8523H14.7859V34.8679H26.7758V33.8523Z" fill="#464860"/>
<path d="M31.2695 35.873H14.7859V36.8886H31.2695V35.873Z" fill="#464860"/>
<path d="M8.84153 11.6225L6.79248 8.99634L7.5837 8.37059L8.72994 9.84778L10.2515 7.27295L11.1137 7.79612L8.84153 11.6225Z" fill="#464860"/>
<path d="M8.84153 24.7633L6.79248 22.1372L7.5837 21.5115L8.72994 22.9784L10.2515 20.4138L11.1137 20.937L8.84153 24.7633Z" fill="#464860"/>
</svg>
