<svg width="47" height="46" viewBox="0 0 47 46" fill="none" xmlns="http://www.w3.org/2000/svg">
<path d="M22.8565 44.789C34.8151 44.789 44.5094 35.0337 44.5094 23.0001C44.5094 10.9664 34.8151 1.21118 22.8565 1.21118C10.8979 1.21118 1.20361 10.9664 1.20361 23.0001C1.20361 35.0337 10.8979 44.789 22.8565 44.789Z" fill="white"/>
<path d="M24.6529 45.5778C36.6115 45.5778 46.3058 35.8226 46.3058 23.7889C46.3058 11.7552 36.6115 2 24.6529 2C12.6943 2 3 11.7552 3 23.7889C3 35.8226 12.6943 45.5778 24.6529 45.5778Z" fill="#CCB8F4"/>
<path d="M39.0657 23.9334C38.602 32.2334 32.0321 38.8445 23.7839 39.3112L23.4306 39.3334V38.9779V37.189C23.4306 36.8667 23.1766 36.6112 22.8564 36.6112C22.5362 36.6112 22.2822 36.8667 22.2822 37.189V38.9779V39.3334L21.9289 39.3112C13.6807 38.8445 7.11084 32.2334 6.64708 23.9334L6.625 23.5779H6.97834H8.75606C9.07627 23.5779 9.33023 23.3223 9.33023 23.0001C9.33023 22.6779 9.07627 22.4223 8.75606 22.4223H6.97834H6.625L6.64708 22.0667C7.11084 13.7667 13.6807 7.15564 21.9289 6.68897L22.2822 6.66675V7.0223V8.81119C22.2822 9.13341 22.5362 9.38897 22.8564 9.38897C23.1766 9.38897 23.4306 9.13341 23.4306 8.81119V7.0223V6.66675L23.7839 6.68897C32.0321 7.15564 38.602 13.7667 39.0657 22.0667L39.0878 22.4223H38.7345H36.9567C36.6365 22.4223 36.3826 22.6779 36.3826 23.0001C36.3826 23.3223 36.6365 23.5779 36.9567 23.5779H38.7345H39.0878L39.0657 23.9334Z" fill="white"/>
<path d="M40.8622 24.711C40.3985 33.011 33.8286 39.6221 25.5804 40.0888L25.2271 40.111V39.7554V37.9666C25.2271 37.6443 24.9731 37.3888 24.6529 37.3888C24.3327 37.3888 24.0787 37.6443 24.0787 37.9666V39.7554V40.111L23.7254 40.0888C15.4772 39.6221 8.90735 33.011 8.44359 24.711L8.42151 24.3554H8.77485H10.5526C10.8728 24.3554 11.1267 24.0999 11.1267 23.7777C11.1267 23.4554 10.8728 23.1999 10.5526 23.1999H8.77485H8.42151L8.44359 22.8443C8.90735 14.5443 15.4772 7.93322 23.7254 7.46656L24.0787 7.44434V7.79989V9.58878C24.0787 9.911 24.3327 10.1666 24.6529 10.1666C24.9731 10.1666 25.2271 9.911 25.2271 9.58878V7.811V7.45545L25.5804 7.47767C33.8286 7.94434 40.3985 14.5554 40.8622 22.8554L40.8843 23.211H40.531H38.7532C38.433 23.211 38.1791 23.4666 38.1791 23.7888C38.1791 24.111 38.433 24.3666 38.7532 24.3666H40.531H40.8843L40.8622 24.711Z" fill="#A3EFE0"/>
<path d="M22.8565 0C10.2578 0 0 10.3222 0 23C0 35.6778 10.2578 46 22.8565 46C35.4551 46 45.7129 35.6778 45.7129 23C45.7129 10.3222 35.4551 0 22.8565 0ZM44.4542 23C44.4542 34.9889 34.7595 44.7333 22.8565 44.7333C10.9534 44.7333 1.25876 34.9889 1.25876 23C1.25876 11.0111 10.9424 1.26667 22.8565 1.26667C34.7705 1.26667 44.4542 11.0111 44.4542 23Z" fill="#464860"/>
<path d="M22.8565 5.45557C13.2391 5.45557 5.42151 13.3222 5.42151 23C5.42151 32.6778 13.2391 40.5445 22.8565 40.5445C32.4738 40.5445 40.2914 32.6778 40.2914 23C40.2914 13.3222 32.4738 5.45557 22.8565 5.45557ZM36.3274 23C36.3274 23.3445 36.6035 23.6333 36.9568 23.6333H39.0326L39.0216 23.9222C38.5578 32.2 32.0101 38.7889 23.784 39.2556L23.4969 39.2778V37.1889C23.4969 36.8445 23.2208 36.5556 22.8675 36.5556C22.5252 36.5556 22.2381 36.8333 22.2381 37.1889V39.2778L21.951 39.2556C13.7249 38.7889 7.17715 32.2 6.7134 23.9222L6.69131 23.6333H8.76716C9.10946 23.6333 9.39655 23.3556 9.39655 23C9.39655 22.6556 9.1205 22.3667 8.76716 22.3667H6.69131L6.7134 22.0778C7.17715 13.8 13.7249 7.21112 21.951 6.74446L22.2381 6.73334V8.82223C22.2381 9.16668 22.5142 9.45557 22.8675 9.45557C23.2098 9.45557 23.4969 9.17779 23.4969 8.82223V6.73334L23.784 6.74446C32.0101 7.21112 38.5578 13.8 39.0216 22.0778L39.0326 22.3667H36.9568C36.6035 22.3667 36.3274 22.6556 36.3274 23Z" fill="#464860"/>
<path d="M15.8118 10.0889C15.7014 10.0889 15.602 10.1111 15.5137 10.1666C15.3701 10.2444 15.2597 10.3778 15.2155 10.5444C15.1714 10.7111 15.1824 10.8778 15.2597 11.0222C15.3701 11.2222 15.5799 11.3555 15.8118 11.3555C15.9112 11.3555 16.0216 11.3333 16.1099 11.2778C16.2535 11.2 16.3639 11.0666 16.408 10.9C16.4522 10.7333 16.4412 10.5666 16.3639 10.4222C16.2535 10.2111 16.0437 10.0889 15.8118 10.0889Z" fill="#464860"/>
<path d="M10.9424 15.3556C10.8541 15.3001 10.7547 15.2778 10.6443 15.2778C10.4124 15.2778 10.2026 15.4001 10.0922 15.6112C10.0149 15.7556 9.99279 15.9334 10.048 16.0889C10.1032 16.2445 10.2026 16.3889 10.3461 16.4667C10.4345 16.5223 10.5449 16.5445 10.6443 16.5445C10.8761 16.5445 11.0859 16.4223 11.1963 16.2112C11.2736 16.0667 11.2957 15.8889 11.2405 15.7334C11.1963 15.5667 11.097 15.4334 10.9424 15.3556Z" fill="#464860"/>
<path d="M10.6443 29.4666C10.5339 29.4666 10.4345 29.4888 10.3462 29.5443C10.2026 29.6221 10.0922 29.7554 10.048 29.9221C10.0039 30.0888 10.0149 30.2554 10.0922 30.3999C10.2026 30.5999 10.4124 30.7332 10.6443 30.7332C10.7547 30.7332 10.8541 30.711 10.9424 30.6554C11.086 30.5777 11.1964 30.4443 11.2406 30.2777C11.2847 30.111 11.2737 29.9443 11.1964 29.7999C11.086 29.5888 10.8762 29.4666 10.6443 29.4666Z" fill="#464860"/>
<path d="M16.11 34.7333C16.0217 34.6777 15.9223 34.6555 15.8119 34.6555C15.58 34.6555 15.3702 34.7777 15.2598 34.9889C15.1825 35.1333 15.1604 35.3111 15.2156 35.4666C15.2598 35.6222 15.3702 35.7555 15.5137 35.8444C15.6021 35.8889 15.7014 35.9222 15.8119 35.9222C16.0437 35.9222 16.2535 35.8 16.3639 35.5889C16.4412 35.4444 16.4633 35.2666 16.4081 35.1111C16.3639 34.9444 16.2535 34.8111 16.11 34.7333Z" fill="#464860"/>
<path d="M29.9011 34.6555C29.7796 34.6555 29.6692 34.6889 29.5698 34.7444C29.4263 34.8333 29.3269 34.9666 29.2938 35.1333C29.2496 35.3 29.2827 35.4666 29.3711 35.6111C29.4815 35.8 29.6913 35.9111 29.9121 35.9111C30.0336 35.9111 30.144 35.8777 30.2434 35.8222C30.3869 35.7333 30.4863 35.5888 30.5194 35.4333C30.5636 35.2666 30.5304 35.1 30.4421 34.9555C30.3207 34.7666 30.1219 34.6555 29.9011 34.6555Z" fill="#464860"/>
<path d="M35.3668 29.5333C35.2785 29.4778 35.1791 29.4556 35.0687 29.4556C34.8368 29.4556 34.627 29.5778 34.5166 29.7889C34.4393 29.9333 34.4172 30.1111 34.4724 30.2667C34.5166 30.4333 34.627 30.5667 34.7816 30.6445C34.8699 30.7 34.9693 30.7222 35.0797 30.7222C35.3116 30.7222 35.5214 30.6 35.6318 30.3889C35.7091 30.2445 35.7312 30.0667 35.676 29.9111C35.6208 29.7556 35.5104 29.6111 35.3668 29.5333Z" fill="#464860"/>
<path d="M35.0686 15.2778C34.9693 15.2778 34.8699 15.3001 34.7705 15.3556C34.627 15.4334 34.5165 15.5667 34.4613 15.7334C34.4061 15.9001 34.4282 16.0667 34.5055 16.2112C34.6159 16.4112 34.8257 16.5445 35.0576 16.5445C35.157 16.5445 35.2563 16.5223 35.3557 16.4667C35.4993 16.3889 35.6097 16.2556 35.6649 16.0889C35.7091 15.9223 35.698 15.7556 35.6207 15.6112C35.5103 15.4001 35.3005 15.2778 35.0686 15.2778Z" fill="#464860"/>
<path d="M29.581 11.2555C29.6803 11.3222 29.7907 11.3444 29.9122 11.3444C30.133 11.3444 30.3318 11.2333 30.4532 11.0444C30.5416 10.9 30.5637 10.7333 30.5305 10.5666C30.4864 10.4 30.387 10.2666 30.2545 10.1778C30.1551 10.1111 30.0447 10.0889 29.9232 10.0889C29.7024 10.0889 29.5037 10.2 29.3822 10.3889C29.1945 10.6778 29.2828 11.0666 29.581 11.2555Z" fill="#464860"/>
<path d="M24.1815 24.0445L24.1042 23.9L24.1815 23.7667C24.314 23.5334 24.3913 23.2667 24.3913 23C24.3913 22.4556 24.0932 21.9445 23.6294 21.6667L23.4969 21.5889V12.4556C23.4969 12.1112 23.2208 11.8223 22.8675 11.8223C22.5142 11.8223 22.2381 12.1 22.2381 12.4556V21.5889L22.1056 21.6667C21.6308 21.9445 21.3438 22.4556 21.3438 23C21.3438 23.8445 22.0283 24.5445 22.8786 24.5445H23.0331L26.2132 30.0889C26.3236 30.2778 26.5334 30.4 26.7542 30.4C26.8646 30.4 26.9751 30.3667 27.0634 30.3112C27.2069 30.2223 27.3063 30.0889 27.3505 29.9334C27.3946 29.7667 27.3726 29.6 27.2842 29.4556L24.1815 24.0445Z" fill="#464860"/>
</svg>
