<svg width="49" height="50" viewBox="0 0 49 50" fill="none" xmlns="http://www.w3.org/2000/svg">
<path d="M18.3153 28.4553H17.8719H15.9191C15.7195 28.4553 15.5271 28.5399 15.3923 28.6886L8.76502 35.965L7.99437 36.8111V35.6649V29.1722C7.99437 28.7777 7.676 28.4571 7.28402 28.4553C7.24411 28.4562 7.2042 28.4562 7.1643 28.4562C5.65758 28.4562 4.23422 27.8728 3.15495 26.8139C2.07479 25.7531 1.462 24.3344 1.42918 22.8168C1.4283 22.7758 1.4283 22.7348 1.4283 22.6939V7.31194C1.41233 5.7587 1.99941 4.29273 3.08046 3.18213C4.16239 2.07152 5.61146 1.45076 7.15809 1.43384C7.17937 1.43384 7.19977 1.43384 7.22105 1.43384C7.24145 1.43384 7.26096 1.43384 7.28136 1.43384H31.4678H31.4705H31.4731C34.663 1.47213 37.234 4.11015 37.2038 7.31372V17.5986V18.0439H36.7604H24.1C20.8844 18.0787 18.2896 20.7336 18.3153 23.9639V28.01V28.4553Z" fill="white"/>
<path d="M43.156 40.4868C43.1374 40.4868 43.1188 40.4868 43.1001 40.4868C42.7073 40.4886 42.3889 40.8092 42.3889 41.2038V45.6319V46.7719L41.6191 45.9339L36.8312 40.7184C36.6964 40.5714 36.5048 40.4877 36.3053 40.4868H24.0972H24.0945H24.0919C22.9364 40.4717 21.8509 40.0112 21.0341 39.191C20.2173 38.3707 19.7588 37.2797 19.7438 36.1201V36.1174V36.1148V23.9711C19.7127 21.5326 21.6629 19.518 24.091 19.4797H24.0945H24.0981H43.1019C43.117 19.4797 43.1321 19.4797 43.1471 19.4797C44.3195 19.4797 45.4245 19.9357 46.259 20.764C47.0935 21.5932 47.5609 22.6993 47.5733 23.8776C47.5733 23.9088 47.5733 23.94 47.5733 23.9703V36.113V36.1165V36.1201C47.5547 37.2922 47.0864 38.3903 46.2546 39.2132C45.421 40.0344 44.3213 40.4868 43.156 40.4868Z" fill="white"/>
<path d="M19.7321 29.5053H19.2887H17.3368C17.1372 29.5053 16.9448 29.59 16.81 29.7387L10.1827 37.0151L9.41209 37.8611V36.7149V30.2223C9.41209 29.8277 9.09372 29.5071 8.70174 29.5053C8.66184 29.5062 8.62193 29.5062 8.58202 29.5062C7.0753 29.5062 5.65194 28.9229 4.57267 27.8639C3.49252 26.8041 2.87972 25.3844 2.84691 23.8677C2.84602 23.8267 2.84602 23.7858 2.84602 23.7448V8.36199C2.83006 6.80874 3.41714 5.34278 4.49818 4.23218C5.58011 3.12157 7.02919 2.50081 8.57581 2.48389C8.5971 2.48389 8.6175 2.48389 8.63878 2.48389C8.65918 2.48389 8.67869 2.48389 8.69908 2.48389H32.8855H32.8882H32.8909C36.0808 2.52218 38.6517 5.1602 38.6215 8.36377V18.6487V19.094H38.1781H25.5169C22.3012 19.1287 19.7064 21.7837 19.7321 25.0139V29.06V29.5053Z" fill="#CCB8F4"/>
<path d="M44.5725 41.5368C44.5539 41.5368 44.5353 41.5368 44.5167 41.5368C44.1238 41.5386 43.8054 41.8592 43.8054 42.2537V46.6819V47.8219L43.0357 46.9838L38.2477 41.7683C38.1129 41.6214 37.9213 41.5377 37.7218 41.5368H25.5137H25.5111H25.5084C24.3529 41.5216 23.2674 41.0612 22.4506 40.2409C21.6338 39.4207 21.1754 38.3297 21.1603 37.1701V37.1674V37.1647V25.0202C21.1292 22.5817 23.0794 20.5671 25.5075 20.5288H25.5111H25.5146H44.5184C44.5335 20.5288 44.5486 20.5288 44.5637 20.5288C45.7361 20.5288 46.841 20.9848 47.6755 21.8131C48.51 22.6423 48.9774 23.7484 48.9898 24.9267C48.9898 24.9579 48.9898 24.989 48.9898 25.0193V37.162V37.1656V37.1692C48.9712 38.3412 48.503 39.4394 47.6711 40.2623C46.8384 41.0843 45.7378 41.5368 44.5725 41.5368Z" fill="#A3EFE0"/>
<path d="M49 36.1094V23.9675C48.9965 20.7061 46.3502 18.0484 43.1026 18.044H39.0764H38.633V17.5987V7.31022C38.6454 5.37134 37.9067 3.54467 36.5534 2.1651C35.2001 0.785529 33.3927 0.016032 31.4647 8.0191e-07H7.28007H7.27741H7.27475C7.24815 8.0191e-07 7.22154 8.0191e-07 7.19494 8.0191e-07C5.29003 -0.00088982 3.49332 0.740107 2.13736 2.08673C0.779628 3.43424 0.0213906 5.23151 0.000106753 7.14813C0.000106753 7.20068 0.000106753 7.25322 0.000106753 7.30488V7.30755V7.31022V22.6957C-0.0194035 26.2858 2.63753 29.3442 6.18041 29.8127L6.56618 29.8634V30.2544V38.6592C6.56618 38.9576 6.74532 39.2203 7.02201 39.3281C7.1036 39.3592 7.19139 39.3762 7.28096 39.3762C7.47961 39.3762 7.67205 39.2916 7.80685 39.1428L16.1013 30.0353L16.2335 29.8902H16.4286H17.8715H18.3149V30.3355V36.1138C18.3184 39.312 20.9124 41.9171 24.097 41.9216H35.7987H35.9929L36.125 42.065L42.5767 49.0928C42.7133 49.2425 42.9004 49.3244 43.1026 49.3244C43.2817 49.3244 43.4538 49.2567 43.5859 49.1347C43.7322 48.9993 43.8165 48.807 43.8165 48.6075V42.2627V41.8886L44.1827 41.8236C46.9514 41.3346 48.9769 38.9317 49 36.1094ZM18.3149 28.4554H17.8715H15.9187C15.7191 28.4554 15.5267 28.54 15.3919 28.6887L8.76462 35.9651L7.99397 36.8112V35.6649V29.1723C7.99397 28.7778 7.6756 28.4571 7.28362 28.4554C7.24371 28.4563 7.20381 28.4563 7.1639 28.4563C5.65718 28.4563 4.23382 27.8729 3.15455 26.8139C2.0744 25.7532 1.4616 24.3345 1.42879 22.8168C1.4279 22.7759 1.4279 22.7349 1.4279 22.6939V7.312C1.41194 5.75876 1.99902 4.2928 3.08006 3.18219C4.16199 2.07159 5.61107 1.45082 7.15769 1.4339C7.17898 1.4339 7.19937 1.4339 7.22066 1.4339C7.24105 1.4339 7.26056 1.4339 7.28096 1.4339H31.4674H31.4701H31.4727C34.6627 1.4722 37.2336 4.11022 37.2034 7.31379V17.5987V18.044H36.76H24.0996C20.884 18.0787 18.2892 20.7337 18.3149 23.964V28.0101V28.4554ZM43.1558 40.4868C43.1372 40.4868 43.1186 40.4868 43.0999 40.4868C42.7071 40.4886 42.3887 40.8092 42.3887 41.2037V45.6319V46.7719L41.6189 45.9338L36.8309 40.7183C36.6961 40.5714 36.5046 40.4877 36.3051 40.4868H24.097H24.0943H24.0917C22.9361 40.4716 21.8507 40.0112 21.0339 39.1909C20.2171 38.3707 19.7586 37.2796 19.7436 36.1201V36.1174V36.1147V23.9711C19.7125 21.5326 21.6626 19.518 24.0908 19.4797H24.0943H24.0979H43.1017C43.1168 19.4797 43.1319 19.4797 43.1469 19.4797C44.3193 19.4797 45.4243 19.9357 46.2588 20.764C47.0933 21.5931 47.5607 22.6993 47.5731 23.8776C47.5731 23.9087 47.5731 23.9399 47.5731 23.9702V36.1129V36.1165V36.1201C47.5545 37.2921 47.0862 38.3902 46.2544 39.2132C45.4208 40.0343 44.3211 40.4868 43.1558 40.4868Z" fill="#464860"/>
<path d="M42.356 26.2928H24.9591C24.5964 26.2928 24.302 25.9971 24.302 25.6329C24.302 25.2686 24.5964 24.9729 24.9591 24.9729H42.356C42.7187 24.9729 43.0132 25.2686 43.0132 25.6329C43.0132 25.998 42.7187 26.2928 42.356 26.2928Z" fill="#464860"/>
<path d="M42.356 30.6168H24.9591C24.5964 30.6168 24.302 30.3211 24.302 29.9568C24.302 29.5926 24.5964 29.2969 24.9591 29.2969H42.356C42.7187 29.2969 43.0132 29.5926 43.0132 29.9568C43.0132 30.322 42.7187 30.6168 42.356 30.6168Z" fill="#464860"/>
<path d="M42.356 34.9417H24.9591C24.5964 34.9417 24.302 34.646 24.302 34.2818C24.302 33.9175 24.5964 33.6218 24.9591 33.6218H42.356C42.7187 33.6218 43.0132 33.9175 43.0132 34.2818C43.0132 34.646 42.7187 34.9417 42.356 34.9417Z" fill="#464860"/>
</svg>
