<svg width="59" height="48" viewBox="0 0 59 48" fill="none" xmlns="http://www.w3.org/2000/svg">
<path d="M7.95955 34.7907H7.69124C7.60181 34.7907 7.50119 34.7907 7.41176 34.7795C6.94222 34.746 6.53975 34.4553 6.38324 34.0305C6.2379 33.6504 6.33852 33.2479 6.64037 32.9349C6.96457 32.6107 7.51237 32.5771 7.90365 32.5771C8.13842 32.5771 8.37319 32.5883 8.5856 32.6107C8.7533 32.6219 8.89863 32.633 9.02161 32.633H18.9267H23.5438C23.6332 32.633 23.7227 32.633 23.8121 32.633C23.9016 32.633 24.0022 32.633 24.0916 32.633C24.1922 32.633 24.2928 32.633 24.3823 32.6442C25.0642 32.6889 25.422 33.2367 25.422 33.7398C25.422 34.2205 25.0978 34.746 24.3823 34.7795H8.21668L7.95955 34.7907Z" fill="white"/>
<path d="M30.5087 6.59595V9.60324C30.4976 9.70386 30.4976 9.77094 30.5087 9.83801V12.2751C30.4976 12.3758 30.4976 12.4317 30.5087 12.4987V12.5211V12.5882V31.448V44.3828C30.4864 45.4448 29.9498 46.082 29.0666 46.1044H15.7071H6.65164H3.7226C3.62199 46.1044 3.51019 46.1044 3.38722 46.1156C3.25306 46.1156 3.11891 46.1268 2.98475 46.1268C2.68291 46.1268 2.44814 46.0932 2.24691 46.0373C1.11777 45.646 1.20721 44.0921 1.26311 43.0524C1.27429 42.8512 1.28547 42.6611 1.28547 42.4934V35.5509V16.4339V8.7536C1.28547 8.39585 1.28547 8.02693 1.27429 7.66918C1.26311 6.94252 1.25193 6.19349 1.28547 5.45564C1.31901 4.56128 1.9786 4.02466 3.04065 4.02466H5.2542H13.6612C15.3493 4.02466 17.0374 4.02466 18.7367 4.02466C20.4248 4.02466 22.1129 4.02466 23.801 4.02466C25.4891 4.02466 27.1772 4.02466 28.8765 4.03584C29.8492 4.03584 30.4752 4.59481 30.5199 5.50036C30.5311 5.74631 30.5311 6.00343 30.5199 6.24938L30.5087 6.59595Z" fill="white"/>
<path d="M31.9174 12.018C31.9286 11.3808 31.9286 10.7435 31.9286 10.1063V10.0169L31.9957 9.94978L33.5273 8.41818C34.7906 7.1549 36.065 5.88043 37.3283 4.61714L38.6922 3.25324L40.0561 1.88934C40.3692 1.57631 40.7269 1.28564 41.2188 1.28564C41.3418 1.28564 41.4759 1.308 41.5989 1.34154C41.9119 1.43098 42.1243 1.64339 42.3144 1.84462L42.3703 1.90052L49.7711 9.30136L54.7125 14.2427L54.8131 14.3433C55.4615 14.9806 56.3447 15.8637 55.3162 16.9146C54.623 17.6189 53.9187 18.3232 53.2144 19.0276L52.4319 19.8101L52.3648 19.8772H52.2753H46.8086H39.7319H39.6425L39.5754 19.8101L32.6888 12.9235L32.3311 12.5658L31.9733 12.208L31.9062 12.141L31.9174 12.018Z" fill="white"/>
<path d="M31.884 19.6311V16.9927C31.884 16.1878 31.8952 15.3829 31.8952 14.5891V14.0525L32.2753 14.4326L35.6403 17.7976L37.3172 19.4746L37.6973 19.8547H37.1607H32.2194H32.0964H31.8728V19.6311H31.884Z" fill="white"/>
<path d="M37.7195 21.4646V28.2058V40.5256V42.4373V42.6609H37.4959H32.1856H32.1074H31.8838V42.4373V36.5793V21.4646V21.241H32.1074H37.4959H37.7195V21.4646Z" fill="white"/>
<path d="M56.8029 41.3418C56.7358 42.6721 55.5284 42.6721 54.8018 42.6721H54.7235H54.6453H46.2271H39.3293H39.1057V42.4485V35.6849V23.3539V21.4646V21.241H39.3293H43.8011H53.2031C53.449 21.241 53.695 21.241 53.9409 21.241C54.1869 21.241 54.4328 21.241 54.6788 21.241C54.9247 21.241 55.1819 21.241 55.4278 21.2521C56.3334 21.2857 56.7917 21.9006 56.7917 23.0632V39.6872C56.7917 39.8661 56.7917 40.0449 56.7917 40.2238C56.8029 40.5927 56.8141 40.9617 56.8029 41.3418Z" fill="white"/>
<path d="M31.6713 7.81451V10.8218C31.6602 10.9224 31.6602 10.9895 31.6713 11.0566V13.4937C31.6602 13.5943 31.6602 13.6502 31.6713 13.7173V13.7397V13.8067V32.6666V45.6013C31.649 46.6634 31.1124 47.3006 30.2292 47.323H16.8697H7.81424H4.8852C4.78459 47.323 4.67279 47.323 4.54982 47.3341C4.41566 47.3341 4.28151 47.3453 4.14735 47.3453C3.84551 47.3453 3.61073 47.3118 3.4095 47.2559C2.28037 46.8646 2.36981 45.3106 2.42571 44.2709C2.43688 44.0697 2.44806 43.8797 2.44806 43.712V36.7583V17.6413V9.97216C2.44806 9.61441 2.44806 9.24549 2.43688 8.88774C2.42571 8.16107 2.41453 7.41204 2.44806 6.68537C2.4816 5.79101 3.14119 5.25439 4.20325 5.25439H6.4168H14.8238C16.5119 5.25439 18.2 5.25439 19.8993 5.25439C21.5874 5.25439 23.2755 5.25439 24.9636 5.25439C26.6517 5.25439 28.3398 5.25439 30.0391 5.26557C31.0118 5.26557 31.6378 5.82455 31.6825 6.73009C31.6937 6.97604 31.6937 7.23317 31.6825 7.47912L31.6713 7.81451Z" fill="#CCB8F4"/>
<path d="M33.9296 12.1298C33.9408 11.4925 33.9408 10.8553 33.9408 10.2181V10.1286L34.0079 10.0615L35.5395 8.52995C36.8028 7.26666 38.0772 5.9922 39.3405 4.72891L40.7044 3.35383L42.0683 1.98992C42.3814 1.6769 42.7391 1.38623 43.231 1.38623C43.354 1.38623 43.4881 1.40859 43.6111 1.44213C43.9241 1.53156 44.1365 1.74398 44.3266 1.94521L44.3825 2.0011L51.7833 9.40195L56.7247 14.3433L56.8253 14.4439C57.4737 15.0812 58.3569 15.9643 57.3284 17.0152C56.6353 17.7195 55.9309 18.4238 55.2266 19.1281L54.4441 19.9107L54.377 19.9778H54.2876H48.8208H41.7441H41.6547L41.5876 19.9107L34.701 13.0241L34.3433 12.6664L33.9855 12.3086L33.9185 12.2416L33.9296 12.1298Z" fill="#A3EFE0"/>
<path d="M31.884 19.6311V16.9927C31.884 16.1878 31.8952 15.3829 31.8952 14.5891V14.0525L32.2753 14.4326L35.6403 17.7976L37.3172 19.4746L37.6973 19.8547H37.1607H32.2194H32.0964H31.8728V19.6311H31.884Z" fill="white"/>
<path d="M37.7195 21.4646V28.2058V40.5256V42.4373V42.6609H37.4959H32.1856H32.1074H31.8838V42.4373V36.5793V21.4646V21.241H32.1074H37.4959H37.7195V21.4646Z" fill="white"/>
<path d="M58.0776 42.4263C58.0105 43.7566 56.8031 43.7566 56.0764 43.7566H55.9982H55.9199H47.5017H40.604H40.3804V43.5331V36.7694V24.4496V22.5603V22.3367H40.604H45.0758H54.4778C54.7237 22.3367 54.9697 22.3367 55.2156 22.3367C55.4616 22.3367 55.7075 22.3367 55.9535 22.3367C56.1994 22.3367 56.4565 22.3367 56.7025 22.3478C57.608 22.3814 58.0664 22.9963 58.0664 24.1589V40.7941C58.0664 40.9729 58.0664 41.1518 58.0664 41.3307C58.0887 41.6884 58.0887 42.0574 58.0776 42.4263Z" fill="#A3EFE0"/>
<path d="M7.95955 34.7907H7.69124C7.60181 34.7907 7.50119 34.7907 7.41176 34.7795C6.94222 34.746 6.53975 34.4553 6.38324 34.0305C6.2379 33.6504 6.33852 33.2479 6.64037 32.9349C6.96457 32.6107 7.51237 32.5771 7.90365 32.5771C8.13842 32.5771 8.37319 32.5883 8.5856 32.6107C8.7533 32.6219 8.89863 32.633 9.02161 32.633H18.9267H23.5438C23.6332 32.633 23.7227 32.633 23.8121 32.633C23.9016 32.633 24.0022 32.633 24.0916 32.633C24.1922 32.633 24.2928 32.633 24.3823 32.6442C25.0642 32.6889 25.422 33.2367 25.422 33.7398C25.422 34.2205 25.0978 34.746 24.3823 34.7795H8.21668L7.95955 34.7907Z" fill="white"/>
<path d="M8.03828 16.8252L8.07182 16.5792C8.20597 15.4501 8.56372 14.3992 9.13387 13.449C9.54752 12.767 10.073 12.1409 10.6878 11.6043L11.5375 10.8665L11.9623 10.4976L11.7163 11.0006L11.2133 12.0068C10.5313 13.3819 10.1065 14.9805 9.9947 16.6351L9.98352 16.8475L9.97234 16.9481H9.86054H9.64813H9.53634H8.39602H8.15007H8.0271L8.03828 16.8252Z" fill="white"/>
<path d="M11.571 24.2037L10.6878 23.4435C10.3748 23.164 10.073 22.8621 9.80464 22.5491C8.85439 21.4088 8.25069 20.0114 8.07182 18.4909L8.03828 18.245L8.0271 18.1108H8.15007H8.4072H9.65931H9.87172H9.97234L9.98352 18.2115L9.9947 18.4239C10.0841 19.743 10.3636 20.9952 10.8108 22.1466C10.9226 22.4485 11.0679 22.7392 11.2133 23.041L11.7499 24.0807L12.007 24.595L11.571 24.2037Z" fill="white"/>
<path d="M15.2936 18.2226V18.4462V23.8683V24.8745V25.2098V25.3775L15.137 25.3105L14.8352 25.1875C13.829 24.785 12.8564 23.7677 12.2192 22.482C11.6267 21.3082 11.2577 19.9219 11.1571 18.4686L11.1348 18.2338V18.1108H11.2577H11.4925H14.9582H15.1818H15.2936V18.2226Z" fill="white"/>
<path d="M15.2936 9.82692V10.1511V16.6129V16.8365V16.9483H15.1818H14.9582H11.4925H11.2466H11.1348L11.1459 16.8253L11.1683 16.5794C11.2577 15.5061 11.4813 14.4664 11.8279 13.4938C12.331 12.0964 13.3819 10.3971 14.8464 9.8381L15.1482 9.72631L15.3047 9.67041V9.82692H15.2936Z" fill="white"/>
<path d="M23.723 18.2338L23.6895 18.4909C23.4435 20.3915 22.538 22.1243 21.1405 23.3988L20.3021 24.159L19.8884 24.5391L20.1344 24.0248L20.6151 23.0075C21.2188 21.7106 21.6213 20.0896 21.7442 18.4239L21.7554 18.2115L21.7666 18.1108H21.8672H22.0796H22.2361H23.3653H23.6224H23.7454L23.723 18.2338Z" fill="white"/>
<path d="M20.3245 10.9448L21.163 11.7161C22.5493 12.9906 23.4436 14.7123 23.6896 16.5792L23.7231 16.8364L23.7343 16.9593H23.6113H23.3654H22.0797H21.8673H21.7667L21.7555 16.8587L21.7443 16.6463C21.6661 15.4725 21.4089 13.7396 20.6487 12.1074L20.1568 11.0677L19.9109 10.5535L20.3245 10.9448Z" fill="white"/>
<path d="M16.4563 16.8365V16.6129V11.1796V10.1511V9.82692V9.67041L16.6016 9.72631L16.9035 9.8381C17.8873 10.1958 18.7481 11.0679 19.4636 12.4094C20.0785 13.5944 20.4586 15.003 20.5704 16.5905L20.5927 16.8253L20.6039 16.9483H20.4809H20.2462H16.8029H16.5793H16.4675V16.8365H16.4563Z" fill="white"/>
<path d="M16.9147 25.2098L16.6128 25.3216L16.4563 25.3775V25.221V24.8968V18.4462V18.2226V18.1108H16.5681H16.7917H20.235H20.4809H20.6039L20.5927 18.2338L20.5704 18.4686C20.4362 20.2908 19.8549 23.5441 17.4289 24.9639C17.2612 25.0645 17.0935 25.1428 16.9147 25.2098Z" fill="white"/>
<path d="M8.6081 17.4065L8.64164 17.1605C8.7758 16.0314 9.13354 14.9805 9.7037 14.0303C10.1173 13.3483 10.6428 12.7222 11.2577 12.1856L12.1073 11.4478L12.5321 11.0789L12.2862 11.5819L11.7831 12.5881C11.1011 13.9632 10.6763 15.5618 10.5645 17.2164L10.5533 17.4288L10.5422 17.5294H10.4304H10.2291H10.1173H8.97703H8.7199H8.59692L8.6081 17.4065Z" fill="#A3EFE0"/>
<path d="M12.1521 24.7963L11.2689 24.0361C10.9559 23.7566 10.654 23.4547 10.3857 23.1417C9.43544 22.0014 8.83174 20.6039 8.65287 19.0835L8.61933 18.8376L8.60815 18.7146H8.71995H8.97708H10.2292H10.4416H10.5422L10.5534 18.8152L10.5646 19.0053C10.654 20.3245 10.9335 21.5766 11.3807 22.728C11.4925 23.0299 11.6378 23.3206 11.7831 23.6224L12.3198 24.6621L12.5881 25.1764L12.1521 24.7963Z" fill="#A3EFE0"/>
<path d="M15.8748 18.8039V19.0275V24.4496V25.4558V25.7911V25.9588L15.7183 25.8918L15.4164 25.7688C14.4103 25.3663 13.4377 24.349 12.8004 23.0633C12.2079 21.8895 11.839 20.5032 11.7384 19.0499L11.716 18.8151L11.7048 18.6921H11.8278H12.0626H15.5282H15.7518H15.8636V18.8039H15.8748Z" fill="#A3EFE0"/>
<path d="M15.8748 10.4082V10.7324V17.1942V17.4178V17.5296H15.763H15.5394H12.0738H11.8278H11.7048L11.716 17.4066L11.7384 17.1607C11.8278 16.0874 12.0514 15.0477 12.398 14.0751C12.901 12.6777 13.9519 10.9784 15.4164 10.4194L15.7183 10.3076L15.8748 10.2517V10.4082Z" fill="#A3EFE0"/>
<path d="M24.3043 18.8263L24.2708 19.0835C24.0248 20.984 23.1193 22.7168 21.7218 23.9913L20.8834 24.7515L20.4697 25.1316L20.7157 24.6173L21.1964 23.6C21.8001 22.3032 22.2026 20.6821 22.3255 19.0164L22.3367 18.804L22.3479 18.7034H22.4485H22.6609H22.8174H23.9466H24.2037H24.3267L24.3043 18.8263Z" fill="#A3EFE0"/>
<path d="M20.9055 11.5261L21.744 12.2975C23.1303 13.572 24.0246 15.2936 24.2706 17.1606L24.3041 17.4177L24.3153 17.5407H24.1923H23.9352H22.6495H22.4371H22.3365L22.3253 17.4401L22.3142 17.2277C22.2359 16.0538 21.9788 14.321 21.2186 12.6888L20.7267 11.6603L20.4807 11.146L20.9055 11.5261Z" fill="#A3EFE0"/>
<path d="M17.0376 17.4178V17.1942V11.7609V10.7324V10.4194V10.2517L17.1829 10.3076L17.4848 10.4194C18.4686 10.7771 19.3294 11.6491 20.0449 12.9907C20.6598 14.1757 21.0399 15.5843 21.1517 17.1718L21.174 17.4066L21.1852 17.5296H21.0622H20.8275H17.3842H17.1606H17.0488V17.4178H17.0376Z" fill="#A3EFE0"/>
<path d="M17.4847 25.7911L17.1829 25.9029L17.0264 25.9588V25.8023V25.4781V19.0275V18.8039V18.6921H17.1382H17.3618H20.805H21.051H21.174L21.1628 18.8151L21.1404 19.0499C21.0063 20.8721 20.4249 24.1254 17.999 25.5452C17.8425 25.6458 17.6748 25.7241 17.4847 25.7911Z" fill="#A3EFE0"/>
<path d="M24.9303 17.5296C24.8967 13.7509 22.482 10.3188 18.9269 9.01079C17.9766 8.66422 16.9705 8.48535 15.9308 8.48535C13.2141 8.48535 10.587 9.70392 8.9212 11.7498C6.49524 14.7347 6.17104 18.9159 8.12746 22.1803C9.62551 24.6621 12.2639 26.2832 15.1817 26.5291C15.4165 26.5738 15.6401 26.585 15.8525 26.585C16.0314 26.585 16.2214 26.5738 16.4003 26.5403C16.8475 26.5179 17.2499 26.462 17.6412 26.395C21.8336 25.6012 24.8856 21.8784 24.9303 17.5296ZM8.03802 16.8253L8.07156 16.5793C8.20571 15.4502 8.56346 14.3993 9.13361 13.4491C9.54726 12.7671 10.0727 12.1411 10.6876 11.6044L11.5372 10.8666L11.962 10.4977L11.7161 11.0007L11.213 12.0069C10.5311 13.382 10.1062 14.9807 9.99444 16.6352L9.98326 16.8476L9.97208 16.9483H9.86028H9.64787H9.53608H8.39576H8.14981H8.02684L8.03802 16.8253ZM11.5708 24.2038L10.6876 23.4436C10.3745 23.1641 10.0727 22.8622 9.80439 22.5492C8.85413 21.4089 8.25043 20.0114 8.07156 18.491L8.03802 18.2451L8.02684 18.1109H8.14981H8.40694H9.65905H9.87146H9.97208L9.98326 18.2115L9.99444 18.424C10.0839 19.7431 10.3634 20.9952 10.8105 22.1467C10.9223 22.4486 11.0677 22.7392 11.213 23.0411L11.7496 24.0808L12.0068 24.5951L11.5708 24.2038ZM15.2935 18.2227V18.4463V23.8684V24.8745V25.2099V25.3776L15.137 25.3105L14.8352 25.1876C13.829 24.7851 12.8564 23.7678 12.2192 22.4821C11.6266 21.3083 11.2577 19.922 11.1571 18.4687L11.1347 18.2339V18.1109H11.2577H11.4925H14.9581H15.1817H15.2935V18.2227ZM15.2935 9.82689V10.1511V16.6129V16.8365V16.9483H15.1817H14.9581H11.4925H11.2465H11.1347L11.1459 16.8253L11.1683 16.5793C11.2577 15.5061 11.4813 14.4664 11.8279 13.4938C12.331 12.0963 13.3818 10.3971 14.8464 9.83807L15.1482 9.72628L15.3047 9.67038V9.82689H15.2935ZM23.7229 18.2339L23.6894 18.491C23.4434 20.3915 22.5379 22.1244 21.1404 23.3988L20.302 24.159L19.8883 24.5392L20.1343 24.0249L20.615 23.0076C21.2187 21.7107 21.6211 20.0897 21.7441 18.424L21.7553 18.2115L21.7665 18.1109H21.8671H22.0795H22.236H23.3652H23.6223H23.7453L23.7229 18.2339ZM20.3243 10.9448L21.1628 11.7162C22.549 12.9907 23.4434 14.7123 23.6894 16.5793L23.7229 16.8365L23.7341 16.9594H23.6111H23.3652H22.0795H21.8671H21.7665L21.7553 16.8588L21.7441 16.6464C21.6659 15.4726 21.4087 13.7397 20.6485 12.1075L20.1566 11.0678L19.9107 10.5536L20.3243 10.9448ZM16.4562 16.8365V16.6129V11.1796V10.1511V9.82689V9.67038L16.6015 9.72628L16.9034 9.83807C17.8872 10.1958 18.748 11.0678 19.4635 12.4094C20.0784 13.5944 20.4585 15.003 20.5703 16.5905L20.5926 16.8253L20.6038 16.9483H20.4808H20.2461H16.8028H16.5792H16.4674V16.8365H16.4562ZM16.9146 25.2099L16.6127 25.3217L16.4562 25.3776V25.2211V24.8969V18.4463V18.2227V18.1109H16.568H16.7916H20.2349H20.4808H20.6038L20.5926 18.2339L20.5703 18.4687C20.4361 20.2909 19.8548 23.5442 17.4288 24.964C17.2611 25.0646 17.0934 25.1428 16.9146 25.2099Z" fill="#464860"/>
<path d="M26.7191 33.5722C26.6296 32.3424 25.6346 31.4145 24.349 31.3698C24.0583 31.3586 23.7565 31.3586 23.4546 31.3586C23.164 31.3586 22.8621 31.3586 22.5715 31.3698C22.2472 31.3698 21.9454 31.381 21.6436 31.381H10.3969C10.0616 31.381 9.73736 31.381 9.40197 31.3698C9.06658 31.3698 8.74238 31.3586 8.41817 31.3586C8.09397 31.3586 7.76976 31.3586 7.44555 31.3698C6.33878 31.4034 5.41088 32.0853 5.14257 33.0691C4.97488 33.684 5.06431 34.3659 5.41088 34.9249C5.74627 35.4839 6.2717 35.8752 6.89776 36.0093C7.1996 36.0764 7.54617 36.1099 7.98217 36.1099C8.25048 36.1099 8.52997 36.0988 8.79828 36.0876C9.06658 36.0764 9.33489 36.0652 9.6032 36.0652H14.9917H24.2931H24.4049C24.4384 36.0652 24.472 36.0652 24.4943 36.054C25.6682 35.9311 26.8309 34.9808 26.7191 33.5722ZM24.4049 34.8914H8.2393H7.97099H7.70268C7.61325 34.8914 7.51263 34.8914 7.42319 34.8802C6.90894 34.8467 6.47293 34.5224 6.29406 34.0641C6.12637 33.6504 6.22698 33.2033 6.56237 32.8679C6.92012 32.5101 7.50145 32.4766 7.90391 32.4766C8.13868 32.4766 8.38463 32.4878 8.59704 32.5101C8.76474 32.5213 8.91007 32.5325 9.02187 32.5325H18.9269H23.5441C23.6335 32.5325 23.7118 32.5325 23.8012 32.5325C23.9018 32.5325 23.9913 32.5213 24.0919 32.5213C24.1925 32.5213 24.2931 32.5213 24.3937 32.5325C25.1427 32.5884 25.534 33.1809 25.534 33.7399C25.534 34.2653 25.1763 34.8467 24.4049 34.8914Z" fill="#464860"/>
<path d="M24.3491 38.7817H9.53622H7.42328C7.00964 38.7817 6.87549 39.0948 6.87549 39.3631C6.87549 39.6314 7.02082 39.9444 7.42328 39.9444H22.2362H24.3491C24.7627 39.9444 24.9081 39.6314 24.9081 39.3631C24.9081 39.0948 24.7516 38.7817 24.3491 38.7817Z" fill="#464860"/>
<path d="M20.9839 42.594H10.7658C10.3634 42.594 10.218 42.907 10.218 43.1753C10.218 43.4436 10.3634 43.7567 10.7658 43.7567H20.9839C21.3975 43.7567 21.5429 43.4436 21.5429 43.1753C21.5429 42.907 21.3975 42.594 20.9839 42.594Z" fill="#464860"/>
<path d="M51.5489 24.4719H41.7109C41.2972 24.4719 41.1631 24.785 41.1631 25.0533C41.1631 25.3216 41.3084 25.6346 41.7109 25.6346H51.5489C51.9625 25.6346 52.1078 25.3216 52.1078 25.0533C52.1078 24.785 51.9625 24.4719 51.5489 24.4719Z" fill="#464860"/>
<path d="M54.7686 30.9001H43.3431H41.7221C41.3084 30.9001 41.1631 31.2132 41.1631 31.4815C41.1631 31.7498 41.3084 32.0628 41.7221 32.0628H53.1475H54.7686C55.1822 32.0628 55.3275 31.7498 55.3275 31.4815C55.3275 31.2132 55.171 30.9001 54.7686 30.9001Z" fill="#464860"/>
<path d="M51.5489 37.3171H41.7109C41.2972 37.3171 41.1631 37.6302 41.1631 37.8985C41.1631 38.1668 41.3084 38.4798 41.7109 38.4798H51.5489C51.9625 38.4798 52.1078 38.1668 52.1078 37.8985C52.1078 37.6302 51.9625 37.3171 51.5489 37.3171Z" fill="#464860"/>
<path d="M49.5365 13.4937C49.4359 13.259 49.1899 13.0801 48.9552 13.0801C48.821 13.0801 48.698 13.136 48.5862 13.2478L43.902 17.932C43.6896 18.1444 43.712 18.368 43.779 18.5133C43.8797 18.7481 44.1256 18.927 44.3492 18.927C44.4834 18.927 44.6063 18.8711 44.7181 18.7593L49.4023 14.0751C49.6259 13.8515 49.5924 13.6391 49.5365 13.4937Z" fill="#464860"/>
<path d="M37.3731 10.8554L36.1769 9.65915C36.0651 9.54735 35.9421 9.49146 35.808 9.49146C35.5732 9.49146 35.3273 9.67033 35.2266 9.9051C35.1707 10.0504 35.1372 10.2628 35.3496 10.4753L38.9382 14.0639C39.05 14.1757 39.173 14.2316 39.3072 14.2316C39.5419 14.2316 39.7879 14.0527 39.8885 13.8179C39.9444 13.6726 39.9779 13.4602 39.7655 13.2478L37.3731 10.8554Z" fill="#464860"/>
<path d="M58.0665 40.9618V24.0472C58.0665 23.8795 58.0665 23.7118 58.0776 23.5329C58.0888 23.0298 58.1 22.5156 58.0106 22.046C57.8093 20.9504 56.8367 20.0784 55.6852 19.9778C55.5734 19.9666 55.4728 19.9666 55.3722 19.9666H55.2045H55.0256H54.8691H54.3325H54.0642L54.2542 19.7766L54.6343 19.3965L55.1262 18.9046L56.11 17.9208C57.3286 16.7022 57.3621 15.0812 56.1771 13.885C54.8579 12.5546 53.5164 11.2131 52.2196 9.92742C51.56 9.26783 50.9004 8.60824 50.2408 7.94864L43.5443 1.25211L43.0524 0.760208C42.5381 0.268309 41.8673 0 41.1854 0C40.7829 0 40.4028 0.0894362 40.0339 0.268309C39.3855 0.581335 38.7818 1.25211 38.2452 1.83344C38.0551 2.04585 37.8539 2.25826 37.6638 2.44832L34.1423 5.96987L32.3871 7.72505L32.007 8.10516L31.8169 8.29521V8.0269L31.8058 7.50146C31.7946 6.70772 31.7834 6.07048 31.7722 5.47797C31.7163 3.93519 30.5425 2.79488 28.9773 2.75016C28.7873 2.75016 28.5972 2.75016 28.4072 2.75016H27.8258H27.2445H19.0387H2.99611C1.88934 2.75016 0.547797 3.25324 0.111795 4.66186C0 5.05315 0 5.47797 0 5.92515V6.10402V11.6267V30.7884V44.3604C0 45.4671 0.368924 46.3056 1.10677 46.8534C1.75519 47.3341 2.48185 47.3788 3.37622 47.3788H10.3075H27.9041H28.8544C28.9438 47.39 28.9773 47.39 29.022 47.39C30.5984 47.3229 31.7499 46.1379 31.7722 44.5728V44.2709V44.0473V43.9355H31.884H32.1076H44.3045H53.7735C53.9636 43.9355 54.1648 43.9355 54.3549 43.9467C54.5561 43.9467 54.7461 43.9579 54.925 43.9579C55.2492 43.9579 55.5175 43.9467 55.7523 43.9244C57.4628 43.7119 58.0665 42.1915 58.0665 40.9618ZM30.6207 6.59592V9.60321C30.6095 9.70383 30.6095 9.77091 30.6207 9.8268V12.2751C30.6095 12.3869 30.6095 12.4316 30.6207 12.4764V12.4875V12.5099V12.577V31.4368V44.3827C30.5984 45.5119 30.0282 46.1938 29.0779 46.2162H15.7184H6.663H3.72278C3.62217 46.2162 3.51037 46.2162 3.39858 46.2273C3.26442 46.2273 3.13027 46.2385 2.99611 46.2385C2.68309 46.2385 2.43714 46.205 2.22473 46.1379C1.01734 45.7131 1.10677 44.1032 1.16267 43.0412C1.17385 42.8288 1.18503 42.6499 1.18503 42.4934V35.5509V16.4339V8.75357C1.18503 8.39582 1.18503 8.03808 1.17385 7.66916C1.15149 6.94249 1.14031 6.19346 1.17385 5.45561C1.21857 4.49417 1.9117 3.91283 3.04083 3.91283H5.25438H13.6614C15.316 3.91283 16.9593 3.91283 18.6139 3.91283H18.7369C20.425 3.91283 22.1131 3.91283 23.8012 3.91283C25.4893 3.91283 27.1774 3.91283 28.8767 3.92401C29.9164 3.92401 30.5872 4.52771 30.6319 5.48915C30.6431 5.74628 30.6431 5.99223 30.6319 6.23818L30.6207 6.59592ZM31.8058 12.1074V12.018C31.8169 11.3808 31.8169 10.7435 31.8169 10.1063V10.0169V9.97214L31.8505 9.9386L31.9175 9.87152L33.4491 8.33993L33.4715 8.31757C34.7348 7.05428 35.9981 5.80217 37.2502 4.52771L38.6141 3.16381L39.978 1.7999C40.3134 1.46452 40.6823 1.16267 41.2189 1.16267C41.3531 1.16267 41.4984 1.18503 41.6326 1.22975C41.9791 1.33036 42.2027 1.55395 42.4039 1.75519L42.4598 1.81108L49.8607 9.21193L54.802 14.1533L54.9027 14.2539C55.5399 14.8911 56.5125 15.8526 55.4057 16.9929C54.7126 17.6972 53.9971 18.4127 53.304 19.0946L52.5214 19.8772L52.4543 19.9443L52.4208 19.9778H52.3761H52.2866H46.8199H39.7432H39.6538H39.6091L39.5755 19.9443L39.5084 19.8772L32.6219 12.9906L32.2641 12.6329L31.9064 12.2751L31.8393 12.208L31.8058 12.1745V12.1074ZM37.8315 21.2411V21.4647V28.2059V40.5258V42.4487V42.6722V42.784H37.7197H37.4961H32.197H32.1076H31.884H31.7722V42.6722V42.4487V36.5794V21.4647V21.2411V21.1293H31.884H32.1076H37.4961H37.7197H37.8315V21.2411ZM37.6974 19.9666H37.1607H32.2194H32.0964H31.8728H31.761V19.8548V19.6312V16.9929C31.761 16.188 31.7722 15.383 31.7722 14.5893V14.0527V13.7844L31.9623 13.9744L32.3424 14.3545L35.7074 17.7195L37.3843 19.3965L37.7644 19.7766L37.9545 19.9666H37.6974ZM56.9038 41.3419C56.8255 42.7729 55.5063 42.7729 54.7909 42.7729H54.7126H54.6343H46.2162H39.3184H39.0948H38.983V42.6611V42.4375V35.6739V23.354V21.4647V21.2411V21.1293H39.0948H39.3184H43.7902H53.1922C53.4381 21.1293 53.6841 21.1293 53.93 21.1293C54.176 21.1293 54.4219 21.1293 54.6679 21.1293C54.9138 21.1293 55.171 21.1293 55.4169 21.1405C56.0877 21.1628 56.8926 21.5206 56.8926 23.0634V39.6873C56.8926 39.855 56.8926 40.0339 56.8926 40.2016C56.915 40.5929 56.9261 40.9618 56.9038 41.3419Z" fill="#464860"/>
</svg>
