<svg width="57" height="47" viewBox="0 0 57 47" fill="none" xmlns="http://www.w3.org/2000/svg">
<path d="M44.4665 45.1519C36.4969 39.5968 28.1678 34.6336 19.5265 30.1975C20.652 30.4033 21.7812 30.609 22.9068 30.8039C30.0413 32.0384 37.2376 32.9047 44.3176 34.4315C44.5827 34.4893 44.8513 34.3557 44.9276 34.0886C45.9007 30.5946 45.5303 26.9489 46.0241 23.3863C46.0713 23.0506 46.1258 22.7186 46.1839 22.3865C49.3209 24.2923 52.614 26.0285 55.4097 28.4144C50.8785 33.3884 47.7378 39.3297 44.4665 45.1519Z" fill="white"/>
<path d="M14.0584 2.44019C16.6145 4.62035 19.5736 6.2302 22.4964 7.87976C18.9782 7.41413 15.4055 7.11093 11.8872 6.59838C12.715 5.25563 13.5247 3.92371 14.0584 2.44019Z" fill="white"/>
<path d="M46.0567 47C38.0871 41.445 29.758 36.4818 21.1167 32.0493C22.2422 32.2551 23.3714 32.4608 24.497 32.6557C31.6315 33.8902 38.8278 34.7565 45.9078 36.2833C46.1729 36.3411 46.4416 36.2075 46.5178 35.9404C47.4909 32.4464 47.1205 28.8007 47.6143 25.2381C47.6615 24.9024 47.716 24.5704 47.7741 24.2383C50.9111 26.1441 54.2042 27.8803 56.9999 30.2662C52.4687 35.2402 49.3281 41.1779 46.0567 47Z" fill="#A3EFE0"/>
<path d="M15.2385 2.44019C17.7946 4.62035 20.7537 6.2302 23.6765 7.87976C20.1582 7.41413 16.5855 7.11093 13.0673 6.59838C13.8951 5.25563 14.7048 3.92371 15.2385 2.44019Z" fill="#A3EFE0"/>
<path d="M2.026 27.3856C2.41087 20.1376 2.79573 12.8933 3.17697 5.64893C5.61324 6.46107 8.12575 6.99889 10.6746 7.39955C10.8271 7.54033 11.0667 7.59808 11.2628 7.4934C16.2406 8.23697 21.331 8.52934 26.2253 9.45338C33.1311 10.76 40.0805 11.8429 47.0226 12.9402C46.6595 15.7556 45.937 18.5097 45.3996 21.2963C45.3233 21.4154 45.2907 21.5634 45.3233 21.7006C45.1999 22.3539 45.0873 23.0108 44.9966 23.6714C44.55 26.9055 44.8695 30.1974 44.0889 33.3846C37.1686 31.9192 30.143 31.0421 23.1718 29.8581C16.1571 28.667 9.18595 27.021 2.026 27.3856Z" fill="white"/>
<path d="M0 29.6163C0.384865 22.3683 0.7661 15.124 1.15096 7.87964C3.58723 8.69179 6.09975 9.22961 8.64858 9.63027C8.80107 9.77104 9.0407 9.82879 9.23677 9.72411C14.2146 10.4677 19.305 10.7601 24.1993 11.6841C31.1051 12.9908 38.0545 14.0736 44.9966 15.1709C44.6335 17.9864 43.9109 20.7404 43.3736 23.527C43.2973 23.6461 43.2647 23.7941 43.2973 23.9313C43.1739 24.5846 43.0613 25.2415 42.9706 25.9021C42.524 29.1362 42.8435 32.4281 42.0629 35.6154C35.1426 34.1499 28.117 33.2728 21.1458 32.0888C14.1311 30.8977 7.15632 29.2517 0 29.6163Z" fill="#CCB8F4"/>
<path d="M29.1408 25.6748C24.4353 26.2018 18.597 25.1189 15.7541 21.0221C15.2167 20.2496 14.85 19.3653 14.7665 18.4268C14.6358 16.9722 15.9283 16.2394 17.0212 15.6041C19.1852 14.348 21.7231 13.9077 24.1993 13.9149C27.6704 13.9257 31.5989 15.0014 34.42 17.0877C36.0539 18.4701 36.8745 20.4084 35.9305 22.4478C34.7759 24.9348 31.5553 25.4077 29.1408 25.6748Z" fill="white"/>
<path d="M56.4626 28.0282C53.4308 25.3391 49.8037 23.4585 46.3653 21.3469C46.9244 18.4052 47.7196 15.5103 48.0681 12.5324C48.0899 12.3339 47.9011 12.0885 47.7051 12.0596C40.6214 10.937 33.534 9.8325 26.4867 8.5078C26.0401 8.42478 25.5898 8.34537 25.1396 8.27318C25.1215 8.25874 25.1033 8.24431 25.0815 8.22987C21.3636 6.03166 17.3806 4.1583 14.171 1.22736C13.8987 0.978299 13.4484 1.07576 13.3431 1.44393C12.8239 3.26675 11.8146 4.8369 10.8306 6.43593C8.11478 6.00278 5.43525 5.42164 2.85012 4.50843C2.58507 4.41458 2.38538 4.54814 2.29824 4.74305C2.2583 4.80802 2.22925 4.88743 2.22562 4.98128C1.8226 12.6227 1.41595 20.2605 1.01293 27.9019C0.998408 28.1581 1.24893 28.4108 1.50672 28.3928C6.45551 28.0751 11.3172 28.7465 16.1643 29.5911C16.1715 29.5947 16.1788 29.602 16.1861 29.6056C26.0001 34.4748 35.4221 40.0047 44.3865 46.2853C44.6044 46.4369 44.9384 46.3286 45.0618 46.1084C48.4712 40.0624 51.6735 33.836 56.4626 28.7212C56.6405 28.5335 56.6695 28.2087 56.4626 28.0282ZM14.0584 2.44016C16.6145 4.62033 19.5736 6.23018 22.4964 7.87974C18.9781 7.41411 15.4054 7.11091 11.8872 6.59835C12.715 5.25561 13.5247 3.92368 14.0584 2.44016ZM2.02593 27.3857C2.41079 20.1377 2.79566 12.8934 3.17689 5.64905C5.61316 6.46119 8.12568 6.99901 10.6745 7.39967C10.827 7.54045 11.0666 7.5982 11.2627 7.49352C16.2405 8.23709 21.3309 8.52946 26.2252 9.4535C33.131 10.7602 40.0804 11.843 47.0225 12.9403C46.6594 15.7558 45.9369 18.5098 45.3995 21.2964C45.3233 21.4155 45.2906 21.5635 45.3233 21.7007C45.1998 22.354 45.0873 23.0109 44.9965 23.6715C44.5499 26.9056 44.8694 30.1975 44.0888 33.3848C37.1685 31.9193 30.1429 31.0422 23.1717 29.8582C16.157 28.6671 9.18587 27.0211 2.02593 27.3857ZM44.4664 45.1519C36.4968 39.5968 28.1677 34.6337 19.5264 30.1975C20.652 30.4033 21.7811 30.609 22.9067 30.8039C30.0412 32.0384 37.2375 32.9047 44.3175 34.4315C44.5826 34.4893 44.8513 34.3557 44.9275 34.0886C45.9006 30.5946 45.5302 26.9489 46.024 23.3863C46.0712 23.0506 46.1257 22.7186 46.1838 22.3865C49.3208 24.2923 52.6139 26.0285 55.4096 28.4144C50.8784 33.3884 47.7378 39.3297 44.4664 45.1519Z" fill="#464860" stroke="#464860" stroke-width="0.5" stroke-miterlimit="10"/>
<path d="M36.4387 27.0357C36.5331 26.8552 36.4859 26.5953 36.3443 26.4582C36.1373 26.2524 35.8578 26.2921 35.6436 26.4582C35.1498 26.8444 34.6669 27.2414 34.1731 27.6277C33.9625 27.7937 33.9988 28.151 34.1731 28.3243C34.38 28.53 34.6596 28.4903 34.8738 28.3243C35.0808 28.1619 35.2877 27.9958 35.4947 27.8298C35.4657 28.7358 35.2805 29.6346 35.1861 30.537C35.1207 31.1686 36.1119 31.1614 36.1773 30.537C36.2898 29.4252 36.5549 28.3207 36.4786 27.1981C36.4714 27.1368 36.4569 27.0826 36.4387 27.0357Z" fill="#464860" stroke="#464860" stroke-width="0.5" stroke-miterlimit="10"/>
<path d="M39.1038 26.8732C36.8454 26.3571 36.0902 29.8908 37.902 30.8798C38.8351 31.3887 39.6339 30.6596 39.9207 29.8078C40.2003 28.9812 40.0551 27.9128 39.4523 27.2486C39.4342 27.079 39.3289 26.9237 39.1038 26.8732ZM39.0529 29.1328C39.0384 29.4035 38.8787 30.1398 38.4757 30.0568C37.5353 29.8619 37.7059 27.8875 38.6209 27.8117C38.9949 28.1546 39.082 28.6347 39.0529 29.1328Z" fill="#464860" stroke="#464860" stroke-width="0.5" stroke-miterlimit="10"/>
<path d="M42.2226 27.1799C42.2118 27.1799 42.2045 27.1763 42.1936 27.1727C39.997 26.9489 39.3797 30.923 41.344 31.6377C43.8892 32.5617 43.8238 28.501 42.6583 27.3134C42.524 27.1763 42.3642 27.1438 42.2226 27.1799ZM41.8705 30.7497C40.7159 30.7281 40.9991 28.2303 42.0738 28.1617C42.5058 28.8439 42.9016 30.7678 41.8705 30.7497Z" fill="#464860" stroke="#464860" stroke-width="0.5" stroke-miterlimit="10"/>
<path d="M38.6208 34.9766C38.9912 34.7095 38.7189 33.9912 38.1742 34.1067C37.5606 34.2366 36.9507 34.381 36.3371 34.5146C35.7126 34.6481 35.9776 35.5974 36.5985 35.4639C36.8708 35.4061 37.1395 35.3448 37.4118 35.2834C36.9979 36.0775 36.4169 36.7922 35.9449 37.5466C35.6073 38.088 36.4641 38.5825 36.7982 38.0447C37.4154 37.0557 38.1525 36.1497 38.5954 35.0596C38.6099 35.0307 38.6136 35.0055 38.6208 34.9766Z" fill="#464860" stroke="#464860" stroke-width="0.5" stroke-miterlimit="10"/>
<path d="M41.2205 36.5142C41.2894 36.359 41.2713 36.1749 41.0898 36.0269C40.2293 35.3267 39.1727 35.583 38.4865 36.3951C37.8002 37.2072 37.6332 38.3334 38.3049 39.1925C38.9258 39.9866 39.9933 39.5607 40.5488 38.947C41.1442 38.2901 41.4419 37.3625 41.2205 36.5142ZM39.9896 38.0627C39.8734 38.2504 39.4087 38.8351 39.1219 38.615C38.3376 38.0086 39.3869 36.2615 40.2256 36.6225C40.2293 36.6333 40.2329 36.6442 40.2365 36.6514C40.4471 37.1134 40.2365 37.662 39.9896 38.0627Z" fill="#464860" stroke="#464860" stroke-width="0.5" stroke-miterlimit="10"/>
<path d="M44.0743 37.9797C44.0198 37.8173 43.9109 37.7199 43.7875 37.6729C43.7729 37.6621 43.7584 37.6477 43.7403 37.6368C41.8849 36.4709 39.4777 39.734 40.9482 41.2392C42.8289 43.163 44.6153 39.604 44.0743 37.9797ZM41.7469 40.6328C40.9082 39.9794 42.2371 38.0375 43.1557 38.4526C43.2247 39.2972 42.6619 41.3474 41.7469 40.6328Z" fill="#464860" stroke="#464860" stroke-width="0.5" stroke-miterlimit="10"/>
<path d="M10.6092 23.2924C11.2483 23.2924 11.2483 22.3106 10.6092 22.307C8.68128 22.3034 6.75332 22.0579 4.83989 22.3756C4.7346 22.3936 4.65835 22.4369 4.60026 22.4911C4.1573 22.159 3.54369 22.8087 3.96487 23.2419C4.69103 23.9927 5.43534 24.729 6.1615 25.4798C6.60446 25.9382 7.30158 25.2416 6.86225 24.7832C6.37572 24.2814 5.88193 23.7833 5.39177 23.2852C7.1164 23.0578 8.87371 23.2924 10.6092 23.2924Z" fill="#464860" stroke="#464860" stroke-width="0.5" stroke-miterlimit="10"/>
<path d="M10.5475 18.8564C11.0231 17.3873 9.84673 16.4488 8.50696 16.207C7.11637 15.9579 5.55875 16.355 4.6329 17.4342C4.44046 17.4884 4.26982 17.6364 4.24077 17.8782C3.80507 21.2459 9.59621 21.791 10.5475 18.8564ZM7.81348 17.1274C8.56506 17.1274 9.86125 17.4379 9.64704 18.4269C9.22586 20.3688 5.42078 20.2244 5.22109 18.268C5.23561 18.25 5.25376 18.232 5.26829 18.2103C5.83106 17.3873 6.86584 17.1274 7.81348 17.1274Z" fill="#464860" stroke="#464860" stroke-width="0.5" stroke-miterlimit="10"/>
<path d="M4.23718 12.5035C4.22629 15.7629 10.3987 16.2863 11.1829 13.2434C12.2141 9.26573 5.99086 10.0382 4.357 11.9621C4.23718 12.1028 4.2154 12.2616 4.24808 12.4024C4.24081 12.4349 4.23718 12.4674 4.23718 12.5035ZM10.2788 12.6443C10.2607 14.958 5.22113 14.7414 5.22839 12.5035C5.22839 12.4999 5.22839 12.4963 5.22839 12.489C6.4193 11.4278 10.297 10.3161 10.2788 12.6443Z" fill="#464860" stroke="#464860" stroke-width="0.5" stroke-miterlimit="10"/>
<path d="M35.0808 16.3621C35.059 16.344 35.0372 16.3332 35.0191 16.3188C35.0082 16.3079 34.9973 16.2971 34.9828 16.2863C31.4173 13.6116 26.1127 12.4565 21.734 13.0702C19.4102 13.395 15.9392 14.2758 14.4615 16.2863C13.0563 18.1957 14.1165 20.5203 15.3909 22.1951C19.0835 27.0391 26.8135 27.3964 32.2488 26.1331C37.0596 25.0141 39.1364 19.7442 35.0808 16.3621ZM29.1408 25.6747C24.4353 26.2017 18.5969 25.1188 15.754 21.022C15.2167 20.2495 14.85 19.3652 14.7664 18.4267C14.6357 16.9721 15.9283 16.2393 17.0212 15.6041C19.1851 14.3479 21.7231 13.9076 24.1993 13.9148C27.6703 13.9256 31.5989 15.0013 34.42 17.0876C36.0539 18.47 36.8744 20.4084 35.9304 22.4478C34.7758 24.9347 31.5553 25.4076 29.1408 25.6747Z" fill="#464860" stroke="#464860" stroke-width="0.5" stroke-miterlimit="10"/>
</svg>
