<svg width="78" height="78" viewBox="0 0 78 78" fill="none" xmlns="http://www.w3.org/2000/svg">
<rect width="78" height="78" fill="white"/>
<path d="M53.47 55.7499C53.47 55.8299 53.41 57.6199 51.56 57.6199C49.77 57.6199 49.7 55.9499 49.7 55.7599C49.7 55.4399 49.44 55.1699 49.11 55.1699C48.78 55.1699 48.52 55.4299 48.51 55.7499C48.51 55.8299 48.45 57.6299 46.65 57.6299C44.89 57.6299 44.79 55.9499 44.79 55.7499C44.78 55.4199 44.53 55.1699 44.2 55.1699C43.88 55.1699 43.61 55.4399 43.61 55.7599C43.61 55.9499 43.54 57.6099 41.76 57.6099C39.98 57.6099 39.91 55.9499 39.91 55.7599C39.91 55.4399 39.65 55.1699 39.32 55.1699C38.99 55.1699 38.73 55.4299 38.73 55.7599C38.73 55.8399 38.68 57.6299 36.84 57.6299C35.05 57.6299 34.98 55.9599 34.98 55.7699C34.97 55.4299 34.71 55.1799 34.39 55.1799C34.06 55.1799 33.8 55.4399 33.8 55.7699C33.8 55.9599 33.73 57.6299 31.99 57.6299C30.23 57.6299 30.13 55.9499 30.13 55.7499C30.12 55.4299 29.86 55.1699 29.54 55.1699C29.22 55.1699 28.96 55.4199 28.95 55.7499C28.95 55.8499 28.91 56.6799 28.3 57.1999C27.58 56.5799 26.09 55.3299 23.83 53.4899C21.93 51.9499 20.92 49.9999 20.46 48.8899C23.34 48.9399 32.61 49.3899 41.25 52.8499C45.64 54.5999 49.66 55.4899 53.18 55.4899C53.31 55.4899 53.43 55.4899 53.55 55.4899C53.49 55.5599 53.47 55.6499 53.47 55.7499Z" fill="white"/>
<path d="M54.6498 55.76C54.6498 55.64 54.6098 55.53 54.5498 55.44C55.7898 55.35 56.6998 55.15 57.2798 54.98L56.9698 57.58C56.8198 57.61 56.6698 57.62 56.5098 57.62C54.7198 57.62 54.6498 55.95 54.6498 55.76Z" fill="white"/>
<path d="M40.4901 38.5099C40.3001 44.1299 40.9901 47.7499 41.4601 49.4999C39.9501 48.9399 37.0401 47.9299 33.4901 47.0399C30.1601 46.2099 26.2801 45.9999 24.6001 45.9499C25.7301 44.0499 28.5301 39.5199 31.8201 35.3599C36.0601 29.9999 40.4701 27.2099 42.3701 26.1699C41.8201 28.3199 40.6701 33.3599 40.4901 38.5099Z" fill="white"/>
<path d="M44.8999 30.3101C45.9599 34.1201 47.5999 39.1601 49.7299 42.9101C51.8999 46.7401 54.5599 50.5501 55.6999 52.1501C54.8299 52.2401 53.5999 52.3501 52.3999 52.3501C51.8299 52.3501 51.3199 52.3301 50.8799 52.2801C48.4999 52.0301 45.7499 50.9001 44.8799 50.5201L44.8999 30.3101Z" fill="white"/>
<path d="M54.8801 56.64C54.8801 56.72 54.8201 58.51 52.9701 58.51C51.1801 58.51 51.1101 56.84 51.1101 56.65C51.1101 56.33 50.8501 56.06 50.5201 56.06C50.1901 56.06 49.9301 56.32 49.9201 56.64C49.9201 56.72 49.8601 58.52 48.0601 58.52C46.3001 58.52 46.2001 56.84 46.2001 56.64C46.1901 56.31 45.9401 56.06 45.6101 56.06C45.2901 56.06 45.0201 56.33 45.0201 56.65C45.0201 56.84 44.9501 58.5 43.1701 58.5C41.3901 58.5 41.3201 56.84 41.3201 56.65C41.3201 56.33 41.0601 56.06 40.7301 56.06C40.4001 56.06 40.1401 56.32 40.1401 56.65C40.1401 56.73 40.0901 58.52 38.2501 58.52C36.4601 58.52 36.3901 56.85 36.3901 56.66C36.3801 56.32 36.1201 56.07 35.8001 56.07C35.4701 56.07 35.2101 56.33 35.2101 56.66C35.2101 56.85 35.1401 58.52 33.4001 58.52C31.6401 58.52 31.5401 56.84 31.5401 56.64C31.5301 56.32 31.2701 56.06 30.9501 56.06C30.6301 56.06 30.3701 56.31 30.3601 56.64C30.3601 56.74 30.3201 57.57 29.7101 58.09C28.9901 57.47 27.5001 56.22 25.2401 54.38C23.3401 52.84 22.3301 50.89 21.8701 49.78C24.7501 49.83 34.0201 50.28 42.6601 53.74C47.0501 55.49 51.0701 56.38 54.5901 56.38C54.7201 56.38 54.8401 56.38 54.9601 56.38C54.9101 56.46 54.8901 56.55 54.8801 56.64Z" fill="#A3EFE0"/>
<path d="M54.6498 55.76C54.6498 55.64 54.6098 55.53 54.5498 55.44C55.7898 55.35 56.6998 55.15 57.2798 54.98L56.9698 57.58C56.8198 57.61 56.6698 57.62 56.5098 57.62C54.7198 57.62 54.6498 55.95 54.6498 55.76Z" fill="white"/>
<path d="M41.6102 38.9101C41.4202 44.5301 42.1102 48.1501 42.5802 49.9001C41.0702 49.3401 38.1602 48.3301 34.6102 47.4401C31.2802 46.6101 27.4002 46.4001 25.7202 46.3501C26.8502 44.4501 29.6502 39.9201 32.9402 35.7601C37.1802 30.4001 41.5902 27.6101 43.4902 26.5701C42.9402 28.7101 41.7802 33.7501 41.6102 38.9101Z" fill="#CCB8F4"/>
<path d="M46.02 30.7C47.08 34.51 48.72 39.55 50.85 43.3C53.02 47.13 55.68 50.94 56.82 52.54C55.95 52.63 54.72 52.74 53.52 52.74C52.95 52.74 52.44 52.7199 52 52.6699C49.62 52.4199 46.87 51.2899 46 50.91L46.02 30.7Z" fill="#CCB8F4"/>
<path d="M55.1601 56.32C55.1601 56.2 55.1201 56.09 55.0601 56C56.3001 55.91 57.2101 55.71 57.7901 55.54L57.4801 58.14C57.3301 58.17 57.1801 58.18 57.0201 58.18C55.2301 58.18 55.1701 56.51 55.1601 56.32Z" fill="#A3EFE0"/>
<path d="M59.04 55.1699C58.7 55.1699 58.44 55.42 58.43 55.75C58.43 55.82 58.41 56.0999 58.3 56.4199L58.57 54.1699C58.6 53.9499 58.5 53.7399 58.32 53.6199C58.22 53.5499 58.1 53.5099 57.98 53.5099C57.89 53.5099 57.8 53.53 57.71 53.57C57.7 53.58 56.22 54.2999 53.16 54.2999C49.78 54.2999 45.91 53.44 41.67 51.75C32.03 47.9 21.73 47.7 19.77 47.7H19.59C19.4 47.7 19.23 47.79 19.12 47.94C19.01 48.09 18.98 48.28 19.02 48.45C19.06 48.59 20.02 51.93 23.06 54.4C23.45 54.71 23.81 55.01 24.15 55.29C24.01 55.4 23.92 55.56 23.91 55.74C23.91 55.82 23.81 57.63 22 57.63C20.26 57.63 20.19 55.9599 20.19 55.7599C20.19 55.4299 19.92 55.1699 19.6 55.1699C19.27 55.1699 19 55.4299 19 55.7599C19 56.8099 19.63 58.81 22 58.81C23.31 58.81 24.06 58.19 24.47 57.61C24.56 57.74 24.66 57.87 24.77 57.9799C25.31 58.53 26.05 58.81 26.96 58.81C28.33 58.81 29.1 58.18 29.51 57.59C29.91 58.17 30.65 58.81 31.97 58.81C33.26 58.81 33.99 58.21 34.38 57.65C34.78 58.21 35.51 58.81 36.83 58.81C38.16 58.81 38.9 58.19 39.3 57.63C39.7 58.19 40.43 58.7999 41.75 58.7999C43.07 58.7999 43.81 58.19 44.2 57.63C44.6 58.2 45.34 58.82 46.64 58.82C47.95 58.82 48.68 58.2 49.08 57.63C49.48 58.2 50.21 58.82 51.55 58.82C52.88 58.82 53.63 58.2 54.04 57.63C54.44 58.2 55.17 58.82 56.51 58.82C58.91 58.82 59.59 56.84 59.61 55.79C59.62 55.45 59.36 55.1799 59.04 55.1699ZM53.47 55.75C53.47 55.83 53.41 57.6199 51.56 57.6199C49.77 57.6199 49.7 55.9499 49.7 55.7599C49.7 55.4399 49.44 55.1699 49.11 55.1699C48.78 55.1699 48.52 55.43 48.51 55.75C48.51 55.83 48.45 57.63 46.65 57.63C44.89 57.63 44.79 55.95 44.79 55.75C44.78 55.42 44.53 55.1699 44.2 55.1699C43.88 55.1699 43.61 55.4399 43.61 55.7599C43.61 55.9499 43.54 57.61 41.76 57.61C39.98 57.61 39.91 55.9499 39.91 55.7599C39.91 55.4399 39.65 55.1699 39.32 55.1699C38.99 55.1699 38.73 55.4299 38.73 55.7599C38.73 55.8399 38.68 57.63 36.84 57.63C35.05 57.63 34.98 55.96 34.98 55.77C34.97 55.43 34.71 55.18 34.39 55.18C34.06 55.18 33.8 55.44 33.8 55.77C33.8 55.96 33.73 57.63 31.99 57.63C30.23 57.63 30.13 55.95 30.13 55.75C30.12 55.43 29.86 55.1699 29.54 55.1699C29.22 55.1699 28.96 55.42 28.95 55.75C28.95 55.85 28.91 56.68 28.3 57.2C27.58 56.58 26.09 55.33 23.83 53.49C21.93 51.95 20.92 49.9999 20.46 48.8899C23.34 48.9399 32.61 49.3899 41.25 52.8499C45.64 54.5999 49.66 55.49 53.18 55.49C53.31 55.49 53.43 55.49 53.55 55.49C53.49 55.56 53.47 55.65 53.47 55.75ZM41.27 52.75C41.94 53.02 42.59 53.26 43.22 53.4799C42.59 53.26 41.94 53.02 41.27 52.75ZM43.85 53.68C44.26 53.81 44.66 53.95 45.05 54.07C44.67 53.9599 44.26 53.82 43.85 53.68ZM45.75 54.2599C46.09 54.3599 46.44 54.4499 46.77 54.5299C46.44 54.4499 46.09 54.3599 45.75 54.2599ZM47.45 54.6899C47.75 54.7599 48.06 54.83 48.35 54.88C48.06 54.83 47.76 54.7599 47.45 54.6899ZM49.01 55C49.28 55.05 49.56 55.09 49.82 55.13C49.56 55.09 49.28 55.05 49.01 55ZM50.43 55.2099C50.68 55.2399 50.93 55.27 51.16 55.29C50.93 55.27 50.68 55.2399 50.43 55.2099ZM51.73 55.33C51.96 55.34 52.18 55.36 52.39 55.36C52.17 55.36 51.95 55.35 51.73 55.33ZM20.74 47.8099C20.75 47.8099 20.75 47.8099 20.76 47.8099C20.75 47.8099 20.74 47.8099 20.74 47.8099ZM21.46 47.83C21.49 47.83 21.52 47.83 21.55 47.83C21.52 47.84 21.49 47.83 21.46 47.83ZM22.38 47.8799C22.42 47.8799 22.47 47.8799 22.51 47.8899C22.47 47.8799 22.42 47.8799 22.38 47.8799ZM23.46 47.94C23.52 47.94 23.57 47.95 23.63 47.95C23.58 47.95 23.52 47.95 23.46 47.94ZM24.7 48.04C24.76 48.05 24.82 48.0499 24.89 48.0599C24.83 48.0499 24.76 48.04 24.7 48.04ZM26.08 48.17C26.14 48.18 26.19 48.18 26.25 48.19C26.19 48.19 26.14 48.18 26.08 48.17ZM27.58 48.35C27.62 48.35 27.66 48.36 27.69 48.37C27.66 48.36 27.62 48.35 27.58 48.35ZM30.73 48.83C30.78 48.84 30.82 48.85 30.87 48.85C30.83 48.84 30.78 48.84 30.73 48.83ZM32.41 49.15C32.48 49.16 32.55 49.18 32.63 49.19C32.56 49.17 32.48 49.16 32.41 49.15ZM34.18 49.53C34.26 49.55 34.35 49.57 34.43 49.59C34.34 49.57 34.26 49.55 34.18 49.53ZM36 49.9799C36.09 49.9999 36.17 50.0299 36.26 50.0499C36.17 50.0299 36.09 50.0099 36 49.9799ZM37.87 50.52C37.95 50.54 38.02 50.57 38.1 50.59C38.02 50.56 37.94 50.54 37.87 50.52ZM39.75 51.1299C39.8 51.1499 39.85 51.17 39.9 51.18C39.85 51.17 39.8 51.1499 39.75 51.1299ZM26.95 57.6199C26.37 57.6199 25.93 57.46 25.62 57.15C25.3 56.82 25.17 56.39 25.13 56.09C25.92 56.75 26.53 57.2699 26.95 57.6199ZM44.19 55.27C44.23 55.27 44.27 55.28 44.31 55.29C44.27 55.28 44.23 55.27 44.19 55.27ZM44.48 55.3699C44.45 55.3499 44.42 55.32 44.39 55.31C44.42 55.32 44.45 55.3499 44.48 55.3699ZM44.64 55.56C44.62 55.5 44.58 55.45 44.54 55.41C44.58 55.45 44.61 55.5 44.64 55.56ZM44.68 55.75C44.68 55.68 44.66 55.62 44.64 55.56C44.67 55.62 44.68 55.68 44.68 55.75ZM53.17 55.3899C53.09 55.3899 52.99 55.38 52.9 55.38C53.2 55.38 53.49 55.39 53.76 55.38C53.57 55.38 53.37 55.3899 53.17 55.3899ZM52.43 54.38C52.6 54.39 52.76 54.3899 52.92 54.3899C52.76 54.3899 52.6 54.38 52.43 54.38ZM53.45 54.3899C53.65 54.3899 53.84 54.3799 54.02 54.3699C53.84 54.3799 53.64 54.3799 53.45 54.3899ZM54.65 55.7599C54.65 55.6399 54.61 55.5299 54.55 55.4399C55.79 55.3499 56.7 55.15 57.28 54.9799L56.97 57.58C56.82 57.61 56.67 57.6199 56.51 57.6199C54.72 57.6199 54.65 55.9499 54.65 55.7599ZM54.46 54.34C54.63 54.33 54.8 54.3099 54.96 54.2999C54.8 54.3199 54.63 54.33 54.46 54.34ZM55.33 54.2599C55.48 54.2399 55.62 54.22 55.76 54.2C55.62 54.22 55.48 54.2399 55.33 54.2599ZM56.07 54.1399C56.2 54.1199 56.31 54.09 56.43 54.07C56.31 54.09 56.2 54.1199 56.07 54.1399ZM56.67 54.0099C56.77 53.9799 56.87 53.96 56.95 53.93C56.87 53.96 56.78 53.9899 56.67 54.0099ZM57.14 53.88C57.22 53.85 57.29 53.83 57.36 53.81C57.29 53.83 57.23 53.86 57.14 53.88ZM57.76 53.66C57.83 53.63 57.91 53.61 57.98 53.61C57.99 53.61 57.99 53.6199 58 53.6199C57.91 53.6099 57.83 53.62 57.76 53.66C57.76 53.66 57.73 53.6699 57.69 53.6899C57.72 53.6699 57.75 53.66 57.76 53.66ZM57.48 53.77C57.54 53.75 57.59 53.7299 57.63 53.7099C57.58 53.7299 57.54 53.75 57.48 53.77ZM51.79 54.34C51.61 54.33 51.44 54.3099 51.25 54.2999C51.43 54.3199 51.61 54.33 51.79 54.34ZM50.54 54.2299C50.35 54.2099 50.15 54.18 49.95 54.15C50.15 54.18 50.35 54.1999 50.54 54.2299ZM49.17 54.0299C48.96 53.9899 48.75 53.9599 48.53 53.9199C48.75 53.9499 48.96 53.9899 49.17 54.0299ZM47.66 53.7299C47.44 53.6799 47.22 53.63 46.99 53.58C47.22 53.63 47.44 53.6799 47.66 53.7299ZM46 53.31C45.77 53.25 45.56 53.1899 45.32 53.1199C45.56 53.1899 45.78 53.25 46 53.31ZM44.15 52.75C43.95 52.68 43.75 52.6199 43.54 52.5499C43.75 52.6199 43.95 52.68 44.15 52.75ZM19.8 47.7999C19.78 47.7999 19.77 47.7999 19.75 47.7999C19.76 47.7999 19.76 47.7999 19.78 47.7999C19.78 47.7999 19.79 47.7999 19.8 47.7999ZM20.2 47.7999C20.18 47.7999 20.16 47.7999 20.15 47.7999C20.16 47.7999 20.18 47.7999 20.2 47.7999ZM19.66 47.7999C19.65 47.7999 19.64 47.7999 19.63 47.7999C19.64 47.7999 19.65 47.7999 19.66 47.7999Z" fill="#464860"/>
<path d="M23.5898 47.12C23.6398 47.12 28.9598 47.13 33.2098 48.19C38.3998 49.48 42.1398 51.03 42.1698 51.04C42.2398 51.07 42.3198 51.09 42.3998 51.09C42.5598 51.09 42.7098 51.03 42.8198 50.92C42.9898 50.75 43.0398 50.5 42.9498 50.28C42.8898 50.12 41.4098 46.31 41.6798 38.56C41.8798 32.79 43.2898 27.29 43.7298 25.71L43.6998 50.91C43.6998 51.14 43.8298 51.35 44.0398 51.45C44.1898 51.52 47.6398 53.14 50.7598 53.47C51.2498 53.52 51.8098 53.55 52.4198 53.55C54.5598 53.55 56.7598 53.23 56.8498 53.22C57.0498 53.19 57.2298 53.05 57.3098 52.86C57.3898 52.67 57.3598 52.45 57.2398 52.28C57.1998 52.23 53.6098 47.35 50.7598 42.34C47.1698 36 44.9898 25.83 44.8998 25.4C44.8398 25.13 44.5998 24.93 44.3198 24.93C44.2998 24.93 44.2798 24.93 44.2598 24.93C44.0998 24.95 43.9598 25.03 43.8598 25.15C43.8898 24.95 43.8398 24.75 43.6898 24.61C43.5798 24.51 43.4398 24.46 43.2898 24.46C43.2098 24.46 43.1398 24.48 43.0598 24.51C42.8098 24.62 36.7898 27.17 30.8898 34.63C26.7498 39.87 23.4298 45.59 23.0698 46.23C22.9598 46.42 22.9598 46.64 23.0698 46.83C23.1798 47.01 23.3798 47.12 23.5898 47.12ZM40.4898 38.51C40.2998 44.13 40.9898 47.75 41.4598 49.5C39.9498 48.94 37.0398 47.93 33.4898 47.04C30.1598 46.21 26.2798 46 24.5998 45.95C25.7298 44.05 28.5298 39.52 31.8198 35.36C36.0598 30 40.4698 27.21 42.3698 26.17C41.8198 28.32 40.6698 33.36 40.4898 38.51ZM44.8998 30.31C45.9598 34.12 47.5998 39.16 49.7298 42.91C51.8998 46.74 54.5598 50.55 55.6998 52.15C54.8298 52.24 53.5998 52.35 52.3998 52.35C51.8298 52.35 51.3198 52.33 50.8798 52.28C48.4998 52.03 45.7498 50.9 44.8798 50.52L44.8998 30.31ZM51.5798 52.43C51.3398 52.42 51.0998 52.4 50.8798 52.38C51.0998 52.4 51.3298 52.42 51.5798 52.43ZM52.3098 52.45C52.1398 52.45 51.9798 52.44 51.8198 52.44C51.9798 52.44 52.1498 52.45 52.3098 52.45ZM55.8798 52.23C55.6998 52.25 55.4898 52.27 55.2598 52.29C55.4898 52.27 55.6998 52.25 55.8798 52.23ZM55.0798 52.31C54.8798 52.33 54.6598 52.35 54.4398 52.36C54.6598 52.35 54.8698 52.33 55.0798 52.31ZM54.2898 52.38C54.0198 52.4 53.7398 52.41 53.4598 52.43C53.7398 52.41 54.0198 52.4 54.2898 52.38ZM53.2498 52.43C53.0198 52.44 52.7898 52.44 52.5598 52.44C52.7898 52.44 53.0198 52.44 53.2498 52.43ZM44.7298 25.26C44.7598 25.31 44.7898 25.36 44.7998 25.42C44.7898 25.36 44.7598 25.31 44.7298 25.26ZM44.6898 25.22C44.6698 25.19 44.6398 25.16 44.6098 25.14C44.6398 25.16 44.6698 25.19 44.6898 25.22ZM44.3098 25.03C44.3398 25.03 44.3598 25.04 44.3898 25.04C44.3498 25.03 44.3098 25.02 44.2698 25.03C44.2798 25.03 44.2998 25.03 44.3098 25.03ZM44.5498 25.1C44.5198 25.08 44.4898 25.07 44.4598 25.06C44.4898 25.07 44.5198 25.08 44.5498 25.1ZM43.6198 24.69C43.5598 24.63 43.4798 24.6 43.3998 24.58C43.4798 24.6 43.5598 24.63 43.6198 24.69ZM43.2898 24.56C43.3098 24.56 43.3298 24.57 43.3498 24.57C43.2698 24.56 43.1798 24.56 43.1098 24.6C43.1598 24.58 43.2298 24.56 43.2898 24.56Z" fill="#464860"/>
<path d="M44.1201 24.49L49.4401 26.09C49.4901 26.11 49.5501 26.11 49.6101 26.11C49.8201 26.11 50.0201 26 50.1201 25.81C50.2601 25.57 50.2101 25.27 50.0101 25.08L44.6901 20.15C44.5801 20.06 44.4401 20 44.2901 20C44.2101 20 44.1301 20.02 44.0501 20.05C43.8301 20.14 43.7001 20.36 43.7001 20.59V23.92C43.6901 24.19 43.8601 24.41 44.1201 24.49ZM47.3301 24.22L44.8801 23.48V21.95L47.3301 24.22ZM44.6201 20.23C44.5601 20.17 44.4801 20.14 44.4001 20.12C44.4801 20.14 44.5601 20.17 44.6201 20.23ZM44.2901 20.1C44.3101 20.1 44.3301 20.11 44.3401 20.11C44.2601 20.1 44.1701 20.11 44.0901 20.14C44.1501 20.11 44.2201 20.1 44.2901 20.1Z" fill="#464860"/>
</svg>
