<svg width="41" height="39" viewBox="0 0 41 39" fill="none" xmlns="http://www.w3.org/2000/svg">
<path d="M34.47 35.7499C34.47 35.8299 34.41 37.6199 32.56 37.6199C30.77 37.6199 30.7 35.9499 30.7 35.7599C30.7 35.4399 30.44 35.1699 30.11 35.1699C29.78 35.1699 29.52 35.4299 29.51 35.7499C29.51 35.8299 29.45 37.6299 27.65 37.6299C25.89 37.6299 25.79 35.9499 25.79 35.7499C25.78 35.4199 25.53 35.1699 25.2 35.1699C24.88 35.1699 24.61 35.4399 24.61 35.7599C24.61 35.9499 24.54 37.6099 22.76 37.6099C20.98 37.6099 20.91 35.9499 20.91 35.7599C20.91 35.4399 20.65 35.1699 20.32 35.1699C19.99 35.1699 19.73 35.4299 19.73 35.7599C19.73 35.8399 19.68 37.6299 17.84 37.6299C16.05 37.6299 15.98 35.9599 15.98 35.7699C15.97 35.4299 15.71 35.1799 15.39 35.1799C15.06 35.1799 14.8 35.4399 14.8 35.7699C14.8 35.9599 14.73 37.6299 12.99 37.6299C11.23 37.6299 11.13 35.9499 11.13 35.7499C11.12 35.4299 10.86 35.1699 10.54 35.1699C10.22 35.1699 9.95996 35.4199 9.94996 35.7499C9.94996 35.8499 9.90996 36.6799 9.29996 37.1999C8.57996 36.5799 7.08996 35.3299 4.82996 33.4899C2.92996 31.9499 1.91996 29.9999 1.45996 28.8899C4.33996 28.9399 13.61 29.3899 22.25 32.8499C26.64 34.5999 30.66 35.4899 34.18 35.4899C34.31 35.4899 34.43 35.4899 34.55 35.4899C34.49 35.5599 34.47 35.6499 34.47 35.7499Z" fill="white"/>
<path d="M35.6498 35.76C35.6498 35.64 35.6098 35.53 35.5498 35.44C36.7898 35.35 37.6998 35.15 38.2798 34.98L37.9698 37.58C37.8198 37.61 37.6698 37.62 37.5098 37.62C35.7198 37.62 35.6498 35.95 35.6498 35.76Z" fill="white"/>
<path d="M21.4901 18.5099C21.3001 24.1299 21.9901 27.7499 22.4601 29.4999C20.9501 28.9399 18.0401 27.9299 14.4901 27.0399C11.1601 26.2099 7.2801 25.9999 5.6001 25.9499C6.7301 24.0499 9.5301 19.5199 12.8201 15.3599C17.0601 9.99992 21.4701 7.20992 23.3701 6.16992C22.8201 8.31992 21.6701 13.3599 21.4901 18.5099Z" fill="white"/>
<path d="M25.8999 10.3101C26.9599 14.1201 28.5999 19.1601 30.7299 22.9101C32.8999 26.7401 35.5599 30.5501 36.6999 32.1501C35.8299 32.2401 34.5999 32.3501 33.3999 32.3501C32.8299 32.3501 32.3199 32.3301 31.8799 32.2801C29.4999 32.0301 26.7499 30.9001 25.8799 30.5201L25.8999 10.3101Z" fill="white"/>
<path d="M35.8801 36.64C35.8801 36.72 35.8201 38.51 33.9701 38.51C32.1801 38.51 32.1101 36.84 32.1101 36.65C32.1101 36.33 31.8501 36.06 31.5201 36.06C31.1901 36.06 30.9301 36.32 30.9201 36.64C30.9201 36.72 30.8601 38.52 29.0601 38.52C27.3001 38.52 27.2001 36.84 27.2001 36.64C27.1901 36.31 26.9401 36.06 26.6101 36.06C26.2901 36.06 26.0201 36.33 26.0201 36.65C26.0201 36.84 25.9501 38.5 24.1701 38.5C22.3901 38.5 22.3201 36.84 22.3201 36.65C22.3201 36.33 22.0601 36.06 21.7301 36.06C21.4001 36.06 21.1401 36.32 21.1401 36.65C21.1401 36.73 21.0901 38.52 19.2501 38.52C17.4601 38.52 17.3901 36.85 17.3901 36.66C17.3801 36.32 17.1201 36.07 16.8001 36.07C16.4701 36.07 16.2101 36.33 16.2101 36.66C16.2101 36.85 16.1401 38.52 14.4001 38.52C12.6401 38.52 12.5401 36.84 12.5401 36.64C12.5301 36.32 12.2701 36.06 11.9501 36.06C11.6301 36.06 11.3701 36.31 11.3601 36.64C11.3601 36.74 11.3201 37.57 10.7101 38.09C9.99012 37.47 8.50012 36.22 6.24012 34.38C4.34012 32.84 3.33012 30.89 2.87012 29.78C5.75012 29.83 15.0201 30.28 23.6601 33.74C28.0501 35.49 32.0701 36.38 35.5901 36.38C35.7201 36.38 35.8401 36.38 35.9601 36.38C35.9101 36.46 35.8901 36.55 35.8801 36.64Z" fill="#A3EFE0"/>
<path d="M35.6498 35.76C35.6498 35.64 35.6098 35.53 35.5498 35.44C36.7898 35.35 37.6998 35.15 38.2798 34.98L37.9698 37.58C37.8198 37.61 37.6698 37.62 37.5098 37.62C35.7198 37.62 35.6498 35.95 35.6498 35.76Z" fill="white"/>
<path d="M22.6102 18.9101C22.4202 24.5301 23.1102 28.1501 23.5802 29.9001C22.0702 29.3401 19.1602 28.3301 15.6102 27.4401C12.2802 26.6101 8.40021 26.4001 6.72021 26.3501C7.85021 24.4501 10.6502 19.9201 13.9402 15.7601C18.1802 10.4001 22.5902 7.61007 24.4902 6.57007C23.9402 8.71007 22.7802 13.7501 22.6102 18.9101Z" fill="#CCB8F4"/>
<path d="M27.02 10.7C28.08 14.51 29.72 19.55 31.85 23.3C34.02 27.13 36.68 30.94 37.82 32.54C36.95 32.63 35.72 32.74 34.52 32.74C33.95 32.74 33.44 32.7199 33 32.6699C30.62 32.4199 27.87 31.2899 27 30.91L27.02 10.7Z" fill="#CCB8F4"/>
<path d="M36.1601 36.32C36.1601 36.2 36.1201 36.09 36.0601 36C37.3001 35.91 38.2101 35.71 38.7901 35.54L38.4801 38.14C38.3301 38.17 38.1801 38.18 38.0201 38.18C36.2301 38.18 36.1701 36.51 36.1601 36.32Z" fill="#A3EFE0"/>
<path d="M40.04 35.1699C39.7 35.1699 39.44 35.42 39.43 35.75C39.43 35.82 39.41 36.0999 39.3 36.4199L39.57 34.1699C39.6 33.9499 39.5 33.7399 39.32 33.6199C39.22 33.5499 39.1 33.5099 38.98 33.5099C38.89 33.5099 38.8 33.53 38.71 33.57C38.7 33.58 37.22 34.2999 34.16 34.2999C30.78 34.2999 26.91 33.44 22.67 31.75C13.03 27.9 2.73 27.7 0.77 27.7H0.59C0.4 27.7 0.23 27.79 0.12 27.94C0.01 28.09 -0.02 28.28 0.02 28.45C0.06 28.59 1.02 31.93 4.06 34.4C4.45 34.71 4.81 35.01 5.15 35.29C5.01 35.4 4.92 35.56 4.91 35.74C4.91 35.82 4.81 37.63 3 37.63C1.26 37.63 1.19 35.9599 1.19 35.7599C1.19 35.4299 0.92 35.1699 0.6 35.1699C0.27 35.1699 0 35.4299 0 35.7599C0 36.8099 0.63 38.81 3 38.81C4.31 38.81 5.06 38.19 5.47 37.61C5.56 37.74 5.66 37.87 5.77 37.9799C6.31 38.53 7.05 38.81 7.96 38.81C9.33 38.81 10.1 38.18 10.51 37.59C10.91 38.17 11.65 38.81 12.97 38.81C14.26 38.81 14.99 38.21 15.38 37.65C15.78 38.21 16.51 38.81 17.83 38.81C19.16 38.81 19.9 38.19 20.3 37.63C20.7 38.19 21.43 38.7999 22.75 38.7999C24.07 38.7999 24.81 38.19 25.2 37.63C25.6 38.2 26.34 38.82 27.64 38.82C28.95 38.82 29.68 38.2 30.08 37.63C30.48 38.2 31.21 38.82 32.55 38.82C33.88 38.82 34.63 38.2 35.04 37.63C35.44 38.2 36.17 38.82 37.51 38.82C39.91 38.82 40.59 36.84 40.61 35.79C40.62 35.45 40.36 35.1799 40.04 35.1699ZM34.47 35.75C34.47 35.83 34.41 37.6199 32.56 37.6199C30.77 37.6199 30.7 35.9499 30.7 35.7599C30.7 35.4399 30.44 35.1699 30.11 35.1699C29.78 35.1699 29.52 35.43 29.51 35.75C29.51 35.83 29.45 37.63 27.65 37.63C25.89 37.63 25.79 35.95 25.79 35.75C25.78 35.42 25.53 35.1699 25.2 35.1699C24.88 35.1699 24.61 35.4399 24.61 35.7599C24.61 35.9499 24.54 37.61 22.76 37.61C20.98 37.61 20.91 35.9499 20.91 35.7599C20.91 35.4399 20.65 35.1699 20.32 35.1699C19.99 35.1699 19.73 35.4299 19.73 35.7599C19.73 35.8399 19.68 37.63 17.84 37.63C16.05 37.63 15.98 35.96 15.98 35.77C15.97 35.43 15.71 35.18 15.39 35.18C15.06 35.18 14.8 35.44 14.8 35.77C14.8 35.96 14.73 37.63 12.99 37.63C11.23 37.63 11.13 35.95 11.13 35.75C11.12 35.43 10.86 35.1699 10.54 35.1699C10.22 35.1699 9.96 35.42 9.95 35.75C9.95 35.85 9.91 36.68 9.3 37.2C8.58 36.58 7.09 35.33 4.83 33.49C2.93 31.95 1.92 29.9999 1.46 28.8899C4.34 28.9399 13.61 29.3899 22.25 32.8499C26.64 34.5999 30.66 35.49 34.18 35.49C34.31 35.49 34.43 35.49 34.55 35.49C34.49 35.56 34.47 35.65 34.47 35.75ZM22.27 32.75C22.94 33.02 23.59 33.26 24.22 33.4799C23.59 33.26 22.94 33.02 22.27 32.75ZM24.85 33.68C25.26 33.81 25.66 33.95 26.05 34.07C25.67 33.9599 25.26 33.82 24.85 33.68ZM26.75 34.2599C27.09 34.3599 27.44 34.4499 27.77 34.5299C27.44 34.4499 27.09 34.3599 26.75 34.2599ZM28.45 34.6899C28.75 34.7599 29.06 34.83 29.35 34.88C29.06 34.83 28.76 34.7599 28.45 34.6899ZM30.01 35C30.28 35.05 30.56 35.09 30.82 35.13C30.56 35.09 30.28 35.05 30.01 35ZM31.43 35.2099C31.68 35.2399 31.93 35.27 32.16 35.29C31.93 35.27 31.68 35.2399 31.43 35.2099ZM32.73 35.33C32.96 35.34 33.18 35.36 33.39 35.36C33.17 35.36 32.95 35.35 32.73 35.33ZM1.74 27.8099C1.75 27.8099 1.75 27.8099 1.76 27.8099C1.75 27.8099 1.74 27.8099 1.74 27.8099ZM2.46 27.83C2.49 27.83 2.52 27.83 2.55 27.83C2.52 27.84 2.49 27.83 2.46 27.83ZM3.38 27.8799C3.42 27.8799 3.47 27.8799 3.51 27.8899C3.47 27.8799 3.42 27.8799 3.38 27.8799ZM4.46 27.94C4.52 27.94 4.57 27.95 4.63 27.95C4.58 27.95 4.52 27.95 4.46 27.94ZM5.7 28.04C5.76 28.05 5.82 28.0499 5.89 28.0599C5.83 28.0499 5.76 28.04 5.7 28.04ZM7.08 28.17C7.14 28.18 7.19 28.18 7.25 28.19C7.19 28.19 7.14 28.18 7.08 28.17ZM8.58 28.35C8.62 28.35 8.66 28.36 8.69 28.37C8.66 28.36 8.62 28.35 8.58 28.35ZM11.73 28.83C11.78 28.84 11.82 28.85 11.87 28.85C11.83 28.84 11.78 28.84 11.73 28.83ZM13.41 29.15C13.48 29.16 13.55 29.18 13.63 29.19C13.56 29.17 13.48 29.16 13.41 29.15ZM15.18 29.53C15.26 29.55 15.35 29.57 15.43 29.59C15.34 29.57 15.26 29.55 15.18 29.53ZM17 29.9799C17.09 29.9999 17.17 30.0299 17.26 30.0499C17.17 30.0299 17.09 30.0099 17 29.9799ZM18.87 30.52C18.95 30.54 19.02 30.57 19.1 30.59C19.02 30.56 18.94 30.54 18.87 30.52ZM20.75 31.1299C20.8 31.1499 20.85 31.17 20.9 31.18C20.85 31.17 20.8 31.1499 20.75 31.1299ZM7.95 37.6199C7.37 37.6199 6.93 37.46 6.62 37.15C6.3 36.82 6.17 36.39 6.13 36.09C6.92 36.75 7.53 37.2699 7.95 37.6199ZM25.19 35.27C25.23 35.27 25.27 35.28 25.31 35.29C25.27 35.28 25.23 35.27 25.19 35.27ZM25.48 35.3699C25.45 35.3499 25.42 35.32 25.39 35.31C25.42 35.32 25.45 35.3499 25.48 35.3699ZM25.64 35.56C25.62 35.5 25.58 35.45 25.54 35.41C25.58 35.45 25.61 35.5 25.64 35.56ZM25.68 35.75C25.68 35.68 25.66 35.62 25.64 35.56C25.67 35.62 25.68 35.68 25.68 35.75ZM34.17 35.3899C34.09 35.3899 33.99 35.38 33.9 35.38C34.2 35.38 34.49 35.39 34.76 35.38C34.57 35.38 34.37 35.3899 34.17 35.3899ZM33.43 34.38C33.6 34.39 33.76 34.3899 33.92 34.3899C33.76 34.3899 33.6 34.38 33.43 34.38ZM34.45 34.3899C34.65 34.3899 34.84 34.3799 35.02 34.3699C34.84 34.3799 34.64 34.3799 34.45 34.3899ZM35.65 35.7599C35.65 35.6399 35.61 35.5299 35.55 35.4399C36.79 35.3499 37.7 35.15 38.28 34.9799L37.97 37.58C37.82 37.61 37.67 37.6199 37.51 37.6199C35.72 37.6199 35.65 35.9499 35.65 35.7599ZM35.46 34.34C35.63 34.33 35.8 34.3099 35.96 34.2999C35.8 34.3199 35.63 34.33 35.46 34.34ZM36.33 34.2599C36.48 34.2399 36.62 34.22 36.76 34.2C36.62 34.22 36.48 34.2399 36.33 34.2599ZM37.07 34.1399C37.2 34.1199 37.31 34.09 37.43 34.07C37.31 34.09 37.2 34.1199 37.07 34.1399ZM37.67 34.0099C37.77 33.9799 37.87 33.96 37.95 33.93C37.87 33.96 37.78 33.9899 37.67 34.0099ZM38.14 33.88C38.22 33.85 38.29 33.83 38.36 33.81C38.29 33.83 38.23 33.86 38.14 33.88ZM38.76 33.66C38.83 33.63 38.91 33.61 38.98 33.61C38.99 33.61 38.99 33.6199 39 33.6199C38.91 33.6099 38.83 33.62 38.76 33.66C38.76 33.66 38.73 33.6699 38.69 33.6899C38.72 33.6699 38.75 33.66 38.76 33.66ZM38.48 33.77C38.54 33.75 38.59 33.7299 38.63 33.7099C38.58 33.7299 38.54 33.75 38.48 33.77ZM32.79 34.34C32.61 34.33 32.44 34.3099 32.25 34.2999C32.43 34.3199 32.61 34.33 32.79 34.34ZM31.54 34.2299C31.35 34.2099 31.15 34.18 30.95 34.15C31.15 34.18 31.35 34.1999 31.54 34.2299ZM30.17 34.0299C29.96 33.9899 29.75 33.9599 29.53 33.9199C29.75 33.9499 29.96 33.9899 30.17 34.0299ZM28.66 33.7299C28.44 33.6799 28.22 33.63 27.99 33.58C28.22 33.63 28.44 33.6799 28.66 33.7299ZM27 33.31C26.77 33.25 26.56 33.1899 26.32 33.1199C26.56 33.1899 26.78 33.25 27 33.31ZM25.15 32.75C24.95 32.68 24.75 32.6199 24.54 32.5499C24.75 32.6199 24.95 32.68 25.15 32.75ZM0.8 27.7999C0.78 27.7999 0.77 27.7999 0.75 27.7999C0.76 27.7999 0.76 27.7999 0.78 27.7999C0.78 27.7999 0.79 27.7999 0.8 27.7999ZM1.2 27.7999C1.18 27.7999 1.16 27.7999 1.15 27.7999C1.16 27.7999 1.18 27.7999 1.2 27.7999ZM0.66 27.7999C0.65 27.7999 0.64 27.7999 0.63 27.7999C0.64 27.7999 0.65 27.7999 0.66 27.7999Z" fill="#464860"/>
<path d="M4.5898 27.12C4.6398 27.12 9.9598 27.13 14.2098 28.19C19.3998 29.48 23.1398 31.03 23.1698 31.04C23.2398 31.07 23.3198 31.09 23.3998 31.09C23.5598 31.09 23.7098 31.03 23.8198 30.92C23.9898 30.75 24.0398 30.5 23.9498 30.28C23.8898 30.12 22.4098 26.31 22.6798 18.56C22.8798 12.79 24.2898 7.28996 24.7298 5.70996L24.6998 30.91C24.6998 31.14 24.8298 31.35 25.0398 31.45C25.1898 31.52 28.6398 33.14 31.7598 33.47C32.2498 33.52 32.8098 33.55 33.4198 33.55C35.5598 33.55 37.7598 33.23 37.8498 33.22C38.0498 33.19 38.2298 33.05 38.3098 32.86C38.3898 32.67 38.3598 32.45 38.2398 32.28C38.1998 32.23 34.6098 27.35 31.7598 22.34C28.1698 16 25.9898 5.82996 25.8998 5.39996C25.8398 5.12996 25.5998 4.92996 25.3198 4.92996C25.2998 4.92996 25.2798 4.92996 25.2598 4.92996C25.0998 4.94996 24.9598 5.02996 24.8598 5.14996C24.8898 4.94996 24.8398 4.74996 24.6898 4.60996C24.5798 4.50996 24.4398 4.45996 24.2898 4.45996C24.2098 4.45996 24.1398 4.47996 24.0598 4.50996C23.8098 4.61996 17.7898 7.16996 11.8898 14.63C7.7498 19.87 4.4298 25.59 4.0698 26.23C3.9598 26.42 3.9598 26.64 4.0698 26.83C4.1798 27.01 4.3798 27.12 4.5898 27.12ZM21.4898 18.51C21.2998 24.13 21.9898 27.75 22.4598 29.5C20.9498 28.94 18.0398 27.93 14.4898 27.04C11.1598 26.21 7.2798 26 5.5998 25.95C6.7298 24.05 9.5298 19.52 12.8198 15.36C17.0598 9.99996 21.4698 7.20996 23.3698 6.16996C22.8198 8.31996 21.6698 13.36 21.4898 18.51ZM25.8998 10.31C26.9598 14.12 28.5998 19.16 30.7298 22.91C32.8998 26.74 35.5598 30.55 36.6998 32.15C35.8298 32.24 34.5998 32.35 33.3998 32.35C32.8298 32.35 32.3198 32.33 31.8798 32.28C29.4998 32.03 26.7498 30.9 25.8798 30.52L25.8998 10.31ZM32.5798 32.43C32.3398 32.42 32.0998 32.4 31.8798 32.38C32.0998 32.4 32.3298 32.42 32.5798 32.43ZM33.3098 32.45C33.1398 32.45 32.9798 32.44 32.8198 32.44C32.9798 32.44 33.1498 32.45 33.3098 32.45ZM36.8798 32.23C36.6998 32.25 36.4898 32.27 36.2598 32.29C36.4898 32.27 36.6998 32.25 36.8798 32.23ZM36.0798 32.31C35.8798 32.33 35.6598 32.35 35.4398 32.36C35.6598 32.35 35.8698 32.33 36.0798 32.31ZM35.2898 32.38C35.0198 32.4 34.7398 32.41 34.4598 32.43C34.7398 32.41 35.0198 32.4 35.2898 32.38ZM34.2498 32.43C34.0198 32.44 33.7898 32.44 33.5598 32.44C33.7898 32.44 34.0198 32.44 34.2498 32.43ZM25.7298 5.25996C25.7598 5.30996 25.7898 5.35996 25.7998 5.41996C25.7898 5.35996 25.7598 5.30996 25.7298 5.25996ZM25.6898 5.21996C25.6698 5.18996 25.6398 5.15996 25.6098 5.13996C25.6398 5.15996 25.6698 5.18996 25.6898 5.21996ZM25.3098 5.02996C25.3398 5.02996 25.3598 5.03996 25.3898 5.03996C25.3498 5.02996 25.3098 5.01996 25.2698 5.02996C25.2798 5.02996 25.2998 5.02996 25.3098 5.02996ZM25.5498 5.09996C25.5198 5.07996 25.4898 5.06996 25.4598 5.05996C25.4898 5.06996 25.5198 5.07996 25.5498 5.09996ZM24.6198 4.68996C24.5598 4.62996 24.4798 4.59996 24.3998 4.57996C24.4798 4.59996 24.5598 4.62996 24.6198 4.68996ZM24.2898 4.55996C24.3098 4.55996 24.3298 4.56996 24.3498 4.56996C24.2698 4.55996 24.1798 4.55996 24.1098 4.59996C24.1598 4.57996 24.2298 4.55996 24.2898 4.55996Z" fill="#464860"/>
<path d="M25.1201 4.49L30.4401 6.09C30.4901 6.11 30.5501 6.11 30.6101 6.11C30.8201 6.11 31.0201 6 31.1201 5.81C31.2601 5.57 31.2101 5.27 31.0101 5.08L25.6901 0.15C25.5801 0.06 25.4401 0 25.2901 0C25.2101 0 25.1301 0.02 25.0501 0.05C24.8301 0.14 24.7001 0.36 24.7001 0.59V3.92C24.6901 4.19 24.8601 4.41 25.1201 4.49ZM28.3301 4.22L25.8801 3.48V1.95L28.3301 4.22ZM25.6201 0.23C25.5601 0.17 25.4801 0.14 25.4001 0.12C25.4801 0.14 25.5601 0.17 25.6201 0.23ZM25.2901 0.1C25.3101 0.1 25.3301 0.11 25.3401 0.11C25.2601 0.1 25.1701 0.11 25.0901 0.14C25.1501 0.11 25.2201 0.1 25.2901 0.1Z" fill="#464860"/>
</svg>
