<svg width="32" height="38" viewBox="0 0 32 38" fill="none" xmlns="http://www.w3.org/2000/svg">
<path d="M19.4828 14.7666L15.1211 17.2758V13.9872L18.9898 11.7664C19.1827 12.7166 19.3435 13.7203 19.4828 14.7666Z" fill="white"/>
<path d="M13.8244 17.2863L9.39844 14.7452C9.53775 13.6988 9.6985 12.6951 9.8914 11.7449L13.8244 14.0084V17.2863Z" fill="white"/>
<path d="M9.23777 16.1438L13.8245 18.7811V22.0696L9.02344 19.3149C9.0663 18.2258 9.1306 17.1688 9.23777 16.1438Z" fill="white"/>
<path d="M15.1211 18.7705L19.6435 16.1653C19.74 17.1796 19.815 18.2367 19.8579 19.3364L15.1211 22.0591V18.7705Z" fill="white"/>
<path d="M18.7112 10.4316L15.1211 12.4923V1.64429C16.1392 2.76539 17.6609 5.91515 18.7112 10.4316Z" fill="white"/>
<path d="M13.8243 1.56958V12.503L10.1807 10.4103C11.2523 5.80841 12.8062 2.62662 13.8243 1.56958Z" fill="white"/>
<path d="M8.99121 20.9487C8.99121 20.8953 8.99121 20.842 8.99121 20.7886L13.8137 23.5646V33.5798C12.6349 33.6225 11.4882 33.7186 10.3737 33.8467C9.50561 30.3019 8.99121 25.7641 8.99121 20.9487Z" fill="white"/>
<path d="M15.1211 33.5477V23.5539L19.8793 20.8206C19.8793 20.8633 19.8793 20.9167 19.8793 20.9594C19.8793 25.668 19.397 30.1097 18.5504 33.6225C17.6717 33.5798 16.7822 33.5477 15.882 33.5477C15.6248 33.5371 15.3783 33.5371 15.1211 33.5477Z" fill="white"/>
<path d="M19.8152 11.1469L16.2251 13.2076V2.35962C17.2432 3.48072 18.7649 6.63048 19.8152 11.1469Z" fill="#CCB8F4"/>
<path d="M14.9283 2.28491V13.2183L11.2847 11.1256C12.3563 6.52374 13.921 3.34195 14.9283 2.28491Z" fill="#CCB8F4"/>
<path d="M10.106 21.6641C10.106 21.6107 10.106 21.5573 10.106 21.5039L14.9285 24.28V34.2951C13.7496 34.3378 12.6029 34.4339 11.4884 34.5621C10.6096 31.0173 10.106 26.4795 10.106 21.6641Z" fill="#CCB8F4"/>
<path d="M16.2251 34.2631V24.2692L20.9833 21.5359C20.9833 21.5786 20.9833 21.632 20.9833 21.6747C20.9833 26.3833 20.5011 30.825 19.6544 34.3378C18.7757 34.2951 17.8862 34.2631 16.986 34.2631C16.7395 34.2524 16.4823 34.2524 16.2251 34.2631Z" fill="#CCB8F4"/>
<path d="M24.7984 3.43799C26.0201 3.95049 27.8205 13.1756 24.927 23.9381C23.941 27.6004 22.6979 31.0064 21.3476 33.8572C20.8546 33.8038 20.3617 33.7504 19.858 33.7077C20.7046 30.1202 21.1869 25.6572 21.1869 20.9592C21.1869 16.667 20.5867 12.4815 19.6865 8.97943C21.9156 5.44529 24.0268 3.43799 24.7984 3.43799Z" fill="white"/>
<path d="M26.106 4.44165C27.3277 4.95415 29.1281 14.1792 26.2346 24.9418C25.2487 28.6041 24.0055 32.0101 22.6552 34.8609C22.1623 34.8075 21.6693 34.7541 21.1656 34.7114C22.0122 31.1239 22.4945 26.6608 22.4945 21.9629C22.4945 17.6706 21.8943 13.4852 20.9941 9.9831C23.2232 6.45963 25.3344 4.44165 26.106 4.44165Z" fill="#A3EFE0"/>
<path d="M22.6872 34.1242L22.5479 34.1028L22.6122 33.9747C23.9518 31.0705 25.1628 27.7072 26.0951 24.2371C27.8634 17.6814 27.7883 12.1933 27.5847 9.51335C27.349 6.27817 26.5774 2.67997 25.1199 2.29559C25.0234 2.27423 24.9163 2.25288 24.8091 2.25288C23.566 2.25288 21.4655 4.21748 19.3222 7.38859L19.1936 7.5701L19.1293 7.35656C17.7575 2.89351 15.925 0 14.4354 0C11.5419 0 7.80174 10.1647 7.80174 20.9486C7.80174 25.6572 8.29471 30.2804 9.19491 33.9854L9.22706 34.1028L9.10918 34.1135C5.30476 34.6687 2.16477 35.651 0 36.9536L0.567984 37.8719C3.7937 35.9286 9.64501 34.7114 15.8821 34.7114C22.2907 34.7114 28.217 35.9713 31.3999 37.9893L31.9893 37.0818C29.8888 35.7578 26.5881 34.7008 22.6872 34.1242ZM13.9317 23.5645V33.5797V33.6864H13.8245C12.6564 33.7291 11.5097 33.8252 10.3952 33.9534L10.2987 33.964L10.2773 33.8679C9.37709 30.2591 8.88413 25.6786 8.88413 20.9486V20.8632V20.7884V20.6069L9.04488 20.703L13.8674 23.4791L13.9317 23.5004V23.5645ZM13.9317 18.7811V22.0697V22.2512L13.7709 22.1551L8.96986 19.4004L8.91628 19.3684V19.3043C8.94843 18.2366 9.02344 17.1689 9.13061 16.1332L9.15204 15.973L9.29136 16.0584L13.8781 18.6957L13.9317 18.7171V18.7811ZM13.9317 13.9978V17.2863V17.4678L13.7709 17.3717L9.34494 14.8412L9.28064 14.8092L9.29136 14.7345C9.41996 13.7308 9.59143 12.7165 9.78433 11.7235L9.81648 11.574L9.94508 11.6488L13.8781 13.9123L13.9317 13.9444V13.9978ZM13.9317 1.56954V12.503V12.6845L13.7709 12.5884L10.1273 10.4956L10.0522 10.4636L10.0737 10.3889C11.1453 5.78702 12.7314 2.55184 13.7495 1.4948L13.9317 1.30261V1.56954ZM15.0141 12.4923V1.64428V1.36668L15.1962 1.56954C16.2358 2.72268 17.7575 5.89379 18.8078 10.4102L18.8292 10.485L18.7649 10.5277L15.1748 12.5884L15.0141 12.6845V12.4923ZM15.0141 17.2756V13.9871V13.923L15.0676 13.891L18.9364 11.6701L19.065 11.5954L19.0971 11.7449C19.3007 12.7485 19.4615 13.7522 19.5901 14.7558L19.6008 14.8306L19.5365 14.8626L15.1748 17.3717L15.0141 17.4678V17.2756ZM15.0141 22.059V18.7704V18.7064L15.0676 18.6743L19.5901 16.0691L19.7294 15.9837L19.7508 16.1439C19.858 17.1795 19.9223 18.2473 19.9652 19.315V19.379L19.9116 19.4111L15.1748 22.1337L15.0141 22.2298V22.059ZM18.6363 33.7185H18.5506C17.6397 33.6651 16.7502 33.6437 15.8928 33.6437C15.6892 33.6437 15.4963 33.6437 15.2927 33.6544H15.1319H15.0248V33.5476V23.5538V23.4897L15.0784 23.4577L19.8366 20.7244L19.9973 20.6283V20.8098V20.8632V20.9486C19.9973 25.5611 19.5258 30.0669 18.6685 33.633L18.6363 33.7185ZM21.4119 33.964L21.3369 33.9534C20.8332 33.9 20.3295 33.8466 19.8473 33.8039L19.7187 33.7932L19.7508 33.6758C20.6082 30.0455 21.069 25.5291 21.069 20.9486C21.069 15.8663 20.2545 11.6381 19.5794 8.99017L19.5687 8.94746L19.5901 8.90475C21.8835 5.27452 23.9839 3.3206 24.7984 3.3206H24.8198L24.8413 3.33127C26.0844 3.85445 27.9384 13.1436 25.0342 23.9489C24.0697 27.5364 22.8265 30.9744 21.4441 33.8786L21.4119 33.964Z" fill="#464860"/>
</svg>
