<svg width="49" height="25" viewBox="0 0 49 25" fill="none" xmlns="http://www.w3.org/2000/svg">
<path d="M4.86949 17.23C4.22949 18.4 4.08949 19.82 4.47949 21.1L4.59949 21.49H4.19949H3.57949C2.27949 21.49 1.22949 20.43 1.22949 19.14C1.22949 17.85 2.28949 16.79 3.57949 16.79H4.61949H5.12949L4.86949 17.23Z" fill="white"/>
<path d="M9.30979 23.4401H9.23979C7.20979 23.4401 5.51979 21.7801 5.48979 19.7501V19.6201C5.47979 17.6001 7.11979 15.9101 9.14979 15.8601H9.24979C11.2998 15.8601 12.9498 17.4701 12.9998 19.5201V19.6301C13.0398 21.6901 11.3798 23.4001 9.30979 23.4401Z" fill="white"/>
<path d="M35.1699 17.23C34.5199 18.41 34.3799 19.82 34.7799 21.1L34.8999 21.49H34.4899H14.2899H13.8899L14.0099 21.1C14.4099 19.82 14.2599 18.41 13.6199 17.23L13.3799 16.79H13.8899H34.9199H35.4299L35.1699 17.23Z" fill="white"/>
<path d="M39.6096 23.4401H39.5396C37.5096 23.4401 35.8196 21.7801 35.7896 19.7501V19.6201C35.7796 17.6001 37.4196 15.9101 39.4496 15.8601H39.5496C41.5996 15.8601 43.2496 17.4701 43.2996 19.5201V19.6301C43.3296 21.6901 41.6796 23.4001 39.6096 23.4401Z" fill="white"/>
<path d="M42.5098 15.5499H42.4198L42.3398 15.4999C41.5098 14.9399 40.5398 14.6399 39.5398 14.6399C38.5398 14.6399 37.5698 14.9399 36.7398 15.4999L36.6598 15.5499H36.5698H12.2198H12.1298L12.0498 15.4999C11.2198 14.9399 10.2498 14.6399 9.24982 14.6399C8.24982 14.6399 7.27982 14.9399 6.44982 15.4999L6.36982 15.5499H6.26982H4.11982H3.81982V15.2499V8.55994C3.81982 8.38994 3.87982 8.23994 3.99982 8.11994C4.11982 7.99994 4.27982 7.93994 4.43982 7.93994H4.68982H10.6298C10.8098 7.93994 10.9898 7.99994 11.1398 8.10994C14.3698 10.5899 18.3998 11.9499 22.4698 11.9499C26.4898 11.9499 30.3098 10.6899 33.5398 8.29994C33.6898 8.18994 33.8598 8.13994 34.0398 8.13994C34.1198 8.13994 34.1898 8.14994 34.2698 8.16994C38.1798 9.25994 41.5798 11.5199 44.0998 14.7099C44.1898 14.8199 44.2198 14.9499 44.2098 15.0899C44.1898 15.2299 44.1298 15.3499 44.0198 15.4299C43.9298 15.4999 43.8198 15.5399 43.6998 15.5399H42.5098V15.5499Z" fill="white"/>
<path d="M44.7494 21.49H44.5894H44.1794L44.2994 21.1C44.6994 19.82 44.5494 18.41 43.9094 17.23L43.6694 16.79H44.1794H44.7494C46.0494 16.79 47.0994 17.85 47.0994 19.14C47.0994 20.43 46.0394 21.49 44.7494 21.49Z" fill="white"/>
<path d="M5.52988 18.0601C4.87988 19.2401 4.73988 20.6501 5.13988 21.9301L5.25988 22.3201H4.84988H4.22988C2.92988 22.3201 1.87988 21.2601 1.87988 19.9701C1.87988 18.6801 2.93988 17.6201 4.22988 17.6201H5.26988H5.77988L5.52988 18.0601Z" fill="#A3EFE0"/>
<path d="M9.30979 23.4401H9.23979C7.20979 23.4401 5.51979 21.7801 5.48979 19.7501V19.6201C5.47979 17.6001 7.11979 15.9101 9.14979 15.8601H9.24979C11.2998 15.8601 12.9498 17.4701 12.9998 19.5201V19.6301C13.0398 21.6901 11.3798 23.4001 9.30979 23.4401Z" fill="white"/>
<path d="M35.9299 17.74C35.2799 18.92 35.1399 20.3301 35.5399 21.6101L35.6599 22H35.2499H15.0499H14.6399L14.7599 21.6101C15.1599 20.3301 15.0099 18.92 14.3699 17.74L14.1299 17.3H14.6399H35.6699H36.1799L35.9299 17.74Z" fill="#A3EFE0"/>
<path d="M39.6096 23.4401H39.5396C37.5096 23.4401 35.8196 21.7801 35.7896 19.7501V19.6201C35.7796 17.6001 37.4196 15.9101 39.4496 15.8601H39.5496C41.5996 15.8601 43.2496 17.4701 43.2996 19.5201V19.6301C43.3296 21.6901 41.6796 23.4001 39.6096 23.4401Z" fill="white"/>
<path d="M43.0196 16.7799H42.9296L42.8496 16.7299C42.0196 16.1699 41.0496 15.8699 40.0496 15.8699C39.0496 15.8699 38.0796 16.1699 37.2496 16.7299L37.1696 16.7799H37.0796H12.7196H12.6296L12.5496 16.7299C11.7196 16.1699 10.7496 15.8699 9.74959 15.8699C8.74959 15.8699 7.77959 16.1699 6.94959 16.7299L6.86959 16.7799H6.77959H4.62959H4.32959V16.4799V9.78992C4.32959 9.61992 4.38959 9.46992 4.50959 9.34992C4.62959 9.23992 4.78959 9.16992 4.94959 9.16992H5.19959H11.1396C11.3196 9.16992 11.4996 9.22992 11.6496 9.33992C14.8796 11.8199 18.9096 13.1799 22.9796 13.1799C26.9996 13.1799 30.8196 11.9199 34.0496 9.52992C34.1996 9.41992 34.3696 9.36992 34.5496 9.36992C34.6296 9.36992 34.6996 9.37992 34.7796 9.39992C38.6896 10.4899 42.0896 12.7499 44.6096 15.9399C44.6996 16.0499 44.7296 16.1799 44.7196 16.3199C44.6996 16.4599 44.6396 16.5799 44.5296 16.6599C44.4396 16.7299 44.3296 16.7699 44.2096 16.7699H43.0196V16.7799Z" fill="#CCB8F4"/>
<path d="M45.5395 22H45.3795H44.9695L45.0895 21.6101C45.4895 20.3301 45.3395 18.92 44.6995 17.74L44.4595 17.3H44.9695H45.5395C46.8395 17.3 47.8895 18.36 47.8895 19.65C47.8895 20.94 46.8295 22 45.5395 22Z" fill="#A3EFE0"/>
<path d="M46.5297 16.03L46.4597 15.99L46.4197 15.92C43.6097 11.32 39.1697 8.08 33.9297 6.81C33.8697 6.8 33.8097 6.8 33.7497 6.8C33.5797 6.8 33.3997 6.86 33.2697 6.97C33.0297 7.16 32.7897 7.34 32.5497 7.51L32.3497 7.65L32.1697 7.48L28.0997 3.57L27.8797 3.36L28.0897 3.14L30.1097 1.04C30.2197 0.92 30.2797 0.77 30.2797 0.6C30.2797 0.44 30.2097 0.28 30.0897 0.17C29.9697 0.06 29.8197 0 29.6597 0H29.6197H29.5897C29.4497 0.02 29.3197 0.08 29.2197 0.19L23.8797 5.75C23.6397 6 23.6497 6.39 23.8997 6.62C24.0197 6.73 24.1697 6.79 24.3297 6.79C24.4997 6.79 24.6597 6.72 24.7697 6.6L26.8197 4.46L27.0297 4.24L27.2497 4.45L30.9897 8.05L31.2797 8.33L30.9297 8.53C28.3497 9.97 25.4197 10.73 22.4697 10.73C18.8997 10.73 15.4697 9.65 12.5397 7.62L12.4097 7.53V7.37V3.21C12.4097 2.61 11.9097 2.12 11.3097 2.12C10.6997 2.12 10.2097 2.61 10.2097 3.21V6.41V6.71H9.90967H4.44967C3.42967 6.71 2.59967 7.54 2.59967 8.56V15.47V15.68L2.39967 15.75C0.539671 16.4 -0.450329 18.45 0.199671 20.31C0.699671 21.75 2.05967 22.71 3.57967 22.71H5.18967H5.32967L5.41967 22.82C6.36967 23.96 7.75967 24.61 9.24967 24.61C10.4197 24.61 11.5497 24.2 12.4497 23.45C12.6797 23.26 12.8897 23.05 13.0697 22.83L13.1597 22.72H13.2997H35.4897H35.6297L35.7197 22.83C36.6697 23.97 38.0597 24.62 39.5497 24.62C40.7197 24.62 41.8497 24.21 42.7497 23.46C42.9797 23.27 43.1897 23.06 43.3697 22.84L43.4597 22.73H43.5997H44.7497C46.7297 22.73 48.3297 21.12 48.3297 19.15C48.3297 17.86 47.6397 16.67 46.5297 16.03ZM4.86967 17.23C4.22967 18.4 4.08967 19.82 4.47967 21.1L4.59967 21.49H4.19967H3.57967C2.27967 21.49 1.22967 20.43 1.22967 19.14C1.22967 17.85 2.28967 16.79 3.57967 16.79H4.61967H5.12967L4.86967 17.23ZM9.30967 23.44H9.23967C7.20967 23.44 5.51967 21.78 5.48967 19.75V19.62C5.47967 17.6 7.11967 15.91 9.14967 15.86H9.24967C11.2997 15.86 12.9497 17.47 12.9997 19.52V19.63C13.0397 21.69 11.3797 23.4 9.30967 23.44ZM35.1697 17.23C34.5197 18.41 34.3797 19.82 34.7797 21.1L34.8997 21.49H34.4897H14.2897H13.8897L14.0097 21.1C14.4097 19.82 14.2597 18.41 13.6197 17.23L13.3797 16.79H13.8897H34.9197H35.4297L35.1697 17.23ZM39.6097 23.44H39.5397C37.5097 23.44 35.8197 21.78 35.7897 19.75V19.62C35.7797 17.6 37.4197 15.91 39.4497 15.86H39.5497C41.5997 15.86 43.2497 17.47 43.2997 19.52V19.63C43.3297 21.69 41.6797 23.4 39.6097 23.44ZM42.5097 15.55H42.4197L42.3397 15.5C41.5097 14.94 40.5397 14.64 39.5397 14.64C38.5397 14.64 37.5697 14.94 36.7397 15.5L36.6597 15.55H36.5697H12.2197H12.1297L12.0497 15.5C11.2197 14.94 10.2497 14.64 9.24967 14.64C8.24967 14.64 7.27967 14.94 6.44967 15.5L6.36967 15.55H6.26967H4.11967H3.81967V15.25V8.56C3.81967 8.39 3.87967 8.24 3.99967 8.12C4.11967 8 4.27967 7.94 4.43967 7.94H4.68967H10.6297C10.8097 7.94 10.9897 8 11.1397 8.11C14.3697 10.59 18.3997 11.95 22.4697 11.95C26.4897 11.95 30.3097 10.69 33.5397 8.3C33.6897 8.19 33.8597 8.14 34.0397 8.14C34.1197 8.14 34.1897 8.15 34.2697 8.17C38.1797 9.26 41.5797 11.52 44.0997 14.71C44.1897 14.82 44.2197 14.95 44.2097 15.09C44.1897 15.23 44.1297 15.35 44.0197 15.43C43.9297 15.5 43.8197 15.54 43.6997 15.54H42.5097V15.55ZM44.7497 21.49H44.5897H44.1797L44.2997 21.1C44.6997 19.82 44.5497 18.41 43.9097 17.23L43.6697 16.79H44.1797H44.7497C46.0497 16.79 47.0997 17.85 47.0997 19.14C47.0997 20.43 46.0397 21.49 44.7497 21.49Z" fill="#464860"/>
</svg>
